solid OpenSCAD_Model
  facet normal -1 0 0
    outer loop
      vertex -11 23.25 -2
      vertex -11 23.25 2
      vertex -11 27.75 -2
    endloop
  endfacet
  facet normal -1 0 0
    outer loop
      vertex -11 27.75 -2
      vertex -11 23.25 2
      vertex -11 27.75 2
    endloop
  endfacet
  facet normal -0.994522 -0.104529 0
    outer loop
      vertex -11 23.25 -2
      vertex -10.9618 22.8862 -2
      vertex -11 23.25 2
    endloop
  endfacet
  facet normal -0.994522 -0.104529 0
    outer loop
      vertex -11 23.25 2
      vertex -10.9618 22.8862 -2
      vertex -10.9618 22.8862 2
    endloop
  endfacet
  facet normal 0 0 -1
    outer loop
      vertex -11 23.25 -2
      vertex -11 27.75 -2
      vertex -10.9618 22.8862 -2
    endloop
  endfacet
  facet normal 0 0 -1
    outer loop
      vertex -10.9618 22.8862 -2
      vertex -11 27.75 -2
      vertex -10.9618 28.1138 -2
    endloop
  endfacet
  facet normal 0 0 -1
    outer loop
      vertex -10.9618 22.8862 -2
      vertex -10.9618 28.1138 -2
      vertex -10.8487 28.4618 -2
    endloop
  endfacet
  facet normal 0 0 -1
    outer loop
      vertex -10.9618 22.8862 -2
      vertex -10.8487 28.4618 -2
      vertex -10.6658 28.7786 -2
    endloop
  endfacet
  facet normal 0 0 -1
    outer loop
      vertex -10.9618 22.8862 -2
      vertex -10.6658 28.7786 -2
      vertex -10.421 29.0505 -2
    endloop
  endfacet
  facet normal 0 0 -1
    outer loop
      vertex -10.9618 22.8862 -2
      vertex -10.421 29.0505 -2
      vertex -10.125 29.2655 -2
    endloop
  endfacet
  facet normal 0 0 -1
    outer loop
      vertex -10.9618 22.8862 -2
      vertex -10.125 29.2655 -2
      vertex -9.79078 29.4143 -2
    endloop
  endfacet
  facet normal 0 0 -1
    outer loop
      vertex -10.9618 22.8862 -2
      vertex -9.79078 29.4143 -2
      vertex -9.43292 29.4904 -2
    endloop
  endfacet
  facet normal 0 0 -1
    outer loop
      vertex -10.9618 22.8862 -2
      vertex -9.43292 29.4904 -2
      vertex -9.25 29.4904 -2
    endloop
  endfacet
  facet normal 0 0 -1
    outer loop
      vertex -9.25 29.4904 -2
      vertex -9.25 29.5 -2
      vertex 9.25 29.5 -2
    endloop
  endfacet
  facet normal 0 0 -1
    outer loop
      vertex 6.74634 26.8923 -2
      vertex 10.9618 28.1138 -2
      vertex 11 27.75 -2
    endloop
  endfacet
  facet normal 0 0 -1
    outer loop
      vertex 7.53678 24.4596 -2
      vertex 11 27.75 -2
      vertex 11 23.25 -2
    endloop
  endfacet
  facet normal 0 0 -1
    outer loop
      vertex -10.9618 22.8862 -2
      vertex 11 23.25 -2
      vertex 10.9618 22.8862 -2
    endloop
  endfacet
  facet normal 0 0 -1
    outer loop
      vertex -10.9618 22.8862 -2
      vertex 10.9618 22.8862 -2
      vertex 10.8487 22.5382 -2
    endloop
  endfacet
  facet normal 0 0 -1
    outer loop
      vertex -10.9618 22.8862 -2
      vertex 10.8487 22.5382 -2
      vertex 10.6658 22.2214 -2
    endloop
  endfacet
  facet normal 0 0 -1
    outer loop
      vertex -10.9618 22.8862 -2
      vertex 10.6658 22.2214 -2
      vertex 10.421 21.9495 -2
    endloop
  endfacet
  facet normal 0 0 -1
    outer loop
      vertex -10.9618 22.8862 -2
      vertex 10.421 21.9495 -2
      vertex 10.125 21.7345 -2
    endloop
  endfacet
  facet normal 0 0 -1
    outer loop
      vertex -10.9618 22.8862 -2
      vertex 10.125 21.7345 -2
      vertex 9.79078 21.5857 -2
    endloop
  endfacet
  facet normal 0 0 -1
    outer loop
      vertex -10.9618 22.8862 -2
      vertex 9.79078 21.5857 -2
      vertex 9.43292 21.5096 -2
    endloop
  endfacet
  facet normal 0 0 -1
    outer loop
      vertex -10.9618 22.8862 -2
      vertex 9.43292 21.5096 -2
      vertex 9.25 21.5096 -2
    endloop
  endfacet
  facet normal 0 0 -1
    outer loop
      vertex -10.9618 22.8862 -2
      vertex 9.25 21.5096 -2
      vertex 9.25 21.5 -2
    endloop
  endfacet
  facet normal 0 0 -1
    outer loop
      vertex -10.9618 22.8862 -2
      vertex 9.25 21.5 -2
      vertex 6 21.5 -2
    endloop
  endfacet
  facet normal 0 0 -1
    outer loop
      vertex -6 21.5 -2
      vertex 6 21.5 -2
      vertex 6 -24.5 -2
    endloop
  endfacet
  facet normal 0 0 -1
    outer loop
      vertex -6.6 26.9 -2
      vertex 9.25 29.4904 -2
      vertex 9.43292 29.4904 -2
    endloop
  endfacet
  facet normal 0 0 -1
    outer loop
      vertex 3.75 -21.5 -2
      vertex 5.65418 -26.1269 -2
      vertex 5.23607 -26.8511 -2
    endloop
  endfacet
  facet normal 0 0 -1
    outer loop
      vertex 3.42579 -23.0253 -2
      vertex 5.23607 -26.8511 -2
      vertex 4.67652 -27.4726 -2
    endloop
  endfacet
  facet normal 0 0 -1
    outer loop
      vertex 3.03381 -23.7042 -2
      vertex 4.67652 -27.4726 -2
      vertex 4 -27.9641 -2
    endloop
  endfacet
  facet normal 0 0 -1
    outer loop
      vertex 2.50924 -24.2868 -2
      vertex 4 -27.9641 -2
      vertex 3.23607 -28.3042 -2
    endloop
  endfacet
  facet normal 0 0 -1
    outer loop
      vertex 1.875 -24.7476 -2
      vertex 3.23607 -28.3042 -2
      vertex 2.41811 -28.4781 -2
    endloop
  endfacet
  facet normal 0 0 -1
    outer loop
      vertex 1.15881 -25.0665 -2
      vertex 2.41811 -28.4781 -2
      vertex 2 -28.4781 -2
    endloop
  endfacet
  facet normal 0 0 -1
    outer loop
      vertex -2 -28.4781 -2
      vertex 2 -28.5 -2
      vertex -2 -28.5 -2
    endloop
  endfacet
  facet normal 0 0 -1
    outer loop
      vertex -2.50924 -24.2868 -2
      vertex 2 -28.5 -2
      vertex -2 -28.4781 -2
    endloop
  endfacet
  facet normal 0 0 -1
    outer loop
      vertex -6 21.5 -2
      vertex 5.65418 -26.1269 -2
      vertex 3.42579 -19.9747 -2
    endloop
  endfacet
  facet normal 0 0 -1
    outer loop
      vertex -6 21.5 -2
      vertex 6 -24.5 -2
      vertex 5.91259 -25.3316 -2
    endloop
  endfacet
  facet normal 0 0 -1
    outer loop
      vertex -3.66805 -22.2797 -2
      vertex -2.41811 -28.4781 -2
      vertex -3.23607 -28.3042 -2
    endloop
  endfacet
  facet normal 0 0 -1
    outer loop
      vertex -10.9618 22.8862 -2
      vertex 6 21.5 -2
      vertex -6 21.5 -2
    endloop
  endfacet
  facet normal 0 0 -1
    outer loop
      vertex -9.43292 21.5096 -2
      vertex -10.9618 22.8862 -2
      vertex -9.25 21.5096 -2
    endloop
  endfacet
  facet normal 0 0 -1
    outer loop
      vertex -9.25 21.5096 -2
      vertex -6 21.5 -2
      vertex -9.25 21.5 -2
    endloop
  endfacet
  facet normal 0 0 -1
    outer loop
      vertex -10.9618 22.8862 -2
      vertex -6 21.5 -2
      vertex -9.25 21.5096 -2
    endloop
  endfacet
  facet normal 0 0 -1
    outer loop
      vertex -7.03262 24.1685 -2
      vertex -10.9618 22.8862 -2
      vertex -7.3 24.2876 -2
    endloop
  endfacet
  facet normal 0 0 -1
    outer loop
      vertex -10.9618 22.8862 -2
      vertex -9.43292 21.5096 -2
      vertex -9.79078 21.5857 -2
    endloop
  endfacet
  facet normal 0 0 -1
    outer loop
      vertex -10.9618 22.8862 -2
      vertex -9.79078 21.5857 -2
      vertex -10.125 21.7345 -2
    endloop
  endfacet
  facet normal 0 0 -1
    outer loop
      vertex -10.9618 22.8862 -2
      vertex -10.125 21.7345 -2
      vertex -10.421 21.9495 -2
    endloop
  endfacet
  facet normal 0 0 -1
    outer loop
      vertex -10.9618 22.8862 -2
      vertex -10.421 21.9495 -2
      vertex -10.6658 22.2214 -2
    endloop
  endfacet
  facet normal 0 0 -1
    outer loop
      vertex -6.6 26.9 -2
      vertex 9.25 29.5 -2
      vertex 9.25 29.4904 -2
    endloop
  endfacet
  facet normal 0 0 -1
    outer loop
      vertex -9.25 29.4904 -2
      vertex -8 25.5 -2
      vertex -10.9618 22.8862 -2
    endloop
  endfacet
  facet normal 0 0 -1
    outer loop
      vertex -8 25.5 -2
      vertex -7.96941 25.2089 -2
      vertex -10.9618 22.8862 -2
    endloop
  endfacet
  facet normal 0 0 -1
    outer loop
      vertex -7.96941 25.2089 -2
      vertex -7.87896 24.9306 -2
      vertex -10.9618 22.8862 -2
    endloop
  endfacet
  facet normal 0 0 -1
    outer loop
      vertex -7.87896 24.9306 -2
      vertex -7.73262 24.6771 -2
      vertex -10.9618 22.8862 -2
    endloop
  endfacet
  facet normal 0 0 -1
    outer loop
      vertex -7.73262 24.6771 -2
      vertex -7.53678 24.4596 -2
      vertex -10.9618 22.8862 -2
    endloop
  endfacet
  facet normal 0 0 -1
    outer loop
      vertex -7.53678 24.4596 -2
      vertex -7.3 24.2876 -2
      vertex -10.9618 22.8862 -2
    endloop
  endfacet
  facet normal 0 0 -1
    outer loop
      vertex -6.74634 24.1077 -2
      vertex -10.9618 22.8862 -2
      vertex -7.03262 24.1685 -2
    endloop
  endfacet
  facet normal 0 0 -1
    outer loop
      vertex -6.6 24.1077 -2
      vertex -10.9618 22.8862 -2
      vertex -6.74634 24.1077 -2
    endloop
  endfacet
  facet normal 0 0 -1
    outer loop
      vertex 6.6 24.1 -2
      vertex -10.9618 22.8862 -2
      vertex -6.6 24.1 -2
    endloop
  endfacet
  facet normal 0 0 -1
    outer loop
      vertex -10.9618 22.8862 -2
      vertex -6.6 24.1077 -2
      vertex -6.6 24.1 -2
    endloop
  endfacet
  facet normal 0 0 -1
    outer loop
      vertex -10.9618 22.8862 -2
      vertex 6.6 24.1 -2
      vertex 11 23.25 -2
    endloop
  endfacet
  facet normal 0 0 -1
    outer loop
      vertex 6.74634 26.8923 -2
      vertex 11 27.75 -2
      vertex 7.03262 26.8315 -2
    endloop
  endfacet
  facet normal 0 0 -1
    outer loop
      vertex 6.74634 24.1077 -2
      vertex 6.6 24.1 -2
      vertex 6.6 24.1077 -2
    endloop
  endfacet
  facet normal 0 0 -1
    outer loop
      vertex 8 25.5 -2
      vertex 11 27.75 -2
      vertex 7.96941 25.2089 -2
    endloop
  endfacet
  facet normal 0 0 -1
    outer loop
      vertex 6.6 24.1 -2
      vertex 6.74634 24.1077 -2
      vertex 11 23.25 -2
    endloop
  endfacet
  facet normal 0 0 -1
    outer loop
      vertex 6.74634 24.1077 -2
      vertex 7.03262 24.1685 -2
      vertex 11 23.25 -2
    endloop
  endfacet
  facet normal 0 0 -1
    outer loop
      vertex 7.96941 25.2089 -2
      vertex 11 27.75 -2
      vertex 7.87896 24.9306 -2
    endloop
  endfacet
  facet normal 0 0 -1
    outer loop
      vertex 7.03262 24.1685 -2
      vertex 7.3 24.2876 -2
      vertex 11 23.25 -2
    endloop
  endfacet
  facet normal 0 0 -1
    outer loop
      vertex 7.73262 24.6771 -2
      vertex 11 27.75 -2
      vertex 7.53678 24.4596 -2
    endloop
  endfacet
  facet normal 0 0 -1
    outer loop
      vertex 7.3 24.2876 -2
      vertex 7.53678 24.4596 -2
      vertex 11 23.25 -2
    endloop
  endfacet
  facet normal 0 0 -1
    outer loop
      vertex -6.6 26.9 -2
      vertex 9.43292 29.4904 -2
      vertex 9.79078 29.4143 -2
    endloop
  endfacet
  facet normal 0 0 -1
    outer loop
      vertex 7.87896 24.9306 -2
      vertex 11 27.75 -2
      vertex 7.73262 24.6771 -2
    endloop
  endfacet
  facet normal 0 0 -1
    outer loop
      vertex 7.96941 25.7911 -2
      vertex 11 27.75 -2
      vertex 8 25.5 -2
    endloop
  endfacet
  facet normal 0 0 -1
    outer loop
      vertex 7.87896 26.0694 -2
      vertex 11 27.75 -2
      vertex 7.96941 25.7911 -2
    endloop
  endfacet
  facet normal 0 0 -1
    outer loop
      vertex 7.73262 26.3229 -2
      vertex 11 27.75 -2
      vertex 7.87896 26.0694 -2
    endloop
  endfacet
  facet normal 0 0 -1
    outer loop
      vertex -6.6 26.9 -2
      vertex 9.79078 29.4143 -2
      vertex 10.125 29.2655 -2
    endloop
  endfacet
  facet normal 0 0 -1
    outer loop
      vertex 7.53678 26.5404 -2
      vertex 11 27.75 -2
      vertex 7.73262 26.3229 -2
    endloop
  endfacet
  facet normal 0 0 -1
    outer loop
      vertex -6.6 26.9 -2
      vertex 10.125 29.2655 -2
      vertex 10.421 29.0505 -2
    endloop
  endfacet
  facet normal 0 0 -1
    outer loop
      vertex 7.3 26.7124 -2
      vertex 11 27.75 -2
      vertex 7.53678 26.5404 -2
    endloop
  endfacet
  facet normal 0 0 -1
    outer loop
      vertex -6.6 26.9 -2
      vertex 10.421 29.0505 -2
      vertex 10.6658 28.7786 -2
    endloop
  endfacet
  facet normal 0 0 -1
    outer loop
      vertex 7.03262 26.8315 -2
      vertex 11 27.75 -2
      vertex 7.3 26.7124 -2
    endloop
  endfacet
  facet normal 0 0 -1
    outer loop
      vertex -6.6 26.9 -2
      vertex 10.6658 28.7786 -2
      vertex 10.8487 28.4618 -2
    endloop
  endfacet
  facet normal 0 0 -1
    outer loop
      vertex -6.6 26.9 -2
      vertex 10.9618 28.1138 -2
      vertex 6.6 26.9 -2
    endloop
  endfacet
  facet normal 0 0 -1
    outer loop
      vertex -6.6 26.9 -2
      vertex 10.8487 28.4618 -2
      vertex 10.9618 28.1138 -2
    endloop
  endfacet
  facet normal 0 0 -1
    outer loop
      vertex 6.6 26.8923 -2
      vertex 10.9618 28.1138 -2
      vertex 6.74634 26.8923 -2
    endloop
  endfacet
  facet normal 0 0 -1
    outer loop
      vertex 6.6 26.9 -2
      vertex 10.9618 28.1138 -2
      vertex 6.6 26.8923 -2
    endloop
  endfacet
  facet normal 0 0 -1
    outer loop
      vertex -9.25 29.4904 -2
      vertex 9.25 29.5 -2
      vertex -6.6 26.9 -2
    endloop
  endfacet
  facet normal 0 0 -1
    outer loop
      vertex -3.42579 -23.0253 -2
      vertex -2.41811 -28.4781 -2
      vertex -3.66805 -22.2797 -2
    endloop
  endfacet
  facet normal 0 0 -1
    outer loop
      vertex -6.74634 26.8923 -2
      vertex -6.6 26.9 -2
      vertex -6.6 26.8923 -2
    endloop
  endfacet
  facet normal 0 0 -1
    outer loop
      vertex -9.25 29.4904 -2
      vertex -6.6 26.9 -2
      vertex -6.74634 26.8923 -2
    endloop
  endfacet
  facet normal 0 0 -1
    outer loop
      vertex -9.25 29.4904 -2
      vertex -6.74634 26.8923 -2
      vertex -7.03262 26.8315 -2
    endloop
  endfacet
  facet normal 0 0 -1
    outer loop
      vertex -9.25 29.4904 -2
      vertex -7.03262 26.8315 -2
      vertex -7.3 26.7124 -2
    endloop
  endfacet
  facet normal 0 0 -1
    outer loop
      vertex -9.25 29.4904 -2
      vertex -7.3 26.7124 -2
      vertex -7.53678 26.5404 -2
    endloop
  endfacet
  facet normal 0 0 -1
    outer loop
      vertex -9.25 29.4904 -2
      vertex -7.53678 26.5404 -2
      vertex -7.73262 26.3229 -2
    endloop
  endfacet
  facet normal 0 0 -1
    outer loop
      vertex -9.25 29.4904 -2
      vertex -7.73262 26.3229 -2
      vertex -7.87896 26.0694 -2
    endloop
  endfacet
  facet normal 0 0 -1
    outer loop
      vertex -9.25 29.4904 -2
      vertex -7.87896 26.0694 -2
      vertex -7.96941 25.7911 -2
    endloop
  endfacet
  facet normal 0 0 -1
    outer loop
      vertex -9.25 29.4904 -2
      vertex -7.96941 25.7911 -2
      vertex -8 25.5 -2
    endloop
  endfacet
  facet normal 0 0 -1
    outer loop
      vertex -3.03381 -23.7042 -2
      vertex -2.41811 -28.4781 -2
      vertex -3.42579 -23.0253 -2
    endloop
  endfacet
  facet normal 0 0 -1
    outer loop
      vertex -3.75 -21.5 -2
      vertex -3.66805 -22.2797 -2
      vertex -3.23607 -28.3042 -2
    endloop
  endfacet
  facet normal 0 0 -1
    outer loop
      vertex -6 21.5 -2
      vertex 5.91259 -25.3316 -2
      vertex 5.65418 -26.1269 -2
    endloop
  endfacet
  facet normal 0 0 -1
    outer loop
      vertex -2.50924 -24.2868 -2
      vertex -2 -28.4781 -2
      vertex -3.03381 -23.7042 -2
    endloop
  endfacet
  facet normal 0 0 -1
    outer loop
      vertex -1.875 -24.7476 -2
      vertex 2 -28.5 -2
      vertex -2.50924 -24.2868 -2
    endloop
  endfacet
  facet normal 0 0 -1
    outer loop
      vertex 1.15881 -25.0665 -2
      vertex 2 -28.5 -2
      vertex 0.391982 -25.2295 -2
    endloop
  endfacet
  facet normal 0 0 -1
    outer loop
      vertex -1.15881 -25.0665 -2
      vertex 2 -28.5 -2
      vertex -1.875 -24.7476 -2
    endloop
  endfacet
  facet normal 0 0 -1
    outer loop
      vertex -0.391982 -25.2295 -2
      vertex 2 -28.5 -2
      vertex -1.15881 -25.0665 -2
    endloop
  endfacet
  facet normal 0 0 -1
    outer loop
      vertex 0.391982 -25.2295 -2
      vertex 2 -28.5 -2
      vertex -0.391982 -25.2295 -2
    endloop
  endfacet
  facet normal 0 0 -1
    outer loop
      vertex 3.03381 -23.7042 -2
      vertex 4 -27.9641 -2
      vertex 2.50924 -24.2868 -2
    endloop
  endfacet
  facet normal 0 0 -1
    outer loop
      vertex 3.42579 -23.0253 -2
      vertex 4.67652 -27.4726 -2
      vertex 3.03381 -23.7042 -2
    endloop
  endfacet
  facet normal 0 0 -1
    outer loop
      vertex 3.66805 -22.2797 -2
      vertex 5.23607 -26.8511 -2
      vertex 3.42579 -23.0253 -2
    endloop
  endfacet
  facet normal 0 0 -1
    outer loop
      vertex 3.75 -21.5 -2
      vertex 5.23607 -26.8511 -2
      vertex 3.66805 -22.2797 -2
    endloop
  endfacet
  facet normal 0 0 -1
    outer loop
      vertex 3.66805 -20.7203 -2
      vertex 5.65418 -26.1269 -2
      vertex 3.75 -21.5 -2
    endloop
  endfacet
  facet normal 0 0 -1
    outer loop
      vertex 3.42579 -19.9747 -2
      vertex 5.65418 -26.1269 -2
      vertex 3.66805 -20.7203 -2
    endloop
  endfacet
  facet normal 0 0 -1
    outer loop
      vertex -2.41811 -28.4781 -2
      vertex -3.03381 -23.7042 -2
      vertex -2 -28.4781 -2
    endloop
  endfacet
  facet normal 0 0 -1
    outer loop
      vertex -6 21.5 -2
      vertex 3.42579 -19.9747 -2
      vertex 3.03381 -19.2958 -2
    endloop
  endfacet
  facet normal 0 0 -1
    outer loop
      vertex 2.50924 -18.7132 -2
      vertex -6 21.5 -2
      vertex 3.03381 -19.2958 -2
    endloop
  endfacet
  facet normal 0 0 -1
    outer loop
      vertex -6 21.5 -2
      vertex 2.50924 -18.7132 -2
      vertex 1.875 -18.2524 -2
    endloop
  endfacet
  facet normal 0 0 -1
    outer loop
      vertex -6 21.5 -2
      vertex 1.875 -18.2524 -2
      vertex 1.15881 -17.9335 -2
    endloop
  endfacet
  facet normal 0 0 -1
    outer loop
      vertex -6 21.5 -2
      vertex 1.15881 -17.9335 -2
      vertex 0.391982 -17.7705 -2
    endloop
  endfacet
  facet normal 0 0 -1
    outer loop
      vertex 2.50924 -24.2868 -2
      vertex 3.23607 -28.3042 -2
      vertex 1.875 -24.7476 -2
    endloop
  endfacet
  facet normal 0 0 -1
    outer loop
      vertex -6 21.5 -2
      vertex 0.391982 -17.7705 -2
      vertex -0.391982 -17.7705 -2
    endloop
  endfacet
  facet normal 0 0 -1
    outer loop
      vertex 1.15881 -25.0665 -2
      vertex 2 -28.4781 -2
      vertex 2 -28.5 -2
    endloop
  endfacet
  facet normal 0 0 -1
    outer loop
      vertex 1.875 -24.7476 -2
      vertex 2.41811 -28.4781 -2
      vertex 1.15881 -25.0665 -2
    endloop
  endfacet
  facet normal 0 0 -1
    outer loop
      vertex -6 21.5 -2
      vertex -0.391982 -17.7705 -2
      vertex -1.15881 -17.9335 -2
    endloop
  endfacet
  facet normal 0 0 -1
    outer loop
      vertex -6 21.5 -2
      vertex -1.15881 -17.9335 -2
      vertex -1.875 -18.2524 -2
    endloop
  endfacet
  facet normal 0 0 -1
    outer loop
      vertex -6 21.5 -2
      vertex -1.875 -18.2524 -2
      vertex -2.50924 -18.7132 -2
    endloop
  endfacet
  facet normal 0 0 -1
    outer loop
      vertex -6 21.5 -2
      vertex -2.50924 -18.7132 -2
      vertex -3.03381 -19.2958 -2
    endloop
  endfacet
  facet normal 0 0 -1
    outer loop
      vertex -6 21.5 -2
      vertex -3.03381 -19.2958 -2
      vertex -3.42579 -19.9747 -2
    endloop
  endfacet
  facet normal 0 0 -1
    outer loop
      vertex -6 21.5 -2
      vertex -3.42579 -19.9747 -2
      vertex -3.66805 -20.7203 -2
    endloop
  endfacet
  facet normal 0 0 -1
    outer loop
      vertex -6 21.5 -2
      vertex -3.66805 -20.7203 -2
      vertex -3.75 -21.5 -2
    endloop
  endfacet
  facet normal 0 0 -1
    outer loop
      vertex -3.75 -21.5 -2
      vertex -3.23607 -28.3042 -2
      vertex -4 -27.9641 -2
    endloop
  endfacet
  facet normal 0 0 -1
    outer loop
      vertex -6 21.5 -2
      vertex -3.75 -21.5 -2
      vertex -4 -27.9641 -2
    endloop
  endfacet
  facet normal 0 0 -1
    outer loop
      vertex -6 21.5 -2
      vertex -4 -27.9641 -2
      vertex -4.67652 -27.4726 -2
    endloop
  endfacet
  facet normal 0 0 -1
    outer loop
      vertex -6 21.5 -2
      vertex -4.67652 -27.4726 -2
      vertex -5.23607 -26.8511 -2
    endloop
  endfacet
  facet normal 0 0 -1
    outer loop
      vertex -6 21.5 -2
      vertex -5.23607 -26.8511 -2
      vertex -5.65418 -26.1269 -2
    endloop
  endfacet
  facet normal 0 0 -1
    outer loop
      vertex -6 21.5 -2
      vertex -5.65418 -26.1269 -2
      vertex -5.91259 -25.3316 -2
    endloop
  endfacet
  facet normal 0 0 -1
    outer loop
      vertex -6 21.5 -2
      vertex -5.91259 -25.3316 -2
      vertex -6 -24.5 -2
    endloop
  endfacet
  facet normal 0 0 -1
    outer loop
      vertex -10.8487 22.5382 -2
      vertex -10.9618 22.8862 -2
      vertex -10.6658 22.2214 -2
    endloop
  endfacet
  facet normal -0.994522 0.104529 0
    outer loop
      vertex -11 27.75 -2
      vertex -11 27.75 2
      vertex -10.9618 28.1138 -2
    endloop
  endfacet
  facet normal -0.994522 0.104529 0
    outer loop
      vertex -10.9618 28.1138 -2
      vertex -11 27.75 2
      vertex -10.9618 28.1138 2
    endloop
  endfacet
  facet normal 0 0 1
    outer loop
      vertex -11 27.75 2
      vertex -11 23.25 2
      vertex -10.9618 22.8862 2
    endloop
  endfacet
  facet normal 0 0 1
    outer loop
      vertex -10.6658 22.2214 2
      vertex -11 27.75 2
      vertex -10.8487 22.5382 2
    endloop
  endfacet
  facet normal 0 0 1
    outer loop
      vertex -10.8487 22.5382 2
      vertex -11 27.75 2
      vertex -10.9618 22.8862 2
    endloop
  endfacet
  facet normal 0 0 1
    outer loop
      vertex -10.421 21.9495 2
      vertex -11 27.75 2
      vertex -10.6658 22.2214 2
    endloop
  endfacet
  facet normal 0 0 1
    outer loop
      vertex -10.125 21.7345 2
      vertex -11 27.75 2
      vertex -10.421 21.9495 2
    endloop
  endfacet
  facet normal 0 0 1
    outer loop
      vertex -9.79078 21.5857 2
      vertex -11 27.75 2
      vertex -10.125 21.7345 2
    endloop
  endfacet
  facet normal 0 0 1
    outer loop
      vertex -9.43292 21.5096 2
      vertex -11 27.75 2
      vertex -9.79078 21.5857 2
    endloop
  endfacet
  facet normal 0 0 1
    outer loop
      vertex -9.25 21.5096 2
      vertex -11 27.75 2
      vertex -9.43292 21.5096 2
    endloop
  endfacet
  facet normal 0 0 1
    outer loop
      vertex -6 21.5 2
      vertex -11 27.75 2
      vertex -9.25 21.5096 2
    endloop
  endfacet
  facet normal 0 0 1
    outer loop
      vertex -6 21.5 2
      vertex -9.25 21.5096 2
      vertex -9.25 21.5 2
    endloop
  endfacet
  facet normal 0 0 1
    outer loop
      vertex -7.73262 24.6771 2
      vertex -11 27.75 2
      vertex -6 21.5 2
    endloop
  endfacet
  facet normal 0 0 1
    outer loop
      vertex -5.91259 -25.3316 2
      vertex -6 21.5 2
      vertex -6 -24.5 2
    endloop
  endfacet
  facet normal 0 0 1
    outer loop
      vertex -5.65418 -26.1269 2
      vertex -6 21.5 2
      vertex -5.91259 -25.3316 2
    endloop
  endfacet
  facet normal 0 0 1
    outer loop
      vertex -5.23607 -26.8511 2
      vertex -6 21.5 2
      vertex -5.65418 -26.1269 2
    endloop
  endfacet
  facet normal 0 0 1
    outer loop
      vertex -4.67652 -27.4726 2
      vertex -6 21.5 2
      vertex -5.23607 -26.8511 2
    endloop
  endfacet
  facet normal 0 0 1
    outer loop
      vertex -4 -27.9641 2
      vertex -6 21.5 2
      vertex -4.67652 -27.4726 2
    endloop
  endfacet
  facet normal 0 0 1
    outer loop
      vertex -3.75 -21.5 2
      vertex -6 21.5 2
      vertex -4 -27.9641 2
    endloop
  endfacet
  facet normal 0 0 1
    outer loop
      vertex 2 -28.5 2
      vertex -2 -28.4781 2
      vertex -2 -28.5 2
    endloop
  endfacet
  facet normal 0 0 1
    outer loop
      vertex 2.4 20.6 2
      vertex 2.50924 -18.7132 2
      vertex 3.03381 -19.2958 2
    endloop
  endfacet
  facet normal 0 0 1
    outer loop
      vertex 2.4 20.6 2
      vertex 3.66805 -20.7203 2
      vertex 5.23607 -26.8511 2
    endloop
  endfacet
  facet normal 0 0 1
    outer loop
      vertex 2.21726 21.5 2
      vertex 2.34755 21.099 2
      vertex 6 21.5 2
    endloop
  endfacet
  facet normal 0 0 1
    outer loop
      vertex 2.50924 -24.2868 2
      vertex 1.875 -24.7476 2
      vertex 3.23607 -28.3042 2
    endloop
  endfacet
  facet normal 0 0 1
    outer loop
      vertex -7.3 26.7124 2
      vertex -7.03262 26.8315 2
      vertex -11 27.75 2
    endloop
  endfacet
  facet normal 0 0 1
    outer loop
      vertex 1.875 -24.7476 2
      vertex 2 -28.4781 2
      vertex 2.41811 -28.4781 2
    endloop
  endfacet
  facet normal 0 0 1
    outer loop
      vertex 1.15881 -25.0665 2
      vertex 0.391982 -25.2295 2
      vertex 2 -28.5 2
    endloop
  endfacet
  facet normal 0 0 1
    outer loop
      vertex 10.9618 28.1138 2
      vertex -11 27.75 2
      vertex 11 27.75 2
    endloop
  endfacet
  facet normal 0 0 1
    outer loop
      vertex 10.8487 28.4618 2
      vertex -11 27.75 2
      vertex 10.9618 28.1138 2
    endloop
  endfacet
  facet normal 0 0 1
    outer loop
      vertex 10.6658 28.7786 2
      vertex -11 27.75 2
      vertex 10.8487 28.4618 2
    endloop
  endfacet
  facet normal 0 0 1
    outer loop
      vertex 10.421 29.0505 2
      vertex -11 27.75 2
      vertex 10.6658 28.7786 2
    endloop
  endfacet
  facet normal 0 0 1
    outer loop
      vertex 10.125 29.2655 2
      vertex -11 27.75 2
      vertex 10.421 29.0505 2
    endloop
  endfacet
  facet normal 0 0 1
    outer loop
      vertex 9.79078 29.4143 2
      vertex -11 27.75 2
      vertex 10.125 29.2655 2
    endloop
  endfacet
  facet normal 0 0 1
    outer loop
      vertex 9.43292 29.4904 2
      vertex -11 27.75 2
      vertex 9.79078 29.4143 2
    endloop
  endfacet
  facet normal 0 0 1
    outer loop
      vertex 9.25 29.4904 2
      vertex -11 27.75 2
      vertex 9.43292 29.4904 2
    endloop
  endfacet
  facet normal 0 0 1
    outer loop
      vertex 9.25 29.5 2
      vertex -11 27.75 2
      vertex 9.25 29.4904 2
    endloop
  endfacet
  facet normal 0 0 1
    outer loop
      vertex -9.25 29.4904 2
      vertex -11 27.75 2
      vertex 9.25 29.5 2
    endloop
  endfacet
  facet normal 0 0 1
    outer loop
      vertex 1.875 -24.7476 2
      vertex 1.15881 -25.0665 2
      vertex 2 -28.5 2
    endloop
  endfacet
  facet normal 0 0 1
    outer loop
      vertex -9.25 29.5 2
      vertex -9.25 29.4904 2
      vertex 9.25 29.5 2
    endloop
  endfacet
  facet normal 0 0 1
    outer loop
      vertex -7.73262 26.3229 2
      vertex -7.53678 26.5404 2
      vertex -11 27.75 2
    endloop
  endfacet
  facet normal 0 0 1
    outer loop
      vertex -9.79078 29.4143 2
      vertex -11 27.75 2
      vertex -9.43292 29.4904 2
    endloop
  endfacet
  facet normal 0 0 1
    outer loop
      vertex -10.125 29.2655 2
      vertex -11 27.75 2
      vertex -9.79078 29.4143 2
    endloop
  endfacet
  facet normal 0 0 1
    outer loop
      vertex -10.421 29.0505 2
      vertex -11 27.75 2
      vertex -10.125 29.2655 2
    endloop
  endfacet
  facet normal 0 0 1
    outer loop
      vertex -10.6658 28.7786 2
      vertex -11 27.75 2
      vertex -10.421 29.0505 2
    endloop
  endfacet
  facet normal 0 0 1
    outer loop
      vertex -10.8487 28.4618 2
      vertex -11 27.75 2
      vertex -10.6658 28.7786 2
    endloop
  endfacet
  facet normal 0 0 1
    outer loop
      vertex -10.9618 28.1138 2
      vertex -11 27.75 2
      vertex -10.8487 28.4618 2
    endloop
  endfacet
  facet normal 0 0 1
    outer loop
      vertex -8 25.5 2
      vertex -11 27.75 2
      vertex -7.96941 25.2089 2
    endloop
  endfacet
  facet normal 0 0 1
    outer loop
      vertex -3.42579 -23.0253 2
      vertex -3.66805 -22.2797 2
      vertex -3.23607 -28.3042 2
    endloop
  endfacet
  facet normal 0 0 1
    outer loop
      vertex -7.96941 25.7911 2
      vertex -11 27.75 2
      vertex -8 25.5 2
    endloop
  endfacet
  facet normal 0 0 1
    outer loop
      vertex -7.87896 26.0694 2
      vertex -11 27.75 2
      vertex -7.96941 25.7911 2
    endloop
  endfacet
  facet normal 0 0 1
    outer loop
      vertex 3.66805 -22.2797 2
      vertex 3.42579 -23.0253 2
      vertex 4.67652 -27.4726 2
    endloop
  endfacet
  facet normal 0 0 1
    outer loop
      vertex -7.73262 26.3229 2
      vertex -11 27.75 2
      vertex -7.87896 26.0694 2
    endloop
  endfacet
  facet normal 0 0 1
    outer loop
      vertex 3.66805 -20.7203 2
      vertex 3.75 -21.5 2
      vertex 5.23607 -26.8511 2
    endloop
  endfacet
  facet normal 0 0 1
    outer loop
      vertex -7.03262 26.8315 2
      vertex -6.74634 26.8923 2
      vertex -11 27.75 2
    endloop
  endfacet
  facet normal 0 0 1
    outer loop
      vertex -2.4 -18.6338 2
      vertex -2.4 20.6 2
      vertex -6 21.5 2
    endloop
  endfacet
  facet normal 0 0 1
    outer loop
      vertex -6.6 26.9 2
      vertex -11 27.75 2
      vertex -6.74634 26.8923 2
    endloop
  endfacet
  facet normal 0 0 1
    outer loop
      vertex -6.6 26.9 2
      vertex 6.6 26.9 2
      vertex 11 27.75 2
    endloop
  endfacet
  facet normal 0 0 1
    outer loop
      vertex 11 27.75 2
      vertex -11 27.75 2
      vertex -6.6 26.9 2
    endloop
  endfacet
  facet normal 0 0 1
    outer loop
      vertex 7.73262 26.3229 2
      vertex 7.87896 26.0694 2
      vertex 11 23.25 2
    endloop
  endfacet
  facet normal 0 0 1
    outer loop
      vertex 7.87896 26.0694 2
      vertex 7.96941 25.7911 2
      vertex 11 23.25 2
    endloop
  endfacet
  facet normal 0 0 1
    outer loop
      vertex 7.96941 25.7911 2
      vertex 8 25.5 2
      vertex 11 23.25 2
    endloop
  endfacet
  facet normal 0 0 1
    outer loop
      vertex 11 27.75 2
      vertex 6.6 26.9 2
      vertex 6.74634 26.8923 2
    endloop
  endfacet
  facet normal 0 0 1
    outer loop
      vertex 7.03262 24.1685 2
      vertex 6.74634 24.1077 2
      vertex 11 23.25 2
    endloop
  endfacet
  facet normal 0 0 1
    outer loop
      vertex 11 27.75 2
      vertex 6.74634 26.8923 2
      vertex 7.03262 26.8315 2
    endloop
  endfacet
  facet normal 0 0 1
    outer loop
      vertex 11 27.75 2
      vertex 7.03262 26.8315 2
      vertex 7.3 26.7124 2
    endloop
  endfacet
  facet normal 0 0 1
    outer loop
      vertex 11 27.75 2
      vertex 7.53678 26.5404 2
      vertex 11 23.25 2
    endloop
  endfacet
  facet normal 0 0 1
    outer loop
      vertex 11 27.75 2
      vertex 7.3 26.7124 2
      vertex 7.53678 26.5404 2
    endloop
  endfacet
  facet normal 0 0 1
    outer loop
      vertex 7.53678 26.5404 2
      vertex 7.73262 26.3229 2
      vertex 11 23.25 2
    endloop
  endfacet
  facet normal 0 0 1
    outer loop
      vertex 8 25.5 2
      vertex 7.96941 25.2089 2
      vertex 11 23.25 2
    endloop
  endfacet
  facet normal 0 0 1
    outer loop
      vertex 7.96941 25.2089 2
      vertex 7.87896 24.9306 2
      vertex 11 23.25 2
    endloop
  endfacet
  facet normal 0 0 1
    outer loop
      vertex 7.87896 24.9306 2
      vertex 7.73262 24.6771 2
      vertex 11 23.25 2
    endloop
  endfacet
  facet normal 0 0 1
    outer loop
      vertex 7.73262 24.6771 2
      vertex 7.53678 24.4596 2
      vertex 11 23.25 2
    endloop
  endfacet
  facet normal 0 0 1
    outer loop
      vertex 7.53678 24.4596 2
      vertex 7.3 24.2876 2
      vertex 11 23.25 2
    endloop
  endfacet
  facet normal 0 0 1
    outer loop
      vertex 7.3 24.2876 2
      vertex 7.03262 24.1685 2
      vertex 11 23.25 2
    endloop
  endfacet
  facet normal 0 0 1
    outer loop
      vertex 11 23.25 2
      vertex 6.74634 24.1077 2
      vertex 10.9618 22.8862 2
    endloop
  endfacet
  facet normal 0 0 1
    outer loop
      vertex -6.6 26.8923 2
      vertex -6.6 26.9 2
      vertex -6.74634 26.8923 2
    endloop
  endfacet
  facet normal 0 0 1
    outer loop
      vertex 6.74634 24.1077 2
      vertex 6.6 24.1077 2
      vertex 10.9618 22.8862 2
    endloop
  endfacet
  facet normal 0 0 1
    outer loop
      vertex 6.6 26.8923 2
      vertex 6.74634 26.8923 2
      vertex 6.6 26.9 2
    endloop
  endfacet
  facet normal 0 0 1
    outer loop
      vertex 6.6 24.1077 2
      vertex 6.6 24.1 2
      vertex 10.9618 22.8862 2
    endloop
  endfacet
  facet normal 0 0 1
    outer loop
      vertex -2.21726 21.5 2
      vertex -6.6 24.1 2
      vertex -6 21.5 2
    endloop
  endfacet
  facet normal 0 0 1
    outer loop
      vertex -7.53678 24.4596 2
      vertex -7.73262 24.6771 2
      vertex -6 21.5 2
    endloop
  endfacet
  facet normal 0 0 1
    outer loop
      vertex -6.6 24.1077 2
      vertex -6.74634 24.1077 2
      vertex -6.6 24.1 2
    endloop
  endfacet
  facet normal 0 0 1
    outer loop
      vertex -6.6 24.1 2
      vertex -6.74634 24.1077 2
      vertex -6 21.5 2
    endloop
  endfacet
  facet normal 0 0 1
    outer loop
      vertex -6.74634 24.1077 2
      vertex -7.03262 24.1685 2
      vertex -6 21.5 2
    endloop
  endfacet
  facet normal 0 0 1
    outer loop
      vertex -7.03262 24.1685 2
      vertex -7.3 24.2876 2
      vertex -6 21.5 2
    endloop
  endfacet
  facet normal 0 0 1
    outer loop
      vertex -7.3 24.2876 2
      vertex -7.53678 24.4596 2
      vertex -6 21.5 2
    endloop
  endfacet
  facet normal 0 0 1
    outer loop
      vertex -3.42579 -19.9747 2
      vertex -3.03381 -19.2958 2
      vertex -6 21.5 2
    endloop
  endfacet
  facet normal 0 0 1
    outer loop
      vertex -7.87896 24.9306 2
      vertex -11 27.75 2
      vertex -7.73262 24.6771 2
    endloop
  endfacet
  facet normal 0 0 1
    outer loop
      vertex -7.96941 25.2089 2
      vertex -11 27.75 2
      vertex -7.87896 24.9306 2
    endloop
  endfacet
  facet normal 0 0 1
    outer loop
      vertex -3.23607 -28.3042 2
      vertex -3.66805 -22.2797 2
      vertex -4 -27.9641 2
    endloop
  endfacet
  facet normal 0 0 1
    outer loop
      vertex -3.66805 -22.2797 2
      vertex -3.75 -21.5 2
      vertex -4 -27.9641 2
    endloop
  endfacet
  facet normal 0 0 1
    outer loop
      vertex -3.66805 -20.7203 2
      vertex -3.42579 -19.9747 2
      vertex -6 21.5 2
    endloop
  endfacet
  facet normal 0 0 1
    outer loop
      vertex -3.75 -21.5 2
      vertex -3.66805 -20.7203 2
      vertex -6 21.5 2
    endloop
  endfacet
  facet normal 0 0 1
    outer loop
      vertex -3.03381 -19.2958 2
      vertex -2.50924 -18.7132 2
      vertex -6 21.5 2
    endloop
  endfacet
  facet normal 0 0 1
    outer loop
      vertex -2.50924 -24.2868 2
      vertex -3.03381 -23.7042 2
      vertex -2.41811 -28.4781 2
    endloop
  endfacet
  facet normal 0 0 1
    outer loop
      vertex -2.4 -18.6338 2
      vertex -6 21.5 2
      vertex -2.50924 -18.7132 2
    endloop
  endfacet
  facet normal 0 0 1
    outer loop
      vertex -2.34755 21.099 2
      vertex -6 21.5 2
      vertex -2.4 20.6 2
    endloop
  endfacet
  facet normal 0 0 1
    outer loop
      vertex -2.34755 21.099 2
      vertex -2.21726 21.5 2
      vertex -6 21.5 2
    endloop
  endfacet
  facet normal 0 0 1
    outer loop
      vertex 2.21726 21.5 2
      vertex -6.6 24.1 2
      vertex -2.21726 21.5 2
    endloop
  endfacet
  facet normal 0 0 1
    outer loop
      vertex 6 21.5 2
      vertex -6.6 24.1 2
      vertex 2.21726 21.5 2
    endloop
  endfacet
  facet normal 0 0 1
    outer loop
      vertex 6 21.5 2
      vertex 2.4 20.6 2
      vertex 6 -24.5 2
    endloop
  endfacet
  facet normal 0 0 1
    outer loop
      vertex 6 21.5 2
      vertex 2.34755 21.099 2
      vertex 2.4 20.6 2
    endloop
  endfacet
  facet normal 0 0 1
    outer loop
      vertex 1.875 -24.7476 2
      vertex 2 -28.5 2
      vertex 2 -28.4781 2
    endloop
  endfacet
  facet normal 0 0 1
    outer loop
      vertex 2.4 20.6 2
      vertex 3.03381 -19.2958 2
      vertex 3.42579 -19.9747 2
    endloop
  endfacet
  facet normal 0 0 1
    outer loop
      vertex 3.42579 -23.0253 2
      vertex 3.03381 -23.7042 2
      vertex 4 -27.9641 2
    endloop
  endfacet
  facet normal 0 0 1
    outer loop
      vertex 2.4 20.6 2
      vertex 3.42579 -19.9747 2
      vertex 3.66805 -20.7203 2
    endloop
  endfacet
  facet normal 0 0 1
    outer loop
      vertex 2.4 20.6 2
      vertex 5.23607 -26.8511 2
      vertex 5.65418 -26.1269 2
    endloop
  endfacet
  facet normal 0 0 1
    outer loop
      vertex 2.4 20.6 2
      vertex 5.65418 -26.1269 2
      vertex 5.91259 -25.3316 2
    endloop
  endfacet
  facet normal 0 0 1
    outer loop
      vertex 3.75 -21.5 2
      vertex 3.66805 -22.2797 2
      vertex 5.23607 -26.8511 2
    endloop
  endfacet
  facet normal 0 0 1
    outer loop
      vertex 2.4 20.6 2
      vertex 5.91259 -25.3316 2
      vertex 6 -24.5 2
    endloop
  endfacet
  facet normal 0 0 1
    outer loop
      vertex 5.23607 -26.8511 2
      vertex 3.66805 -22.2797 2
      vertex 4.67652 -27.4726 2
    endloop
  endfacet
  facet normal 0 0 1
    outer loop
      vertex 4.67652 -27.4726 2
      vertex 3.42579 -23.0253 2
      vertex 4 -27.9641 2
    endloop
  endfacet
  facet normal 0 0 1
    outer loop
      vertex 4 -27.9641 2
      vertex 3.03381 -23.7042 2
      vertex 3.23607 -28.3042 2
    endloop
  endfacet
  facet normal 0 0 1
    outer loop
      vertex 2.4 20.6 2
      vertex 2.4 -18.6338 2
      vertex 2.50924 -18.7132 2
    endloop
  endfacet
  facet normal 0 0 1
    outer loop
      vertex 3.03381 -23.7042 2
      vertex 2.50924 -24.2868 2
      vertex 3.23607 -28.3042 2
    endloop
  endfacet
  facet normal 0 0 1
    outer loop
      vertex 3.23607 -28.3042 2
      vertex 1.875 -24.7476 2
      vertex 2.41811 -28.4781 2
    endloop
  endfacet
  facet normal 0 0 1
    outer loop
      vertex -1.875 -24.7476 2
      vertex -2.50924 -24.2868 2
      vertex -2 -28.4781 2
    endloop
  endfacet
  facet normal 0 0 1
    outer loop
      vertex 2 -28.5 2
      vertex 0.391982 -25.2295 2
      vertex -2 -28.4781 2
    endloop
  endfacet
  facet normal 0 0 1
    outer loop
      vertex 0.391982 -25.2295 2
      vertex -0.391982 -25.2295 2
      vertex -2 -28.4781 2
    endloop
  endfacet
  facet normal 0 0 1
    outer loop
      vertex -0.391982 -25.2295 2
      vertex -1.15881 -25.0665 2
      vertex -2 -28.4781 2
    endloop
  endfacet
  facet normal 0 0 1
    outer loop
      vertex -1.15881 -25.0665 2
      vertex -1.875 -24.7476 2
      vertex -2 -28.4781 2
    endloop
  endfacet
  facet normal 0 0 1
    outer loop
      vertex -2 -28.4781 2
      vertex -2.50924 -24.2868 2
      vertex -2.41811 -28.4781 2
    endloop
  endfacet
  facet normal 0 0 1
    outer loop
      vertex -2.41811 -28.4781 2
      vertex -3.03381 -23.7042 2
      vertex -3.23607 -28.3042 2
    endloop
  endfacet
  facet normal 0 0 1
    outer loop
      vertex -3.03381 -23.7042 2
      vertex -3.42579 -23.0253 2
      vertex -3.23607 -28.3042 2
    endloop
  endfacet
  facet normal 0 0 1
    outer loop
      vertex -9.25 29.4904 2
      vertex -9.43292 29.4904 2
      vertex -11 27.75 2
    endloop
  endfacet
  facet normal 0 0 1
    outer loop
      vertex -7.53678 26.5404 2
      vertex -7.3 26.7124 2
      vertex -11 27.75 2
    endloop
  endfacet
  facet normal 0 0 1
    outer loop
      vertex 6.6 24.1 2
      vertex 10.8487 22.5382 2
      vertex 10.9618 22.8862 2
    endloop
  endfacet
  facet normal 0 0 1
    outer loop
      vertex 6.6 24.1 2
      vertex 10.6658 22.2214 2
      vertex 10.8487 22.5382 2
    endloop
  endfacet
  facet normal 0 0 1
    outer loop
      vertex 6.6 24.1 2
      vertex 10.421 21.9495 2
      vertex 10.6658 22.2214 2
    endloop
  endfacet
  facet normal 0 0 1
    outer loop
      vertex 6.6 24.1 2
      vertex 10.125 21.7345 2
      vertex 10.421 21.9495 2
    endloop
  endfacet
  facet normal 0 0 1
    outer loop
      vertex 6.6 24.1 2
      vertex 9.79078 21.5857 2
      vertex 10.125 21.7345 2
    endloop
  endfacet
  facet normal 0 0 1
    outer loop
      vertex 6.6 24.1 2
      vertex 9.43292 21.5096 2
      vertex 9.79078 21.5857 2
    endloop
  endfacet
  facet normal 0 0 1
    outer loop
      vertex 6.6 24.1 2
      vertex 9.25 21.5096 2
      vertex 9.43292 21.5096 2
    endloop
  endfacet
  facet normal 0 0 1
    outer loop
      vertex 6.6 24.1 2
      vertex 9.25 21.5 2
      vertex 9.25 21.5096 2
    endloop
  endfacet
  facet normal 0 0 1
    outer loop
      vertex 6.6 24.1 2
      vertex 6 21.5 2
      vertex 9.25 21.5 2
    endloop
  endfacet
  facet normal 0 0 1
    outer loop
      vertex 6.6 24.1 2
      vertex -6.6 24.1 2
      vertex 6 21.5 2
    endloop
  endfacet
  facet normal -0.951057 -0.309015 0
    outer loop
      vertex -10.9618 22.8862 -2
      vertex -10.8487 22.5382 -2
      vertex -10.9618 22.8862 2
    endloop
  endfacet
  facet normal -0.951057 -0.309015 0
    outer loop
      vertex -10.9618 22.8862 2
      vertex -10.8487 22.5382 -2
      vertex -10.8487 22.5382 2
    endloop
  endfacet
  facet normal -0.866025 -0.5 0
    outer loop
      vertex -10.8487 22.5382 -2
      vertex -10.6658 22.2214 -2
      vertex -10.8487 22.5382 2
    endloop
  endfacet
  facet normal -0.866025 -0.5 0
    outer loop
      vertex -10.8487 22.5382 2
      vertex -10.6658 22.2214 -2
      vertex -10.6658 22.2214 2
    endloop
  endfacet
  facet normal -0.743145 -0.669131 0
    outer loop
      vertex -10.6658 22.2214 -2
      vertex -10.421 21.9495 -2
      vertex -10.6658 22.2214 2
    endloop
  endfacet
  facet normal -0.743145 -0.669131 0
    outer loop
      vertex -10.6658 22.2214 2
      vertex -10.421 21.9495 -2
      vertex -10.421 21.9495 2
    endloop
  endfacet
  facet normal -0.587785 -0.809017 0
    outer loop
      vertex -10.421 21.9495 2
      vertex -10.421 21.9495 -2
      vertex -10.125 21.7345 -2
    endloop
  endfacet
  facet normal -0.587785 -0.809017 0
    outer loop
      vertex -10.125 21.7345 2
      vertex -10.421 21.9495 2
      vertex -10.125 21.7345 -2
    endloop
  endfacet
  facet normal -0.406738 -0.913545 0
    outer loop
      vertex -10.125 21.7345 2
      vertex -10.125 21.7345 -2
      vertex -9.79078 21.5857 -2
    endloop
  endfacet
  facet normal -0.406738 -0.913545 0
    outer loop
      vertex -9.79078 21.5857 2
      vertex -10.125 21.7345 2
      vertex -9.79078 21.5857 -2
    endloop
  endfacet
  facet normal -0.207911 -0.978148 0
    outer loop
      vertex -9.79078 21.5857 2
      vertex -9.79078 21.5857 -2
      vertex -9.43292 21.5096 -2
    endloop
  endfacet
  facet normal -0.207911 -0.978148 0
    outer loop
      vertex -9.43292 21.5096 2
      vertex -9.79078 21.5857 2
      vertex -9.43292 21.5096 -2
    endloop
  endfacet
  facet normal 0 -1 0
    outer loop
      vertex -9.43292 21.5096 2
      vertex -9.43292 21.5096 -2
      vertex -9.25 21.5096 -2
    endloop
  endfacet
  facet normal 0 -1 0
    outer loop
      vertex -9.25 21.5096 2
      vertex -9.43292 21.5096 2
      vertex -9.25 21.5096 -2
    endloop
  endfacet
  facet normal -1 0 0
    outer loop
      vertex -9.25 21.5 -2
      vertex -9.25 21.5 2
      vertex -9.25 21.5096 -2
    endloop
  endfacet
  facet normal -1 0 0
    outer loop
      vertex -9.25 21.5096 -2
      vertex -9.25 21.5 2
      vertex -9.25 21.5096 2
    endloop
  endfacet
  facet normal 0 -1 0
    outer loop
      vertex -9.25 21.5 2
      vertex -9.25 21.5 -2
      vertex -6 21.5 -2
    endloop
  endfacet
  facet normal 0 -1 0
    outer loop
      vertex -6 21.5 2
      vertex -9.25 21.5 2
      vertex -6 21.5 -2
    endloop
  endfacet
  facet normal -1 0 0
    outer loop
      vertex -6 -24.5 -2
      vertex -6 -24.5 2
      vertex -6 21.5 -2
    endloop
  endfacet
  facet normal -1 0 0
    outer loop
      vertex -6 21.5 -2
      vertex -6 -24.5 2
      vertex -6 21.5 2
    endloop
  endfacet
  facet normal -0.994522 -0.104529 0
    outer loop
      vertex -6 -24.5 -2
      vertex -5.91259 -25.3316 -2
      vertex -6 -24.5 2
    endloop
  endfacet
  facet normal -0.994522 -0.104529 0
    outer loop
      vertex -6 -24.5 2
      vertex -5.91259 -25.3316 -2
      vertex -5.91259 -25.3316 2
    endloop
  endfacet
  facet normal -0.951057 -0.309016 0
    outer loop
      vertex -5.91259 -25.3316 -2
      vertex -5.65418 -26.1269 -2
      vertex -5.91259 -25.3316 2
    endloop
  endfacet
  facet normal -0.951057 -0.309016 0
    outer loop
      vertex -5.91259 -25.3316 2
      vertex -5.65418 -26.1269 -2
      vertex -5.65418 -26.1269 2
    endloop
  endfacet
  facet normal -0.866025 -0.5 0
    outer loop
      vertex -5.65418 -26.1269 -2
      vertex -5.23607 -26.8511 -2
      vertex -5.65418 -26.1269 2
    endloop
  endfacet
  facet normal -0.866025 -0.5 0
    outer loop
      vertex -5.65418 -26.1269 2
      vertex -5.23607 -26.8511 -2
      vertex -5.23607 -26.8511 2
    endloop
  endfacet
  facet normal -0.743144 -0.669131 0
    outer loop
      vertex -5.23607 -26.8511 -2
      vertex -4.67652 -27.4726 -2
      vertex -5.23607 -26.8511 2
    endloop
  endfacet
  facet normal -0.743144 -0.669131 0
    outer loop
      vertex -5.23607 -26.8511 2
      vertex -4.67652 -27.4726 -2
      vertex -4.67652 -27.4726 2
    endloop
  endfacet
  facet normal -0.587786 -0.809016 0
    outer loop
      vertex -4.67652 -27.4726 2
      vertex -4.67652 -27.4726 -2
      vertex -4 -27.9641 -2
    endloop
  endfacet
  facet normal -0.587786 -0.809016 0
    outer loop
      vertex -4 -27.9641 2
      vertex -4.67652 -27.4726 2
      vertex -4 -27.9641 -2
    endloop
  endfacet
  facet normal -0.406736 -0.913546 0
    outer loop
      vertex -4 -27.9641 2
      vertex -4 -27.9641 -2
      vertex -3.23607 -28.3042 -2
    endloop
  endfacet
  facet normal -0.406736 -0.913546 0
    outer loop
      vertex -3.23607 -28.3042 2
      vertex -4 -27.9641 2
      vertex -3.23607 -28.3042 -2
    endloop
  endfacet
  facet normal -0.207912 -0.978147 0
    outer loop
      vertex -3.23607 -28.3042 2
      vertex -3.23607 -28.3042 -2
      vertex -2.41811 -28.4781 -2
    endloop
  endfacet
  facet normal -0.207912 -0.978147 0
    outer loop
      vertex -2.41811 -28.4781 2
      vertex -3.23607 -28.3042 2
      vertex -2.41811 -28.4781 -2
    endloop
  endfacet
  facet normal 0 -1 0
    outer loop
      vertex -2.41811 -28.4781 2
      vertex -2.41811 -28.4781 -2
      vertex -2 -28.4781 -2
    endloop
  endfacet
  facet normal 0 -1 0
    outer loop
      vertex -2 -28.4781 2
      vertex -2.41811 -28.4781 2
      vertex -2 -28.4781 -2
    endloop
  endfacet
  facet normal -1 0 0
    outer loop
      vertex -2 -28.5 -2
      vertex -2 -28.5 2
      vertex -2 -28.4781 -2
    endloop
  endfacet
  facet normal -1 0 0
    outer loop
      vertex -2 -28.4781 -2
      vertex -2 -28.5 2
      vertex -2 -28.4781 2
    endloop
  endfacet
  facet normal 0 -1 0
    outer loop
      vertex -2 -28.5 2
      vertex -2 -28.5 -2
      vertex 2 -28.5 -2
    endloop
  endfacet
  facet normal 0 -1 0
    outer loop
      vertex 2 -28.5 2
      vertex -2 -28.5 2
      vertex 2 -28.5 -2
    endloop
  endfacet
  facet normal 1 0 0
    outer loop
      vertex 2 -28.5 2
      vertex 2 -28.5 -2
      vertex 2 -28.4781 -2
    endloop
  endfacet
  facet normal 1 0 0
    outer loop
      vertex 2 -28.4781 2
      vertex 2 -28.5 2
      vertex 2 -28.4781 -2
    endloop
  endfacet
  facet normal 0 -1 0
    outer loop
      vertex 2 -28.4781 2
      vertex 2 -28.4781 -2
      vertex 2.41811 -28.4781 -2
    endloop
  endfacet
  facet normal 0 -1 0
    outer loop
      vertex 2.41811 -28.4781 2
      vertex 2 -28.4781 2
      vertex 2.41811 -28.4781 -2
    endloop
  endfacet
  facet normal 0.207912 -0.978147 0
    outer loop
      vertex 2.41811 -28.4781 2
      vertex 2.41811 -28.4781 -2
      vertex 3.23607 -28.3042 -2
    endloop
  endfacet
  facet normal 0.207912 -0.978147 0
    outer loop
      vertex 3.23607 -28.3042 2
      vertex 2.41811 -28.4781 2
      vertex 3.23607 -28.3042 -2
    endloop
  endfacet
  facet normal 0.406736 -0.913546 0
    outer loop
      vertex 3.23607 -28.3042 2
      vertex 3.23607 -28.3042 -2
      vertex 4 -27.9641 -2
    endloop
  endfacet
  facet normal 0.406736 -0.913546 0
    outer loop
      vertex 4 -27.9641 2
      vertex 3.23607 -28.3042 2
      vertex 4 -27.9641 -2
    endloop
  endfacet
  facet normal 0.587786 -0.809016 0
    outer loop
      vertex 4 -27.9641 2
      vertex 4 -27.9641 -2
      vertex 4.67652 -27.4726 -2
    endloop
  endfacet
  facet normal 0.587786 -0.809016 0
    outer loop
      vertex 4.67652 -27.4726 2
      vertex 4 -27.9641 2
      vertex 4.67652 -27.4726 -2
    endloop
  endfacet
  facet normal 0.743144 -0.669131 0
    outer loop
      vertex 4.67652 -27.4726 2
      vertex 4.67652 -27.4726 -2
      vertex 5.23607 -26.8511 -2
    endloop
  endfacet
  facet normal 0.743144 -0.669131 0
    outer loop
      vertex 5.23607 -26.8511 2
      vertex 4.67652 -27.4726 2
      vertex 5.23607 -26.8511 -2
    endloop
  endfacet
  facet normal 0.866025 -0.5 0
    outer loop
      vertex 5.23607 -26.8511 2
      vertex 5.23607 -26.8511 -2
      vertex 5.65418 -26.1269 -2
    endloop
  endfacet
  facet normal 0.866025 -0.5 0
    outer loop
      vertex 5.65418 -26.1269 2
      vertex 5.23607 -26.8511 2
      vertex 5.65418 -26.1269 -2
    endloop
  endfacet
  facet normal 0.951057 -0.309016 0
    outer loop
      vertex 5.65418 -26.1269 2
      vertex 5.65418 -26.1269 -2
      vertex 5.91259 -25.3316 -2
    endloop
  endfacet
  facet normal 0.951057 -0.309016 0
    outer loop
      vertex 5.91259 -25.3316 2
      vertex 5.65418 -26.1269 2
      vertex 5.91259 -25.3316 -2
    endloop
  endfacet
  facet normal 0.994522 -0.104529 0
    outer loop
      vertex 5.91259 -25.3316 2
      vertex 5.91259 -25.3316 -2
      vertex 6 -24.5 -2
    endloop
  endfacet
  facet normal 0.994522 -0.104529 0
    outer loop
      vertex 6 -24.5 2
      vertex 5.91259 -25.3316 2
      vertex 6 -24.5 -2
    endloop
  endfacet
  facet normal 1 0 0
    outer loop
      vertex 6 -24.5 2
      vertex 6 -24.5 -2
      vertex 6 21.5 -2
    endloop
  endfacet
  facet normal 1 0 0
    outer loop
      vertex 6 21.5 2
      vertex 6 -24.5 2
      vertex 6 21.5 -2
    endloop
  endfacet
  facet normal 0 -1 0
    outer loop
      vertex 6 21.5 2
      vertex 6 21.5 -2
      vertex 9.25 21.5 -2
    endloop
  endfacet
  facet normal 0 -1 0
    outer loop
      vertex 9.25 21.5 2
      vertex 6 21.5 2
      vertex 9.25 21.5 -2
    endloop
  endfacet
  facet normal 1 0 0
    outer loop
      vertex 9.25 21.5 2
      vertex 9.25 21.5 -2
      vertex 9.25 21.5096 -2
    endloop
  endfacet
  facet normal 1 0 0
    outer loop
      vertex 9.25 21.5096 2
      vertex 9.25 21.5 2
      vertex 9.25 21.5096 -2
    endloop
  endfacet
  facet normal 0 -1 0
    outer loop
      vertex 9.25 21.5096 2
      vertex 9.25 21.5096 -2
      vertex 9.43292 21.5096 -2
    endloop
  endfacet
  facet normal 0 -1 0
    outer loop
      vertex 9.43292 21.5096 2
      vertex 9.25 21.5096 2
      vertex 9.43292 21.5096 -2
    endloop
  endfacet
  facet normal 0.207911 -0.978148 0
    outer loop
      vertex 9.43292 21.5096 2
      vertex 9.43292 21.5096 -2
      vertex 9.79078 21.5857 -2
    endloop
  endfacet
  facet normal 0.207911 -0.978148 0
    outer loop
      vertex 9.79078 21.5857 2
      vertex 9.43292 21.5096 2
      vertex 9.79078 21.5857 -2
    endloop
  endfacet
  facet normal 0.406738 -0.913545 0
    outer loop
      vertex 9.79078 21.5857 2
      vertex 9.79078 21.5857 -2
      vertex 10.125 21.7345 -2
    endloop
  endfacet
  facet normal 0.406738 -0.913545 0
    outer loop
      vertex 10.125 21.7345 2
      vertex 9.79078 21.5857 2
      vertex 10.125 21.7345 -2
    endloop
  endfacet
  facet normal 0.587785 -0.809017 0
    outer loop
      vertex 10.125 21.7345 2
      vertex 10.125 21.7345 -2
      vertex 10.421 21.9495 -2
    endloop
  endfacet
  facet normal 0.587785 -0.809017 0
    outer loop
      vertex 10.421 21.9495 2
      vertex 10.125 21.7345 2
      vertex 10.421 21.9495 -2
    endloop
  endfacet
  facet normal 0.743145 -0.669131 0
    outer loop
      vertex 10.421 21.9495 2
      vertex 10.421 21.9495 -2
      vertex 10.6658 22.2214 -2
    endloop
  endfacet
  facet normal 0.743145 -0.669131 0
    outer loop
      vertex 10.6658 22.2214 2
      vertex 10.421 21.9495 2
      vertex 10.6658 22.2214 -2
    endloop
  endfacet
  facet normal 0.866025 -0.5 0
    outer loop
      vertex 10.6658 22.2214 2
      vertex 10.6658 22.2214 -2
      vertex 10.8487 22.5382 -2
    endloop
  endfacet
  facet normal 0.866025 -0.5 0
    outer loop
      vertex 10.8487 22.5382 2
      vertex 10.6658 22.2214 2
      vertex 10.8487 22.5382 -2
    endloop
  endfacet
  facet normal 0.951057 -0.309015 0
    outer loop
      vertex 10.8487 22.5382 2
      vertex 10.8487 22.5382 -2
      vertex 10.9618 22.8862 -2
    endloop
  endfacet
  facet normal 0.951057 -0.309015 0
    outer loop
      vertex 10.9618 22.8862 2
      vertex 10.8487 22.5382 2
      vertex 10.9618 22.8862 -2
    endloop
  endfacet
  facet normal 0.994522 -0.104529 0
    outer loop
      vertex 10.9618 22.8862 2
      vertex 10.9618 22.8862 -2
      vertex 11 23.25 -2
    endloop
  endfacet
  facet normal 0.994522 -0.104529 0
    outer loop
      vertex 11 23.25 2
      vertex 10.9618 22.8862 2
      vertex 11 23.25 -2
    endloop
  endfacet
  facet normal 1 0 0
    outer loop
      vertex 11 23.25 2
      vertex 11 23.25 -2
      vertex 11 27.75 -2
    endloop
  endfacet
  facet normal 1 0 0
    outer loop
      vertex 11 27.75 2
      vertex 11 23.25 2
      vertex 11 27.75 -2
    endloop
  endfacet
  facet normal 0.994522 0.104529 0
    outer loop
      vertex 11 27.75 -2
      vertex 10.9618 28.1138 -2
      vertex 10.9618 28.1138 2
    endloop
  endfacet
  facet normal 0.994522 0.104529 0
    outer loop
      vertex 11 27.75 2
      vertex 11 27.75 -2
      vertex 10.9618 28.1138 2
    endloop
  endfacet
  facet normal 0.951057 0.309015 0
    outer loop
      vertex 10.9618 28.1138 -2
      vertex 10.8487 28.4618 -2
      vertex 10.8487 28.4618 2
    endloop
  endfacet
  facet normal 0.951057 0.309015 0
    outer loop
      vertex 10.9618 28.1138 2
      vertex 10.9618 28.1138 -2
      vertex 10.8487 28.4618 2
    endloop
  endfacet
  facet normal 0.866025 0.5 0
    outer loop
      vertex 10.8487 28.4618 -2
      vertex 10.6658 28.7786 -2
      vertex 10.6658 28.7786 2
    endloop
  endfacet
  facet normal 0.866025 0.5 0
    outer loop
      vertex 10.8487 28.4618 2
      vertex 10.8487 28.4618 -2
      vertex 10.6658 28.7786 2
    endloop
  endfacet
  facet normal 0.743145 0.669131 0
    outer loop
      vertex 10.6658 28.7786 -2
      vertex 10.421 29.0505 -2
      vertex 10.421 29.0505 2
    endloop
  endfacet
  facet normal 0.743145 0.669131 0
    outer loop
      vertex 10.6658 28.7786 2
      vertex 10.6658 28.7786 -2
      vertex 10.421 29.0505 2
    endloop
  endfacet
  facet normal 0.587785 0.809017 0
    outer loop
      vertex 10.125 29.2655 -2
      vertex 10.125 29.2655 2
      vertex 10.421 29.0505 -2
    endloop
  endfacet
  facet normal 0.587785 0.809017 0
    outer loop
      vertex 10.421 29.0505 -2
      vertex 10.125 29.2655 2
      vertex 10.421 29.0505 2
    endloop
  endfacet
  facet normal 0.406738 0.913545 0
    outer loop
      vertex 9.79078 29.4143 -2
      vertex 9.79078 29.4143 2
      vertex 10.125 29.2655 -2
    endloop
  endfacet
  facet normal 0.406738 0.913545 0
    outer loop
      vertex 10.125 29.2655 -2
      vertex 9.79078 29.4143 2
      vertex 10.125 29.2655 2
    endloop
  endfacet
  facet normal 0.207911 0.978148 0
    outer loop
      vertex 9.43292 29.4904 -2
      vertex 9.43292 29.4904 2
      vertex 9.79078 29.4143 -2
    endloop
  endfacet
  facet normal 0.207911 0.978148 0
    outer loop
      vertex 9.79078 29.4143 -2
      vertex 9.43292 29.4904 2
      vertex 9.79078 29.4143 2
    endloop
  endfacet
  facet normal 0 1 0
    outer loop
      vertex 9.25 29.4904 -2
      vertex 9.25 29.4904 2
      vertex 9.43292 29.4904 -2
    endloop
  endfacet
  facet normal 0 1 0
    outer loop
      vertex 9.43292 29.4904 -2
      vertex 9.25 29.4904 2
      vertex 9.43292 29.4904 2
    endloop
  endfacet
  facet normal 1 0 0
    outer loop
      vertex 9.25 29.4904 2
      vertex 9.25 29.4904 -2
      vertex 9.25 29.5 -2
    endloop
  endfacet
  facet normal 1 0 0
    outer loop
      vertex 9.25 29.5 2
      vertex 9.25 29.4904 2
      vertex 9.25 29.5 -2
    endloop
  endfacet
  facet normal 0 1 0
    outer loop
      vertex -9.25 29.5 -2
      vertex -9.25 29.5 2
      vertex 9.25 29.5 -2
    endloop
  endfacet
  facet normal 0 1 0
    outer loop
      vertex 9.25 29.5 -2
      vertex -9.25 29.5 2
      vertex 9.25 29.5 2
    endloop
  endfacet
  facet normal -1 0 0
    outer loop
      vertex -9.25 29.4904 -2
      vertex -9.25 29.4904 2
      vertex -9.25 29.5 -2
    endloop
  endfacet
  facet normal -1 0 0
    outer loop
      vertex -9.25 29.5 -2
      vertex -9.25 29.4904 2
      vertex -9.25 29.5 2
    endloop
  endfacet
  facet normal 0 1 0
    outer loop
      vertex -9.43292 29.4904 -2
      vertex -9.43292 29.4904 2
      vertex -9.25 29.4904 -2
    endloop
  endfacet
  facet normal 0 1 0
    outer loop
      vertex -9.25 29.4904 -2
      vertex -9.43292 29.4904 2
      vertex -9.25 29.4904 2
    endloop
  endfacet
  facet normal -0.207911 0.978148 0
    outer loop
      vertex -9.79078 29.4143 -2
      vertex -9.79078 29.4143 2
      vertex -9.43292 29.4904 -2
    endloop
  endfacet
  facet normal -0.207911 0.978148 0
    outer loop
      vertex -9.43292 29.4904 -2
      vertex -9.79078 29.4143 2
      vertex -9.43292 29.4904 2
    endloop
  endfacet
  facet normal -0.406738 0.913545 0
    outer loop
      vertex -10.125 29.2655 -2
      vertex -10.125 29.2655 2
      vertex -9.79078 29.4143 -2
    endloop
  endfacet
  facet normal -0.406738 0.913545 0
    outer loop
      vertex -9.79078 29.4143 -2
      vertex -10.125 29.2655 2
      vertex -9.79078 29.4143 2
    endloop
  endfacet
  facet normal -0.587785 0.809017 0
    outer loop
      vertex -10.421 29.0505 -2
      vertex -10.421 29.0505 2
      vertex -10.125 29.2655 -2
    endloop
  endfacet
  facet normal -0.587785 0.809017 0
    outer loop
      vertex -10.125 29.2655 -2
      vertex -10.421 29.0505 2
      vertex -10.125 29.2655 2
    endloop
  endfacet
  facet normal -0.743145 0.669131 0
    outer loop
      vertex -10.6658 28.7786 -2
      vertex -10.6658 28.7786 2
      vertex -10.421 29.0505 -2
    endloop
  endfacet
  facet normal -0.743145 0.669131 0
    outer loop
      vertex -10.421 29.0505 -2
      vertex -10.6658 28.7786 2
      vertex -10.421 29.0505 2
    endloop
  endfacet
  facet normal -0.866025 0.5 0
    outer loop
      vertex -10.8487 28.4618 -2
      vertex -10.8487 28.4618 2
      vertex -10.6658 28.7786 -2
    endloop
  endfacet
  facet normal -0.866025 0.5 0
    outer loop
      vertex -10.6658 28.7786 -2
      vertex -10.8487 28.4618 2
      vertex -10.6658 28.7786 2
    endloop
  endfacet
  facet normal -0.951057 0.309015 0
    outer loop
      vertex -10.9618 28.1138 -2
      vertex -10.9618 28.1138 2
      vertex -10.8487 28.4618 -2
    endloop
  endfacet
  facet normal -0.951057 0.309015 0
    outer loop
      vertex -10.8487 28.4618 -2
      vertex -10.9618 28.1138 2
      vertex -10.8487 28.4618 2
    endloop
  endfacet
  facet normal 0.994522 0.104527 0
    outer loop
      vertex -8 25.5 2
      vertex -7.96941 25.2089 2
      vertex -7.96941 25.2089 -2
    endloop
  endfacet
  facet normal 0.994522 0.104527 0
    outer loop
      vertex -8 25.5 -2
      vertex -8 25.5 2
      vertex -7.96941 25.2089 -2
    endloop
  endfacet
  facet normal 0.994522 -0.104527 0
    outer loop
      vertex -7.96941 25.7911 -2
      vertex -7.96941 25.7911 2
      vertex -8 25.5 2
    endloop
  endfacet
  facet normal 0.994522 -0.104527 0
    outer loop
      vertex -8 25.5 -2
      vertex -7.96941 25.7911 -2
      vertex -8 25.5 2
    endloop
  endfacet
  facet normal 0.951057 -0.309017 0
    outer loop
      vertex -7.87896 26.0694 -2
      vertex -7.87896 26.0694 2
      vertex -7.96941 25.7911 2
    endloop
  endfacet
  facet normal 0.951057 -0.309017 0
    outer loop
      vertex -7.96941 25.7911 -2
      vertex -7.87896 26.0694 -2
      vertex -7.96941 25.7911 2
    endloop
  endfacet
  facet normal 0.866025 -0.5 0
    outer loop
      vertex -7.73262 26.3229 -2
      vertex -7.73262 26.3229 2
      vertex -7.87896 26.0694 2
    endloop
  endfacet
  facet normal 0.866025 -0.5 0
    outer loop
      vertex -7.87896 26.0694 -2
      vertex -7.73262 26.3229 -2
      vertex -7.87896 26.0694 2
    endloop
  endfacet
  facet normal 0.743146 -0.66913 0
    outer loop
      vertex -7.53678 26.5404 -2
      vertex -7.53678 26.5404 2
      vertex -7.73262 26.3229 2
    endloop
  endfacet
  facet normal 0.743146 -0.66913 0
    outer loop
      vertex -7.73262 26.3229 -2
      vertex -7.53678 26.5404 -2
      vertex -7.73262 26.3229 2
    endloop
  endfacet
  facet normal 0.587785 -0.809017 0
    outer loop
      vertex -7.3 26.7124 -2
      vertex -7.3 26.7124 2
      vertex -7.53678 26.5404 2
    endloop
  endfacet
  facet normal 0.587785 -0.809017 0
    outer loop
      vertex -7.53678 26.5404 -2
      vertex -7.3 26.7124 -2
      vertex -7.53678 26.5404 2
    endloop
  endfacet
  facet normal 0.406735 -0.913546 0
    outer loop
      vertex -7.03262 26.8315 -2
      vertex -7.03262 26.8315 2
      vertex -7.3 26.7124 2
    endloop
  endfacet
  facet normal 0.406735 -0.913546 0
    outer loop
      vertex -7.3 26.7124 -2
      vertex -7.03262 26.8315 -2
      vertex -7.3 26.7124 2
    endloop
  endfacet
  facet normal 0.207913 -0.978147 0
    outer loop
      vertex -6.74634 26.8923 -2
      vertex -6.74634 26.8923 2
      vertex -7.03262 26.8315 2
    endloop
  endfacet
  facet normal 0.207913 -0.978147 0
    outer loop
      vertex -7.03262 26.8315 -2
      vertex -6.74634 26.8923 -2
      vertex -7.03262 26.8315 2
    endloop
  endfacet
  facet normal 0 -1 0
    outer loop
      vertex -6.6 26.8923 -2
      vertex -6.6 26.8923 2
      vertex -6.74634 26.8923 2
    endloop
  endfacet
  facet normal 0 -1 0
    outer loop
      vertex -6.74634 26.8923 -2
      vertex -6.6 26.8923 -2
      vertex -6.74634 26.8923 2
    endloop
  endfacet
  facet normal 1 0 0
    outer loop
      vertex -6.6 26.9 -2
      vertex -6.6 26.9 2
      vertex -6.6 26.8923 2
    endloop
  endfacet
  facet normal 1 0 0
    outer loop
      vertex -6.6 26.8923 -2
      vertex -6.6 26.9 -2
      vertex -6.6 26.8923 2
    endloop
  endfacet
  facet normal 0 -1 0
    outer loop
      vertex 6.6 26.9 -2
      vertex 6.6 26.9 2
      vertex -6.6 26.9 2
    endloop
  endfacet
  facet normal 0 -1 0
    outer loop
      vertex -6.6 26.9 -2
      vertex 6.6 26.9 -2
      vertex -6.6 26.9 2
    endloop
  endfacet
  facet normal -1 0 0
    outer loop
      vertex 6.6 26.9 2
      vertex 6.6 26.9 -2
      vertex 6.6 26.8923 2
    endloop
  endfacet
  facet normal -1 0 0
    outer loop
      vertex 6.6 26.8923 2
      vertex 6.6 26.9 -2
      vertex 6.6 26.8923 -2
    endloop
  endfacet
  facet normal 0 -1 0
    outer loop
      vertex 6.74634 26.8923 -2
      vertex 6.74634 26.8923 2
      vertex 6.6 26.8923 2
    endloop
  endfacet
  facet normal 0 -1 0
    outer loop
      vertex 6.6 26.8923 -2
      vertex 6.74634 26.8923 -2
      vertex 6.6 26.8923 2
    endloop
  endfacet
  facet normal -0.207913 -0.978147 0
    outer loop
      vertex 7.03262 26.8315 -2
      vertex 7.03262 26.8315 2
      vertex 6.74634 26.8923 2
    endloop
  endfacet
  facet normal -0.207913 -0.978147 0
    outer loop
      vertex 6.74634 26.8923 -2
      vertex 7.03262 26.8315 -2
      vertex 6.74634 26.8923 2
    endloop
  endfacet
  facet normal -0.406735 -0.913546 0
    outer loop
      vertex 7.3 26.7124 -2
      vertex 7.3 26.7124 2
      vertex 7.03262 26.8315 2
    endloop
  endfacet
  facet normal -0.406735 -0.913546 0
    outer loop
      vertex 7.03262 26.8315 -2
      vertex 7.3 26.7124 -2
      vertex 7.03262 26.8315 2
    endloop
  endfacet
  facet normal -0.587785 -0.809017 0
    outer loop
      vertex 7.53678 26.5404 -2
      vertex 7.53678 26.5404 2
      vertex 7.3 26.7124 2
    endloop
  endfacet
  facet normal -0.587785 -0.809017 0
    outer loop
      vertex 7.3 26.7124 -2
      vertex 7.53678 26.5404 -2
      vertex 7.3 26.7124 2
    endloop
  endfacet
  facet normal -0.743146 -0.66913 0
    outer loop
      vertex 7.73262 26.3229 2
      vertex 7.53678 26.5404 2
      vertex 7.73262 26.3229 -2
    endloop
  endfacet
  facet normal -0.743146 -0.66913 0
    outer loop
      vertex 7.73262 26.3229 -2
      vertex 7.53678 26.5404 2
      vertex 7.53678 26.5404 -2
    endloop
  endfacet
  facet normal -0.866025 -0.5 0
    outer loop
      vertex 7.87896 26.0694 2
      vertex 7.73262 26.3229 2
      vertex 7.87896 26.0694 -2
    endloop
  endfacet
  facet normal -0.866025 -0.5 0
    outer loop
      vertex 7.87896 26.0694 -2
      vertex 7.73262 26.3229 2
      vertex 7.73262 26.3229 -2
    endloop
  endfacet
  facet normal -0.951057 -0.309017 0
    outer loop
      vertex 7.96941 25.7911 2
      vertex 7.87896 26.0694 2
      vertex 7.96941 25.7911 -2
    endloop
  endfacet
  facet normal -0.951057 -0.309017 0
    outer loop
      vertex 7.96941 25.7911 -2
      vertex 7.87896 26.0694 2
      vertex 7.87896 26.0694 -2
    endloop
  endfacet
  facet normal -0.994522 -0.104527 0
    outer loop
      vertex 8 25.5 2
      vertex 7.96941 25.7911 2
      vertex 8 25.5 -2
    endloop
  endfacet
  facet normal -0.994522 -0.104527 0
    outer loop
      vertex 8 25.5 -2
      vertex 7.96941 25.7911 2
      vertex 7.96941 25.7911 -2
    endloop
  endfacet
  facet normal -0.994522 0.104527 0
    outer loop
      vertex 8 25.5 2
      vertex 8 25.5 -2
      vertex 7.96941 25.2089 2
    endloop
  endfacet
  facet normal -0.994522 0.104527 0
    outer loop
      vertex 7.96941 25.2089 2
      vertex 8 25.5 -2
      vertex 7.96941 25.2089 -2
    endloop
  endfacet
  facet normal -0.951057 0.309017 0
    outer loop
      vertex 7.96941 25.2089 2
      vertex 7.96941 25.2089 -2
      vertex 7.87896 24.9306 2
    endloop
  endfacet
  facet normal -0.951057 0.309017 0
    outer loop
      vertex 7.87896 24.9306 2
      vertex 7.96941 25.2089 -2
      vertex 7.87896 24.9306 -2
    endloop
  endfacet
  facet normal -0.866025 0.5 0
    outer loop
      vertex 7.87896 24.9306 2
      vertex 7.87896 24.9306 -2
      vertex 7.73262 24.6771 2
    endloop
  endfacet
  facet normal -0.866025 0.5 0
    outer loop
      vertex 7.73262 24.6771 2
      vertex 7.87896 24.9306 -2
      vertex 7.73262 24.6771 -2
    endloop
  endfacet
  facet normal -0.743146 0.66913 0
    outer loop
      vertex 7.73262 24.6771 2
      vertex 7.73262 24.6771 -2
      vertex 7.53678 24.4596 2
    endloop
  endfacet
  facet normal -0.743146 0.66913 0
    outer loop
      vertex 7.53678 24.4596 2
      vertex 7.73262 24.6771 -2
      vertex 7.53678 24.4596 -2
    endloop
  endfacet
  facet normal -0.587785 0.809017 0
    outer loop
      vertex 7.53678 24.4596 2
      vertex 7.53678 24.4596 -2
      vertex 7.3 24.2876 2
    endloop
  endfacet
  facet normal -0.587785 0.809017 0
    outer loop
      vertex 7.3 24.2876 2
      vertex 7.53678 24.4596 -2
      vertex 7.3 24.2876 -2
    endloop
  endfacet
  facet normal -0.406735 0.913546 0
    outer loop
      vertex 7.3 24.2876 2
      vertex 7.3 24.2876 -2
      vertex 7.03262 24.1685 2
    endloop
  endfacet
  facet normal -0.406735 0.913546 0
    outer loop
      vertex 7.03262 24.1685 2
      vertex 7.3 24.2876 -2
      vertex 7.03262 24.1685 -2
    endloop
  endfacet
  facet normal -0.207913 0.978147 0
    outer loop
      vertex 7.03262 24.1685 2
      vertex 7.03262 24.1685 -2
      vertex 6.74634 24.1077 2
    endloop
  endfacet
  facet normal -0.207913 0.978147 0
    outer loop
      vertex 6.74634 24.1077 2
      vertex 7.03262 24.1685 -2
      vertex 6.74634 24.1077 -2
    endloop
  endfacet
  facet normal 0 1 0
    outer loop
      vertex 6.74634 24.1077 2
      vertex 6.74634 24.1077 -2
      vertex 6.6 24.1077 2
    endloop
  endfacet
  facet normal 0 1 0
    outer loop
      vertex 6.6 24.1077 2
      vertex 6.74634 24.1077 -2
      vertex 6.6 24.1077 -2
    endloop
  endfacet
  facet normal -1 0 0
    outer loop
      vertex 6.6 24.1077 2
      vertex 6.6 24.1077 -2
      vertex 6.6 24.1 2
    endloop
  endfacet
  facet normal -1 0 0
    outer loop
      vertex 6.6 24.1 2
      vertex 6.6 24.1077 -2
      vertex 6.6 24.1 -2
    endloop
  endfacet
  facet normal 0 1 0
    outer loop
      vertex 6.6 24.1 2
      vertex 6.6 24.1 -2
      vertex -6.6 24.1 2
    endloop
  endfacet
  facet normal 0 1 0
    outer loop
      vertex -6.6 24.1 2
      vertex 6.6 24.1 -2
      vertex -6.6 24.1 -2
    endloop
  endfacet
  facet normal 1 0 0
    outer loop
      vertex -6.6 24.1077 -2
      vertex -6.6 24.1077 2
      vertex -6.6 24.1 2
    endloop
  endfacet
  facet normal 1 0 0
    outer loop
      vertex -6.6 24.1 -2
      vertex -6.6 24.1077 -2
      vertex -6.6 24.1 2
    endloop
  endfacet
  facet normal 0 1 0
    outer loop
      vertex -6.6 24.1077 2
      vertex -6.6 24.1077 -2
      vertex -6.74634 24.1077 2
    endloop
  endfacet
  facet normal 0 1 0
    outer loop
      vertex -6.74634 24.1077 2
      vertex -6.6 24.1077 -2
      vertex -6.74634 24.1077 -2
    endloop
  endfacet
  facet normal 0.207913 0.978147 0
    outer loop
      vertex -6.74634 24.1077 2
      vertex -6.74634 24.1077 -2
      vertex -7.03262 24.1685 2
    endloop
  endfacet
  facet normal 0.207913 0.978147 0
    outer loop
      vertex -7.03262 24.1685 2
      vertex -6.74634 24.1077 -2
      vertex -7.03262 24.1685 -2
    endloop
  endfacet
  facet normal 0.406735 0.913546 0
    outer loop
      vertex -7.03262 24.1685 2
      vertex -7.03262 24.1685 -2
      vertex -7.3 24.2876 2
    endloop
  endfacet
  facet normal 0.406735 0.913546 0
    outer loop
      vertex -7.3 24.2876 2
      vertex -7.03262 24.1685 -2
      vertex -7.3 24.2876 -2
    endloop
  endfacet
  facet normal 0.587785 0.809017 0
    outer loop
      vertex -7.3 24.2876 2
      vertex -7.3 24.2876 -2
      vertex -7.53678 24.4596 2
    endloop
  endfacet
  facet normal 0.587785 0.809017 0
    outer loop
      vertex -7.53678 24.4596 2
      vertex -7.3 24.2876 -2
      vertex -7.53678 24.4596 -2
    endloop
  endfacet
  facet normal 0.743146 0.66913 0
    outer loop
      vertex -7.73262 24.6771 2
      vertex -7.53678 24.4596 2
      vertex -7.53678 24.4596 -2
    endloop
  endfacet
  facet normal 0.743146 0.66913 0
    outer loop
      vertex -7.73262 24.6771 -2
      vertex -7.73262 24.6771 2
      vertex -7.53678 24.4596 -2
    endloop
  endfacet
  facet normal 0.866025 0.5 0
    outer loop
      vertex -7.87896 24.9306 2
      vertex -7.73262 24.6771 2
      vertex -7.73262 24.6771 -2
    endloop
  endfacet
  facet normal 0.866025 0.5 0
    outer loop
      vertex -7.87896 24.9306 -2
      vertex -7.87896 24.9306 2
      vertex -7.73262 24.6771 -2
    endloop
  endfacet
  facet normal 0.951057 0.309017 0
    outer loop
      vertex -7.96941 25.2089 2
      vertex -7.87896 24.9306 2
      vertex -7.87896 24.9306 -2
    endloop
  endfacet
  facet normal 0.951057 0.309017 0
    outer loop
      vertex -7.96941 25.2089 -2
      vertex -7.96941 25.2089 2
      vertex -7.87896 24.9306 -2
    endloop
  endfacet
  facet normal 0.994522 -0.104528 0
    outer loop
      vertex -3.66805 -20.7203 -2
      vertex -3.66805 -20.7203 2
      vertex -3.75 -21.5 2
    endloop
  endfacet
  facet normal 0.994522 -0.104528 0
    outer loop
      vertex -3.75 -21.5 -2
      vertex -3.66805 -20.7203 -2
      vertex -3.75 -21.5 2
    endloop
  endfacet
  facet normal 0.994522 0.104528 0
    outer loop
      vertex -3.75 -21.5 2
      vertex -3.66805 -22.2797 2
      vertex -3.66805 -22.2797 -2
    endloop
  endfacet
  facet normal 0.994522 0.104528 0
    outer loop
      vertex -3.75 -21.5 -2
      vertex -3.75 -21.5 2
      vertex -3.66805 -22.2797 -2
    endloop
  endfacet
  facet normal 0.951056 -0.309018 0
    outer loop
      vertex -3.42579 -19.9747 -2
      vertex -3.42579 -19.9747 2
      vertex -3.66805 -20.7203 2
    endloop
  endfacet
  facet normal 0.951056 -0.309018 0
    outer loop
      vertex -3.66805 -20.7203 -2
      vertex -3.42579 -19.9747 -2
      vertex -3.66805 -20.7203 2
    endloop
  endfacet
  facet normal 0.866026 -0.499999 0
    outer loop
      vertex -3.03381 -19.2958 -2
      vertex -3.03381 -19.2958 2
      vertex -3.42579 -19.9747 2
    endloop
  endfacet
  facet normal 0.866026 -0.499999 0
    outer loop
      vertex -3.42579 -19.9747 -2
      vertex -3.03381 -19.2958 -2
      vertex -3.42579 -19.9747 2
    endloop
  endfacet
  facet normal 0.743145 -0.669131 0
    outer loop
      vertex -2.50924 -18.7132 -2
      vertex -2.50924 -18.7132 2
      vertex -3.03381 -19.2958 2
    endloop
  endfacet
  facet normal 0.743145 -0.669131 0
    outer loop
      vertex -3.03381 -19.2958 -2
      vertex -2.50924 -18.7132 -2
      vertex -3.03381 -19.2958 2
    endloop
  endfacet
  facet normal 0.587785 -0.809017 0
    outer loop
      vertex -1.875 -18.2524 -2
      vertex -1.875 -18.2524 0.5
      vertex -2.4 -18.6338 0.5
    endloop
  endfacet
  facet normal 0.587785 -0.809017 0
    outer loop
      vertex -2.50924 -18.7132 -2
      vertex -1.875 -18.2524 -2
      vertex -2.4 -18.6338 0.5
    endloop
  endfacet
  facet normal 0.587785 -0.809017 0
    outer loop
      vertex -2.4 -18.6338 2
      vertex -2.50924 -18.7132 2
      vertex -2.4 -18.6338 0.5
    endloop
  endfacet
  facet normal 0.587785 -0.809017 0
    outer loop
      vertex -2.50924 -18.7132 2
      vertex -2.50924 -18.7132 -2
      vertex -2.4 -18.6338 0.5
    endloop
  endfacet
  facet normal 0.406737 -0.913545 0
    outer loop
      vertex -1.15881 -17.9335 -2
      vertex -1.15881 -17.9335 0.5
      vertex -1.875 -18.2524 0.5
    endloop
  endfacet
  facet normal 0.406737 -0.913545 0
    outer loop
      vertex -1.875 -18.2524 -2
      vertex -1.15881 -17.9335 -2
      vertex -1.875 -18.2524 0.5
    endloop
  endfacet
  facet normal 0.207911 -0.978148 0
    outer loop
      vertex -0.391982 -17.7705 -2
      vertex -0.391982 -17.7705 0.5
      vertex -1.15881 -17.9335 0.5
    endloop
  endfacet
  facet normal 0.207911 -0.978148 0
    outer loop
      vertex -1.15881 -17.9335 -2
      vertex -0.391982 -17.7705 -2
      vertex -1.15881 -17.9335 0.5
    endloop
  endfacet
  facet normal 0 -1 0
    outer loop
      vertex 0.391982 -17.7705 -2
      vertex 0.391982 -17.7705 0.5
      vertex -0.391982 -17.7705 0.5
    endloop
  endfacet
  facet normal 0 -1 0
    outer loop
      vertex -0.391982 -17.7705 -2
      vertex 0.391982 -17.7705 -2
      vertex -0.391982 -17.7705 0.5
    endloop
  endfacet
  facet normal -0.207911 -0.978148 0
    outer loop
      vertex 1.15881 -17.9335 -2
      vertex 1.15881 -17.9335 0.5
      vertex 0.391982 -17.7705 0.5
    endloop
  endfacet
  facet normal -0.207911 -0.978148 0
    outer loop
      vertex 0.391982 -17.7705 -2
      vertex 1.15881 -17.9335 -2
      vertex 0.391982 -17.7705 0.5
    endloop
  endfacet
  facet normal -0.406737 -0.913545 0
    outer loop
      vertex 1.875 -18.2524 -2
      vertex 1.875 -18.2524 0.5
      vertex 1.15881 -17.9335 0.5
    endloop
  endfacet
  facet normal -0.406737 -0.913545 0
    outer loop
      vertex 1.15881 -17.9335 -2
      vertex 1.875 -18.2524 -2
      vertex 1.15881 -17.9335 0.5
    endloop
  endfacet
  facet normal -0.587785 -0.809017 0
    outer loop
      vertex 2.50924 -18.7132 -2
      vertex 2.50924 -18.7132 2
      vertex 2.4 -18.6338 2
    endloop
  endfacet
  facet normal -0.587785 -0.809017 0
    outer loop
      vertex 1.875 -18.2524 0.5
      vertex 2.50924 -18.7132 -2
      vertex 2.4 -18.6338 0.5
    endloop
  endfacet
  facet normal -0.587785 -0.809017 0
    outer loop
      vertex 2.4 -18.6338 0.5
      vertex 2.50924 -18.7132 -2
      vertex 2.4 -18.6338 2
    endloop
  endfacet
  facet normal -0.587785 -0.809017 0
    outer loop
      vertex 1.875 -18.2524 -2
      vertex 2.50924 -18.7132 -2
      vertex 1.875 -18.2524 0.5
    endloop
  endfacet
  facet normal -0.743145 -0.669131 0
    outer loop
      vertex 3.03381 -19.2958 2
      vertex 2.50924 -18.7132 2
      vertex 3.03381 -19.2958 -2
    endloop
  endfacet
  facet normal -0.743145 -0.669131 0
    outer loop
      vertex 3.03381 -19.2958 -2
      vertex 2.50924 -18.7132 2
      vertex 2.50924 -18.7132 -2
    endloop
  endfacet
  facet normal -0.866026 -0.499999 0
    outer loop
      vertex 3.42579 -19.9747 2
      vertex 3.03381 -19.2958 2
      vertex 3.42579 -19.9747 -2
    endloop
  endfacet
  facet normal -0.866026 -0.499999 0
    outer loop
      vertex 3.42579 -19.9747 -2
      vertex 3.03381 -19.2958 2
      vertex 3.03381 -19.2958 -2
    endloop
  endfacet
  facet normal -0.951056 -0.309018 0
    outer loop
      vertex 3.66805 -20.7203 2
      vertex 3.42579 -19.9747 2
      vertex 3.66805 -20.7203 -2
    endloop
  endfacet
  facet normal -0.951056 -0.309018 0
    outer loop
      vertex 3.66805 -20.7203 -2
      vertex 3.42579 -19.9747 2
      vertex 3.42579 -19.9747 -2
    endloop
  endfacet
  facet normal -0.994522 -0.104528 0
    outer loop
      vertex 3.75 -21.5 2
      vertex 3.66805 -20.7203 2
      vertex 3.75 -21.5 -2
    endloop
  endfacet
  facet normal -0.994522 -0.104528 0
    outer loop
      vertex 3.75 -21.5 -2
      vertex 3.66805 -20.7203 2
      vertex 3.66805 -20.7203 -2
    endloop
  endfacet
  facet normal -0.994522 0.104528 0
    outer loop
      vertex 3.75 -21.5 2
      vertex 3.75 -21.5 -2
      vertex 3.66805 -22.2797 2
    endloop
  endfacet
  facet normal -0.994522 0.104528 0
    outer loop
      vertex 3.66805 -22.2797 2
      vertex 3.75 -21.5 -2
      vertex 3.66805 -22.2797 -2
    endloop
  endfacet
  facet normal -0.951056 0.309018 0
    outer loop
      vertex 3.66805 -22.2797 2
      vertex 3.66805 -22.2797 -2
      vertex 3.42579 -23.0253 2
    endloop
  endfacet
  facet normal -0.951056 0.309018 0
    outer loop
      vertex 3.42579 -23.0253 2
      vertex 3.66805 -22.2797 -2
      vertex 3.42579 -23.0253 -2
    endloop
  endfacet
  facet normal -0.866026 0.499999 0
    outer loop
      vertex 3.42579 -23.0253 2
      vertex 3.42579 -23.0253 -2
      vertex 3.03381 -23.7042 2
    endloop
  endfacet
  facet normal -0.866026 0.499999 0
    outer loop
      vertex 3.03381 -23.7042 2
      vertex 3.42579 -23.0253 -2
      vertex 3.03381 -23.7042 -2
    endloop
  endfacet
  facet normal -0.743145 0.669131 0
    outer loop
      vertex 3.03381 -23.7042 2
      vertex 3.03381 -23.7042 -2
      vertex 2.50924 -24.2868 2
    endloop
  endfacet
  facet normal -0.743145 0.669131 0
    outer loop
      vertex 2.50924 -24.2868 2
      vertex 3.03381 -23.7042 -2
      vertex 2.50924 -24.2868 -2
    endloop
  endfacet
  facet normal -0.587785 0.809017 0
    outer loop
      vertex 2.50924 -24.2868 2
      vertex 2.50924 -24.2868 -2
      vertex 1.875 -24.7476 2
    endloop
  endfacet
  facet normal -0.587785 0.809017 0
    outer loop
      vertex 1.875 -24.7476 2
      vertex 2.50924 -24.2868 -2
      vertex 1.875 -24.7476 -2
    endloop
  endfacet
  facet normal -0.406737 0.913545 0
    outer loop
      vertex 1.875 -24.7476 2
      vertex 1.875 -24.7476 -2
      vertex 1.15881 -25.0665 2
    endloop
  endfacet
  facet normal -0.406737 0.913545 0
    outer loop
      vertex 1.15881 -25.0665 2
      vertex 1.875 -24.7476 -2
      vertex 1.15881 -25.0665 -2
    endloop
  endfacet
  facet normal -0.207911 0.978148 0
    outer loop
      vertex 1.15881 -25.0665 2
      vertex 1.15881 -25.0665 -2
      vertex 0.391982 -25.2295 2
    endloop
  endfacet
  facet normal -0.207911 0.978148 0
    outer loop
      vertex 0.391982 -25.2295 2
      vertex 1.15881 -25.0665 -2
      vertex 0.391982 -25.2295 -2
    endloop
  endfacet
  facet normal 0 1 0
    outer loop
      vertex 0.391982 -25.2295 2
      vertex 0.391982 -25.2295 -2
      vertex -0.391982 -25.2295 2
    endloop
  endfacet
  facet normal 0 1 0
    outer loop
      vertex -0.391982 -25.2295 2
      vertex 0.391982 -25.2295 -2
      vertex -0.391982 -25.2295 -2
    endloop
  endfacet
  facet normal 0.207911 0.978148 0
    outer loop
      vertex -0.391982 -25.2295 2
      vertex -0.391982 -25.2295 -2
      vertex -1.15881 -25.0665 2
    endloop
  endfacet
  facet normal 0.207911 0.978148 0
    outer loop
      vertex -1.15881 -25.0665 2
      vertex -0.391982 -25.2295 -2
      vertex -1.15881 -25.0665 -2
    endloop
  endfacet
  facet normal 0.406737 0.913545 0
    outer loop
      vertex -1.15881 -25.0665 2
      vertex -1.15881 -25.0665 -2
      vertex -1.875 -24.7476 2
    endloop
  endfacet
  facet normal 0.406737 0.913545 0
    outer loop
      vertex -1.875 -24.7476 2
      vertex -1.15881 -25.0665 -2
      vertex -1.875 -24.7476 -2
    endloop
  endfacet
  facet normal 0.587785 0.809017 0
    outer loop
      vertex -1.875 -24.7476 2
      vertex -1.875 -24.7476 -2
      vertex -2.50924 -24.2868 2
    endloop
  endfacet
  facet normal 0.587785 0.809017 0
    outer loop
      vertex -2.50924 -24.2868 2
      vertex -1.875 -24.7476 -2
      vertex -2.50924 -24.2868 -2
    endloop
  endfacet
  facet normal 0.743145 0.669131 0
    outer loop
      vertex -3.03381 -23.7042 2
      vertex -2.50924 -24.2868 2
      vertex -2.50924 -24.2868 -2
    endloop
  endfacet
  facet normal 0.743145 0.669131 0
    outer loop
      vertex -3.03381 -23.7042 -2
      vertex -3.03381 -23.7042 2
      vertex -2.50924 -24.2868 -2
    endloop
  endfacet
  facet normal 0.866026 0.499999 0
    outer loop
      vertex -3.42579 -23.0253 2
      vertex -3.03381 -23.7042 2
      vertex -3.03381 -23.7042 -2
    endloop
  endfacet
  facet normal 0.866026 0.499999 0
    outer loop
      vertex -3.42579 -23.0253 -2
      vertex -3.42579 -23.0253 2
      vertex -3.03381 -23.7042 -2
    endloop
  endfacet
  facet normal 0.951056 0.309018 0
    outer loop
      vertex -3.66805 -22.2797 2
      vertex -3.42579 -23.0253 2
      vertex -3.42579 -23.0253 -2
    endloop
  endfacet
  facet normal 0.951056 0.309018 0
    outer loop
      vertex -3.66805 -22.2797 -2
      vertex -3.66805 -22.2797 2
      vertex -3.42579 -23.0253 -2
    endloop
  endfacet
  facet normal -1 0 0
    outer loop
      vertex 2.4 20.6 2
      vertex 2.4 20.6 0.5
      vertex 2.4 -18.6338 2
    endloop
  endfacet
  facet normal -1 0 0
    outer loop
      vertex 2.4 -18.6338 2
      vertex 2.4 20.6 0.5
      vertex 2.4 -18.6338 0.5
    endloop
  endfacet
  facet normal -0.994522 -0.104529 0
    outer loop
      vertex 2.4 20.6 2
      vertex 2.34755 21.099 2
      vertex 2.4 20.6 0.5
    endloop
  endfacet
  facet normal -0.994522 -0.104529 0
    outer loop
      vertex 2.4 20.6 0.5
      vertex 2.34755 21.099 2
      vertex 2.34755 21.099 0.5
    endloop
  endfacet
  facet normal -0.951057 -0.309017 0
    outer loop
      vertex 2.34755 21.099 2
      vertex 2.21726 21.5 2
      vertex 2.34755 21.099 0.5
    endloop
  endfacet
  facet normal -0.951057 -0.309017 0
    outer loop
      vertex 2.34755 21.099 0.5
      vertex 2.21726 21.5 2
      vertex 2.21726 21.5 0.5
    endloop
  endfacet
  facet normal 0 -1 0
    outer loop
      vertex -2.21726 21.5 2
      vertex -2.21726 21.5 0.5
      vertex 2.21726 21.5 0.5
    endloop
  endfacet
  facet normal 0 -1 0
    outer loop
      vertex 2.21726 21.5 2
      vertex -2.21726 21.5 2
      vertex 2.21726 21.5 0.5
    endloop
  endfacet
  facet normal 0.951057 -0.309017 0
    outer loop
      vertex -2.21726 21.5 0.5
      vertex -2.21726 21.5 2
      vertex -2.34755 21.099 2
    endloop
  endfacet
  facet normal 0.951057 -0.309017 0
    outer loop
      vertex -2.34755 21.099 0.5
      vertex -2.21726 21.5 0.5
      vertex -2.34755 21.099 2
    endloop
  endfacet
  facet normal 0.994522 -0.104529 0
    outer loop
      vertex -2.34755 21.099 0.5
      vertex -2.34755 21.099 2
      vertex -2.4 20.6 2
    endloop
  endfacet
  facet normal 0.994522 -0.104529 0
    outer loop
      vertex -2.4 20.6 0.5
      vertex -2.34755 21.099 0.5
      vertex -2.4 20.6 2
    endloop
  endfacet
  facet normal 1 0 0
    outer loop
      vertex -2.4 20.6 0.5
      vertex -2.4 20.6 2
      vertex -2.4 -18.6338 2
    endloop
  endfacet
  facet normal 1 0 0
    outer loop
      vertex -2.4 -18.6338 0.5
      vertex -2.4 20.6 0.5
      vertex -2.4 -18.6338 2
    endloop
  endfacet
  facet normal 0 0 1
    outer loop
      vertex 2.4 20.6 0.5
      vertex -1.15881 -17.9335 0.5
      vertex -0.391982 -17.7705 0.5
    endloop
  endfacet
  facet normal 0 0 1
    outer loop
      vertex 1.15881 -17.9335 0.5
      vertex 2.4 20.6 0.5
      vertex 0.391982 -17.7705 0.5
    endloop
  endfacet
  facet normal 0 0 1
    outer loop
      vertex 0.391982 -17.7705 0.5
      vertex 2.4 20.6 0.5
      vertex -0.391982 -17.7705 0.5
    endloop
  endfacet
  facet normal 0 0 1
    outer loop
      vertex -1.875 -18.2524 0.5
      vertex -1.15881 -17.9335 0.5
      vertex 2.4 20.6 0.5
    endloop
  endfacet
  facet normal 0 0 1
    outer loop
      vertex 1.875 -18.2524 0.5
      vertex 2.4 20.6 0.5
      vertex 1.15881 -17.9335 0.5
    endloop
  endfacet
  facet normal 0 0 1
    outer loop
      vertex 2.4 -18.6338 0.5
      vertex 2.4 20.6 0.5
      vertex 1.875 -18.2524 0.5
    endloop
  endfacet
  facet normal 0 0 1
    outer loop
      vertex 2.4 20.6 0.5
      vertex 2.34755 21.099 0.5
      vertex -1.875 -18.2524 0.5
    endloop
  endfacet
  facet normal 0 0 1
    outer loop
      vertex 2.34755 21.099 0.5
      vertex 2.21726 21.5 0.5
      vertex -1.875 -18.2524 0.5
    endloop
  endfacet
  facet normal 0 0 1
    outer loop
      vertex 2.21726 21.5 0.5
      vertex -2.21726 21.5 0.5
      vertex -1.875 -18.2524 0.5
    endloop
  endfacet
  facet normal 0 0 1
    outer loop
      vertex -2.21726 21.5 0.5
      vertex -2.34755 21.099 0.5
      vertex -1.875 -18.2524 0.5
    endloop
  endfacet
  facet normal 0 0 1
    outer loop
      vertex -2.34755 21.099 0.5
      vertex -2.4 20.6 0.5
      vertex -1.875 -18.2524 0.5
    endloop
  endfacet
  facet normal 0 0 1
    outer loop
      vertex -2.4 20.6 0.5
      vertex -2.4 -18.6338 0.5
      vertex -1.875 -18.2524 0.5
    endloop
  endfacet
endsolid OpenSCAD_Model
