solid I2C - Temp Board
facet normal -1.0 0.0 0.0
  outer loop
    vertex -34.789817355268106 0.9875678999999999 2.4999999999999996
    vertex -34.789817355268106 -0.9875678999999999 0.0
    vertex -34.789817355268106 -0.9875678999999999 2.4999999999999996
  endloop
endfacet
facet normal -1.0 0.0 0.0
  outer loop
    vertex -34.789817355268106 -0.9875678999999999 0.0
    vertex -34.789817355268106 0.9875678999999999 2.4999999999999996
    vertex -34.789817355268106 0.9875678999999999 0.0
  endloop
endfacet
facet normal -0.9575739853562547 -0.2881875475605066 0.0
  outer loop
    vertex -34.789817355268106 -0.9875678999999999 2.4999999999999996
    vertex -34.22759677946892 -2.8556839999999997 0.0
    vertex -34.22759677946892 -2.8556839999999997 2.4999999999999996
  endloop
endfacet
facet normal -0.9575739853562547 -0.2881875475605066 0.0
  outer loop
    vertex -34.22759677946892 -2.8556839999999997 0.0
    vertex -34.789817355268106 -0.9875678999999999 2.4999999999999996
    vertex -34.789817355268106 -0.9875678999999999 0.0
  endloop
endfacet
facet normal -0.8260340751837526 -0.5636201794074822 0.0
  outer loop
    vertex -34.22759677946892 -2.8556839999999997 2.4999999999999996
    vertex -33.164091421025134 -4.414343 0.0
    vertex -33.164091421025134 -4.414343 2.4999999999999996
  endloop
endfacet
facet normal -0.8260340751837526 -0.5636201794074822 0.0
  outer loop
    vertex -33.164091421025134 -4.414343 0.0
    vertex -34.22759677946892 -2.8556839999999997 2.4999999999999996
    vertex -34.22759677946892 -2.8556839999999997 0.0
  endloop
endfacet
facet normal -0.5975654656291587 -0.8018201258932124 0.0
  outer loop
    vertex -31.714536641901343 -5.49464 2.4999999999999996
    vertex -33.164091421025134 -4.414343 0.0
    vertex -31.714536641901343 -5.49464 0.0
  endloop
endfacet
facet normal -0.5975654656291587 -0.8018201258932124 0.0
  outer loop
    vertex -33.164091421025134 -4.414343 0.0
    vertex -31.714536641901343 -5.49464 2.4999999999999996
    vertex -33.164091421025134 -4.414343 2.4999999999999996
  endloop
endfacet
facet normal -0.2775208610377785 -0.9607196113793297 0.0
  outer loop
    vertex -30.03602773965617 -5.979507 2.4999999999999996
    vertex -31.714536641901343 -5.49464 0.0
    vertex -30.03602773965617 -5.979507 0.0
  endloop
endfacet
facet normal -0.2775208610377785 -0.9607196113793297 0.0
  outer loop
    vertex -31.714536641901343 -5.49464 0.0
    vertex -30.03602773965617 -5.979507 2.4999999999999996
    vertex -31.714536641901343 -5.49464 2.4999999999999996
  endloop
endfacet
facet normal 0.09409866060358876 -0.9955628770060737 0.0
  outer loop
    vertex -29.601666255089782 -5.938452 2.4999999999999996
    vertex -30.03602773965617 -5.979507 0.0
    vertex -29.601666255089782 -5.938452 0.0
  endloop
endfacet
facet normal 0.09409866060358876 -0.9955628770060737 0.0
  outer loop
    vertex -30.03602773965617 -5.979507 0.0
    vertex -29.601666255089782 -5.938452 2.4999999999999996
    vertex -30.03602773965617 -5.979507 2.4999999999999996
  endloop
endfacet
facet normal -1.0 0.0 0.0
  outer loop
    vertex -29.601666255089782 -5.938452 2.4999999999999996
    vertex -29.601666255089782 -6.0 0.0
    vertex -29.601666255089782 -6.0 2.4999999999999996
  endloop
endfacet
facet normal -1.0 0.0 0.0
  outer loop
    vertex -29.601666255089782 -6.0 0.0
    vertex -29.601666255089782 -5.938452 2.4999999999999996
    vertex -29.601666255089782 -5.938452 0.0
  endloop
endfacet
facet normal 1.0 0.0 0.0
  outer loop
    vertex 12.55497878607015 -5.938452 0.0
    vertex 12.55497878607015 -6.0 2.4999999999999996
    vertex 12.55497878607015 -6.0 0.0
  endloop
endfacet
facet normal 1.0 0.0 0.0
  outer loop
    vertex 12.55497878607015 -6.0 2.4999999999999996
    vertex 12.55497878607015 -5.938452 0.0
    vertex 12.55497878607015 -5.938452 2.4999999999999996
  endloop
endfacet
facet normal -0.09718271849661239 -0.9952665568708757 0.0
  outer loop
    vertex 12.975430787459246 -5.979507 2.4999999999999996
    vertex 12.55497878607015 -5.938452 0.0
    vertex 12.975430787459246 -5.979507 0.0
  endloop
endfacet
facet normal -0.09718271849661239 -0.9952665568708757 0.0
  outer loop
    vertex 12.55497878607015 -5.938452 0.0
    vertex 12.975430787459246 -5.979507 2.4999999999999996
    vertex 12.55497878607015 -5.938452 2.4999999999999996
  endloop
endfacet
facet normal 0.2859621615246912 -0.9582409103018543 0.0
  outer loop
    vertex 14.600189087571664 -5.49464 2.4999999999999996
    vertex 12.975430787459246 -5.979507 0.0
    vertex 14.600189087571664 -5.49464 0.0
  endloop
endfacet
facet normal 0.2859621615246912 -0.9582409103018543 0.0
  outer loop
    vertex 12.975430787459246 -5.979507 0.0
    vertex 14.600189087571664 -5.49464 2.4999999999999996
    vertex 12.975430787459246 -5.979507 2.4999999999999996
  endloop
endfacet
facet normal 0.6100518829998343 -0.7923614705728419 0.0
  outer loop
    vertex 16.003325023102676 -4.414343 2.4999999999999996
    vertex 14.600189087571664 -5.49464 0.0
    vertex 16.003325023102676 -4.414343 0.0
  endloop
endfacet
facet normal 0.6100518829998343 -0.7923614705728419 0.0
  outer loop
    vertex 14.600189087571664 -5.49464 0.0
    vertex 16.003325023102676 -4.414343 2.4999999999999996
    vertex 14.600189087571664 -5.49464 2.4999999999999996
  endloop
endfacet
facet normal 0.8344287164936981 -0.5511158835405489 0.0
  outer loop
    vertex 17.032773932211423 -2.8556839999999997 0.0
    vertex 16.003325023102676 -4.414343 2.4999999999999996
    vertex 16.003325023102676 -4.414343 0.0
  endloop
endfacet
facet normal 0.8344287164936981 -0.5511158835405489 0.0
  outer loop
    vertex 16.003325023102676 -4.414343 2.4999999999999996
    vertex 17.032773932211423 -2.8556839999999997 0.0
    vertex 17.032773932211423 -2.8556839999999997 2.4999999999999996
  endloop
endfacet
facet normal 0.9600898160964535 -0.2796918751552825 0.0
  outer loop
    vertex 17.57699061512671 -0.9875678999999999 0.0
    vertex 17.032773932211423 -2.8556839999999997 2.4999999999999996
    vertex 17.032773932211423 -2.8556839999999997 0.0
  endloop
endfacet
facet normal 0.9600898160964535 -0.2796918751552825 0.0
  outer loop
    vertex 17.032773932211423 -2.8556839999999997 2.4999999999999996
    vertex 17.57699061512671 -0.9875678999999999 0.0
    vertex 17.57699061512671 -0.9875678999999999 2.4999999999999996
  endloop
endfacet
facet normal 1.0 0.0 0.0
  outer loop
    vertex 17.57699061512671 0.9875678999999999 0.0
    vertex 17.57699061512671 -0.9875678999999999 2.4999999999999996
    vertex 17.57699061512671 -0.9875678999999999 0.0
  endloop
endfacet
facet normal 1.0 0.0 0.0
  outer loop
    vertex 17.57699061512671 -0.9875678999999999 2.4999999999999996
    vertex 17.57699061512671 0.9875678999999999 0.0
    vertex 17.57699061512671 0.9875678999999999 2.4999999999999996
  endloop
endfacet
facet normal 0.9600898160964535 0.2796918751552825 0.0
  outer loop
    vertex 17.032773932211423 2.8556839999999997 0.0
    vertex 17.57699061512671 0.9875678999999999 2.4999999999999996
    vertex 17.57699061512671 0.9875678999999999 0.0
  endloop
endfacet
facet normal 0.9600898160964535 0.2796918751552825 0.0
  outer loop
    vertex 17.57699061512671 0.9875678999999999 2.4999999999999996
    vertex 17.032773932211423 2.8556839999999997 0.0
    vertex 17.032773932211423 2.8556839999999997 2.4999999999999996
  endloop
endfacet
facet normal 0.8344287164936981 0.5511158835405489 0.0
  outer loop
    vertex 16.003325023102676 4.414343 0.0
    vertex 17.032773932211423 2.8556839999999997 2.4999999999999996
    vertex 17.032773932211423 2.8556839999999997 0.0
  endloop
endfacet
facet normal 0.8344287164936981 0.5511158835405489 0.0
  outer loop
    vertex 17.032773932211423 2.8556839999999997 2.4999999999999996
    vertex 16.003325023102676 4.414343 0.0
    vertex 16.003325023102676 4.414343 2.4999999999999996
  endloop
endfacet
facet normal 0.6100518829998343 0.7923614705728419 0.0
  outer loop
    vertex 14.600189087571664 5.49464 2.4999999999999996
    vertex 16.003325023102676 4.414343 0.0
    vertex 14.600189087571664 5.49464 0.0
  endloop
endfacet
facet normal 0.6100518829998343 0.7923614705728419 0.0
  outer loop
    vertex 16.003325023102676 4.414343 0.0
    vertex 14.600189087571664 5.49464 2.4999999999999996
    vertex 16.003325023102676 4.414343 2.4999999999999996
  endloop
endfacet
facet normal 0.2859621615246912 0.9582409103018543 0.0
  outer loop
    vertex 12.975430787459246 5.979507 2.4999999999999996
    vertex 14.600189087571664 5.49464 0.0
    vertex 12.975430787459246 5.979507 0.0
  endloop
endfacet
facet normal 0.2859621615246912 0.9582409103018543 0.0
  outer loop
    vertex 14.600189087571664 5.49464 0.0
    vertex 12.975430787459246 5.979507 2.4999999999999996
    vertex 14.600189087571664 5.49464 2.4999999999999996
  endloop
endfacet
facet normal -0.09718271849661239 0.9952665568708757 -0.0
  outer loop
    vertex 12.55497878607015 5.938452 2.4999999999999996
    vertex 12.975430787459246 5.979507 0.0
    vertex 12.55497878607015 5.938452 0.0
  endloop
endfacet
facet normal -0.09718271849661239 0.9952665568708757 -0.0
  outer loop
    vertex 12.975430787459246 5.979507 0.0
    vertex 12.55497878607015 5.938452 2.4999999999999996
    vertex 12.975430787459246 5.979507 2.4999999999999996
  endloop
endfacet
facet normal 1.0 0.0 0.0
  outer loop
    vertex 12.55497878607015 6.0 0.0
    vertex 12.55497878607015 5.938452 2.4999999999999996
    vertex 12.55497878607015 5.938452 0.0
  endloop
endfacet
facet normal 1.0 0.0 0.0
  outer loop
    vertex 12.55497878607015 5.938452 2.4999999999999996
    vertex 12.55497878607015 6.0 0.0
    vertex 12.55497878607015 6.0 2.4999999999999996
  endloop
endfacet
facet normal -1.0 0.0 0.0
  outer loop
    vertex -29.601666255089782 6.0 2.4999999999999996
    vertex -29.601666255089782 5.938452 0.0
    vertex -29.601666255089782 5.938452 2.4999999999999996
  endloop
endfacet
facet normal -1.0 0.0 0.0
  outer loop
    vertex -29.601666255089782 5.938452 0.0
    vertex -29.601666255089782 6.0 2.4999999999999996
    vertex -29.601666255089782 6.0 0.0
  endloop
endfacet
facet normal 0.09409866060358876 0.9955628770060737 0.0
  outer loop
    vertex -30.03602773965617 5.979507 2.4999999999999996
    vertex -29.601666255089782 5.938452 0.0
    vertex -30.03602773965617 5.979507 0.0
  endloop
endfacet
facet normal 0.09409866060358876 0.9955628770060737 0.0
  outer loop
    vertex -29.601666255089782 5.938452 0.0
    vertex -30.03602773965617 5.979507 2.4999999999999996
    vertex -29.601666255089782 5.938452 2.4999999999999996
  endloop
endfacet
facet normal -0.2775208610377785 0.9607196113793297 -0.0
  outer loop
    vertex -31.714536641901343 5.49464 2.4999999999999996
    vertex -30.03602773965617 5.979507 0.0
    vertex -31.714536641901343 5.49464 0.0
  endloop
endfacet
facet normal -0.2775208610377785 0.9607196113793297 -0.0
  outer loop
    vertex -30.03602773965617 5.979507 0.0
    vertex -31.714536641901343 5.49464 2.4999999999999996
    vertex -30.03602773965617 5.979507 2.4999999999999996
  endloop
endfacet
facet normal -0.5975654656291587 0.8018201258932124 -0.0
  outer loop
    vertex -33.164091421025134 4.414343 2.4999999999999996
    vertex -31.714536641901343 5.49464 0.0
    vertex -33.164091421025134 4.414343 0.0
  endloop
endfacet
facet normal -0.5975654656291587 0.8018201258932124 -0.0
  outer loop
    vertex -31.714536641901343 5.49464 0.0
    vertex -33.164091421025134 4.414343 2.4999999999999996
    vertex -31.714536641901343 5.49464 2.4999999999999996
  endloop
endfacet
facet normal -0.8260340751837526 0.5636201794074822 0.0
  outer loop
    vertex -33.164091421025134 4.414343 2.4999999999999996
    vertex -34.22759677946892 2.8556839999999997 0.0
    vertex -34.22759677946892 2.8556839999999997 2.4999999999999996
  endloop
endfacet
facet normal -0.8260340751837526 0.5636201794074822 0.0
  outer loop
    vertex -34.22759677946892 2.8556839999999997 0.0
    vertex -33.164091421025134 4.414343 2.4999999999999996
    vertex -33.164091421025134 4.414343 0.0
  endloop
endfacet
facet normal -0.9575739853562547 0.2881875475605066 0.0
  outer loop
    vertex -34.22759677946892 2.8556839999999997 2.4999999999999996
    vertex -34.789817355268106 0.9875678999999999 0.0
    vertex -34.789817355268106 0.9875678999999999 2.4999999999999996
  endloop
endfacet
facet normal -0.9575739853562547 0.2881875475605066 0.0
  outer loop
    vertex -34.789817355268106 0.9875678999999999 0.0
    vertex -34.22759677946892 2.8556839999999997 2.4999999999999996
    vertex -34.22759677946892 2.8556839999999997 0.0
  endloop
endfacet
facet normal 0.9617455472897009 -0.2739443415521367 0.0
  outer loop
    vertex -31.729334457876732 1.763355 0.0
    vertex -32.231609852609786 0.0 2.4999999999999996
    vertex -32.231609852609786 0.0 0.0
  endloop
endfacet
facet normal 0.9617455472897009 -0.2739443415521367 0.0
  outer loop
    vertex -32.231609852609786 0.0 2.4999999999999996
    vertex -31.729334457876732 1.763355 0.0
    vertex -31.729334457876732 1.763355 2.4999999999999996
  endloop
endfacet
facet normal 0.9617455472897009 0.2739443415521367 0.0
  outer loop
    vertex -32.231609852609786 0.0 0.0
    vertex -31.729334457876732 -1.763355 2.4999999999999996
    vertex -31.729334457876732 -1.763355 0.0
  endloop
endfacet
facet normal 0.9617455472897009 0.2739443415521367 0.0
  outer loop
    vertex -31.729334457876732 -1.763355 2.4999999999999996
    vertex -32.231609852609786 0.0 0.0
    vertex -32.231609852609786 0.0 2.4999999999999996
  endloop
endfacet
facet normal 0.6381105344870864 -0.7699447680039165 0.0
  outer loop
    vertex -30.414362659116737 2.85317 2.4999999999999996
    vertex -31.729334457876732 1.763355 0.0
    vertex -30.414362659116737 2.85317 0.0
  endloop
endfacet
facet normal 0.6381105344870864 -0.7699447680039165 0.0
  outer loop
    vertex -31.729334457876732 1.763355 0.0
    vertex -30.414362659116737 2.85317 2.4999999999999996
    vertex -31.729334457876732 1.763355 2.4999999999999996
  endloop
endfacet
facet normal 0.0 -1.0 0.0
  outer loop
    vertex -28.788969851062816 2.85317 2.4999999999999996
    vertex -30.414362659116737 2.85317 0.0
    vertex -28.788969851062816 2.85317 0.0
  endloop
endfacet
facet normal 0.0 -1.0 0.0
  outer loop
    vertex -30.414362659116737 2.85317 0.0
    vertex -28.788969851062816 2.85317 2.4999999999999996
    vertex -30.414362659116737 2.85317 2.4999999999999996
  endloop
endfacet
facet normal -0.6381105344870864 -0.7699447680039165 0.0
  outer loop
    vertex -27.473998052302797 1.763355 2.4999999999999996
    vertex -28.788969851062816 2.85317 0.0
    vertex -27.473998052302797 1.763355 0.0
  endloop
endfacet
facet normal -0.6381105344870864 -0.7699447680039165 0.0
  outer loop
    vertex -28.788969851062816 2.85317 0.0
    vertex -27.473998052302797 1.763355 2.4999999999999996
    vertex -28.788969851062816 2.85317 2.4999999999999996
  endloop
endfacet
facet normal -0.9617455472897013 -0.27394434155213554 0.0
  outer loop
    vertex -27.473998052302797 1.763355 2.4999999999999996
    vertex -26.9717226575698 0.0 0.0
    vertex -26.9717226575698 0.0 2.4999999999999996
  endloop
endfacet
facet normal -0.9617455472897013 -0.27394434155213554 0.0
  outer loop
    vertex -26.9717226575698 0.0 0.0
    vertex -27.473998052302797 1.763355 2.4999999999999996
    vertex -27.473998052302797 1.763355 0.0
  endloop
endfacet
facet normal -0.9617455472897013 0.27394434155213554 0.0
  outer loop
    vertex -26.9717226575698 0.0 2.4999999999999996
    vertex -27.473998052302797 -1.763355 0.0
    vertex -27.473998052302797 -1.763355 2.4999999999999996
  endloop
endfacet
facet normal -0.9617455472897013 0.27394434155213554 0.0
  outer loop
    vertex -27.473998052302797 -1.763355 0.0
    vertex -26.9717226575698 0.0 2.4999999999999996
    vertex -26.9717226575698 0.0 0.0
  endloop
endfacet
facet normal -0.6381105344870864 0.7699447680039165 -0.0
  outer loop
    vertex -28.788969851062816 -2.85317 2.4999999999999996
    vertex -27.473998052302797 -1.763355 0.0
    vertex -28.788969851062816 -2.85317 0.0
  endloop
endfacet
facet normal -0.6381105344870864 0.7699447680039165 -0.0
  outer loop
    vertex -27.473998052302797 -1.763355 0.0
    vertex -28.788969851062816 -2.85317 2.4999999999999996
    vertex -27.473998052302797 -1.763355 2.4999999999999996
  endloop
endfacet
facet normal -0.0 1.0 -0.0
  outer loop
    vertex -30.414362659116737 -2.85317 2.4999999999999996
    vertex -28.788969851062816 -2.85317 0.0
    vertex -30.414362659116737 -2.85317 0.0
  endloop
endfacet
facet normal -0.0 1.0 -0.0
  outer loop
    vertex -28.788969851062816 -2.85317 0.0
    vertex -30.414362659116737 -2.85317 2.4999999999999996
    vertex -28.788969851062816 -2.85317 2.4999999999999996
  endloop
endfacet
facet normal 0.6381105344870864 0.7699447680039165 0.0
  outer loop
    vertex -31.729334457876732 -1.763355 2.4999999999999996
    vertex -30.414362659116737 -2.85317 0.0
    vertex -31.729334457876732 -1.763355 0.0
  endloop
endfacet
facet normal 0.6381105344870864 0.7699447680039165 0.0
  outer loop
    vertex -30.414362659116737 -2.85317 0.0
    vertex -31.729334457876732 -1.763355 2.4999999999999996
    vertex -30.414362659116737 -2.85317 2.4999999999999996
  endloop
endfacet
facet normal 0.964027877117427 -0.2658011515032756 0.0
  outer loop
    vertex 10.49544453651131 1.763355 0.0
    vertex 10.009253420430163 0.0 2.4999999999999996
    vertex 10.009253420430163 0.0 0.0
  endloop
endfacet
facet normal 0.964027877117427 -0.2658011515032756 0.0
  outer loop
    vertex 10.009253420430163 0.0 2.4999999999999996
    vertex 10.49544453651131 1.763355 0.0
    vertex 10.49544453651131 1.763355 2.4999999999999996
  endloop
endfacet
facet normal 0.964027877117427 0.2658011515032756 0.0
  outer loop
    vertex 10.009253420430163 0.0 0.0
    vertex 10.49544453651131 -1.763355 2.4999999999999996
    vertex 10.49544453651131 -1.763355 0.0
  endloop
endfacet
facet normal 0.964027877117427 0.2658011515032756 0.0
  outer loop
    vertex 10.49544453651131 -1.763355 2.4999999999999996
    vertex 10.009253420430163 0.0 0.0
    vertex 10.009253420430163 0.0 2.4999999999999996
  endloop
endfacet
facet normal 0.6503749532085485 -0.7596133360065359 0.0
  outer loop
    vertex 11.768307219331295 2.85317 2.4999999999999996
    vertex 10.49544453651131 1.763355 0.0
    vertex 11.768307219331295 2.85317 0.0
  endloop
endfacet
facet normal 0.6503749532085485 -0.7596133360065359 0.0
  outer loop
    vertex 10.49544453651131 1.763355 0.0
    vertex 11.768307219331295 2.85317 2.4999999999999996
    vertex 10.49544453651131 1.763355 2.4999999999999996
  endloop
endfacet
facet normal 0.0 -1.0 0.0
  outer loop
    vertex 13.341650352809008 2.85317 2.4999999999999996
    vertex 11.768307219331295 2.85317 0.0
    vertex 13.341650352809008 2.85317 0.0
  endloop
endfacet
facet normal 0.0 -1.0 0.0
  outer loop
    vertex 11.768307219331295 2.85317 0.0
    vertex 13.341650352809008 2.85317 2.4999999999999996
    vertex 11.768307219331295 2.85317 2.4999999999999996
  endloop
endfacet
facet normal -0.6503749532085485 -0.7596133360065359 0.0
  outer loop
    vertex 14.614513035628997 1.763355 2.4999999999999996
    vertex 13.341650352809008 2.85317 0.0
    vertex 14.614513035628997 1.763355 0.0
  endloop
endfacet
facet normal -0.6503749532085485 -0.7596133360065359 0.0
  outer loop
    vertex 13.341650352809008 2.85317 0.0
    vertex 14.614513035628997 1.763355 2.4999999999999996
    vertex 13.341650352809008 2.85317 2.4999999999999996
  endloop
endfacet
facet normal -0.9640278771174267 -0.2658011515032769 0.0
  outer loop
    vertex 14.614513035628997 1.763355 2.4999999999999996
    vertex 15.100704151710158 0.0 0.0
    vertex 15.100704151710158 0.0 2.4999999999999996
  endloop
endfacet
facet normal -0.9640278771174267 -0.2658011515032769 0.0
  outer loop
    vertex 15.100704151710158 0.0 0.0
    vertex 14.614513035628997 1.763355 2.4999999999999996
    vertex 14.614513035628997 1.763355 0.0
  endloop
endfacet
facet normal -0.9640278771174267 0.2658011515032769 0.0
  outer loop
    vertex 15.100704151710158 0.0 2.4999999999999996
    vertex 14.614513035628997 -1.763355 0.0
    vertex 14.614513035628997 -1.763355 2.4999999999999996
  endloop
endfacet
facet normal -0.9640278771174267 0.2658011515032769 0.0
  outer loop
    vertex 14.614513035628997 -1.763355 0.0
    vertex 15.100704151710158 0.0 2.4999999999999996
    vertex 15.100704151710158 0.0 0.0
  endloop
endfacet
facet normal -0.6503749532085485 0.7596133360065359 -0.0
  outer loop
    vertex 13.341650352809008 -2.85317 2.4999999999999996
    vertex 14.614513035628997 -1.763355 0.0
    vertex 13.341650352809008 -2.85317 0.0
  endloop
endfacet
facet normal -0.6503749532085485 0.7596133360065359 -0.0
  outer loop
    vertex 14.614513035628997 -1.763355 0.0
    vertex 13.341650352809008 -2.85317 2.4999999999999996
    vertex 14.614513035628997 -1.763355 2.4999999999999996
  endloop
endfacet
facet normal -0.0 1.0 -0.0
  outer loop
    vertex 11.768307219331295 -2.85317 2.4999999999999996
    vertex 13.341650352809008 -2.85317 0.0
    vertex 11.768307219331295 -2.85317 0.0
  endloop
endfacet
facet normal -0.0 1.0 -0.0
  outer loop
    vertex 13.341650352809008 -2.85317 0.0
    vertex 11.768307219331295 -2.85317 2.4999999999999996
    vertex 13.341650352809008 -2.85317 2.4999999999999996
  endloop
endfacet
facet normal 0.6503749532085485 0.7596133360065359 0.0
  outer loop
    vertex 10.49544453651131 -1.763355 2.4999999999999996
    vertex 11.768307219331295 -2.85317 0.0
    vertex 10.49544453651131 -1.763355 0.0
  endloop
endfacet
facet normal 0.6503749532085485 0.7596133360065359 0.0
  outer loop
    vertex 11.768307219331295 -2.85317 0.0
    vertex 10.49544453651131 -1.763355 2.4999999999999996
    vertex 11.768307219331295 -2.85317 2.4999999999999996
  endloop
endfacet
facet normal -1.0 0.0 0.0
  outer loop
    vertex 2.1850197361699615 19.999999999999986 9.999999999999998
    vertex 2.1850197361699615 -19.999999999999996 7.619999999999999
    vertex 2.1850197361699615 -19.999999999999996 9.999999999999998
  endloop
endfacet
facet normal -1.0 0.0 0.0
  outer loop
    vertex 2.1850197361699615 -19.999999999999996 7.619999999999999
    vertex 2.1850197361699615 19.999999999999986 9.999999999999998
    vertex 2.1850197361699615 19.999999999999986 7.619999999999999
  endloop
endfacet
facet normal -0.5840690364297981 0.0 -0.8117039858741408
  outer loop
    vertex 3.574759536169956 19.999999999999986 6.62
    vertex 2.1850197361699615 -19.999999999999996 7.619999999999999
    vertex 2.1850197361699615 19.999999999999986 7.619999999999999
  endloop
endfacet
facet normal -0.5840690364297981 0.0 -0.8117039858741408
  outer loop
    vertex 2.1850197361699615 -19.999999999999996 7.619999999999999
    vertex 3.574759536169956 19.999999999999986 6.62
    vertex 3.574759536169956 -19.999999999999996 6.62
  endloop
endfacet
facet normal -1.0 0.0 0.0
  outer loop
    vertex 3.574759536169956 19.999999999999986 6.62
    vertex 3.574759536169956 -19.999999999999996 4.499999999999999
    vertex 3.574759536169956 -19.999999999999996 6.62
  endloop
endfacet
facet normal -1.0 0.0 0.0
  outer loop
    vertex 3.574759536169956 -19.999999999999996 4.499999999999999
    vertex 3.574759536169956 19.999999999999986 6.62
    vertex 3.574759536169956 19.999999999999986 4.499999999999999
  endloop
endfacet
facet normal -1.0 0.0 0.0
  outer loop
    vertex 2.1850197361699615 19.999999999999986 4.499999999999999
    vertex 2.1850197361699615 -19.0 2.4999999999999996
    vertex 2.1850197361699615 -19.0 4.499999999999999
  endloop
endfacet
facet normal -1.0 0.0 0.0
  outer loop
    vertex 2.1850197361699615 -19.0 2.4999999999999996
    vertex 2.1850197361699615 19.999999999999986 4.499999999999999
    vertex 2.1850197361699615 19.999999999999986 2.4999999999999996
  endloop
endfacet
facet normal 1.0 0.0 0.0
  outer loop
    vertex -18.93902661356981 19.999999999999986 2.4999999999999996
    vertex -18.93902661356981 -19.0 4.499999999999999
    vertex -18.93902661356981 -19.0 2.4999999999999996
  endloop
endfacet
facet normal 1.0 0.0 0.0
  outer loop
    vertex -18.93902661356981 -19.0 4.499999999999999
    vertex -18.93902661356981 19.999999999999986 2.4999999999999996
    vertex -18.93902661356981 19.999999999999986 4.499999999999999
  endloop
endfacet
facet normal 1.0 0.0 0.0
  outer loop
    vertex -20.328766413569845 19.999999999999986 4.499999999999999
    vertex -20.328766413569845 -19.999999999999996 6.62
    vertex -20.328766413569845 -19.999999999999996 4.499999999999999
  endloop
endfacet
facet normal 1.0 0.0 0.0
  outer loop
    vertex -20.328766413569845 -19.999999999999996 6.62
    vertex -20.328766413569845 19.999999999999986 4.499999999999999
    vertex -20.328766413569845 19.999999999999986 6.62
  endloop
endfacet
facet normal 0.5840690364297986 0.0 -0.8117039858741405
  outer loop
    vertex -18.93902661356981 19.999999999999986 7.619999999999999
    vertex -20.328766413569845 -19.999999999999996 6.62
    vertex -20.328766413569845 19.999999999999986 6.62
  endloop
endfacet
facet normal 0.5840690364297986 0.0 -0.8117039858741405
  outer loop
    vertex -20.328766413569845 -19.999999999999996 6.62
    vertex -18.93902661356981 19.999999999999986 7.619999999999999
    vertex -18.93902661356981 -19.999999999999996 7.619999999999999
  endloop
endfacet
facet normal 1.0 0.0 0.0
  outer loop
    vertex -18.93902661356981 19.999999999999986 7.619999999999999
    vertex -18.93902661356981 -19.999999999999996 9.999999999999998
    vertex -18.93902661356981 -19.999999999999996 7.619999999999999
  endloop
endfacet
facet normal 1.0 0.0 0.0
  outer loop
    vertex -18.93902661356981 -19.999999999999996 9.999999999999998
    vertex -18.93902661356981 19.999999999999986 7.619999999999999
    vertex -18.93902661356981 19.999999999999986 9.999999999999998
  endloop
endfacet
facet normal 0.0 0.0 1.0
  outer loop
    vertex -23.803115913569826 -22.5 9.999999999999998
    vertex -18.93902661356981 -19.999999999999996 9.999999999999998
    vertex -23.803115913569826 19.999999999999986 9.999999999999998
  endloop
endfacet
facet normal 0.0 0.0 1.0
  outer loop
    vertex -18.93902661356981 -19.999999999999996 9.999999999999998
    vertex -23.803115913569826 -22.5 9.999999999999998
    vertex 7.049107646430156 -22.5 9.999999999999998
  endloop
endfacet
facet normal 0.0 0.0 1.0
  outer loop
    vertex -18.93902661356981 -19.999999999999996 9.999999999999998
    vertex 7.049107646430156 -22.5 9.999999999999998
    vertex 2.1850197361699615 -19.999999999999996 9.999999999999998
  endloop
endfacet
facet normal 0.0 0.0 1.0
  outer loop
    vertex 2.1850197361699615 -19.999999999999996 9.999999999999998
    vertex 7.049107646430156 -22.5 9.999999999999998
    vertex 2.1850197361699615 19.999999999999986 9.999999999999998
  endloop
endfacet
facet normal 0.0 0.0 1.0
  outer loop
    vertex 2.1850197361699615 19.999999999999986 9.999999999999998
    vertex 7.049107646430156 -22.5 9.999999999999998
    vertex 7.049107646430156 19.999999999999986 9.999999999999998
  endloop
endfacet
facet normal 0.0 0.0 1.0
  outer loop
    vertex -18.93902661356981 19.999999999999986 9.999999999999998
    vertex -23.803115913569826 19.999999999999986 9.999999999999998
    vertex -18.93902661356981 -19.999999999999996 9.999999999999998
  endloop
endfacet
facet normal 0.0 0.0 1.0
  outer loop
    vertex -20.328766413569845 -19.999999999999996 4.499999999999999
    vertex -18.93902661356981 -19.0 4.499999999999999
    vertex -20.328766413569845 19.999999999999986 4.499999999999999
  endloop
endfacet
facet normal 0.0 0.0 1.0
  outer loop
    vertex -18.93902661356981 -19.0 4.499999999999999
    vertex -20.328766413569845 -19.999999999999996 4.499999999999999
    vertex 3.574759536169956 -19.999999999999996 4.499999999999999
  endloop
endfacet
facet normal 0.0 0.0 1.0
  outer loop
    vertex -18.93902661356981 -19.0 4.499999999999999
    vertex 3.574759536169956 -19.999999999999996 4.499999999999999
    vertex 2.1850197361699615 -19.0 4.499999999999999
  endloop
endfacet
facet normal 0.0 0.0 1.0
  outer loop
    vertex 2.1850197361699615 -19.0 4.499999999999999
    vertex 3.574759536169956 -19.999999999999996 4.499999999999999
    vertex 2.1850197361699615 19.999999999999986 4.499999999999999
  endloop
endfacet
facet normal 0.0 0.0 1.0
  outer loop
    vertex 2.1850197361699615 19.999999999999986 4.499999999999999
    vertex 3.574759536169956 -19.999999999999996 4.499999999999999
    vertex 3.574759536169956 19.999999999999986 4.499999999999999
  endloop
endfacet
facet normal 0.0 0.0 1.0
  outer loop
    vertex -18.93902661356981 19.999999999999986 4.499999999999999
    vertex -20.328766413569845 19.999999999999986 4.499999999999999
    vertex -18.93902661356981 -19.0 4.499999999999999
  endloop
endfacet
facet normal 0.0 0.0 1.0
  outer loop
    vertex 2.1850197361699615 -19.0 2.4999999999999996
    vertex -18.93902661356981 19.999999999999986 2.4999999999999996
    vertex -18.93902661356981 -19.0 2.4999999999999996
  endloop
endfacet
facet normal 0.0 0.0 1.0
  outer loop
    vertex -18.93902661356981 19.999999999999986 2.4999999999999996
    vertex 2.1850197361699615 -19.0 2.4999999999999996
    vertex 2.1850197361699615 19.999999999999986 2.4999999999999996
  endloop
endfacet
facet normal -0.0 1.0 -0.0
  outer loop
    vertex -20.328766413569845 -19.999999999999996 6.62
    vertex 3.574759536169956 -19.999999999999996 4.499999999999999
    vertex -20.328766413569845 -19.999999999999996 4.499999999999999
  endloop
endfacet
facet normal -0.0 1.0 -0.0
  outer loop
    vertex 3.574759536169956 -19.999999999999996 4.499999999999999
    vertex -20.328766413569845 -19.999999999999996 6.62
    vertex 3.574759536169956 -19.999999999999996 6.62
  endloop
endfacet
facet normal -0.0 1.0 -0.0
  outer loop
    vertex 3.574759536169956 -19.999999999999996 6.62
    vertex -20.328766413569845 -19.999999999999996 6.62
    vertex -18.93902661356981 -19.999999999999996 7.619999999999999
  endloop
endfacet
facet normal -0.0 1.0 -0.0
  outer loop
    vertex 3.574759536169956 -19.999999999999996 6.62
    vertex -18.93902661356981 -19.999999999999996 7.619999999999999
    vertex 2.1850197361699615 -19.999999999999996 7.619999999999999
  endloop
endfacet
facet normal -0.0 1.0 -0.0
  outer loop
    vertex 2.1850197361699615 -19.999999999999996 7.619999999999999
    vertex -18.93902661356981 -19.999999999999996 7.619999999999999
    vertex -18.93902661356981 -19.999999999999996 9.999999999999998
  endloop
endfacet
facet normal -0.0 1.0 -0.0
  outer loop
    vertex 2.1850197361699615 -19.999999999999996 7.619999999999999
    vertex -18.93902661356981 -19.999999999999996 9.999999999999998
    vertex 2.1850197361699615 -19.999999999999996 9.999999999999998
  endloop
endfacet
facet normal -0.0 1.0 -0.0
  outer loop
    vertex -18.93902661356981 -19.0 4.499999999999999
    vertex 2.1850197361699615 -19.0 2.4999999999999996
    vertex -18.93902661356981 -19.0 2.4999999999999996
  endloop
endfacet
facet normal -0.0 1.0 -0.0
  outer loop
    vertex 2.1850197361699615 -19.0 2.4999999999999996
    vertex -18.93902661356981 -19.0 4.499999999999999
    vertex 2.1850197361699615 -19.0 4.499999999999999
  endloop
endfacet
facet normal -1.0 -2.5440049192302117e-18 -5.300688649708071e-16
  outer loop
    vertex -23.803115913569826 19.999999999999986 9.999999999999998
    vertex -23.80311591356982 -22.5 0.0
    vertex -23.803115913569826 -22.5 9.999999999999998
  endloop
endfacet
facet normal -1.0 -2.5440049192302117e-18 -5.300688649708071e-16
  outer loop
    vertex -23.80311591356982 -22.5 0.0
    vertex -23.803115913569826 19.999999999999986 9.999999999999998
    vertex -23.803115913569826 -6.0 2.4999999999999996
  endloop
endfacet
facet normal -1.0 -2.5440049192302117e-18 -5.300688649708071e-16
  outer loop
    vertex -23.803115913569826 -6.0 2.4999999999999996
    vertex -23.803115913569826 19.999999999999986 9.999999999999998
    vertex -23.803115913569826 6.0 2.4999999999999996
  endloop
endfacet
facet normal -1.0 -2.5440049192302117e-18 -5.300688649708071e-16
  outer loop
    vertex -23.803115913569826 6.0 2.4999999999999996
    vertex -23.803115913569826 19.999999999999986 9.999999999999998
    vertex -23.80311591356982 6.0 0.0
  endloop
endfacet
facet normal -1.0 -2.5440049192302117e-18 -5.300688649708071e-16
  outer loop
    vertex -23.80311591356982 6.0 0.0
    vertex -23.803115913569826 19.999999999999986 9.999999999999998
    vertex -23.80311591356982 19.999999999999986 0.0
  endloop
endfacet
facet normal -1.0 -2.5440049192302117e-18 -5.300688649708071e-16
  outer loop
    vertex -23.80311591356982 -6.0 0.0
    vertex -23.80311591356982 -22.5 0.0
    vertex -23.803115913569826 -6.0 2.4999999999999996
  endloop
endfacet
facet normal 0.0 -1.0 0.0
  outer loop
    vertex 7.049107646430156 -22.5 9.999999999999998
    vertex -23.80311591356982 -22.5 0.0
    vertex 7.049107646430153 -22.5 0.0
  endloop
endfacet
facet normal 0.0 -1.0 0.0
  outer loop
    vertex -23.80311591356982 -22.5 0.0
    vertex 7.049107646430156 -22.5 9.999999999999998
    vertex -23.803115913569826 -22.5 9.999999999999998
  endloop
endfacet
facet normal 1.0 -1.2720024596151116e-18 -2.650344324854036e-16
  outer loop
    vertex 7.049107646430153 19.999999999999986 0.0
    vertex 7.049107646430156 6.0 2.4999999999999996
    vertex 7.049107646430153 6.0 0.0
  endloop
endfacet
facet normal 1.0 -1.2720024596151116e-18 -2.650344324854036e-16
  outer loop
    vertex 7.049107646430153 -6.0 0.0
    vertex 7.049107646430156 -22.5 9.999999999999998
    vertex 7.049107646430153 -22.5 0.0
  endloop
endfacet
facet normal 1.0 -1.2720024596151116e-18 -2.650344324854036e-16
  outer loop
    vertex 7.049107646430156 -22.5 9.999999999999998
    vertex 7.049107646430153 -6.0 0.0
    vertex 7.049107646430156 -6.0 2.4999999999999996
  endloop
endfacet
facet normal 1.0 -1.2720024596151116e-18 -2.650344324854036e-16
  outer loop
    vertex 7.049107646430156 -22.5 9.999999999999998
    vertex 7.049107646430156 -6.0 2.4999999999999996
    vertex 7.049107646430156 19.999999999999986 9.999999999999998
  endloop
endfacet
facet normal 1.0 -1.2720024596151116e-18 -2.650344324854036e-16
  outer loop
    vertex 7.049107646430156 19.999999999999986 9.999999999999998
    vertex 7.049107646430156 -6.0 2.4999999999999996
    vertex 7.049107646430156 6.0 2.4999999999999996
  endloop
endfacet
facet normal 1.0 -1.2720024596151116e-18 -2.650344324854036e-16
  outer loop
    vertex 7.049107646430156 19.999999999999986 9.999999999999998
    vertex 7.049107646430156 6.0 2.4999999999999996
    vertex 7.049107646430153 19.999999999999986 0.0
  endloop
endfacet
facet normal -0.0 1.0 -0.0
  outer loop
    vertex -23.80311591356982 19.999999999999986 0.0
    vertex -18.93902661356981 19.999999999999986 2.4999999999999996
    vertex 7.049107646430153 19.999999999999986 0.0
  endloop
endfacet
facet normal -0.0 1.0 -0.0
  outer loop
    vertex -18.93902661356981 19.999999999999986 2.4999999999999996
    vertex -23.80311591356982 19.999999999999986 0.0
    vertex -20.328766413569845 19.999999999999986 4.499999999999999
  endloop
endfacet
facet normal -0.0 1.0 -0.0
  outer loop
    vertex -20.328766413569845 19.999999999999986 4.499999999999999
    vertex -23.80311591356982 19.999999999999986 0.0
    vertex -23.803115913569826 19.999999999999986 9.999999999999998
  endloop
endfacet
facet normal -0.0 1.0 -0.0
  outer loop
    vertex -20.328766413569845 19.999999999999986 4.499999999999999
    vertex -23.803115913569826 19.999999999999986 9.999999999999998
    vertex -20.328766413569845 19.999999999999986 6.62
  endloop
endfacet
facet normal -0.0 1.0 -0.0
  outer loop
    vertex -20.328766413569845 19.999999999999986 6.62
    vertex -23.803115913569826 19.999999999999986 9.999999999999998
    vertex -18.93902661356981 19.999999999999986 7.619999999999999
  endloop
endfacet
facet normal -0.0 1.0 -0.0
  outer loop
    vertex -18.93902661356981 19.999999999999986 7.619999999999999
    vertex -23.803115913569826 19.999999999999986 9.999999999999998
    vertex -18.93902661356981 19.999999999999986 9.999999999999998
  endloop
endfacet
facet normal -0.0 1.0 -0.0
  outer loop
    vertex -18.93902661356981 19.999999999999986 4.499999999999999
    vertex -18.93902661356981 19.999999999999986 2.4999999999999996
    vertex -20.328766413569845 19.999999999999986 4.499999999999999
  endloop
endfacet
facet normal -0.0 1.0 -0.0
  outer loop
    vertex 7.049107646430153 19.999999999999986 0.0
    vertex 3.574759536169956 19.999999999999986 4.499999999999999
    vertex 7.049107646430156 19.999999999999986 9.999999999999998
  endloop
endfacet
facet normal -0.0 1.0 -0.0
  outer loop
    vertex 3.574759536169956 19.999999999999986 4.499999999999999
    vertex 7.049107646430153 19.999999999999986 0.0
    vertex 2.1850197361699615 19.999999999999986 2.4999999999999996
  endloop
endfacet
facet normal -0.0 1.0 -0.0
  outer loop
    vertex 2.1850197361699615 19.999999999999986 2.4999999999999996
    vertex 7.049107646430153 19.999999999999986 0.0
    vertex -18.93902661356981 19.999999999999986 2.4999999999999996
  endloop
endfacet
facet normal -0.0 1.0 -0.0
  outer loop
    vertex 3.574759536169956 19.999999999999986 4.499999999999999
    vertex 2.1850197361699615 19.999999999999986 2.4999999999999996
    vertex 2.1850197361699615 19.999999999999986 4.499999999999999
  endloop
endfacet
facet normal -0.0 1.0 -0.0
  outer loop
    vertex 7.049107646430156 19.999999999999986 9.999999999999998
    vertex 3.574759536169956 19.999999999999986 4.499999999999999
    vertex 3.574759536169956 19.999999999999986 6.62
  endloop
endfacet
facet normal -0.0 1.0 -0.0
  outer loop
    vertex 7.049107646430156 19.999999999999986 9.999999999999998
    vertex 3.574759536169956 19.999999999999986 6.62
    vertex 2.1850197361699615 19.999999999999986 7.619999999999999
  endloop
endfacet
facet normal -0.0 1.0 -0.0
  outer loop
    vertex 7.049107646430156 19.999999999999986 9.999999999999998
    vertex 2.1850197361699615 19.999999999999986 7.619999999999999
    vertex 2.1850197361699615 19.999999999999986 9.999999999999998
  endloop
endfacet
facet normal -0.0 -0.0 1.0
  outer loop
    vertex -23.803115913569826 -6.0 2.4999999999999996
    vertex -29.601666255089782 -5.938452 2.4999999999999996
    vertex -29.601666255089782 -6.0 2.4999999999999996
  endloop
endfacet
facet normal -0.0 -0.0 1.0
  outer loop
    vertex -29.601666255089782 -5.938452 2.4999999999999996
    vertex -23.803115913569826 -6.0 2.4999999999999996
    vertex -28.788969851062816 -2.85317 2.4999999999999996
  endloop
endfacet
facet normal -0.0 -0.0 1.0
  outer loop
    vertex -28.788969851062816 -2.85317 2.4999999999999996
    vertex -23.803115913569826 -6.0 2.4999999999999996
    vertex -27.473998052302797 -1.763355 2.4999999999999996
  endloop
endfacet
facet normal -0.0 -0.0 1.0
  outer loop
    vertex -27.473998052302797 -1.763355 2.4999999999999996
    vertex -23.803115913569826 -6.0 2.4999999999999996
    vertex -26.9717226575698 0.0 2.4999999999999996
  endloop
endfacet
facet normal -0.0 -0.0 1.0
  outer loop
    vertex -32.231609852609786 0.0 2.4999999999999996
    vertex -31.714536641901343 5.49464 2.4999999999999996
    vertex -33.164091421025134 4.414343 2.4999999999999996
  endloop
endfacet
facet normal -0.0 -0.0 1.0
  outer loop
    vertex -31.714536641901343 5.49464 2.4999999999999996
    vertex -32.231609852609786 0.0 2.4999999999999996
    vertex -31.729334457876732 1.763355 2.4999999999999996
  endloop
endfacet
facet normal -0.0 -0.0 1.0
  outer loop
    vertex -31.714536641901343 5.49464 2.4999999999999996
    vertex -31.729334457876732 1.763355 2.4999999999999996
    vertex -30.414362659116737 2.85317 2.4999999999999996
  endloop
endfacet
facet normal -0.0 -0.0 1.0
  outer loop
    vertex -31.714536641901343 5.49464 2.4999999999999996
    vertex -30.414362659116737 2.85317 2.4999999999999996
    vertex -30.03602773965617 5.979507 2.4999999999999996
  endloop
endfacet
facet normal -0.0 -0.0 1.0
  outer loop
    vertex -30.03602773965617 5.979507 2.4999999999999996
    vertex -30.414362659116737 2.85317 2.4999999999999996
    vertex -28.788969851062816 2.85317 2.4999999999999996
  endloop
endfacet
facet normal -0.0 -0.0 1.0
  outer loop
    vertex -30.03602773965617 5.979507 2.4999999999999996
    vertex -28.788969851062816 2.85317 2.4999999999999996
    vertex -29.601666255089782 5.938452 2.4999999999999996
  endloop
endfacet
facet normal -0.0 -0.0 1.0
  outer loop
    vertex -29.601666255089782 5.938452 2.4999999999999996
    vertex -28.788969851062816 2.85317 2.4999999999999996
    vertex -29.601666255089782 6.0 2.4999999999999996
  endloop
endfacet
facet normal -0.0 -0.0 1.0
  outer loop
    vertex -29.601666255089782 6.0 2.4999999999999996
    vertex -28.788969851062816 2.85317 2.4999999999999996
    vertex -23.803115913569826 6.0 2.4999999999999996
  endloop
endfacet
facet normal -0.0 -0.0 1.0
  outer loop
    vertex -23.803115913569826 6.0 2.4999999999999996
    vertex -28.788969851062816 2.85317 2.4999999999999996
    vertex -27.473998052302797 1.763355 2.4999999999999996
  endloop
endfacet
facet normal -0.0 -0.0 1.0
  outer loop
    vertex -23.803115913569826 6.0 2.4999999999999996
    vertex -27.473998052302797 1.763355 2.4999999999999996
    vertex -26.9717226575698 0.0 2.4999999999999996
  endloop
endfacet
facet normal -0.0 -0.0 1.0
  outer loop
    vertex -23.803115913569826 6.0 2.4999999999999996
    vertex -26.9717226575698 0.0 2.4999999999999996
    vertex -23.803115913569826 -6.0 2.4999999999999996
  endloop
endfacet
facet normal -0.0 -0.0 1.0
  outer loop
    vertex -34.22759677946892 -2.8556839999999997 2.4999999999999996
    vertex -34.789817355268106 0.9875678999999999 2.4999999999999996
    vertex -34.789817355268106 -0.9875678999999999 2.4999999999999996
  endloop
endfacet
facet normal -0.0 -0.0 1.0
  outer loop
    vertex -34.789817355268106 0.9875678999999999 2.4999999999999996
    vertex -34.22759677946892 -2.8556839999999997 2.4999999999999996
    vertex -34.22759677946892 2.8556839999999997 2.4999999999999996
  endloop
endfacet
facet normal -0.0 -0.0 1.0
  outer loop
    vertex -34.22759677946892 2.8556839999999997 2.4999999999999996
    vertex -34.22759677946892 -2.8556839999999997 2.4999999999999996
    vertex -33.164091421025134 -4.414343 2.4999999999999996
  endloop
endfacet
facet normal -0.0 -0.0 1.0
  outer loop
    vertex -34.22759677946892 2.8556839999999997 2.4999999999999996
    vertex -33.164091421025134 -4.414343 2.4999999999999996
    vertex -33.164091421025134 4.414343 2.4999999999999996
  endloop
endfacet
facet normal -0.0 -0.0 1.0
  outer loop
    vertex -33.164091421025134 4.414343 2.4999999999999996
    vertex -33.164091421025134 -4.414343 2.4999999999999996
    vertex -31.714536641901343 -5.49464 2.4999999999999996
  endloop
endfacet
facet normal -0.0 -0.0 1.0
  outer loop
    vertex -33.164091421025134 4.414343 2.4999999999999996
    vertex -31.714536641901343 -5.49464 2.4999999999999996
    vertex -32.231609852609786 0.0 2.4999999999999996
  endloop
endfacet
facet normal -0.0 -0.0 1.0
  outer loop
    vertex -32.231609852609786 0.0 2.4999999999999996
    vertex -31.714536641901343 -5.49464 2.4999999999999996
    vertex -31.729334457876732 -1.763355 2.4999999999999996
  endloop
endfacet
facet normal -0.0 -0.0 1.0
  outer loop
    vertex -31.729334457876732 -1.763355 2.4999999999999996
    vertex -31.714536641901343 -5.49464 2.4999999999999996
    vertex -30.414362659116737 -2.85317 2.4999999999999996
  endloop
endfacet
facet normal -0.0 -0.0 1.0
  outer loop
    vertex -30.414362659116737 -2.85317 2.4999999999999996
    vertex -31.714536641901343 -5.49464 2.4999999999999996
    vertex -30.03602773965617 -5.979507 2.4999999999999996
  endloop
endfacet
facet normal -0.0 -0.0 1.0
  outer loop
    vertex -30.414362659116737 -2.85317 2.4999999999999996
    vertex -30.03602773965617 -5.979507 2.4999999999999996
    vertex -28.788969851062816 -2.85317 2.4999999999999996
  endloop
endfacet
facet normal -0.0 -0.0 1.0
  outer loop
    vertex -28.788969851062816 -2.85317 2.4999999999999996
    vertex -30.03602773965617 -5.979507 2.4999999999999996
    vertex -29.601666255089782 -5.938452 2.4999999999999996
  endloop
endfacet
facet normal -0.0 1.0 -0.0
  outer loop
    vertex -29.601666255089782 6.0 2.4999999999999996
    vertex -23.80311591356982 6.0 0.0
    vertex -29.601666255089782 6.0 0.0
  endloop
endfacet
facet normal -0.0 1.0 -0.0
  outer loop
    vertex -23.80311591356982 6.0 0.0
    vertex -29.601666255089782 6.0 2.4999999999999996
    vertex -23.803115913569826 6.0 2.4999999999999996
  endloop
endfacet
facet normal 0.0 -1.0 0.0
  outer loop
    vertex -23.803115913569826 -6.0 2.4999999999999996
    vertex -29.601666255089782 -6.0 0.0
    vertex -23.80311591356982 -6.0 0.0
  endloop
endfacet
facet normal 0.0 -1.0 0.0
  outer loop
    vertex -29.601666255089782 -6.0 0.0
    vertex -23.803115913569826 -6.0 2.4999999999999996
    vertex -29.601666255089782 -6.0 2.4999999999999996
  endloop
endfacet
facet normal 0.0 0.0 -1.0
  outer loop
    vertex 7.049107646430153 6.0 0.0
    vertex 10.49544453651131 1.763355 0.0
    vertex 7.049107646430153 -6.0 0.0
  endloop
endfacet
facet normal 0.0 0.0 -1.0
  outer loop
    vertex 10.49544453651131 1.763355 0.0
    vertex 7.049107646430153 6.0 0.0
    vertex 12.55497878607015 6.0 0.0
  endloop
endfacet
facet normal 0.0 0.0 -1.0
  outer loop
    vertex 7.049107646430153 -6.0 0.0
    vertex 10.49544453651131 1.763355 0.0
    vertex 10.009253420430163 0.0 0.0
  endloop
endfacet
facet normal 0.0 0.0 -1.0
  outer loop
    vertex 10.49544453651131 1.763355 0.0
    vertex 12.55497878607015 6.0 0.0
    vertex 11.768307219331295 2.85317 0.0
  endloop
endfacet
facet normal 0.0 0.0 -1.0
  outer loop
    vertex 11.768307219331295 2.85317 0.0
    vertex 12.55497878607015 6.0 0.0
    vertex 12.55497878607015 5.938452 0.0
  endloop
endfacet
facet normal 0.0 0.0 -1.0
  outer loop
    vertex 11.768307219331295 2.85317 0.0
    vertex 12.55497878607015 5.938452 0.0
    vertex 13.341650352809008 2.85317 0.0
  endloop
endfacet
facet normal 0.0 0.0 -1.0
  outer loop
    vertex 13.341650352809008 2.85317 0.0
    vertex 12.55497878607015 5.938452 0.0
    vertex 12.975430787459246 5.979507 0.0
  endloop
endfacet
facet normal 0.0 0.0 -1.0
  outer loop
    vertex 13.341650352809008 2.85317 0.0
    vertex 12.975430787459246 5.979507 0.0
    vertex 14.600189087571664 5.49464 0.0
  endloop
endfacet
facet normal 0.0 0.0 -1.0
  outer loop
    vertex 13.341650352809008 2.85317 0.0
    vertex 14.600189087571664 5.49464 0.0
    vertex 14.614513035628997 1.763355 0.0
  endloop
endfacet
facet normal 0.0 0.0 -1.0
  outer loop
    vertex 14.614513035628997 1.763355 0.0
    vertex 14.600189087571664 5.49464 0.0
    vertex 16.003325023102676 4.414343 0.0
  endloop
endfacet
facet normal 0.0 0.0 -1.0
  outer loop
    vertex 14.614513035628997 1.763355 0.0
    vertex 16.003325023102676 4.414343 0.0
    vertex 15.100704151710158 0.0 0.0
  endloop
endfacet
facet normal 0.0 0.0 -1.0
  outer loop
    vertex 13.341650352809008 -2.85317 0.0
    vertex 12.55497878607015 -5.938452 0.0
    vertex 11.768307219331295 -2.85317 0.0
  endloop
endfacet
facet normal 0.0 0.0 -1.0
  outer loop
    vertex 12.55497878607015 -5.938452 0.0
    vertex 13.341650352809008 -2.85317 0.0
    vertex 12.975430787459246 -5.979507 0.0
  endloop
endfacet
facet normal 0.0 0.0 -1.0
  outer loop
    vertex 12.975430787459246 -5.979507 0.0
    vertex 13.341650352809008 -2.85317 0.0
    vertex 14.600189087571664 -5.49464 0.0
  endloop
endfacet
facet normal 0.0 0.0 -1.0
  outer loop
    vertex 14.600189087571664 -5.49464 0.0
    vertex 13.341650352809008 -2.85317 0.0
    vertex 14.614513035628997 -1.763355 0.0
  endloop
endfacet
facet normal 0.0 0.0 -1.0
  outer loop
    vertex 14.600189087571664 -5.49464 0.0
    vertex 14.614513035628997 -1.763355 0.0
    vertex 16.003325023102676 -4.414343 0.0
  endloop
endfacet
facet normal 0.0 0.0 -1.0
  outer loop
    vertex 16.003325023102676 -4.414343 0.0
    vertex 14.614513035628997 -1.763355 0.0
    vertex 15.100704151710158 0.0 0.0
  endloop
endfacet
facet normal 0.0 0.0 -1.0
  outer loop
    vertex 16.003325023102676 -4.414343 0.0
    vertex 15.100704151710158 0.0 0.0
    vertex 16.003325023102676 4.414343 0.0
  endloop
endfacet
facet normal 0.0 0.0 -1.0
  outer loop
    vertex 16.003325023102676 -4.414343 0.0
    vertex 16.003325023102676 4.414343 0.0
    vertex 17.032773932211423 2.8556839999999997 0.0
  endloop
endfacet
facet normal 0.0 0.0 -1.0
  outer loop
    vertex 16.003325023102676 -4.414343 0.0
    vertex 17.032773932211423 2.8556839999999997 0.0
    vertex 17.032773932211423 -2.8556839999999997 0.0
  endloop
endfacet
facet normal 0.0 0.0 -1.0
  outer loop
    vertex 17.032773932211423 -2.8556839999999997 0.0
    vertex 17.032773932211423 2.8556839999999997 0.0
    vertex 17.57699061512671 0.9875678999999999 0.0
  endloop
endfacet
facet normal 0.0 0.0 -1.0
  outer loop
    vertex 17.032773932211423 -2.8556839999999997 0.0
    vertex 17.57699061512671 0.9875678999999999 0.0
    vertex 17.57699061512671 -0.9875678999999999 0.0
  endloop
endfacet
facet normal 0.0 0.0 -1.0
  outer loop
    vertex 7.049107646430153 -6.0 0.0
    vertex 10.49544453651131 -1.763355 0.0
    vertex 12.55497878607015 -6.0 0.0
  endloop
endfacet
facet normal 0.0 0.0 -1.0
  outer loop
    vertex 10.49544453651131 -1.763355 0.0
    vertex 7.049107646430153 -6.0 0.0
    vertex 10.009253420430163 0.0 0.0
  endloop
endfacet
facet normal 0.0 0.0 -1.0
  outer loop
    vertex 12.55497878607015 -6.0 0.0
    vertex 10.49544453651131 -1.763355 0.0
    vertex 11.768307219331295 -2.85317 0.0
  endloop
endfacet
facet normal 0.0 0.0 -1.0
  outer loop
    vertex 12.55497878607015 -6.0 0.0
    vertex 11.768307219331295 -2.85317 0.0
    vertex 12.55497878607015 -5.938452 0.0
  endloop
endfacet
facet normal 0.0 0.0 -1.0
  outer loop
    vertex -23.80311591356982 6.0 0.0
    vertex -29.601666255089782 5.938452 0.0
    vertex -29.601666255089782 6.0 0.0
  endloop
endfacet
facet normal 0.0 0.0 -1.0
  outer loop
    vertex -29.601666255089782 5.938452 0.0
    vertex -23.80311591356982 6.0 0.0
    vertex -28.788969851062816 2.85317 0.0
  endloop
endfacet
facet normal 0.0 0.0 -1.0
  outer loop
    vertex -28.788969851062816 2.85317 0.0
    vertex -23.80311591356982 6.0 0.0
    vertex -27.473998052302797 1.763355 0.0
  endloop
endfacet
facet normal 0.0 0.0 -1.0
  outer loop
    vertex -27.473998052302797 1.763355 0.0
    vertex -23.80311591356982 6.0 0.0
    vertex -26.9717226575698 0.0 0.0
  endloop
endfacet
facet normal 0.0 0.0 -1.0
  outer loop
    vertex 7.049107646430153 19.999999999999986 0.0
    vertex -23.80311591356982 6.0 0.0
    vertex -23.80311591356982 19.999999999999986 0.0
  endloop
endfacet
facet normal 0.0 0.0 -1.0
  outer loop
    vertex -23.80311591356982 6.0 0.0
    vertex 7.049107646430153 19.999999999999986 0.0
    vertex -23.80311591356982 -6.0 0.0
  endloop
endfacet
facet normal 0.0 0.0 -1.0
  outer loop
    vertex -23.80311591356982 -6.0 0.0
    vertex 7.049107646430153 19.999999999999986 0.0
    vertex -23.80311591356982 -22.5 0.0
  endloop
endfacet
facet normal 0.0 0.0 -1.0
  outer loop
    vertex -23.80311591356982 -22.5 0.0
    vertex 7.049107646430153 19.999999999999986 0.0
    vertex 7.049107646430153 -22.5 0.0
  endloop
endfacet
facet normal 0.0 0.0 -1.0
  outer loop
    vertex 7.049107646430153 -22.5 0.0
    vertex 7.049107646430153 19.999999999999986 0.0
    vertex 7.049107646430153 6.0 0.0
  endloop
endfacet
facet normal 0.0 0.0 -1.0
  outer loop
    vertex 7.049107646430153 -22.5 0.0
    vertex 7.049107646430153 6.0 0.0
    vertex 7.049107646430153 -6.0 0.0
  endloop
endfacet
facet normal 0.0 0.0 -1.0
  outer loop
    vertex -32.231609852609786 0.0 0.0
    vertex -31.714536641901343 -5.49464 0.0
    vertex -33.164091421025134 -4.414343 0.0
  endloop
endfacet
facet normal 0.0 0.0 -1.0
  outer loop
    vertex -31.714536641901343 -5.49464 0.0
    vertex -32.231609852609786 0.0 0.0
    vertex -31.729334457876732 -1.763355 0.0
  endloop
endfacet
facet normal 0.0 0.0 -1.0
  outer loop
    vertex -31.714536641901343 -5.49464 0.0
    vertex -31.729334457876732 -1.763355 0.0
    vertex -30.414362659116737 -2.85317 0.0
  endloop
endfacet
facet normal 0.0 0.0 -1.0
  outer loop
    vertex -31.714536641901343 -5.49464 0.0
    vertex -30.414362659116737 -2.85317 0.0
    vertex -30.03602773965617 -5.979507 0.0
  endloop
endfacet
facet normal 0.0 0.0 -1.0
  outer loop
    vertex -30.03602773965617 -5.979507 0.0
    vertex -30.414362659116737 -2.85317 0.0
    vertex -28.788969851062816 -2.85317 0.0
  endloop
endfacet
facet normal 0.0 0.0 -1.0
  outer loop
    vertex -30.03602773965617 -5.979507 0.0
    vertex -28.788969851062816 -2.85317 0.0
    vertex -29.601666255089782 -5.938452 0.0
  endloop
endfacet
facet normal 0.0 0.0 -1.0
  outer loop
    vertex -29.601666255089782 -5.938452 0.0
    vertex -28.788969851062816 -2.85317 0.0
    vertex -29.601666255089782 -6.0 0.0
  endloop
endfacet
facet normal 0.0 0.0 -1.0
  outer loop
    vertex -29.601666255089782 -6.0 0.0
    vertex -28.788969851062816 -2.85317 0.0
    vertex -23.80311591356982 -6.0 0.0
  endloop
endfacet
facet normal 0.0 0.0 -1.0
  outer loop
    vertex -23.80311591356982 -6.0 0.0
    vertex -28.788969851062816 -2.85317 0.0
    vertex -27.473998052302797 -1.763355 0.0
  endloop
endfacet
facet normal 0.0 0.0 -1.0
  outer loop
    vertex -23.80311591356982 -6.0 0.0
    vertex -27.473998052302797 -1.763355 0.0
    vertex -26.9717226575698 0.0 0.0
  endloop
endfacet
facet normal 0.0 0.0 -1.0
  outer loop
    vertex -23.80311591356982 -6.0 0.0
    vertex -26.9717226575698 0.0 0.0
    vertex -23.80311591356982 6.0 0.0
  endloop
endfacet
facet normal 0.0 0.0 -1.0
  outer loop
    vertex -34.22759677946892 2.8556839999999997 0.0
    vertex -34.789817355268106 -0.9875678999999999 0.0
    vertex -34.789817355268106 0.9875678999999999 0.0
  endloop
endfacet
facet normal 0.0 0.0 -1.0
  outer loop
    vertex -34.789817355268106 -0.9875678999999999 0.0
    vertex -34.22759677946892 2.8556839999999997 0.0
    vertex -34.22759677946892 -2.8556839999999997 0.0
  endloop
endfacet
facet normal 0.0 0.0 -1.0
  outer loop
    vertex -34.22759677946892 -2.8556839999999997 0.0
    vertex -34.22759677946892 2.8556839999999997 0.0
    vertex -33.164091421025134 4.414343 0.0
  endloop
endfacet
facet normal 0.0 0.0 -1.0
  outer loop
    vertex -34.22759677946892 -2.8556839999999997 0.0
    vertex -33.164091421025134 4.414343 0.0
    vertex -33.164091421025134 -4.414343 0.0
  endloop
endfacet
facet normal 0.0 0.0 -1.0
  outer loop
    vertex -33.164091421025134 -4.414343 0.0
    vertex -33.164091421025134 4.414343 0.0
    vertex -31.714536641901343 5.49464 0.0
  endloop
endfacet
facet normal 0.0 0.0 -1.0
  outer loop
    vertex -33.164091421025134 -4.414343 0.0
    vertex -31.714536641901343 5.49464 0.0
    vertex -32.231609852609786 0.0 0.0
  endloop
endfacet
facet normal 0.0 0.0 -1.0
  outer loop
    vertex -32.231609852609786 0.0 0.0
    vertex -31.714536641901343 5.49464 0.0
    vertex -31.729334457876732 1.763355 0.0
  endloop
endfacet
facet normal 0.0 0.0 -1.0
  outer loop
    vertex -31.729334457876732 1.763355 0.0
    vertex -31.714536641901343 5.49464 0.0
    vertex -30.414362659116737 2.85317 0.0
  endloop
endfacet
facet normal 0.0 0.0 -1.0
  outer loop
    vertex -30.414362659116737 2.85317 0.0
    vertex -31.714536641901343 5.49464 0.0
    vertex -30.03602773965617 5.979507 0.0
  endloop
endfacet
facet normal 0.0 0.0 -1.0
  outer loop
    vertex -30.414362659116737 2.85317 0.0
    vertex -30.03602773965617 5.979507 0.0
    vertex -28.788969851062816 2.85317 0.0
  endloop
endfacet
facet normal 0.0 0.0 -1.0
  outer loop
    vertex -28.788969851062816 2.85317 0.0
    vertex -30.03602773965617 5.979507 0.0
    vertex -29.601666255089782 5.938452 0.0
  endloop
endfacet
facet normal -0.0 1.0 -0.0
  outer loop
    vertex 7.049107646430156 6.0 2.4999999999999996
    vertex 12.55497878607015 6.0 0.0
    vertex 7.049107646430153 6.0 0.0
  endloop
endfacet
facet normal -0.0 1.0 -0.0
  outer loop
    vertex 12.55497878607015 6.0 0.0
    vertex 7.049107646430156 6.0 2.4999999999999996
    vertex 12.55497878607015 6.0 2.4999999999999996
  endloop
endfacet
facet normal 0.0 -1.0 0.0
  outer loop
    vertex 12.55497878607015 -6.0 2.4999999999999996
    vertex 7.049107646430153 -6.0 0.0
    vertex 12.55497878607015 -6.0 0.0
  endloop
endfacet
facet normal 0.0 -1.0 0.0
  outer loop
    vertex 7.049107646430153 -6.0 0.0
    vertex 12.55497878607015 -6.0 2.4999999999999996
    vertex 7.049107646430156 -6.0 2.4999999999999996
  endloop
endfacet
facet normal -0.0 -0.0 1.0
  outer loop
    vertex 7.049107646430156 -6.0 2.4999999999999996
    vertex 10.49544453651131 -1.763355 2.4999999999999996
    vertex 7.049107646430156 6.0 2.4999999999999996
  endloop
endfacet
facet normal -0.0 -0.0 1.0
  outer loop
    vertex 10.49544453651131 -1.763355 2.4999999999999996
    vertex 7.049107646430156 -6.0 2.4999999999999996
    vertex 12.55497878607015 -6.0 2.4999999999999996
  endloop
endfacet
facet normal -0.0 -0.0 1.0
  outer loop
    vertex 7.049107646430156 6.0 2.4999999999999996
    vertex 10.49544453651131 -1.763355 2.4999999999999996
    vertex 10.009253420430163 0.0 2.4999999999999996
  endloop
endfacet
facet normal -0.0 -0.0 1.0
  outer loop
    vertex 10.49544453651131 -1.763355 2.4999999999999996
    vertex 12.55497878607015 -6.0 2.4999999999999996
    vertex 11.768307219331295 -2.85317 2.4999999999999996
  endloop
endfacet
facet normal -0.0 -0.0 1.0
  outer loop
    vertex 11.768307219331295 -2.85317 2.4999999999999996
    vertex 12.55497878607015 -6.0 2.4999999999999996
    vertex 12.55497878607015 -5.938452 2.4999999999999996
  endloop
endfacet
facet normal -0.0 -0.0 1.0
  outer loop
    vertex 11.768307219331295 -2.85317 2.4999999999999996
    vertex 12.55497878607015 -5.938452 2.4999999999999996
    vertex 13.341650352809008 -2.85317 2.4999999999999996
  endloop
endfacet
facet normal -0.0 -0.0 1.0
  outer loop
    vertex 13.341650352809008 -2.85317 2.4999999999999996
    vertex 12.55497878607015 -5.938452 2.4999999999999996
    vertex 12.975430787459246 -5.979507 2.4999999999999996
  endloop
endfacet
facet normal -0.0 -0.0 1.0
  outer loop
    vertex 13.341650352809008 -2.85317 2.4999999999999996
    vertex 12.975430787459246 -5.979507 2.4999999999999996
    vertex 14.600189087571664 -5.49464 2.4999999999999996
  endloop
endfacet
facet normal -0.0 -0.0 1.0
  outer loop
    vertex 13.341650352809008 -2.85317 2.4999999999999996
    vertex 14.600189087571664 -5.49464 2.4999999999999996
    vertex 14.614513035628997 -1.763355 2.4999999999999996
  endloop
endfacet
facet normal -0.0 -0.0 1.0
  outer loop
    vertex 14.614513035628997 -1.763355 2.4999999999999996
    vertex 14.600189087571664 -5.49464 2.4999999999999996
    vertex 16.003325023102676 -4.414343 2.4999999999999996
  endloop
endfacet
facet normal -0.0 -0.0 1.0
  outer loop
    vertex 14.614513035628997 -1.763355 2.4999999999999996
    vertex 16.003325023102676 -4.414343 2.4999999999999996
    vertex 15.100704151710158 0.0 2.4999999999999996
  endloop
endfacet
facet normal -0.0 -0.0 1.0
  outer loop
    vertex 13.341650352809008 2.85317 2.4999999999999996
    vertex 12.55497878607015 5.938452 2.4999999999999996
    vertex 11.768307219331295 2.85317 2.4999999999999996
  endloop
endfacet
facet normal -0.0 -0.0 1.0
  outer loop
    vertex 12.55497878607015 5.938452 2.4999999999999996
    vertex 13.341650352809008 2.85317 2.4999999999999996
    vertex 12.975430787459246 5.979507 2.4999999999999996
  endloop
endfacet
facet normal -0.0 -0.0 1.0
  outer loop
    vertex 12.975430787459246 5.979507 2.4999999999999996
    vertex 13.341650352809008 2.85317 2.4999999999999996
    vertex 14.600189087571664 5.49464 2.4999999999999996
  endloop
endfacet
facet normal -0.0 -0.0 1.0
  outer loop
    vertex 14.600189087571664 5.49464 2.4999999999999996
    vertex 13.341650352809008 2.85317 2.4999999999999996
    vertex 14.614513035628997 1.763355 2.4999999999999996
  endloop
endfacet
facet normal -0.0 -0.0 1.0
  outer loop
    vertex 14.600189087571664 5.49464 2.4999999999999996
    vertex 14.614513035628997 1.763355 2.4999999999999996
    vertex 16.003325023102676 4.414343 2.4999999999999996
  endloop
endfacet
facet normal -0.0 -0.0 1.0
  outer loop
    vertex 16.003325023102676 4.414343 2.4999999999999996
    vertex 14.614513035628997 1.763355 2.4999999999999996
    vertex 15.100704151710158 0.0 2.4999999999999996
  endloop
endfacet
facet normal -0.0 -0.0 1.0
  outer loop
    vertex 16.003325023102676 4.414343 2.4999999999999996
    vertex 15.100704151710158 0.0 2.4999999999999996
    vertex 16.003325023102676 -4.414343 2.4999999999999996
  endloop
endfacet
facet normal -0.0 -0.0 1.0
  outer loop
    vertex 16.003325023102676 4.414343 2.4999999999999996
    vertex 16.003325023102676 -4.414343 2.4999999999999996
    vertex 17.032773932211423 -2.8556839999999997 2.4999999999999996
  endloop
endfacet
facet normal -0.0 -0.0 1.0
  outer loop
    vertex 16.003325023102676 4.414343 2.4999999999999996
    vertex 17.032773932211423 -2.8556839999999997 2.4999999999999996
    vertex 17.032773932211423 2.8556839999999997 2.4999999999999996
  endloop
endfacet
facet normal -0.0 -0.0 1.0
  outer loop
    vertex 17.032773932211423 2.8556839999999997 2.4999999999999996
    vertex 17.032773932211423 -2.8556839999999997 2.4999999999999996
    vertex 17.57699061512671 -0.9875678999999999 2.4999999999999996
  endloop
endfacet
facet normal -0.0 -0.0 1.0
  outer loop
    vertex 17.032773932211423 2.8556839999999997 2.4999999999999996
    vertex 17.57699061512671 -0.9875678999999999 2.4999999999999996
    vertex 17.57699061512671 0.9875678999999999 2.4999999999999996
  endloop
endfacet
facet normal -0.0 -0.0 1.0
  outer loop
    vertex 7.049107646430156 6.0 2.4999999999999996
    vertex 10.49544453651131 1.763355 2.4999999999999996
    vertex 12.55497878607015 6.0 2.4999999999999996
  endloop
endfacet
facet normal -0.0 -0.0 1.0
  outer loop
    vertex 10.49544453651131 1.763355 2.4999999999999996
    vertex 7.049107646430156 6.0 2.4999999999999996
    vertex 10.009253420430163 0.0 2.4999999999999996
  endloop
endfacet
facet normal -0.0 -0.0 1.0
  outer loop
    vertex 12.55497878607015 6.0 2.4999999999999996
    vertex 10.49544453651131 1.763355 2.4999999999999996
    vertex 11.768307219331295 2.85317 2.4999999999999996
  endloop
endfacet
facet normal -0.0 -0.0 1.0
  outer loop
    vertex 12.55497878607015 6.0 2.4999999999999996
    vertex 11.768307219331295 2.85317 2.4999999999999996
    vertex 12.55497878607015 5.938452 2.4999999999999996
  endloop
endfacet
endsolid I2C - Temp Board
