solid pallet_32mm
facet normal 0.001043253880545823 7.75209088766348e-21 -0.9999994558105222
  outer loop
    vertex 3.810724901808673 9.8465667070084 1.0039755557049597
    vertex 0.0 5.700000000000011 0.9999999999999996
    vertex 0.0 9.846566707008392 0.9999999999999996
  endloop
endfacet
facet normal 0.001043253880545823 7.75209088766348e-21 -0.9999994558105222
  outer loop
    vertex 0.0 5.700000000000011 0.9999999999999996
    vertex 3.810724901808673 9.8465667070084 1.0039755557049597
    vertex 3.810724901808673 5.70000000000002 1.0039755557049597
  endloop
endfacet
facet normal 0.0 0.0 -1.0
  outer loop
    vertex 41.79999999999992 5.700000000000114 0.0
    vertex 0.0 0.0 0.0
    vertex 0.0 5.700000000000011 0.0
  endloop
endfacet
facet normal 0.0 0.0 -1.0
  outer loop
    vertex 0.0 0.0 0.0
    vertex 41.79999999999992 5.700000000000114 0.0
    vertex 41.800000000000054 7.613909502879257e-14 0.0
  endloop
endfacet
facet normal 0.0 -1.0 0.0
  outer loop
    vertex 3.810724901808673 3.739467176517049e-14 5.107951111409917
    vertex 0.010724901808669645 3.739467176517049e-14 1.00795111140992
    vertex 3.810724901808673 3.739467176517049e-14 1.00795111140992
  endloop
endfacet
facet normal 0.0 -1.0 0.0
  outer loop
    vertex 0.010724901808669645 3.739467176517049e-14 1.00795111140992
    vertex 3.810724901808673 3.739467176517049e-14 5.107951111409917
    vertex 0.010724901808669645 3.739467176517049e-14 5.107951111409917
  endloop
endfacet
facet normal -0.0 -0.0 1.0
  outer loop
    vertex 3.810724901808673 3.739467176517049e-14 5.107951111409917
    vertex 0.010724901808669645 45.50000000000007 5.107951111409917
    vertex 0.010724901808669645 3.739467176517049e-14 5.107951111409917
  endloop
endfacet
facet normal -0.0 -0.0 1.0
  outer loop
    vertex 0.010724901808669645 45.50000000000007 5.107951111409917
    vertex 3.810724901808673 3.739467176517049e-14 5.107951111409917
    vertex 3.810724901808673 45.50000000000007 5.107951111409917
  endloop
endfacet
facet normal -0.0 1.0 -0.0
  outer loop
    vertex 0.010724901808669645 45.50000000000007 5.107951111409917
    vertex 3.810724901808673 45.50000000000007 1.00795111140992
    vertex 0.010724901808669645 45.50000000000007 1.00795111140992
  endloop
endfacet
facet normal -0.0 1.0 -0.0
  outer loop
    vertex 3.810724901808673 45.50000000000007 1.00795111140992
    vertex 0.010724901808669645 45.50000000000007 5.107951111409917
    vertex 3.810724901808673 45.50000000000007 5.107951111409917
  endloop
endfacet
facet normal 1.0 -0.0 -0.0
  outer loop
    vertex 3.810724901808673 5.70000000000002 1.0039755557049597
    vertex 3.810724901808673 3.739467176517049e-14 5.107951111409917
    vertex 3.810724901808673 3.739467176517049e-14 1.00795111140992
  endloop
endfacet
facet normal 1.0 -0.0 -0.0
  outer loop
    vertex 3.810724901808673 3.739467176517049e-14 5.107951111409917
    vertex 3.810724901808673 5.70000000000002 1.0039755557049597
    vertex 3.810724901808673 45.50000000000007 5.107951111409917
  endloop
endfacet
facet normal 1.0 -0.0 -0.0
  outer loop
    vertex 3.810724901808673 45.50000000000007 5.107951111409917
    vertex 3.810724901808673 5.70000000000002 1.0039755557049597
    vertex 3.810724901808673 9.8465667070084 1.0039755557049597
  endloop
endfacet
facet normal 1.0 -0.0 -0.0
  outer loop
    vertex 3.810724901808673 45.50000000000007 5.107951111409917
    vertex 3.810724901808673 9.8465667070084 1.0039755557049597
    vertex 3.810724901808673 15.546566707008413 1.0039755557049597
  endloop
endfacet
facet normal 1.0 -0.0 -0.0
  outer loop
    vertex 3.810724901808673 45.50000000000007 5.107951111409917
    vertex 3.810724901808673 15.546566707008413 1.0039755557049597
    vertex 3.810724901808673 19.969926044134752 1.0039755557049597
  endloop
endfacet
facet normal 1.0 -0.0 -0.0
  outer loop
    vertex 3.810724901808673 45.50000000000007 5.107951111409917
    vertex 3.810724901808673 19.969926044134752 1.0039755557049597
    vertex 3.810724901808673 25.669926044134762 1.0039755557049597
  endloop
endfacet
facet normal 1.0 -0.0 -0.0
  outer loop
    vertex 3.810724901808673 45.50000000000007 5.107951111409917
    vertex 3.810724901808673 25.669926044134762 1.0039755557049597
    vertex 3.810724901808673 29.972146291259723 1.0039755557049597
  endloop
endfacet
facet normal 1.0 -0.0 -0.0
  outer loop
    vertex 3.810724901808673 45.50000000000007 5.107951111409917
    vertex 3.810724901808673 29.972146291259723 1.0039755557049597
    vertex 3.810724901808673 35.67214629125972 1.0039755557049597
  endloop
endfacet
facet normal 1.0 -0.0 -0.0
  outer loop
    vertex 3.810724901808673 45.50000000000007 5.107951111409917
    vertex 3.810724901808673 35.67214629125972 1.0039755557049597
    vertex 3.810724901808673 39.9846931439089 1.0039755557049597
  endloop
endfacet
facet normal 1.0 -0.0 -0.0
  outer loop
    vertex 3.810724901808673 45.50000000000007 5.107951111409917
    vertex 3.810724901808673 39.9846931439089 1.0039755557049597
    vertex 3.810724901808673 45.50000000000007 1.00795111140992
  endloop
endfacet
facet normal 2.8464819681997004e-15 -1.0 -2.7241206491027733e-15
  outer loop
    vertex 41.85992536113955 3.739467176517049e-14 5.099999999999998
    vertex 41.800000000000054 7.613909502879257e-14 0.9999999999999996
    vertex 41.85992536113955 3.739467176517049e-14 0.9999999999999996
  endloop
endfacet
facet normal 2.8464819681997004e-15 -1.0 -2.7241206491027733e-15
  outer loop
    vertex 41.800000000000054 7.613909502879257e-14 0.9999999999999996
    vertex 41.85992536113955 3.739467176517049e-14 5.099999999999998
    vertex 38.05992536113955 3.739467176517049e-14 0.9999999999999996
  endloop
endfacet
facet normal 2.8464819681997004e-15 -1.0 -2.7241206491027733e-15
  outer loop
    vertex 38.05992536113955 3.739467176517049e-14 0.9999999999999996
    vertex 41.85992536113955 3.739467176517049e-14 5.099999999999998
    vertex 38.05992536113955 3.739467176517049e-14 5.099999999999998
  endloop
endfacet
facet normal -1.0 0.0 0.0
  outer loop
    vertex 38.05992536113955 45.50000000000007 5.099999999999998
    vertex 38.05992536113955 3.739467176517049e-14 0.9999999999999996
    vertex 38.05992536113955 3.739467176517049e-14 5.099999999999998
  endloop
endfacet
facet normal -1.0 0.0 0.0
  outer loop
    vertex 38.05992536113955 3.739467176517049e-14 0.9999999999999996
    vertex 38.05992536113955 45.50000000000007 5.099999999999998
    vertex 38.05992536113955 5.700000000000107 0.9999999999999996
  endloop
endfacet
facet normal -1.0 0.0 0.0
  outer loop
    vertex 38.05992536113955 5.700000000000107 0.9999999999999996
    vertex 38.05992536113955 45.50000000000007 5.099999999999998
    vertex 38.05992536113955 9.846566707008465 0.9999999999999996
  endloop
endfacet
facet normal -1.0 0.0 0.0
  outer loop
    vertex 38.05992536113955 9.846566707008465 0.9999999999999996
    vertex 38.05992536113955 45.50000000000007 5.099999999999998
    vertex 38.05992536113955 15.546566707008516 0.9999999999999996
  endloop
endfacet
facet normal -1.0 0.0 0.0
  outer loop
    vertex 38.05992536113955 15.546566707008516 0.9999999999999996
    vertex 38.05992536113955 45.50000000000007 5.099999999999998
    vertex 38.05992536113955 19.969926044134816 0.9999999999999996
  endloop
endfacet
facet normal -1.0 0.0 0.0
  outer loop
    vertex 38.05992536113955 19.969926044134816 0.9999999999999996
    vertex 38.05992536113955 45.50000000000007 5.099999999999998
    vertex 38.05992536113955 25.66992604413485 0.9999999999999996
  endloop
endfacet
facet normal -1.0 0.0 0.0
  outer loop
    vertex 38.05992536113955 25.66992604413485 0.9999999999999996
    vertex 38.05992536113955 45.50000000000007 5.099999999999998
    vertex 38.05992536113955 29.97214629125978 0.9999999999999996
  endloop
endfacet
facet normal -1.0 0.0 0.0
  outer loop
    vertex 38.05992536113955 29.97214629125978 0.9999999999999996
    vertex 38.05992536113955 45.50000000000007 5.099999999999998
    vertex 38.05992536113955 35.672146291259814 0.9999999999999996
  endloop
endfacet
facet normal -1.0 0.0 0.0
  outer loop
    vertex 38.05992536113955 35.672146291259814 0.9999999999999996
    vertex 38.05992536113955 45.50000000000007 5.099999999999998
    vertex 38.05992536113955 39.98469314390896 0.9999999999999996
  endloop
endfacet
facet normal -1.0 0.0 0.0
  outer loop
    vertex 38.05992536113955 39.98469314390896 0.9999999999999996
    vertex 38.05992536113955 45.50000000000007 5.099999999999998
    vertex 38.05992536113955 45.50000000000007 0.9999999999999996
  endloop
endfacet
facet normal -0.0 -0.0 1.0
  outer loop
    vertex 41.85992536113955 3.739467176517049e-14 5.099999999999998
    vertex 38.05992536113955 45.50000000000007 5.099999999999998
    vertex 38.05992536113955 3.739467176517049e-14 5.099999999999998
  endloop
endfacet
facet normal -0.0 -0.0 1.0
  outer loop
    vertex 38.05992536113955 45.50000000000007 5.099999999999998
    vertex 41.85992536113955 3.739467176517049e-14 5.099999999999998
    vertex 41.85992536113955 45.50000000000007 5.099999999999998
  endloop
endfacet
facet normal 1.0 9.011248614117323e-18 2.753322334393148e-16
  outer loop
    vertex 22.909288317657506 5.700000000000067 1.0050252277366025
    vertex 22.909288317657502 3.739467176517049e-14 5.110050455473204
    vertex 22.909288317657502 3.739467176517049e-14 1.0100504554732057
  endloop
endfacet
facet normal 1.0 9.011248614117323e-18 2.753322334393148e-16
  outer loop
    vertex 22.909288317657502 3.739467176517049e-14 5.110050455473204
    vertex 22.909288317657506 5.700000000000067 1.0050252277366025
    vertex 22.909288317657502 45.50000000000007 5.110050455473204
  endloop
endfacet
facet normal 1.0 9.011248614117323e-18 2.753322334393148e-16
  outer loop
    vertex 22.909288317657502 45.50000000000007 5.110050455473204
    vertex 22.909288317657506 5.700000000000067 1.0050252277366025
    vertex 22.909288317657502 9.846566707008439 1.0050252277366025
  endloop
endfacet
facet normal 1.0 9.011248614117323e-18 2.753322334393148e-16
  outer loop
    vertex 22.909288317657502 45.50000000000007 5.110050455473204
    vertex 22.909288317657502 9.846566707008439 1.0050252277366025
    vertex 22.909288317657506 15.54656670700847 1.0050252277366025
  endloop
endfacet
facet normal 1.0 9.011248614117323e-18 2.753322334393148e-16
  outer loop
    vertex 22.909288317657502 45.50000000000007 5.110050455473204
    vertex 22.909288317657506 15.54656670700847 1.0050252277366025
    vertex 22.909288317657502 19.969926044134787 1.0050252277366025
  endloop
endfacet
facet normal 1.0 9.011248614117323e-18 2.753322334393148e-16
  outer loop
    vertex 22.909288317657502 45.50000000000007 5.110050455473204
    vertex 22.909288317657502 19.969926044134787 1.0050252277366025
    vertex 22.909288317657506 25.669926044134804 1.0050252277366025
  endloop
endfacet
facet normal 1.0 9.011248614117323e-18 2.753322334393148e-16
  outer loop
    vertex 22.909288317657502 45.50000000000007 5.110050455473204
    vertex 22.909288317657506 25.669926044134804 1.0050252277366025
    vertex 22.909288317657506 29.972146291259758 1.0050252277366025
  endloop
endfacet
facet normal 1.0 9.011248614117323e-18 2.753322334393148e-16
  outer loop
    vertex 22.909288317657502 45.50000000000007 5.110050455473204
    vertex 22.909288317657506 29.972146291259758 1.0050252277366025
    vertex 22.909288317657502 35.67214629125978 1.0050252277366025
  endloop
endfacet
facet normal 1.0 9.011248614117323e-18 2.753322334393148e-16
  outer loop
    vertex 22.909288317657502 45.50000000000007 5.110050455473204
    vertex 22.909288317657502 35.67214629125978 1.0050252277366025
    vertex 22.909288317657506 39.984693143908935 1.0050252277366025
  endloop
endfacet
facet normal 1.0 9.011248614117323e-18 2.753322334393148e-16
  outer loop
    vertex 22.909288317657502 45.50000000000007 5.110050455473204
    vertex 22.909288317657506 39.984693143908935 1.0050252277366025
    vertex 22.909288317657502 45.50000000000007 1.0100504554732057
  endloop
endfacet
facet normal 0.0 0.0 -1.0
  outer loop
    vertex 19.109288317657505 39.98469314390892 1.0050252277366025
    vertex 22.909288317657502 35.67214629125978 1.0050252277366025
    vertex 19.1092883176575 35.672146291259764 1.0050252277366025
  endloop
endfacet
facet normal 0.0 0.0 -1.0
  outer loop
    vertex 22.909288317657502 35.67214629125978 1.0050252277366025
    vertex 19.109288317657505 39.98469314390892 1.0050252277366025
    vertex 22.909288317657506 39.984693143908935 1.0050252277366025
  endloop
endfacet
facet normal 0.0 -1.0 0.0
  outer loop
    vertex 22.909288317657502 3.739467176517049e-14 5.110050455473204
    vertex 19.109288317657505 3.739467176517049e-14 1.0100504554732057
    vertex 22.909288317657502 3.739467176517049e-14 1.0100504554732057
  endloop
endfacet
facet normal 0.0 -1.0 0.0
  outer loop
    vertex 19.109288317657505 3.739467176517049e-14 1.0100504554732057
    vertex 22.909288317657502 3.739467176517049e-14 5.110050455473204
    vertex 19.109288317657505 3.739467176517049e-14 5.110050455473204
  endloop
endfacet
facet normal -1.0 -9.125405502211051e-18 1.3754571567026498e-16
  outer loop
    vertex 19.109288317657505 45.50000000000007 5.110050455473204
    vertex 19.109288317657505 3.739467176517049e-14 1.0100504554732057
    vertex 19.109288317657505 3.739467176517049e-14 5.110050455473204
  endloop
endfacet
facet normal -1.0 -9.125405502211051e-18 1.3754571567026498e-16
  outer loop
    vertex 19.109288317657505 3.739467176517049e-14 1.0100504554732057
    vertex 19.109288317657505 45.50000000000007 5.110050455473204
    vertex 19.109288317657505 5.700000000000057 1.0050252277366025
  endloop
endfacet
facet normal -1.0 -9.125405502211051e-18 1.3754571567026498e-16
  outer loop
    vertex 19.109288317657505 5.700000000000057 1.0050252277366025
    vertex 19.109288317657505 45.50000000000007 5.110050455473204
    vertex 19.109288317657505 9.846566707008424 1.0050252277366025
  endloop
endfacet
facet normal -1.0 -9.125405502211051e-18 1.3754571567026498e-16
  outer loop
    vertex 19.109288317657505 9.846566707008424 1.0050252277366025
    vertex 19.109288317657505 45.50000000000007 5.110050455473204
    vertex 19.109288317657505 15.54656670700846 1.0050252277366025
  endloop
endfacet
facet normal -1.0 -9.125405502211051e-18 1.3754571567026498e-16
  outer loop
    vertex 19.109288317657505 15.54656670700846 1.0050252277366025
    vertex 19.109288317657505 45.50000000000007 5.110050455473204
    vertex 19.1092883176575 19.969926044134777 1.0050252277366025
  endloop
endfacet
facet normal -1.0 -9.125405502211051e-18 1.3754571567026498e-16
  outer loop
    vertex 19.1092883176575 19.969926044134777 1.0050252277366025
    vertex 19.109288317657505 45.50000000000007 5.110050455473204
    vertex 19.109288317657505 25.669926044134804 1.0050252277366025
  endloop
endfacet
facet normal -1.0 -9.125405502211051e-18 1.3754571567026498e-16
  outer loop
    vertex 19.109288317657505 25.669926044134804 1.0050252277366025
    vertex 19.109288317657505 45.50000000000007 5.110050455473204
    vertex 19.109288317657505 29.972146291259744 1.0050252277366025
  endloop
endfacet
facet normal -1.0 -9.125405502211051e-18 1.3754571567026498e-16
  outer loop
    vertex 19.109288317657505 29.972146291259744 1.0050252277366025
    vertex 19.109288317657505 45.50000000000007 5.110050455473204
    vertex 19.1092883176575 35.672146291259764 1.0050252277366025
  endloop
endfacet
facet normal -1.0 -9.125405502211051e-18 1.3754571567026498e-16
  outer loop
    vertex 19.1092883176575 35.672146291259764 1.0050252277366025
    vertex 19.109288317657505 45.50000000000007 5.110050455473204
    vertex 19.109288317657505 39.98469314390892 1.0050252277366025
  endloop
endfacet
facet normal -1.0 -9.125405502211051e-18 1.3754571567026498e-16
  outer loop
    vertex 19.109288317657505 39.98469314390892 1.0050252277366025
    vertex 19.109288317657505 45.50000000000007 5.110050455473204
    vertex 19.109288317657505 45.50000000000007 1.0100504554732057
  endloop
endfacet
facet normal -0.0 -0.0 1.0
  outer loop
    vertex 22.909288317657502 3.739467176517049e-14 5.110050455473204
    vertex 19.109288317657505 45.50000000000007 5.110050455473204
    vertex 19.109288317657505 3.739467176517049e-14 5.110050455473204
  endloop
endfacet
facet normal -0.0 -0.0 1.0
  outer loop
    vertex 19.109288317657505 45.50000000000007 5.110050455473204
    vertex 22.909288317657502 3.739467176517049e-14 5.110050455473204
    vertex 22.909288317657502 45.50000000000007 5.110050455473204
  endloop
endfacet
facet normal -1.0 0.0 0.0
  outer loop
    vertex 0.0 25.669926044134755 0.9999999999999996
    vertex 0.0 19.969926044134745 0.0
    vertex 0.0 19.969926044134745 0.9999999999999996
  endloop
endfacet
facet normal -1.0 0.0 0.0
  outer loop
    vertex 0.0 19.969926044134745 0.0
    vertex 0.0 25.669926044134755 0.9999999999999996
    vertex 0.0 25.669926044134755 0.0
  endloop
endfacet
facet normal 0.0 0.0 -1.0
  outer loop
    vertex 41.85992536113942 25.66992604413485 0.0
    vertex 0.0 19.969926044134745 0.0
    vertex 0.0 25.669926044134755 0.0
  endloop
endfacet
facet normal 0.0 0.0 -1.0
  outer loop
    vertex 0.0 19.969926044134745 0.0
    vertex 41.85992536113942 25.66992604413485 0.0
    vertex 41.85992536113955 19.96992604413483 0.0
  endloop
endfacet
facet normal 0.0 0.0 -1.0
  outer loop
    vertex 41.799999999999926 45.68469314390901 0.0
    vertex 0.0 39.984693143908885 0.0
    vertex 0.0 45.6846931439089 0.0
  endloop
endfacet
facet normal 0.0 0.0 -1.0
  outer loop
    vertex 0.0 39.984693143908885 0.0
    vertex 41.799999999999926 45.68469314390901 0.0
    vertex 41.80000000000006 39.98469314390897 0.0
  endloop
endfacet
facet normal -4.452578656654584e-16 1.0 0.0
  outer loop
    vertex 0.0 45.6846931439089 0.9999999999999996
    vertex 41.799999999999926 45.68469314390901 0.0
    vertex 0.0 45.6846931439089 0.0
  endloop
endfacet
facet normal -4.452578656654584e-16 1.0 0.0
  outer loop
    vertex 41.799999999999926 45.68469314390901 0.0
    vertex 0.0 45.6846931439089 0.9999999999999996
    vertex 41.799999999999926 45.68469314390901 0.9999999999999996
  endloop
endfacet
facet normal -1.0 0.0 0.0
  outer loop
    vertex 0.0 35.672146291259715 0.9999999999999996
    vertex 0.0 29.972146291259712 0.0
    vertex 0.0 29.972146291259712 0.9999999999999996
  endloop
endfacet
facet normal -1.0 0.0 0.0
  outer loop
    vertex 0.0 29.972146291259712 0.0
    vertex 0.0 35.672146291259715 0.9999999999999996
    vertex 0.0 35.672146291259715 0.0
  endloop
endfacet
facet normal 0.0 0.0 -1.0
  outer loop
    vertex 41.799999999999926 35.67214629125983 0.0
    vertex 0.0 29.972146291259712 0.0
    vertex 0.0 35.672146291259715 0.0
  endloop
endfacet
facet normal 0.0 0.0 -1.0
  outer loop
    vertex 0.0 29.972146291259712 0.0
    vertex 41.799999999999926 35.67214629125983 0.0
    vertex 41.80000000000006 29.97214629125979 0.0
  endloop
endfacet
facet normal -1.0 0.0 0.0
  outer loop
    vertex 0.0 15.546566707008402 0.9999999999999996
    vertex 0.0 9.846566707008392 0.0
    vertex 0.0 9.846566707008392 0.9999999999999996
  endloop
endfacet
facet normal -1.0 0.0 0.0
  outer loop
    vertex 0.0 9.846566707008392 0.0
    vertex 0.0 15.546566707008402 0.9999999999999996
    vertex 0.0 15.546566707008402 0.0
  endloop
endfacet
facet normal 0.0 0.0 -1.0
  outer loop
    vertex 41.79999999999992 15.546566707008523 0.0
    vertex 0.0 9.846566707008392 0.0
    vertex 0.0 15.546566707008402 0.0
  endloop
endfacet
facet normal 0.0 0.0 -1.0
  outer loop
    vertex 0.0 9.846566707008392 0.0
    vertex 41.79999999999992 15.546566707008523 0.0
    vertex 41.800000000000054 9.846566707008474 0.0
  endloop
endfacet
facet normal 1.9918364446357836e-15 -1.0 -3.3525897109303356e-15
  outer loop
    vertex 41.85992536113955 19.96992604413483 0.9999999999999996
    vertex 0.0 19.969926044134745 0.0
    vertex 41.85992536113955 19.96992604413483 0.0
  endloop
endfacet
facet normal 1.9918364446357836e-15 -1.0 -3.3525897109303356e-15
  outer loop
    vertex 0.0 19.969926044134745 0.0
    vertex 41.85992536113955 19.96992604413483 0.9999999999999996
    vertex 0.0 19.969926044134745 0.9999999999999996
  endloop
endfacet
facet normal 1.9918364446357836e-15 -1.0 -3.3525897109303356e-15
  outer loop
    vertex 0.0 19.969926044134745 0.9999999999999996
    vertex 41.85992536113955 19.96992604413483 0.9999999999999996
    vertex 38.05992536113955 19.969926044134816 0.9999999999999996
  endloop
endfacet
facet normal 1.9918364446357836e-15 -1.0 -3.3525897109303356e-15
  outer loop
    vertex 0.0 19.969926044134745 0.9999999999999996
    vertex 38.05992536113955 19.969926044134816 0.9999999999999996
    vertex 22.909288317657502 19.969926044134787 1.0050252277366025
  endloop
endfacet
facet normal 1.9918364446357836e-15 -1.0 -3.3525897109303356e-15
  outer loop
    vertex 0.0 19.969926044134745 0.9999999999999996
    vertex 22.909288317657502 19.969926044134787 1.0050252277366025
    vertex 3.810724901808673 19.969926044134752 1.0039755557049597
  endloop
endfacet
facet normal 1.9918364446357836e-15 -1.0 -3.3525897109303356e-15
  outer loop
    vertex 3.810724901808673 19.969926044134752 1.0039755557049597
    vertex 22.909288317657502 19.969926044134787 1.0050252277366025
    vertex 19.1092883176575 19.969926044134777 1.0050252277366025
  endloop
endfacet
facet normal -2.3696096976056394e-15 1.0 -1.8049216169534975e-15
  outer loop
    vertex 3.810724901808673 25.669926044134762 1.0039755557049597
    vertex 38.05992536113955 25.66992604413485 0.9999999999999996
    vertex 0.0 25.669926044134755 0.9999999999999996
  endloop
endfacet
facet normal -2.3696096976056394e-15 1.0 -1.8049216169534975e-15
  outer loop
    vertex 38.05992536113955 25.66992604413485 0.9999999999999996
    vertex 3.810724901808673 25.669926044134762 1.0039755557049597
    vertex 22.909288317657506 25.669926044134804 1.0050252277366025
  endloop
endfacet
facet normal -2.3696096976056394e-15 1.0 -1.8049216169534975e-15
  outer loop
    vertex 22.909288317657506 25.669926044134804 1.0050252277366025
    vertex 3.810724901808673 25.669926044134762 1.0039755557049597
    vertex 19.109288317657505 25.669926044134804 1.0050252277366025
  endloop
endfacet
facet normal -2.3696096976056394e-15 1.0 -1.8049216169534975e-15
  outer loop
    vertex 0.0 25.669926044134755 0.9999999999999996
    vertex 41.85992536113942 25.66992604413485 0.0
    vertex 0.0 25.669926044134755 0.0
  endloop
endfacet
facet normal -2.3696096976056394e-15 1.0 -1.8049216169534975e-15
  outer loop
    vertex 41.85992536113942 25.66992604413485 0.0
    vertex 0.0 25.669926044134755 0.9999999999999996
    vertex 41.85992536113942 25.66992604413485 0.9999999999999996
  endloop
endfacet
facet normal -2.3696096976056394e-15 1.0 -1.8049216169534975e-15
  outer loop
    vertex 41.85992536113942 25.66992604413485 0.9999999999999996
    vertex 0.0 25.669926044134755 0.9999999999999996
    vertex 38.05992536113955 25.66992604413485 0.9999999999999996
  endloop
endfacet
facet normal 1.956354232506753e-15 -1.0 -8.018782191543773e-16
  outer loop
    vertex 41.800000000000054 9.846566707008474 0.9999999999999996
    vertex 0.0 9.846566707008392 0.0
    vertex 41.800000000000054 9.846566707008474 0.0
  endloop
endfacet
facet normal 1.956354232506753e-15 -1.0 -8.018782191543773e-16
  outer loop
    vertex 0.0 9.846566707008392 0.0
    vertex 41.800000000000054 9.846566707008474 0.9999999999999996
    vertex 0.0 9.846566707008392 0.9999999999999996
  endloop
endfacet
facet normal 1.956354232506753e-15 -1.0 -8.018782191543773e-16
  outer loop
    vertex 0.0 9.846566707008392 0.9999999999999996
    vertex 41.800000000000054 9.846566707008474 0.9999999999999996
    vertex 38.05992536113955 9.846566707008465 0.9999999999999996
  endloop
endfacet
facet normal 1.956354232506753e-15 -1.0 -8.018782191543773e-16
  outer loop
    vertex 0.0 9.846566707008392 0.9999999999999996
    vertex 38.05992536113955 9.846566707008465 0.9999999999999996
    vertex 22.909288317657502 9.846566707008439 1.0050252277366025
  endloop
endfacet
facet normal 1.956354232506753e-15 -1.0 -8.018782191543773e-16
  outer loop
    vertex 0.0 9.846566707008392 0.9999999999999996
    vertex 22.909288317657502 9.846566707008439 1.0050252277366025
    vertex 3.810724901808673 9.8465667070084 1.0039755557049597
  endloop
endfacet
facet normal 1.956354232506753e-15 -1.0 -8.018782191543773e-16
  outer loop
    vertex 3.810724901808673 9.8465667070084 1.0039755557049597
    vertex 22.909288317657502 9.846566707008439 1.0050252277366025
    vertex 19.109288317657505 9.846566707008424 1.0050252277366025
  endloop
endfacet
facet normal -2.917029961396981e-15 1.0 -7.9865053684981835e-16
  outer loop
    vertex 3.810724901808673 15.546566707008413 1.0039755557049597
    vertex 38.05992536113955 15.546566707008516 0.9999999999999996
    vertex 0.0 15.546566707008402 0.9999999999999996
  endloop
endfacet
facet normal -2.917029961396981e-15 1.0 -7.9865053684981835e-16
  outer loop
    vertex 38.05992536113955 15.546566707008516 0.9999999999999996
    vertex 3.810724901808673 15.546566707008413 1.0039755557049597
    vertex 22.909288317657506 15.54656670700847 1.0050252277366025
  endloop
endfacet
facet normal -2.917029961396981e-15 1.0 -7.9865053684981835e-16
  outer loop
    vertex 22.909288317657506 15.54656670700847 1.0050252277366025
    vertex 3.810724901808673 15.546566707008413 1.0039755557049597
    vertex 19.109288317657505 15.54656670700846 1.0050252277366025
  endloop
endfacet
facet normal -2.917029961396981e-15 1.0 -7.9865053684981835e-16
  outer loop
    vertex 0.0 15.546566707008402 0.9999999999999996
    vertex 41.79999999999992 15.546566707008523 0.0
    vertex 0.0 15.546566707008402 0.0
  endloop
endfacet
facet normal -2.917029961396981e-15 1.0 -7.9865053684981835e-16
  outer loop
    vertex 41.79999999999992 15.546566707008523 0.0
    vertex 0.0 15.546566707008402 0.9999999999999996
    vertex 41.79999999999992 15.546566707008523 0.9999999999999996
  endloop
endfacet
facet normal -2.917029961396981e-15 1.0 -7.9865053684981835e-16
  outer loop
    vertex 41.79999999999992 15.546566707008523 0.9999999999999996
    vertex 0.0 15.546566707008402 0.9999999999999996
    vertex 38.05992536113955 15.546566707008516 0.9999999999999996
  endloop
endfacet
facet normal 1.0 2.3747086168824224e-14 0.0
  outer loop
    vertex 41.79999999999992 15.546566707008523 0.0
    vertex 41.800000000000054 9.846566707008474 0.9999999999999996
    vertex 41.800000000000054 9.846566707008474 0.0
  endloop
endfacet
facet normal 1.0 2.3747086168824224e-14 0.0
  outer loop
    vertex 41.800000000000054 9.846566707008474 0.9999999999999996
    vertex 41.79999999999992 15.546566707008523 0.0
    vertex 41.79999999999992 15.546566707008523 0.9999999999999996
  endloop
endfacet
facet normal -2.6881246745867658e-15 1.0 -8.199652506642561e-16
  outer loop
    vertex 3.810724901808673 35.67214629125972 1.0039755557049597
    vertex 38.05992536113955 35.672146291259814 0.9999999999999996
    vertex 0.0 35.672146291259715 0.9999999999999996
  endloop
endfacet
facet normal -2.6881246745867658e-15 1.0 -8.199652506642561e-16
  outer loop
    vertex 38.05992536113955 35.672146291259814 0.9999999999999996
    vertex 3.810724901808673 35.67214629125972 1.0039755557049597
    vertex 22.909288317657502 35.67214629125978 1.0050252277366025
  endloop
endfacet
facet normal -2.6881246745867658e-15 1.0 -8.199652506642561e-16
  outer loop
    vertex 22.909288317657502 35.67214629125978 1.0050252277366025
    vertex 3.810724901808673 35.67214629125972 1.0039755557049597
    vertex 19.1092883176575 35.672146291259764 1.0050252277366025
  endloop
endfacet
facet normal -2.6881246745867658e-15 1.0 -8.199652506642561e-16
  outer loop
    vertex 0.0 35.672146291259715 0.9999999999999996
    vertex 41.799999999999926 35.67214629125983 0.0
    vertex 0.0 35.672146291259715 0.0
  endloop
endfacet
facet normal -2.6881246745867658e-15 1.0 -8.199652506642561e-16
  outer loop
    vertex 41.799999999999926 35.67214629125983 0.0
    vertex 0.0 35.672146291259715 0.9999999999999996
    vertex 41.799999999999926 35.67214629125983 0.9999999999999996
  endloop
endfacet
facet normal -2.6881246745867658e-15 1.0 -8.199652506642561e-16
  outer loop
    vertex 41.799999999999926 35.67214629125983 0.9999999999999996
    vertex 0.0 35.672146291259715 0.9999999999999996
    vertex 38.05992536113955 35.672146291259814 0.9999999999999996
  endloop
endfacet
facet normal -2.4802071467602854e-15 1.0 -2.2864007013117726e-16
  outer loop
    vertex 3.810724901808673 5.70000000000002 1.0039755557049597
    vertex 38.05992536113955 5.700000000000107 0.9999999999999996
    vertex 0.0 5.700000000000011 0.9999999999999996
  endloop
endfacet
facet normal -2.4802071467602854e-15 1.0 -2.2864007013117726e-16
  outer loop
    vertex 38.05992536113955 5.700000000000107 0.9999999999999996
    vertex 3.810724901808673 5.70000000000002 1.0039755557049597
    vertex 22.909288317657506 5.700000000000067 1.0050252277366025
  endloop
endfacet
facet normal -2.4802071467602854e-15 1.0 -2.2864007013117726e-16
  outer loop
    vertex 22.909288317657506 5.700000000000067 1.0050252277366025
    vertex 3.810724901808673 5.70000000000002 1.0039755557049597
    vertex 19.109288317657505 5.700000000000057 1.0050252277366025
  endloop
endfacet
facet normal -2.4802071467602854e-15 1.0 -2.2864007013117726e-16
  outer loop
    vertex 0.0 5.700000000000011 0.9999999999999996
    vertex 41.79999999999992 5.700000000000114 0.0
    vertex 0.0 5.700000000000011 0.0
  endloop
endfacet
facet normal -2.4802071467602854e-15 1.0 -2.2864007013117726e-16
  outer loop
    vertex 41.79999999999992 5.700000000000114 0.0
    vertex 0.0 5.700000000000011 0.9999999999999996
    vertex 41.79999999999992 5.700000000000114 0.9999999999999996
  endloop
endfacet
facet normal -2.4802071467602854e-15 1.0 -2.2864007013117726e-16
  outer loop
    vertex 41.79999999999992 5.700000000000114 0.9999999999999996
    vertex 0.0 5.700000000000011 0.9999999999999996
    vertex 38.05992536113955 5.700000000000107 0.9999999999999996
  endloop
endfacet
facet normal 1.0257766714857356e-15 -1.0 5.747268142371079e-15
  outer loop
    vertex 22.909288317657502 3.739467176517049e-14 1.0100504554732057
    vertex 3.810724901808673 3.739467176517049e-14 1.00795111140992
    vertex 38.05992536113955 3.739467176517049e-14 0.9999999999999996
  endloop
endfacet
facet normal 1.0257766714857356e-15 -1.0 5.747268142371079e-15
  outer loop
    vertex 3.810724901808673 3.739467176517049e-14 1.00795111140992
    vertex 22.909288317657502 3.739467176517049e-14 1.0100504554732057
    vertex 19.109288317657505 3.739467176517049e-14 1.0100504554732057
  endloop
endfacet
facet normal 1.0257766714857356e-15 -1.0 5.747268142371079e-15
  outer loop
    vertex 41.800000000000054 7.613909502879257e-14 0.9999999999999996
    vertex 0.0 0.0 0.0
    vertex 41.800000000000054 7.613909502879257e-14 0.0
  endloop
endfacet
facet normal 1.0257766714857356e-15 -1.0 5.747268142371079e-15
  outer loop
    vertex 0.0 0.0 0.0
    vertex 41.800000000000054 7.613909502879257e-14 0.9999999999999996
    vertex 38.05992536113955 3.739467176517049e-14 0.9999999999999996
  endloop
endfacet
facet normal 1.0257766714857356e-15 -1.0 5.747268142371079e-15
  outer loop
    vertex 0.0 0.0 0.0
    vertex 38.05992536113955 3.739467176517049e-14 0.9999999999999996
    vertex 0.010724901808669645 3.739467176517049e-14 1.00795111140992
  endloop
endfacet
facet normal 1.0257766714857356e-15 -1.0 5.747268142371079e-15
  outer loop
    vertex 0.010724901808669645 3.739467176517049e-14 1.00795111140992
    vertex 38.05992536113955 3.739467176517049e-14 0.9999999999999996
    vertex 3.810724901808673 3.739467176517049e-14 1.00795111140992
  endloop
endfacet
facet normal 1.0 2.374708616882426e-14 0.0
  outer loop
    vertex 41.799999999999926 35.67214629125983 0.0
    vertex 41.80000000000006 29.97214629125979 0.9999999999999996
    vertex 41.80000000000006 29.97214629125979 0.0
  endloop
endfacet
facet normal 1.0 2.374708616882426e-14 0.0
  outer loop
    vertex 41.80000000000006 29.97214629125979 0.9999999999999996
    vertex 41.799999999999926 35.67214629125983 0.0
    vertex 41.799999999999926 35.67214629125983 0.9999999999999996
  endloop
endfacet
facet normal 1.8728522226791405e-15 -1.0 8.484753779099776e-16
  outer loop
    vertex 41.80000000000006 39.98469314390897 0.9999999999999996
    vertex 0.0 39.984693143908885 0.0
    vertex 41.80000000000006 39.98469314390897 0.0
  endloop
endfacet
facet normal 1.8728522226791405e-15 -1.0 8.484753779099776e-16
  outer loop
    vertex 0.0 39.984693143908885 0.0
    vertex 41.80000000000006 39.98469314390897 0.9999999999999996
    vertex 0.0 39.984693143908885 0.9999999999999996
  endloop
endfacet
facet normal 1.8728522226791405e-15 -1.0 8.484753779099776e-16
  outer loop
    vertex 0.0 39.984693143908885 0.9999999999999996
    vertex 41.80000000000006 39.98469314390897 0.9999999999999996
    vertex 38.05992536113955 39.98469314390896 0.9999999999999996
  endloop
endfacet
facet normal 1.8728522226791405e-15 -1.0 8.484753779099776e-16
  outer loop
    vertex 0.0 39.984693143908885 0.9999999999999996
    vertex 38.05992536113955 39.98469314390896 0.9999999999999996
    vertex 22.909288317657506 39.984693143908935 1.0050252277366025
  endloop
endfacet
facet normal 1.8728522226791405e-15 -1.0 8.484753779099776e-16
  outer loop
    vertex 0.0 39.984693143908885 0.9999999999999996
    vertex 22.909288317657506 39.984693143908935 1.0050252277366025
    vertex 3.810724901808673 39.9846931439089 1.0039755557049597
  endloop
endfacet
facet normal 1.8728522226791405e-15 -1.0 8.484753779099776e-16
  outer loop
    vertex 3.810724901808673 39.9846931439089 1.0039755557049597
    vertex 22.909288317657506 39.984693143908935 1.0050252277366025
    vertex 19.109288317657505 39.98469314390892 1.0050252277366025
  endloop
endfacet
facet normal 1.8315992736360553e-15 -1.0 -8.04162128553121e-17
  outer loop
    vertex 41.80000000000006 29.97214629125979 0.9999999999999996
    vertex 0.0 29.972146291259712 0.0
    vertex 41.80000000000006 29.97214629125979 0.0
  endloop
endfacet
facet normal 1.8315992736360553e-15 -1.0 -8.04162128553121e-17
  outer loop
    vertex 0.0 29.972146291259712 0.0
    vertex 41.80000000000006 29.97214629125979 0.9999999999999996
    vertex 0.0 29.972146291259712 0.9999999999999996
  endloop
endfacet
facet normal 1.8315992736360553e-15 -1.0 -8.04162128553121e-17
  outer loop
    vertex 0.0 29.972146291259712 0.9999999999999996
    vertex 41.80000000000006 29.97214629125979 0.9999999999999996
    vertex 38.05992536113955 29.97214629125978 0.9999999999999996
  endloop
endfacet
facet normal 1.8315992736360553e-15 -1.0 -8.04162128553121e-17
  outer loop
    vertex 0.0 29.972146291259712 0.9999999999999996
    vertex 38.05992536113955 29.97214629125978 0.9999999999999996
    vertex 22.909288317657506 29.972146291259758 1.0050252277366025
  endloop
endfacet
facet normal 1.8315992736360553e-15 -1.0 -8.04162128553121e-17
  outer loop
    vertex 0.0 29.972146291259712 0.9999999999999996
    vertex 22.909288317657506 29.972146291259758 1.0050252277366025
    vertex 3.810724901808673 29.972146291259723 1.0039755557049597
  endloop
endfacet
facet normal 1.8315992736360553e-15 -1.0 -8.04162128553121e-17
  outer loop
    vertex 3.810724901808673 29.972146291259723 1.0039755557049597
    vertex 22.909288317657506 29.972146291259758 1.0050252277366025
    vertex 19.109288317657505 29.972146291259744 1.0050252277366025
  endloop
endfacet
facet normal -0.0 1.0 -0.0
  outer loop
    vertex 19.109288317657505 45.50000000000007 5.110050455473204
    vertex 22.909288317657502 45.50000000000007 1.0100504554732057
    vertex 19.109288317657505 45.50000000000007 1.0100504554732057
  endloop
endfacet
facet normal -0.0 1.0 -0.0
  outer loop
    vertex 22.909288317657502 45.50000000000007 1.0100504554732057
    vertex 19.109288317657505 45.50000000000007 5.110050455473204
    vertex 22.909288317657502 45.50000000000007 5.110050455473204
  endloop
endfacet
facet normal -0.0 1.0 -0.0
  outer loop
    vertex 38.05992536113955 45.50000000000007 5.099999999999998
    vertex 41.799999999999926 45.50000000000007 0.9999999999999996
    vertex 38.05992536113955 45.50000000000007 0.9999999999999996
  endloop
endfacet
facet normal -0.0 1.0 -0.0
  outer loop
    vertex 41.799999999999926 45.50000000000007 0.9999999999999996
    vertex 38.05992536113955 45.50000000000007 5.099999999999998
    vertex 41.85992536113955 45.50000000000007 0.9999999999999996
  endloop
endfacet
facet normal -0.0 1.0 -0.0
  outer loop
    vertex 41.85992536113955 45.50000000000007 0.9999999999999996
    vertex 38.05992536113955 45.50000000000007 5.099999999999998
    vertex 41.85992536113955 45.50000000000007 5.099999999999998
  endloop
endfacet
facet normal 1.0 2.374708616882432e-14 -0.0
  outer loop
    vertex 41.85992536113942 25.66992604413485 0.0
    vertex 41.85992536113955 19.96992604413483 0.9999999999999996
    vertex 41.85992536113955 19.96992604413483 0.0
  endloop
endfacet
facet normal 1.0 2.374708616882432e-14 -0.0
  outer loop
    vertex 41.85992536113955 19.96992604413483 0.9999999999999996
    vertex 41.85992536113942 25.66992604413485 0.0
    vertex 41.85992536113942 25.66992604413485 0.9999999999999996
  endloop
endfacet
facet normal 1.0 2.3687229670220688e-14 -3.6482434192984106e-16
  outer loop
    vertex 41.799999999999926 45.68469314390901 0.0
    vertex 41.80000000000006 39.98469314390897 0.9999999999999996
    vertex 41.80000000000006 39.98469314390897 0.0
  endloop
endfacet
facet normal 1.0 2.3687229670220688e-14 -3.6482434192984106e-16
  outer loop
    vertex 41.80000000000006 39.98469314390897 0.9999999999999996
    vertex 41.799999999999926 45.68469314390901 0.0
    vertex 41.799999999999926 45.50000000000007 0.9999999999999996
  endloop
endfacet
facet normal 1.0 2.3687229670220688e-14 -3.6482434192984106e-16
  outer loop
    vertex 41.799999999999926 45.50000000000007 0.9999999999999996
    vertex 41.799999999999926 45.68469314390901 0.0
    vertex 41.799999999999926 45.68469314390901 0.9999999999999996
  endloop
endfacet
facet normal 1.0 2.3747086168824243e-14 -0.0
  outer loop
    vertex 41.79999999999992 5.700000000000114 0.0
    vertex 41.800000000000054 7.613909502879257e-14 0.9999999999999996
    vertex 41.800000000000054 7.613909502879257e-14 0.0
  endloop
endfacet
facet normal 1.0 2.3747086168824243e-14 -0.0
  outer loop
    vertex 41.800000000000054 7.613909502879257e-14 0.9999999999999996
    vertex 41.79999999999992 5.700000000000114 0.0
    vertex 41.79999999999992 5.700000000000114 0.9999999999999996
  endloop
endfacet
facet normal 1.0 1.8715742817267255e-16 -8.251964439337441e-15
  outer loop
    vertex 41.85992536113955 19.96992604413483 0.9999999999999996
    vertex 41.85992536113955 3.739467176517049e-14 5.099999999999998
    vertex 41.85992536113955 3.739467176517049e-14 0.9999999999999996
  endloop
endfacet
facet normal 1.0 1.8715742817267255e-16 -8.251964439337441e-15
  outer loop
    vertex 41.85992536113955 3.739467176517049e-14 5.099999999999998
    vertex 41.85992536113955 19.96992604413483 0.9999999999999996
    vertex 41.85992536113955 45.50000000000007 5.099999999999998
  endloop
endfacet
facet normal 1.0 1.8715742817267255e-16 -8.251964439337441e-15
  outer loop
    vertex 41.85992536113955 45.50000000000007 5.099999999999998
    vertex 41.85992536113955 19.96992604413483 0.9999999999999996
    vertex 41.85992536113942 25.66992604413485 0.9999999999999996
  endloop
endfacet
facet normal 1.0 1.8715742817267255e-16 -8.251964439337441e-15
  outer loop
    vertex 41.85992536113955 45.50000000000007 5.099999999999998
    vertex 41.85992536113942 25.66992604413485 0.9999999999999996
    vertex 41.85992536113955 45.50000000000007 0.9999999999999996
  endloop
endfacet
facet normal 0.0 0.0 -1.0
  outer loop
    vertex 22.909288317657506 29.972146291259758 1.0050252277366025
    vertex 19.109288317657505 25.669926044134804 1.0050252277366025
    vertex 19.109288317657505 29.972146291259744 1.0050252277366025
  endloop
endfacet
facet normal 0.0 0.0 -1.0
  outer loop
    vertex 19.109288317657505 25.669926044134804 1.0050252277366025
    vertex 22.909288317657506 29.972146291259758 1.0050252277366025
    vertex 22.909288317657506 25.669926044134804 1.0050252277366025
  endloop
endfacet
facet normal 0.0 0.0 -1.0
  outer loop
    vertex 22.909288317657502 9.846566707008439 1.0050252277366025
    vertex 19.109288317657505 5.700000000000057 1.0050252277366025
    vertex 19.109288317657505 9.846566707008424 1.0050252277366025
  endloop
endfacet
facet normal 0.0 0.0 -1.0
  outer loop
    vertex 19.109288317657505 5.700000000000057 1.0050252277366025
    vertex 22.909288317657502 9.846566707008439 1.0050252277366025
    vertex 22.909288317657506 5.700000000000067 1.0050252277366025
  endloop
endfacet
facet normal -6.86124573033232e-05 9.636618330503297e-21 0.9999999976461653
  outer loop
    vertex 19.1092883176575 19.969926044134777 1.0050252277366025
    vertex 3.810724901808673 25.669926044134762 1.0039755557049597
    vertex 3.810724901808673 19.969926044134752 1.0039755557049597
  endloop
endfacet
facet normal -6.86124573033232e-05 9.636618330503297e-21 0.9999999976461653
  outer loop
    vertex 3.810724901808673 25.669926044134762 1.0039755557049597
    vertex 19.1092883176575 19.969926044134777 1.0050252277366025
    vertex 19.109288317657505 25.669926044134804 1.0050252277366025
  endloop
endfacet
facet normal 0.001043253880545823 -7.596356064156656e-21 -0.9999994558105222
  outer loop
    vertex 3.810724901808673 39.9846931439089 1.0039755557049597
    vertex 0.0 35.672146291259715 0.9999999999999996
    vertex 0.0 39.984693143908885 0.9999999999999996
  endloop
endfacet
facet normal 0.001043253880545823 -7.596356064156656e-21 -0.9999994558105222
  outer loop
    vertex 0.0 35.672146291259715 0.9999999999999996
    vertex 3.810724901808673 39.9846931439089 1.0039755557049597
    vertex 3.810724901808673 35.67214629125972 1.0039755557049597
  endloop
endfacet
facet normal 0.001043253880545823 -2.8372083773967807e-20 -0.9999994558105222
  outer loop
    vertex 3.810724901808673 29.972146291259723 1.0039755557049597
    vertex 0.0 25.669926044134755 0.9999999999999996
    vertex 0.0 29.972146291259712 0.9999999999999996
  endloop
endfacet
facet normal 0.001043253880545823 -2.8372083773967807e-20 -0.9999994558105222
  outer loop
    vertex 0.0 25.669926044134755 0.9999999999999996
    vertex 3.810724901808673 29.972146291259723 1.0039755557049597
    vertex 3.810724901808673 25.669926044134762 1.0039755557049597
  endloop
endfacet
facet normal 0.0003316842351748538 -7.336467973899366e-20 0.9999999449927824
  outer loop
    vertex 38.05992536113955 19.969926044134816 0.9999999999999996
    vertex 22.909288317657506 25.669926044134804 1.0050252277366025
    vertex 22.909288317657502 19.969926044134787 1.0050252277366025
  endloop
endfacet
facet normal 0.0003316842351748538 -7.336467973899366e-20 0.9999999449927824
  outer loop
    vertex 22.909288317657506 25.669926044134804 1.0050252277366025
    vertex 38.05992536113955 19.969926044134816 0.9999999999999996
    vertex 38.05992536113955 25.66992604413485 0.9999999999999996
  endloop
endfacet
facet normal 0.0 0.0 -1.0
  outer loop
    vertex 22.909288317657502 19.969926044134787 1.0050252277366025
    vertex 19.109288317657505 15.54656670700846 1.0050252277366025
    vertex 19.1092883176575 19.969926044134777 1.0050252277366025
  endloop
endfacet
facet normal 0.0 0.0 -1.0
  outer loop
    vertex 19.109288317657505 15.54656670700846 1.0050252277366025
    vertex 22.909288317657502 19.969926044134787 1.0050252277366025
    vertex 22.909288317657506 15.54656670700847 1.0050252277366025
  endloop
endfacet
facet normal 0.0003316842351748538 1.6855884563921327e-19 0.9999999449927824
  outer loop
    vertex 22.909288317657506 29.972146291259758 1.0050252277366025
    vertex 38.05992536113955 35.672146291259814 0.9999999999999996
    vertex 22.909288317657502 35.67214629125978 1.0050252277366025
  endloop
endfacet
facet normal 0.0003316842351748538 1.6855884563921327e-19 0.9999999449927824
  outer loop
    vertex 38.05992536113955 35.672146291259814 0.9999999999999996
    vertex 22.909288317657506 29.972146291259758 1.0050252277366025
    vertex 38.05992536113955 29.97214629125978 0.9999999999999996
  endloop
endfacet
facet normal 0.001043253880545823 3.092700846361114e-20 -0.9999994558105222
  outer loop
    vertex 3.810724901808673 19.969926044134752 1.0039755557049597
    vertex 0.0 15.546566707008402 0.9999999999999996
    vertex 0.0 19.969926044134745 0.9999999999999996
  endloop
endfacet
facet normal 0.001043253880545823 3.092700846361114e-20 -0.9999994558105222
  outer loop
    vertex 0.0 15.546566707008402 0.9999999999999996
    vertex 3.810724901808673 19.969926044134752 1.0039755557049597
    vertex 3.810724901808673 15.546566707008413 1.0039755557049597
  endloop
endfacet
facet normal 0.0003316842351748538 -1.0445634511802363e-19 0.9999999449927824
  outer loop
    vertex 38.05992536113955 9.846566707008465 0.9999999999999996
    vertex 22.909288317657506 15.54656670700847 1.0050252277366025
    vertex 22.909288317657502 9.846566707008439 1.0050252277366025
  endloop
endfacet
facet normal 0.0003316842351748538 -1.0445634511802363e-19 0.9999999449927824
  outer loop
    vertex 22.909288317657506 15.54656670700847 1.0050252277366025
    vertex 38.05992536113955 9.846566707008465 0.9999999999999996
    vertex 38.05992536113955 15.546566707008516 0.9999999999999996
  endloop
endfacet
facet normal -6.86124573033232e-05 -1.7566180273446563e-20 0.9999999976461653
  outer loop
    vertex 19.109288317657505 29.972146291259744 1.0050252277366025
    vertex 3.810724901808673 35.67214629125972 1.0039755557049597
    vertex 3.810724901808673 29.972146291259723 1.0039755557049597
  endloop
endfacet
facet normal -6.86124573033232e-05 -1.7566180273446563e-20 0.9999999976461653
  outer loop
    vertex 3.810724901808673 35.67214629125972 1.0039755557049597
    vertex 19.109288317657505 29.972146291259744 1.0050252277366025
    vertex 19.1092883176575 35.672146291259764 1.0050252277366025
  endloop
endfacet
facet normal -6.86124573033232e-05 1.8271967136252098e-22 0.9999999976461653
  outer loop
    vertex 19.109288317657505 9.846566707008424 1.0050252277366025
    vertex 3.810724901808673 15.546566707008413 1.0039755557049597
    vertex 3.810724901808673 9.8465667070084 1.0039755557049597
  endloop
endfacet
facet normal -6.86124573033232e-05 1.8271967136252098e-22 0.9999999976461653
  outer loop
    vertex 3.810724901808673 15.546566707008413 1.0039755557049597
    vertex 19.109288317657505 9.846566707008424 1.0050252277366025
    vertex 19.109288317657505 15.54656670700846 1.0050252277366025
  endloop
endfacet
facet normal 0.0 0.0 -1.0
  outer loop
    vertex 41.85992536113955 45.50000000000007 0.9999999999999996
    vertex 41.80000000000006 39.98469314390897 0.9999999999999996
    vertex 41.799999999999926 45.50000000000007 0.9999999999999996
  endloop
endfacet
facet normal 0.0 0.0 -1.0
  outer loop
    vertex 41.80000000000006 39.98469314390897 0.9999999999999996
    vertex 41.85992536113955 45.50000000000007 0.9999999999999996
    vertex 41.80000000000006 29.97214629125979 0.9999999999999996
  endloop
endfacet
facet normal 0.0 0.0 -1.0
  outer loop
    vertex 41.80000000000006 29.97214629125979 0.9999999999999996
    vertex 41.85992536113955 45.50000000000007 0.9999999999999996
    vertex 41.85992536113942 25.66992604413485 0.9999999999999996
  endloop
endfacet
facet normal 0.0 0.0 -1.0
  outer loop
    vertex 41.80000000000006 29.97214629125979 0.9999999999999996
    vertex 38.05992536113955 25.66992604413485 0.9999999999999996
    vertex 38.05992536113955 29.97214629125978 0.9999999999999996
  endloop
endfacet
facet normal 0.0 0.0 -1.0
  outer loop
    vertex 38.05992536113955 25.66992604413485 0.9999999999999996
    vertex 41.80000000000006 29.97214629125979 0.9999999999999996
    vertex 41.85992536113942 25.66992604413485 0.9999999999999996
  endloop
endfacet
facet normal 0.0 0.0 -1.0
  outer loop
    vertex 41.80000000000006 39.98469314390897 0.9999999999999996
    vertex 38.05992536113955 35.672146291259814 0.9999999999999996
    vertex 38.05992536113955 39.98469314390896 0.9999999999999996
  endloop
endfacet
facet normal 0.0 0.0 -1.0
  outer loop
    vertex 38.05992536113955 35.672146291259814 0.9999999999999996
    vertex 41.80000000000006 39.98469314390897 0.9999999999999996
    vertex 41.799999999999926 35.67214629125983 0.9999999999999996
  endloop
endfacet
facet normal 0.0 0.0 -1.0
  outer loop
    vertex 41.799999999999926 35.67214629125983 0.9999999999999996
    vertex 41.80000000000006 39.98469314390897 0.9999999999999996
    vertex 41.80000000000006 29.97214629125979 0.9999999999999996
  endloop
endfacet
facet normal 0.0 0.0 -1.0
  outer loop
    vertex 41.85992536113955 19.96992604413483 0.9999999999999996
    vertex 38.05992536113955 15.546566707008516 0.9999999999999996
    vertex 38.05992536113955 19.969926044134816 0.9999999999999996
  endloop
endfacet
facet normal 0.0 0.0 -1.0
  outer loop
    vertex 38.05992536113955 15.546566707008516 0.9999999999999996
    vertex 41.85992536113955 19.96992604413483 0.9999999999999996
    vertex 41.79999999999992 15.546566707008523 0.9999999999999996
  endloop
endfacet
facet normal 0.0 0.0 -1.0
  outer loop
    vertex 41.79999999999992 15.546566707008523 0.9999999999999996
    vertex 41.85992536113955 19.96992604413483 0.9999999999999996
    vertex 41.800000000000054 9.846566707008474 0.9999999999999996
  endloop
endfacet
facet normal 0.0 0.0 -1.0
  outer loop
    vertex 41.800000000000054 9.846566707008474 0.9999999999999996
    vertex 41.85992536113955 19.96992604413483 0.9999999999999996
    vertex 41.800000000000054 7.613909502879257e-14 0.9999999999999996
  endloop
endfacet
facet normal 0.0 0.0 -1.0
  outer loop
    vertex 41.800000000000054 7.613909502879257e-14 0.9999999999999996
    vertex 41.85992536113955 19.96992604413483 0.9999999999999996
    vertex 41.85992536113955 3.739467176517049e-14 0.9999999999999996
  endloop
endfacet
facet normal 0.0 0.0 -1.0
  outer loop
    vertex 41.800000000000054 9.846566707008474 0.9999999999999996
    vertex 38.05992536113955 5.700000000000107 0.9999999999999996
    vertex 38.05992536113955 9.846566707008465 0.9999999999999996
  endloop
endfacet
facet normal 0.0 0.0 -1.0
  outer loop
    vertex 38.05992536113955 5.700000000000107 0.9999999999999996
    vertex 41.800000000000054 9.846566707008474 0.9999999999999996
    vertex 41.79999999999992 5.700000000000114 0.9999999999999996
  endloop
endfacet
facet normal 0.0 0.0 -1.0
  outer loop
    vertex 41.79999999999992 5.700000000000114 0.9999999999999996
    vertex 41.800000000000054 9.846566707008474 0.9999999999999996
    vertex 41.800000000000054 7.613909502879257e-14 0.9999999999999996
  endloop
endfacet
facet normal 0.0004975262702149755 0.0004408093531944185 0.9999997790773378
  outer loop
    vertex 38.05992536113955 3.739467176517049e-14 0.9999999999999996
    vertex 22.909288317657506 5.700000000000067 1.0050252277366025
    vertex 22.909288317657502 3.739467176517049e-14 1.0100504554732057
  endloop
endfacet
facet normal 0.0004975262702149755 0.0004408093531944185 0.9999997790773378
  outer loop
    vertex 22.909288317657506 5.700000000000067 1.0050252277366025
    vertex 38.05992536113955 3.739467176517049e-14 0.9999999999999996
    vertex 38.05992536113955 5.700000000000107 0.9999999999999996
  endloop
endfacet
facet normal -0.00010291865357360244 0.0007895421568819117 0.9999996830154164
  outer loop
    vertex 19.109288317657505 3.739467176517049e-14 1.0100504554732057
    vertex 3.810724901808673 5.70000000000002 1.0039755557049597
    vertex 3.810724901808673 3.739467176517049e-14 1.00795111140992
  endloop
endfacet
facet normal -0.00010291865357360244 0.0007895421568819117 0.9999996830154164
  outer loop
    vertex 3.810724901808673 5.70000000000002 1.0039755557049597
    vertex 19.109288317657505 3.739467176517049e-14 1.0100504554732057
    vertex 19.109288317657505 5.700000000000057 1.0050252277366025
  endloop
endfacet
facet normal -0.00010291865138917503 -0.0008159818331298868 0.9999996617906424
  outer loop
    vertex 19.109288317657505 39.98469314390892 1.0050252277366025
    vertex 3.810724901808673 45.50000000000007 1.00795111140992
    vertex 3.810724901808673 39.9846931439089 1.0039755557049597
  endloop
endfacet
facet normal -0.00010291865138917503 -0.0008159818331298868 0.9999996617906424
  outer loop
    vertex 3.810724901808673 45.50000000000007 1.00795111140992
    vertex 19.109288317657505 39.98469314390892 1.0050252277366025
    vertex 19.109288317657505 45.50000000000007 1.0100504554732057
  endloop
endfacet
facet normal -1.0937543660160901e-16 0.043010549431543914 0.9990746181530169
  outer loop
    vertex 0.010724901808669645 45.50000000000007 1.00795111140992
    vertex 41.799999999999926 45.68469314390901 0.9999999999999996
    vertex 0.0 45.6846931439089 0.9999999999999996
  endloop
endfacet
facet normal -1.0937543660160901e-16 0.043010549431543914 0.9990746181530169
  outer loop
    vertex 41.799999999999926 45.68469314390901 0.9999999999999996
    vertex 0.010724901808669645 45.50000000000007 1.00795111140992
    vertex 3.810724901808673 45.50000000000007 1.00795111140992
  endloop
endfacet
facet normal -0.00013687766659497484 0.0710956245360924 0.9974694949903617
  outer loop
    vertex 41.799999999999926 45.68469314390901 0.9999999999999996
    vertex 3.810724901808673 45.50000000000007 1.00795111140992
    vertex 19.109288317657505 45.50000000000007 1.0100504554732057
  endloop
endfacet
facet normal 4.187700876748597e-18 0.05433665510608334 0.9985226727079773
  outer loop
    vertex 41.799999999999926 45.68469314390901 0.9999999999999996
    vertex 19.109288317657505 45.50000000000007 1.0100504554732057
    vertex 22.909288317657502 45.50000000000007 1.0100504554732057
  endloop
endfacet
facet normal 0.0006633085149683361 -0.013432135606486664 0.9999095647881677
  outer loop
    vertex 41.799999999999926 45.68469314390901 0.9999999999999996
    vertex 22.909288317657502 45.50000000000007 1.0100504554732057
    vertex 38.05992536113955 45.50000000000007 0.9999999999999996
  endloop
endfacet
facet normal 0.0004975262669233526 -0.00045557089789299474 0.9999997724613594
  outer loop
    vertex 22.909288317657506 39.984693143908935 1.0050252277366025
    vertex 38.05992536113955 45.50000000000007 0.9999999999999996
    vertex 22.909288317657502 45.50000000000007 1.0100504554732057
  endloop
endfacet
facet normal 0.0004975262669233526 -0.00045557089789299474 0.9999997724613594
  outer loop
    vertex 38.05992536113955 45.50000000000007 0.9999999999999996
    vertex 22.909288317657506 39.984693143908935 1.0050252277366025
    vertex 38.05992536113955 39.98469314390896 0.9999999999999996
  endloop
endfacet
facet normal -0.0 -0.0 1.0
  outer loop
    vertex 41.799999999999926 45.50000000000007 0.9999999999999996
    vertex 41.799999999999926 45.68469314390901 0.9999999999999996
    vertex 38.05992536113955 45.50000000000007 0.9999999999999996
  endloop
endfacet
facet normal -0.999998109328571 0.001944566605493493 0.0
  outer loop
    vertex 0.010724901808669645 45.50000000000007 1.00795111140992
    vertex 0.0 39.984693143908885 0.0
    vertex 0.0 39.984693143908885 0.9999999999999996
  endloop
endfacet
facet normal -0.9999433968184425 0.0 0.010639697326296172
  outer loop
    vertex 0.0 45.6846931439089 0.0
    vertex 0.0 39.984693143908885 0.0
    vertex 0.010724901808669645 45.50000000000007 1.00795111140992
  endloop
endfacet
facet normal -0.9983182614676829 -0.05797110332004448 -9.44656586604869e-19
  outer loop
    vertex 0.0 45.6846931439089 0.0
    vertex 0.010724901808669645 45.50000000000007 1.00795111140992
    vertex 0.0 45.6846931439089 0.9999999999999996
  endloop
endfacet
facet normal -0.9999433968184425 -2.5031865952117725e-19 0.010639697326296169
  outer loop
    vertex 0.0 5.700000000000011 0.0
    vertex 0.0 0.0 0.0
    vertex 0.010724901808669645 3.739467176517049e-14 1.00795111140992
  endloop
endfacet
facet normal -0.9999982298674454 -0.0018815583902055903 -2.0346324277748894e-18
  outer loop
    vertex 0.0 5.700000000000011 0.0
    vertex 0.010724901808669645 3.739467176517049e-14 1.00795111140992
    vertex 0.0 5.700000000000011 0.9999999999999996
  endloop
endfacet
facet normal -1.0 0.0 0.0
  outer loop
    vertex 0.010724901808669645 45.50000000000007 5.107951111409917
    vertex 0.010724901808669645 3.739467176517049e-14 1.00795111140992
    vertex 0.010724901808669645 3.739467176517049e-14 5.107951111409917
  endloop
endfacet
facet normal -0.9997869447144231 -0.0018524837637905205 0.02055805152499239
  outer loop
    vertex 0.010724901808669645 45.50000000000007 5.107951111409917
    vertex 0.0 5.700000000000011 0.9999999999999996
    vertex 0.010724901808669645 3.739467176517049e-14 1.00795111140992
  endloop
endfacet
facet normal -0.9999965919661418 4.513405743735946e-20 0.00261075776390148
  outer loop
    vertex 0.010724901808669645 45.50000000000007 5.107951111409917
    vertex 0.0 9.846566707008392 0.9999999999999996
    vertex 0.0 5.700000000000011 0.9999999999999996
  endloop
endfacet
facet normal -0.9999965919661418 4.513405743735946e-20 0.00261075776390148
  outer loop
    vertex 0.0 9.846566707008392 0.9999999999999996
    vertex 0.010724901808669645 45.50000000000007 5.107951111409917
    vertex 0.0 15.546566707008402 0.9999999999999996
  endloop
endfacet
facet normal -0.9999965919661418 4.513405743735946e-20 0.00261075776390148
  outer loop
    vertex 0.0 15.546566707008402 0.9999999999999996
    vertex 0.010724901808669645 45.50000000000007 5.107951111409917
    vertex 0.0 19.969926044134745 0.9999999999999996
  endloop
endfacet
facet normal -0.9999965919661418 4.513405743735946e-20 0.00261075776390148
  outer loop
    vertex 0.0 19.969926044134745 0.9999999999999996
    vertex 0.010724901808669645 45.50000000000007 5.107951111409917
    vertex 0.0 25.669926044134755 0.9999999999999996
  endloop
endfacet
facet normal -0.9999965919661418 4.513405743735946e-20 0.00261075776390148
  outer loop
    vertex 0.0 25.669926044134755 0.9999999999999996
    vertex 0.010724901808669645 45.50000000000007 5.107951111409917
    vertex 0.0 29.972146291259712 0.9999999999999996
  endloop
endfacet
facet normal -0.9999965919661418 4.513405743735946e-20 0.00261075776390148
  outer loop
    vertex 0.0 29.972146291259712 0.9999999999999996
    vertex 0.010724901808669645 45.50000000000007 5.107951111409917
    vertex 0.0 35.672146291259715 0.9999999999999996
  endloop
endfacet
facet normal -0.9999965919661418 4.513405743735946e-20 0.00261075776390148
  outer loop
    vertex 0.0 35.672146291259715 0.9999999999999996
    vertex 0.010724901808669645 45.50000000000007 5.107951111409917
    vertex 0.0 39.984693143908885 0.9999999999999996
  endloop
endfacet
facet normal -0.999998109328571 0.0019445666054934924 2.5855833500373566e-19
  outer loop
    vertex 0.010724901808669645 45.50000000000007 1.00795111140992
    vertex 0.0 39.984693143908885 0.9999999999999996
    vertex 0.010724901808669645 45.50000000000007 5.107951111409917
  endloop
endfacet
endsolid pallet_32mm
