solid Auto Bed Servo Arm 27mm
facet normal -1.0 0.0 0.0
  outer loop
    vertex -14.50100040435791 -7.999999999999999 4.000999927520752
    vertex -14.50100040435791 -7.999999999999999 -0.0010000000474974513
    vertex -14.50100040435791 -28.0 -0.0010000000474974513
  endloop
endfacet
facet normal -1.0 0.0 0.0
  outer loop
    vertex -14.50100040435791 -7.999999999999999 -0.0010000000474974513
    vertex -14.50100040435791 -7.999999999999999 4.000999927520752
    vertex -14.50100040435791 -4.000000000000001 4.000999927520752
  endloop
endfacet
facet normal -1.0 0.0 0.0
  outer loop
    vertex -14.50100040435791 -7.999999999999999 -0.0010000000474974513
    vertex -14.50100040435791 -4.000000000000001 4.000999927520752
    vertex -14.50100040435791 -4.000000000000001 -0.0010000000474974513
  endloop
endfacet
facet normal -1.0 0.0 0.0
  outer loop
    vertex -14.50100040435791 -28.0 4.000999927520752
    vertex -14.50100040435791 -30.999999999999993 -0.0010000000474974513
    vertex -14.50100040435791 -30.999999999999993 4.000999927520752
  endloop
endfacet
facet normal -1.0 0.0 0.0
  outer loop
    vertex -14.50100040435791 -30.999999999999993 -0.0010000000474974513
    vertex -14.50100040435791 -28.0 4.000999927520752
    vertex -14.50100040435791 -28.0 -0.0010000000474974513
  endloop
endfacet
facet normal -1.0 0.0 0.0
  outer loop
    vertex -14.50100040435791 -28.0 -0.0010000000474974513
    vertex -14.50100040435791 -28.0 4.000999927520752
    vertex -14.50100040435791 -7.999999999999999 4.000999927520752
  endloop
endfacet
facet normal 0.0 0.0 -1.0
  outer loop
    vertex -5.499000072479248 -23.000999450683594 -0.0010000000474974513
    vertex -14.50100040435791 -28.0 -0.0010000000474974513
    vertex -5.499000072479248 -12.999999999999998 -0.0010000000474974513
  endloop
endfacet
facet normal 1.0 -0.0 -0.0
  outer loop
    vertex -5.499000072479248 -28.0 -0.0010000000474974513
    vertex -5.499000072479248 -30.999999999999993 4.000999927520752
    vertex -5.499000072479248 -30.999999999999993 -0.0010000000474974513
  endloop
endfacet
facet normal 1.0 -0.0 -0.0
  outer loop
    vertex -5.499000072479248 -30.999999999999993 4.000999927520752
    vertex -5.499000072479248 -28.0 -0.0010000000474974513
    vertex -5.499000072479248 -23.000999450683594 3.9999999999999996
  endloop
endfacet
facet normal 1.0 -0.0 -0.0
  outer loop
    vertex -5.499000072479248 -23.000999450683594 3.9999999999999996
    vertex -5.499000072479248 -28.0 -0.0010000000474974513
    vertex -5.499000072479248 -23.000999450683594 -0.0010000000474974513
  endloop
endfacet
facet normal -0.0 -0.0 1.0
  outer loop
    vertex -5.499000072479248 -7.999999999999999 4.000999927520752
    vertex -14.50100040435791 -7.999999999999999 4.000999927520752
    vertex -14.50100040435791 -28.0 4.000999927520752
  endloop
endfacet
facet normal -0.0 -0.0 1.0
  outer loop
    vertex -14.50100040435791 -7.999999999999999 4.000999927520752
    vertex -5.499000072479248 -7.999999999999999 4.000999927520752
    vertex -14.50100040435791 -4.000000000000001 4.000999927520752
  endloop
endfacet
facet normal -0.0 -0.0 1.0
  outer loop
    vertex -14.50100040435791 -4.000000000000001 4.000999927520752
    vertex -5.499000072479248 -7.999999999999999 4.000999927520752
    vertex -5.499000072479248 -4.000000000000001 4.000999927520752
  endloop
endfacet
facet normal 6.700309069197878e-05 5.76894762342659e-06 0.9999999977386527
  outer loop
    vertex -5.499000072479248 -30.999999999999993 4.000999927520752
    vertex -14.50100040435791 -28.0 4.000999927520752
    vertex -14.50100040435791 -30.999999999999993 4.000999927520752
  endloop
endfacet
facet normal 6.700309069197878e-05 5.76894762342659e-06 0.9999999977386527
  outer loop
    vertex -14.50100040435791 -28.0 4.000999927520752
    vertex -5.499000072479248 -30.999999999999993 4.000999927520752
    vertex -5.499000072479248 -7.999999999999999 4.000999927520752
  endloop
endfacet
facet normal 6.700309069197878e-05 5.76894762342659e-06 0.9999999977386527
  outer loop
    vertex -5.499000072479248 -7.999999999999999 4.000999927520752
    vertex -5.499000072479248 -30.999999999999993 4.000999927520752
    vertex -5.499000072479248 -23.000999450683594 3.9999999999999996
  endloop
endfacet
facet normal 6.700309069197878e-05 5.76894762342659e-06 0.9999999977386527
  outer loop
    vertex -5.499000072479248 -7.999999999999999 4.000999927520752
    vertex -5.499000072479248 -23.000999450683594 3.9999999999999996
    vertex -5.499000072479248 -21.503000259399414 3.9999999999999996
  endloop
endfacet
facet normal 6.700309069197878e-05 5.76894762342659e-06 0.9999999977386527
  outer loop
    vertex -5.499000072479248 -7.999999999999999 4.000999927520752
    vertex -5.499000072479248 -21.503000259399414 3.9999999999999996
    vertex -5.499000072479248 -14.498000144958494 3.9999999999999996
  endloop
endfacet
facet normal 6.700309069197878e-05 5.76894762342659e-06 0.9999999977386527
  outer loop
    vertex -5.499000072479248 -7.999999999999999 4.000999927520752
    vertex -5.499000072479248 -14.498000144958494 3.9999999999999996
    vertex -5.499000072479248 -12.999999999999998 3.9999999999999996
  endloop
endfacet
facet normal 0.0 -1.0 0.0
  outer loop
    vertex -5.499000072479248 -23.000999450683594 3.9999999999999996
    vertex -5.499000072479248 -23.000999450683594 -0.0010000000474974513
    vertex 10.501000404357908 -23.000999450683594 3.9999999999999996
  endloop
endfacet
facet normal 0.0 0.0 -1.0
  outer loop
    vertex 13.03600025177002 -14.46500015258789 -0.0010000000474974513
    vertex 11.97700023651123 -15.52400016784668 -0.0010000000474974513
    vertex 10.842000007629395 -14.763999938964844 -0.0010000000474974513
  endloop
endfacet
facet normal 0.0 0.0 -1.0
  outer loop
    vertex 13.03600025177002 -14.46500015258789 -0.0010000000474974513
    vertex 12.736000061035154 -16.65999984741211 -0.0010000000474974513
    vertex 11.97700023651123 -15.52400016784668 -0.0010000000474974513
  endloop
endfacet
facet normal 0.0 -1.0 0.0
  outer loop
    vertex 10.501000404357908 -23.000999450683594 3.9999999999999996
    vertex -5.499000072479248 -23.000999450683594 -0.0010000000474974513
    vertex 10.501000404357908 -23.000999450683594 -0.0010000000474974513
  endloop
endfacet
facet normal 0.0 0.0 -1.0
  outer loop
    vertex 14.11999988555908 -19.913999557495114 -0.0010000000474974513
    vertex 13.03600025177002 -21.535999298095703 -0.0010000000474974513
    vertex 12.736000061035154 -19.34099960327148 -0.0010000000474974513
  endloop
endfacet
facet normal 0.0 0.0 -1.0
  outer loop
    vertex 13.03600025177002 -21.535999298095703 -0.0010000000474974513
    vertex 10.842000007629395 -21.236999511718746 -0.0010000000474974513
    vertex 11.97700023651123 -20.476999282836914 -0.0010000000474974513
  endloop
endfacet
facet normal 0.0 0.0 -1.0
  outer loop
    vertex 13.03600025177002 -14.46500015258789 -0.0010000000474974513
    vertex 10.842000007629395 -14.763999938964844 -0.0010000000474974513
    vertex 11.413999557495115 -13.38099956512451 -0.0010000000474974513
  endloop
endfacet
facet normal 0.0 0.0 -1.0
  outer loop
    vertex 13.03600025177002 -21.535999298095703 -0.0010000000474974513
    vertex 11.97700023651123 -20.476999282836914 -0.0010000000474974513
    vertex 12.736000061035154 -19.34099960327148 -0.0010000000474974513
  endloop
endfacet
facet normal 0.0 0.0 -1.0
  outer loop
    vertex 14.11999988555908 -19.913999557495114 -0.0010000000474974513
    vertex 12.736000061035154 -19.34099960327148 -0.0010000000474974513
    vertex 13.003000259399414 -17.999999999999996 -0.0010000000474974513
  endloop
endfacet
facet normal 0.0 0.0 -1.0
  outer loop
    vertex 14.11999988555908 -16.086999893188473 -0.0010000000474974513
    vertex 12.736000061035154 -16.65999984741211 -0.0010000000474974513
    vertex 13.03600025177002 -14.46500015258789 -0.0010000000474974513
  endloop
endfacet
facet normal 0.0 0.0 -1.0
  outer loop
    vertex 14.11999988555908 -16.086999893188473 -0.0010000000474974513
    vertex 13.003000259399414 -17.999999999999996 -0.0010000000474974513
    vertex 12.736000061035154 -16.65999984741211 -0.0010000000474974513
  endloop
endfacet
facet normal 0.0 0.0 -1.0
  outer loop
    vertex 14.499999999999998 -17.999999999999996 -0.0010000000474974513
    vertex 13.003000259399414 -17.999999999999996 -0.0010000000474974513
    vertex 14.11999988555908 -16.086999893188473 -0.0010000000474974513
  endloop
endfacet
facet normal 0.0 0.0 -1.0
  outer loop
    vertex 14.499999999999998 -17.999999999999996 -0.0010000000474974513
    vertex 14.11999988555908 -19.913999557495114 -0.0010000000474974513
    vertex 13.003000259399414 -17.999999999999996 -0.0010000000474974513
  endloop
endfacet
facet normal 0.0 0.0 -1.0
  outer loop
    vertex 13.03600025177002 -21.535999298095703 -0.0010000000474974513
    vertex 11.413999557495115 -22.6200008392334 -0.0010000000474974513
    vertex 10.842000007629395 -21.236999511718746 -0.0010000000474974513
  endloop
endfacet
facet normal -0.0 -0.0 1.0
  outer loop
    vertex 13.03600025177002 -14.46500015258789 3.9999999999999996
    vertex 10.842000007629395 -14.763999938964844 3.9999999999999996
    vertex 11.97700023651123 -15.52400016784668 3.9999999999999996
  endloop
endfacet
facet normal -0.0 -0.0 1.0
  outer loop
    vertex 13.03600025177002 -14.46500015258789 3.9999999999999996
    vertex 11.97700023651123 -15.52400016784668 3.9999999999999996
    vertex 12.736000061035154 -16.65999984741211 3.9999999999999996
  endloop
endfacet
facet normal -0.0 -0.0 1.0
  outer loop
    vertex 13.03600025177002 -21.535999298095703 3.9999999999999996
    vertex 11.97700023651123 -20.476999282836914 3.9999999999999996
    vertex 10.842000007629395 -21.236999511718746 3.9999999999999996
  endloop
endfacet
facet normal -0.0 -0.0 1.0
  outer loop
    vertex 10.842000007629395 -21.236999511718746 3.9999999999999996
    vertex 9.60200023651123 -21.503000259399414 3.9999999999999996
    vertex 10.501000404357908 -22.801740646362305 3.9999999999999996
  endloop
endfacet
facet normal -0.0 -0.0 1.0
  outer loop
    vertex 11.413999557495115 -13.38099956512451 3.9999999999999996
    vertex 10.501000404357908 -13.199258804321287 3.9999999999999996
    vertex 10.842000007629395 -14.763999938964844 3.9999999999999996
  endloop
endfacet
facet normal -0.0 -0.0 1.0
  outer loop
    vertex 13.03600025177002 -14.46500015258789 3.9999999999999996
    vertex 11.413999557495115 -13.38099956512451 3.9999999999999996
    vertex 10.842000007629395 -14.763999938964844 3.9999999999999996
  endloop
endfacet
facet normal -0.0 -0.0 1.0
  outer loop
    vertex 14.499999999999998 -17.999999999999996 3.9999999999999996
    vertex 14.11999988555908 -16.086999893188473 3.9999999999999996
    vertex 13.003000259399414 -17.999999999999996 3.9999999999999996
  endloop
endfacet
facet normal -0.0 -0.0 1.0
  outer loop
    vertex 14.11999988555908 -19.913999557495114 3.9999999999999996
    vertex 13.003000259399414 -17.999999999999996 3.9999999999999996
    vertex 12.736000061035154 -19.34099960327148 3.9999999999999996
  endloop
endfacet
facet normal -0.0 -0.0 1.0
  outer loop
    vertex 13.03600025177002 -21.535999298095703 3.9999999999999996
    vertex 12.736000061035154 -19.34099960327148 3.9999999999999996
    vertex 11.97700023651123 -20.476999282836914 3.9999999999999996
  endloop
endfacet
facet normal -0.0 -0.0 1.0
  outer loop
    vertex 14.499999999999998 -17.999999999999996 3.9999999999999996
    vertex 13.003000259399414 -17.999999999999996 3.9999999999999996
    vertex 14.11999988555908 -19.913999557495114 3.9999999999999996
  endloop
endfacet
facet normal -0.0 -0.0 1.0
  outer loop
    vertex 14.11999988555908 -16.086999893188473 3.9999999999999996
    vertex 12.736000061035154 -16.65999984741211 3.9999999999999996
    vertex 13.003000259399414 -17.999999999999996 3.9999999999999996
  endloop
endfacet
facet normal -0.0 -0.0 1.0
  outer loop
    vertex 14.11999988555908 -16.086999893188473 3.9999999999999996
    vertex 13.03600025177002 -14.46500015258789 3.9999999999999996
    vertex 12.736000061035154 -16.65999984741211 3.9999999999999996
  endloop
endfacet
facet normal -0.0 -0.0 1.0
  outer loop
    vertex 11.413999557495115 -22.6200008392334 3.9999999999999996
    vertex 10.842000007629395 -21.236999511718746 3.9999999999999996
    vertex 10.501000404357908 -22.801740646362305 3.9999999999999996
  endloop
endfacet
facet normal -0.0 -0.0 1.0
  outer loop
    vertex 13.03600025177002 -21.535999298095703 3.9999999999999996
    vertex 10.842000007629395 -21.236999511718746 3.9999999999999996
    vertex 11.413999557495115 -22.6200008392334 3.9999999999999996
  endloop
endfacet
facet normal -0.0 -0.0 1.0
  outer loop
    vertex 14.11999988555908 -19.913999557495114 3.9999999999999996
    vertex 12.736000061035154 -19.34099960327148 3.9999999999999996
    vertex 13.03600025177002 -21.535999298095703 3.9999999999999996
  endloop
endfacet
facet normal 0.1952277367202252 -0.9807579369116003 9.717407537764726e-18
  outer loop
    vertex 10.501000404357908 -22.801740646362305 3.9999999999999996
    vertex 10.501000404357908 -22.801740646362305 -0.0010000000474974513
    vertex 11.413999557495115 -22.6200008392334 -0.0010000000474974513
  endloop
endfacet
facet normal 0.19522773672022514 -0.9807579369116003 9.717407537764726e-18
  outer loop
    vertex 10.501000404357908 -22.801740646362305 3.9999999999999996
    vertex 11.413999557495115 -22.6200008392334 -0.0010000000474974513
    vertex 11.413999557495115 -22.6200008392334 3.9999999999999996
  endloop
endfacet
facet normal 0.5556465367389068 -0.8314186227226684 0.0
  outer loop
    vertex 13.03600025177002 -21.535999298095703 3.9999999999999996
    vertex 11.413999557495115 -22.6200008392334 -0.0010000000474974513
    vertex 13.03600025177002 -21.535999298095703 -0.0010000000474974513
  endloop
endfacet
facet normal 0.5556465367389067 -0.8314186227226684 4.17606254038805e-17
  outer loop
    vertex 11.413999557495115 -22.6200008392334 3.9999999999999996
    vertex 11.413999557495115 -22.6200008392334 -0.0010000000474974513
    vertex 13.03600025177002 -21.535999298095703 3.9999999999999996
  endloop
endfacet
facet normal 0.8314189234618964 -0.5556460867399873 -2.0880344808408498e-17
  outer loop
    vertex 14.11999988555908 -19.913999557495114 3.9999999999999996
    vertex 13.03600025177002 -21.535999298095703 -0.0010000000474974513
    vertex 14.11999988555908 -19.913999557495114 -0.0010000000474974513
  endloop
endfacet
facet normal 0.8314189234618964 -0.5556460867399873 -0.0
  outer loop
    vertex 14.11999988555908 -19.913999557495114 3.9999999999999996
    vertex 13.03600025177002 -21.535999298095703 3.9999999999999996
    vertex 13.03600025177002 -21.535999298095703 -0.0010000000474974513
  endloop
endfacet
facet normal 0.9808556272670413 -0.19473633060777035 -8.845262953845358e-18
  outer loop
    vertex 14.499999999999998 -17.999999999999996 3.9999999999999996
    vertex 14.11999988555908 -19.913999557495114 -0.0010000000474974513
    vertex 14.499999999999998 -17.999999999999996 -0.0010000000474974513
  endloop
endfacet
facet normal 0.9808556272670413 -0.1947363306077703 -2.6535788861536075e-17
  outer loop
    vertex 14.499999999999998 -17.999999999999996 3.9999999999999996
    vertex 14.11999988555908 -19.913999557495114 3.9999999999999996
    vertex 14.11999988555908 -19.913999557495114 -0.0010000000474974513
  endloop
endfacet
facet normal 0.9808361895188268 0.19483420985593847 8.854332347433934e-18
  outer loop
    vertex 14.11999988555908 -16.086999893188473 3.9999999999999996
    vertex 14.499999999999998 -17.999999999999996 -0.0010000000474974513
    vertex 14.11999988555908 -16.086999893188473 -0.0010000000474974513
  endloop
endfacet
facet normal 0.9808361895188268 0.1948342098559385 8.854332347433937e-18
  outer loop
    vertex 14.11999988555908 -16.086999893188473 3.9999999999999996
    vertex 14.499999999999998 -17.999999999999996 3.9999999999999996
    vertex 14.499999999999998 -17.999999999999996 -0.0010000000474974513
  endloop
endfacet
facet normal 0.8314189234618959 0.5556460867399879 -0.0
  outer loop
    vertex 13.03600025177002 -14.46500015258789 3.9999999999999996
    vertex 14.11999988555908 -16.086999893188473 -0.0010000000474974513
    vertex 13.03600025177002 -14.46500015258789 -0.0010000000474974513
  endloop
endfacet
facet normal 0.8314189234618959 0.5556460867399879 2.088034480840856e-17
  outer loop
    vertex 13.03600025177002 -14.46500015258789 3.9999999999999996
    vertex 14.11999988555908 -16.086999893188473 3.9999999999999996
    vertex 14.11999988555908 -16.086999893188473 -0.0010000000474974513
  endloop
endfacet
facet normal 0.5556461988231282 0.8314188485555333 2.088031837352459e-17
  outer loop
    vertex 11.413999557495115 -13.38099956512451 3.9999999999999996
    vertex 13.03600025177002 -14.46500015258789 -0.0010000000474974513
    vertex 11.413999557495115 -13.38099956512451 -0.0010000000474974513
  endloop
endfacet
facet normal 0.5556461988231282 0.8314188485555333 2.088031837352459e-17
  outer loop
    vertex 13.03600025177002 -14.46500015258789 3.9999999999999996
    vertex 13.03600025177002 -14.46500015258789 -0.0010000000474974513
    vertex 11.413999557495115 -13.38099956512451 3.9999999999999996
  endloop
endfacet
facet normal 0.19522872212593767 0.9807577407581718 9.717405594264975e-18
  outer loop
    vertex 10.501000404357908 -13.199258804321287 3.9999999999999996
    vertex 11.413999557495115 -13.38099956512451 -0.0010000000474974513
    vertex 10.501000404357908 -13.199258804321287 -0.0010000000474974513
  endloop
endfacet
facet normal 0.1952287221259376 0.9807577407581718 -4.858702797132488e-18
  outer loop
    vertex 11.413999557495115 -13.38099956512451 3.9999999999999996
    vertex 11.413999557495115 -13.38099956512451 -0.0010000000474974513
    vertex 10.501000404357908 -13.199258804321287 3.9999999999999996
  endloop
endfacet
facet normal -0.1954120070440222 -0.9807212384276314 1.6744907070767628e-18
  outer loop
    vertex 10.842000007629395 -14.763999938964844 3.9999999999999996
    vertex 9.60200023651123 -14.516925811767578 1.9989999532699583
    vertex 10.842000007629395 -14.763999938964844 -0.0010000000474974513
  endloop
endfacet
facet normal -0.5563885297453257 -0.8309222610857377 0.0
  outer loop
    vertex 10.842000007629395 -14.763999938964844 3.9999999999999996
    vertex 11.97700023651123 -15.52400016784668 -0.0010000000474974513
    vertex 11.97700023651123 -15.52400016784668 3.9999999999999996
  endloop
endfacet
facet normal -0.5563885297453257 -0.8309222610857377 -2.1308742548911388e-17
  outer loop
    vertex 10.842000007629395 -14.763999938964844 3.9999999999999996
    vertex 10.842000007629395 -14.763999938964844 -0.0010000000474974513
    vertex 11.97700023651123 -15.52400016784668 -0.0010000000474974513
  endloop
endfacet
facet normal -0.8314868198673251 -0.5555444792155911 2.128571671824501e-17
  outer loop
    vertex 11.97700023651123 -15.52400016784668 3.9999999999999996
    vertex 12.736000061035154 -16.65999984741211 -0.0010000000474974513
    vertex 12.736000061035154 -16.65999984741211 3.9999999999999996
  endloop
endfacet
facet normal -0.8314868198673251 -0.5555444792155911 2.128571671824501e-17
  outer loop
    vertex 11.97700023651123 -15.52400016784668 -0.0010000000474974513
    vertex 12.736000061035154 -16.65999984741211 -0.0010000000474974513
    vertex 11.97700023651123 -15.52400016784668 3.9999999999999996
  endloop
endfacet
facet normal -0.9807211460456792 -0.19541247068406323 9.021841117606651e-18
  outer loop
    vertex 12.736000061035154 -16.65999984741211 3.9999999999999996
    vertex 13.003000259399414 -17.999999999999996 -0.0010000000474974513
    vertex 13.003000259399414 -17.999999999999996 3.9999999999999996
  endloop
endfacet
facet normal -0.9807211460456792 -0.19541247068406317 0.0
  outer loop
    vertex 12.736000061035154 -16.65999984741211 -0.0010000000474974513
    vertex 13.003000259399414 -17.999999999999996 -0.0010000000474974513
    vertex 12.736000061035154 -16.65999984741211 3.9999999999999996
  endloop
endfacet
facet normal -0.9807490483116462 0.19527238472400626 0.0
  outer loop
    vertex 13.003000259399414 -17.999999999999996 3.9999999999999996
    vertex 12.736000061035154 -19.34099960327148 -0.0010000000474974513
    vertex 12.736000061035154 -19.34099960327148 3.9999999999999996
  endloop
endfacet
facet normal -0.9807490483116462 0.1952723847240062 0.0
  outer loop
    vertex 13.003000259399414 -17.999999999999996 -0.0010000000474974513
    vertex 12.736000061035154 -19.34099960327148 -0.0010000000474974513
    vertex 13.003000259399414 -17.999999999999996 3.9999999999999996
  endloop
endfacet
facet normal -0.8314868198673251 0.5555444792155911 -2.128571671824501e-17
  outer loop
    vertex 12.736000061035154 -19.34099960327148 3.9999999999999996
    vertex 11.97700023651123 -20.476999282836914 -0.0010000000474974513
    vertex 11.97700023651123 -20.476999282836914 3.9999999999999996
  endloop
endfacet
facet normal -0.8314868198673251 0.555544479215591 2.128571671824501e-17
  outer loop
    vertex 12.736000061035154 -19.34099960327148 -0.0010000000474974513
    vertex 11.97700023651123 -20.476999282836914 -0.0010000000474974513
    vertex 12.736000061035154 -19.34099960327148 3.9999999999999996
  endloop
endfacet
facet normal -0.5563885297453257 0.8309222610857377 -0.0
  outer loop
    vertex 11.97700023651123 -20.476999282836914 3.9999999999999996
    vertex 10.842000007629395 -21.236999511718746 -0.0010000000474974513
    vertex 10.842000007629395 -21.236999511718746 3.9999999999999996
  endloop
endfacet
facet normal -0.5563885297453257 0.8309222610857377 -0.0
  outer loop
    vertex 11.97700023651123 -20.476999282836914 3.9999999999999996
    vertex 11.97700023651123 -20.476999282836914 -0.0010000000474974513
    vertex 10.842000007629395 -21.236999511718746 -0.0010000000474974513
  endloop
endfacet
facet normal 1.0 -0.0 -0.0
  outer loop
    vertex 10.501000404357908 -12.999999999999998 3.9999999999999996
    vertex 10.501000404357908 -13.199258804321287 3.9999999999999996
    vertex 10.501000404357908 -12.999999999999998 -0.0010000000474974513
  endloop
endfacet
facet normal 1.0 -0.0 -0.0
  outer loop
    vertex 10.501000404357908 -12.999999999999998 -0.0010000000474974513
    vertex 10.501000404357908 -13.199258804321287 3.9999999999999996
    vertex 10.501000404357908 -13.199258804321287 -0.0010000000474974513
  endloop
endfacet
facet normal 1.0 -0.0 -0.0
  outer loop
    vertex 10.501000404357908 -22.801740646362305 3.9999999999999996
    vertex 10.501000404357908 -23.000999450683594 3.9999999999999996
    vertex 10.501000404357908 -23.000999450683594 -0.0010000000474974513
  endloop
endfacet
facet normal 1.0 -0.0 -0.0
  outer loop
    vertex 10.501000404357908 -22.801740646362305 3.9999999999999996
    vertex 10.501000404357908 -23.000999450683594 -0.0010000000474974513
    vertex 10.501000404357908 -22.801740646362305 -0.0010000000474974513
  endloop
endfacet
facet normal 0.0 0.0 -1.0
  outer loop
    vertex -5.499000072479248 -23.000999450683594 -0.0010000000474974513
    vertex -14.50100040435791 -30.999999999999993 -0.0010000000474974513
    vertex -14.50100040435791 -28.0 -0.0010000000474974513
  endloop
endfacet
facet normal 0.0 0.0 -1.0
  outer loop
    vertex -14.50100040435791 -30.999999999999993 -0.0010000000474974513
    vertex -5.499000072479248 -23.000999450683594 -0.0010000000474974513
    vertex -5.499000072479248 -30.999999999999993 -0.0010000000474974513
  endloop
endfacet
facet normal 0.0 0.0 -1.0
  outer loop
    vertex -5.499000072479248 -30.999999999999993 -0.0010000000474974513
    vertex -5.499000072479248 -23.000999450683594 -0.0010000000474974513
    vertex -5.499000072479248 -28.0 -0.0010000000474974513
  endloop
endfacet
facet normal 0.0 0.0 -1.0
  outer loop
    vertex -5.499000072479248 -12.999999999999998 -0.0010000000474974513
    vertex -14.50100040435791 -28.0 -0.0010000000474974513
    vertex -14.50100040435791 -7.999999999999999 -0.0010000000474974513
  endloop
endfacet
facet normal 0.0 0.0 -1.0
  outer loop
    vertex -5.499000072479248 -4.000000000000001 -0.0010000000474974513
    vertex -14.50100040435791 -7.999999999999999 -0.0010000000474974513
    vertex -14.50100040435791 -4.000000000000001 -0.0010000000474974513
  endloop
endfacet
facet normal 0.0 0.0 -1.0
  outer loop
    vertex -14.50100040435791 -7.999999999999999 -0.0010000000474974513
    vertex -5.499000072479248 -4.000000000000001 -0.0010000000474974513
    vertex -5.499000072479248 -12.999999999999998 -0.0010000000474974513
  endloop
endfacet
facet normal 0.0 0.0 -1.0
  outer loop
    vertex -5.499000072479248 -12.999999999999998 -0.0010000000474974513
    vertex -5.499000072479248 -4.000000000000001 -0.0010000000474974513
    vertex -5.499000072479248 -7.999999999999999 -0.0010000000474974513
  endloop
endfacet
facet normal 0.0 0.0 -1.0
  outer loop
    vertex 11.413999557495115 -22.6200008392334 -0.0010000000474974513
    vertex 10.501000404357908 -22.801740646362305 -0.0010000000474974513
    vertex 10.842000007629395 -21.236999511718746 -0.0010000000474974513
  endloop
endfacet
facet normal -0.0 -0.0 1.0
  outer loop
    vertex 10.501000404357908 -13.199258804321287 3.9999999999999996
    vertex 9.50701904296875 -14.498000144958494 3.9999999999999996
    vertex 9.60200023651123 -14.498000144958494 3.9999999999999996
  endloop
endfacet
facet normal -0.0 -0.0 1.0
  outer loop
    vertex 10.842000007629395 -14.763999938964844 3.9999999999999996
    vertex 10.501000404357908 -13.199258804321287 3.9999999999999996
    vertex 9.60200023651123 -14.498000144958494 3.9999999999999996
  endloop
endfacet
facet normal 0.0 0.0 -1.0
  outer loop
    vertex 6.0 -17.999999999999996 -0.0010000000474974513
    vertex -5.499000072479248 -23.000999450683594 -0.0010000000474974513
    vertex -5.499000072479248 -12.999999999999998 -0.0010000000474974513
  endloop
endfacet
facet normal 0.0 0.0 -1.0
  outer loop
    vertex 8.161999702453612 -14.763999938964844 -0.0010000000474974513
    vertex 7.026000022888184 -15.52400016784668 -0.0010000000474974513
    vertex -5.499000072479248 -12.999999999999998 -0.0010000000474974513
  endloop
endfacet
facet normal -0.0 -0.0 1.0
  outer loop
    vertex 10.501000404357908 -12.999999999999998 3.9999999999999996
    vertex -5.499000072479248 -12.999999999999998 3.9999999999999996
    vertex 10.501000404357908 -13.199258804321287 3.9999999999999996
  endloop
endfacet
facet normal 0.0 0.0 -1.0
  outer loop
    vertex 10.842000007629395 -14.763999938964844 -0.0010000000474974513
    vertex 9.501999855041504 -14.496999740600586 -0.0010000000474974513
    vertex 10.501000404357908 -13.199258804321287 -0.0010000000474974513
  endloop
endfacet
facet normal 0.0 0.0 -1.0
  outer loop
    vertex 10.501000404357908 -13.199258804321287 -0.0010000000474974513
    vertex 8.161999702453612 -14.763999938964844 -0.0010000000474974513
    vertex 10.501000404357908 -12.999999999999998 -0.0010000000474974513
  endloop
endfacet
facet normal 0.0 0.0 -1.0
  outer loop
    vertex 10.501000404357908 -13.199258804321287 -0.0010000000474974513
    vertex 9.501999855041504 -14.496999740600586 -0.0010000000474974513
    vertex 8.161999702453612 -14.763999938964844 -0.0010000000474974513
  endloop
endfacet
facet normal 0.0 0.0 -1.0
  outer loop
    vertex 11.413999557495115 -13.38099956512451 -0.0010000000474974513
    vertex 10.842000007629395 -14.763999938964844 -0.0010000000474974513
    vertex 10.501000404357908 -13.199258804321287 -0.0010000000474974513
  endloop
endfacet
facet normal -0.0 -0.0 1.0
  outer loop
    vertex 9.60200023651123 -21.503000259399414 3.9999999999999996
    vertex -5.499000072479248 -21.503000259399414 3.9999999999999996
    vertex -5.499000072479248 -23.000999450683594 3.9999999999999996
  endloop
endfacet
facet normal -0.0 -0.0 1.0
  outer loop
    vertex 10.501000404357908 -22.801740646362305 3.9999999999999996
    vertex 9.60200023651123 -21.503000259399414 3.9999999999999996
    vertex -5.499000072479248 -23.000999450683594 3.9999999999999996
  endloop
endfacet
facet normal -0.0 -0.0 1.0
  outer loop
    vertex 9.50701904296875 -14.498000144958494 3.9999999999999996
    vertex -5.499000072479248 -12.999999999999998 3.9999999999999996
    vertex -5.499000072479248 -14.498000144958494 3.9999999999999996
  endloop
endfacet
facet normal -0.0 -0.0 1.0
  outer loop
    vertex 10.501000404357908 -13.199258804321287 3.9999999999999996
    vertex -5.499000072479248 -12.999999999999998 3.9999999999999996
    vertex 9.50701904296875 -14.498000144958494 3.9999999999999996
  endloop
endfacet
facet normal -0.0 -0.0 1.0
  outer loop
    vertex 10.501000404357908 -22.801740646362305 3.9999999999999996
    vertex -5.499000072479248 -23.000999450683594 3.9999999999999996
    vertex 10.501000404357908 -23.000999450683594 3.9999999999999996
  endloop
endfacet
facet normal 1.0 -0.0 -0.0
  outer loop
    vertex -5.499000072479248 -7.999999999999999 -0.0010000000474974513
    vertex -5.499000072479248 -7.999999999999999 4.000999927520752
    vertex -5.499000072479248 -12.999999999999998 3.9999999999999996
  endloop
endfacet
facet normal 1.0 -0.0 -0.0
  outer loop
    vertex -5.499000072479248 -7.999999999999999 4.000999927520752
    vertex -5.499000072479248 -7.999999999999999 -0.0010000000474974513
    vertex -5.499000072479248 -4.000000000000001 -0.0010000000474974513
  endloop
endfacet
facet normal 1.0 -0.0 -0.0
  outer loop
    vertex -5.499000072479248 -7.999999999999999 4.000999927520752
    vertex -5.499000072479248 -4.000000000000001 -0.0010000000474974513
    vertex -5.499000072479248 -4.000000000000001 4.000999927520752
  endloop
endfacet
facet normal 1.0 -0.0 -0.0
  outer loop
    vertex -5.499000072479248 -7.999999999999999 -0.0010000000474974513
    vertex -5.499000072479248 -12.999999999999998 3.9999999999999996
    vertex -5.499000072479248 -12.999999999999998 -0.0010000000474974513
  endloop
endfacet
facet normal -0.0 1.0 -0.0
  outer loop
    vertex 10.501000404357908 -12.999999999999998 3.9999999999999996
    vertex 10.501000404357908 -12.999999999999998 -0.0010000000474974513
    vertex -5.499000072479248 -12.999999999999998 3.9999999999999996
  endloop
endfacet
facet normal -0.0 1.0 -0.0
  outer loop
    vertex -5.499000072479248 -12.999999999999998 3.9999999999999996
    vertex 10.501000404357908 -12.999999999999998 -0.0010000000474974513
    vertex -5.499000072479248 -12.999999999999998 -0.0010000000474974513
  endloop
endfacet
facet normal -0.1954154270123366 -0.9807205569812255 -1.451835216745367e-07
  outer loop
    vertex 9.50701904296875 -14.498000144958494 1.9989999532699583
    vertex 9.501999855041504 -14.496999740600586 -0.0010000000474974513
    vertex 9.60200023651123 -14.516925811767578 1.9989999532699583
  endloop
endfacet
facet normal -0.1954124706840523 -0.9807211460456355 -2.988693730313118e-07
  outer loop
    vertex 9.60200023651123 -14.516925811767578 1.9989999532699583
    vertex 9.501999855041504 -14.496999740600586 -0.0010000000474974513
    vertex 10.842000007629395 -14.763999938964844 -0.0010000000474974513
  endloop
endfacet
facet normal -0.20973539594510734 -0.977714452519851 0.009247325102792614
  outer loop
    vertex 9.60200023651123 -14.498000144958494 3.9999999999999996
    vertex 9.60200023651123 -14.516925811767578 1.9989999532699583
    vertex 10.842000007629395 -14.763999938964844 3.9999999999999996
  endloop
endfacet
facet normal -0.1954070208152858 -0.9806783692666741 0.009275358136021136
  outer loop
    vertex 9.60200023651123 -14.498000144958494 3.9999999999999996
    vertex 9.50701904296875 -14.498000144958494 1.9989999532699583
    vertex 9.60200023651123 -14.516925811767578 1.9989999532699583
  endloop
endfacet
facet normal 0.0 -1.0 0.0
  outer loop
    vertex 9.50701904296875 -14.498000144958494 3.9999999999999996
    vertex 9.50701904296875 -14.498000144958494 1.9989999532699583
    vertex 9.60200023651123 -14.498000144958494 3.9999999999999996
  endloop
endfacet
facet normal -0.1947087729487346 0.9808610980850655 -3.967780590647986e-07
  outer loop
    vertex 9.60200023651123 -21.4831485748291 1.9989999532699583
    vertex 10.842000007629395 -21.236999511718746 -0.0010000000474974513
    vertex 9.501999855041504 -21.503000259399414 -0.0010000000474974513
  endloop
endfacet
facet normal -0.1947164076138566 0.980859582512173 -7.914984060321536e-19
  outer loop
    vertex 9.60200023651123 -21.4831485748291 1.9989999532699583
    vertex 9.501999855041504 -21.503000259399414 -0.0010000000474974513
    vertex 9.501999855041504 -21.503000259399414 1.9989999532699583
  endloop
endfacet
facet normal 0.0 0.0 -1.0
  outer loop
    vertex 7.026000022888184 -20.476999282836914 -0.0010000000474974513
    vertex -5.499000072479248 -23.000999450683594 -0.0010000000474974513
    vertex 6.267000198364257 -19.34099960327148 -0.0010000000474974513
  endloop
endfacet
facet normal 0.0 0.0 -1.0
  outer loop
    vertex 8.161999702453612 -21.236999511718746 -0.0010000000474974513
    vertex -5.499000072479248 -23.000999450683594 -0.0010000000474974513
    vertex 7.026000022888184 -20.476999282836914 -0.0010000000474974513
  endloop
endfacet
facet normal 0.0 0.0 -1.0
  outer loop
    vertex 10.501000404357908 -23.000999450683594 -0.0010000000474974513
    vertex -5.499000072479248 -23.000999450683594 -0.0010000000474974513
    vertex 8.161999702453612 -21.236999511718746 -0.0010000000474974513
  endloop
endfacet
facet normal 0.0 0.0 -1.0
  outer loop
    vertex 10.501000404357908 -22.801740646362305 -0.0010000000474974513
    vertex 8.161999702453612 -21.236999511718746 -0.0010000000474974513
    vertex 9.501999855041504 -21.503000259399414 -0.0010000000474974513
  endloop
endfacet
facet normal 0.0 0.0 -1.0
  outer loop
    vertex 10.842000007629395 -21.236999511718746 -0.0010000000474974513
    vertex 10.501000404357908 -22.801740646362305 -0.0010000000474974513
    vertex 9.501999855041504 -21.503000259399414 -0.0010000000474974513
  endloop
endfacet
facet normal 0.0 0.0 -1.0
  outer loop
    vertex 10.501000404357908 -23.000999450683594 -0.0010000000474974513
    vertex 8.161999702453612 -21.236999511718746 -0.0010000000474974513
    vertex 10.501000404357908 -22.801740646362305 -0.0010000000474974513
  endloop
endfacet
facet normal -0.19470815724594648 0.980861220306873 1.3171453350925216e-18
  outer loop
    vertex 10.842000007629395 -21.236999511718746 3.9999999999999996
    vertex 10.842000007629395 -21.236999511718746 -0.0010000000474974513
    vertex 9.60200023651123 -21.4831485748291 1.9989999532699583
  endloop
endfacet
facet normal -0.20973521580360502 0.9777101074321277 0.00969974622722625
  outer loop
    vertex 10.842000007629395 -21.236999511718746 3.9999999999999996
    vertex 9.60200023651123 -21.4831485748291 1.9989999532699583
    vertex 9.60200023651123 -21.503000259399414 3.9999999999999996
  endloop
endfacet
facet normal 0.0 0.0 -1.0
  outer loop
    vertex 6.267000198364257 -16.65999984741211 -0.0010000000474974513
    vertex 6.0 -17.999999999999996 -0.0010000000474974513
    vertex -5.499000072479248 -12.999999999999998 -0.0010000000474974513
  endloop
endfacet
facet normal 0.0 0.0 -1.0
  outer loop
    vertex 6.267000198364257 -19.34099960327148 -0.0010000000474974513
    vertex -5.499000072479248 -23.000999450683594 -0.0010000000474974513
    vertex 6.0 -17.999999999999996 -0.0010000000474974513
  endloop
endfacet
facet normal 0.0 0.0 -1.0
  outer loop
    vertex 7.026000022888184 -15.52400016784668 -0.0010000000474974513
    vertex 6.267000198364257 -16.65999984741211 -0.0010000000474974513
    vertex -5.499000072479248 -12.999999999999998 -0.0010000000474974513
  endloop
endfacet
facet normal 0.0 0.0 -1.0
  outer loop
    vertex 10.501000404357908 -12.999999999999998 -0.0010000000474974513
    vertex 8.161999702453612 -14.763999938964844 -0.0010000000474974513
    vertex -5.499000072479248 -12.999999999999998 -0.0010000000474974513
  endloop
endfacet
facet normal 0.19470877294874972 0.9808610980851429 -0.0
  outer loop
    vertex 9.501999855041504 -21.503000259399414 1.9989999532699583
    vertex 8.161999702453612 -21.236999511718746 -0.0010000000474974513
    vertex 8.161999702453612 -21.236999511718746 1.9989999532699583
  endloop
endfacet
facet normal 0.19470877294874972 0.9808610980851429 -1.8055282226039907e-17
  outer loop
    vertex 9.501999855041504 -21.503000259399414 1.9989999532699583
    vertex 9.501999855041504 -21.503000259399414 -0.0010000000474974513
    vertex 8.161999702453612 -21.236999511718746 -0.0010000000474974513
  endloop
endfacet
facet normal 0.5560504185629189 0.8311485619406451 -0.0
  outer loop
    vertex 8.161999702453612 -21.236999511718746 1.9989999532699583
    vertex 7.026000022888184 -20.476999282836914 -0.0010000000474974513
    vertex 7.026000022888184 -20.476999282836914 1.9989999532699583
  endloop
endfacet
facet normal 0.556050418562919 0.8311485619406451 -0.0
  outer loop
    vertex 8.161999702453612 -21.236999511718746 1.9989999532699583
    vertex 8.161999702453612 -21.236999511718746 -0.0010000000474974513
    vertex 7.026000022888184 -20.476999282836914 -0.0010000000474974513
  endloop
endfacet
facet normal -0.0 -0.0 1.0
  outer loop
    vertex 8.161999702453612 -21.236999511718746 1.9989999532699583
    vertex 7.026000022888184 -20.476999282836914 1.9989999532699583
    vertex -5.499000072479248 -21.503000259399414 1.9989999532699583
  endloop
endfacet
facet normal 0.8314868198673243 0.5555444792155921 -0.0
  outer loop
    vertex 6.267000198364257 -19.34099960327148 1.9989999532699583
    vertex 7.026000022888184 -20.476999282836914 1.9989999532699583
    vertex 6.267000198364257 -19.34099960327148 -0.0010000000474974513
  endloop
endfacet
facet normal 0.8314868198673243 0.5555444792155921 4.259272380327078e-17
  outer loop
    vertex 6.267000198364257 -19.34099960327148 -0.0010000000474974513
    vertex 7.026000022888184 -20.476999282836914 1.9989999532699583
    vertex 7.026000022888184 -20.476999282836914 -0.0010000000474974513
  endloop
endfacet
facet normal -0.0 -0.0 1.0
  outer loop
    vertex 9.501999855041504 -21.503000259399414 1.9989999532699583
    vertex 8.161999702453612 -21.236999511718746 1.9989999532699583
    vertex -5.499000072479248 -21.503000259399414 1.9989999532699583
  endloop
endfacet
facet normal -0.0 -0.0 1.0
  outer loop
    vertex 7.026000022888184 -20.476999282836914 1.9989999532699583
    vertex 6.267000198364257 -19.34099960327148 1.9989999532699583
    vertex -5.499000072479248 -21.503000259399414 1.9989999532699583
  endloop
endfacet
facet normal 0.9807490483116467 0.19527238472400427 1.802631946035981e-17
  outer loop
    vertex 6.0 -17.999999999999996 1.9989999532699583
    vertex 6.267000198364257 -19.34099960327148 1.9989999532699583
    vertex 6.267000198364257 -19.34099960327148 -0.0010000000474974513
  endloop
endfacet
facet normal 0.9807490483116467 0.19527238472400427 1.802631946035981e-17
  outer loop
    vertex 6.0 -17.999999999999996 1.9989999532699583
    vertex 6.267000198364257 -19.34099960327148 -0.0010000000474974513
    vertex 6.0 -17.999999999999996 -0.0010000000474974513
  endloop
endfacet
facet normal -0.0 -0.0 1.0
  outer loop
    vertex 6.267000198364257 -19.34099960327148 1.9989999532699583
    vertex 6.0 -17.999999999999996 1.9989999532699583
    vertex -5.499000072479248 -21.503000259399414 1.9989999532699583
  endloop
endfacet
facet normal 0.9807211460456794 -0.19541247068406115 1.8052706047235915e-17
  outer loop
    vertex 6.267000198364257 -16.65999984741211 1.9989999532699583
    vertex 6.0 -17.999999999999996 1.9989999532699583
    vertex 6.267000198364257 -16.65999984741211 -0.0010000000474974513
  endloop
endfacet
facet normal 0.9807211460456794 -0.1954124706840612 -0.0
  outer loop
    vertex 6.267000198364257 -16.65999984741211 -0.0010000000474974513
    vertex 6.0 -17.999999999999996 1.9989999532699583
    vertex 6.0 -17.999999999999996 -0.0010000000474974513
  endloop
endfacet
facet normal 0.8314868198673243 -0.5555444792155921 -0.0
  outer loop
    vertex 7.026000022888184 -15.52400016784668 1.9989999532699583
    vertex 6.267000198364257 -16.65999984741211 1.9989999532699583
    vertex 7.026000022888184 -15.52400016784668 -0.0010000000474974513
  endloop
endfacet
facet normal 0.8314868198673245 -0.555544479215592 8.518544760654155e-17
  outer loop
    vertex 7.026000022888184 -15.52400016784668 -0.0010000000474974513
    vertex 6.267000198364257 -16.65999984741211 1.9989999532699583
    vertex 6.267000198364257 -16.65999984741211 -0.0010000000474974513
  endloop
endfacet
facet normal 0.556050418562919 -0.8311485619406451 0.0
  outer loop
    vertex 7.026000022888184 -15.52400016784668 1.9989999532699583
    vertex 8.161999702453612 -14.763999938964844 -0.0010000000474974513
    vertex 8.161999702453612 -14.763999938964844 1.9989999532699583
  endloop
endfacet
facet normal 0.556050418562919 -0.8311485619406451 4.2575396617678685e-17
  outer loop
    vertex 7.026000022888184 -15.52400016784668 1.9989999532699583
    vertex 7.026000022888184 -15.52400016784668 -0.0010000000474974513
    vertex 8.161999702453612 -14.763999938964844 -0.0010000000474974513
  endloop
endfacet
facet normal 0.1940089098269874 -0.9809997670273647 0.0
  outer loop
    vertex 8.161999702453612 -14.763999938964844 1.9989999532699583
    vertex 8.161999702453612 -14.763999938964844 -0.0010000000474974513
    vertex 9.50701904296875 -14.498000144958494 1.9989999532699583
  endloop
endfacet
facet normal 0.19541237666219952 -0.9807206741759608 -0.0009809643619539423
  outer loop
    vertex 9.50701904296875 -14.498000144958494 1.9989999532699583
    vertex 8.161999702453612 -14.763999938964844 -0.0010000000474974513
    vertex 9.501999855041504 -14.496999740600586 -0.0010000000474974513
  endloop
endfacet
facet normal 0.0 -1.0 0.0
  outer loop
    vertex 9.50701904296875 -14.498000144958494 3.9999999999999996
    vertex -5.499000072479248 -14.498000144958494 1.9989999532699583
    vertex 9.50701904296875 -14.498000144958494 1.9989999532699583
  endloop
endfacet
facet normal -0.0 -0.0 1.0
  outer loop
    vertex 8.161999702453612 -14.763999938964844 1.9989999532699583
    vertex -5.499000072479248 -14.498000144958494 1.9989999532699583
    vertex 7.026000022888184 -15.52400016784668 1.9989999532699583
  endloop
endfacet
facet normal -0.0 -0.0 1.0
  outer loop
    vertex 9.50701904296875 -14.498000144958494 1.9989999532699583
    vertex -5.499000072479248 -14.498000144958494 1.9989999532699583
    vertex 8.161999702453612 -14.763999938964844 1.9989999532699583
  endloop
endfacet
facet normal -0.1947071892058974 0.9808131459334938 0.009730531104837485
  outer loop
    vertex 9.60200023651123 -21.503000259399414 3.9999999999999996
    vertex 9.60200023651123 -21.4831485748291 1.9989999532699583
    vertex 9.501999855041504 -21.503000259399414 1.9989999532699583
  endloop
endfacet
facet normal -0.0 1.0 -0.0
  outer loop
    vertex -5.499000072479248 -21.503000259399414 3.9999999999999996
    vertex 9.501999855041504 -21.503000259399414 1.9989999532699583
    vertex -5.499000072479248 -21.503000259399414 1.9989999532699583
  endloop
endfacet
facet normal -0.0 1.0 -0.0
  outer loop
    vertex 9.60200023651123 -21.503000259399414 3.9999999999999996
    vertex 9.501999855041504 -21.503000259399414 1.9989999532699583
    vertex -5.499000072479248 -21.503000259399414 3.9999999999999996
  endloop
endfacet
facet normal 1.0 -0.0 -0.0
  outer loop
    vertex -5.499000072479248 -14.498000144958494 1.9989999532699583
    vertex -5.499000072479248 -21.503000259399414 3.9999999999999996
    vertex -5.499000072479248 -21.503000259399414 1.9989999532699583
  endloop
endfacet
facet normal 1.0 -0.0 -0.0
  outer loop
    vertex -5.499000072479248 -14.498000144958494 3.9999999999999996
    vertex -5.499000072479248 -21.503000259399414 3.9999999999999996
    vertex -5.499000072479248 -14.498000144958494 1.9989999532699583
  endloop
endfacet
facet normal 0.0 -1.0 0.0
  outer loop
    vertex -5.499000072479248 -14.498000144958494 3.9999999999999996
    vertex -5.499000072479248 -14.498000144958494 1.9989999532699583
    vertex 9.50701904296875 -14.498000144958494 3.9999999999999996
  endloop
endfacet
facet normal -0.0 -0.0 1.0
  outer loop
    vertex 6.0 -17.999999999999996 1.9989999532699583
    vertex -5.499000072479248 -14.498000144958494 1.9989999532699583
    vertex -5.499000072479248 -21.503000259399414 1.9989999532699583
  endloop
endfacet
facet normal -0.0 -0.0 1.0
  outer loop
    vertex 6.267000198364257 -16.65999984741211 1.9989999532699583
    vertex -5.499000072479248 -14.498000144958494 1.9989999532699583
    vertex 6.0 -17.999999999999996 1.9989999532699583
  endloop
endfacet
facet normal -0.0 -0.0 1.0
  outer loop
    vertex 7.026000022888184 -15.52400016784668 1.9989999532699583
    vertex -5.499000072479248 -14.498000144958494 1.9989999532699583
    vertex 6.267000198364257 -16.65999984741211 1.9989999532699583
  endloop
endfacet
facet normal -0.0 1.0 -0.0
  outer loop
    vertex -5.499000072479248 -4.000000000000001 4.000999927520752
    vertex -5.499000072479248 -4.000000000000001 -0.0010000000474974513
    vertex -14.50100040435791 -4.000000000000001 -0.0010000000474974513
  endloop
endfacet
facet normal -0.0 1.0 -0.0
  outer loop
    vertex -5.499000072479248 -4.000000000000001 4.000999927520752
    vertex -14.50100040435791 -4.000000000000001 -0.0010000000474974513
    vertex -14.50100040435791 -4.000000000000001 4.000999927520752
  endloop
endfacet
facet normal 0.0 -1.0 0.0
  outer loop
    vertex -14.50100040435791 -30.999999999999993 4.000999927520752
    vertex -5.499000072479248 -30.999999999999993 -0.0010000000474974513
    vertex -5.499000072479248 -30.999999999999993 4.000999927520752
  endloop
endfacet
facet normal 0.0 -1.0 0.0
  outer loop
    vertex -14.50100040435791 -30.999999999999993 4.000999927520752
    vertex -14.50100040435791 -30.999999999999993 -0.0010000000474974513
    vertex -5.499000072479248 -30.999999999999993 -0.0010000000474974513
  endloop
endfacet
endsolid Auto Bed Servo Arm 27mm
