solid OpenSCAD_Model
  facet normal 2.44921e-16 1 0
    outer loop
      vertex 2 48.5 0
      vertex -48 48.5 0
      vertex 2 48.5 2
    endloop
  endfacet
  facet normal 2.44921e-16 1 0
    outer loop
      vertex 2 48.5 2
      vertex -48 48.5 0
      vertex -48 48.5 2
    endloop
  endfacet
  facet normal 0 0 -1
    outer loop
      vertex -42 42.5 0
      vertex -48 48.5 0
      vertex -4 42.5 0
    endloop
  endfacet
  facet normal 0 0 -1
    outer loop
      vertex -4 8 0
      vertex 2 8 0
      vertex 2 -14 0
    endloop
  endfacet
  facet normal 0 0 -1
    outer loop
      vertex -9.2 -8 0
      vertex 2 -14 0
      vertex -9.2 -14 0
    endloop
  endfacet
  facet normal 0 0 -1
    outer loop
      vertex -9.2 -2 0
      vertex 2 -14 0
      vertex -9.2 -8 0
    endloop
  endfacet
  facet normal 0 0 -1
    outer loop
      vertex -36.8 -2 0
      vertex -36.8 -8 0
      vertex -42 8 0
    endloop
  endfacet
  facet normal 0 0 -1
    outer loop
      vertex -42 8 0
      vertex -36.8 -14 0
      vertex -48 -14 0
    endloop
  endfacet
  facet normal 0 0 -1
    outer loop
      vertex -48 48.5 0
      vertex -48 -14 0
      vertex -48 8 0
    endloop
  endfacet
  facet normal 0 0 -1
    outer loop
      vertex -9.2 8 0
      vertex -4 8 0
      vertex 2 -14 0
    endloop
  endfacet
  facet normal 0 0 -1
    outer loop
      vertex 2 48.5 0
      vertex 2 8 0
      vertex -4 42.5 0
    endloop
  endfacet
  facet normal 0 0 -1
    outer loop
      vertex 2 48.5 0
      vertex -4 42.5 0
      vertex -48 48.5 0
    endloop
  endfacet
  facet normal 0 0 -1
    outer loop
      vertex -42 8 0
      vertex -48 48.5 0
      vertex -42 42.5 0
    endloop
  endfacet
  facet normal 0 0 -1
    outer loop
      vertex -36.8 -8 0
      vertex -36.8 -14 0
      vertex -42 8 0
    endloop
  endfacet
  facet normal 0 0 -1
    outer loop
      vertex -48 48.5 0
      vertex -42 8 0
      vertex -48 -14 0
    endloop
  endfacet
  facet normal 0 0 -1
    outer loop
      vertex -4 42.5 0
      vertex 2 8 0
      vertex -4 8 0
    endloop
  endfacet
  facet normal 0 0 -1
    outer loop
      vertex -36.8 8 0
      vertex -36.8 -2 0
      vertex -42 8 0
    endloop
  endfacet
  facet normal 0 0 -1
    outer loop
      vertex -36.8 -8 0
      vertex -36.8 -2 0
      vertex -9.2 -8 0
    endloop
  endfacet
  facet normal 0 0 -1
    outer loop
      vertex -9.2 8 0
      vertex 2 -14 0
      vertex -9.2 -2 0
    endloop
  endfacet
  facet normal 0 0 -1
    outer loop
      vertex -9.2 -2 0
      vertex -9.2 -8 0
      vertex -36.8 -2 0
    endloop
  endfacet
  facet normal 1 -2.44921e-16 0
    outer loop
      vertex 2 8 0
      vertex 2 48.5 0
      vertex 2 48.5 2
    endloop
  endfacet
  facet normal 1 -2.44921e-16 0
    outer loop
      vertex 2 8 2
      vertex 2 8 0
      vertex 2 48.5 2
    endloop
  endfacet
  facet normal 0 0 1
    outer loop
      vertex -4 42.5 2
      vertex 2 48.5 2
      vertex -48 48.5 2
    endloop
  endfacet
  facet normal 0 0 1
    outer loop
      vertex -48 8 2
      vertex -42 8 2
      vertex -48 48.5 2
    endloop
  endfacet
  facet normal 0 0 1
    outer loop
      vertex -42 8 2
      vertex -42 42.5 2
      vertex -48 48.5 2
    endloop
  endfacet
  facet normal 0 0 1
    outer loop
      vertex 2 8 2
      vertex 2 48.5 2
      vertex -4 42.5 2
    endloop
  endfacet
  facet normal 0 0 1
    outer loop
      vertex -4 8 2
      vertex 2 8 2
      vertex -4 42.5 2
    endloop
  endfacet
  facet normal 0 0 1
    outer loop
      vertex -42 42.5 2
      vertex -4 42.5 2
      vertex -48 48.5 2
    endloop
  endfacet
  facet normal -1 2.44921e-16 0
    outer loop
      vertex -48 48.5 0
      vertex -48 8 0
      vertex -48 48.5 2
    endloop
  endfacet
  facet normal -1 2.44921e-16 0
    outer loop
      vertex -48 48.5 2
      vertex -48 8 0
      vertex -48 8 2
    endloop
  endfacet
  facet normal -1 1.22461e-16 0
    outer loop
      vertex -48 8 0
      vertex -48 -14 0
      vertex -48 8 2
    endloop
  endfacet
  facet normal -1 1.22461e-16 0
    outer loop
      vertex -48 8 2
      vertex -48 -14 0
      vertex -48 -14 1.11022e-14
    endloop
  endfacet
  facet normal -1 1.22461e-16 0
    outer loop
      vertex -48 8 2
      vertex -48 -14 1.11022e-14
      vertex -48 -11.9294 0.272593
    endloop
  endfacet
  facet normal -1 1.22461e-16 0
    outer loop
      vertex -48 8 2
      vertex -48 -11.9294 0.272593
      vertex -48 -10 1.0718
    endloop
  endfacet
  facet normal -1 1.22461e-16 0
    outer loop
      vertex -48 -10 1.0718
      vertex -48 -8.34315 2.34315
      vertex -48 8 2
    endloop
  endfacet
  facet normal -1 1.22461e-16 0
    outer loop
      vertex -48 -8.34315 2.34315
      vertex -48 -7.0718 4
      vertex -48 8 2
    endloop
  endfacet
  facet normal -1 1.22461e-16 0
    outer loop
      vertex -48 -7.0718 4
      vertex -48 -6.27259 5.92945
      vertex -48 8 2
    endloop
  endfacet
  facet normal -1 1.22461e-16 0
    outer loop
      vertex -48 -6.27259 5.92945
      vertex -48 -6 8
      vertex -48 8 2
    endloop
  endfacet
  facet normal -1 1.22461e-16 0
    outer loop
      vertex -48 -6 8
      vertex -48 -14 8
      vertex -48 -14 16
    endloop
  endfacet
  facet normal -1 1.22461e-16 0
    outer loop
      vertex -48 -6 8
      vertex -48 -14 16
      vertex -48 8 2
    endloop
  endfacet
  facet normal -1 1.22461e-16 0
    outer loop
      vertex -48 8 2
      vertex -48 -14 16
      vertex -48 -8 16
    endloop
  endfacet
  facet normal -1 1.22461e-16 0
    outer loop
      vertex -48 8 2
      vertex -48 -8 16
      vertex -48 -8 162
    endloop
  endfacet
  facet normal -1 1.22461e-16 0
    outer loop
      vertex -48 8 2
      vertex -48 -8 162
      vertex -48 8 162
    endloop
  endfacet
  facet normal -1.22461e-16 -1 0
    outer loop
      vertex -48 -14 0
      vertex -36.8 -14 0
      vertex -36.8 -14 8.61533e-15
    endloop
  endfacet
  facet normal -1.22461e-16 -1 0
    outer loop
      vertex -48 -14 1.11022e-14
      vertex -48 -14 0
      vertex -36.8 -14 8.61533e-15
    endloop
  endfacet
  facet normal 1 -1.22461e-16 0
    outer loop
      vertex -36.8 -17 2.80385
      vertex -36.8 -20.9282 4
      vertex -36.8 -15.5529 2.20445
    endloop
  endfacet
  facet normal 1 -1.22461e-16 0
    outer loop
      vertex -36.8 -15.5529 2.20445
      vertex -36.8 -19.6569 2.34315
      vertex -36.8 -14 2
    endloop
  endfacet
  facet normal 1 -1.22461e-16 0
    outer loop
      vertex -36.8 -8 2
      vertex -36.8 -14 2
      vertex -36.8 -18 1.0718
    endloop
  endfacet
  facet normal 1 -1.22461e-16 0
    outer loop
      vertex -36.8 -18.2426 3.75736
      vertex -36.8 -21.7274 5.92945
      vertex -36.8 -17 2.80385
    endloop
  endfacet
  facet normal 1 -1.22461e-16 0
    outer loop
      vertex -36.8 -19.1962 5
      vertex -36.8 -22 8
      vertex -36.8 -18.2426 3.75736
    endloop
  endfacet
  facet normal 1 -1.22461e-16 0
    outer loop
      vertex -36.8 -19.7956 6.44709
      vertex -36.8 -21.7274 10.0706
      vertex -36.8 -19.1962 5
    endloop
  endfacet
  facet normal 1 -1.22461e-16 0
    outer loop
      vertex -36.8 -20 8
      vertex -36.8 -20.9282 12
      vertex -36.8 -19.7956 6.44709
    endloop
  endfacet
  facet normal 1 -1.22461e-16 0
    outer loop
      vertex -36.8 -14 8.61533e-15
      vertex -36.8 -14 0
      vertex -36.8 -8 2
    endloop
  endfacet
  facet normal 1 -1.22461e-16 0
    outer loop
      vertex -36.8 -20 13.2097
      vertex -36.8 -20.9282 12
      vertex -36.8 -20 8
    endloop
  endfacet
  facet normal 1 -1.22461e-16 0
    outer loop
      vertex -36.8 -20.9282 12
      vertex -36.8 -21.7274 10.0706
      vertex -36.8 -19.7956 6.44709
    endloop
  endfacet
  facet normal 1 -1.22461e-16 0
    outer loop
      vertex -36.8 -21.7274 10.0706
      vertex -36.8 -22 8
      vertex -36.8 -19.1962 5
    endloop
  endfacet
  facet normal 1 -1.22461e-16 0
    outer loop
      vertex -36.8 -22 8
      vertex -36.8 -21.7274 5.92945
      vertex -36.8 -18.2426 3.75736
    endloop
  endfacet
  facet normal 1 -1.22461e-16 0
    outer loop
      vertex -36.8 -21.7274 5.92945
      vertex -36.8 -20.9282 4
      vertex -36.8 -17 2.80385
    endloop
  endfacet
  facet normal 1 -1.22461e-16 0
    outer loop
      vertex -36.8 -20.9282 4
      vertex -36.8 -19.6569 2.34315
      vertex -36.8 -15.5529 2.20445
    endloop
  endfacet
  facet normal 1 -1.22461e-16 0
    outer loop
      vertex -36.8 -19.6569 2.34315
      vertex -36.8 -18 1.0718
      vertex -36.8 -14 2
    endloop
  endfacet
  facet normal 1 -1.22461e-16 0
    outer loop
      vertex -36.8 -18 1.0718
      vertex -36.8 -16.0706 0.272593
      vertex -36.8 -8 2
    endloop
  endfacet
  facet normal 1 -1.22461e-16 0
    outer loop
      vertex -36.8 -16.0706 0.272593
      vertex -36.8 -14 8.61533e-15
      vertex -36.8 -8 2
    endloop
  endfacet
  facet normal 1 -1.22461e-16 0
    outer loop
      vertex -36.8 -14 0
      vertex -36.8 -8 0
      vertex -36.8 -8 2
    endloop
  endfacet
  facet normal -1.22461e-16 -1 0
    outer loop
      vertex -9.2 -8 2
      vertex -36.8 -8 2
      vertex -36.8 -8 0
    endloop
  endfacet
  facet normal -1.22461e-16 -1 0
    outer loop
      vertex -9.2 -8 0
      vertex -9.2 -8 2
      vertex -36.8 -8 0
    endloop
  endfacet
  facet normal -1 1.22461e-16 0
    outer loop
      vertex -9.2 -14 2.4869e-15
      vertex -9.2 -16.0706 0.272593
      vertex -9.2 -18 1.0718
    endloop
  endfacet
  facet normal -1 1.22461e-16 0
    outer loop
      vertex -9.2 -14 2.4869e-15
      vertex -9.2 -18 1.0718
      vertex -9.2 -19.6569 2.34315
    endloop
  endfacet
  facet normal -1 1.22461e-16 0
    outer loop
      vertex -9.2 -14 2.4869e-15
      vertex -9.2 -19.6569 2.34315
      vertex -9.2 -20.9282 4
    endloop
  endfacet
  facet normal -1 1.22461e-16 0
    outer loop
      vertex -9.2 -14 2.4869e-15
      vertex -9.2 -20.9282 4
      vertex -9.2 -21.7274 5.92945
    endloop
  endfacet
  facet normal -1 1.22461e-16 0
    outer loop
      vertex -9.2 -19.1962 5
      vertex -9.2 -21.7274 5.92945
      vertex -9.2 -22 8
    endloop
  endfacet
  facet normal -1 1.22461e-16 0
    outer loop
      vertex -9.2 -19.7956 6.44709
      vertex -9.2 -22 8
      vertex -9.2 -21.7274 10.0706
    endloop
  endfacet
  facet normal -1 1.22461e-16 0
    outer loop
      vertex -9.2 -20 8
      vertex -9.2 -21.7274 10.0706
      vertex -9.2 -20.9282 12
    endloop
  endfacet
  facet normal -1 1.22461e-16 0
    outer loop
      vertex -9.2 -19.7956 6.44709
      vertex -9.2 -21.7274 10.0706
      vertex -9.2 -20 8
    endloop
  endfacet
  facet normal -1 1.22461e-16 0
    outer loop
      vertex -9.2 -19.1962 5
      vertex -9.2 -22 8
      vertex -9.2 -19.7956 6.44709
    endloop
  endfacet
  facet normal -1 1.22461e-16 0
    outer loop
      vertex -9.2 -18.2426 3.75736
      vertex -9.2 -21.7274 5.92945
      vertex -9.2 -19.1962 5
    endloop
  endfacet
  facet normal -1 1.22461e-16 0
    outer loop
      vertex -9.2 -15.5529 2.20445
      vertex -9.2 -14 2.4869e-15
      vertex -9.2 -17 2.80385
    endloop
  endfacet
  facet normal -1 1.22461e-16 0
    outer loop
      vertex -9.2 -14 2.4869e-15
      vertex -9.2 -21.7274 5.92945
      vertex -9.2 -18.2426 3.75736
    endloop
  endfacet
  facet normal -1 1.22461e-16 0
    outer loop
      vertex -9.2 -14 2.4869e-15
      vertex -9.2 -18.2426 3.75736
      vertex -9.2 -17 2.80385
    endloop
  endfacet
  facet normal -1 1.22461e-16 0
    outer loop
      vertex -9.2 -14 2
      vertex -9.2 -14 2.4869e-15
      vertex -9.2 -15.5529 2.20445
    endloop
  endfacet
  facet normal -1 1.22461e-16 0
    outer loop
      vertex -9.2 -14 2.4869e-15
      vertex -9.2 -8 2
      vertex -9.2 -14 0
    endloop
  endfacet
  facet normal -1 1.22461e-16 0
    outer loop
      vertex -9.2 -14 2
      vertex -9.2 -8 2
      vertex -9.2 -14 2.4869e-15
    endloop
  endfacet
  facet normal -1 1.22461e-16 0
    outer loop
      vertex -9.2 -8 2
      vertex -9.2 -8 0
      vertex -9.2 -14 0
    endloop
  endfacet
  facet normal -1 1.22461e-16 0
    outer loop
      vertex -9.2 -20 8
      vertex -9.2 -20.9282 12
      vertex -9.2 -20 13.2097
    endloop
  endfacet
  facet normal -1.22461e-16 -1 0
    outer loop
      vertex -9.2 -14 0
      vertex 2 -14 0
      vertex -9.2 -14 2.4869e-15
    endloop
  endfacet
  facet normal -2.36129e-16 -0.130526 -0.991445
    outer loop
      vertex 2 -16.0706 0.272593
      vertex -9.2 -16.0706 0.272593
      vertex 2 -14 0
    endloop
  endfacet
  facet normal -2.36129e-16 -0.130526 -0.991445
    outer loop
      vertex 2 -14 0
      vertex -9.2 -16.0706 0.272593
      vertex -9.2 -14 2.4869e-15
    endloop
  endfacet
  facet normal 1 -1.22461e-16 -2.22045e-16
    outer loop
      vertex 2 -11.9294 15.7274
      vertex 2 -14 16
      vertex 2 -16.0706 15.7274
    endloop
  endfacet
  facet normal 1 -1.22461e-16 -2.22045e-16
    outer loop
      vertex 2 -19.6569 13.6569
      vertex 2 -11.9294 15.7274
      vertex 2 -18 14.9282
    endloop
  endfacet
  facet normal 1 -1.22461e-16 -2.22045e-16
    outer loop
      vertex 2 -18 14.9282
      vertex 2 -11.9294 15.7274
      vertex 2 -16.0706 15.7274
    endloop
  endfacet
  facet normal 1 -1.22461e-16 -2.22045e-16
    outer loop
      vertex 2 -20.9282 12
      vertex 2 -11.9294 15.7274
      vertex 2 -19.6569 13.6569
    endloop
  endfacet
  facet normal 1 -1.22461e-16 -2.22045e-16
    outer loop
      vertex 2 -21.7274 10.0706
      vertex 2 -11.9294 15.7274
      vertex 2 -20.9282 12
    endloop
  endfacet
  facet normal 1 -1.22461e-16 -2.22045e-16
    outer loop
      vertex 2 -22 8
      vertex 2 -11.9294 15.7274
      vertex 2 -21.7274 10.0706
    endloop
  endfacet
  facet normal 1 -1.22461e-16 -2.22045e-16
    outer loop
      vertex 2 -21.7274 5.92945
      vertex 2 -11.9294 15.7274
      vertex 2 -22 8
    endloop
  endfacet
  facet normal 1 -1.22461e-16 -2.22045e-16
    outer loop
      vertex 2 -20.9282 4
      vertex 2 -11.9294 15.7274
      vertex 2 -21.7274 5.92945
    endloop
  endfacet
  facet normal 1 -1.22461e-16 -2.22045e-16
    outer loop
      vertex 2 -19.6569 2.34315
      vertex 2 -11.9294 15.7274
      vertex 2 -20.9282 4
    endloop
  endfacet
  facet normal 1 -1.22461e-16 -2.22045e-16
    outer loop
      vertex 2 -18 1.0718
      vertex 2 -11.9294 15.7274
      vertex 2 -19.6569 2.34315
    endloop
  endfacet
  facet normal 1 -1.22461e-16 -2.22045e-16
    outer loop
      vertex 2 -16.0706 0.272593
      vertex 2 -14 8
      vertex 2 -18 1.0718
    endloop
  endfacet
  facet normal 1 -1.22461e-16 -2.22045e-16
    outer loop
      vertex 2 -14 8
      vertex 2 -11.9294 15.7274
      vertex 2 -18 1.0718
    endloop
  endfacet
  facet normal 1 -1.22461e-16 -2.22045e-16
    outer loop
      vertex 2 -14 0
      vertex 2 -14 8
      vertex 2 -16.0706 0.272593
    endloop
  endfacet
  facet normal 1 -1.22461e-16 -2.22045e-16
    outer loop
      vertex 2 -6.27259 10.0706
      vertex 2 -11.9294 15.7274
      vertex 2 -6 8
    endloop
  endfacet
  facet normal 1 -1.22461e-16 -2.22045e-16
    outer loop
      vertex 2 -7.0718 12
      vertex 2 -11.9294 15.7274
      vertex 2 -6.27259 10.0706
    endloop
  endfacet
  facet normal 1 -1.22461e-16 -2.22045e-16
    outer loop
      vertex 2 -8.34315 13.6569
      vertex 2 -11.9294 15.7274
      vertex 2 -7.0718 12
    endloop
  endfacet
  facet normal 1 -1.22461e-16 -2.22045e-16
    outer loop
      vertex 2 -10 14.9282
      vertex 2 -11.9294 15.7274
      vertex 2 -8.34315 13.6569
    endloop
  endfacet
  facet normal 1 -1.22461e-16 -2.22045e-16
    outer loop
      vertex 2 -14 8
      vertex 2 -6 8
      vertex 2 -11.9294 15.7274
    endloop
  endfacet
  facet normal 1 -1.22461e-16 0
    outer loop
      vertex 2 -8 16
      vertex 2 8 2
      vertex 2 -8 162
    endloop
  endfacet
  facet normal 1 -1.22461e-16 0
    outer loop
      vertex 2 -8 162
      vertex 2 8 2
      vertex 2 8 162
    endloop
  endfacet
  facet normal 1 -1.22461e-16 0
    outer loop
      vertex 2 -10 14.9282
      vertex 2 8 2
      vertex 2 -8 16
    endloop
  endfacet
  facet normal 1 -1.22461e-16 0
    outer loop
      vertex 2 -14 16
      vertex 2 -11.9294 15.7274
      vertex 2 -8 16
    endloop
  endfacet
  facet normal 1 -1.22461e-16 0
    outer loop
      vertex 2 -11.9294 15.7274
      vertex 2 -10 14.9282
      vertex 2 -8 16
    endloop
  endfacet
  facet normal 1 -1.22461e-16 0
    outer loop
      vertex 2 -8.34315 13.6569
      vertex 2 8 2
      vertex 2 -10 14.9282
    endloop
  endfacet
  facet normal 1 -1.22461e-16 0
    outer loop
      vertex 2 -7.0718 12
      vertex 2 -6.27259 10.0706
      vertex 2 8 2
    endloop
  endfacet
  facet normal 1 -1.22461e-16 0
    outer loop
      vertex 2 -6 8
      vertex 2 8 2
      vertex 2 -6.27259 10.0706
    endloop
  endfacet
  facet normal 1 -1.22461e-16 0
    outer loop
      vertex 2 -14 8
      vertex 2 8 2
      vertex 2 -6 8
    endloop
  endfacet
  facet normal 1 -1.22461e-16 0
    outer loop
      vertex 2 -14 0
      vertex 2 8 2
      vertex 2 -14 8
    endloop
  endfacet
  facet normal 1 -1.22461e-16 0
    outer loop
      vertex 2 -8.34315 13.6569
      vertex 2 -7.0718 12
      vertex 2 8 2
    endloop
  endfacet
  facet normal 1 -1.22461e-16 0
    outer loop
      vertex 2 8 0
      vertex 2 8 2
      vertex 2 -14 0
    endloop
  endfacet
  facet normal -1 2.44921e-16 0
    outer loop
      vertex -4 8 2
      vertex -4 42.5 2
      vertex -4 8 0
    endloop
  endfacet
  facet normal -1 2.44921e-16 0
    outer loop
      vertex -4 8 0
      vertex -4 42.5 2
      vertex -4 42.5 0
    endloop
  endfacet
  facet normal 1.22461e-16 1 0
    outer loop
      vertex 2 8 2
      vertex -4 8 2
      vertex 2 8 162
    endloop
  endfacet
  facet normal 1.22461e-16 1 0
    outer loop
      vertex -9.2 8 0
      vertex -4 8 2
      vertex -4 8 0
    endloop
  endfacet
  facet normal 1.22461e-16 1 0
    outer loop
      vertex 2 8 162
      vertex -4 8 2
      vertex -9.2 8 0
    endloop
  endfacet
  facet normal 1.22461e-16 1 0
    outer loop
      vertex 2 8 162
      vertex -9.2 8 0
      vertex -9.2 8 75
    endloop
  endfacet
  facet normal 1.22461e-16 1 0
    outer loop
      vertex -9.2 8 81
      vertex -9.2 8 75
      vertex -36.8 8 75
    endloop
  endfacet
  facet normal 1.22461e-16 1 0
    outer loop
      vertex -36.8 8 75
      vertex -36.8 8 0
      vertex -42 8 0
    endloop
  endfacet
  facet normal 1.22461e-16 1 0
    outer loop
      vertex -36.8 8 75
      vertex -42 8 0
      vertex -42 8 2
    endloop
  endfacet
  facet normal 1.22461e-16 1 0
    outer loop
      vertex -36.8 8 75
      vertex -42 8 2
      vertex -48 8 2
    endloop
  endfacet
  facet normal 1.22461e-16 1 0
    outer loop
      vertex -36.8 8 75
      vertex -48 8 2
      vertex -48 8 162
    endloop
  endfacet
  facet normal 1.22461e-16 1 0
    outer loop
      vertex -9.2 8 156
      vertex -48 8 162
      vertex 2 8 162
    endloop
  endfacet
  facet normal 1.22461e-16 1 0
    outer loop
      vertex 2 8 162
      vertex -9.2 8 75
      vertex -9.2 8 81
    endloop
  endfacet
  facet normal 1.22461e-16 1 0
    outer loop
      vertex -9.2 8 156
      vertex 2 8 162
      vertex -9.2 8 81
    endloop
  endfacet
  facet normal 1.22461e-16 1 0
    outer loop
      vertex -36.8 8 156
      vertex -48 8 162
      vertex -9.2 8 156
    endloop
  endfacet
  facet normal 1.22461e-16 1 0
    outer loop
      vertex -36.8 8 81
      vertex -48 8 162
      vertex -36.8 8 156
    endloop
  endfacet
  facet normal 1.22461e-16 1 0
    outer loop
      vertex -36.8 8 75
      vertex -48 8 162
      vertex -36.8 8 81
    endloop
  endfacet
  facet normal 1.22461e-16 1 0
    outer loop
      vertex -9.2 8 81
      vertex -36.8 8 75
      vertex -36.8 8 81
    endloop
  endfacet
  facet normal -1 1.22461e-16 0
    outer loop
      vertex -9.2 -2 2
      vertex -9.2 -8 2
      vertex -9.2 -6.17263 2.11977
    endloop
  endfacet
  facet normal -1 1.22461e-16 0
    outer loop
      vertex -9.2 -2 2
      vertex -9.2 -6.17263 2.11977
      vertex -9.2 -4.37653 2.47704
    endloop
  endfacet
  facet normal -1 1.22461e-16 0
    outer loop
      vertex -9.2 -2 2
      vertex -9.2 -1 3.87564
      vertex -9.2 -2 0
    endloop
  endfacet
  facet normal -1 1.22461e-16 0
    outer loop
      vertex -9.2 -4.37653 2.47704
      vertex -9.2 -2.64243 3.06569
      vertex -9.2 -2 2
    endloop
  endfacet
  facet normal -1 1.22461e-16 0
    outer loop
      vertex -9.2 -2.64243 3.06569
      vertex -9.2 -1 3.87564
      vertex -9.2 -2 2
    endloop
  endfacet
  facet normal -1 1.22461e-16 0
    outer loop
      vertex -9.2 -1 3.87564
      vertex -9.2 0.52266 4.89305
      vertex -9.2 -2 0
    endloop
  endfacet
  facet normal -1 1.22461e-16 0
    outer loop
      vertex -9.2 0.52266 4.89305
      vertex -9.2 1.8995 6.10051
      vertex -9.2 -2 0
    endloop
  endfacet
  facet normal -1 1.22461e-16 0
    outer loop
      vertex -9.2 1.8995 6.10051
      vertex -9.2 3.10695 7.47734
      vertex -9.2 -2 0
    endloop
  endfacet
  facet normal -1 1.22461e-16 0
    outer loop
      vertex -9.2 3.10695 7.47734
      vertex -9.2 8 0
      vertex -9.2 -2 0
    endloop
  endfacet
  facet normal -1 1.22461e-16 0
    outer loop
      vertex -9.2 4.12436 9
      vertex -9.2 8 0
      vertex -9.2 3.10695 7.47734
    endloop
  endfacet
  facet normal -1 1.22461e-16 0
    outer loop
      vertex -9.2 4.93431 10.6424
      vertex -9.2 8 0
      vertex -9.2 4.12436 9
    endloop
  endfacet
  facet normal -1 1.22461e-16 0
    outer loop
      vertex -9.2 5.52296 12.3765
      vertex -9.2 8 0
      vertex -9.2 4.93431 10.6424
    endloop
  endfacet
  facet normal -1 1.22461e-16 0
    outer loop
      vertex -9.2 5.88023 14.1726
      vertex -9.2 8 0
      vertex -9.2 5.52296 12.3765
    endloop
  endfacet
  facet normal -1 1.22461e-16 0
    outer loop
      vertex -9.2 6 16
      vertex -9.2 6 75
      vertex -9.2 8 75
    endloop
  endfacet
  facet normal -1 1.22461e-16 0
    outer loop
      vertex -9.2 6 16
      vertex -9.2 8 75
      vertex -9.2 8 0
    endloop
  endfacet
  facet normal -1 1.22461e-16 0
    outer loop
      vertex -9.2 6 16
      vertex -9.2 8 0
      vertex -9.2 5.88023 14.1726
    endloop
  endfacet
  facet normal 1.22461e-16 1 0
    outer loop
      vertex -36.8 -2 2
      vertex -9.2 -2 2
      vertex -36.8 -2 0
    endloop
  endfacet
  facet normal 1.22461e-16 1 0
    outer loop
      vertex -36.8 -2 0
      vertex -9.2 -2 2
      vertex -9.2 -2 0
    endloop
  endfacet
  facet normal 1 -1.22461e-16 0
    outer loop
      vertex -36.8 8 75
      vertex -36.8 6 75
      vertex -36.8 6 16
    endloop
  endfacet
  facet normal 1 -1.22461e-16 0
    outer loop
      vertex -36.8 5.88023 14.1726
      vertex -36.8 8 0
      vertex -36.8 6 16
    endloop
  endfacet
  facet normal 1 -1.22461e-16 0
    outer loop
      vertex -36.8 8 0
      vertex -36.8 8 75
      vertex -36.8 6 16
    endloop
  endfacet
  facet normal 1 -1.22461e-16 0
    outer loop
      vertex -36.8 5.52296 12.3765
      vertex -36.8 8 0
      vertex -36.8 5.88023 14.1726
    endloop
  endfacet
  facet normal 1 -1.22461e-16 0
    outer loop
      vertex -36.8 4.93431 10.6424
      vertex -36.8 8 0
      vertex -36.8 5.52296 12.3765
    endloop
  endfacet
  facet normal 1 -1.22461e-16 0
    outer loop
      vertex -36.8 4.12436 9
      vertex -36.8 8 0
      vertex -36.8 4.93431 10.6424
    endloop
  endfacet
  facet normal 1 -1.22461e-16 0
    outer loop
      vertex -36.8 3.10695 7.47734
      vertex -36.8 8 0
      vertex -36.8 4.12436 9
    endloop
  endfacet
  facet normal 1 -1.22461e-16 0
    outer loop
      vertex -36.8 1.8995 6.10051
      vertex -36.8 -2 0
      vertex -36.8 3.10695 7.47734
    endloop
  endfacet
  facet normal 1 -1.22461e-16 0
    outer loop
      vertex -36.8 0.52266 4.89305
      vertex -36.8 -2 2
      vertex -36.8 1.8995 6.10051
    endloop
  endfacet
  facet normal 1 -1.22461e-16 0
    outer loop
      vertex -36.8 -1 3.87564
      vertex -36.8 -2 2
      vertex -36.8 0.52266 4.89305
    endloop
  endfacet
  facet normal 1 -1.22461e-16 0
    outer loop
      vertex -36.8 -2.64243 3.06569
      vertex -36.8 -2 2
      vertex -36.8 -1 3.87564
    endloop
  endfacet
  facet normal 1 -1.22461e-16 0
    outer loop
      vertex -36.8 -4.37653 2.47704
      vertex -36.8 -2 2
      vertex -36.8 -2.64243 3.06569
    endloop
  endfacet
  facet normal 1 -1.22461e-16 0
    outer loop
      vertex -36.8 -6.17263 2.11977
      vertex -36.8 -2 2
      vertex -36.8 -4.37653 2.47704
    endloop
  endfacet
  facet normal 1 -1.22461e-16 0
    outer loop
      vertex -36.8 -8 2
      vertex -36.8 -2 2
      vertex -36.8 -6.17263 2.11977
    endloop
  endfacet
  facet normal 1 -1.22461e-16 0
    outer loop
      vertex -36.8 -2 2
      vertex -36.8 -2 0
      vertex -36.8 1.8995 6.10051
    endloop
  endfacet
  facet normal 1 -1.22461e-16 0
    outer loop
      vertex -36.8 -2 0
      vertex -36.8 8 0
      vertex -36.8 3.10695 7.47734
    endloop
  endfacet
  facet normal 1 -2.44921e-16 0
    outer loop
      vertex -42 42.5 2
      vertex -42 8 2
      vertex -42 8 0
    endloop
  endfacet
  facet normal 1 -2.44921e-16 0
    outer loop
      vertex -42 42.5 0
      vertex -42 42.5 2
      vertex -42 8 0
    endloop
  endfacet
  facet normal -2.44921e-16 -1 0
    outer loop
      vertex -4 42.5 2
      vertex -42 42.5 2
      vertex -42 42.5 0
    endloop
  endfacet
  facet normal -2.44921e-16 -1 0
    outer loop
      vertex -4 42.5 0
      vertex -4 42.5 2
      vertex -42 42.5 0
    endloop
  endfacet
  facet normal 0 0 1
    outer loop
      vertex 7.34764e-16 6 162
      vertex 2 8 162
      vertex -48 8 162
    endloop
  endfacet
  facet normal 0 0 1
    outer loop
      vertex -46 -6 162
      vertex -46 6 162
      vertex -48 8 162
    endloop
  endfacet
  facet normal 0 0 1
    outer loop
      vertex -48 -8 162
      vertex -46 -6 162
      vertex -48 8 162
    endloop
  endfacet
  facet normal 0 0 1
    outer loop
      vertex -48 -8 162
      vertex -36.8 -8 162
      vertex -46 -6 162
    endloop
  endfacet
  facet normal 0 0 1
    outer loop
      vertex -9.2 -6 162
      vertex -9.2 -8 162
      vertex 2 -8 162
    endloop
  endfacet
  facet normal 0 0 1
    outer loop
      vertex 2 -8 162
      vertex 2 8 162
      vertex 7.34764e-16 6 162
    endloop
  endfacet
  facet normal 0 0 1
    outer loop
      vertex -7.34764e-16 -6 162
      vertex -9.2 -6 162
      vertex 2 -8 162
    endloop
  endfacet
  facet normal 0 0 1
    outer loop
      vertex 2 -8 162
      vertex 7.34764e-16 6 162
      vertex -7.34764e-16 -6 162
    endloop
  endfacet
  facet normal 0 0 1
    outer loop
      vertex -36.8 -6 162
      vertex -46 -6 162
      vertex -36.8 -8 162
    endloop
  endfacet
  facet normal 0 0 1
    outer loop
      vertex -46 6 162
      vertex 7.34764e-16 6 162
      vertex -48 8 162
    endloop
  endfacet
  facet normal -1.22461e-16 -1 0
    outer loop
      vertex -36.8 -8 162
      vertex -48 -8 162
      vertex -48 -8 16
    endloop
  endfacet
  facet normal -1.22461e-16 -1 0
    outer loop
      vertex -46 -8 14
      vertex -36.8 -8 162
      vertex -46 -8 16
    endloop
  endfacet
  facet normal -1.22461e-16 -1 0
    outer loop
      vertex -46 -8 16
      vertex -36.8 -8 162
      vertex -48 -8 16
    endloop
  endfacet
  facet normal -1.22461e-16 -1 0
    outer loop
      vertex -36.8 -8 14
      vertex -36.8 -8 162
      vertex -46 -8 14
    endloop
  endfacet
  facet normal 0 0 1
    outer loop
      vertex -46 -14 16
      vertex -48 -8 16
      vertex -48 -14 16
    endloop
  endfacet
  facet normal 0 0 1
    outer loop
      vertex -46 -8 16
      vertex -48 -8 16
      vertex -46 -14 16
    endloop
  endfacet
  facet normal -1 1.22461e-16 2.22045e-16
    outer loop
      vertex -48 -14 8
      vertex -48 -6 8
      vertex -48 -6.27259 5.92945
    endloop
  endfacet
  facet normal -1 1.22461e-16 2.22045e-16
    outer loop
      vertex -48 -14 8
      vertex -48 -6.27259 5.92945
      vertex -48 -7.0718 4
    endloop
  endfacet
  facet normal -1 1.22461e-16 2.22045e-16
    outer loop
      vertex -48 -14 8
      vertex -48 -7.0718 4
      vertex -48 -8.34315 2.34315
    endloop
  endfacet
  facet normal -1 1.22461e-16 2.22045e-16
    outer loop
      vertex -48 -14 8
      vertex -48 -8.34315 2.34315
      vertex -48 -10 1.0718
    endloop
  endfacet
  facet normal -1 1.22461e-16 2.22045e-16
    outer loop
      vertex -48 -14 8
      vertex -48 -10 1.0718
      vertex -48 -11.9294 0.272593
    endloop
  endfacet
  facet normal -1 1.22461e-16 2.22045e-16
    outer loop
      vertex -48 -14 8
      vertex -48 -11.9294 0.272593
      vertex -48 -14 1.11022e-14
    endloop
  endfacet
  facet normal -1 1.22461e-16 2.22045e-16
    outer loop
      vertex -48 -14 8
      vertex -48 -14 1.11022e-14
      vertex -48 -16.0706 15.7274
    endloop
  endfacet
  facet normal -1 1.22461e-16 2.22045e-16
    outer loop
      vertex -48 -16.0706 15.7274
      vertex -48 -14 1.11022e-14
      vertex -48 -16.0706 0.272593
    endloop
  endfacet
  facet normal -1 1.22461e-16 2.22045e-16
    outer loop
      vertex -48 -16.0706 15.7274
      vertex -48 -16.0706 0.272593
      vertex -48 -18 1.0718
    endloop
  endfacet
  facet normal -1 1.22461e-16 2.22045e-16
    outer loop
      vertex -48 -16.0706 15.7274
      vertex -48 -18 1.0718
      vertex -48 -19.6569 2.34315
    endloop
  endfacet
  facet normal -1 1.22461e-16 2.22045e-16
    outer loop
      vertex -48 -16.0706 15.7274
      vertex -48 -19.6569 2.34315
      vertex -48 -20.9282 4
    endloop
  endfacet
  facet normal -1 1.22461e-16 2.22045e-16
    outer loop
      vertex -48 -16.0706 15.7274
      vertex -48 -20.9282 4
      vertex -48 -21.7274 5.92945
    endloop
  endfacet
  facet normal -1 1.22461e-16 2.22045e-16
    outer loop
      vertex -48 -16.0706 15.7274
      vertex -48 -21.7274 5.92945
      vertex -48 -22 8
    endloop
  endfacet
  facet normal -1 1.22461e-16 2.22045e-16
    outer loop
      vertex -48 -16.0706 15.7274
      vertex -48 -22 8
      vertex -48 -21.7274 10.0706
    endloop
  endfacet
  facet normal -1 1.22461e-16 2.22045e-16
    outer loop
      vertex -48 -16.0706 15.7274
      vertex -48 -21.7274 10.0706
      vertex -48 -20.9282 12
    endloop
  endfacet
  facet normal -1 1.22461e-16 2.22045e-16
    outer loop
      vertex -48 -16.0706 15.7274
      vertex -48 -20.9282 12
      vertex -48 -19.6569 13.6569
    endloop
  endfacet
  facet normal -1 1.22461e-16 2.22045e-16
    outer loop
      vertex -48 -16.0706 15.7274
      vertex -48 -19.6569 13.6569
      vertex -48 -18 14.9282
    endloop
  endfacet
  facet normal -1 1.22461e-16 2.22045e-16
    outer loop
      vertex -48 -14 8
      vertex -48 -16.0706 15.7274
      vertex -48 -14 16
    endloop
  endfacet
  facet normal -2.36129e-16 -0.130526 -0.991445
    outer loop
      vertex -36.8 -14 8.61533e-15
      vertex -36.8 -16.0706 0.272593
      vertex -48 -14 1.11022e-14
    endloop
  endfacet
  facet normal -2.36129e-16 -0.130526 -0.991445
    outer loop
      vertex -48 -14 1.11022e-14
      vertex -36.8 -16.0706 0.272593
      vertex -48 -16.0706 0.272593
    endloop
  endfacet
  facet normal 0 0 1
    outer loop
      vertex -9.2 -8 2
      vertex -9.2 -2 2
      vertex -36.8 -2 2
    endloop
  endfacet
  facet normal 0 0 1
    outer loop
      vertex -46 -8 2
      vertex -9.2 -8 2
      vertex -36.8 -8 2
    endloop
  endfacet
  facet normal 0 0 1
    outer loop
      vertex -36.8 -8 2
      vertex -9.2 -8 2
      vertex -36.8 -2 2
    endloop
  endfacet
  facet normal 0 0 1
    outer loop
      vertex -36.8 -8 2
      vertex -9.2 -8 2
      vertex -46 -8 2
    endloop
  endfacet
  facet normal 0 0 1
    outer loop
      vertex -46 -8 2
      vertex -46 -14 2
      vertex -36.8 -14 2
    endloop
  endfacet
  facet normal 0 0 1
    outer loop
      vertex -36.8 -8 2
      vertex -46 -8 2
      vertex -36.8 -14 2
    endloop
  endfacet
  facet normal -2.52006e-16 -0.382684 -0.923879
    outer loop
      vertex -36.8 -16.0706 0.272593
      vertex -36.8 -18 1.0718
      vertex -48 -16.0706 0.272593
    endloop
  endfacet
  facet normal -2.52006e-16 -0.382684 -0.923879
    outer loop
      vertex -48 -16.0706 0.272593
      vertex -36.8 -18 1.0718
      vertex -48 -18 1.0718
    endloop
  endfacet
  facet normal -2.50709e-16 -0.608761 -0.793353
    outer loop
      vertex -36.8 -18 1.0718
      vertex -36.8 -19.6569 2.34315
      vertex -48 -18 1.0718
    endloop
  endfacet
  facet normal -2.50709e-16 -0.608761 -0.793353
    outer loop
      vertex -48 -18 1.0718
      vertex -36.8 -19.6569 2.34315
      vertex -48 -19.6569 2.34315
    endloop
  endfacet
  facet normal -2.32327e-16 -0.793353 -0.608761
    outer loop
      vertex -48 -19.6569 2.34315
      vertex -36.8 -19.6569 2.34315
      vertex -36.8 -20.9282 4
    endloop
  endfacet
  facet normal -2.32327e-16 -0.793353 -0.608761
    outer loop
      vertex -48 -20.9282 4
      vertex -48 -19.6569 2.34315
      vertex -36.8 -20.9282 4
    endloop
  endfacet
  facet normal -1.98112e-16 -0.923879 -0.382684
    outer loop
      vertex -48 -20.9282 4
      vertex -36.8 -20.9282 4
      vertex -36.8 -21.7274 5.92945
    endloop
  endfacet
  facet normal -1.98112e-16 -0.923879 -0.382684
    outer loop
      vertex -48 -21.7274 5.92945
      vertex -48 -20.9282 4
      vertex -36.8 -21.7274 5.92945
    endloop
  endfacet
  facet normal -1.50396e-16 -0.991445 -0.130526
    outer loop
      vertex -48 -21.7274 5.92945
      vertex -36.8 -21.7274 5.92945
      vertex -36.8 -22 8
    endloop
  endfacet
  facet normal -1.50396e-16 -0.991445 -0.130526
    outer loop
      vertex -48 -22 8
      vertex -48 -21.7274 5.92945
      vertex -36.8 -22 8
    endloop
  endfacet
  facet normal -9.24304e-17 -0.991445 0.130526
    outer loop
      vertex -36.8 -22 8
      vertex -36.8 -21.7274 10.0706
      vertex -48 -21.7274 10.0706
    endloop
  endfacet
  facet normal -9.24304e-17 -0.991445 0.130526
    outer loop
      vertex -48 -22 8
      vertex -36.8 -22 8
      vertex -48 -21.7274 10.0706
    endloop
  endfacet
  facet normal -2.8166e-17 -0.923879 0.382684
    outer loop
      vertex -36.8 -21.7274 10.0706
      vertex -36.8 -20.9282 12
      vertex -48 -20.9282 12
    endloop
  endfacet
  facet normal -2.8166e-17 -0.923879 0.382684
    outer loop
      vertex -48 -21.7274 10.0706
      vertex -36.8 -21.7274 10.0706
      vertex -48 -20.9282 12
    endloop
  endfacet
  facet normal 3.80177e-17 -0.793353 0.608761
    outer loop
      vertex -36.8 -20.9282 12
      vertex -36.8 -20 13.2097
      vertex -46 -20 13.2097
    endloop
  endfacet
  facet normal 3.80177e-17 -0.793353 0.608761
    outer loop
      vertex -48 -20.9282 12
      vertex -36.8 -20.9282 12
      vertex -46 -20 13.2097
    endloop
  endfacet
  facet normal 3.80177e-17 -0.793353 0.608761
    outer loop
      vertex -46 -19.6569 13.6569
      vertex -48 -19.6569 13.6569
      vertex -46 -20 13.2097
    endloop
  endfacet
  facet normal 3.80177e-17 -0.793353 0.608761
    outer loop
      vertex -48 -19.6569 13.6569
      vertex -48 -20.9282 12
      vertex -46 -20 13.2097
    endloop
  endfacet
  facet normal 1.22461e-16 1 0
    outer loop
      vertex -46 -20 13.2097
      vertex -36.8 -20 13.2097
      vertex -46 -20 8
    endloop
  endfacet
  facet normal 1.22461e-16 1 0
    outer loop
      vertex -46 -20 8
      vertex -36.8 -20 13.2097
      vertex -36.8 -20 8
    endloop
  endfacet
  facet normal 1.50396e-16 0.991445 0.130526
    outer loop
      vertex -46 -19.7956 6.44709
      vertex -46 -20 8
      vertex -36.8 -20 8
    endloop
  endfacet
  facet normal 1.50396e-16 0.991445 0.130526
    outer loop
      vertex -46 -19.7956 6.44709
      vertex -36.8 -20 8
      vertex -36.8 -19.7956 6.44709
    endloop
  endfacet
  facet normal 1.98112e-16 0.923879 0.382684
    outer loop
      vertex -46 -19.7956 6.44709
      vertex -36.8 -19.7956 6.44709
      vertex -46 -19.1962 5
    endloop
  endfacet
  facet normal 1.98112e-16 0.923879 0.382684
    outer loop
      vertex -46 -19.1962 5
      vertex -36.8 -19.7956 6.44709
      vertex -36.8 -19.1962 5
    endloop
  endfacet
  facet normal 2.32327e-16 0.793354 0.608761
    outer loop
      vertex -46 -19.1962 5
      vertex -36.8 -19.1962 5
      vertex -46 -18.2426 3.75736
    endloop
  endfacet
  facet normal 2.32327e-16 0.793354 0.608761
    outer loop
      vertex -46 -18.2426 3.75736
      vertex -36.8 -19.1962 5
      vertex -36.8 -18.2426 3.75736
    endloop
  endfacet
  facet normal 2.50709e-16 0.608761 0.793354
    outer loop
      vertex -46 -17 2.80385
      vertex -46 -18.2426 3.75736
      vertex -36.8 -18.2426 3.75736
    endloop
  endfacet
  facet normal 2.50709e-16 0.608761 0.793354
    outer loop
      vertex -36.8 -17 2.80385
      vertex -46 -17 2.80385
      vertex -36.8 -18.2426 3.75736
    endloop
  endfacet
  facet normal 2.52006e-16 0.382684 0.923879
    outer loop
      vertex -46 -15.5529 2.20445
      vertex -46 -17 2.80385
      vertex -36.8 -17 2.80385
    endloop
  endfacet
  facet normal 2.52006e-16 0.382684 0.923879
    outer loop
      vertex -36.8 -15.5529 2.20445
      vertex -46 -15.5529 2.20445
      vertex -36.8 -17 2.80385
    endloop
  endfacet
  facet normal 2.36129e-16 0.130526 0.991445
    outer loop
      vertex -36.8 -14 2
      vertex -46 -14 2
      vertex -36.8 -15.5529 2.20445
    endloop
  endfacet
  facet normal 2.36129e-16 0.130526 0.991445
    outer loop
      vertex -36.8 -15.5529 2.20445
      vertex -46 -14 2
      vertex -46 -15.5529 2.20445
    endloop
  endfacet
  facet normal 0 0 1
    outer loop
      vertex -9.2 -8 2
      vertex -9.2 -14 2
      vertex -3.04672e-15 -14 2
    endloop
  endfacet
  facet normal 0 0 1
    outer loop
      vertex -9.79685e-16 -8 2
      vertex -9.2 -8 2
      vertex -1.71445e-15 -14 2
    endloop
  endfacet
  facet normal 0 0 1
    outer loop
      vertex -1.71445e-15 -14 2
      vertex -9.2 -8 2
      vertex -3.04672e-15 -14 2
    endloop
  endfacet
  facet normal 2.36129e-16 0.130526 0.991445
    outer loop
      vertex -3.04672e-15 -14 2
      vertex -9.2 -14 2
      vertex -9.2 -15.5529 2.20445
    endloop
  endfacet
  facet normal 2.36129e-16 0.130526 0.991445
    outer loop
      vertex -3.19149e-15 -15.5529 2.20445
      vertex -3.04672e-15 -14 2
      vertex -9.2 -15.5529 2.20445
    endloop
  endfacet
  facet normal 2.52006e-16 0.382684 0.923879
    outer loop
      vertex -3.19149e-15 -15.5529 2.20445
      vertex -9.2 -15.5529 2.20445
      vertex -9.2 -17 2.80385
    endloop
  endfacet
  facet normal 2.52006e-16 0.382684 0.923879
    outer loop
      vertex -3.23561e-15 -17 2.80385
      vertex -3.19149e-15 -15.5529 2.20445
      vertex -9.2 -17 2.80385
    endloop
  endfacet
  facet normal 2.50709e-16 0.608761 0.793354
    outer loop
      vertex -3.23561e-15 -17 2.80385
      vertex -9.2 -17 2.80385
      vertex -9.2 -18.2426 3.75736
    endloop
  endfacet
  facet normal 2.50709e-16 0.608761 0.793354
    outer loop
      vertex -3.17606e-15 -18.2426 3.75736
      vertex -3.23561e-15 -17 2.80385
      vertex -9.2 -18.2426 3.75736
    endloop
  endfacet
  facet normal 2.32327e-16 0.793354 0.608761
    outer loop
      vertex -9.2 -18.2426 3.75736
      vertex -9.2 -19.1962 5
      vertex -3.17606e-15 -18.2426 3.75736
    endloop
  endfacet
  facet normal 2.32327e-16 0.793354 0.608761
    outer loop
      vertex -3.17606e-15 -18.2426 3.75736
      vertex -9.2 -19.1962 5
      vertex -3.01691e-15 -19.1962 5
    endloop
  endfacet
  facet normal 1.98112e-16 0.923879 0.382684
    outer loop
      vertex -9.2 -19.1962 5
      vertex -9.2 -19.7956 6.44709
      vertex -3.01691e-15 -19.1962 5
    endloop
  endfacet
  facet normal 1.98112e-16 0.923879 0.382684
    outer loop
      vertex -3.01691e-15 -19.1962 5
      vertex -9.2 -19.7956 6.44709
      vertex -2.76899e-15 -19.7956 6.44709
    endloop
  endfacet
  facet normal 1.50396e-16 0.991445 0.130526
    outer loop
      vertex -9.2 -19.7956 6.44709
      vertex -9.2 -20 8
      vertex -2.76899e-15 -19.7956 6.44709
    endloop
  endfacet
  facet normal 1.50396e-16 0.991445 0.130526
    outer loop
      vertex -2.76899e-15 -19.7956 6.44709
      vertex -9.2 -20 8
      vertex -2.44921e-15 -20 8
    endloop
  endfacet
  facet normal 1.22461e-16 1 0
    outer loop
      vertex -9.2 -20 13.2097
      vertex -2.44921e-15 -20 13.2097
      vertex -9.2 -20 8
    endloop
  endfacet
  facet normal 1.22461e-16 1 0
    outer loop
      vertex -9.2 -20 8
      vertex -2.44921e-15 -20 13.2097
      vertex -2.44921e-15 -20 8
    endloop
  endfacet
  facet normal 3.80177e-17 -0.793353 0.608761
    outer loop
      vertex 2 -20.9282 12
      vertex 2 -19.6569 13.6569
      vertex -2.40719e-15 -19.6569 13.6569
    endloop
  endfacet
  facet normal 3.80177e-17 -0.793353 0.608761
    outer loop
      vertex -9.2 -20 13.2097
      vertex 2 -20.9282 12
      vertex -2.44921e-15 -20 13.2097
    endloop
  endfacet
  facet normal 3.80177e-17 -0.793353 0.608761
    outer loop
      vertex -2.44921e-15 -20 13.2097
      vertex 2 -20.9282 12
      vertex -2.40719e-15 -19.6569 13.6569
    endloop
  endfacet
  facet normal 3.80177e-17 -0.793353 0.608761
    outer loop
      vertex -9.2 -20.9282 12
      vertex 2 -20.9282 12
      vertex -9.2 -20 13.2097
    endloop
  endfacet
  facet normal -2.8166e-17 -0.923879 0.382684
    outer loop
      vertex 2 -21.7274 10.0706
      vertex 2 -20.9282 12
      vertex -9.2 -20.9282 12
    endloop
  endfacet
  facet normal -2.8166e-17 -0.923879 0.382684
    outer loop
      vertex -9.2 -21.7274 10.0706
      vertex 2 -21.7274 10.0706
      vertex -9.2 -20.9282 12
    endloop
  endfacet
  facet normal -9.24304e-17 -0.991445 0.130526
    outer loop
      vertex 2 -22 8
      vertex 2 -21.7274 10.0706
      vertex -9.2 -21.7274 10.0706
    endloop
  endfacet
  facet normal -9.24304e-17 -0.991445 0.130526
    outer loop
      vertex -9.2 -22 8
      vertex 2 -22 8
      vertex -9.2 -21.7274 10.0706
    endloop
  endfacet
  facet normal -1.50396e-16 -0.991445 -0.130526
    outer loop
      vertex 2 -21.7274 5.92945
      vertex 2 -22 8
      vertex -9.2 -22 8
    endloop
  endfacet
  facet normal -1.50396e-16 -0.991445 -0.130526
    outer loop
      vertex -9.2 -21.7274 5.92945
      vertex 2 -21.7274 5.92945
      vertex -9.2 -22 8
    endloop
  endfacet
  facet normal -1.98112e-16 -0.923879 -0.382684
    outer loop
      vertex 2 -20.9282 4
      vertex 2 -21.7274 5.92945
      vertex -9.2 -21.7274 5.92945
    endloop
  endfacet
  facet normal -1.98112e-16 -0.923879 -0.382684
    outer loop
      vertex -9.2 -20.9282 4
      vertex 2 -20.9282 4
      vertex -9.2 -21.7274 5.92945
    endloop
  endfacet
  facet normal -2.32327e-16 -0.793353 -0.608761
    outer loop
      vertex 2 -19.6569 2.34315
      vertex 2 -20.9282 4
      vertex -9.2 -20.9282 4
    endloop
  endfacet
  facet normal -2.32327e-16 -0.793353 -0.608761
    outer loop
      vertex -9.2 -19.6569 2.34315
      vertex 2 -19.6569 2.34315
      vertex -9.2 -20.9282 4
    endloop
  endfacet
  facet normal -2.50709e-16 -0.608761 -0.793353
    outer loop
      vertex 2 -19.6569 2.34315
      vertex -9.2 -19.6569 2.34315
      vertex 2 -18 1.0718
    endloop
  endfacet
  facet normal -2.50709e-16 -0.608761 -0.793353
    outer loop
      vertex 2 -18 1.0718
      vertex -9.2 -19.6569 2.34315
      vertex -9.2 -18 1.0718
    endloop
  endfacet
  facet normal -2.52006e-16 -0.382684 -0.923879
    outer loop
      vertex 2 -18 1.0718
      vertex -9.2 -18 1.0718
      vertex 2 -16.0706 0.272593
    endloop
  endfacet
  facet normal -2.52006e-16 -0.382684 -0.923879
    outer loop
      vertex 2 -16.0706 0.272593
      vertex -9.2 -18 1.0718
      vertex -9.2 -16.0706 0.272593
    endloop
  endfacet
  facet normal 1.0161e-16 -0.608761 0.793353
    outer loop
      vertex 2 -19.6569 13.6569
      vertex 2 -18 14.9282
      vertex -2.20429e-15 -18 14.9282
    endloop
  endfacet
  facet normal 1.0161e-16 -0.608761 0.793353
    outer loop
      vertex -2.40719e-15 -19.6569 13.6569
      vertex 2 -19.6569 13.6569
      vertex -2.20429e-15 -18 14.9282
    endloop
  endfacet
  facet normal 1.58279e-16 -0.382684 0.923879
    outer loop
      vertex 2 -18 14.9282
      vertex 2 -16.0706 15.7274
      vertex -1.96801e-15 -16.0706 15.7274
    endloop
  endfacet
  facet normal 1.58279e-16 -0.382684 0.923879
    outer loop
      vertex -2.20429e-15 -18 14.9282
      vertex 2 -18 14.9282
      vertex -1.96801e-15 -16.0706 15.7274
    endloop
  endfacet
  facet normal 2.04161e-16 -0.130526 0.991445
    outer loop
      vertex 2 -16.0706 15.7274
      vertex 2 -14 16
      vertex -1.71445e-15 -14 16
    endloop
  endfacet
  facet normal 2.04161e-16 -0.130526 0.991445
    outer loop
      vertex -1.96801e-15 -16.0706 15.7274
      vertex 2 -16.0706 15.7274
      vertex -1.71445e-15 -14 16
    endloop
  endfacet
  facet normal 0 0 1
    outer loop
      vertex -9.79685e-16 -8 16
      vertex -1.71445e-15 -14 16
      vertex 2 -14 16
    endloop
  endfacet
  facet normal 0 0 1
    outer loop
      vertex 2 -8 16
      vertex -9.79685e-16 -8 16
      vertex 2 -14 16
    endloop
  endfacet
  facet normal -1.22461e-16 -1 0
    outer loop
      vertex 2 -8 162
      vertex -9.2 -8 162
      vertex -9.2 -8 14
    endloop
  endfacet
  facet normal -1.22461e-16 -1 0
    outer loop
      vertex -9.79685e-16 -8 16
      vertex 2 -8 162
      vertex -9.2 -8 14
    endloop
  endfacet
  facet normal -1.22461e-16 -1 0
    outer loop
      vertex -9.79685e-16 -8 14
      vertex -9.79685e-16 -8 16
      vertex -9.2 -8 14
    endloop
  endfacet
  facet normal -1.22461e-16 -1 0
    outer loop
      vertex -9.79685e-16 -8 16
      vertex 2 -8 16
      vertex 2 -8 162
    endloop
  endfacet
  facet normal 0 0 -1
    outer loop
      vertex -9.2 8 75
      vertex -9.2 6 75
      vertex -36.8 8 75
    endloop
  endfacet
  facet normal 0 0 -1
    outer loop
      vertex -36.8 8 75
      vertex -9.2 6 75
      vertex -36.8 6 75
    endloop
  endfacet
  facet normal -1 1.22461e-16 0
    outer loop
      vertex -9.2 6 156
      vertex -9.2 8 156
      vertex -9.2 6 81
    endloop
  endfacet
  facet normal -1 1.22461e-16 0
    outer loop
      vertex -9.2 6 81
      vertex -9.2 8 156
      vertex -9.2 8 81
    endloop
  endfacet
  facet normal 0 0 1
    outer loop
      vertex -9.2 6 81
      vertex -9.2 8 81
      vertex -36.8 8 81
    endloop
  endfacet
  facet normal 0 0 1
    outer loop
      vertex -36.8 6 81
      vertex -9.2 6 81
      vertex -36.8 8 81
    endloop
  endfacet
  facet normal 1 -1.22461e-16 0
    outer loop
      vertex -36.8 8 156
      vertex -36.8 6 156
      vertex -36.8 6 81
    endloop
  endfacet
  facet normal 1 -1.22461e-16 0
    outer loop
      vertex -36.8 8 81
      vertex -36.8 8 156
      vertex -36.8 6 81
    endloop
  endfacet
  facet normal 0 0 -1
    outer loop
      vertex -9.2 8 156
      vertex -9.2 6 156
      vertex -36.8 8 156
    endloop
  endfacet
  facet normal 0 0 -1
    outer loop
      vertex -36.8 8 156
      vertex -9.2 6 156
      vertex -36.8 6 156
    endloop
  endfacet
  facet normal -1.22461e-16 -1 0
    outer loop
      vertex -9.2 6 81
      vertex -36.8 6 81
      vertex -46 6 75
    endloop
  endfacet
  facet normal -1.22461e-16 -1 0
    outer loop
      vertex 7.34764e-16 6 81
      vertex -9.2 6 81
      vertex -46 6 75
    endloop
  endfacet
  facet normal -1.22461e-16 -1 0
    outer loop
      vertex -36.8 6 81
      vertex -46 6 81
      vertex -46 6 75
    endloop
  endfacet
  facet normal -1.22461e-16 -1 0
    outer loop
      vertex -36.8 6 75
      vertex 7.34764e-16 6 81
      vertex -46 6 75
    endloop
  endfacet
  facet normal -1.22461e-16 -1 0
    outer loop
      vertex -9.2 6 75
      vertex 7.34764e-16 6 81
      vertex -36.8 6 75
    endloop
  endfacet
  facet normal -1.22461e-16 -1 0
    outer loop
      vertex 7.34764e-16 6 75
      vertex 7.34764e-16 6 81
      vertex -9.2 6 75
    endloop
  endfacet
  facet normal -1.22461e-16 -1 0
    outer loop
      vertex 7.34764e-16 6 75
      vertex -9.2 6 75
      vertex -9.2 6 16
    endloop
  endfacet
  facet normal -1.22461e-16 -1 0
    outer loop
      vertex 7.34764e-16 6 16
      vertex 7.34764e-16 6 75
      vertex -5.72119 6 16
    endloop
  endfacet
  facet normal -1.22461e-16 -1 0
    outer loop
      vertex -5.72119 6 16
      vertex 7.34764e-16 6 75
      vertex -9.2 6 16
    endloop
  endfacet
  facet normal -1.07676e-16 -0.997859 0.0654032
    outer loop
      vertex -5.72119 6 16
      vertex -9.2 6 16
      vertex -9.2 5.88023 14.1726
    endloop
  endfacet
  facet normal -1.07676e-16 -0.997859 0.0654032
    outer loop
      vertex 7.34764e-16 6 16
      vertex -5.72119 6 16
      vertex 7.20096e-16 5.88023 14.1726
    endloop
  endfacet
  facet normal -1.07676e-16 -0.997859 0.0654032
    outer loop
      vertex 7.20096e-16 5.88023 14.1726
      vertex -5.72119 6 16
      vertex -9.2 5.88023 14.1726
    endloop
  endfacet
  facet normal -7.67889e-17 -0.980785 0.19509
    outer loop
      vertex -9.2 5.88023 14.1726
      vertex -9.2 5.52296 12.3765
      vertex 6.76345e-16 5.52296 12.3765
    endloop
  endfacet
  facet normal -7.67889e-17 -0.980785 0.19509
    outer loop
      vertex 7.20096e-16 5.88023 14.1726
      vertex -9.2 5.88023 14.1726
      vertex 6.76345e-16 5.52296 12.3765
    endloop
  endfacet
  facet normal -4.45876e-17 -0.94693 0.32144
    outer loop
      vertex -9.2 5.52296 12.3765
      vertex -9.2 4.93431 10.6424
      vertex 6.04259e-16 4.93431 10.6424
    endloop
  endfacet
  facet normal -4.45876e-17 -0.94693 0.32144
    outer loop
      vertex 6.76345e-16 5.52296 12.3765
      vertex -9.2 5.52296 12.3765
      vertex 6.04259e-16 4.93431 10.6424
    endloop
  endfacet
  facet normal -1.16239e-17 -0.896873 0.442288
    outer loop
      vertex -9.2 4.93431 10.6424
      vertex -9.2 4.12436 9
      vertex 5.05071e-16 4.12436 9
    endloop
  endfacet
  facet normal -1.16239e-17 -0.896873 0.442288
    outer loop
      vertex 6.04259e-16 4.93431 10.6424
      vertex -9.2 4.93431 10.6424
      vertex 5.05071e-16 4.12436 9
    endloop
  endfacet
  facet normal 2.15391e-17 -0.83147 0.55557
    outer loop
      vertex -9.2 4.12436 9
      vertex -9.2 3.10695 7.47734
      vertex 3.80479e-16 3.10695 7.47734
    endloop
  endfacet
  facet normal 2.15391e-17 -0.83147 0.55557
    outer loop
      vertex 5.05071e-16 4.12436 9
      vertex -9.2 4.12436 9
      vertex 3.80479e-16 3.10695 7.47734
    endloop
  endfacet
  facet normal 5.43334e-17 -0.75184 0.659346
    outer loop
      vertex -9.2 3.10695 7.47734
      vertex -9.2 1.8995 6.10051
      vertex 2.32613e-16 1.89949 6.10051
    endloop
  endfacet
  facet normal 5.43334e-17 -0.75184 0.659346
    outer loop
      vertex 3.80479e-16 3.10695 7.47734
      vertex -9.2 3.10695 7.47734
      vertex 2.32613e-16 1.89949 6.10051
    endloop
  endfacet
  facet normal 8.61981e-17 -0.659346 0.75184
    outer loop
      vertex -9.2 1.8995 6.10051
      vertex -9.2 0.52266 4.89305
      vertex 6.40053e-17 0.52266 4.89305
    endloop
  endfacet
  facet normal 8.61981e-17 -0.659346 0.75184
    outer loop
      vertex 2.32613e-16 1.89949 6.10051
      vertex -9.2 1.8995 6.10051
      vertex 6.40053e-17 0.52266 4.89305
    endloop
  endfacet
  facet normal 1.16588e-16 -0.55557 0.83147
    outer loop
      vertex -9.2 0.52266 4.89305
      vertex -9.2 -1 3.87564
      vertex -1.22461e-16 -1 3.87564
    endloop
  endfacet
  facet normal 1.16588e-16 -0.55557 0.83147
    outer loop
      vertex 6.40053e-17 0.52266 4.89305
      vertex -9.2 0.52266 4.89305
      vertex -1.22461e-16 -1 3.87564
    endloop
  endfacet
  facet normal 1.44983e-16 -0.442288 0.896873
    outer loop
      vertex -9.2 -1 3.87564
      vertex -9.2 -2.64243 3.06569
      vertex -3.23594e-16 -2.64243 3.06569
    endloop
  endfacet
  facet normal 1.44983e-16 -0.442288 0.896873
    outer loop
      vertex -1.22461e-16 -1 3.87564
      vertex -9.2 -1 3.87564
      vertex -3.23594e-16 -2.64243 3.06569
    endloop
  endfacet
  facet normal 1.70897e-16 -0.32144 0.94693
    outer loop
      vertex -9.2 -2.64243 3.06569
      vertex -9.2 -4.37653 2.47704
      vertex -5.35953e-16 -4.37653 2.47704
    endloop
  endfacet
  facet normal 1.70897e-16 -0.32144 0.94693
    outer loop
      vertex -3.23594e-16 -2.64243 3.06569
      vertex -9.2 -2.64243 3.06569
      vertex -5.35953e-16 -4.37653 2.47704
    endloop
  endfacet
  facet normal 1.93887e-16 -0.19509 0.980785
    outer loop
      vertex -9.2 -4.37653 2.47704
      vertex -9.2 -6.17263 2.11977
      vertex -7.55905e-16 -6.17263 2.11977
    endloop
  endfacet
  facet normal 1.93887e-16 -0.19509 0.980785
    outer loop
      vertex -5.35953e-16 -4.37653 2.47704
      vertex -9.2 -4.37653 2.47704
      vertex -7.55905e-16 -6.17263 2.11977
    endloop
  endfacet
  facet normal 2.1356e-16 -0.0654032 0.997859
    outer loop
      vertex -9.2 -6.17263 2.11977
      vertex -9.2 -8 2
      vertex -9.79685e-16 -8 2
    endloop
  endfacet
  facet normal 2.1356e-16 -0.0654032 0.997859
    outer loop
      vertex -7.55905e-16 -6.17263 2.11977
      vertex -9.2 -6.17263 2.11977
      vertex -9.79685e-16 -8 2
    endloop
  endfacet
  facet normal 2.1356e-16 -0.0654032 0.997859
    outer loop
      vertex -46 -6.17263 2.11977
      vertex -46 -8 2
      vertex -36.8 -8 2
    endloop
  endfacet
  facet normal 2.1356e-16 -0.0654032 0.997859
    outer loop
      vertex -36.8 -6.17263 2.11977
      vertex -46 -6.17263 2.11977
      vertex -36.8 -8 2
    endloop
  endfacet
  facet normal 1.93887e-16 -0.19509 0.980785
    outer loop
      vertex -46 -4.37653 2.47704
      vertex -46 -6.17263 2.11977
      vertex -36.8 -6.17263 2.11977
    endloop
  endfacet
  facet normal 1.93887e-16 -0.19509 0.980785
    outer loop
      vertex -36.8 -4.37653 2.47704
      vertex -46 -4.37653 2.47704
      vertex -36.8 -6.17263 2.11977
    endloop
  endfacet
  facet normal 1.70897e-16 -0.32144 0.94693
    outer loop
      vertex -46 -2.64243 3.06569
      vertex -46 -4.37653 2.47704
      vertex -36.8 -4.37653 2.47704
    endloop
  endfacet
  facet normal 1.70897e-16 -0.32144 0.94693
    outer loop
      vertex -36.8 -2.64243 3.06569
      vertex -46 -2.64243 3.06569
      vertex -36.8 -4.37653 2.47704
    endloop
  endfacet
  facet normal 1.44983e-16 -0.442288 0.896873
    outer loop
      vertex -46 -1 3.87564
      vertex -46 -2.64243 3.06569
      vertex -36.8 -2.64243 3.06569
    endloop
  endfacet
  facet normal 1.44983e-16 -0.442288 0.896873
    outer loop
      vertex -36.8 -1 3.87564
      vertex -46 -1 3.87564
      vertex -36.8 -2.64243 3.06569
    endloop
  endfacet
  facet normal 1.16588e-16 -0.55557 0.83147
    outer loop
      vertex -46 0.52266 4.89305
      vertex -46 -1 3.87564
      vertex -36.8 -1 3.87564
    endloop
  endfacet
  facet normal 1.16588e-16 -0.55557 0.83147
    outer loop
      vertex -36.8 0.52266 4.89305
      vertex -46 0.52266 4.89305
      vertex -36.8 -1 3.87564
    endloop
  endfacet
  facet normal 8.61981e-17 -0.659346 0.75184
    outer loop
      vertex -46 1.8995 6.10051
      vertex -46 0.52266 4.89305
      vertex -36.8 0.52266 4.89305
    endloop
  endfacet
  facet normal 8.61981e-17 -0.659346 0.75184
    outer loop
      vertex -36.8 1.8995 6.10051
      vertex -46 1.8995 6.10051
      vertex -36.8 0.52266 4.89305
    endloop
  endfacet
  facet normal 5.43334e-17 -0.75184 0.659346
    outer loop
      vertex -46 3.10695 7.47734
      vertex -46 1.8995 6.10051
      vertex -36.8 1.8995 6.10051
    endloop
  endfacet
  facet normal 5.43334e-17 -0.75184 0.659346
    outer loop
      vertex -36.8 3.10695 7.47734
      vertex -46 3.10695 7.47734
      vertex -36.8 1.8995 6.10051
    endloop
  endfacet
  facet normal 2.15391e-17 -0.83147 0.55557
    outer loop
      vertex -46 4.12436 9
      vertex -46 3.10695 7.47734
      vertex -36.8 3.10695 7.47734
    endloop
  endfacet
  facet normal 2.15391e-17 -0.83147 0.55557
    outer loop
      vertex -36.8 4.12436 9
      vertex -46 4.12436 9
      vertex -36.8 3.10695 7.47734
    endloop
  endfacet
  facet normal -1.16239e-17 -0.896873 0.442288
    outer loop
      vertex -46 4.93431 10.6424
      vertex -46 4.12436 9
      vertex -36.8 4.12436 9
    endloop
  endfacet
  facet normal -1.16239e-17 -0.896873 0.442288
    outer loop
      vertex -36.8 4.93431 10.6424
      vertex -46 4.93431 10.6424
      vertex -36.8 4.12436 9
    endloop
  endfacet
  facet normal -4.45876e-17 -0.94693 0.32144
    outer loop
      vertex -46 5.52296 12.3765
      vertex -46 4.93431 10.6424
      vertex -36.8 4.93431 10.6424
    endloop
  endfacet
  facet normal -4.45876e-17 -0.94693 0.32144
    outer loop
      vertex -36.8 5.52296 12.3765
      vertex -46 5.52296 12.3765
      vertex -36.8 4.93431 10.6424
    endloop
  endfacet
  facet normal -7.67889e-17 -0.980785 0.19509
    outer loop
      vertex -46 5.88023 14.1726
      vertex -46 5.52296 12.3765
      vertex -36.8 5.52296 12.3765
    endloop
  endfacet
  facet normal -7.67889e-17 -0.980785 0.19509
    outer loop
      vertex -36.8 5.88023 14.1726
      vertex -46 5.88023 14.1726
      vertex -36.8 5.52296 12.3765
    endloop
  endfacet
  facet normal -1.07676e-16 -0.997859 0.0654032
    outer loop
      vertex -46 6 16
      vertex -46 5.88023 14.1726
      vertex -36.8 5.88023 14.1726
    endloop
  endfacet
  facet normal -1.07676e-16 -0.997859 0.0654032
    outer loop
      vertex -36.8 6 16
      vertex -46 6 16
      vertex -36.8 5.88023 14.1726
    endloop
  endfacet
  facet normal -1.22461e-16 -1 0
    outer loop
      vertex -36.8 6 75
      vertex -46 6 75
      vertex -46 6 16
    endloop
  endfacet
  facet normal -1.22461e-16 -1 0
    outer loop
      vertex -36.8 6 16
      vertex -36.8 6 75
      vertex -46 6 16
    endloop
  endfacet
  facet normal -1 1.22461e-16 0
    outer loop
      vertex -9.2 -6.06815 15.4824
      vertex -9.2 -6.26795 15
      vertex -9.2 -6 16
    endloop
  endfacet
  facet normal -1 1.22461e-16 0
    outer loop
      vertex -9.2 -6 16
      vertex -9.2 -6.26795 15
      vertex -9.2 -6.58579 14.5858
    endloop
  endfacet
  facet normal -1 1.22461e-16 0
    outer loop
      vertex -9.2 -6 16
      vertex -9.2 -6.58579 14.5858
      vertex -9.2 -7 14.2679
    endloop
  endfacet
  facet normal -1 1.22461e-16 0
    outer loop
      vertex -9.2 -6 16
      vertex -9.2 -7 14.2679
      vertex -9.2 -7.48236 14.0681
    endloop
  endfacet
  facet normal -1 1.22461e-16 0
    outer loop
      vertex -9.2 -6 16
      vertex -9.2 -7.48236 14.0681
      vertex -9.2 -8 14
    endloop
  endfacet
  facet normal -1 1.22461e-16 0
    outer loop
      vertex -9.2 -8 14
      vertex -9.2 -8 162
      vertex -9.2 -6 16
    endloop
  endfacet
  facet normal -1 1.22461e-16 0
    outer loop
      vertex -9.2 -6 16
      vertex -9.2 -8 162
      vertex -9.2 -6 162
    endloop
  endfacet
  facet normal 1.22461e-16 1 0
    outer loop
      vertex -7.34764e-16 -6 16
      vertex -9.2 -6 16
      vertex -7.34764e-16 -6 162
    endloop
  endfacet
  facet normal 1.22461e-16 1 0
    outer loop
      vertex -7.34764e-16 -6 162
      vertex -9.2 -6 16
      vertex -9.2 -6 162
    endloop
  endfacet
  facet normal -1 1.22461e-16 0
    outer loop
      vertex 6.76345e-16 5.52296 12.3765
      vertex 6.04259e-16 4.93431 10.6424
      vertex 7.20096e-16 5.88023 14.1726
    endloop
  endfacet
  facet normal -1 1.22461e-16 0
    outer loop
      vertex 7.20096e-16 5.88023 14.1726
      vertex 6.04259e-16 4.93431 10.6424
      vertex 5.05071e-16 4.12436 9
    endloop
  endfacet
  facet normal -1 1.22461e-16 0
    outer loop
      vertex 7.20096e-16 5.88023 14.1726
      vertex 5.05071e-16 4.12436 9
      vertex 3.80479e-16 3.10695 7.47734
    endloop
  endfacet
  facet normal -1 1.22461e-16 0
    outer loop
      vertex 7.20096e-16 5.88023 14.1726
      vertex 3.80479e-16 3.10695 7.47734
      vertex 2.32613e-16 1.89949 6.10051
    endloop
  endfacet
  facet normal -1 1.22461e-16 0
    outer loop
      vertex 7.20096e-16 5.88023 14.1726
      vertex 2.32613e-16 1.89949 6.10051
      vertex 6.40053e-17 0.52266 4.89305
    endloop
  endfacet
  facet normal -1 1.22461e-16 0
    outer loop
      vertex 7.20096e-16 5.88023 14.1726
      vertex 6.40053e-17 0.52266 4.89305
      vertex -1.22461e-16 -1 3.87564
    endloop
  endfacet
  facet normal -1 1.22461e-16 0
    outer loop
      vertex 7.20096e-16 5.88023 14.1726
      vertex -1.22461e-16 -1 3.87564
      vertex -3.23594e-16 -2.64243 3.06569
    endloop
  endfacet
  facet normal -1 1.22461e-16 0
    outer loop
      vertex 7.20096e-16 5.88023 14.1726
      vertex -3.23594e-16 -2.64243 3.06569
      vertex -5.35953e-16 -4.37653 2.47704
    endloop
  endfacet
  facet normal -1 1.22461e-16 0
    outer loop
      vertex 7.20096e-16 5.88023 14.1726
      vertex -5.35953e-16 -4.37653 2.47704
      vertex -7.55905e-16 -6.17263 2.11977
    endloop
  endfacet
  facet normal -1 1.22461e-16 0
    outer loop
      vertex 7.20096e-16 5.88023 14.1726
      vertex -7.55905e-16 -6.17263 2.11977
      vertex -9.79685e-16 -8 2
    endloop
  endfacet
  facet normal -1 1.22461e-16 0
    outer loop
      vertex 7.20096e-16 5.88023 14.1726
      vertex -9.79685e-16 -8 2
      vertex -1.71445e-15 -14 2
    endloop
  endfacet
  facet normal -1 1.22461e-16 0
    outer loop
      vertex -9.79685e-16 -8 8
      vertex -1.71445e-15 -14 2
      vertex -1.71445e-15 -14 8
    endloop
  endfacet
  facet normal -1 1.22461e-16 0
    outer loop
      vertex 7.20096e-16 5.88023 14.1726
      vertex -1.71445e-15 -14 2
      vertex -9.79685e-16 -8 8
    endloop
  endfacet
  facet normal -1 1.22461e-16 0
    outer loop
      vertex 7.20096e-16 5.88023 14.1726
      vertex -9.79685e-16 -8 8
      vertex -1.00472e-15 -8.20444 9.55291
    endloop
  endfacet
  facet normal -1 1.22461e-16 0
    outer loop
      vertex 7.20096e-16 5.88023 14.1726
      vertex -1.07812e-15 -8.80385 11
      vertex -1.19489e-15 -9.75736 12.2426
    endloop
  endfacet
  facet normal -1 1.22461e-16 0
    outer loop
      vertex -1.19489e-15 -9.75736 12.2426
      vertex -1.34707e-15 -11 13.1962
      vertex 7.20096e-16 5.88023 14.1726
    endloop
  endfacet
  facet normal -1 1.22461e-16 0
    outer loop
      vertex -1.34707e-15 -11 13.1962
      vertex -1.52428e-15 -12.4471 13.7956
      vertex 7.20096e-16 5.88023 14.1726
    endloop
  endfacet
  facet normal -1 1.22461e-16 0
    outer loop
      vertex -2.08183e-15 -17 13.1962
      vertex -2.44921e-15 -20 13.2097
      vertex -1.90462e-15 -15.5529 13.7956
    endloop
  endfacet
  facet normal -1 1.22461e-16 0
    outer loop
      vertex -2.23401e-15 -18.2426 12.2426
      vertex -2.44921e-15 -20 13.2097
      vertex -2.08183e-15 -17 13.1962
    endloop
  endfacet
  facet normal -1 1.22461e-16 0
    outer loop
      vertex -2.35077e-15 -19.1962 11
      vertex -2.44921e-15 -20 13.2097
      vertex -2.23401e-15 -18.2426 12.2426
    endloop
  endfacet
  facet normal -1 1.22461e-16 0
    outer loop
      vertex -2.42418e-15 -19.7956 9.55291
      vertex -2.44921e-15 -20 8
      vertex -2.44921e-15 -20 13.2097
    endloop
  endfacet
  facet normal -1 1.22461e-16 0
    outer loop
      vertex -2.42418e-15 -19.7956 9.55291
      vertex -2.44921e-15 -20 13.2097
      vertex -2.35077e-15 -19.1962 11
    endloop
  endfacet
  facet normal -1 1.22461e-16 0
    outer loop
      vertex -1.90462e-15 -15.5529 13.7956
      vertex -2.44921e-15 -20 13.2097
      vertex -2.40719e-15 -19.6569 13.6569
    endloop
  endfacet
  facet normal -1 1.22461e-16 0
    outer loop
      vertex -1.90462e-15 -15.5529 13.7956
      vertex -2.40719e-15 -19.6569 13.6569
      vertex -1.71445e-15 -14 14
    endloop
  endfacet
  facet normal -1 1.22461e-16 0
    outer loop
      vertex -1.71445e-15 -14 14
      vertex -2.40719e-15 -19.6569 13.6569
      vertex -2.20429e-15 -18 14.9282
    endloop
  endfacet
  facet normal -1 1.22461e-16 0
    outer loop
      vertex -9.79685e-16 -8 14
      vertex -1.96801e-15 -16.0706 15.7274
      vertex -1.71445e-15 -14 16
    endloop
  endfacet
  facet normal -1 1.22461e-16 0
    outer loop
      vertex -9.79685e-16 -8 14
      vertex -1.71445e-15 -14 14
      vertex -2.20429e-15 -18 14.9282
    endloop
  endfacet
  facet normal -1 1.22461e-16 0
    outer loop
      vertex -1.52428e-15 -12.4471 13.7956
      vertex -1.71445e-15 -14 14
      vertex -9.79685e-16 -8 14
    endloop
  endfacet
  facet normal -1 1.22461e-16 0
    outer loop
      vertex -1.52428e-15 -12.4471 13.7956
      vertex -9.79685e-16 -8 14
      vertex 7.20096e-16 5.88023 14.1726
    endloop
  endfacet
  facet normal -1 1.22461e-16 0
    outer loop
      vertex -7.34764e-16 -6 16
      vertex 7.20096e-16 5.88023 14.1726
      vertex -7.43109e-16 -6.06815 15.4824
    endloop
  endfacet
  facet normal -1 1.22461e-16 0
    outer loop
      vertex -9.16295e-16 -7.48236 14.0681
      vertex -8.57224e-16 -7 14.2679
      vertex 7.20096e-16 5.88023 14.1726
    endloop
  endfacet
  facet normal -1 1.22461e-16 0
    outer loop
      vertex 7.20096e-16 5.88023 14.1726
      vertex -8.065e-16 -6.58579 14.5858
      vertex -7.67577e-16 -6.26795 15
    endloop
  endfacet
  facet normal -1 1.22461e-16 0
    outer loop
      vertex -9.79685e-16 -8 14
      vertex -2.20429e-15 -18 14.9282
      vertex -1.96801e-15 -16.0706 15.7274
    endloop
  endfacet
  facet normal -1 1.22461e-16 0
    outer loop
      vertex -7.34764e-16 -6 16
      vertex -7.34764e-16 -6 162
      vertex 7.20096e-16 5.88023 14.1726
    endloop
  endfacet
  facet normal -1 1.22461e-16 0
    outer loop
      vertex 7.20096e-16 5.88023 14.1726
      vertex -7.34764e-16 -6 162
      vertex 7.34764e-16 6 162
    endloop
  endfacet
  facet normal -1 1.22461e-16 0
    outer loop
      vertex 7.20096e-16 5.88023 14.1726
      vertex 7.34764e-16 6 162
      vertex 7.34764e-16 6 156
    endloop
  endfacet
  facet normal -1 1.22461e-16 0
    outer loop
      vertex 7.20096e-16 5.88023 14.1726
      vertex 7.34764e-16 6 156
      vertex 7.34764e-16 6 81
    endloop
  endfacet
  facet normal -1 1.22461e-16 0
    outer loop
      vertex 7.20096e-16 5.88023 14.1726
      vertex 7.34764e-16 6 81
      vertex 7.34764e-16 6 75
    endloop
  endfacet
  facet normal -1 1.22461e-16 0
    outer loop
      vertex 7.20096e-16 5.88023 14.1726
      vertex 7.34764e-16 6 75
      vertex 7.34764e-16 6 16
    endloop
  endfacet
  facet normal -1 1.22461e-16 0
    outer loop
      vertex -1.07812e-15 -8.80385 11
      vertex 7.20096e-16 5.88023 14.1726
      vertex -1.00472e-15 -8.20444 9.55291
    endloop
  endfacet
  facet normal -1 1.22461e-16 0
    outer loop
      vertex -9.79685e-16 -8 14
      vertex -1.71445e-15 -14 16
      vertex -9.79685e-16 -8 16
    endloop
  endfacet
  facet normal -1 1.22461e-16 0
    outer loop
      vertex -7.43109e-16 -6.06815 15.4824
      vertex 7.20096e-16 5.88023 14.1726
      vertex -7.67577e-16 -6.26795 15
    endloop
  endfacet
  facet normal -1 1.22461e-16 0
    outer loop
      vertex -8.065e-16 -6.58579 14.5858
      vertex 7.20096e-16 5.88023 14.1726
      vertex -8.57224e-16 -7 14.2679
    endloop
  endfacet
  facet normal -1 1.22461e-16 0
    outer loop
      vertex -9.16295e-16 -7.48236 14.0681
      vertex 7.20096e-16 5.88023 14.1726
      vertex -9.79685e-16 -8 14
    endloop
  endfacet
  facet normal -1.22461e-16 -1 0
    outer loop
      vertex 7.34764e-16 6 162
      vertex -46 6 162
      vertex -46 6 156
    endloop
  endfacet
  facet normal -1.22461e-16 -1 0
    outer loop
      vertex -9.2 6 156
      vertex 7.34764e-16 6 162
      vertex -36.8 6 156
    endloop
  endfacet
  facet normal -1.22461e-16 -1 0
    outer loop
      vertex -36.8 6 156
      vertex 7.34764e-16 6 162
      vertex -46 6 156
    endloop
  endfacet
  facet normal -1.22461e-16 -1 0
    outer loop
      vertex 7.34764e-16 6 156
      vertex 7.34764e-16 6 162
      vertex -9.2 6 156
    endloop
  endfacet
  facet normal 1 -1.22461e-16 0
    outer loop
      vertex -46 6 81
      vertex -46 6 156
      vertex -46 -6 162
    endloop
  endfacet
  facet normal 1 -1.22461e-16 0
    outer loop
      vertex -46 6 75
      vertex -46 6 81
      vertex -46 -6 162
    endloop
  endfacet
  facet normal 1 -1.22461e-16 0
    outer loop
      vertex -46 6 156
      vertex -46 6 162
      vertex -46 -6 162
    endloop
  endfacet
  facet normal 1 -1.22461e-16 0
    outer loop
      vertex -46 -6 16
      vertex -46 6 75
      vertex -46 -6 162
    endloop
  endfacet
  facet normal 1 -1.22461e-16 0
    outer loop
      vertex -46 -6.06815 15.4824
      vertex -46 6 75
      vertex -46 -6 16
    endloop
  endfacet
  facet normal 1 -1.22461e-16 0
    outer loop
      vertex -46 -8 2
      vertex -46 6 75
      vertex -46 -6.06815 15.4824
    endloop
  endfacet
  facet normal 1 -1.22461e-16 0
    outer loop
      vertex -46 -8 8
      vertex -46 -6.06815 15.4824
      vertex -46 -6.26795 15
    endloop
  endfacet
  facet normal 1 -1.22461e-16 0
    outer loop
      vertex -46 -8 8
      vertex -46 -6.26795 15
      vertex -46 -6.58579 14.5858
    endloop
  endfacet
  facet normal 1 -1.22461e-16 0
    outer loop
      vertex -46 -8 8
      vertex -46 -6.58579 14.5858
      vertex -46 -7 14.2679
    endloop
  endfacet
  facet normal 1 -1.22461e-16 0
    outer loop
      vertex -46 -20 8
      vertex -46 -7 14.2679
      vertex -46 -7.48236 14.0681
    endloop
  endfacet
  facet normal 1 -1.22461e-16 0
    outer loop
      vertex -46 -20 8
      vertex -46 -7.48236 14.0681
      vertex -46 -8 14
    endloop
  endfacet
  facet normal 1 -1.22461e-16 0
    outer loop
      vertex -46 -14 16
      vertex -46 -8 14
      vertex -46 -8 16
    endloop
  endfacet
  facet normal 1 -1.22461e-16 0
    outer loop
      vertex -46 -16.0706 15.7274
      vertex -46 -8 14
      vertex -46 -14 16
    endloop
  endfacet
  facet normal 1 -1.22461e-16 0
    outer loop
      vertex -46 -18 14.9282
      vertex -46 -8 14
      vertex -46 -16.0706 15.7274
    endloop
  endfacet
  facet normal 1 -1.22461e-16 0
    outer loop
      vertex -46 -19.6569 13.6569
      vertex -46 -8 14
      vertex -46 -18 14.9282
    endloop
  endfacet
  facet normal 1 -1.22461e-16 0
    outer loop
      vertex -46 -20 13.2097
      vertex -46 -8 14
      vertex -46 -19.6569 13.6569
    endloop
  endfacet
  facet normal 1 -1.22461e-16 0
    outer loop
      vertex -46 -20 8
      vertex -46 -8 14
      vertex -46 -20 13.2097
    endloop
  endfacet
  facet normal 1 -1.22461e-16 0
    outer loop
      vertex -46 -8 8
      vertex -46 -7 14.2679
      vertex -46 -20 8
    endloop
  endfacet
  facet normal 1 -1.22461e-16 0
    outer loop
      vertex -46 -8.20444 6.44709
      vertex -46 -6.06815 15.4824
      vertex -46 -8 8
    endloop
  endfacet
  facet normal 1 -1.22461e-16 0
    outer loop
      vertex -46 -8 2
      vertex -46 -6.06815 15.4824
      vertex -46 -8.20444 6.44709
    endloop
  endfacet
  facet normal 1 -1.22461e-16 0
    outer loop
      vertex -46 -8 2
      vertex -46 -8.20444 6.44709
      vertex -46 -8.80385 5
    endloop
  endfacet
  facet normal 1 -1.22461e-16 0
    outer loop
      vertex -46 -8 2
      vertex -46 -8.80385 5
      vertex -46 -9.75736 3.75736
    endloop
  endfacet
  facet normal 1 -1.22461e-16 0
    outer loop
      vertex -46 -8 2
      vertex -46 -9.75736 3.75736
      vertex -46 -11 2.80385
    endloop
  endfacet
  facet normal 1 -1.22461e-16 0
    outer loop
      vertex -46 -8 2
      vertex -46 -11 2.80385
      vertex -46 -12.4471 2.20445
    endloop
  endfacet
  facet normal 1 -1.22461e-16 0
    outer loop
      vertex -46 -8 2
      vertex -46 -12.4471 2.20445
      vertex -46 -14 2
    endloop
  endfacet
  facet normal 1 -1.22461e-16 0
    outer loop
      vertex -46 -8 2
      vertex -46 -6.17263 2.11977
      vertex -46 6 75
    endloop
  endfacet
  facet normal 1 -1.22461e-16 0
    outer loop
      vertex -46 -4.37653 2.47704
      vertex -46 6 75
      vertex -46 -6.17263 2.11977
    endloop
  endfacet
  facet normal 1 -1.22461e-16 0
    outer loop
      vertex -46 -2.64243 3.06569
      vertex -46 6 75
      vertex -46 -4.37653 2.47704
    endloop
  endfacet
  facet normal 1 -1.22461e-16 0
    outer loop
      vertex -46 -1 3.87564
      vertex -46 6 75
      vertex -46 -2.64243 3.06569
    endloop
  endfacet
  facet normal 1 -1.22461e-16 0
    outer loop
      vertex -46 0.52266 4.89305
      vertex -46 6 75
      vertex -46 -1 3.87564
    endloop
  endfacet
  facet normal 1 -1.22461e-16 0
    outer loop
      vertex -46 1.8995 6.10051
      vertex -46 6 75
      vertex -46 0.52266 4.89305
    endloop
  endfacet
  facet normal 1 -1.22461e-16 0
    outer loop
      vertex -46 3.10695 7.47734
      vertex -46 6 75
      vertex -46 1.8995 6.10051
    endloop
  endfacet
  facet normal 1 -1.22461e-16 0
    outer loop
      vertex -46 4.12436 9
      vertex -46 6 75
      vertex -46 3.10695 7.47734
    endloop
  endfacet
  facet normal 1 -1.22461e-16 0
    outer loop
      vertex -46 4.93431 10.6424
      vertex -46 6 75
      vertex -46 4.12436 9
    endloop
  endfacet
  facet normal 1 -1.22461e-16 0
    outer loop
      vertex -46 5.52296 12.3765
      vertex -46 6 75
      vertex -46 4.93431 10.6424
    endloop
  endfacet
  facet normal 1 -1.22461e-16 0
    outer loop
      vertex -46 5.88023 14.1726
      vertex -46 6 75
      vertex -46 5.52296 12.3765
    endloop
  endfacet
  facet normal 1 -1.22461e-16 0
    outer loop
      vertex -46 6 16
      vertex -46 6 75
      vertex -46 5.88023 14.1726
    endloop
  endfacet
  facet normal 1.22461e-16 1 0
    outer loop
      vertex -36.8 -6 16
      vertex -46 -6 16
      vertex -36.8 -6 162
    endloop
  endfacet
  facet normal 1.22461e-16 1 0
    outer loop
      vertex -36.8 -6 162
      vertex -46 -6 16
      vertex -46 -6 162
    endloop
  endfacet
  facet normal 1 -1.22461e-16 0
    outer loop
      vertex -36.8 -6 162
      vertex -36.8 -8 162
      vertex -36.8 -8 14
    endloop
  endfacet
  facet normal 1 -1.22461e-16 0
    outer loop
      vertex -36.8 -7 14.2679
      vertex -36.8 -6 162
      vertex -36.8 -7.48236 14.0681
    endloop
  endfacet
  facet normal 1 -1.22461e-16 0
    outer loop
      vertex -36.8 -6.58579 14.5858
      vertex -36.8 -6 162
      vertex -36.8 -7 14.2679
    endloop
  endfacet
  facet normal 1 -1.22461e-16 0
    outer loop
      vertex -36.8 -6.26795 15
      vertex -36.8 -6 162
      vertex -36.8 -6.58579 14.5858
    endloop
  endfacet
  facet normal 1 -1.22461e-16 0
    outer loop
      vertex -36.8 -6.06815 15.4824
      vertex -36.8 -6 162
      vertex -36.8 -6.26795 15
    endloop
  endfacet
  facet normal 1 -1.22461e-16 0
    outer loop
      vertex -36.8 -6 16
      vertex -36.8 -6 162
      vertex -36.8 -6.06815 15.4824
    endloop
  endfacet
  facet normal 1 -1.22461e-16 0
    outer loop
      vertex -36.8 -8 14
      vertex -36.8 -7.48236 14.0681
      vertex -36.8 -6 162
    endloop
  endfacet
  facet normal 2.04161e-16 -0.130526 0.991445
    outer loop
      vertex -46 -16.0706 15.7274
      vertex -46 -14 16
      vertex -48 -14 16
    endloop
  endfacet
  facet normal 2.04161e-16 -0.130526 0.991445
    outer loop
      vertex -48 -16.0706 15.7274
      vertex -46 -16.0706 15.7274
      vertex -48 -14 16
    endloop
  endfacet
  facet normal 1.58279e-16 -0.382684 0.923879
    outer loop
      vertex -46 -18 14.9282
      vertex -46 -16.0706 15.7274
      vertex -48 -16.0706 15.7274
    endloop
  endfacet
  facet normal 1.58279e-16 -0.382684 0.923879
    outer loop
      vertex -48 -18 14.9282
      vertex -46 -18 14.9282
      vertex -48 -16.0706 15.7274
    endloop
  endfacet
  facet normal 1.0161e-16 -0.608761 0.793353
    outer loop
      vertex -46 -19.6569 13.6569
      vertex -46 -18 14.9282
      vertex -48 -18 14.9282
    endloop
  endfacet
  facet normal 1.0161e-16 -0.608761 0.793353
    outer loop
      vertex -48 -19.6569 13.6569
      vertex -46 -19.6569 13.6569
      vertex -48 -18 14.9282
    endloop
  endfacet
  facet normal 1 -1.22461e-16 -2.22045e-16
    outer loop
      vertex -46 -20 8
      vertex -46 -19.7956 6.44709
      vertex -46 -19.1962 5
    endloop
  endfacet
  facet normal 1 -1.22461e-16 -2.22045e-16
    outer loop
      vertex -46 -17 2.80385
      vertex -46 -20 8
      vertex -46 -18.2426 3.75736
    endloop
  endfacet
  facet normal 1 -1.22461e-16 -2.22045e-16
    outer loop
      vertex -46 -18.2426 3.75736
      vertex -46 -20 8
      vertex -46 -19.1962 5
    endloop
  endfacet
  facet normal 1 -1.22461e-16 -2.22045e-16
    outer loop
      vertex -46 -15.5529 2.20445
      vertex -46 -20 8
      vertex -46 -17 2.80385
    endloop
  endfacet
  facet normal 1 -1.22461e-16 -2.22045e-16
    outer loop
      vertex -46 -14 2
      vertex -46 -20 8
      vertex -46 -15.5529 2.20445
    endloop
  endfacet
  facet normal 1 -1.22461e-16 -2.22045e-16
    outer loop
      vertex -46 -12.4471 2.20445
      vertex -46 -20 8
      vertex -46 -14 2
    endloop
  endfacet
  facet normal 1 -1.22461e-16 -2.22045e-16
    outer loop
      vertex -46 -11 2.80385
      vertex -46 -20 8
      vertex -46 -12.4471 2.20445
    endloop
  endfacet
  facet normal 1 -1.22461e-16 -2.22045e-16
    outer loop
      vertex -46 -9.75736 3.75736
      vertex -46 -20 8
      vertex -46 -11 2.80385
    endloop
  endfacet
  facet normal 1 -1.22461e-16 -2.22045e-16
    outer loop
      vertex -46 -8.80385 5
      vertex -46 -20 8
      vertex -46 -9.75736 3.75736
    endloop
  endfacet
  facet normal 1 -1.22461e-16 -2.22045e-16
    outer loop
      vertex -46 -8.20444 6.44709
      vertex -46 -20 8
      vertex -46 -8.80385 5
    endloop
  endfacet
  facet normal 1 -1.22461e-16 -2.22045e-16
    outer loop
      vertex -46 -8 8
      vertex -46 -20 8
      vertex -46 -8.20444 6.44709
    endloop
  endfacet
  facet normal 1.22461e-16 1 0
    outer loop
      vertex -3.04672e-15 -14 2
      vertex -1.71445e-15 -14 8
      vertex -1.71445e-15 -14 2
    endloop
  endfacet
  facet normal -1 1.22461e-16 2.22045e-16
    outer loop
      vertex -1.93289e-16 -11 13.1962
      vertex -2.52837e-16 -9.75736 12.2426
      vertex -2.37406e-16 -12.4471 13.7956
    endloop
  endfacet
  facet normal -1 1.22461e-16 2.22045e-16
    outer loop
      vertex -2.37406e-16 -12.4471 13.7956
      vertex -2.52837e-16 -9.75736 12.2426
      vertex -4.11991e-16 -8.80385 11
    endloop
  endfacet
  facet normal -1 1.22461e-16 2.22045e-16
    outer loop
      vertex -2.37406e-16 -12.4471 13.7956
      vertex -4.11991e-16 -8.80385 11
      vertex -6.59905e-16 -8.20444 9.55291
    endloop
  endfacet
  facet normal -1 1.22461e-16 2.22045e-16
    outer loop
      vertex -2.37406e-16 -12.4471 13.7956
      vertex -6.59905e-16 -8.20444 9.55291
      vertex -9.79685e-16 -8 8
    endloop
  endfacet
  facet normal -1 1.22461e-16 2.22045e-16
    outer loop
      vertex -2.37406e-16 -12.4471 13.7956
      vertex -9.79685e-16 -8 8
      vertex -1.71445e-15 -14 8
    endloop
  endfacet
  facet normal -1 1.22461e-16 2.22045e-16
    outer loop
      vertex -1.71445e-15 -14 8
      vertex -3.04672e-15 -14 2
      vertex -3.19149e-15 -15.5529 2.20445
    endloop
  endfacet
  facet normal -1 1.22461e-16 2.22045e-16
    outer loop
      vertex -1.71445e-15 -14 8
      vertex -3.19149e-15 -15.5529 2.20445
      vertex -3.23561e-15 -17 2.80385
    endloop
  endfacet
  facet normal -1 1.22461e-16 2.22045e-16
    outer loop
      vertex -1.71445e-15 -14 8
      vertex -3.23561e-15 -17 2.80385
      vertex -2.37406e-16 -12.4471 13.7956
    endloop
  endfacet
  facet normal -1 1.22461e-16 2.22045e-16
    outer loop
      vertex -2.37406e-16 -12.4471 13.7956
      vertex -3.23561e-15 -17 2.80385
      vertex -3.17606e-15 -18.2426 3.75736
    endloop
  endfacet
  facet normal -1 1.22461e-16 2.22045e-16
    outer loop
      vertex -2.37406e-16 -12.4471 13.7956
      vertex -3.17606e-15 -18.2426 3.75736
      vertex -3.01691e-15 -19.1962 5
    endloop
  endfacet
  facet normal -1 1.22461e-16 2.22045e-16
    outer loop
      vertex -2.37406e-16 -12.4471 13.7956
      vertex -3.01691e-15 -19.1962 5
      vertex -2.76899e-15 -19.7956 6.44709
    endloop
  endfacet
  facet normal -1 1.22461e-16 2.22045e-16
    outer loop
      vertex -2.37406e-16 -12.4471 13.7956
      vertex -2.76899e-15 -19.7956 6.44709
      vertex -2.44921e-15 -20 8
    endloop
  endfacet
  facet normal -1 1.22461e-16 2.22045e-16
    outer loop
      vertex -2.37406e-16 -12.4471 13.7956
      vertex -2.44921e-15 -20 8
      vertex -2.07936e-15 -19.7956 9.55291
    endloop
  endfacet
  facet normal -1 1.22461e-16 2.22045e-16
    outer loop
      vertex -2.37406e-16 -12.4471 13.7956
      vertex -2.07936e-15 -19.7956 9.55291
      vertex -1.68464e-15 -19.1962 11
    endloop
  endfacet
  facet normal -1 1.22461e-16 2.22045e-16
    outer loop
      vertex -2.37406e-16 -12.4471 13.7956
      vertex -1.68464e-15 -19.1962 11
      vertex -1.29195e-15 -18.2426 12.2426
    endloop
  endfacet
  facet normal -1 1.22461e-16 2.22045e-16
    outer loop
      vertex -2.37406e-16 -12.4471 13.7956
      vertex -1.29195e-15 -18.2426 12.2426
      vertex -9.28053e-16 -17 13.1962
    endloop
  endfacet
  facet normal -1 1.22461e-16 2.22045e-16
    outer loop
      vertex -2.37406e-16 -12.4471 13.7956
      vertex -9.28053e-16 -17 13.1962
      vertex -6.17748e-16 -15.5529 13.7956
    endloop
  endfacet
  facet normal -1 1.22461e-16 2.22045e-16
    outer loop
      vertex -2.37406e-16 -12.4471 13.7956
      vertex -6.17748e-16 -15.5529 13.7956
      vertex -3.82181e-16 -14 14
    endloop
  endfacet
  facet normal 9.24303e-17 0.991445 -0.130526
    outer loop
      vertex -2.44921e-15 -20 8
      vertex -2.42418e-15 -19.7956 9.55291
      vertex -2.07936e-15 -19.7956 9.55291
    endloop
  endfacet
  facet normal -1.22461e-16 -1 0
    outer loop
      vertex 7.34764e-16 6 156
      vertex -9.2 6 156
      vertex -9.2 6 81
    endloop
  endfacet
  facet normal -1.22461e-16 -1 0
    outer loop
      vertex 7.34764e-16 6 81
      vertex 7.34764e-16 6 156
      vertex -9.2 6 81
    endloop
  endfacet
  facet normal -1.22461e-16 -1 0
    outer loop
      vertex -36.8 6 156
      vertex -46 6 156
      vertex -46 6 81
    endloop
  endfacet
  facet normal -1.22461e-16 -1 0
    outer loop
      vertex -36.8 6 81
      vertex -36.8 6 156
      vertex -46 6 81
    endloop
  endfacet
  facet normal 9.24305e-17 0.991445 -0.130526
    outer loop
      vertex -7.34764e-16 -6 16
      vertex -7.43109e-16 -6.06815 15.4824
      vertex -9.2 -6 16
    endloop
  endfacet
  facet normal 9.24305e-17 0.991445 -0.130526
    outer loop
      vertex -9.2 -6 16
      vertex -7.43109e-16 -6.06815 15.4824
      vertex -9.2 -6.06815 15.4824
    endloop
  endfacet
  facet normal -2.04161e-16 0.130526 -0.991445
    outer loop
      vertex -9.16295e-16 -7.48236 14.0681
      vertex -9.79685e-16 -8 14
      vertex -9.2 -7.48236 14.0681
    endloop
  endfacet
  facet normal -2.04161e-16 0.130526 -0.991445
    outer loop
      vertex -9.2 -7.48236 14.0681
      vertex -9.79685e-16 -8 14
      vertex -9.2 -8 14
    endloop
  endfacet
  facet normal -1.58279e-16 0.382684 -0.923879
    outer loop
      vertex -8.57224e-16 -7 14.2679
      vertex -9.16295e-16 -7.48236 14.0681
      vertex -9.2 -7 14.2679
    endloop
  endfacet
  facet normal -1.58279e-16 0.382684 -0.923879
    outer loop
      vertex -9.2 -7 14.2679
      vertex -9.16295e-16 -7.48236 14.0681
      vertex -9.2 -7.48236 14.0681
    endloop
  endfacet
  facet normal -1.01611e-16 0.608761 -0.793354
    outer loop
      vertex -8.065e-16 -6.58579 14.5858
      vertex -8.57224e-16 -7 14.2679
      vertex -9.2 -6.58579 14.5858
    endloop
  endfacet
  facet normal -1.01611e-16 0.608761 -0.793354
    outer loop
      vertex -9.2 -6.58579 14.5858
      vertex -8.57224e-16 -7 14.2679
      vertex -9.2 -7 14.2679
    endloop
  endfacet
  facet normal -3.80174e-17 0.793354 -0.608761
    outer loop
      vertex -7.67577e-16 -6.26795 15
      vertex -8.065e-16 -6.58579 14.5858
      vertex -9.2 -6.26795 15
    endloop
  endfacet
  facet normal -3.80174e-17 0.793354 -0.608761
    outer loop
      vertex -9.2 -6.26795 15
      vertex -8.065e-16 -6.58579 14.5858
      vertex -9.2 -6.58579 14.5858
    endloop
  endfacet
  facet normal 2.8166e-17 0.923879 -0.382684
    outer loop
      vertex -7.43109e-16 -6.06815 15.4824
      vertex -7.67577e-16 -6.26795 15
      vertex -9.2 -6.06815 15.4824
    endloop
  endfacet
  facet normal 2.8166e-17 0.923879 -0.382684
    outer loop
      vertex -9.2 -6.06815 15.4824
      vertex -7.67577e-16 -6.26795 15
      vertex -9.2 -6.26795 15
    endloop
  endfacet
  facet normal 2.8166e-17 0.923879 -0.382684
    outer loop
      vertex -2.42418e-15 -19.7956 9.55291
      vertex -2.35077e-15 -19.1962 11
      vertex -2.07936e-15 -19.7956 9.55291
    endloop
  endfacet
  facet normal 2.8166e-17 0.923879 -0.382684
    outer loop
      vertex -2.07936e-15 -19.7956 9.55291
      vertex -2.35077e-15 -19.1962 11
      vertex -1.68464e-15 -19.1962 11
    endloop
  endfacet
  facet normal -3.80175e-17 0.793354 -0.608761
    outer loop
      vertex -2.35077e-15 -19.1962 11
      vertex -2.23401e-15 -18.2426 12.2426
      vertex -1.68464e-15 -19.1962 11
    endloop
  endfacet
  facet normal -3.80175e-17 0.793354 -0.608761
    outer loop
      vertex -1.68464e-15 -19.1962 11
      vertex -2.23401e-15 -18.2426 12.2426
      vertex -1.29195e-15 -18.2426 12.2426
    endloop
  endfacet
  facet normal -1.01611e-16 0.608761 -0.793354
    outer loop
      vertex -2.23401e-15 -18.2426 12.2426
      vertex -2.08183e-15 -17 13.1962
      vertex -1.29195e-15 -18.2426 12.2426
    endloop
  endfacet
  facet normal -1.01611e-16 0.608761 -0.793354
    outer loop
      vertex -1.29195e-15 -18.2426 12.2426
      vertex -2.08183e-15 -17 13.1962
      vertex -9.28053e-16 -17 13.1962
    endloop
  endfacet
  facet normal -1.58279e-16 0.382684 -0.923879
    outer loop
      vertex -2.08183e-15 -17 13.1962
      vertex -1.90462e-15 -15.5529 13.7956
      vertex -9.28053e-16 -17 13.1962
    endloop
  endfacet
  facet normal -1.58279e-16 0.382684 -0.923879
    outer loop
      vertex -9.28053e-16 -17 13.1962
      vertex -1.90462e-15 -15.5529 13.7956
      vertex -6.17748e-16 -15.5529 13.7956
    endloop
  endfacet
  facet normal -2.04161e-16 0.130526 -0.991445
    outer loop
      vertex -1.90462e-15 -15.5529 13.7956
      vertex -1.71445e-15 -14 14
      vertex -6.17748e-16 -15.5529 13.7956
    endloop
  endfacet
  facet normal -2.04161e-16 0.130526 -0.991445
    outer loop
      vertex -6.17748e-16 -15.5529 13.7956
      vertex -1.71445e-15 -14 14
      vertex -3.82181e-16 -14 14
    endloop
  endfacet
  facet normal -2.36129e-16 -0.130526 -0.991445
    outer loop
      vertex -1.52428e-15 -12.4471 13.7956
      vertex -2.37406e-16 -12.4471 13.7956
      vertex -1.71445e-15 -14 14
    endloop
  endfacet
  facet normal -2.36129e-16 -0.130526 -0.991445
    outer loop
      vertex -1.71445e-15 -14 14
      vertex -2.37406e-16 -12.4471 13.7956
      vertex -3.82181e-16 -14 14
    endloop
  endfacet
  facet normal -2.52006e-16 -0.382684 -0.923879
    outer loop
      vertex -1.34707e-15 -11 13.1962
      vertex -1.93289e-16 -11 13.1962
      vertex -1.52428e-15 -12.4471 13.7956
    endloop
  endfacet
  facet normal -2.52006e-16 -0.382684 -0.923879
    outer loop
      vertex -1.52428e-15 -12.4471 13.7956
      vertex -1.93289e-16 -11 13.1962
      vertex -2.37406e-16 -12.4471 13.7956
    endloop
  endfacet
  facet normal -2.50709e-16 -0.608761 -0.793354
    outer loop
      vertex -1.19489e-15 -9.75736 12.2426
      vertex -2.52837e-16 -9.75736 12.2426
      vertex -1.34707e-15 -11 13.1962
    endloop
  endfacet
  facet normal -2.50709e-16 -0.608761 -0.793354
    outer loop
      vertex -1.34707e-15 -11 13.1962
      vertex -2.52837e-16 -9.75736 12.2426
      vertex -1.93289e-16 -11 13.1962
    endloop
  endfacet
  facet normal -2.32327e-16 -0.793354 -0.608761
    outer loop
      vertex -1.19489e-15 -9.75736 12.2426
      vertex -1.07812e-15 -8.80385 11
      vertex -4.11991e-16 -8.80385 11
    endloop
  endfacet
  facet normal -2.32327e-16 -0.793354 -0.608761
    outer loop
      vertex -2.52837e-16 -9.75736 12.2426
      vertex -1.19489e-15 -9.75736 12.2426
      vertex -4.11991e-16 -8.80385 11
    endloop
  endfacet
  facet normal -1.98112e-16 -0.923879 -0.382684
    outer loop
      vertex -1.07812e-15 -8.80385 11
      vertex -1.00472e-15 -8.20444 9.55291
      vertex -6.59905e-16 -8.20444 9.55291
    endloop
  endfacet
  facet normal -1.98112e-16 -0.923879 -0.382684
    outer loop
      vertex -4.11991e-16 -8.80385 11
      vertex -1.07812e-15 -8.80385 11
      vertex -6.59905e-16 -8.20444 9.55291
    endloop
  endfacet
  facet normal -1.50396e-16 -0.991445 -0.130526
    outer loop
      vertex -1.00472e-15 -8.20444 9.55291
      vertex -9.79685e-16 -8 8
      vertex -6.59905e-16 -8.20444 9.55291
    endloop
  endfacet
  facet normal -2.04161e-16 0.130526 -0.991445
    outer loop
      vertex -36.8 -7.48236 14.0681
      vertex -36.8 -8 14
      vertex -46 -7.48236 14.0681
    endloop
  endfacet
  facet normal -2.04161e-16 0.130526 -0.991445
    outer loop
      vertex -46 -7.48236 14.0681
      vertex -36.8 -8 14
      vertex -46 -8 14
    endloop
  endfacet
  facet normal -1.58279e-16 0.382684 -0.923879
    outer loop
      vertex -36.8 -7 14.2679
      vertex -36.8 -7.48236 14.0681
      vertex -46 -7 14.2679
    endloop
  endfacet
  facet normal -1.58279e-16 0.382684 -0.923879
    outer loop
      vertex -46 -7 14.2679
      vertex -36.8 -7.48236 14.0681
      vertex -46 -7.48236 14.0681
    endloop
  endfacet
  facet normal -1.01611e-16 0.608761 -0.793354
    outer loop
      vertex -36.8 -6.58579 14.5858
      vertex -36.8 -7 14.2679
      vertex -46 -6.58579 14.5858
    endloop
  endfacet
  facet normal -1.01611e-16 0.608761 -0.793354
    outer loop
      vertex -46 -6.58579 14.5858
      vertex -36.8 -7 14.2679
      vertex -46 -7 14.2679
    endloop
  endfacet
  facet normal -3.80174e-17 0.793354 -0.608761
    outer loop
      vertex -36.8 -6.26795 15
      vertex -36.8 -6.58579 14.5858
      vertex -46 -6.26795 15
    endloop
  endfacet
  facet normal -3.80174e-17 0.793354 -0.608761
    outer loop
      vertex -46 -6.26795 15
      vertex -36.8 -6.58579 14.5858
      vertex -46 -6.58579 14.5858
    endloop
  endfacet
  facet normal 2.8166e-17 0.923879 -0.382684
    outer loop
      vertex -36.8 -6.06815 15.4824
      vertex -36.8 -6.26795 15
      vertex -46 -6.06815 15.4824
    endloop
  endfacet
  facet normal 2.8166e-17 0.923879 -0.382684
    outer loop
      vertex -46 -6.06815 15.4824
      vertex -36.8 -6.26795 15
      vertex -46 -6.26795 15
    endloop
  endfacet
  facet normal 9.24305e-17 0.991445 -0.130526
    outer loop
      vertex -36.8 -6 16
      vertex -36.8 -6.06815 15.4824
      vertex -46 -6 16
    endloop
  endfacet
  facet normal 9.24305e-17 0.991445 -0.130526
    outer loop
      vertex -46 -6 16
      vertex -36.8 -6.06815 15.4824
      vertex -46 -6.06815 15.4824
    endloop
  endfacet
endsolid OpenSCAD_Model
