solid hc-sr04-back 42.5
facet normal -0.998025895089598 -0.06280376366593762 -6.329295361111317e-18
  outer loop
    vertex -2.3000000000000007 -0.22295500000000082 0.35350000000000004
    vertex -2.281678600000001 -0.5141036600000011 0.0
    vertex -2.281678600000001 -0.5141036600000011 0.35350000000000004
  endloop
endfacet
facet normal -0.998025895089598 -0.06280376366593761 0.0
  outer loop
    vertex -2.3000000000000007 -0.22295500000000082 0.0
    vertex -2.281678600000001 -0.5141036600000011 0.0
    vertex -2.3000000000000007 -0.22295500000000082 0.35350000000000004
  endloop
endfacet
facet normal 0.0 0.0 -1.0
  outer loop
    vertex -2.281678600000001 20.268227999999997 0.0
    vertex -2.3000000000000007 -0.22295500000000082 0.0
    vertex -2.3000000000000007 19.977045 0.0
  endloop
endfacet
facet normal 0.0 0.0 -1.0
  outer loop
    vertex -2.3000000000000007 -0.22295500000000082 0.0
    vertex -2.281678600000001 20.268227999999997 0.0
    vertex -2.2270174000000003 20.554765 0.0
  endloop
endfacet
facet normal -1.0 0.0 0.0
  outer loop
    vertex -2.3000000000000007 19.977045 0.0
    vertex -2.3000000000000007 -0.22295500000000082 0.35350000000000004
    vertex -2.3000000000000007 19.977045 0.35350000000000004
  endloop
endfacet
facet normal -1.0 0.0 0.0
  outer loop
    vertex -2.3000000000000007 19.977045 0.0
    vertex -2.3000000000000007 -0.22295500000000082 0.0
    vertex -2.3000000000000007 -0.22295500000000082 0.35350000000000004
  endloop
endfacet
facet normal 0.0 0.0 1.0
  outer loop
    vertex -0.12286218000000033 -2.5413696000000012 0.35350000000000004
    vertex -2.3000000000000007 19.977045 0.35350000000000004
    vertex -0.41228677000000064 -2.5048076000000012 0.35350000000000004
  endloop
endfacet
facet normal 0.0 0.0 -1.0
  outer loop
    vertex 46.78600000000001 19.977045 0.0
    vertex -2.281678600000001 -0.5141036600000011 0.0
    vertex 46.76771900000001 20.268227999999997 0.0
  endloop
endfacet
facet normal 0.0 0.0 -1.0
  outer loop
    vertex -0.41228677000000064 -2.5048076000000012 0.0
    vertex -0.6948463900000005 -2.4322593000000015 0.0
    vertex -2.281678600000001 -0.5141036600000011 0.0
  endloop
endfacet
facet normal 0.0 0.0 -1.0
  outer loop
    vertex 46.342307000000005 21.342464000000003 0.0
    vertex -2.281678600000001 -0.5141036600000011 0.0
    vertex 46.156366000000006 21.56729 0.0
  endloop
endfacet
facet normal 0.0 0.0 1.0
  outer loop
    vertex 46.78600000000001 -0.22295500000000082 0.35350000000000004
    vertex 44.46300000000001 19.977045 0.35350000000000004
    vertex 46.76771900000001 -0.5141036600000011 0.35350000000000004
  endloop
endfacet
facet normal 0.0 0.0 -1.0
  outer loop
    vertex 46.78600000000001 -0.22295500000000082 0.0
    vertex 46.76771900000001 -0.5141036600000011 0.0
    vertex -2.281678600000001 -0.5141036600000011 0.0
  endloop
endfacet
facet normal 0.0 0.0 -1.0
  outer loop
    vertex 46.71297700000001 -0.8006618700000009 0.0
    vertex 46.62288500000001 -1.0781078600000011 0.0
    vertex -2.281678600000001 -0.5141036600000011 0.0
  endloop
endfacet
facet normal 0.0 0.0 -1.0
  outer loop
    vertex 46.76771900000001 -0.5141036600000011 0.0
    vertex 46.71297700000001 -0.8006618700000009 0.0
    vertex -2.281678600000001 -0.5141036600000011 0.0
  endloop
endfacet
facet normal 0.0 0.0 1.0
  outer loop
    vertex 45.452093000000005 -2.3248660000000014 0.35350000000000004
    vertex 44.46300000000001 -0.22295500000000082 0.35350000000000004
    vertex 45.18080700000001 -2.4322593000000015 0.35350000000000004
  endloop
endfacet
facet normal 0.0 0.0 -1.0
  outer loop
    vertex 14.163 22.295500000000004 0.0
    vertex -2.281678600000001 -0.5141036600000011 0.0
    vertex -0.12286218000000033 22.295500000000004 0.0
  endloop
endfacet
facet normal 0.0 0.0 -1.0
  outer loop
    vertex 14.163 15.937045000000001 0.0
    vertex -2.281678600000001 -0.5141036600000011 0.0
    vertex 14.163 22.295500000000004 0.0
  endloop
endfacet
facet normal -0.9980263593077509 0.06279638625682443 0.0
  outer loop
    vertex -2.281678600000001 20.268227999999997 0.0
    vertex -2.3000000000000007 19.977045 0.0
    vertex -2.3000000000000007 19.977045 0.35350000000000004
  endloop
endfacet
facet normal 0.0 0.0 -1.0
  outer loop
    vertex 45.943761 21.766967 0.0
    vertex -2.281678600000001 -0.5141036600000011 0.0
    vertex 45.707724000000006 21.938465 0.0
  endloop
endfacet
facet normal 0.0 0.0 -1.0
  outer loop
    vertex 46.156366000000006 21.56729 0.0
    vertex -2.281678600000001 -0.5141036600000011 0.0
    vertex 45.943761 21.766967 0.0
  endloop
endfacet
facet normal 0.0 0.0 -1.0
  outer loop
    vertex 46.71297700000001 20.554765 0.0
    vertex -2.281678600000001 -0.5141036600000011 0.0
    vertex 46.62288500000001 20.832212000000002 0.0
  endloop
endfacet
facet normal 0.0 0.0 -1.0
  outer loop
    vertex 46.76771900000001 20.268227999999997 0.0
    vertex -2.281678600000001 -0.5141036600000011 0.0
    vertex 46.71297700000001 20.554765 0.0
  endloop
endfacet
facet normal 0.0 0.0 -1.0
  outer loop
    vertex -0.12286218000000033 22.295500000000004 0.0
    vertex -2.281678600000001 -0.5141036600000011 0.0
    vertex -0.41228677000000064 22.258938 0.0
  endloop
endfacet
facet normal 0.0 0.0 -1.0
  outer loop
    vertex 46.498655000000014 -1.3420653000000011 0.0
    vertex 46.342307000000005 -1.588384100000001 0.0
    vertex -2.281678600000001 -0.5141036600000011 0.0
  endloop
endfacet
facet normal 0.0 0.0 -1.0
  outer loop
    vertex 45.707724000000006 21.938465 0.0
    vertex -2.281678600000001 -0.5141036600000011 0.0
    vertex 45.452093000000005 22.078956 0.0
  endloop
endfacet
facet normal 0.0 0.0 -1.0
  outer loop
    vertex 45.943761 -2.012856800000001 0.0
    vertex 45.707724000000006 -2.1843245000000016 0.0
    vertex -2.281678600000001 -0.5141036600000011 0.0
  endloop
endfacet
facet normal 0.0 0.0 -1.0
  outer loop
    vertex 30.323000000000004 15.937045000000001 0.0
    vertex -2.281678600000001 -0.5141036600000011 0.0
    vertex 14.163 15.937045000000001 0.0
  endloop
endfacet
facet normal 0.0 0.0 -1.0
  outer loop
    vertex -1.457740800000001 -2.012856800000001 0.0
    vertex -1.6703963000000008 -1.8131596000000012 0.0
    vertex -2.281678600000001 -0.5141036600000011 0.0
  endloop
endfacet
facet normal 0.0 0.0 -1.0
  outer loop
    vertex 45.452093000000005 22.078956 0.0
    vertex -2.281678600000001 -0.5141036600000011 0.0
    vertex 45.18080700000001 22.186319 0.0
  endloop
endfacet
facet normal 0.0 0.0 -1.0
  outer loop
    vertex 46.62288500000001 -1.0781078600000011 0.0
    vertex 46.498655000000014 -1.3420653000000011 0.0
    vertex -2.281678600000001 -0.5141036600000011 0.0
  endloop
endfacet
facet normal 0.0 0.0 -1.0
  outer loop
    vertex 44.89831000000001 22.258938 0.0
    vertex -2.281678600000001 -0.5141036600000011 0.0
    vertex 44.608844000000005 22.295500000000004 0.0
  endloop
endfacet
facet normal 0.0 0.0 -1.0
  outer loop
    vertex 45.18080700000001 22.186319 0.0
    vertex -2.281678600000001 -0.5141036600000011 0.0
    vertex 44.89831000000001 22.258938 0.0
  endloop
endfacet
facet normal 0.0 0.0 -1.0
  outer loop
    vertex 44.608844000000005 22.295500000000004 0.0
    vertex 30.323000000000004 15.937045000000001 0.0
    vertex 30.323000000000004 22.295500000000004 0.0
  endloop
endfacet
facet normal 0.0 0.0 -1.0
  outer loop
    vertex 44.608844000000005 22.295500000000004 0.0
    vertex -2.281678600000001 -0.5141036600000011 0.0
    vertex 30.323000000000004 15.937045000000001 0.0
  endloop
endfacet
facet normal 0.0 0.0 -1.0
  outer loop
    vertex 46.498655000000014 21.096125000000004 0.0
    vertex -2.281678600000001 -0.5141036600000011 0.0
    vertex 46.342307000000005 21.342464000000003 0.0
  endloop
endfacet
facet normal 0.0 0.0 -1.0
  outer loop
    vertex 46.78600000000001 -0.22295500000000082 0.0
    vertex -2.281678600000001 -0.5141036600000011 0.0
    vertex 46.78600000000001 19.977045 0.0
  endloop
endfacet
facet normal 0.0 0.0 -1.0
  outer loop
    vertex 46.62288500000001 20.832212000000002 0.0
    vertex -2.281678600000001 -0.5141036600000011 0.0
    vertex 46.498655000000014 21.096125000000004 0.0
  endloop
endfacet
facet normal 0.0 0.0 -1.0
  outer loop
    vertex 45.707724000000006 -2.1843245000000016 0.0
    vertex 45.452093000000005 -2.3248660000000014 0.0
    vertex -2.281678600000001 -0.5141036600000011 0.0
  endloop
endfacet
facet normal 0.0 0.0 -1.0
  outer loop
    vertex 46.342307000000005 -1.588384100000001 0.0
    vertex 46.156366000000006 -1.8131596000000012 0.0
    vertex -2.281678600000001 -0.5141036600000011 0.0
  endloop
endfacet
facet normal 0.0 0.0 -1.0
  outer loop
    vertex 46.156366000000006 -1.8131596000000012 0.0
    vertex 45.943761 -2.012856800000001 0.0
    vertex -2.281678600000001 -0.5141036600000011 0.0
  endloop
endfacet
facet normal 0.0 0.0 -1.0
  outer loop
    vertex 44.608844000000005 -2.5413696000000012 0.0
    vertex -0.12286218000000033 -2.5413696000000012 0.0
    vertex -2.281678600000001 -0.5141036600000011 0.0
  endloop
endfacet
facet normal 0.0 0.0 -1.0
  outer loop
    vertex -2.012665100000001 -1.3420653000000011 0.0
    vertex -2.2270174000000003 -0.8006618700000009 0.0
    vertex -2.281678600000001 -0.5141036600000011 0.0
  endloop
endfacet
facet normal 0.0 0.0 -1.0
  outer loop
    vertex -2.2270174000000003 -0.8006618700000009 0.0
    vertex -2.012665100000001 -1.3420653000000011 0.0
    vertex -2.136874900000001 -1.0781078600000011 0.0
  endloop
endfacet
facet normal 0.0 0.0 -1.0
  outer loop
    vertex -1.6703963000000008 -1.8131596000000012 0.0
    vertex -1.8563474000000009 -1.588384100000001 0.0
    vertex -2.281678600000001 -0.5141036600000011 0.0
  endloop
endfacet
facet normal 0.0 0.0 -1.0
  outer loop
    vertex -1.8563474000000009 -1.588384100000001 0.0
    vertex -2.012665100000001 -1.3420653000000011 0.0
    vertex -2.281678600000001 -0.5141036600000011 0.0
  endloop
endfacet
facet normal 0.0 0.0 -1.0
  outer loop
    vertex -0.6948463900000005 -2.4322593000000015 0.0
    vertex -0.9660849200000007 -2.3248660000000014 0.0
    vertex -2.281678600000001 -0.5141036600000011 0.0
  endloop
endfacet
facet normal 0.0 0.0 -1.0
  outer loop
    vertex -0.9660849200000007 -2.3248660000000014 0.0
    vertex -1.2217240000000007 -2.1843245000000016 0.0
    vertex -2.281678600000001 -0.5141036600000011 0.0
  endloop
endfacet
facet normal 0.0 0.0 -1.0
  outer loop
    vertex 45.452093000000005 -2.3248660000000014 0.0
    vertex 45.18080700000001 -2.4322593000000015 0.0
    vertex -2.281678600000001 -0.5141036600000011 0.0
  endloop
endfacet
facet normal 0.0 0.0 -1.0
  outer loop
    vertex 45.18080700000001 -2.4322593000000015 0.0
    vertex 44.89831000000001 -2.5048076000000012 0.0
    vertex -2.281678600000001 -0.5141036600000011 0.0
  endloop
endfacet
facet normal 0.0 0.0 -1.0
  outer loop
    vertex 44.89831000000001 -2.5048076000000012 0.0
    vertex 44.608844000000005 -2.5413696000000012 0.0
    vertex -2.281678600000001 -0.5141036600000011 0.0
  endloop
endfacet
facet normal 0.0 0.0 -1.0
  outer loop
    vertex -1.2217240000000007 -2.1843245000000016 0.0
    vertex -1.457740800000001 -2.012856800000001 0.0
    vertex -2.281678600000001 -0.5141036600000011 0.0
  endloop
endfacet
facet normal 0.0 0.0 -1.0
  outer loop
    vertex -0.12286218000000033 -2.5413696000000012 0.0
    vertex -0.41228677000000064 -2.5048076000000012 0.0
    vertex -2.281678600000001 -0.5141036600000011 0.0
  endloop
endfacet
facet normal -0.9980263593077509 0.06279638625682443 0.0
  outer loop
    vertex -2.281678600000001 20.268227999999997 0.0
    vertex -2.3000000000000007 19.977045 0.35350000000000004
    vertex -2.281678600000001 20.268227999999997 0.35350000000000004
  endloop
endfacet
facet normal 0.0 0.0 1.0
  outer loop
    vertex -2.136874900000001 -1.0781078600000011 0.35350000000000004
    vertex -2.3000000000000007 19.977045 0.35350000000000004
    vertex -2.2270174000000003 -0.8006618700000009 0.35350000000000004
  endloop
endfacet
facet normal 0.0 0.0 1.0
  outer loop
    vertex -2.281678600000001 -0.5141036600000011 0.35350000000000004
    vertex -2.3000000000000007 19.977045 0.35350000000000004
    vertex -2.3000000000000007 -0.22295500000000082 0.35350000000000004
  endloop
endfacet
facet normal 0.0 0.0 1.0
  outer loop
    vertex -2.3000000000000007 19.977045 0.35350000000000004
    vertex -2.281678600000001 -0.5141036600000011 0.35350000000000004
    vertex -2.2270174000000003 -0.8006618700000009 0.35350000000000004
  endloop
endfacet
facet normal 0.0 0.0 1.0
  outer loop
    vertex -2.012665100000001 -1.3420653000000011 0.35350000000000004
    vertex -2.3000000000000007 19.977045 0.35350000000000004
    vertex -2.136874900000001 -1.0781078600000011 0.35350000000000004
  endloop
endfacet
facet normal 0.0 0.0 1.0
  outer loop
    vertex -1.8563474000000009 -1.588384100000001 0.35350000000000004
    vertex -2.3000000000000007 19.977045 0.35350000000000004
    vertex -2.012665100000001 -1.3420653000000011 0.35350000000000004
  endloop
endfacet
facet normal 0.0 0.0 1.0
  outer loop
    vertex -1.6703963000000008 -1.8131596000000012 0.35350000000000004
    vertex -2.3000000000000007 19.977045 0.35350000000000004
    vertex -1.8563474000000009 -1.588384100000001 0.35350000000000004
  endloop
endfacet
facet normal 0.0 0.0 1.0
  outer loop
    vertex -1.457740800000001 -2.012856800000001 0.35350000000000004
    vertex -2.3000000000000007 19.977045 0.35350000000000004
    vertex -1.6703963000000008 -1.8131596000000012 0.35350000000000004
  endloop
endfacet
facet normal 0.0 0.0 1.0
  outer loop
    vertex -1.2217240000000007 -2.1843245000000016 0.35350000000000004
    vertex -2.3000000000000007 19.977045 0.35350000000000004
    vertex -1.457740800000001 -2.012856800000001 0.35350000000000004
  endloop
endfacet
facet normal 0.0 0.0 1.0
  outer loop
    vertex -0.9660849200000007 -2.3248660000000014 0.35350000000000004
    vertex -2.3000000000000007 19.977045 0.35350000000000004
    vertex -1.2217240000000007 -2.1843245000000016 0.35350000000000004
  endloop
endfacet
facet normal 0.0 0.0 1.0
  outer loop
    vertex -0.6948463900000005 -2.4322593000000015 0.35350000000000004
    vertex -2.3000000000000007 19.977045 0.35350000000000004
    vertex -0.9660849200000007 -2.3248660000000014 0.35350000000000004
  endloop
endfacet
facet normal 0.0 0.0 1.0
  outer loop
    vertex -0.41228677000000064 -2.5048076000000012 0.35350000000000004
    vertex -2.3000000000000007 19.977045 0.35350000000000004
    vertex -0.6948463900000005 -2.4322593000000015 0.35350000000000004
  endloop
endfacet
facet normal 0.0 0.0 -1.0
  outer loop
    vertex -2.136874900000001 20.832212000000002 0.0
    vertex -2.3000000000000007 -0.22295500000000082 0.0
    vertex -2.2270174000000003 20.554765 0.0
  endloop
endfacet
facet normal 0.0 0.0 1.0
  outer loop
    vertex 0.022999999999999618 -0.22295500000000082 0.35350000000000004
    vertex -2.3000000000000007 19.977045 0.35350000000000004
    vertex -0.12286218000000033 -2.5413696000000012 0.35350000000000004
  endloop
endfacet
facet normal 0.0 0.0 1.0
  outer loop
    vertex 0.022999999999999618 19.977045 0.35350000000000004
    vertex -2.3000000000000007 19.977045 0.35350000000000004
    vertex 0.022999999999999618 -0.22295500000000082 0.35350000000000004
  endloop
endfacet
facet normal 0.0 0.0 1.0
  outer loop
    vertex 14.163 22.295500000000004 0.35350000000000004
    vertex 0.022999999999999618 19.977045 0.35350000000000004
    vertex 14.163 19.977045 0.35350000000000004
  endloop
endfacet
facet normal 0.0 0.0 1.0
  outer loop
    vertex 46.498655000000014 -1.3420653000000011 0.35350000000000004
    vertex 44.46300000000001 -0.22295500000000082 0.35350000000000004
    vertex 46.342307000000005 -1.588384100000001 0.35350000000000004
  endloop
endfacet
facet normal 0.0 0.0 1.0
  outer loop
    vertex 46.342307000000005 -1.588384100000001 0.35350000000000004
    vertex 44.46300000000001 -0.22295500000000082 0.35350000000000004
    vertex 46.156366000000006 -1.8131596000000012 0.35350000000000004
  endloop
endfacet
facet normal 0.0 0.0 1.0
  outer loop
    vertex 46.156366000000006 -1.8131596000000012 0.35350000000000004
    vertex 44.46300000000001 -0.22295500000000082 0.35350000000000004
    vertex 45.943761 -2.012856800000001 0.35350000000000004
  endloop
endfacet
facet normal 0.0 0.0 1.0
  outer loop
    vertex 46.78600000000001 19.977045 0.35350000000000004
    vertex 44.46300000000001 19.977045 0.35350000000000004
    vertex 46.78600000000001 -0.22295500000000082 0.35350000000000004
  endloop
endfacet
facet normal 0.0 0.0 -1.0
  outer loop
    vertex -2.012665100000001 21.096125000000004 0.0
    vertex -2.3000000000000007 -0.22295500000000082 0.0
    vertex -2.136874900000001 20.832212000000002 0.0
  endloop
endfacet
facet normal 0.0 0.0 -1.0
  outer loop
    vertex -1.8563474000000009 21.342464000000003 0.0
    vertex -2.3000000000000007 -0.22295500000000082 0.0
    vertex -2.012665100000001 21.096125000000004 0.0
  endloop
endfacet
facet normal 0.0 0.0 -1.0
  outer loop
    vertex -1.8563474000000009 21.342464000000003 0.0
    vertex -2.281678600000001 -0.5141036600000011 0.0
    vertex -2.3000000000000007 -0.22295500000000082 0.0
  endloop
endfacet
facet normal 0.0 0.0 -1.0
  outer loop
    vertex -2.281678600000001 -0.5141036600000011 0.0
    vertex -1.8563474000000009 21.342464000000003 0.0
    vertex -1.6703963000000008 21.56729 0.0
  endloop
endfacet
facet normal 0.0 0.0 -1.0
  outer loop
    vertex -1.457740800000001 21.766967 0.0
    vertex -2.281678600000001 -0.5141036600000011 0.0
    vertex -1.6703963000000008 21.56729 0.0
  endloop
endfacet
facet normal 0.0 0.0 -1.0
  outer loop
    vertex -1.2217240000000007 21.938465 0.0
    vertex -2.281678600000001 -0.5141036600000011 0.0
    vertex -1.457740800000001 21.766967 0.0
  endloop
endfacet
facet normal 0.0 0.0 -1.0
  outer loop
    vertex -0.9660849200000007 22.078956 0.0
    vertex -2.281678600000001 -0.5141036600000011 0.0
    vertex -1.2217240000000007 21.938465 0.0
  endloop
endfacet
facet normal 0.0 0.0 -1.0
  outer loop
    vertex -0.6948463900000005 22.186319 0.0
    vertex -2.281678600000001 -0.5141036600000011 0.0
    vertex -0.9660849200000007 22.078956 0.0
  endloop
endfacet
facet normal 0.0 0.0 -1.0
  outer loop
    vertex -0.41228677000000064 22.258938 0.0
    vertex -2.281678600000001 -0.5141036600000011 0.0
    vertex -0.6948463900000005 22.186319 0.0
  endloop
endfacet
facet normal 0.0 0.0 1.0
  outer loop
    vertex 46.76771900000001 -0.5141036600000011 0.35350000000000004
    vertex 44.46300000000001 19.977045 0.35350000000000004
    vertex 46.71297700000001 -0.8006618700000009 0.35350000000000004
  endloop
endfacet
facet normal 0.0 0.0 1.0
  outer loop
    vertex 46.71297700000001 -0.8006618700000009 0.35350000000000004
    vertex 44.46300000000001 19.977045 0.35350000000000004
    vertex 46.62288500000001 -1.0781078600000011 0.35350000000000004
  endloop
endfacet
facet normal 0.0 0.0 1.0
  outer loop
    vertex 46.62288500000001 -1.0781078600000011 0.35350000000000004
    vertex 44.46300000000001 19.977045 0.35350000000000004
    vertex 44.46300000000001 -0.22295500000000082 0.35350000000000004
  endloop
endfacet
facet normal 0.0 0.0 1.0
  outer loop
    vertex 44.89831000000001 -2.5048076000000012 0.35350000000000004
    vertex 44.46300000000001 -0.22295500000000082 0.35350000000000004
    vertex 44.608844000000005 -2.5413696000000012 0.35350000000000004
  endloop
endfacet
facet normal 0.0 0.0 1.0
  outer loop
    vertex 44.608844000000005 -2.5413696000000012 0.35350000000000004
    vertex 44.46300000000001 -0.22295500000000082 0.35350000000000004
    vertex 0.022999999999999618 -0.22295500000000082 0.35350000000000004
  endloop
endfacet
facet normal 0.0 0.0 1.0
  outer loop
    vertex 45.18080700000001 -2.4322593000000015 0.35350000000000004
    vertex 44.46300000000001 -0.22295500000000082 0.35350000000000004
    vertex 44.89831000000001 -2.5048076000000012 0.35350000000000004
  endloop
endfacet
facet normal 0.0 0.0 1.0
  outer loop
    vertex 45.943761 -2.012856800000001 0.35350000000000004
    vertex 44.46300000000001 -0.22295500000000082 0.35350000000000004
    vertex 45.707724000000006 -2.1843245000000016 0.35350000000000004
  endloop
endfacet
facet normal 0.0 0.0 1.0
  outer loop
    vertex 46.78600000000001 19.977045 0.35350000000000004
    vertex 46.76771900000001 20.268227999999997 0.35350000000000004
    vertex 44.46300000000001 19.977045 0.35350000000000004
  endloop
endfacet
facet normal 0.0 0.0 1.0
  outer loop
    vertex 46.76771900000001 20.268227999999997 0.35350000000000004
    vertex 30.323000000000004 19.977045 0.35350000000000004
    vertex 44.46300000000001 19.977045 0.35350000000000004
  endloop
endfacet
facet normal 0.0 0.0 1.0
  outer loop
    vertex 46.62288500000001 -1.0781078600000011 0.35350000000000004
    vertex 44.46300000000001 -0.22295500000000082 0.35350000000000004
    vertex 46.498655000000014 -1.3420653000000011 0.35350000000000004
  endloop
endfacet
facet normal 0.0 0.0 1.0
  outer loop
    vertex 14.163 22.295500000000004 0.35350000000000004
    vertex -2.3000000000000007 19.977045 0.35350000000000004
    vertex 0.022999999999999618 19.977045 0.35350000000000004
  endloop
endfacet
facet normal 0.0 0.0 1.0
  outer loop
    vertex 44.608844000000005 -2.5413696000000012 0.35350000000000004
    vertex 0.022999999999999618 -0.22295500000000082 0.35350000000000004
    vertex -0.12286218000000033 -2.5413696000000012 0.35350000000000004
  endloop
endfacet
facet normal 0.0 0.0 1.0
  outer loop
    vertex 45.707724000000006 -2.1843245000000016 0.35350000000000004
    vertex 44.46300000000001 -0.22295500000000082 0.35350000000000004
    vertex 45.452093000000005 -2.3248660000000014 0.35350000000000004
  endloop
endfacet
facet normal 0.0 0.0 1.0
  outer loop
    vertex 14.163 22.295500000000004 0.35350000000000004
    vertex -0.12286218000000033 22.295500000000004 0.35350000000000004
    vertex -2.3000000000000007 19.977045 0.35350000000000004
  endloop
endfacet
facet normal 0.0 0.0 1.0
  outer loop
    vertex -0.12286218000000033 22.295500000000004 0.35350000000000004
    vertex -0.41228677000000064 22.258938 0.35350000000000004
    vertex -2.3000000000000007 19.977045 0.35350000000000004
  endloop
endfacet
facet normal 0.0 0.0 1.0
  outer loop
    vertex -0.41228677000000064 22.258938 0.35350000000000004
    vertex -0.6948463900000005 22.186319 0.35350000000000004
    vertex -2.3000000000000007 19.977045 0.35350000000000004
  endloop
endfacet
facet normal 0.0 0.0 1.0
  outer loop
    vertex -0.6948463900000005 22.186319 0.35350000000000004
    vertex -0.9660849200000007 22.078956 0.35350000000000004
    vertex -2.3000000000000007 19.977045 0.35350000000000004
  endloop
endfacet
facet normal 0.0 0.0 1.0
  outer loop
    vertex -0.9660849200000007 22.078956 0.35350000000000004
    vertex -1.2217240000000007 21.938465 0.35350000000000004
    vertex -2.3000000000000007 19.977045 0.35350000000000004
  endloop
endfacet
facet normal 0.0 0.0 1.0
  outer loop
    vertex -1.2217240000000007 21.938465 0.35350000000000004
    vertex -1.457740800000001 21.766967 0.35350000000000004
    vertex -2.3000000000000007 19.977045 0.35350000000000004
  endloop
endfacet
facet normal 0.0 0.0 1.0
  outer loop
    vertex -1.457740800000001 21.766967 0.35350000000000004
    vertex -1.6703963000000008 21.56729 0.35350000000000004
    vertex -2.3000000000000007 19.977045 0.35350000000000004
  endloop
endfacet
facet normal 0.0 0.0 1.0
  outer loop
    vertex -1.6703963000000008 21.56729 0.35350000000000004
    vertex -1.8563474000000009 21.342464000000003 0.35350000000000004
    vertex -2.3000000000000007 19.977045 0.35350000000000004
  endloop
endfacet
facet normal 0.0 0.0 1.0
  outer loop
    vertex -1.8563474000000009 21.342464000000003 0.35350000000000004
    vertex -2.012665100000001 21.096125000000004 0.35350000000000004
    vertex -2.3000000000000007 19.977045 0.35350000000000004
  endloop
endfacet
facet normal 0.0 0.0 1.0
  outer loop
    vertex -2.012665100000001 21.096125000000004 0.35350000000000004
    vertex -2.136874900000001 20.832212000000002 0.35350000000000004
    vertex -2.3000000000000007 19.977045 0.35350000000000004
  endloop
endfacet
facet normal 0.0 0.0 1.0
  outer loop
    vertex -2.136874900000001 20.832212000000002 0.35350000000000004
    vertex -2.281678600000001 20.268227999999997 0.35350000000000004
    vertex -2.3000000000000007 19.977045 0.35350000000000004
  endloop
endfacet
facet normal 0.0 0.0 1.0
  outer loop
    vertex -2.281678600000001 20.268227999999997 0.35350000000000004
    vertex -2.136874900000001 20.832212000000002 0.35350000000000004
    vertex -2.2270174000000003 20.554765 0.35350000000000004
  endloop
endfacet
facet normal 0.0 0.0 1.0
  outer loop
    vertex 44.89831000000001 22.258938 0.35350000000000004
    vertex 44.608844000000005 22.295500000000004 0.35350000000000004
    vertex 30.323000000000004 22.295500000000004 0.35350000000000004
  endloop
endfacet
facet normal 0.0 0.0 1.0
  outer loop
    vertex 45.18080700000001 22.186319 0.35350000000000004
    vertex 44.89831000000001 22.258938 0.35350000000000004
    vertex 30.323000000000004 22.295500000000004 0.35350000000000004
  endloop
endfacet
facet normal 0.0 0.0 1.0
  outer loop
    vertex 45.452093000000005 22.078956 0.35350000000000004
    vertex 45.18080700000001 22.186319 0.35350000000000004
    vertex 30.323000000000004 22.295500000000004 0.35350000000000004
  endloop
endfacet
facet normal 0.0 0.0 1.0
  outer loop
    vertex 45.707724000000006 21.938465 0.35350000000000004
    vertex 45.452093000000005 22.078956 0.35350000000000004
    vertex 30.323000000000004 22.295500000000004 0.35350000000000004
  endloop
endfacet
facet normal 0.0 0.0 1.0
  outer loop
    vertex 45.943761 21.766967 0.35350000000000004
    vertex 45.707724000000006 21.938465 0.35350000000000004
    vertex 30.323000000000004 22.295500000000004 0.35350000000000004
  endloop
endfacet
facet normal 0.0 0.0 1.0
  outer loop
    vertex 46.156366000000006 21.56729 0.35350000000000004
    vertex 45.943761 21.766967 0.35350000000000004
    vertex 30.323000000000004 22.295500000000004 0.35350000000000004
  endloop
endfacet
facet normal 0.0 0.0 1.0
  outer loop
    vertex 46.342307000000005 21.342464000000003 0.35350000000000004
    vertex 46.156366000000006 21.56729 0.35350000000000004
    vertex 30.323000000000004 22.295500000000004 0.35350000000000004
  endloop
endfacet
facet normal 0.0 0.0 1.0
  outer loop
    vertex 46.498655000000014 21.096125000000004 0.35350000000000004
    vertex 46.342307000000005 21.342464000000003 0.35350000000000004
    vertex 30.323000000000004 22.295500000000004 0.35350000000000004
  endloop
endfacet
facet normal 0.0 0.0 1.0
  outer loop
    vertex 46.62288500000001 20.832212000000002 0.35350000000000004
    vertex 46.498655000000014 21.096125000000004 0.35350000000000004
    vertex 30.323000000000004 22.295500000000004 0.35350000000000004
  endloop
endfacet
facet normal 0.0 0.0 1.0
  outer loop
    vertex 46.71297700000001 20.554765 0.35350000000000004
    vertex 46.62288500000001 20.832212000000002 0.35350000000000004
    vertex 30.323000000000004 22.295500000000004 0.35350000000000004
  endloop
endfacet
facet normal 0.0 0.0 1.0
  outer loop
    vertex 46.76771900000001 20.268227999999997 0.35350000000000004
    vertex 46.71297700000001 20.554765 0.35350000000000004
    vertex 30.323000000000004 22.295500000000004 0.35350000000000004
  endloop
endfacet
facet normal 0.0 0.0 1.0
  outer loop
    vertex 46.76771900000001 20.268227999999997 0.35350000000000004
    vertex 30.323000000000004 22.295500000000004 0.35350000000000004
    vertex 30.323000000000004 19.977045 0.35350000000000004
  endloop
endfacet
facet normal -0.9822889555550948 -0.18737237735184206 0.0
  outer loop
    vertex -2.281678600000001 -0.5141036600000011 0.0
    vertex -2.2270174000000003 -0.8006618700000009 0.0
    vertex -2.281678600000001 -0.5141036600000011 0.35350000000000004
  endloop
endfacet
facet normal -0.9822889555550948 -0.18737237735184206 3.8584061787276836e-17
  outer loop
    vertex -2.281678600000001 -0.5141036600000011 0.35350000000000004
    vertex -2.2270174000000003 -0.8006618700000009 0.0
    vertex -2.2270174000000003 -0.8006618700000009 0.35350000000000004
  endloop
endfacet
facet normal -0.9510617213899958 -0.30900097428114726 0.0
  outer loop
    vertex -2.2270174000000003 -0.8006618700000009 0.0
    vertex -2.136874900000001 -1.0781078600000011 0.0
    vertex -2.2270174000000003 -0.8006618700000009 0.35350000000000004
  endloop
endfacet
facet normal -0.9510617213899958 -0.30900097428114726 0.0
  outer loop
    vertex -2.2270174000000003 -0.8006618700000009 0.35350000000000004
    vertex -2.136874900000001 -1.0781078600000011 0.0
    vertex -2.136874900000001 -1.0781078600000011 0.35350000000000004
  endloop
endfacet
facet normal -0.9048259207147016 -0.4257816966507518 -2.7925461152013253e-17
  outer loop
    vertex -2.136874900000001 -1.0781078600000011 0.0
    vertex -2.012665100000001 -1.3420653000000011 0.0
    vertex -2.136874900000001 -1.0781078600000011 0.35350000000000004
  endloop
endfacet
facet normal -0.9048259207147016 -0.4257816966507518 0.0
  outer loop
    vertex -2.136874900000001 -1.0781078600000011 0.35350000000000004
    vertex -2.012665100000001 -1.3420653000000011 0.0
    vertex -2.012665100000001 -1.3420653000000011 0.35350000000000004
  endloop
endfacet
facet normal -0.8443294201829336 -0.535824439731477 2.992402008956197e-17
  outer loop
    vertex -2.012665100000001 -1.3420653000000011 0.0
    vertex -1.8563474000000009 -1.588384100000001 0.0
    vertex -2.012665100000001 -1.3420653000000011 0.35350000000000004
  endloop
endfacet
facet normal -0.8443294201829336 -0.535824439731477 -2.992402008956197e-17
  outer loop
    vertex -2.012665100000001 -1.3420653000000011 0.35350000000000004
    vertex -1.8563474000000009 -1.588384100000001 0.0
    vertex -1.8563474000000009 -1.588384100000001 0.35350000000000004
  endloop
endfacet
facet normal -0.7705121741798978 -0.6374252814570246 0.0
  outer loop
    vertex -1.8563474000000009 -1.588384100000001 0.0
    vertex -1.6703963000000008 -1.8131596000000012 0.0
    vertex -1.8563474000000009 -1.588384100000001 0.35350000000000004
  endloop
endfacet
facet normal -0.7705121741798977 -0.6374252814570245 -6.558653563110936e-17
  outer loop
    vertex -1.8563474000000009 -1.588384100000001 0.35350000000000004
    vertex -1.6703963000000008 -1.8131596000000012 0.0
    vertex -1.6703963000000008 -1.8131596000000012 0.35350000000000004
  endloop
endfacet
facet normal -0.6845478223471291 -0.7289679546590532 -6.932475276419051e-17
  outer loop
    vertex -1.6703963000000008 -1.8131596000000012 0.35350000000000004
    vertex -1.6703963000000008 -1.8131596000000012 0.0
    vertex -1.457740800000001 -2.012856800000001 0.0
  endloop
endfacet
facet normal -0.684547822347129 -0.7289679546590533 0.0
  outer loop
    vertex -1.6703963000000008 -1.8131596000000012 0.35350000000000004
    vertex -1.457740800000001 -2.012856800000001 0.0
    vertex -1.457740800000001 -2.012856800000001 0.35350000000000004
  endloop
endfacet
facet normal -0.5877660864717044 -0.809030918811968 -3.12307504082429e-17
  outer loop
    vertex -1.457740800000001 -2.012856800000001 0.35350000000000004
    vertex -1.457740800000001 -2.012856800000001 0.0
    vertex -1.2217240000000007 -2.1843245000000016 0.0
  endloop
endfacet
facet normal -0.5877660864717044 -0.8090309188119678 -6.246150081648579e-17
  outer loop
    vertex -1.457740800000001 -2.012856800000001 0.35350000000000004
    vertex -1.2217240000000007 -2.1843245000000016 0.0
    vertex -1.2217240000000007 -2.1843245000000016 0.35350000000000004
  endloop
endfacet
facet normal -0.48176085108168054 -0.8763027344274664 0.0
  outer loop
    vertex -1.2217240000000007 -2.1843245000000016 0.35350000000000004
    vertex -1.2217240000000007 -2.1843245000000016 0.0
    vertex -0.9660849200000007 -2.3248660000000014 0.0
  endloop
endfacet
facet normal -0.48176085108168054 -0.8763027344274664 -2.8833861671834414e-17
  outer loop
    vertex -1.2217240000000007 -2.1843245000000016 0.35350000000000004
    vertex -0.9660849200000007 -2.3248660000000014 0.0
    vertex -0.9660849200000007 -2.3248660000000014 0.35350000000000004
  endloop
endfacet
facet normal -0.3681315725781055 -0.9297737064851701 0.0
  outer loop
    vertex -0.9660849200000007 -2.3248660000000014 0.35350000000000004
    vertex -0.9660849200000007 -2.3248660000000014 0.0
    vertex -0.6948463900000005 -2.4322593000000015 0.0
  endloop
endfacet
facet normal -0.3681315725781055 -0.9297737064851701 0.0
  outer loop
    vertex -0.9660849200000007 -2.3248660000000014 0.35350000000000004
    vertex -0.6948463900000005 -2.4322593000000015 0.0
    vertex -0.6948463900000005 -2.4322593000000015 0.35350000000000004
  endloop
endfacet
facet normal -0.24868770158865625 -0.9685837222865928 0.0
  outer loop
    vertex -0.6948463900000005 -2.4322593000000015 0.35350000000000004
    vertex -0.6948463900000005 -2.4322593000000015 0.0
    vertex -0.41228677000000064 -2.5048076000000012 0.0
  endloop
endfacet
facet normal -0.24868770158865625 -0.9685837222865928 2.6086757803328386e-17
  outer loop
    vertex -0.6948463900000005 -2.4322593000000015 0.35350000000000004
    vertex -0.41228677000000064 -2.5048076000000012 0.0
    vertex -0.41228677000000064 -2.5048076000000012 0.35350000000000004
  endloop
endfacet
facet normal -0.12533043796241608 -0.9921150544771251 1.2733984772588401e-17
  outer loop
    vertex -0.41228677000000064 -2.5048076000000012 0.35350000000000004
    vertex -0.41228677000000064 -2.5048076000000012 0.0
    vertex -0.12286218000000033 -2.5413696000000012 0.0
  endloop
endfacet
facet normal -0.12533043796241608 -0.9921150544771251 1.2733984772588401e-17
  outer loop
    vertex -0.41228677000000064 -2.5048076000000012 0.35350000000000004
    vertex -0.12286218000000033 -2.5413696000000012 0.0
    vertex -0.12286218000000033 -2.5413696000000012 0.35350000000000004
  endloop
endfacet
facet normal 0.0 -1.0 0.0
  outer loop
    vertex -0.12286218000000033 -2.5413696000000012 0.35350000000000004
    vertex -0.12286218000000033 -2.5413696000000012 0.0
    vertex 44.608844000000005 -2.5413696000000012 0.0
  endloop
endfacet
facet normal 0.0 -1.0 0.0
  outer loop
    vertex -0.12286218000000033 -2.5413696000000012 0.35350000000000004
    vertex 44.608844000000005 -2.5413696000000012 0.0
    vertex 44.608844000000005 -2.5413696000000012 0.35350000000000004
  endloop
endfacet
facet normal 0.12531279019501224 -0.9921172836986265 0.0
  outer loop
    vertex 44.608844000000005 -2.5413696000000012 0.35350000000000004
    vertex 44.608844000000005 -2.5413696000000012 0.0
    vertex 44.89831000000001 -2.5048076000000012 0.0
  endloop
endfacet
facet normal 0.12531279019501226 -0.9921172836986265 -1.27303702782702e-17
  outer loop
    vertex 44.608844000000005 -2.5413696000000012 0.35350000000000004
    vertex 44.89831000000001 -2.5048076000000012 0.0
    vertex 44.89831000000001 -2.5048076000000012 0.35350000000000004
  endloop
endfacet
facet normal 0.2487394168748888 -0.9685704427106686 0.0
  outer loop
    vertex 44.89831000000001 -2.5048076000000012 0.35350000000000004
    vertex 44.89831000000001 -2.5048076000000012 0.0
    vertex 45.18080700000001 -2.4322593000000015 0.0
  endloop
endfacet
facet normal 0.2487394168748888 -0.9685704427106686 0.0
  outer loop
    vertex 44.89831000000001 -2.5048076000000012 0.35350000000000004
    vertex 45.18080700000001 -2.4322593000000015 0.0
    vertex 45.18080700000001 -2.4322593000000015 0.35350000000000004
  endloop
endfacet
facet normal 0.36807588415968095 -0.929795753647041 2.7166640131879597e-17
  outer loop
    vertex 45.18080700000001 -2.4322593000000015 0.35350000000000004
    vertex 45.18080700000001 -2.4322593000000015 0.0
    vertex 45.452093000000005 -2.3248660000000014 0.0
  endloop
endfacet
facet normal 0.36807588415968084 -0.929795753647041 0.0
  outer loop
    vertex 45.18080700000001 -2.4322593000000015 0.35350000000000004
    vertex 45.452093000000005 -2.3248660000000014 0.0
    vertex 45.452093000000005 -2.3248660000000014 0.35350000000000004
  endloop
endfacet
facet normal 0.48177254426887123 -0.8762963058171013 0.0
  outer loop
    vertex 45.452093000000005 -2.3248660000000014 0.35350000000000004
    vertex 45.452093000000005 -2.3248660000000014 0.0
    vertex 45.707724000000006 -2.1843245000000016 0.0
  endloop
endfacet
facet normal 0.48177254426887134 -0.8762963058171013 2.8835472925163037e-17
  outer loop
    vertex 45.452093000000005 -2.3248660000000014 0.35350000000000004
    vertex 45.707724000000006 -2.1843245000000016 0.0
    vertex 45.707724000000006 -2.1843245000000016 0.35350000000000004
  endloop
endfacet
facet normal 0.5877331615079003 -0.8090548379831421 -3.1226328379773094e-17
  outer loop
    vertex 45.707724000000006 -2.1843245000000016 0.35350000000000004
    vertex 45.707724000000006 -2.1843245000000016 0.0
    vertex 45.943761 -2.012856800000001 0.0
  endloop
endfacet
facet normal 0.5877331615079004 -0.809054837983142 0.0
  outer loop
    vertex 45.707724000000006 -2.1843245000000016 0.35350000000000004
    vertex 45.943761 -2.012856800000001 0.0
    vertex 45.943761 -2.012856800000001 0.35350000000000004
  endloop
endfacet
facet normal 0.6846342128621247 -0.7288868187713775 3.467498518596763e-17
  outer loop
    vertex 45.943761 -2.012856800000001 0.35350000000000004
    vertex 45.943761 -2.012856800000001 0.0
    vertex 46.156366000000006 -1.8131596000000012 0.0
  endloop
endfacet
facet normal 0.6846342128621247 -0.7288868187713775 0.0
  outer loop
    vertex 45.943761 -2.012856800000001 0.35350000000000004
    vertex 46.156366000000006 -1.8131596000000012 0.0
    vertex 46.156366000000006 -1.8131596000000012 0.35350000000000004
  endloop
endfacet
facet normal 0.7705291786568449 -0.637404726087286 -3.279399153204518e-17
  outer loop
    vertex 46.342307000000005 -1.588384100000001 0.0
    vertex 46.156366000000006 -1.8131596000000012 0.35350000000000004
    vertex 46.156366000000006 -1.8131596000000012 0.0
  endloop
endfacet
facet normal 0.7705291786568449 -0.637404726087286 0.0
  outer loop
    vertex 46.342307000000005 -1.588384100000001 0.35350000000000004
    vertex 46.156366000000006 -1.8131596000000012 0.35350000000000004
    vertex 46.342307000000005 -1.588384100000001 0.0
  endloop
endfacet
facet normal 0.8442824310680045 -0.5358984760100557 5.984470948097338e-17
  outer loop
    vertex 46.498655000000014 -1.3420653000000011 0.0
    vertex 46.342307000000005 -1.588384100000001 0.35350000000000004
    vertex 46.342307000000005 -1.588384100000001 0.0
  endloop
endfacet
facet normal 0.8442824310680045 -0.5358984760100558 2.992235474048669e-17
  outer loop
    vertex 46.498655000000014 -1.3420653000000011 0.35350000000000004
    vertex 46.342307000000005 -1.588384100000001 0.35350000000000004
    vertex 46.498655000000014 -1.3420653000000011 0.0
  endloop
endfacet
facet normal 0.9047992428772472 -0.42583838494053167 2.792463779925954e-17
  outer loop
    vertex 46.62288500000001 -1.0781078600000011 0.0
    vertex 46.498655000000014 -1.3420653000000011 0.35350000000000004
    vertex 46.498655000000014 -1.3420653000000011 0.0
  endloop
endfacet
facet normal 0.904799242877247 -0.42583838494053167 -2.792463779925953e-17
  outer loop
    vertex 46.62288500000001 -1.0781078600000011 0.35350000000000004
    vertex 46.498655000000014 -1.3420653000000011 0.35350000000000004
    vertex 46.62288500000001 -1.0781078600000011 0.0
  endloop
endfacet
facet normal 0.9511125845513245 -0.3088443807293567 2.656918049839697e-17
  outer loop
    vertex 46.71297700000001 -0.8006618700000009 0.0
    vertex 46.62288500000001 -1.0781078600000011 0.35350000000000004
    vertex 46.62288500000001 -1.0781078600000011 0.0
  endloop
endfacet
facet normal 0.9511125845513245 -0.30884438072935677 2.656918049839697e-17
  outer loop
    vertex 46.71297700000001 -0.8006618700000009 0.35350000000000004
    vertex 46.62288500000001 -1.0781078600000011 0.35350000000000004
    vertex 46.71297700000001 -0.8006618700000009 0.0
  endloop
endfacet
facet normal 0.9822379438746186 -0.18763960566192253 0.0
  outer loop
    vertex 46.76771900000001 -0.5141036600000011 0.0
    vertex 46.71297700000001 -0.8006618700000009 0.35350000000000004
    vertex 46.71297700000001 -0.8006618700000009 0.0
  endloop
endfacet
facet normal 0.9822379438746186 -0.1876396056619226 -3.8582058061366814e-17
  outer loop
    vertex 46.76771900000001 -0.5141036600000011 0.35350000000000004
    vertex 46.71297700000001 -0.8006618700000009 0.35350000000000004
    vertex 46.76771900000001 -0.5141036600000011 0.0
  endloop
endfacet
facet normal 0.9980345659547066 -0.06266582130316545 6.3293503501317206e-18
  outer loop
    vertex 46.78600000000001 -0.22295500000000082 0.0
    vertex 46.76771900000001 -0.5141036600000011 0.35350000000000004
    vertex 46.76771900000001 -0.5141036600000011 0.0
  endloop
endfacet
facet normal 0.9980345659547066 -0.06266582130316545 0.0
  outer loop
    vertex 46.78600000000001 -0.22295500000000082 0.35350000000000004
    vertex 46.76771900000001 -0.5141036600000011 0.35350000000000004
    vertex 46.78600000000001 -0.22295500000000082 0.0
  endloop
endfacet
facet normal 1.0 0.0 0.0
  outer loop
    vertex 46.78600000000001 19.977045 0.0
    vertex 46.78600000000001 -0.22295500000000082 0.35350000000000004
    vertex 46.78600000000001 -0.22295500000000082 0.0
  endloop
endfacet
facet normal 1.0 0.0 0.0
  outer loop
    vertex 46.78600000000001 19.977045 0.35350000000000004
    vertex 46.78600000000001 -0.22295500000000082 0.35350000000000004
    vertex 46.78600000000001 19.977045 0.0
  endloop
endfacet
facet normal 0.998035028139893 0.06265845996992782 -6.327860493696869e-18
  outer loop
    vertex 46.76771900000001 20.268227999999997 0.35350000000000004
    vertex 46.78600000000001 19.977045 0.0
    vertex 46.76771900000001 20.268227999999997 0.0
  endloop
endfacet
facet normal 0.998035028139893 0.0626584599699278 6.327860493696868e-18
  outer loop
    vertex 46.76771900000001 20.268227999999997 0.35350000000000004
    vertex 46.78600000000001 19.977045 0.35350000000000004
    vertex 46.78600000000001 19.977045 0.0
  endloop
endfacet
facet normal 0.9822353838740339 0.18765300601330479 -1.2862556510882387e-17
  outer loop
    vertex 46.71297700000001 20.554765 0.35350000000000004
    vertex 46.76771900000001 20.268227999999997 0.0
    vertex 46.71297700000001 20.554765 0.0
  endloop
endfacet
facet normal 0.9822353838740339 0.18765300601330476 1.2862556510882386e-17
  outer loop
    vertex 46.71297700000001 20.554765 0.35350000000000004
    vertex 46.76771900000001 20.268227999999997 0.35350000000000004
    vertex 46.76771900000001 20.268227999999997 0.0
  endloop
endfacet
facet normal 0.9511129148083858 0.3088433636727464 -2.6568996282930313e-17
  outer loop
    vertex 46.62288500000001 20.832212000000002 0.35350000000000004
    vertex 46.71297700000001 20.554765 0.0
    vertex 46.62288500000001 20.832212000000002 0.0
  endloop
endfacet
facet normal 0.9511129148083858 0.3088433636727463 0.0
  outer loop
    vertex 46.62288500000001 20.832212000000002 0.35350000000000004
    vertex 46.71297700000001 20.554765 0.35350000000000004
    vertex 46.71297700000001 20.554765 0.0
  endloop
endfacet
facet normal 0.9047716134566378 0.42589708555362604 2.7933189976481866e-17
  outer loop
    vertex 46.498655000000014 21.096125000000004 0.35350000000000004
    vertex 46.62288500000001 20.832212000000002 0.0
    vertex 46.498655000000014 21.096125000000004 0.0
  endloop
endfacet
facet normal 0.9047716134566378 0.42589708555362604 2.7933189976481866e-17
  outer loop
    vertex 46.498655000000014 21.096125000000004 0.35350000000000004
    vertex 46.62288500000001 20.832212000000002 0.35350000000000004
    vertex 46.62288500000001 20.832212000000002 0.0
  endloop
endfacet
facet normal 0.8443023134551316 0.5358671509752327 0.0
  outer loop
    vertex 46.342307000000005 21.342464000000003 0.35350000000000004
    vertex 46.498655000000014 21.096125000000004 0.0
    vertex 46.342307000000005 21.342464000000003 0.0
  endloop
endfacet
facet normal 0.8443023134551316 0.5358671509752327 -2.9918152165883e-17
  outer loop
    vertex 46.342307000000005 21.342464000000003 0.35350000000000004
    vertex 46.498655000000014 21.096125000000004 0.35350000000000004
    vertex 46.498655000000014 21.096125000000004 0.0
  endloop
endfacet
facet normal 0.7705994980578138 0.6373197106578813 6.556450481846906e-17
  outer loop
    vertex 46.156366000000006 21.56729 0.35350000000000004
    vertex 46.342307000000005 21.342464000000003 0.0
    vertex 46.156366000000006 21.56729 0.0
  endloop
endfacet
facet normal 0.7705994980578138 0.6373197106578814 3.278225240923454e-17
  outer loop
    vertex 46.156366000000006 21.56729 0.35350000000000004
    vertex 46.342307000000005 21.342464000000003 0.35350000000000004
    vertex 46.342307000000005 21.342464000000003 0.0
  endloop
endfacet
facet normal 0.6845974178396932 0.7289213781247087 3.467662926161e-17
  outer loop
    vertex 45.943761 21.766967 0.35350000000000004
    vertex 46.156366000000006 21.56729 0.0
    vertex 45.943761 21.766967 0.0
  endloop
endfacet
facet normal 0.6845974178396932 0.7289213781247087 0.0
  outer loop
    vertex 46.156366000000006 21.56729 0.35350000000000004
    vertex 46.156366000000006 21.56729 0.0
    vertex 45.943761 21.766967 0.35350000000000004
  endloop
endfacet
facet normal 0.5878011376722541 0.8090054527326773 -3.122442230372518e-17
  outer loop
    vertex 45.707724000000006 21.938465 0.35350000000000004
    vertex 45.943761 21.766967 0.0
    vertex 45.707724000000006 21.938465 0.0
  endloop
endfacet
facet normal 0.587801137672254 0.8090054527326772 0.0
  outer loop
    vertex 45.943761 21.766967 0.35350000000000004
    vertex 45.943761 21.766967 0.0
    vertex 45.707724000000006 21.938465 0.35350000000000004
  endloop
endfacet
facet normal 0.4816395952519831 0.876369385753237 -2.8837877699102876e-17
  outer loop
    vertex 45.452093000000005 22.078956 0.35350000000000004
    vertex 45.707724000000006 21.938465 0.0
    vertex 45.452093000000005 22.078956 0.0
  endloop
endfacet
facet normal 0.4816395952519831 0.876369385753237 -5.767575539820575e-17
  outer loop
    vertex 45.707724000000006 21.938465 0.35350000000000004
    vertex 45.707724000000006 21.938465 0.0
    vertex 45.452093000000005 22.078956 0.35350000000000004
  endloop
endfacet
facet normal 0.3679860993593507 0.9298312915138371 2.7167678472218876e-17
  outer loop
    vertex 45.18080700000001 22.186319 0.35350000000000004
    vertex 45.452093000000005 22.078956 0.0
    vertex 45.18080700000001 22.186319 0.0
  endloop
endfacet
facet normal 0.36798609935935067 0.9298312915138369 2.7167678472218873e-17
  outer loop
    vertex 45.452093000000005 22.078956 0.35350000000000004
    vertex 45.452093000000005 22.078956 0.0
    vertex 45.18080700000001 22.186319 0.35350000000000004
  endloop
endfacet
facet normal 0.24896680088417214 0.9685120195730671 -2.609639216586723e-17
  outer loop
    vertex 44.89831000000001 22.258938 0.35350000000000004
    vertex 45.18080700000001 22.186319 0.0
    vertex 44.89831000000001 22.258938 0.0
  endloop
endfacet
facet normal 0.24896680088417214 0.9685120195730671 -2.609639216586723e-17
  outer loop
    vertex 45.18080700000001 22.186319 0.35350000000000004
    vertex 45.18080700000001 22.186319 0.0
    vertex 44.89831000000001 22.258938 0.35350000000000004
  endloop
endfacet
facet normal 0.12531279019501826 0.9921172836986257 0.0
  outer loop
    vertex 44.608844000000005 22.295500000000004 0.35350000000000004
    vertex 44.89831000000001 22.258938 0.0
    vertex 44.608844000000005 22.295500000000004 0.0
  endloop
endfacet
facet normal 0.12531279019501823 0.9921172836986257 -3.819111083481056e-17
  outer loop
    vertex 44.89831000000001 22.258938 0.35350000000000004
    vertex 44.89831000000001 22.258938 0.0
    vertex 44.608844000000005 22.295500000000004 0.35350000000000004
  endloop
endfacet
facet normal 0.0 1.0 0.0
  outer loop
    vertex 30.323000000000004 22.295500000000004 0.35350000000000004
    vertex 44.608844000000005 22.295500000000004 0.0
    vertex 30.323000000000004 22.295500000000004 0.0
  endloop
endfacet
facet normal 0.0 1.0 0.0
  outer loop
    vertex 44.608844000000005 22.295500000000004 0.35350000000000004
    vertex 44.608844000000005 22.295500000000004 0.0
    vertex 30.323000000000004 22.295500000000004 0.35350000000000004
  endloop
endfacet
facet normal -1.0 0.0 0.0
  outer loop
    vertex 30.323000000000004 19.977045 0.35350000000000004
    vertex 30.323000000000004 15.937045000000001 1.4140000000000001
    vertex 30.323000000000004 19.977045 1.4140000000000001
  endloop
endfacet
facet normal -1.0 0.0 0.0
  outer loop
    vertex 30.323000000000004 22.295500000000004 0.0
    vertex 30.323000000000004 19.977045 0.35350000000000004
    vertex 30.323000000000004 22.295500000000004 0.35350000000000004
  endloop
endfacet
facet normal -1.0 0.0 0.0
  outer loop
    vertex 30.323000000000004 22.295500000000004 0.0
    vertex 30.323000000000004 15.937045000000001 0.0
    vertex 30.323000000000004 19.977045 0.35350000000000004
  endloop
endfacet
facet normal -1.0 0.0 0.0
  outer loop
    vertex 30.323000000000004 19.977045 0.35350000000000004
    vertex 30.323000000000004 15.937045000000001 0.0
    vertex 30.323000000000004 15.937045000000001 1.4140000000000001
  endloop
endfacet
facet normal 0.0 1.0 0.0
  outer loop
    vertex 30.323000000000004 15.937045000000001 1.4140000000000001
    vertex 30.323000000000004 15.937045000000001 0.0
    vertex 14.163 15.937045000000001 1.4140000000000001
  endloop
endfacet
facet normal 0.0 1.0 0.0
  outer loop
    vertex 14.163 15.937045000000001 1.4140000000000001
    vertex 30.323000000000004 15.937045000000001 0.0
    vertex 14.163 15.937045000000001 0.0
  endloop
endfacet
facet normal 1.0 0.0 0.0
  outer loop
    vertex 14.163 22.295500000000004 0.35350000000000004
    vertex 14.163 19.977045 0.35350000000000004
    vertex 14.163 22.295500000000004 0.0
  endloop
endfacet
facet normal 1.0 0.0 0.0
  outer loop
    vertex 14.163 22.295500000000004 0.0
    vertex 14.163 19.977045 0.35350000000000004
    vertex 14.163 15.937045000000001 0.0
  endloop
endfacet
facet normal 1.0 0.0 0.0
  outer loop
    vertex 14.163 19.977045 1.4140000000000001
    vertex 14.163 15.937045000000001 1.4140000000000001
    vertex 14.163 19.977045 0.35350000000000004
  endloop
endfacet
facet normal 1.0 0.0 0.0
  outer loop
    vertex 14.163 19.977045 0.35350000000000004
    vertex 14.163 15.937045000000001 1.4140000000000001
    vertex 14.163 15.937045000000001 0.0
  endloop
endfacet
facet normal 0.0 1.0 0.0
  outer loop
    vertex -0.12286218000000033 22.295500000000004 0.35350000000000004
    vertex 14.163 22.295500000000004 0.0
    vertex -0.12286218000000033 22.295500000000004 0.0
  endloop
endfacet
facet normal 0.0 1.0 0.0
  outer loop
    vertex 14.163 22.295500000000004 0.35350000000000004
    vertex 14.163 22.295500000000004 0.0
    vertex -0.12286218000000033 22.295500000000004 0.35350000000000004
  endloop
endfacet
facet normal -0.12533043796242208 0.9921150544771244 2.5467969545176784e-17
  outer loop
    vertex -0.41228677000000064 22.258938 0.35350000000000004
    vertex -0.12286218000000033 22.295500000000004 0.0
    vertex -0.41228677000000064 22.258938 0.0
  endloop
endfacet
facet normal -0.12533043796242208 0.9921150544771244 1.2733984772588392e-17
  outer loop
    vertex -0.12286218000000033 22.295500000000004 0.35350000000000004
    vertex -0.12286218000000033 22.295500000000004 0.0
    vertex -0.41228677000000064 22.258938 0.35350000000000004
  endloop
endfacet
facet normal -0.24891504456503524 0.9685253226370422 0.0
  outer loop
    vertex -0.6948463900000005 22.186319 0.35350000000000004
    vertex -0.41228677000000064 22.258938 0.0
    vertex -0.6948463900000005 22.186319 0.0
  endloop
endfacet
facet normal -0.24891504456503524 0.9685253226370422 0.0
  outer loop
    vertex -0.41228677000000064 22.258938 0.35350000000000004
    vertex -0.41228677000000064 22.258938 0.0
    vertex -0.6948463900000005 22.186319 0.35350000000000004
  endloop
endfacet
facet normal -0.36804177845065195 0.9298092542639491 2.7176544537683174e-17
  outer loop
    vertex -0.9660849200000007 22.078956 0.35350000000000004
    vertex -0.6948463900000005 22.186319 0.0
    vertex -0.9660849200000007 22.078956 0.0
  endloop
endfacet
facet normal -0.36804177845065206 0.9298092542639491 -5.435308907536635e-17
  outer loop
    vertex -0.6948463900000005 22.186319 0.35350000000000004
    vertex -0.6948463900000005 22.186319 0.0
    vertex -0.9660849200000007 22.078956 0.35350000000000004
  endloop
endfacet
facet normal -0.4816279033418109 0.8763758113518261 0.0
  outer loop
    vertex -1.2217240000000007 21.938465 0.35350000000000004
    vertex -0.9660849200000007 22.078956 0.0
    vertex -1.2217240000000007 21.938465 0.0
  endloop
endfacet
facet normal -0.4816279033418109 0.8763758113518261 -2.883626619466152e-17
  outer loop
    vertex -0.9660849200000007 22.078956 0.35350000000000004
    vertex -0.9660849200000007 22.078956 0.0
    vertex -1.2217240000000007 21.938465 0.35350000000000004
  endloop
endfacet
facet normal -0.5878340624238966 0.8089815294889116 -3.122884384869698e-17
  outer loop
    vertex -1.457740800000001 21.766967 0.35350000000000004
    vertex -1.2217240000000007 21.938465 0.0
    vertex -1.457740800000001 21.766967 0.0
  endloop
endfacet
facet normal -0.5878340624238965 0.8089815294889114 0.0
  outer loop
    vertex -1.2217240000000007 21.938465 0.35350000000000004
    vertex -1.2217240000000007 21.938465 0.0
    vertex -1.457740800000001 21.766967 0.35350000000000004
  endloop
endfacet
facet normal -0.6845110237772519 0.7290025091365725 -6.93280388902755e-17
  outer loop
    vertex -1.6703963000000008 21.56729 0.35350000000000004
    vertex -1.457740800000001 21.766967 0.0
    vertex -1.6703963000000008 21.56729 0.0
  endloop
endfacet
facet normal -0.6845110237772518 0.7290025091365725 -3.466401944513774e-17
  outer loop
    vertex -1.457740800000001 21.766967 0.35350000000000004
    vertex -1.457740800000001 21.766967 0.0
    vertex -1.6703963000000008 21.56729 0.35350000000000004
  endloop
endfacet
facet normal -0.7705824965650075 0.6373402670376634 -6.556305828955254e-17
  outer loop
    vertex -1.6703963000000008 21.56729 0.0
    vertex -1.8563474000000009 21.342464000000003 0.0
    vertex -1.8563474000000009 21.342464000000003 0.35350000000000004
  endloop
endfacet
facet normal -0.7705824965650077 0.6373402670376634 -9.83445874343288e-17
  outer loop
    vertex -1.6703963000000008 21.56729 0.0
    vertex -1.8563474000000009 21.342464000000003 0.35350000000000004
    vertex -1.6703963000000008 21.56729 0.35350000000000004
  endloop
endfacet
facet normal -0.8443492981828636 0.5357931155381767 0.0
  outer loop
    vertex -1.8563474000000009 21.342464000000003 0.0
    vertex -2.012665100000001 21.096125000000004 0.0
    vertex -2.012665100000001 21.096125000000004 0.35350000000000004
  endloop
endfacet
facet normal -0.8443492981828636 0.5357931155381765 -5.983963417277522e-17
  outer loop
    vertex -1.8563474000000009 21.342464000000003 0.0
    vertex -2.012665100000001 21.096125000000004 0.35350000000000004
    vertex -1.8563474000000009 21.342464000000003 0.35350000000000004
  endloop
endfacet
facet normal -0.9047982978349798 0.42584039291138565 -2.7934013808483833e-17
  outer loop
    vertex -2.012665100000001 21.096125000000004 0.0
    vertex -2.136874900000001 20.832212000000002 0.0
    vertex -2.136874900000001 20.832212000000002 0.35350000000000004
  endloop
endfacet
facet normal -0.9047982978349798 0.42584039291138565 0.0
  outer loop
    vertex -2.012665100000001 21.096125000000004 0.0
    vertex -2.136874900000001 20.832212000000002 0.35350000000000004
    vertex -2.012665100000001 21.096125000000004 0.35350000000000004
  endloop
endfacet
facet normal -0.9510620519643639 0.30899995681768916 -5.313515089544963e-17
  outer loop
    vertex -2.136874900000001 20.832212000000002 0.0
    vertex -2.2270174000000003 20.554765 0.0
    vertex -2.2270174000000003 20.554765 0.35350000000000004
  endloop
endfacet
facet normal -0.9510620519643639 0.30899995681768927 2.6567575447724822e-17
  outer loop
    vertex -2.136874900000001 20.832212000000002 0.0
    vertex -2.2270174000000003 20.554765 0.35350000000000004
    vertex -2.136874900000001 20.832212000000002 0.35350000000000004
  endloop
endfacet
facet normal -0.9822864027084033 0.18738576000909055 1.2863224612083962e-17
  outer loop
    vertex -2.2270174000000003 20.554765 0.0
    vertex -2.281678600000001 20.268227999999997 0.0
    vertex -2.281678600000001 20.268227999999997 0.35350000000000004
  endloop
endfacet
facet normal -0.9822864027084033 0.18738576000909055 2.5726449224167924e-17
  outer loop
    vertex -2.2270174000000003 20.554765 0.0
    vertex -2.281678600000001 20.268227999999997 0.35350000000000004
    vertex -2.2270174000000003 20.554765 0.35350000000000004
  endloop
endfacet
facet normal 0.0 1.0 0.0
  outer loop
    vertex 0.022999999999999618 19.977045 1.4140000000000001
    vertex 14.163 19.977045 0.35350000000000004
    vertex 0.022999999999999618 19.977045 0.35350000000000004
  endloop
endfacet
facet normal 0.0 1.0 0.0
  outer loop
    vertex 14.163 19.977045 1.4140000000000001
    vertex 14.163 19.977045 0.35350000000000004
    vertex 0.022999999999999618 19.977045 1.4140000000000001
  endloop
endfacet
facet normal -1.0 0.0 0.0
  outer loop
    vertex 0.022999999999999618 19.977045 0.35350000000000004
    vertex 0.022999999999999618 -0.22295500000000082 0.35350000000000004
    vertex 0.022999999999999618 -0.22295500000000082 1.4140000000000001
  endloop
endfacet
facet normal -1.0 0.0 0.0
  outer loop
    vertex 0.022999999999999618 19.977045 0.35350000000000004
    vertex 0.022999999999999618 -0.22295500000000082 1.4140000000000001
    vertex 0.022999999999999618 19.977045 1.4140000000000001
  endloop
endfacet
facet normal 0.0 -1.0 0.0
  outer loop
    vertex 0.022999999999999618 -0.22295500000000082 1.4140000000000001
    vertex 0.022999999999999618 -0.22295500000000082 0.35350000000000004
    vertex 44.46300000000001 -0.22295500000000082 0.35350000000000004
  endloop
endfacet
facet normal 0.0 -1.0 0.0
  outer loop
    vertex 0.022999999999999618 -0.22295500000000082 1.4140000000000001
    vertex 44.46300000000001 -0.22295500000000082 0.35350000000000004
    vertex 44.46300000000001 -0.22295500000000082 1.4140000000000001
  endloop
endfacet
facet normal 1.0 0.0 0.0
  outer loop
    vertex 44.46300000000001 19.977045 0.35350000000000004
    vertex 44.46300000000001 -0.22295500000000082 1.4140000000000001
    vertex 44.46300000000001 -0.22295500000000082 0.35350000000000004
  endloop
endfacet
facet normal 1.0 0.0 0.0
  outer loop
    vertex 44.46300000000001 19.977045 1.4140000000000001
    vertex 44.46300000000001 -0.22295500000000082 1.4140000000000001
    vertex 44.46300000000001 19.977045 0.35350000000000004
  endloop
endfacet
facet normal 0.0 1.0 0.0
  outer loop
    vertex 30.323000000000004 19.977045 1.4140000000000001
    vertex 44.46300000000001 19.977045 0.35350000000000004
    vertex 30.323000000000004 19.977045 0.35350000000000004
  endloop
endfacet
facet normal 0.0 1.0 0.0
  outer loop
    vertex 44.46300000000001 19.977045 1.4140000000000001
    vertex 44.46300000000001 19.977045 0.35350000000000004
    vertex 30.323000000000004 19.977045 1.4140000000000001
  endloop
endfacet
facet normal 0.0 0.0 1.0
  outer loop
    vertex 44.46300000000001 -0.22295500000000082 1.4140000000000001
    vertex 0.022999999999999618 19.977045 1.4140000000000001
    vertex 0.022999999999999618 -0.22295500000000082 1.4140000000000001
  endloop
endfacet
facet normal 0.0 0.0 1.0
  outer loop
    vertex 44.46300000000001 -0.22295500000000082 1.4140000000000001
    vertex 14.163 15.937045000000001 1.4140000000000001
    vertex 0.022999999999999618 19.977045 1.4140000000000001
  endloop
endfacet
facet normal 0.0 0.0 1.0
  outer loop
    vertex 44.46300000000001 19.977045 1.4140000000000001
    vertex 30.323000000000004 19.977045 1.4140000000000001
    vertex 44.46300000000001 -0.22295500000000082 1.4140000000000001
  endloop
endfacet
facet normal 0.0 0.0 1.0
  outer loop
    vertex 44.46300000000001 -0.22295500000000082 1.4140000000000001
    vertex 30.323000000000004 19.977045 1.4140000000000001
    vertex 30.323000000000004 15.937045000000001 1.4140000000000001
  endloop
endfacet
facet normal 0.0 0.0 1.0
  outer loop
    vertex 44.46300000000001 -0.22295500000000082 1.4140000000000001
    vertex 30.323000000000004 15.937045000000001 1.4140000000000001
    vertex 14.163 15.937045000000001 1.4140000000000001
  endloop
endfacet
facet normal 0.0 0.0 1.0
  outer loop
    vertex 14.163 19.977045 1.4140000000000001
    vertex 0.022999999999999618 19.977045 1.4140000000000001
    vertex 14.163 15.937045000000001 1.4140000000000001
  endloop
endfacet
endsolid hc-sr04-back 42.5
