solid hinge allow
facet normal 1.0 3.143985642905845e-15 1.4483277175973388e-14
  outer loop
    vertex 7.306748582336898 2.372702440639309 5.856142521360148
    vertex 7.306748582336908 0.5788224406393119 5.466732521360157
    vertex 7.306748582336908 2.372702440639309 5.0773225213601485
  endloop
endfacet
facet normal 0.9999936511455805 -0.002990765739682131 -0.0019372632298321256
  outer loop
    vertex 7.306748582336898 2.372702440639309 5.856142521360148
    vertex 7.294580400092267 0.5788224406393119 5.497312606371242
    vertex 7.306748582336908 0.5788224406393119 5.466732521360157
  endloop
endfacet
facet normal 0.9999936511455805 -0.002990765739682131 -0.0019372632298321256
  outer loop
    vertex 7.294580400092267 0.5788224406393119 5.497312606371242
    vertex 7.306748582336898 2.372702440639309 5.856142521360148
    vertex 7.306748582336903 1.2472624406393096 7.523982521360148
  endloop
endfacet
facet normal 0.9992977088481538 0.03338704757609865 -0.017011588549617217
  outer loop
    vertex 7.306748582336903 1.2472624406393096 7.523982521360148
    vertex 7.306748582336908 0.7501224406393159 6.5482925213601595
    vertex 7.294580400092267 0.5788224406393119 5.497312606371242
  endloop
endfacet
facet normal 1.0 -2.3299883018837507e-15 -4.953829503770051e-15
  outer loop
    vertex 7.306748582336898 2.372702440639309 5.856142521360148
    vertex 7.306748582336908 2.0215724406393076 8.29829252136015
    vertex 7.306748582336903 1.2472624406393096 7.523982521360148
  endloop
endfacet
facet normal 1.0 -1.8320055074267206e-14 -7.252866068185433e-15
  outer loop
    vertex 7.306748582336908 2.7106124406393173 6.55784252136016
    vertex 7.306748582336908 2.0215724406393076 8.29829252136015
    vertex 7.306748582336898 2.372702440639309 5.856142521360148
  endloop
endfacet
facet normal 1.0 -0.0 -0.0
  outer loop
    vertex 7.306748582336908 2.997262440639309 8.795432521360132
    vertex 7.306748582336908 2.0215724406393076 8.29829252136015
    vertex 7.306748582336908 2.7106124406393173 6.55784252136016
  endloop
endfacet
facet normal 0.999999987578636 0.0001576038333319607 1.9389118898307454e-06
  outer loop
    vertex 7.306496269096226 7.44578968287668 0.9860633454781894
    vertex 7.306748582336898 5.784942440639306 5.856142521360148
    vertex 7.306748582336908 5.79400713747828 5.119321529861254
  endloop
endfacet
facet normal 1.0 -7.0639945015276195e-15 -3.6031716073419555e-15
  outer loop
    vertex 7.306748582336908 7.578822440639309 5.469790529861266
    vertex 7.306748582336908 6.136072440639312 8.29829252136015
    vertex 7.306748582336898 5.784942440639306 5.856142521360148
  endloop
endfacet
facet normal 1.0 -0.0 -0.0
  outer loop
    vertex 7.306748582336908 7.578822440639309 5.469790529861266
    vertex 7.306748582336908 7.407522440639305 6.5482925213601595
    vertex 7.306748582336908 6.136072440639312 8.29829252136015
  endloop
endfacet
facet normal 1.0 2.663604881390492e-14 1.9352231008251097e-14
  outer loop
    vertex 7.306748582336908 7.407522440639305 6.5482925213601595
    vertex 7.306748582336903 6.910382440639311 7.523982521360148
    vertex 7.306748582336908 6.136072440639312 8.29829252136015
  endloop
endfacet
facet normal 1.0 1.8320055074267626e-14 -7.252866068185523e-15
  outer loop
    vertex 7.306748582336908 6.136072440639312 8.29829252136015
    vertex 7.306748582336908 5.447032440639309 6.55784252136016
    vertex 7.306748582336898 5.784942440639306 5.856142521360148
  endloop
endfacet
facet normal 1.0 -0.0 -0.0
  outer loop
    vertex 7.306748582336908 6.136072440639312 8.29829252136015
    vertex 7.306748582336908 5.160382440639317 8.795432521360132
    vertex 7.306748582336908 5.447032440639309 6.55784252136016
  endloop
endfacet
facet normal 1.0 -2.0632491764608796e-14 -2.643157935245071e-15
  outer loop
    vertex 7.306748582336908 5.447032440639309 6.55784252136016
    vertex 7.306748582336908 5.160382440639317 8.795432521360132
    vertex 7.306748582336898 4.838122440639314 7.043422521360147
  endloop
endfacet
facet normal 1.0 -9.908384313867193e-16 -6.2559907405168845e-15
  outer loop
    vertex 7.306748582336908 5.160382440639317 8.795432521360132
    vertex 7.306748582336908 4.078822440639308 8.966732521360147
    vertex 7.306748582336898 4.838122440639314 7.043422521360147
  endloop
endfacet
facet normal 1.0 2.3019024928173307e-14 3.2228188371976012e-15
  outer loop
    vertex 7.306748582336898 4.838122440639314 7.043422521360147
    vertex 7.306748582336908 4.078822440639308 8.966732521360147
    vertex 7.3067485823369145 4.078822440639308 7.216732521360148
  endloop
endfacet
facet normal 1.0 -2.3019024928173594e-14 3.2228188371975984e-15
  outer loop
    vertex 7.306748582336908 4.078822440639308 8.966732521360147
    vertex 7.306748582336898 3.319522440639313 7.043422521360147
    vertex 7.3067485823369145 4.078822440639308 7.216732521360148
  endloop
endfacet
facet normal 1.0 9.90838431386728e-16 -6.255990740516884e-15
  outer loop
    vertex 7.306748582336908 4.078822440639308 8.966732521360147
    vertex 7.306748582336908 2.997262440639309 8.795432521360132
    vertex 7.306748582336898 3.319522440639313 7.043422521360147
  endloop
endfacet
facet normal -1.0 1.7866636676705648e-14 1.031386153053139e-14
  outer loop
    vertex 0.3067485823369355 2.997262440639309 8.795432521360132
    vertex 0.3067485823369073 2.7106124406393173 6.5578425213601585
    vertex 0.306748582336913 2.0215724406393076 8.298292521360146
  endloop
endfacet
facet normal -1.0 -1.285309043627281e-14 -1.848005095873922e-15
  outer loop
    vertex 0.3067485823369073 2.7106124406393173 6.5578425213601585
    vertex 0.306748582336913 2.372702440639309 5.856142521360153
    vertex 0.306748582336913 2.0215724406393076 8.298292521360146
  endloop
endfacet
facet normal -1.0 6.3682035650122855e-15 9.156142406415566e-16
  outer loop
    vertex 0.306748582336913 2.372702440639309 5.856142521360153
    vertex 0.3067485823369073 1.2472624406393096 7.523982521360168
    vertex 0.306748582336913 2.0215724406393076 8.298292521360146
  endloop
endfacet
facet normal -1.0 -1.4787200849778898e-14 3.535679498460055e-15
  outer loop
    vertex 0.30674858233686225 7.578822440639309 0.9960824434374363
    vertex 0.306748582336913 4.838122440639314 3.890042521360151
    vertex 0.30674858233690594 5.457804638375134 4.487791529861274
  endloop
endfacet
facet normal -1.0 7.749135326412887e-15 1.7225242129368964e-14
  outer loop
    vertex 0.30674858233686225 7.578822440639309 0.9960824434374363
    vertex 0.30674858233690594 5.457804638375134 4.487791529861274
    vertex 0.30674858233691865 5.784942440639306 5.077322521360155
  endloop
endfacet
facet normal -1.0 -1.4850586552707047e-14 -7.566768747053462e-15
  outer loop
    vertex 0.3067485823369073 7.407522440639305 6.548292521360153
    vertex 0.306748582336913 6.136072440639312 8.298292521360146
    vertex 0.3067485823369073 6.910382440639311 7.523982521360168
  endloop
endfacet
facet normal -1.0 -3.374012406803585e-15 7.714542231230888e-16
  outer loop
    vertex 0.30674858233690594 7.578822440639309 5.469790529861263
    vertex 0.306748582336913 6.136072440639312 8.298292521360146
    vertex 0.3067485823369073 7.407522440639305 6.548292521360153
  endloop
endfacet
facet normal -1.0 -3.8119414056793314e-15 5.480773031043173e-16
  outer loop
    vertex 0.30674858233690594 7.578822440639309 5.469790529861263
    vertex 0.306748582336913 5.784942440639306 5.856142521360153
    vertex 0.306748582336913 6.136072440639312 8.298292521360146
  endloop
endfacet
facet normal -1.0 -1.8257299534522555e-15 9.770302316357147e-15
  outer loop
    vertex 0.30674858233686225 7.578822440639309 0.9960824434374363
    vertex 0.306748582336913 5.784942440639306 5.856142521360153
    vertex 0.30674858233690594 7.578822440639309 5.469790529861263
  endloop
endfacet
facet normal -1.0 -4.7915242539122743e-14 -7.241638587986853e-15
  outer loop
    vertex 0.30674858233686225 7.578822440639309 0.9960824434374363
    vertex 0.30674858233691865 5.784942440639306 5.077322521360155
    vertex 0.306748582336913 5.784942440639306 5.856142521360153
  endloop
endfacet
facet normal -1.0 -2.3754632372760048e-14 -6.445637674395238e-15
  outer loop
    vertex 0.306748582336913 4.838122440639314 7.043422521360152
    vertex 0.3067485823369299 4.078822440639308 7.216732521360153
    vertex 0.30674858233691865 4.078822440639308 8.966732521360141
  endloop
endfacet
facet normal -1.0 1.7182717494767207e-14 9.715943014320482e-15
  outer loop
    vertex 0.3067485823369355 5.160382440639317 8.795432521360132
    vertex 0.306748582336913 4.838122440639314 7.043422521360152
    vertex 0.30674858233691865 4.078822440639308 8.966732521360141
  endloop
endfacet
facet normal -1.0 8.774104075640812e-16 1.2715097278235764e-14
  outer loop
    vertex 0.3067485823369073 5.447032440639309 6.5578425213601585
    vertex 0.306748582336913 4.838122440639314 7.043422521360152
    vertex 0.3067485823369355 5.160382440639317 8.795432521360132
  endloop
endfacet
facet normal -1.0 -1.7866636676705783e-14 1.031386153053137e-14
  outer loop
    vertex 0.306748582336913 6.136072440639312 8.298292521360146
    vertex 0.3067485823369073 5.447032440639309 6.5578425213601585
    vertex 0.3067485823369355 5.160382440639317 8.795432521360132
  endloop
endfacet
facet normal -1.0 1.2853090436273106e-14 -1.8480050958739876e-15
  outer loop
    vertex 0.306748582336913 6.136072440639312 8.298292521360146
    vertex 0.306748582336913 5.784942440639306 5.856142521360153
    vertex 0.3067485823369073 5.447032440639309 6.5578425213601585
  endloop
endfacet
facet normal -1.0 -8.774104075640771e-16 1.2715097278235762e-14
  outer loop
    vertex 0.306748582336913 3.319522440639313 7.043422521360152
    vertex 0.3067485823369073 2.7106124406393173 6.5578425213601585
    vertex 0.3067485823369355 2.997262440639309 8.795432521360132
  endloop
endfacet
facet normal -1.0 -1.718271749476736e-14 9.715943014320456e-15
  outer loop
    vertex 0.30674858233691865 4.078822440639308 8.966732521360141
    vertex 0.306748582336913 3.319522440639313 7.043422521360152
    vertex 0.3067485823369355 2.997262440639309 8.795432521360132
  endloop
endfacet
facet normal -1.0 2.375463237276035e-14 -6.445637674395234e-15
  outer loop
    vertex 0.3067485823369299 4.078822440639308 7.216732521360153
    vertex 0.306748582336913 3.319522440639313 7.043422521360152
    vertex 0.30674858233691865 4.078822440639308 8.966732521360141
  endloop
endfacet
facet normal -0.0 1.0 -0.0
  outer loop
    vertex 7.306748582336908 7.578822440639309 5.469790529861266
    vertex 0.30674858233686225 7.578822440639309 0.9960824434374363
    vertex 0.30674858233690594 7.578822440639309 5.469790529861263
  endloop
endfacet
facet normal 7.899503784852854e-17 -0.9009743439076292 -0.43387236789200695
  outer loop
    vertex 7.306748582336908 5.447032440639309 6.55784252136016
    vertex 0.3067485823369073 5.447032440639309 6.5578425213601585
    vertex 0.306748582336913 5.784942440639306 5.856142521360153
  endloop
endfacet
facet normal 1.5930838717653963e-16 -0.6234823290455888 -0.7818374417792283
  outer loop
    vertex 7.306748582336908 5.447032440639309 6.55784252136016
    vertex 7.306748582336898 4.838122440639314 7.043422521360147
    vertex 0.3067485823369073 5.447032440639309 6.5578425213601585
  endloop
endfacet
facet normal -6.258543781935478e-16 -0.6234823290455942 -0.7818374417792239
  outer loop
    vertex 7.306748582336898 4.838122440639314 7.043422521360147
    vertex 0.306748582336913 4.838122440639314 7.043422521360152
    vertex 0.3067485823369073 5.447032440639309 6.5578425213601585
  endloop
endfacet
facet normal -7.824914481348776e-16 -0.22252670633459945 -0.9749265946561696
  outer loop
    vertex 7.3067485823369145 4.078822440639308 7.216732521360148
    vertex 0.306748582336913 4.838122440639314 7.043422521360152
    vertex 7.306748582336898 4.838122440639314 7.043422521360147
  endloop
endfacet
facet normal -5.885795732326488e-16 -0.2225267063345978 -0.9749265946561699
  outer loop
    vertex 7.3067485823369145 4.078822440639308 7.216732521360148
    vertex 0.3067485823369299 4.078822440639308 7.216732521360153
    vertex 0.306748582336913 4.838122440639314 7.043422521360152
  endloop
endfacet
facet normal -2.616710628732483e-16 -0.9009743439076306 -0.43387236789200423
  outer loop
    vertex 7.306748582336908 5.447032440639309 6.55784252136016
    vertex 0.306748582336913 5.784942440639306 5.856142521360153
    vertex 7.306748582336898 5.784942440639306 5.856142521360148
  endloop
endfacet
facet normal 0.0 -1.0 0.0
  outer loop
    vertex 0.306748582336913 5.784942440639306 5.856142521360153
    vertex 0.30674858233691865 5.784942440639306 5.077322521360155
    vertex 7.306748582336898 5.784942440639306 5.856142521360148
  endloop
endfacet
facet normal 0.0013686647434037887 -0.9999233970094845 -0.012301498682399761
  outer loop
    vertex 7.306748582336898 5.784942440639306 5.856142521360148
    vertex 0.30674858233691865 5.784942440639306 5.077322521360155
    vertex 7.306748582336908 5.79400713747828 5.119321529861254
  endloop
endfacet
facet normal -0.0017789004854561433 -0.8743946905939451 0.48521207793518695
  outer loop
    vertex 7.306748582336908 5.79400713747828 5.119321529861254
    vertex 0.30674858233691865 5.784942440639306 5.077322521360155
    vertex 0.30674858233690594 5.457804638375134 4.487791529861274
  endloop
endfacet
facet normal 8.599284319687605e-16 -0.8827087476779703 0.4699204898414085
  outer loop
    vertex 7.306748582336908 5.79400713747828 5.119321529861254
    vertex 0.30674858233690594 5.457804638375134 4.487791529861274
    vertex 7.306748582336908 5.457804638375134 4.48779152986126
  endloop
endfacet
facet normal 1.3097885841305563e-15 -0.6942549155954427 0.7197291936357486
  outer loop
    vertex 7.306748582336908 5.457804638375134 4.48779152986126
    vertex 0.30674858233690594 5.457804638375134 4.487791529861274
    vertex 0.306748582336913 4.838122440639314 3.890042521360151
  endloop
endfacet
facet normal -1.1631327194981968e-15 -0.6942549155954282 0.7197291936357625
  outer loop
    vertex 7.306748582336925 4.838122440639314 3.8900425213601624
    vertex 7.306748582336908 5.457804638375134 4.48779152986126
    vertex 0.306748582336913 4.838122440639314 3.890042521360151
  endloop
endfacet
facet normal -1.5695455286203872e-15 -0.2225267063345874 0.974926594656172
  outer loop
    vertex 7.306748582336925 4.838122440639314 3.8900425213601624
    vertex 0.306748582336913 4.838122440639314 3.890042521360151
    vertex 0.30674858233691865 4.078822440639308 3.716732521360159
  endloop
endfacet
facet normal -5.817356247066853e-16 -0.22252670633459612 0.9749265946561702
  outer loop
    vertex 7.306748582336925 4.838122440639314 3.8900425213601624
    vertex 0.30674858233691865 4.078822440639308 3.716732521360159
    vertex 7.30674858233692 4.078822440639308 3.7167325213601634
  endloop
endfacet
facet normal 0.011386355833517913 0.8517827525114439 0.523771413333012
  outer loop
    vertex 0.30674858233691865 2.372702440639309 5.077322521360155
    vertex 7.306748582336908 2.7106124406393173 4.375622521360156
    vertex 0.30674858233690594 2.7352121060564105 4.487791529861274
  endloop
endfacet
facet normal 0.01585198574961128 0.45799329856460413 0.8888142961371107
  outer loop
    vertex 7.306748582336925 3.341045208743212 4.050769529861269
    vertex 0.30674858233690594 2.7352121060564105 4.487791529861274
    vertex 7.306748582336908 2.7106124406393173 4.375622521360156
  endloop
endfacet
facet normal -1.1268173121769916e-15 0.5850293420341269 0.8110121262713132
  outer loop
    vertex 7.306748582336925 3.341045208743212 4.050769529861269
    vertex 0.306748582336913 3.341045208743212 4.05076952986126
    vertex 0.30674858233690594 2.7352121060564105 4.487791529861274
  endloop
endfacet
facet normal -1.2824663211264366e-15 0.4124555059207065 0.9109777470584526
  outer loop
    vertex 7.306748582336925 3.341045208743212 4.050769529861269
    vertex 7.30674858233692 4.078822440639308 3.7167325213601634
    vertex 0.306748582336913 3.341045208743212 4.05076952986126
  endloop
endfacet
facet normal -5.418871779407511e-16 0.4124555059207008 0.9109777470584552
  outer loop
    vertex 7.30674858233692 4.078822440639308 3.7167325213601634
    vertex 0.30674858233691865 4.078822440639308 3.716732521360159
    vertex 0.306748582336913 3.341045208743212 4.05076952986126
  endloop
endfacet
facet normal 4.3940989803245473e-16 0.90097434390762 0.4338723678920258
  outer loop
    vertex 0.30674858233691865 2.372702440639309 5.077322521360155
    vertex 7.306748582336908 2.372702440639309 5.0773225213601485
    vertex 7.306748582336908 2.7106124406393173 4.375622521360156
  endloop
endfacet
facet normal -0.0 1.0 -0.0
  outer loop
    vertex 0.306748582336913 2.372702440639309 5.856142521360153
    vertex 7.306748582336908 2.372702440639309 5.0773225213601485
    vertex 0.30674858233691865 2.372702440639309 5.077322521360155
  endloop
endfacet
facet normal -0.0 1.0 -0.0
  outer loop
    vertex 0.306748582336913 2.372702440639309 5.856142521360153
    vertex 7.306748582336898 2.372702440639309 5.856142521360148
    vertex 7.306748582336908 2.372702440639309 5.0773225213601485
  endloop
endfacet
facet normal -2.5673387300771736e-16 0.9009743439076234 -0.4338723678920187
  outer loop
    vertex 0.3067485823369073 2.7106124406393173 6.5578425213601585
    vertex 7.306748582336898 2.372702440639309 5.856142521360148
    vertex 0.306748582336913 2.372702440639309 5.856142521360153
  endloop
endfacet
facet normal 8.393222771405986e-17 0.9009743439076249 -0.433872367892016
  outer loop
    vertex 7.306748582336908 2.7106124406393173 6.55784252136016
    vertex 7.306748582336898 2.372702440639309 5.856142521360148
    vertex 0.3067485823369073 2.7106124406393173 6.5578425213601585
  endloop
endfacet
facet normal 1.5361880192023372e-16 0.6234823290455942 -0.7818374417792239
  outer loop
    vertex 7.306748582336908 2.7106124406393173 6.55784252136016
    vertex 0.3067485823369073 2.7106124406393173 6.5578425213601585
    vertex 0.306748582336913 3.319522440639313 7.043422521360152
  endloop
endfacet
facet normal -6.201647929372464e-16 0.6234823290455888 -0.7818374417792282
  outer loop
    vertex 7.306748582336908 2.7106124406393173 6.55784252136016
    vertex 0.306748582336913 3.319522440639313 7.043422521360152
    vertex 7.306748582336898 3.319522440639313 7.043422521360147
  endloop
endfacet
facet normal -7.870540804855385e-16 0.2225267063346005 -0.9749265946561692
  outer loop
    vertex 7.306748582336898 3.319522440639313 7.043422521360147
    vertex 0.306748582336913 3.319522440639313 7.043422521360152
    vertex 0.3067485823369299 4.078822440639308 7.216732521360153
  endloop
endfacet
facet normal -5.908608894079836e-16 0.22252670633460225 -0.9749265946561689
  outer loop
    vertex 7.3067485823369145 4.078822440639308 7.216732521360148
    vertex 7.306748582336898 3.319522440639313 7.043422521360147
    vertex 0.3067485823369299 4.078822440639308 7.216732521360153
  endloop
endfacet
facet normal -8.45166359015563e-06 -0.9873510332810574 0.1585494781050934
  outer loop
    vertex 7.294580400092267 0.5788224406393119 5.497312606371242
    vertex 7.113673491538284 0.5811848522860111 5.496938442094568
    vertex 7.306748582336908 0.5788224406393119 5.466732521360157
  endloop
endfacet
facet normal -8.45166359015563e-06 -0.9873510332810574 0.1585494781050934
  outer loop
    vertex 7.113673491538284 0.5811848522860111 5.496938442094568
    vertex 7.294580400092267 0.5788224406393119 5.497312606371242
    vertex 0.3067485823369073 0.7501224406393159 6.548292521360153
  endloop
endfacet
facet normal -8.45166359015563e-06 -0.9873510332810574 0.1585494781050934
  outer loop
    vertex 0.3067485823369073 0.7501224406393159 6.548292521360153
    vertex 7.294580400092267 0.5788224406393119 5.497312606371242
    vertex 7.306748582336908 0.7501224406393159 6.5482925213601595
  endloop
endfacet
facet normal -3.737567535493611e-16 -0.8910061126092784 0.45399130750808603
  outer loop
    vertex 0.3067485823369073 1.2472624406393096 7.523982521360168
    vertex 0.3067485823369073 0.7501224406393159 6.548292521360153
    vertex 7.306748582336908 0.7501224406393159 6.5482925213601595
  endloop
endfacet
facet normal 1.277844035783688e-15 -0.8910061126092739 0.45399130750809547
  outer loop
    vertex 0.3067485823369073 1.2472624406393096 7.523982521360168
    vertex 7.306748582336908 0.7501224406393159 6.5482925213601595
    vertex 7.306748582336903 1.2472624406393096 7.523982521360148
  endloop
endfacet
facet normal 1.9856843518177824e-15 -0.7071067811865386 0.7071067811865565
  outer loop
    vertex 7.306748582336903 1.2472624406393096 7.523982521360148
    vertex 0.306748582336913 2.0215724406393076 8.298292521360146
    vertex 0.3067485823369073 1.2472624406393096 7.523982521360168
  endloop
endfacet
facet normal -2.800324085896821e-16 -0.7071067811865488 0.7071067811865464
  outer loop
    vertex 7.306748582336908 2.0215724406393076 8.29829252136015
    vertex 0.306748582336913 2.0215724406393076 8.298292521360146
    vertex 7.306748582336903 1.2472624406393096 7.523982521360148
  endloop
endfacet
facet normal -3.5860445272980266e-16 -0.4539913075080847 0.8910061126092793
  outer loop
    vertex 7.306748582336908 2.0215724406393076 8.29829252136015
    vertex 0.3067485823369355 2.997262440639309 8.795432521360132
    vertex 0.306748582336913 2.0215724406393076 8.298292521360146
  endloop
endfacet
facet normal -1.8182760983483082e-16 -0.4539913075080838 0.8910061126092799
  outer loop
    vertex 7.306748582336908 2.997262440639309 8.795432521360132
    vertex 0.3067485823369355 2.997262440639309 8.795432521360132
    vertex 7.306748582336908 2.0215724406393076 8.29829252136015
  endloop
endfacet
facet normal -1.9592400186982333e-16 -0.15643243808699997 0.9876886616308588
  outer loop
    vertex 7.306748582336908 2.997262440639309 8.795432521360132
    vertex 0.30674858233691865 4.078822440639308 8.966732521360141
    vertex 0.3067485823369355 2.997262440639309 8.795432521360132
  endloop
endfacet
facet normal -7.950869378205578e-16 -0.15643243808700383 0.9876886616308581
  outer loop
    vertex 7.306748582336908 4.078822440639308 8.966732521360147
    vertex 0.30674858233691865 4.078822440639308 8.966732521360141
    vertex 7.306748582336908 2.997262440639309 8.795432521360132
  endloop
endfacet
facet normal -7.928087517522905e-16 0.1564324380869987 0.987688661630859
  outer loop
    vertex 7.306748582336908 4.078822440639308 8.966732521360147
    vertex 0.3067485823369355 5.160382440639317 8.795432521360132
    vertex 0.30674858233691865 4.078822440639308 8.966732521360141
  endloop
endfacet
facet normal -2.004803740063271e-16 0.15643243808700238 0.9876886616308583
  outer loop
    vertex 7.306748582336908 5.160382440639317 8.795432521360132
    vertex 0.3067485823369355 5.160382440639317 8.795432521360132
    vertex 7.306748582336908 4.078822440639308 8.966732521360147
  endloop
endfacet
facet normal -1.7677684289497658e-16 0.45399130750808736 0.8910061126092779
  outer loop
    vertex 7.306748582336908 5.160382440639317 8.795432521360132
    vertex 0.306748582336913 6.136072440639312 8.298292521360146
    vertex 0.3067485823369355 5.160382440639317 8.795432521360132
  endloop
endfacet
facet normal -3.5860445272980744e-16 0.45399130750808625 0.8910061126092784
  outer loop
    vertex 7.306748582336908 6.136072440639312 8.29829252136015
    vertex 0.306748582336913 6.136072440639312 8.298292521360146
    vertex 7.306748582336908 5.160382440639317 8.795432521360132
  endloop
endfacet
facet normal -2.8003240858968645e-16 0.7071067811865379 0.7071067811865571
  outer loop
    vertex 7.306748582336908 6.136072440639312 8.29829252136015
    vertex 0.3067485823369073 6.910382440639311 7.523982521360168
    vertex 0.306748582336913 6.136072440639312 8.298292521360146
  endloop
endfacet
facet normal 1.9665912330502656e-15 0.707106781186548 0.7071067811865469
  outer loop
    vertex 7.306748582336908 6.136072440639312 8.29829252136015
    vertex 7.306748582336903 6.910382440639311 7.523982521360148
    vertex 0.3067485823369073 6.910382440639311 7.523982521360168
  endloop
endfacet
facet normal 1.2727932688437726e-15 0.8910061126092784 0.45399130750808614
  outer loop
    vertex 0.3067485823369073 6.910382440639311 7.523982521360168
    vertex 7.306748582336903 6.910382440639311 7.523982521360148
    vertex 0.3067485823369073 7.407522440639305 6.548292521360153
  endloop
endfacet
facet normal -3.687059866095222e-16 0.8910061126092736 0.4539913075080956
  outer loop
    vertex 7.306748582336903 6.910382440639311 7.523982521360148
    vertex 7.306748582336908 7.407522440639305 6.5482925213601595
    vertex 0.3067485823369073 7.407522440639305 6.548292521360153
  endloop
endfacet
facet normal -1.282940087658705e-16 0.9876200399361463 0.1568650908154023
  outer loop
    vertex 7.306748582336908 7.407522440639305 6.5482925213601595
    vertex 0.30674858233690594 7.578822440639309 5.469790529861263
    vertex 0.3067485823369073 7.407522440639305 6.548292521360153
  endloop
endfacet
facet normal -6.643796882518261e-17 0.9876200399361466 0.156865090815402
  outer loop
    vertex 7.306748582336908 7.407522440639305 6.5482925213601595
    vertex 7.306748582336908 7.578822440639309 5.469790529861266
    vertex 0.30674858233690594 7.578822440639309 5.469790529861263
  endloop
endfacet
facet normal -1.0 4.715978464358654e-15 -7.241638587986719e-15
  outer loop
    vertex 0.30674858233691865 2.372702440639309 5.077322521360155
    vertex 0.3067485823369073 0.5788224406393119 5.4667325213601545
    vertex 0.306748582336913 2.372702440639309 5.856142521360153
  endloop
endfacet
facet normal -0.9999936511455805 0.0029907657396895564 0.0019372632298304035
  outer loop
    vertex 0.3067485823369073 1.2472624406393096 7.523982521360168
    vertex 0.3067485823369073 0.5788224406393119 5.4667325213601545
    vertex 0.29458040009227404 0.5788224406393119 5.497312606371242
  endloop
endfacet
facet normal -0.9999936511455805 0.0029907657396895564 0.0019372632298304035
  outer loop
    vertex 0.3067485823369073 0.5788224406393119 5.4667325213601545
    vertex 0.3067485823369073 1.2472624406393096 7.523982521360168
    vertex 0.306748582336913 2.372702440639309 5.856142521360153
  endloop
endfacet
facet normal 1.0 2.0632491764608793e-14 -2.643157935245071e-15
  outer loop
    vertex 7.306748582336898 3.319522440639313 7.043422521360147
    vertex 7.306748582336908 2.997262440639309 8.795432521360132
    vertex 7.306748582336908 2.7106124406393173 6.55784252136016
  endloop
endfacet
facet normal -0.9992977088481554 -0.03338704757606051 0.0170115885496031
  outer loop
    vertex 0.3067485823369073 1.2472624406393096 7.523982521360168
    vertex 0.29458040009227404 0.5788224406393119 5.497312606371242
    vertex 0.3067485823369073 0.7501224406393159 6.548292521360153
  endloop
endfacet
facet normal -0.0 1.0 -0.0
  outer loop
    vertex 7.306748582336908 0.5788224406393119 5.466732521360157
    vertex 0.29458040009227404 0.5788224406393119 5.26777079038912
    vertex 0.3067485823369073 0.5788224406393119 5.4667325213601545
  endloop
endfacet
facet normal 0.00035075549718456935 -0.9869765232338916 0.16086397842811317
  outer loop
    vertex 0.3067485823369073 0.7501224406393159 6.548292521360153
    vertex 0.29458040009227404 0.5788224406393119 5.497312606371242
    vertex 7.113673491538284 0.5811848522860111 5.496938442094568
  endloop
endfacet
facet normal 0.9999999979096368 -4.325065773864324e-21 -6.46585371169275e-05
  outer loop
    vertex 7.30649615675395 7.288638961070192 -0.013936654521086871
    vertex 7.306748582336925 4.838122440639314 3.8900425213601624
    vertex 7.30649615675395 1.0297912104376072 -0.013936654521086519
  endloop
endfacet
facet normal 0.9980990977571481 -0.0540970877385339 0.029524500920015948
  outer loop
    vertex 7.306748582336908 2.7106124406393173 4.375622521360156
    vertex 7.301011788886403 0.7548632085673024 0.9860834498577743
    vertex 7.306496269096226 0.8560416898151699 0.9860633454781894
  endloop
endfacet
facet normal 0.9999999978664602 -2.9921203995551242e-05 -5.806721174387503e-05
  outer loop
    vertex 7.306748582336925 3.341045208743212 4.050769529861269
    vertex 7.306748582336908 2.7106124406393173 4.375622521360156
    vertex 7.306496269096226 0.8560416898151699 0.9860633454781894
  endloop
endfacet
facet normal -0.9981725434156082 0.05327568043397135 -0.028517984597669358
  outer loop
    vertex 0.30674858233690594 2.7352121060564105 4.487791529861274
    vertex 0.30649626909623356 0.8560416898151756 0.9860633454781891
    vertex 0.3008984476360676 0.7511714165157718 0.9860828600815411
  endloop
endfacet
facet normal -0.9999999979487957 3.747115726993661e-05 5.19453653661834e-05
  outer loop
    vertex 0.306748582336913 3.341045208743212 4.05076952986126
    vertex 0.30649626909623356 0.8560416898151756 0.9860633454781891
    vertex 0.30674858233690594 2.7352121060564105 4.487791529861274
  endloop
endfacet
facet normal -0.9980474312705222 0.01325015773063602 0.06103898962487377
  outer loop
    vertex 0.30674858233691865 2.372702440639309 5.077322521360155
    vertex 0.29458040009227404 0.5788224406393119 5.26777079038912
    vertex 0.3067485823369073 0.5788224406393119 5.4667325213601545
  endloop
endfacet
facet normal -0.999976995136903 0.006783007958881274 -2.8159875901229066e-19
  outer loop
    vertex 0.30674858233691865 2.372702440639309 5.077322521360155
    vertex 0.29458040009227404 0.5788224406393119 0.9973126063712443
    vertex 0.29458040009227404 0.5788224406393119 5.26777079038912
  endloop
endfacet
facet normal -0.9986170302643549 0.04916012356810062 -0.018636231292023346
  outer loop
    vertex 0.30674858233691865 2.372702440639309 5.077322521360155
    vertex 0.3008281775135146 0.7014789293560229 0.9860802499398933
    vertex 0.29458040009227404 0.5788224406393119 0.9973126063712443
  endloop
endfacet
facet normal 0.9999999982343579 -5.1842430078267564e-05 -2.9045593935400306e-05
  outer loop
    vertex 7.30649615675395 0.9727517483121418 -0.013936654521086519
    vertex 7.306496269096226 0.8560416898151699 0.9860633454781894
    vertex 7.30649615675395 0.856040491651948 -0.013936654521086519
  endloop
endfacet
facet normal 0.9999999982343579 -5.1842430078267564e-05 -2.9045593935400306e-05
  outer loop
    vertex 7.306496269096226 0.8560416898151699 0.9860633454781894
    vertex 7.30649615675395 0.9727517483121418 -0.013936654521086519
    vertex 7.306748582336925 3.341045208743212 4.050769529861269
  endloop
endfacet
facet normal 0.9999999982343579 -5.1842430078267564e-05 -2.9045593935400306e-05
  outer loop
    vertex 7.306748582336925 3.341045208743212 4.050769529861269
    vertex 7.30649615675395 0.9727517483121418 -0.013936654521086519
    vertex 7.30674858233692 4.078822440639308 3.7167325213601634
  endloop
endfacet
facet normal 0.9999978308686495 -0.0006626597251939249 -0.0019746240362712086
  outer loop
    vertex 7.300926875965368 0.7014789293560229 0.986080249939893
    vertex 7.306748582336908 0.5788224406393119 5.466732521360157
    vertex 7.294580400092267 0.5788224406393119 0.9973126063712443
  endloop
endfacet
facet normal 0.9999978308686495 -0.0006626597251939249 -0.0019746240362712086
  outer loop
    vertex 7.306748582336908 0.5788224406393119 5.466732521360157
    vertex 7.300926875965368 0.7014789293560229 0.986080249939893
    vertex 7.306748582336908 2.372702440639309 5.0773225213601485
  endloop
endfacet
facet normal 0.9999999963607638 1.8857111786344296e-05 -8.320385700777824e-05
  outer loop
    vertex 7.30649615675395 1.0297912104376072 -0.013936654521086519
    vertex 7.30674858233692 4.078822440639308 3.7167325213601634
    vertex 7.30649615675395 0.9727517483121418 -0.013936654521086519
  endloop
endfacet
facet normal 0.9999999963607638 1.8857111786344296e-05 -8.320385700777824e-05
  outer loop
    vertex 7.30674858233692 4.078822440639308 3.7167325213601634
    vertex 7.30649615675395 1.0297912104376072 -0.013936654521086519
    vertex 7.306748582336925 4.838122440639314 3.8900425213601624
  endloop
endfacet
facet normal -0.9999999941930187 2.3820198338367962e-05 -0.00010510262011615401
  outer loop
    vertex 0.30674858233691865 4.078822440639308 3.716732521360159
    vertex 0.3070674565284297 1.0302840181027442 -0.013936370554277494
    vertex 0.3070674565284297 0.9732445559772674 -0.013936370554277846
  endloop
endfacet
facet normal -0.9999999941930187 2.3820198338367962e-05 -0.00010510262011615401
  outer loop
    vertex 0.3070674565284297 1.0302840181027442 -0.013936370554277494
    vertex 0.30674858233691865 4.078822440639308 3.716732521360159
    vertex 0.306748582336913 4.838122440639314 3.890042521360151
  endloop
endfacet
facet normal -0.9999986222938204 0.001414002547809391 0.0008694867773316568
  outer loop
    vertex 0.30674858233691865 2.372702440639309 5.077322521360155
    vertex 0.3008984476360676 0.7511714165157718 0.9860828600815411
    vertex 0.3008281775135146 0.7014789293560229 0.9860802499398933
  endloop
endfacet
facet normal -0.9999986222938204 0.001414002547809391 0.0008694867773316568
  outer loop
    vertex 0.3008984476360676 0.7511714165157718 0.9860828600815411
    vertex 0.30674858233691865 2.372702440639309 5.077322521360155
    vertex 0.30674858233690594 2.7352121060564105 4.487791529861274
  endloop
endfacet
facet normal 0.9999999152072659 0.00040823712534792793 -5.4110167269723024e-05
  outer loop
    vertex 7.30649615675395 7.288638961070192 -0.013936654521086871
    vertex 7.306748582336908 5.457804638375134 4.48779152986126
    vertex 7.306748582336925 4.838122440639314 3.8900425213601624
  endloop
endfacet
facet normal 0.9999999152072659 0.00040823712534792793 -5.4110167269723024e-05
  outer loop
    vertex 7.306748582336908 5.457804638375134 4.48779152986126
    vertex 7.30649615675395 7.288638961070192 -0.013936654521086871
    vertex 7.304757506363859 7.323701411653753 0.14589899607581938
  endloop
endfacet
facet normal -0.0 1.0 -0.0
  outer loop
    vertex 0.29458040009227404 0.5788224406393119 0.9973126063712443
    vertex 7.294580400092267 0.5788224406393119 0.9973126063712443
    vertex 7.169479564387041 0.5788224406393119 0.9916879759247167
  endloop
endfacet
facet normal -0.0 1.0 -0.0
  outer loop
    vertex 7.294580400092267 0.5788224406393119 0.9973126063712443
    vertex 0.29458040009227404 0.5788224406393119 0.9973126063712443
    vertex 0.29458040009227404 0.5788224406393119 5.26777079038912
  endloop
endfacet
facet normal -0.0 1.0 -0.0
  outer loop
    vertex 7.294580400092267 0.5788224406393119 0.9973126063712443
    vertex 0.29458040009227404 0.5788224406393119 5.26777079038912
    vertex 7.306748582336908 0.5788224406393119 5.466732521360157
  endloop
endfacet
facet normal -0.9999999185837931 0.00029370638718828206 -0.0002767109782003196
  outer loop
    vertex 0.306748582336913 3.341045208743212 4.05076952986126
    vertex 0.3070674565284297 0.8565332993170736 -0.013936370554277846
    vertex 0.30649626909623356 0.8560416898151756 0.9860633454781891
  endloop
endfacet
facet normal -0.9999999185837931 0.00029370638718828206 -0.0002767109782003196
  outer loop
    vertex 0.3070674565284297 0.8565332993170736 -0.013936370554277846
    vertex 0.306748582336913 3.341045208743212 4.05076952986126
    vertex 0.3070674565284297 0.9732445559772674 -0.013936370554277846
  endloop
endfacet
facet normal -0.9999999185837931 0.00029370638718828206 -0.0002767109782003196
  outer loop
    vertex 0.3070674565284297 0.9732445559772674 -0.013936370554277846
    vertex 0.306748582336913 3.341045208743212 4.05076952986126
    vertex 0.30674858233691865 4.078822440639308 3.716732521360159
  endloop
endfacet
facet normal 0.9999999994069915 -1.695149988108896e-05 -2.9977726519790842e-05
  outer loop
    vertex 7.306496269096226 7.44578968287668 0.9860633454781894
    vertex 7.306748582336908 7.578822440639309 5.469790529861266
    vertex 7.306748582336898 5.784942440639306 5.856142521360148
  endloop
endfacet
facet normal 0.9999999994069915 -1.695149988108896e-05 -2.9977726519790842e-05
  outer loop
    vertex 7.306748582336908 7.578822440639309 5.469790529861266
    vertex 7.306496269096226 7.44578968287668 0.9860633454781894
    vertex 7.306748582336903 7.578822440639309 0.9667325213601587
  endloop
endfacet
facet normal 0.9999992017437418 -0.0010461266428990887 -0.0007086119716373373
  outer loop
    vertex 7.304757506363859 7.323701411653753 0.14589899607581938
    vertex 7.306748582336908 5.79400713747828 5.119321529861254
    vertex 7.306748582336908 5.457804638375134 4.48779152986126
  endloop
endfacet
facet normal 0.9999992017437418 -0.0010461266428990887 -0.0007086119716373373
  outer loop
    vertex 7.306748582336908 5.79400713747828 5.119321529861254
    vertex 7.304757506363859 7.323701411653753 0.14589899607581938
    vertex 7.306496269096226 7.44578968287668 0.9860633454781894
  endloop
endfacet
facet normal 0.999997332297517 -0.002278369173381116 -0.0003800417863930591
  outer loop
    vertex 7.301011676544127 0.7548620104040805 -0.013916550141501654
    vertex 7.300926875965368 0.7014789293560229 0.986080249939893
    vertex 7.300926763623092 0.7014777311928009 -0.01391975005938299
  endloop
endfacet
facet normal 0.999997332297517 -0.002278369173381116 -0.0003800417863930591
  outer loop
    vertex 7.300926875965368 0.7014789293560229 0.986080249939893
    vertex 7.301011676544127 0.7548620104040805 -0.013916550141501654
    vertex 7.301011788886403 0.7548632085673024 0.9860834498577743
  endloop
endfacet
facet normal 0.999997332297517 -0.002278369173381116 -0.0003800417863930591
  outer loop
    vertex 7.300926875965368 0.7014789293560229 0.986080249939893
    vertex 7.301011788886403 0.7548632085673024 0.9860834498577743
    vertex 7.306748582336908 2.372702440639309 5.0773225213601485
  endloop
endfacet
facet normal 0.999997332297517 -0.002278369173381116 -0.0003800417863930591
  outer loop
    vertex 7.306748582336908 2.372702440639309 5.0773225213601485
    vertex 7.301011788886403 0.7548632085673024 0.9860834498577743
    vertex 7.306748582336908 2.7106124406393173 4.375622521360156
  endloop
endfacet
facet normal 0.0447190709617515 -0.0933972701963427 -0.9946241273024646
  outer loop
    vertex 7.300926875965368 0.7014789293560229 0.986080249939893
    vertex 7.294580400092267 0.5788224406393119 0.9973126063712443
    vertex 7.169479564387041 0.5788224406393119 0.9916879759247167
  endloop
endfacet
facet normal 0.0003123315909729256 0.9999992453525408 -0.0011881680546453335
  outer loop
    vertex 2.6222802174511526 7.561190974051046 -0.010413944375065766
    vertex 2.6483390068461317 7.578822440639309 0.9860633454781874
    vertex 2.6489101942783275 7.579314050141207 -0.013936370554279608
  endloop
endfacet
facet normal 0.0003123315909729256 0.9999992453525408 -0.0011881680546453335
  outer loop
    vertex 2.6483390068461317 7.578822440639309 0.9860633454781874
    vertex 2.6222802174511526 7.561190974051046 -0.010413944375065766
    vertex 0.3073197697690584 7.579314050141207 -0.003917272595030927
  endloop
endfacet
facet normal 0.0003123315909729256 0.9999992453525408 -0.0011881680546453335
  outer loop
    vertex 2.6483390068461317 7.578822440639309 0.9860633454781874
    vertex 0.3073197697690584 7.579314050141207 -0.003917272595030927
    vertex 0.30674858233686225 7.578822440639309 0.9960824434374363
  endloop
endfacet
facet normal 0.0003123315909729256 0.9999992453525408 -0.0011881680546453335
  outer loop
    vertex 2.6483390068461317 7.578822440639309 0.9860633454781874
    vertex 7.306748582336908 7.578822440639309 5.469790529861266
    vertex 7.306748582336903 7.578822440639309 0.9667325213601587
  endloop
endfacet
facet normal 0.0003123315909729256 0.9999992453525408 -0.0011881680546453335
  outer loop
    vertex 7.306748582336908 7.578822440639309 5.469790529861266
    vertex 2.6483390068461317 7.578822440639309 0.9860633454781874
    vertex 0.30674858233686225 7.578822440639309 0.9960824434374363
  endloop
endfacet
facet normal -0.9999999942731093 1.999767977870999e-06 -0.0001070036570357284
  outer loop
    vertex 0.306748582336913 4.838122440639314 3.890042521360151
    vertex 0.3073197697690584 7.579314050141207 -0.003917272595030927
    vertex 0.3070674565284297 1.0302840181027442 -0.013936370554277494
  endloop
endfacet
facet normal -0.9999999942731093 1.999767977870999e-06 -0.0001070036570357284
  outer loop
    vertex 0.3073197697690584 7.579314050141207 -0.003917272595030927
    vertex 0.306748582336913 4.838122440639314 3.890042521360151
    vertex 0.30674858233686225 7.578822440639309 0.9960824434374363
  endloop
endfacet
facet normal 0.001078066383770297 0.0007129513251234046 -0.9999991647362914
  outer loop
    vertex 0.3073197697690584 7.579314050141207 -0.003917272595030927
    vertex 0.3070674565284297 0.9732445559772674 -0.013936370554277846
    vertex 0.3070674565284297 1.0302840181027442 -0.013936370554277494
  endloop
endfacet
facet normal 0.001078066383770297 0.0007129513251234046 -0.9999991647362914
  outer loop
    vertex 0.3070674565284297 0.9732445559772674 -0.013936370554277846
    vertex 0.3073197697690584 7.579314050141207 -0.003917272595030927
    vertex 0.3070674565284297 0.8565332993170736 -0.013936370554277846
  endloop
endfacet
facet normal 0.001078066383770297 0.0007129513251234046 -0.9999991647362914
  outer loop
    vertex 0.30146963506826374 0.7516630260176698 -0.013916855950925767
    vertex 7.143420774992061 0.5611909740510487 -0.00478931392853656
    vertex 0.30139936494571073 0.7019705388579208 -0.013919466092573612
  endloop
endfacet
facet normal 0.001078066383770297 0.0007129513251234046 -0.9999991647362914
  outer loop
    vertex 7.143420774992061 0.5611909740510487 -0.00478931392853656
    vertex 0.30146963506826374 0.7516630260176698 -0.013916855950925767
    vertex 0.3070674565284297 0.8565332993170736 -0.013936370554277846
  endloop
endfacet
facet normal 0.001078066383770297 0.0007129513251234046 -0.9999991647362914
  outer loop
    vertex 7.143420774992061 0.5611909740510487 -0.00478931392853656
    vertex 0.3070674565284297 0.8565332993170736 -0.013936370554277846
    vertex 0.3073197697690584 7.579314050141207 -0.003917272595030927
  endloop
endfacet
facet normal 0.001078066383770297 0.0007129513251234046 -0.9999991647362914
  outer loop
    vertex 7.143420774992061 0.5611909740510487 -0.00478931392853656
    vertex 0.3073197697690584 7.579314050141207 -0.003917272595030927
    vertex 2.6222802174511526 7.561190974051046 -0.010413944375065766
  endloop
endfacet
facet normal 0.001078066383770297 0.0007129513251234046 -0.9999991647362914
  outer loop
    vertex 7.143420774992061 0.5611909740510487 -0.00478931392853656
    vertex 2.6222802174511526 7.561190974051046 -0.010413944375065766
    vertex 2.708866396198506 7.433190409822922 -0.007039103472903754
  endloop
endfacet
facet normal -0.998578260749554 0.05330254248913491 -0.000544171470768474
  outer loop
    vertex 0.30649626909623356 0.8560416898151756 0.9860633454781891
    vertex 0.30146963506826374 0.7516630260176698 -0.013916855950925767
    vertex 0.3008984476360676 0.7511714165157718 0.9860828600815411
  endloop
endfacet
facet normal -0.998578260749554 0.05330254248913491 -0.000544171470768474
  outer loop
    vertex 0.30146963506826374 0.7516630260176698 -0.013916855950925767
    vertex 0.30649626909623356 0.8560416898151756 0.9860633454781891
    vertex 0.3070674565284297 0.8565332993170736 -0.013936370554277846
  endloop
endfacet
facet normal 0.8400563089904088 0.542497873667778 0.0012061473169788224
  outer loop
    vertex 7.170050751819237 0.5793140501412098 -0.008311740107750225
    vertex 2.6483390068461317 7.578822440639309 0.9860633454781874
    vertex 7.169479564387041 0.5788224406393119 0.9916879759247167
  endloop
endfacet
facet normal 0.8400563089904088 0.542497873667778 0.0012061473169788224
  outer loop
    vertex 2.6483390068461317 7.578822440639309 0.9860633454781874
    vertex 7.170050751819237 0.5793140501412098 -0.008311740107750225
    vertex 3.4709590519699 6.30662338225593 -0.011667204820183026
  endloop
endfacet
facet normal 0.8400563089904088 0.542497873667778 0.0012061473169788224
  outer loop
    vertex 2.6483390068461317 7.578822440639309 0.9860633454781874
    vertex 3.4709590519699 6.30662338225593 -0.011667204820183026
    vertex 2.7456532481617915 7.435018730535289 -0.008940944086591162
  endloop
endfacet
facet normal 0.8400563089904088 0.542497873667778 0.0012061473169788224
  outer loop
    vertex 2.6483390068461317 7.578822440639309 0.9860633454781874
    vertex 2.7456532481617915 7.435018730535289 -0.008940944086591162
    vertex 2.6679659224379413 7.549809715671325 -0.013924623326095663
  endloop
endfacet
facet normal 0.8400563089904088 0.542497873667778 0.0012061473169788224
  outer loop
    vertex 2.6483390068461317 7.578822440639309 0.9860633454781874
    vertex 2.6679659224379413 7.549809715671325 -0.013924623326095663
    vertex 2.6489101942783275 7.579314050141207 -0.013936370554279608
  endloop
endfacet
facet normal -0.018628730722106607 -0.9998149722325619 0.004794965201620723
  outer loop
    vertex 7.169479564387041 0.5788224406393119 0.9916879759247167
    vertex 7.143420774992061 0.5611909740510487 -0.00478931392853656
    vertex 7.170050751819237 0.5793140501412098 -0.008311740107750225
  endloop
endfacet
facet normal -0.018628730722106607 -0.9998149722325619 0.004794965201620723
  outer loop
    vertex 7.143420774992061 0.5611909740510487 -0.00478931392853656
    vertex 7.169479564387041 0.5788224406393119 0.9916879759247167
    vertex 0.3008281775135146 0.7014789293560229 0.9860802499398933
  endloop
endfacet
facet normal -0.018628730722106607 -0.9998149722325619 0.004794965201620723
  outer loop
    vertex 0.3008281775135146 0.7014789293560229 0.9860802499398933
    vertex 0.30139936494571073 0.7019705388579208 -0.013919466092573612
    vertex 7.143420774992061 0.5611909740510487 -0.00478931392853656
  endloop
endfacet
facet normal -0.9999988373901315 0.0014141278478292177 -0.0005704917314422335
  outer loop
    vertex 0.3008984476360676 0.7511714165157718 0.9860828600815411
    vertex 0.30139936494571073 0.7019705388579208 -0.013919466092573612
    vertex 0.3008281775135146 0.7014789293560229 0.9860802499398933
  endloop
endfacet
facet normal -0.9999988373901315 0.0014141278478292177 -0.0005704917314422335
  outer loop
    vertex 0.30139936494571073 0.7019705388579208 -0.013919466092573612
    vertex 0.3008984476360676 0.7511714165157718 0.9860828600815411
    vertex 0.30146963506826374 0.7516630260176698 -0.013916855950925767
  endloop
endfacet
facet normal -0.0010954923689104159 -8.708437851603194e-07 -0.9999993999476756
  outer loop
    vertex 7.30649615675395 7.288638961070192 -0.013936654521086871
    vertex 7.300926763623092 0.7014777311928009 -0.01391975005938299
    vertex 2.7456532481617915 7.435018730535289 -0.008940944086591162
  endloop
endfacet
facet normal -0.0010954923689104159 -8.708437851603194e-07 -0.9999993999476756
  outer loop
    vertex 7.300926763623092 0.7014777311928009 -0.01391975005938299
    vertex 7.30649615675395 7.288638961070192 -0.013936654521086871
    vertex 7.301011676544127 0.7548620104040805 -0.013916550141501654
  endloop
endfacet
facet normal -0.0010954923689104159 -8.708437851603194e-07 -0.9999993999476756
  outer loop
    vertex 7.301011676544127 0.7548620104040805 -0.013916550141501654
    vertex 7.30649615675395 7.288638961070192 -0.013936654521086871
    vertex 7.30649615675395 0.856040491651948 -0.013936654521086519
  endloop
endfacet
facet normal -0.0010954923689104159 -8.708437851603194e-07 -0.9999993999476756
  outer loop
    vertex 7.30649615675395 0.856040491651948 -0.013936654521086519
    vertex 7.30649615675395 7.288638961070192 -0.013936654521086871
    vertex 7.30649615675395 1.0297912104376072 -0.013936654521086519
  endloop
endfacet
facet normal -0.0010954923689104159 -8.708437851603194e-07 -0.9999993999476756
  outer loop
    vertex 7.30649615675395 0.856040491651948 -0.013936654521086519
    vertex 7.30649615675395 1.0297912104376072 -0.013936654521086519
    vertex 7.30649615675395 0.9727517483121418 -0.013936654521086519
  endloop
endfacet
facet normal 0.02860905817889199 0.9995906518386378 0.00022482643088123222
  outer loop
    vertex 2.6489101942783275 7.579314050141207 -0.013936370554279608
    vertex 7.304724154907871 7.445839169569468 0.05185394126629001
    vertex 7.30649615675395 7.445788484713458 -0.013936654521086519
  endloop
endfacet
facet normal 0.02860905817889199 0.9995906518386378 0.00022482643088123222
  outer loop
    vertex 7.304724154907871 7.445839169569468 0.05185394126629001
    vertex 2.6489101942783275 7.579314050141207 -0.013936370554279608
    vertex 2.6483390068461317 7.578822440639309 0.9860633454781874
  endloop
endfacet
facet normal 0.02860905817889199 0.9995906518386378 0.00022482643088123222
  outer loop
    vertex 7.304724154907871 7.445839169569468 0.05185394126629001
    vertex 2.6483390068461317 7.578822440639309 0.9860633454781874
    vertex 7.306496269096226 7.44578968287668 0.9860633454781894
  endloop
endfacet
facet normal 0.9985340847464025 -0.054126533231514104 -4.732517022101192e-08
  outer loop
    vertex 7.30649615675395 0.856040491651948 -0.013936654521086519
    vertex 7.301011788886403 0.7548632085673024 0.9860834498577743
    vertex 7.301011676544127 0.7548620104040805 -0.013916550141501654
  endloop
endfacet
facet normal 0.9985340847464025 -0.054126533231514104 -4.732517022101192e-08
  outer loop
    vertex 7.301011788886403 0.7548632085673024 0.9860834498577743
    vertex 7.30649615675395 0.856040491651948 -0.013936654521086519
    vertex 7.306496269096226 0.8560416898151699 0.9860633454781894
  endloop
endfacet
facet normal -0.8282792635745885 -0.5603154803491868 -0.0001549625685783546
  outer loop
    vertex 7.300926875965368 0.7014789293560229 0.986080249939893
    vertex 2.7456532481617915 7.435018730535289 -0.008940944086591162
    vertex 7.300926763623092 0.7014777311928009 -0.01391975005938299
  endloop
endfacet
facet normal -0.8282792635745885 -0.5603154803491868 -0.0001549625685783546
  outer loop
    vertex 2.7456532481617915 7.435018730535289 -0.008940944086591162
    vertex 7.300926875965368 0.7014789293560229 0.986080249939893
    vertex 2.6483390068461317 7.578822440639309 0.9860633454781874
  endloop
endfacet
facet normal -0.8282792635745885 -0.5603154803491868 -0.0001549625685783546
  outer loop
    vertex 2.7456532481617915 7.435018730535289 -0.008940944086591162
    vertex 2.6483390068461317 7.578822440639309 0.9860633454781874
    vertex 2.6679659224379413 7.549809715671325 -0.013924623326095663
  endloop
endfacet
facet normal -0.8282792635745885 -0.5603154803491868 -0.0001549625685783546
  outer loop
    vertex 2.6679659224379413 7.549809715671325 -0.013924623326095663
    vertex 2.6483390068461317 7.578822440639309 0.9860633454781874
    vertex 2.6489101942783275 7.579314050141207 -0.013936370554279608
  endloop
endfacet
facet normal -0.0008147337963022276 -0.09115295204540572 -0.9958365706993537
  outer loop
    vertex 7.168664830590738 0.48766948859390474 -0.004148594774636832
    vertex 0.29376566629597184 0.48766948859390474 0.0014760356718904353
    vertex 0.3000134437172124 0.6103259773106158 -0.009756320759460218
  endloop
endfacet
facet normal -0.9997218648766729 0.023497760975178215 0.0020119932059888884
  outer loop
    vertex 0.3008281775135146 0.7014789293560229 0.9860802499398933
    vertex 0.306748582336913 0.5788224406393119 0.9667325213601503
    vertex 0.29458040009227404 0.5788224406393119 0.9973126063712443
  endloop
endfacet
facet normal -0.9997218648766729 0.023497760975178215 0.0020119932059888884
  outer loop
    vertex 0.306748582336913 0.5788224406393119 0.9667325213601503
    vertex 0.3008281775135146 0.7014789293560229 0.9860802499398933
    vertex 0.3000134437172124 0.6103259773106158 -0.009756320759460218
  endloop
endfacet
facet normal -0.9997218648766729 0.023497760975178215 0.0020119932059888884
  outer loop
    vertex 0.3000134437172124 0.6103259773106158 -0.009756320759460218
    vertex 0.29376566629597184 0.48766948859390474 0.0014760356718904353
    vertex 0.306748582336913 0.5788224406393119 0.9667325213601503
  endloop
endfacet
facet normal 0.017854652663135646 0.9956768317352541 -0.09115293809815025
  outer loop
    vertex 0.3008281775135146 0.7014789293560229 0.9860802499398933
    vertex 7.168664830590738 0.48766948859390474 -0.004148594774636832
    vertex 0.3000134437172124 0.6103259773106158 -0.009756320759460218
  endloop
endfacet
facet normal 0.017854652663135646 0.9956768317352541 -0.09115293809815025
  outer loop
    vertex 7.168664830590738 0.48766948859390474 -0.004148594774636832
    vertex 0.3008281775135146 0.7014789293560229 0.9860802499398933
    vertex 7.169479564387041 0.5788224406393119 0.9916879759247167
  endloop
endfacet
facet normal -4.230874903533006e-05 -0.995767247419022 0.09191075659308788
  outer loop
    vertex 7.169479564387041 0.5788224406393119 0.9916879759247167
    vertex 0.29376566629597184 0.48766948859390474 0.0014760356718904353
    vertex 7.168664830590738 0.48766948859390474 -0.004148594774636832
  endloop
endfacet
facet normal -4.230874903533006e-05 -0.995767247419022 0.09191075659308788
  outer loop
    vertex 0.29376566629597184 0.48766948859390474 0.0014760356718904353
    vertex 7.169479564387041 0.5788224406393119 0.9916879759247167
    vertex 0.306748582336913 0.5788224406393119 0.9667325213601503
  endloop
endfacet
facet normal -4.230874903533006e-05 -0.995767247419022 0.09191075659308788
  outer loop
    vertex 0.306748582336913 0.5788224406393119 0.9667325213601503
    vertex 7.169479564387041 0.5788224406393119 0.9916879759247167
    vertex 0.29458040009227404 0.5788224406393119 0.9973126063712443
  endloop
endfacet
facet normal -0.023891463361869647 -0.015857632933669135 -0.9995887821780363
  outer loop
    vertex 3.4709590519699 6.30662338225593 -0.011667204820183026
    vertex 7.143420774992061 0.5611909740510487 -0.00478931392853656
    vertex 2.708866396198506 7.433190409822922 -0.007039103472903754
  endloop
endfacet
facet normal -0.023891463361869647 -0.015857632933669135 -0.9995887821780363
  outer loop
    vertex 7.143420774992061 0.5611909740510487 -0.00478931392853656
    vertex 3.4709590519699 6.30662338225593 -0.011667204820183026
    vertex 7.274868086570388 0.6838474627677598 -0.010397039913360474
  endloop
endfacet
facet normal -0.023891463361869647 -0.015857632933669135 -0.9995887821780363
  outer loop
    vertex 7.143420774992061 0.5611909740510487 -0.00478931392853656
    vertex 7.274868086570388 0.6838474627677598 -0.010397039913360474
    vertex 7.170050751819237 0.5793140501412098 -0.008311740107750225
  endloop
endfacet
facet normal 0.8278535307495314 0.5600546013849738 -0.03158124590722862
  outer loop
    vertex 3.4709590519699 6.30662338225593 -0.011667204820183026
    vertex 7.300926875965368 0.7014789293560229 0.986080249939893
    vertex 7.274868086570388 0.6838474627677598 -0.010397039913360474
  endloop
endfacet
facet normal 0.8278535307495314 0.5600546013849738 -0.03158124590722862
  outer loop
    vertex 7.300926875965368 0.7014789293560229 0.986080249939893
    vertex 3.4709590519699 6.30662338225593 -0.011667204820183026
    vertex 2.6483390068461317 7.578822440639309 0.9860633454781874
  endloop
endfacet
facet normal 0.8278535307495314 0.5600546013849738 -0.03158124590722862
  outer loop
    vertex 2.6483390068461317 7.578822440639309 0.9860633454781874
    vertex 3.4709590519699 6.30662338225593 -0.011667204820183026
    vertex 2.708866396198506 7.433190409822922 -0.007039103472903754
  endloop
endfacet
facet normal 0.8278535307495314 0.5600546013849738 -0.03158124590722862
  outer loop
    vertex 2.6483390068461317 7.578822440639309 0.9860633454781874
    vertex 2.708866396198506 7.433190409822922 -0.007039103472903754
    vertex 2.6222802174511526 7.561190974051046 -0.010413944375065766
  endloop
endfacet
facet normal 0.685868157482531 -0.7277173809949044 -0.0035048465636984055
  outer loop
    vertex 7.300926875965368 0.7014789293560229 0.986080249939893
    vertex 7.170050751819237 0.5793140501412098 -0.008311740107750225
    vertex 7.274868086570388 0.6838474627677598 -0.010397039913360474
  endloop
endfacet
facet normal 0.685868157482531 -0.7277173809949044 -0.0035048465636984055
  outer loop
    vertex 7.170050751819237 0.5793140501412098 -0.008311740107750225
    vertex 7.300926875965368 0.7014789293560229 0.986080249939893
    vertex 7.143420774992061 0.5611909740510487 -0.00478931392853656
  endloop
endfacet
facet normal 0.685868157482531 -0.7277173809949044 -0.0035048465636984055
  outer loop
    vertex 7.143420774992061 0.5611909740510487 -0.00478931392853656
    vertex 7.300926875965368 0.7014789293560229 0.986080249939893
    vertex 7.169479564387041 0.5788224406393119 0.9916879759247167
  endloop
endfacet
facet normal -0.8396972697356094 -0.5421900254281061 0.030634482610819146
  outer loop
    vertex 7.169479564387041 0.5788224406393119 0.9916879759247167
    vertex 2.708866396198506 7.433190409822922 -0.007039103472903754
    vertex 7.143420774992061 0.5611909740510487 -0.00478931392853656
  endloop
endfacet
facet normal -0.8396972697356094 -0.5421900254281061 0.030634482610819146
  outer loop
    vertex 2.708866396198506 7.433190409822922 -0.007039103472903754
    vertex 7.169479564387041 0.5788224406393119 0.9916879759247167
    vertex 2.6483390068461317 7.578822440639309 0.9860633454781874
  endloop
endfacet
facet normal -0.8396972697356094 -0.5421900254281061 0.030634482610819146
  outer loop
    vertex 2.708866396198506 7.433190409822922 -0.007039103472903754
    vertex 2.6483390068461317 7.578822440639309 0.9860633454781874
    vertex 2.6222802174511526 7.561190974051046 -0.010413944375065766
  endloop
endfacet
facet normal -0.0010953474034791854 2.398729401274161e-15 -0.9999994001068527
  outer loop
    vertex 7.30649615675395 7.445788484713458 -0.013936654521086519
    vertex 7.30649615675395 7.288638961070192 -0.013936654521086871
    vertex 2.7456532481617915 7.435018730535289 -0.008940944086591162
  endloop
endfacet
facet normal -0.0010953474034791854 2.398729401274161e-15 -0.9999994001068527
  outer loop
    vertex 7.30649615675395 7.288638961070192 -0.013936654521086871
    vertex 7.30649615675395 7.445788484713458 -0.013936654521086519
    vertex 7.30649615675395 7.39237429668759 -0.013936654521086519
  endloop
endfacet
facet normal 0.9999992347826583 -0.0011183070799588538 -0.0005289833390992317
  outer loop
    vertex 7.30649615675395 7.39237429668759 -0.013936654521086519
    vertex 7.306496269096226 7.44578968287668 0.9860633454781894
    vertex 7.304757506363859 7.323701411653753 0.14589899607581938
  endloop
endfacet
facet normal 0.9999992347826583 -0.0011183070799588538 -0.0005289833390992317
  outer loop
    vertex 7.306496269096226 7.44578968287668 0.9860633454781894
    vertex 7.30649615675395 7.39237429668759 -0.013936654521086519
    vertex 7.30649615675395 7.445788484713458 -0.013936654521086519
  endloop
endfacet
facet normal 0.9999992347826583 -0.0011183070799588538 -0.0005289833390992317
  outer loop
    vertex 7.306496269096226 7.44578968287668 0.9860633454781894
    vertex 7.30649615675395 7.445788484713458 -0.013936654521086519
    vertex 7.304724154907871 7.445839169569468 0.05185394126629001
  endloop
endfacet
facet normal 0.9999992347826583 -0.0011183070799588538 -0.0005289833390992317
  outer loop
    vertex 7.306496269096226 7.44578968287668 0.9860633454781894
    vertex 7.304724154907871 7.445839169569468 0.05185394126629001
    vertex 7.306748582336903 7.578822440639309 0.9667325213601587
  endloop
endfacet
facet normal -0.029361406690693686 -0.9887947933164001 0.14636517518699937
  outer loop
    vertex 7.304757506363859 7.323701411653753 0.14589899607581938
    vertex 2.7456532481617915 7.435018730535289 -0.008940944086591162
    vertex 7.30649615675395 7.288638961070192 -0.013936654521086871
  endloop
endfacet
facet normal -0.029361406690693686 -0.9887947933164001 0.14636517518699937
  outer loop
    vertex 2.7456532481617915 7.435018730535289 -0.008940944086591162
    vertex 7.304757506363859 7.323701411653753 0.14589899607581938
    vertex 2.708866396198506 7.433190409822922 -0.007039103472903754
  endloop
endfacet
facet normal -0.029361406690693686 -0.9887947933164001 0.14636517518699937
  outer loop
    vertex 2.708866396198506 7.433190409822922 -0.007039103472903754
    vertex 7.304757506363859 7.323701411653753 0.14589899607581938
    vertex 2.6442325026204916 7.435032724460842 -0.003536398935866486
  endloop
endfacet
facet normal -0.029361406690693686 -0.9887947933164001 0.14636517518699937
  outer loop
    vertex 2.6442325026204916 7.435032724460842 -0.003536398935866486
    vertex 7.304757506363859 7.323701411653753 0.14589899607581938
    vertex 2.6483390068461317 7.578822440639309 0.9860633454781874
  endloop
endfacet
facet normal -0.029361406690693686 -0.9887947933164001 0.14636517518699937
  outer loop
    vertex 2.6483390068461317 7.578822440639309 0.9860633454781874
    vertex 7.304757506363859 7.323701411653753 0.14589899607581938
    vertex 7.306496269096226 7.44578968287668 0.9860633454781894
  endloop
endfacet
facet normal -0.0013481627802289858 0.9899298803746608 -0.14155216140535518
  outer loop
    vertex 2.7456532481617915 7.435018730535289 -0.008940944086591162
    vertex 7.304724154907871 7.445839169569468 0.05185394126629001
    vertex 7.30649615675395 7.445788484713458 -0.013936654521086519
  endloop
endfacet
facet normal -0.0013481627802289858 0.9899298803746608 -0.14155216140535518
  outer loop
    vertex 7.304724154907871 7.445839169569468 0.05185394126629001
    vertex 2.7456532481617915 7.435018730535289 -0.008940944086591162
    vertex 2.708866396198506 7.433190409822922 -0.007039103472903754
  endloop
endfacet
facet normal -0.0013481627802289858 0.9899298803746608 -0.14155216140535518
  outer loop
    vertex 7.304724154907871 7.445839169569468 0.05185394126629001
    vertex 2.708866396198506 7.433190409822922 -0.007039103472903754
    vertex 2.6442325026204916 7.435032724460842 -0.003536398935866486
  endloop
endfacet
facet normal -0.0013481627802289858 0.9899298803746608 -0.14155216140535518
  outer loop
    vertex 7.304724154907871 7.445839169569468 0.05185394126629001
    vertex 2.6442325026204916 7.435032724460842 -0.003536398935866486
    vertex 2.6483390068461317 7.578822440639309 0.9860633454781874
  endloop
endfacet
facet normal -0.0013481627802289858 0.9899298803746608 -0.14155216140535518
  outer loop
    vertex 7.304724154907871 7.445839169569468 0.05185394126629001
    vertex 2.6483390068461317 7.578822440639309 0.9860633454781874
    vertex 7.306748582336903 7.578822440639309 0.9667325213601587
  endloop
endfacet
endsolid hinge allow
