solid hinge allow
facet normal 1.0 3.143985642905845e-15 1.4483277175973388e-14
  outer loop
    vertex 7.306748582336898 2.372702440639309 4.856142521360148
    vertex 7.306748582336908 0.5788224406393119 4.466732521360157
    vertex 7.306748582336908 2.372702440639309 4.077322521360148
  endloop
endfacet
facet normal 0.9999936511455805 -0.0029907657396821313 -0.0019372632298321252
  outer loop
    vertex 7.306748582336898 2.372702440639309 4.856142521360148
    vertex 7.294580400092267 0.5788224406393119 4.497312606371242
    vertex 7.306748582336908 0.5788224406393119 4.466732521360157
  endloop
endfacet
facet normal 0.9999936511455805 -0.0029907657396821313 -0.0019372632298321252
  outer loop
    vertex 7.294580400092267 0.5788224406393119 4.497312606371242
    vertex 7.306748582336898 2.372702440639309 4.856142521360148
    vertex 7.306748582336903 1.2472624406393096 6.523982521360148
  endloop
endfacet
facet normal 0.9992977088481538 0.03338704757609872 -0.017011588549617245
  outer loop
    vertex 7.306748582336903 1.2472624406393096 6.523982521360148
    vertex 7.306748582336908 0.7501224406393159 5.548292521360159
    vertex 7.294580400092267 0.5788224406393119 4.497312606371242
  endloop
endfacet
facet normal 1.0 -2.3299883018837507e-15 -4.9538295037700495e-15
  outer loop
    vertex 7.306748582336898 2.372702440639309 4.856142521360148
    vertex 7.306748582336908 2.0215724406393076 7.29829252136015
    vertex 7.306748582336903 1.2472624406393096 6.523982521360148
  endloop
endfacet
facet normal 1.0 -1.832005507426721e-14 -7.25286606818543e-15
  outer loop
    vertex 7.306748582336908 2.7106124406393173 5.55784252136016
    vertex 7.306748582336908 2.0215724406393076 7.29829252136015
    vertex 7.306748582336898 2.372702440639309 4.856142521360148
  endloop
endfacet
facet normal 1.0 -0.0 -0.0
  outer loop
    vertex 7.306748582336908 2.997262440639309 7.795432521360133
    vertex 7.306748582336908 2.0215724406393076 7.29829252136015
    vertex 7.306748582336908 2.7106124406393173 5.55784252136016
  endloop
endfacet
facet normal 0.999999987578636 0.00015760383333195975 1.9389118898303625e-06
  outer loop
    vertex 7.306496269096226 7.44578968287668 -0.013936654521810633
    vertex 7.306748582336898 5.784942440639306 4.856142521360148
    vertex 7.306748582336908 5.79400713747828 4.119321529861254
  endloop
endfacet
facet normal 1.0 -7.0639945015276195e-15 -3.603171607341954e-15
  outer loop
    vertex 7.306748582336908 7.578822440639309 4.469790529861265
    vertex 7.306748582336908 6.136072440639312 7.29829252136015
    vertex 7.306748582336898 5.784942440639306 4.856142521360148
  endloop
endfacet
facet normal 1.0 -0.0 -0.0
  outer loop
    vertex 7.306748582336908 7.578822440639309 4.469790529861265
    vertex 7.306748582336908 7.407522440639305 5.548292521360159
    vertex 7.306748582336908 6.136072440639312 7.29829252136015
  endloop
endfacet
facet normal 1.0 2.663604881390496e-14 1.9352231008251125e-14
  outer loop
    vertex 7.306748582336908 7.407522440639305 5.548292521360159
    vertex 7.306748582336903 6.910382440639311 6.523982521360148
    vertex 7.306748582336908 6.136072440639312 7.29829252136015
  endloop
endfacet
facet normal 1.0 1.8320055074267626e-14 -7.252866068185521e-15
  outer loop
    vertex 7.306748582336908 6.136072440639312 7.29829252136015
    vertex 7.306748582336908 5.447032440639309 5.55784252136016
    vertex 7.306748582336898 5.784942440639306 4.856142521360148
  endloop
endfacet
facet normal 1.0 -0.0 -0.0
  outer loop
    vertex 7.306748582336908 6.136072440639312 7.29829252136015
    vertex 7.306748582336908 5.160382440639317 7.795432521360133
    vertex 7.306748582336908 5.447032440639309 5.55784252136016
  endloop
endfacet
facet normal 1.0 -2.06324917646088e-14 -2.6431579352450704e-15
  outer loop
    vertex 7.306748582336908 5.447032440639309 5.55784252136016
    vertex 7.306748582336908 5.160382440639317 7.795432521360133
    vertex 7.306748582336898 4.838122440639314 6.043422521360146
  endloop
endfacet
facet normal 1.0 -9.908384313867187e-16 -6.255990740516882e-15
  outer loop
    vertex 7.306748582336908 5.160382440639317 7.795432521360133
    vertex 7.306748582336908 4.078822440639308 7.9667325213601465
    vertex 7.306748582336898 4.838122440639314 6.043422521360146
  endloop
endfacet
facet normal 1.0 2.301902492817331e-14 3.2228188371976012e-15
  outer loop
    vertex 7.306748582336898 4.838122440639314 6.043422521360146
    vertex 7.306748582336908 4.078822440639308 7.9667325213601465
    vertex 7.3067485823369145 4.078822440639308 6.216732521360148
  endloop
endfacet
facet normal 1.0 -2.3019024928173597e-14 3.2228188371975996e-15
  outer loop
    vertex 7.306748582336908 4.078822440639308 7.9667325213601465
    vertex 7.306748582336898 3.319522440639313 6.043422521360146
    vertex 7.3067485823369145 4.078822440639308 6.216732521360148
  endloop
endfacet
facet normal 1.0 9.908384313867282e-16 -6.255990740516882e-15
  outer loop
    vertex 7.306748582336908 4.078822440639308 7.9667325213601465
    vertex 7.306748582336908 2.997262440639309 7.795432521360133
    vertex 7.306748582336898 3.319522440639313 6.043422521360146
  endloop
endfacet
facet normal -1.0 1.7866636676705648e-14 1.0313861530531386e-14
  outer loop
    vertex 0.3067485823369355 2.997262440639309 7.795432521360132
    vertex 0.3067485823369073 2.7106124406393173 5.5578425213601585
    vertex 0.306748582336913 2.0215724406393076 7.298292521360146
  endloop
endfacet
facet normal -1.0 -1.2853090436272808e-14 -1.8480050958739225e-15
  outer loop
    vertex 0.3067485823369073 2.7106124406393173 5.5578425213601585
    vertex 0.306748582336913 2.372702440639309 4.856142521360152
    vertex 0.306748582336913 2.0215724406393076 7.298292521360146
  endloop
endfacet
facet normal -1.0 6.3682035650122855e-15 9.156142406415562e-16
  outer loop
    vertex 0.306748582336913 2.372702440639309 4.856142521360152
    vertex 0.3067485823369073 1.2472624406393096 6.5239825213601685
    vertex 0.306748582336913 2.0215724406393076 7.298292521360146
  endloop
endfacet
facet normal -1.0 -1.478720084977892e-14 3.535679498460055e-15
  outer loop
    vertex 0.30674858233686225 7.578822440639309 -0.003917556562563714
    vertex 0.306748582336913 4.838122440639314 2.890042521360151
    vertex 0.30674858233690594 5.457804638375134 3.487791529861273
  endloop
endfacet
facet normal -1.0 7.749135326412887e-15 1.7225242129368986e-14
  outer loop
    vertex 0.30674858233686225 7.578822440639309 -0.003917556562563714
    vertex 0.30674858233690594 5.457804638375134 3.487791529861273
    vertex 0.30674858233691865 5.784942440639306 4.077322521360155
  endloop
endfacet
facet normal -1.0 -1.4850586552707e-14 -7.566768747053416e-15
  outer loop
    vertex 0.3067485823369073 7.407522440639305 5.548292521360153
    vertex 0.306748582336913 6.136072440639312 7.298292521360146
    vertex 0.3067485823369073 6.910382440639311 6.5239825213601685
  endloop
endfacet
facet normal -1.0 -3.374012406803585e-15 7.714542231230822e-16
  outer loop
    vertex 0.30674858233690594 7.578822440639309 4.469790529861262
    vertex 0.306748582336913 6.136072440639312 7.298292521360146
    vertex 0.3067485823369073 7.407522440639305 5.548292521360153
  endloop
endfacet
facet normal -1.0 -3.811941405679332e-15 5.480773031043171e-16
  outer loop
    vertex 0.30674858233690594 7.578822440639309 4.469790529861262
    vertex 0.306748582336913 5.784942440639306 4.856142521360152
    vertex 0.306748582336913 6.136072440639312 7.298292521360146
  endloop
endfacet
facet normal -1.0 -1.82572995345226e-15 9.770302316357147e-15
  outer loop
    vertex 0.30674858233686225 7.578822440639309 -0.003917556562563714
    vertex 0.306748582336913 5.784942440639306 4.856142521360152
    vertex 0.30674858233690594 7.578822440639309 4.469790529861262
  endloop
endfacet
facet normal -1.0 -4.7915242539123406e-14 -7.24163858798704e-15
  outer loop
    vertex 0.30674858233686225 7.578822440639309 -0.003917556562563714
    vertex 0.30674858233691865 5.784942440639306 4.077322521360155
    vertex 0.306748582336913 5.784942440639306 4.856142521360152
  endloop
endfacet
facet normal -1.0 -2.3754632372760048e-14 -6.4456376743952355e-15
  outer loop
    vertex 0.306748582336913 4.838122440639314 6.043422521360152
    vertex 0.3067485823369299 4.078822440639308 6.216732521360152
    vertex 0.30674858233691865 4.078822440639308 7.966732521360141
  endloop
endfacet
facet normal -1.0 1.718271749476721e-14 9.715943014320481e-15
  outer loop
    vertex 0.3067485823369355 5.160382440639317 7.795432521360132
    vertex 0.306748582336913 4.838122440639314 6.043422521360152
    vertex 0.30674858233691865 4.078822440639308 7.966732521360141
  endloop
endfacet
facet normal -1.0 8.774104075640753e-16 1.2715097278235758e-14
  outer loop
    vertex 0.3067485823369073 5.447032440639309 5.5578425213601585
    vertex 0.306748582336913 4.838122440639314 6.043422521360152
    vertex 0.3067485823369355 5.160382440639317 7.795432521360132
  endloop
endfacet
facet normal -1.0 -1.7866636676705783e-14 1.0313861530531368e-14
  outer loop
    vertex 0.306748582336913 6.136072440639312 7.298292521360146
    vertex 0.3067485823369073 5.447032440639309 5.5578425213601585
    vertex 0.3067485823369355 5.160382440639317 7.795432521360132
  endloop
endfacet
facet normal -1.0 1.2853090436273106e-14 -1.8480050958739876e-15
  outer loop
    vertex 0.306748582336913 6.136072440639312 7.298292521360146
    vertex 0.306748582336913 5.784942440639306 4.856142521360152
    vertex 0.3067485823369073 5.447032440639309 5.5578425213601585
  endloop
endfacet
facet normal -1.0 -8.77410407564074e-16 1.2715097278235758e-14
  outer loop
    vertex 0.306748582336913 3.319522440639313 6.043422521360152
    vertex 0.3067485823369073 2.7106124406393173 5.5578425213601585
    vertex 0.3067485823369355 2.997262440639309 7.795432521360132
  endloop
endfacet
facet normal -1.0 -1.7182717494767365e-14 9.715943014320454e-15
  outer loop
    vertex 0.30674858233691865 4.078822440639308 7.966732521360141
    vertex 0.306748582336913 3.319522440639313 6.043422521360152
    vertex 0.3067485823369355 2.997262440639309 7.795432521360132
  endloop
endfacet
facet normal -1.0 2.375463237276035e-14 -6.445637674395232e-15
  outer loop
    vertex 0.3067485823369299 4.078822440639308 6.216732521360152
    vertex 0.306748582336913 3.319522440639313 6.043422521360152
    vertex 0.30674858233691865 4.078822440639308 7.966732521360141
  endloop
endfacet
facet normal -0.0 1.0 -0.0
  outer loop
    vertex 7.306748582336908 7.578822440639309 4.469790529861265
    vertex 0.30674858233686225 7.578822440639309 -0.003917556562563714
    vertex 0.30674858233690594 7.578822440639309 4.469790529861262
  endloop
endfacet
facet normal 7.899503784852854e-17 -0.9009743439076292 -0.43387236789200695
  outer loop
    vertex 7.306748582336908 5.447032440639309 5.55784252136016
    vertex 0.3067485823369073 5.447032440639309 5.5578425213601585
    vertex 0.306748582336913 5.784942440639306 4.856142521360152
  endloop
endfacet
facet normal 1.4792921666392965e-16 -0.623482329045589 -0.7818374417792282
  outer loop
    vertex 7.306748582336908 5.447032440639309 5.55784252136016
    vertex 7.306748582336898 4.838122440639314 6.043422521360146
    vertex 0.3067485823369073 5.447032440639309 5.5578425213601585
  endloop
endfacet
facet normal -6.258543781935478e-16 -0.6234823290455942 -0.7818374417792239
  outer loop
    vertex 7.306748582336898 4.838122440639314 6.043422521360146
    vertex 0.306748582336913 4.838122440639314 6.043422521360152
    vertex 0.3067485823369073 5.447032440639309 5.5578425213601585
  endloop
endfacet
facet normal -7.824914481348776e-16 -0.22252670633459945 -0.9749265946561696
  outer loop
    vertex 7.3067485823369145 4.078822440639308 6.216732521360148
    vertex 0.306748582336913 4.838122440639314 6.043422521360152
    vertex 7.306748582336898 4.838122440639314 6.043422521360146
  endloop
endfacet
facet normal -5.885795732326488e-16 -0.2225267063345978 -0.9749265946561699
  outer loop
    vertex 7.3067485823369145 4.078822440639308 6.216732521360148
    vertex 0.3067485823369299 4.078822440639308 6.216732521360152
    vertex 0.306748582336913 4.838122440639314 6.043422521360152
  endloop
endfacet
facet normal -2.616710628732483e-16 -0.9009743439076306 -0.43387236789200423
  outer loop
    vertex 7.306748582336908 5.447032440639309 5.55784252136016
    vertex 0.306748582336913 5.784942440639306 4.856142521360152
    vertex 7.306748582336898 5.784942440639306 4.856142521360148
  endloop
endfacet
facet normal 0.0 -1.0 0.0
  outer loop
    vertex 0.306748582336913 5.784942440639306 4.856142521360152
    vertex 0.30674858233691865 5.784942440639306 4.077322521360155
    vertex 7.306748582336898 5.784942440639306 4.856142521360148
  endloop
endfacet
facet normal 0.0013686647434037885 -0.9999233970094845 -0.012301498682399757
  outer loop
    vertex 7.306748582336898 5.784942440639306 4.856142521360148
    vertex 0.30674858233691865 5.784942440639306 4.077322521360155
    vertex 7.306748582336908 5.79400713747828 4.119321529861254
  endloop
endfacet
facet normal -0.0017789004854561496 -0.8743946905939451 0.48521207793518684
  outer loop
    vertex 7.306748582336908 5.79400713747828 4.119321529861254
    vertex 0.30674858233691865 5.784942440639306 4.077322521360155
    vertex 0.30674858233690594 5.457804638375134 3.487791529861273
  endloop
endfacet
facet normal 8.121546301927199e-16 -0.8827087476779701 0.4699204898414089
  outer loop
    vertex 7.306748582336908 5.79400713747828 4.119321529861254
    vertex 0.30674858233690594 5.457804638375134 3.487791529861273
    vertex 7.306748582336908 5.457804638375134 3.487791529861261
  endloop
endfacet
facet normal 1.2288750036437265e-15 -0.6942549155954426 0.7197291936357486
  outer loop
    vertex 7.306748582336908 5.457804638375134 3.487791529861261
    vertex 0.30674858233690594 5.457804638375134 3.487791529861273
    vertex 0.306748582336913 4.838122440639314 2.890042521360151
  endloop
endfacet
facet normal -1.147961423156915e-15 -0.6942549155954286 0.7197291936357619
  outer loop
    vertex 7.306748582336925 4.838122440639314 2.890042521360162
    vertex 7.306748582336908 5.457804638375134 3.487791529861261
    vertex 0.306748582336913 4.838122440639314 2.890042521360151
  endloop
endfacet
facet normal -1.5695455286203872e-15 -0.2225267063345874 0.974926594656172
  outer loop
    vertex 7.306748582336925 4.838122440639314 2.890042521360162
    vertex 0.306748582336913 4.838122440639314 2.890042521360151
    vertex 0.30674858233691865 4.078822440639308 2.7167325213601585
  endloop
endfacet
facet normal -5.817356247066853e-16 -0.22252670633459612 0.9749265946561702
  outer loop
    vertex 7.306748582336925 4.838122440639314 2.890042521360162
    vertex 0.30674858233691865 4.078822440639308 2.7167325213601585
    vertex 7.30674858233692 4.078822440639308 2.716732521360163
  endloop
endfacet
facet normal 0.011386355833517913 0.8517827525114439 0.523771413333012
  outer loop
    vertex 0.30674858233691865 2.372702440639309 4.077322521360155
    vertex 7.306748582336908 2.7106124406393173 3.375622521360155
    vertex 0.30674858233690594 2.7352121060564105 3.487791529861273
  endloop
endfacet
facet normal 0.015851985749611257 0.45799329856460425 0.8888142961371106
  outer loop
    vertex 7.306748582336925 3.341045208743212 3.050769529861269
    vertex 0.30674858233690594 2.7352121060564105 3.487791529861273
    vertex 7.306748582336908 2.7106124406393173 3.375622521360155
  endloop
endfacet
facet normal -1.1268173121769916e-15 0.5850293420341269 0.8110121262713132
  outer loop
    vertex 7.306748582336925 3.341045208743212 3.050769529861269
    vertex 0.306748582336913 3.341045208743212 3.050769529861259
    vertex 0.30674858233690594 2.7352121060564105 3.487791529861273
  endloop
endfacet
facet normal -1.2824663211264366e-15 0.4124555059207065 0.9109777470584526
  outer loop
    vertex 7.306748582336925 3.341045208743212 3.050769529861269
    vertex 7.30674858233692 4.078822440639308 2.716732521360163
    vertex 0.306748582336913 3.341045208743212 3.050769529861259
  endloop
endfacet
facet normal -5.418871779407511e-16 0.4124555059207008 0.9109777470584552
  outer loop
    vertex 7.30674858233692 4.078822440639308 2.716732521360163
    vertex 0.30674858233691865 4.078822440639308 2.7167325213601585
    vertex 0.306748582336913 3.341045208743212 3.050769529861259
  endloop
endfacet
facet normal 4.3940989803245473e-16 0.90097434390762 0.4338723678920258
  outer loop
    vertex 0.30674858233691865 2.372702440639309 4.077322521360155
    vertex 7.306748582336908 2.372702440639309 4.077322521360148
    vertex 7.306748582336908 2.7106124406393173 3.375622521360155
  endloop
endfacet
facet normal -0.0 1.0 -0.0
  outer loop
    vertex 0.306748582336913 2.372702440639309 4.856142521360152
    vertex 7.306748582336908 2.372702440639309 4.077322521360148
    vertex 0.30674858233691865 2.372702440639309 4.077322521360155
  endloop
endfacet
facet normal -0.0 1.0 -0.0
  outer loop
    vertex 0.306748582336913 2.372702440639309 4.856142521360152
    vertex 7.306748582336898 2.372702440639309 4.856142521360148
    vertex 7.306748582336908 2.372702440639309 4.077322521360148
  endloop
endfacet
facet normal -2.5673387300771736e-16 0.9009743439076234 -0.4338723678920187
  outer loop
    vertex 0.3067485823369073 2.7106124406393173 5.5578425213601585
    vertex 7.306748582336898 2.372702440639309 4.856142521360148
    vertex 0.306748582336913 2.372702440639309 4.856142521360152
  endloop
endfacet
facet normal 7.899503784852693e-17 0.9009743439076249 -0.43387236789201605
  outer loop
    vertex 7.306748582336908 2.7106124406393173 5.55784252136016
    vertex 7.306748582336898 2.372702440639309 4.856142521360148
    vertex 0.3067485823369073 2.7106124406393173 5.5578425213601585
  endloop
endfacet
facet normal 1.5361880192023372e-16 0.6234823290455942 -0.7818374417792239
  outer loop
    vertex 7.306748582336908 2.7106124406393173 5.55784252136016
    vertex 0.3067485823369073 2.7106124406393173 5.5578425213601585
    vertex 0.306748582336913 3.319522440639313 6.043422521360152
  endloop
endfacet
facet normal -6.201647929372464e-16 0.6234823290455888 -0.7818374417792282
  outer loop
    vertex 7.306748582336908 2.7106124406393173 5.55784252136016
    vertex 0.306748582336913 3.319522440639313 6.043422521360152
    vertex 7.306748582336898 3.319522440639313 6.043422521360146
  endloop
endfacet
facet normal -7.870540804855385e-16 0.2225267063346005 -0.9749265946561692
  outer loop
    vertex 7.306748582336898 3.319522440639313 6.043422521360146
    vertex 0.306748582336913 3.319522440639313 6.043422521360152
    vertex 0.3067485823369299 4.078822440639308 6.216732521360152
  endloop
endfacet
facet normal -5.862982570573428e-16 0.2225267063346023 -0.9749265946561689
  outer loop
    vertex 7.3067485823369145 4.078822440639308 6.216732521360148
    vertex 7.306748582336898 3.319522440639313 6.043422521360146
    vertex 0.3067485823369299 4.078822440639308 6.216732521360152
  endloop
endfacet
facet normal -8.45166359015563e-06 -0.9873510332810574 0.1585494781050934
  outer loop
    vertex 7.294580400092267 0.5788224406393119 4.497312606371242
    vertex 7.113673491538284 0.5811848522860111 4.496938442094568
    vertex 7.306748582336908 0.5788224406393119 4.466732521360157
  endloop
endfacet
facet normal -8.45166359015563e-06 -0.9873510332810574 0.1585494781050934
  outer loop
    vertex 7.113673491538284 0.5811848522860111 4.496938442094568
    vertex 7.294580400092267 0.5788224406393119 4.497312606371242
    vertex 0.3067485823369073 0.7501224406393159 5.548292521360153
  endloop
endfacet
facet normal -8.45166359015563e-06 -0.9873510332810574 0.1585494781050934
  outer loop
    vertex 0.3067485823369073 0.7501224406393159 5.548292521360153
    vertex 7.294580400092267 0.5788224406393119 4.497312606371242
    vertex 7.306748582336908 0.7501224406393159 5.548292521360159
  endloop
endfacet
facet normal -3.636552196696482e-16 -0.8910061126092786 0.4539913075080858
  outer loop
    vertex 0.3067485823369073 1.2472624406393096 6.5239825213601685
    vertex 0.3067485823369073 0.7501224406393159 5.548292521360153
    vertex 7.306748582336908 0.7501224406393159 5.548292521360159
  endloop
endfacet
facet normal 1.2879455696633993e-15 -0.8910061126092739 0.45399130750809535
  outer loop
    vertex 0.3067485823369073 1.2472624406393096 6.5239825213601685
    vertex 7.306748582336908 0.7501224406393159 5.548292521360159
    vertex 7.306748582336903 1.2472624406393096 6.523982521360148
  endloop
endfacet
facet normal 1.9856843518177824e-15 -0.7071067811865386 0.7071067811865565
  outer loop
    vertex 7.306748582336903 1.2472624406393096 6.523982521360148
    vertex 0.306748582336913 2.0215724406393076 7.298292521360146
    vertex 0.3067485823369073 1.2472624406393096 6.5239825213601685
  endloop
endfacet
facet normal -2.800324085896821e-16 -0.7071067811865488 0.7071067811865464
  outer loop
    vertex 7.306748582336908 2.0215724406393076 7.29829252136015
    vertex 0.306748582336913 2.0215724406393076 7.298292521360146
    vertex 7.306748582336903 1.2472624406393096 6.523982521360148
  endloop
endfacet
facet normal -3.5860445272980266e-16 -0.4539913075080847 0.8910061126092793
  outer loop
    vertex 7.306748582336908 2.0215724406393076 7.29829252136015
    vertex 0.3067485823369355 2.997262440639309 7.795432521360132
    vertex 0.306748582336913 2.0215724406393076 7.298292521360146
  endloop
endfacet
facet normal -1.8182760983483082e-16 -0.4539913075080838 0.8910061126092799
  outer loop
    vertex 7.306748582336908 2.997262440639309 7.795432521360133
    vertex 0.3067485823369355 2.997262440639309 7.795432521360132
    vertex 7.306748582336908 2.0215724406393076 7.29829252136015
  endloop
endfacet
facet normal -1.9592400186982333e-16 -0.15643243808699997 0.9876886616308588
  outer loop
    vertex 7.306748582336908 2.997262440639309 7.795432521360133
    vertex 0.30674858233691865 4.078822440639308 7.966732521360141
    vertex 0.3067485823369355 2.997262440639309 7.795432521360132
  endloop
endfacet
facet normal -7.950869378205578e-16 -0.15643243808700383 0.9876886616308581
  outer loop
    vertex 7.306748582336908 4.078822440639308 7.9667325213601465
    vertex 0.30674858233691865 4.078822440639308 7.966732521360141
    vertex 7.306748582336908 2.997262440639309 7.795432521360133
  endloop
endfacet
facet normal -7.928087517522905e-16 0.1564324380869987 0.987688661630859
  outer loop
    vertex 7.306748582336908 4.078822440639308 7.9667325213601465
    vertex 0.3067485823369355 5.160382440639317 7.795432521360132
    vertex 0.30674858233691865 4.078822440639308 7.966732521360141
  endloop
endfacet
facet normal -2.004803740063271e-16 0.15643243808700238 0.9876886616308583
  outer loop
    vertex 7.306748582336908 5.160382440639317 7.795432521360133
    vertex 0.3067485823369355 5.160382440639317 7.795432521360132
    vertex 7.306748582336908 4.078822440639308 7.9667325213601465
  endloop
endfacet
facet normal -1.717260759551201e-16 0.45399130750808736 0.8910061126092779
  outer loop
    vertex 7.306748582336908 5.160382440639317 7.795432521360133
    vertex 0.306748582336913 6.136072440639312 7.298292521360146
    vertex 0.3067485823369355 5.160382440639317 7.795432521360132
  endloop
endfacet
facet normal -3.6365521966966385e-16 0.45399130750808625 0.8910061126092784
  outer loop
    vertex 7.306748582336908 6.136072440639312 7.29829252136015
    vertex 0.306748582336913 6.136072440639312 7.298292521360146
    vertex 7.306748582336908 5.160382440639317 7.795432521360133
  endloop
endfacet
facet normal -2.8003240858968645e-16 0.7071067811865379 0.7071067811865571
  outer loop
    vertex 7.306748582336908 6.136072440639312 7.29829252136015
    vertex 0.3067485823369073 6.910382440639311 6.5239825213601685
    vertex 0.306748582336913 6.136072440639312 7.298292521360146
  endloop
endfacet
facet normal 1.9665912330502656e-15 0.707106781186548 0.7071067811865469
  outer loop
    vertex 7.306748582336908 6.136072440639312 7.29829252136015
    vertex 7.306748582336903 6.910382440639311 6.523982521360148
    vertex 0.3067485823369073 6.910382440639311 6.5239825213601685
  endloop
endfacet
facet normal 1.2828948027234835e-15 0.8910061126092786 0.4539913075080858
  outer loop
    vertex 0.3067485823369073 6.910382440639311 6.5239825213601685
    vertex 7.306748582336903 6.910382440639311 6.523982521360148
    vertex 0.3067485823369073 7.407522440639305 5.548292521360153
  endloop
endfacet
facet normal -3.5860445272980873e-16 0.8910061126092739 0.4539913075080953
  outer loop
    vertex 7.306748582336903 6.910382440639311 6.523982521360148
    vertex 7.306748582336908 7.407522440639305 5.548292521360159
    vertex 0.3067485823369073 7.407522440639305 5.548292521360153
  endloop
endfacet
facet normal -1.282940087658705e-16 0.9876200399361463 0.1568650908154023
  outer loop
    vertex 7.306748582336908 7.407522440639305 5.548292521360159
    vertex 0.30674858233690594 7.578822440639309 4.469790529861262
    vertex 0.3067485823369073 7.407522440639305 5.548292521360153
  endloop
endfacet
facet normal -6.643796882518261e-17 0.9876200399361466 0.156865090815402
  outer loop
    vertex 7.306748582336908 7.407522440639305 5.548292521360159
    vertex 7.306748582336908 7.578822440639309 4.469790529861265
    vertex 0.30674858233690594 7.578822440639309 4.469790529861262
  endloop
endfacet
facet normal -1.0 4.715978464358654e-15 -7.241638587986719e-15
  outer loop
    vertex 0.30674858233691865 2.372702440639309 4.077322521360155
    vertex 0.3067485823369073 0.5788224406393119 4.4667325213601545
    vertex 0.306748582336913 2.372702440639309 4.856142521360152
  endloop
endfacet
facet normal -0.9999936511455805 0.002990765739689556 0.0019372632298304032
  outer loop
    vertex 0.3067485823369073 1.2472624406393096 6.5239825213601685
    vertex 0.3067485823369073 0.5788224406393119 4.4667325213601545
    vertex 0.29458040009227404 0.5788224406393119 4.497312606371242
  endloop
endfacet
facet normal -0.9999936511455805 0.002990765739689556 0.0019372632298304032
  outer loop
    vertex 0.3067485823369073 0.5788224406393119 4.4667325213601545
    vertex 0.3067485823369073 1.2472624406393096 6.5239825213601685
    vertex 0.306748582336913 2.372702440639309 4.856142521360152
  endloop
endfacet
facet normal 1.0 2.063249176460879e-14 -2.64315793524507e-15
  outer loop
    vertex 7.306748582336898 3.319522440639313 6.043422521360146
    vertex 7.306748582336908 2.997262440639309 7.795432521360133
    vertex 7.306748582336908 2.7106124406393173 5.55784252136016
  endloop
endfacet
facet normal -0.9992977088481554 -0.033387047576060466 0.017011588549603072
  outer loop
    vertex 0.3067485823369073 1.2472624406393096 6.5239825213601685
    vertex 0.29458040009227404 0.5788224406393119 4.497312606371242
    vertex 0.3067485823369073 0.7501224406393159 5.548292521360153
  endloop
endfacet
facet normal -0.0 1.0 -0.0
  outer loop
    vertex 7.306748582336908 0.5788224406393119 4.466732521360157
    vertex 0.29458040009227404 0.5788224406393119 4.26777079038912
    vertex 0.3067485823369073 0.5788224406393119 4.4667325213601545
  endloop
endfacet
facet normal 0.00035075549718457195 -0.9869765232338916 0.1608639784281132
  outer loop
    vertex 0.3067485823369073 0.7501224406393159 5.548292521360153
    vertex 0.29458040009227404 0.5788224406393119 4.497312606371242
    vertex 7.113673491538284 0.5811848522860111 4.496938442094568
  endloop
endfacet
facet normal 0.9999999962254682 -2.3449952091107557e-21 -8.688534747160153e-05
  outer loop
    vertex 7.306496269096226 7.288640159233413 -0.01393665452181081
    vertex 7.306748582336925 4.838122440639314 2.890042521360162
    vertex 7.306496269096226 1.0297924086008292 -0.013936654521810633
  endloop
endfacet
facet normal 0.9980990977571481 -0.05409708773853405 0.029524500920015948
  outer loop
    vertex 7.306748582336908 2.7106124406393173 3.375622521360155
    vertex 7.301011788886403 0.7548632085673024 -0.013916550142225769
    vertex 7.306496269096226 0.8560416898151699 -0.013936654521810633
  endloop
endfacet
facet normal 0.9999999978664602 -2.9921203995551347e-05 -5.806721174387496e-05
  outer loop
    vertex 7.306748582336925 3.341045208743212 3.050769529861269
    vertex 7.306748582336908 2.7106124406393173 3.375622521360155
    vertex 7.306496269096226 0.8560416898151699 -0.013936654521810633
  endloop
endfacet
facet normal -0.998172543415608 0.053275680433974806 -0.028517984597671263
  outer loop
    vertex 0.30674858233690594 2.7352121060564105 3.487791529861273
    vertex 0.30649626909623356 0.8560416898151756 -0.01393665452181081
    vertex 0.3008984476360676 0.7511714165157718 -0.013917139918458731
  endloop
endfacet
facet normal -0.9999999979487957 3.7471157269936854e-05 5.194536536618328e-05
  outer loop
    vertex 0.306748582336913 3.341045208743212 3.050769529861259
    vertex 0.30649626909623356 0.8560416898151756 -0.01393665452181081
    vertex 0.30674858233690594 2.7352121060564105 3.487791529861273
  endloop
endfacet
facet normal -0.9980474312705222 0.013250157730636015 0.061038989624873745
  outer loop
    vertex 0.30674858233691865 2.372702440639309 4.077322521360155
    vertex 0.29458040009227404 0.5788224406393119 4.26777079038912
    vertex 0.3067485823369073 0.5788224406393119 4.4667325213601545
  endloop
endfacet
facet normal -0.999976995136903 0.006783007958881275 0.0
  outer loop
    vertex 0.30674858233691865 2.372702440639309 4.077322521360155
    vertex 0.29458040009227404 0.5788224406393119 -0.0026873936287557455
    vertex 0.29458040009227404 0.5788224406393119 4.26777079038912
  endloop
endfacet
facet normal -0.9986170302643549 0.049160123568100865 -0.018636231292023468
  outer loop
    vertex 0.30674858233691865 2.372702440639309 4.077322521360155
    vertex 0.3008281775135146 0.7014789293560229 -0.013919750060106576
    vertex 0.29458040009227404 0.5788224406393119 -0.0026873936287557455
  endloop
endfacet
facet normal 0.9999999977772711 -2.7107775053340473e-05 -6.091491123171242e-05
  outer loop
    vertex 7.306496269096226 0.9727529464753638 -0.013936654521810633
    vertex 7.306748582336925 3.341045208743212 3.050769529861269
    vertex 7.306496269096226 0.8560416898151699 -0.013936654521810633
  endloop
endfacet
facet normal 0.9999999977772711 -2.7107775053340473e-05 -6.091491123171242e-05
  outer loop
    vertex 7.306748582336925 3.341045208743212 3.050769529861269
    vertex 7.306496269096226 0.9727529464753638 -0.013936654521810633
    vertex 7.30674858233692 4.078822440639308 2.716732521360163
  endloop
endfacet
facet normal 0.9999978308686495 -0.0006626597251939251 -0.001974624036271209
  outer loop
    vertex 7.300926875965368 0.7014789293560229 -0.013919750060107105
    vertex 7.306748582336908 0.5788224406393119 4.466732521360157
    vertex 7.294580400092267 0.5788224406393119 -0.0026873936287557455
  endloop
endfacet
facet normal 0.9999978308686495 -0.0006626597251939251 -0.001974624036271209
  outer loop
    vertex 7.306748582336908 0.5788224406393119 4.466732521360157
    vertex 7.300926875965368 0.7014789293560229 -0.013919750060107105
    vertex 7.306748582336908 2.372702440639309 4.077322521360148
  endloop
endfacet
facet normal 0.9999999919146109 2.808815629793208e-05 -0.00012402352092106842
  outer loop
    vertex 7.306496269096226 1.0297924086008292 -0.013936654521810633
    vertex 7.30674858233692 4.078822440639308 2.716732521360163
    vertex 7.306496269096226 0.9727529464753638 -0.013936654521810633
  endloop
endfacet
facet normal 0.9999999919146109 2.808815629793208e-05 -0.00012402352092106842
  outer loop
    vertex 7.30674858233692 4.078822440639308 2.716732521360163
    vertex 7.306496269096226 1.0297924086008292 -0.013936654521810633
    vertex 7.306748582336925 4.838122440639314 2.890042521360162
  endloop
endfacet
facet normal -0.9999999919146109 -2.808815631677495e-05 0.0001240235209391866
  outer loop
    vertex 0.30674858233691865 4.078822440639308 2.7167325213601585
    vertex 0.30649626909623356 1.029792408600846 -0.013936654521810457
    vertex 0.30649626909623356 0.9727529464753694 -0.013936654521810633
  endloop
endfacet
facet normal -0.9999999919146109 -2.808815631677495e-05 0.0001240235209391866
  outer loop
    vertex 0.30649626909623356 1.029792408600846 -0.013936654521810457
    vertex 0.30674858233691865 4.078822440639308 2.7167325213601585
    vertex 0.306748582336913 4.838122440639314 2.890042521360151
  endloop
endfacet
facet normal -0.9999986222938204 0.0014140025478093904 0.0008694867773316556
  outer loop
    vertex 0.30674858233691865 2.372702440639309 4.077322521360155
    vertex 0.3008984476360676 0.7511714165157718 -0.013917139918458731
    vertex 0.3008281775135146 0.7014789293560229 -0.013919750060106576
  endloop
endfacet
facet normal -0.9999986222938204 0.0014140025478093904 0.0008694867773316556
  outer loop
    vertex 0.3008984476360676 0.7511714165157718 -0.013917139918458731
    vertex 0.30674858233691865 2.372702440639309 4.077322521360155
    vertex 0.30674858233690594 2.7352121060564105 3.487791529861273
  endloop
endfacet
facet normal 0.9999999978337784 4.5299115338748624e-05 -4.7753886920642725e-05
  outer loop
    vertex 7.306496269096226 7.288640159233413 -0.01393665452181081
    vertex 7.306748582336908 5.457804638375134 3.487791529861261
    vertex 7.306748582336925 4.838122440639314 2.890042521360162
  endloop
endfacet
facet normal 0.9999999978337784 4.5299115338748624e-05 -4.7753886920642725e-05
  outer loop
    vertex 7.306748582336908 5.457804638375134 3.487791529861261
    vertex 7.306496269096226 7.288640159233413 -0.01393665452181081
    vertex 7.306496269096226 7.392375494850811 -0.013936654521810457
  endloop
endfacet
facet normal -0.0 1.0 -0.0
  outer loop
    vertex 0.29458040009227404 0.5788224406393119 -0.0026873936287557455
    vertex 7.294580400092267 0.5788224406393119 -0.0026873936287557455
    vertex 7.169479564387041 0.5788224406393119 -0.008312024075283189
  endloop
endfacet
facet normal -0.0 1.0 -0.0
  outer loop
    vertex 7.294580400092267 0.5788224406393119 -0.0026873936287557455
    vertex 0.29458040009227404 0.5788224406393119 -0.0026873936287557455
    vertex 0.29458040009227404 0.5788224406393119 4.26777079038912
  endloop
endfacet
facet normal -0.0 1.0 -0.0
  outer loop
    vertex 7.294580400092267 0.5788224406393119 -0.0026873936287557455
    vertex 0.29458040009227404 0.5788224406393119 4.26777079038912
    vertex 7.306748582336908 0.5788224406393119 4.466732521360157
  endloop
endfacet
facet normal -0.9999999977772711 2.7107775062338243e-05 6.09149112181639e-05
  outer loop
    vertex 0.306748582336913 3.341045208743212 3.050769529861259
    vertex 0.30649626909623356 0.9727529464753694 -0.013936654521810633
    vertex 0.30649626909623356 0.8560416898151756 -0.01393665452181081
  endloop
endfacet
facet normal -0.9999999977772711 2.7107775062338243e-05 6.09149112181639e-05
  outer loop
    vertex 0.30649626909623356 0.9727529464753694 -0.013936654521810633
    vertex 0.306748582336913 3.341045208743212 3.050769529861259
    vertex 0.30674858233691865 4.078822440639308 2.7167325213601585
  endloop
endfacet
facet normal 0.9999999994069915 -1.695149988108898e-05 -2.9977726519790862e-05
  outer loop
    vertex 7.306496269096226 7.44578968287668 -0.013936654521810633
    vertex 7.306748582336908 7.578822440639309 4.469790529861265
    vertex 7.306748582336898 5.784942440639306 4.856142521360148
  endloop
endfacet
facet normal 0.9999999994069915 -1.695149988108898e-05 -2.9977726519790862e-05
  outer loop
    vertex 7.306748582336908 7.578822440639309 4.469790529861265
    vertex 7.306496269096226 7.44578968287668 -0.013936654521810633
    vertex 7.306748582336903 7.578822440639309 -0.03326747863984127
  endloop
endfacet
facet normal 0.99999999723192 6.548335965687505e-05 -3.5328310886893395e-05
  outer loop
    vertex 7.306496269096226 7.392375494850811 -0.013936654521810457
    vertex 7.306748582336908 5.79400713747828 4.119321529861254
    vertex 7.306748582336908 5.457804638375134 3.487791529861261
  endloop
endfacet
facet normal 0.99999999723192 6.548335965687505e-05 -3.5328310886893395e-05
  outer loop
    vertex 7.306748582336908 5.79400713747828 4.119321529861254
    vertex 7.306496269096226 7.392375494850811 -0.013936654521810457
    vertex 7.306496269096226 7.44578968287668 -0.013936654521810633
  endloop
endfacet
facet normal 0.9999984255692392 -0.0015987619775660962 -0.0007699475187118601
  outer loop
    vertex 7.301011788886403 0.7548632085673024 -0.013916550142225769
    vertex 7.306748582336908 2.372702440639309 4.077322521360148
    vertex 7.300926875965368 0.7014789293560229 -0.013919750060107105
  endloop
endfacet
facet normal 0.9999984255692392 -0.0015987619775660962 -0.0007699475187118601
  outer loop
    vertex 7.306748582336908 2.372702440639309 4.077322521360148
    vertex 7.301011788886403 0.7548632085673024 -0.013916550142225769
    vertex 7.306748582336908 2.7106124406393173 3.375622521360155
  endloop
endfacet
facet normal -0.0041065042256399195 -0.1437897161784665 -0.9895997444140539
  outer loop
    vertex 7.306748582336903 7.578822440639309 -0.03326747863984127
    vertex 7.306496269096226 7.44578968287668 -0.013936654521810633
    vertex 2.6483390068461317 7.578822440639309 -0.013936654521812484
  endloop
endfacet
facet normal -0.0008147337963022533 -0.09115295204540713 -0.9958365706993537
  outer loop
    vertex 7.169479564387041 0.5788224406393119 -0.008312024075283189
    vertex 0.29458040009227404 0.5788224406393119 -0.0026873936287557455
    vertex 0.3008281775135146 0.7014789293560229 -0.013919750060106576
  endloop
endfacet
facet normal -0.026137885761914656 -0.017684983462348737 -0.9995019020931543
  outer loop
    vertex 7.300926875965368 0.7014789293560229 -0.013919750060107105
    vertex 7.169479564387041 0.5788224406393119 -0.008312024075283189
    vertex 2.6483390068461317 7.578822440639309 -0.013936654521812484
  endloop
endfacet
facet normal 0.04471907096175008 -0.09339727019634263 -0.9946241273024646
  outer loop
    vertex 7.300926875965368 0.7014789293560229 -0.013919750060107105
    vertex 7.294580400092267 0.5788224406393119 -0.0026873936287557455
    vertex 7.169479564387041 0.5788224406393119 -0.008312024075283189
  endloop
endfacet
facet normal 0.0005711874321961922 0.0004916095018979997 -0.9999997160324672
  outer loop
    vertex 0.30674858233686225 7.578822440639309 -0.003917556562563714
    vertex 0.30649626909623356 1.029792408600846 -0.013936654521810457
    vertex 0.30649626909623356 5.361030770354832 -0.013936654521810633
  endloop
endfacet
facet normal 0.0005711874321961922 0.0004916095018979997 -0.9999997160324672
  outer loop
    vertex 0.30649626909623356 1.029792408600846 -0.013936654521810457
    vertex 0.30674858233686225 7.578822440639309 -0.003917556562563714
    vertex 0.30649626909623356 0.9727529464753694 -0.013936654521810633
  endloop
endfacet
facet normal 0.0005711874321961922 0.0004916095018979997 -0.9999997160324672
  outer loop
    vertex 0.30649626909623356 0.9727529464753694 -0.013936654521810633
    vertex 0.30674858233686225 7.578822440639309 -0.003917556562563714
    vertex 0.30649626909623356 0.8560416898151756 -0.01393665452181081
  endloop
endfacet
facet normal 0.0005711874321961922 0.0004916095018979997 -0.9999997160324672
  outer loop
    vertex 0.3008984476360676 0.7511714165157718 -0.013917139918458731
    vertex 7.169479564387041 0.5788224406393119 -0.008312024075283189
    vertex 0.3008281775135146 0.7014789293560229 -0.013919750060106576
  endloop
endfacet
facet normal 0.0005711874321961922 0.0004916095018979997 -0.9999997160324672
  outer loop
    vertex 7.169479564387041 0.5788224406393119 -0.008312024075283189
    vertex 0.3008984476360676 0.7511714165157718 -0.013917139918458731
    vertex 0.30649626909623356 0.8560416898151756 -0.01393665452181081
  endloop
endfacet
facet normal 0.0005711874321961922 0.0004916095018979997 -0.9999997160324672
  outer loop
    vertex 7.169479564387041 0.5788224406393119 -0.008312024075283189
    vertex 0.30649626909623356 0.8560416898151756 -0.01393665452181081
    vertex 0.30674858233686225 7.578822440639309 -0.003917556562563714
  endloop
endfacet
facet normal 0.0005711874321961922 0.0004916095018979997 -0.9999997160324672
  outer loop
    vertex 7.169479564387041 0.5788224406393119 -0.008312024075283189
    vertex 0.30674858233686225 7.578822440639309 -0.003917556562563714
    vertex 2.6483390068461317 7.578822440639309 -0.013936654521812484
  endloop
endfacet
facet normal -0.0 1.0 -0.0
  outer loop
    vertex 2.6483390068461317 7.578822440639309 -0.013936654521812484
    vertex 7.306748582336908 7.578822440639309 4.469790529861265
    vertex 7.306748582336903 7.578822440639309 -0.03326747863984127
  endloop
endfacet
facet normal -0.0 1.0 -0.0
  outer loop
    vertex 7.306748582336908 7.578822440639309 4.469790529861265
    vertex 2.6483390068461317 7.578822440639309 -0.013936654521812484
    vertex 0.30674858233686225 7.578822440639309 -0.003917556562563714
  endloop
endfacet
facet normal -1.1234227602904096e-07 -1.1981632219371838e-06 -0.9999999999992759
  outer loop
    vertex 7.306496269096226 7.44578968287668 -0.013936654521810633
    vertex 7.300926875965368 0.7014789293560229 -0.013919750060107105
    vertex 2.6483390068461317 7.578822440639309 -0.013936654521812484
  endloop
endfacet
facet normal -1.1234227602904096e-07 -1.1981632219371838e-06 -0.9999999999992759
  outer loop
    vertex 7.300926875965368 0.7014789293560229 -0.013919750060107105
    vertex 7.306496269096226 7.44578968287668 -0.013936654521810633
    vertex 7.301011788886403 0.7548632085673024 -0.013916550142225769
  endloop
endfacet
facet normal -1.1234227602904096e-07 -1.1981632219371838e-06 -0.9999999999992759
  outer loop
    vertex 7.301011788886403 0.7548632085673024 -0.013916550142225769
    vertex 7.306496269096226 7.44578968287668 -0.013936654521810633
    vertex 7.306496269096226 0.8560416898151699 -0.013936654521810633
  endloop
endfacet
facet normal -1.1234227602904096e-07 -1.1981632219371838e-06 -0.9999999999992759
  outer loop
    vertex 7.306496269096226 0.8560416898151699 -0.013936654521810633
    vertex 7.306496269096226 7.44578968287668 -0.013936654521810633
    vertex 7.306496269096226 7.392375494850811 -0.013936654521810457
  endloop
endfacet
facet normal -1.1234227602904096e-07 -1.1981632219371838e-06 -0.9999999999992759
  outer loop
    vertex 7.306496269096226 0.8560416898151699 -0.013936654521810633
    vertex 7.306496269096226 7.392375494850811 -0.013936654521810457
    vertex 7.306496269096226 7.288640159233413 -0.01393665452181081
  endloop
endfacet
facet normal -1.1234227602904096e-07 -1.1981632219371838e-06 -0.9999999999992759
  outer loop
    vertex 7.306496269096226 0.8560416898151699 -0.013936654521810633
    vertex 7.306496269096226 7.288640159233413 -0.01393665452181081
    vertex 7.306496269096226 1.0297924086008292 -0.013936654521810633
  endloop
endfacet
facet normal -1.1234227602904096e-07 -1.1981632219371838e-06 -0.9999999999992759
  outer loop
    vertex 7.306496269096226 0.8560416898151699 -0.013936654521810633
    vertex 7.306496269096226 1.0297924086008292 -0.013936654521810633
    vertex 7.306496269096226 0.9727529464753638 -0.013936654521810633
  endloop
endfacet
facet normal -0.9999999978808929 3.315301356243314e-05 5.6027601854175103e-05
  outer loop
    vertex 0.306748582336913 4.838122440639314 2.890042521360151
    vertex 0.30649626909623356 5.361030770354832 -0.013936654521810633
    vertex 0.30649626909623356 1.029792408600846 -0.013936654521810457
  endloop
endfacet
facet normal -0.9999999978808929 3.315301356243314e-05 5.6027601854175103e-05
  outer loop
    vertex 0.30649626909623356 5.361030770354832 -0.013936654521810633
    vertex 0.306748582336913 4.838122440639314 2.890042521360151
    vertex 0.30674858233686225 7.578822440639309 -0.003917556562563714
  endloop
endfacet
endsolid hinge allow
