solid hc-sr04-back 42.5
facet normal -0.9980258950895978 -0.06280376366593761 -6.3292953611113146e-18
  outer loop
    vertex -3.772579999999998 -0.15340256200000307 0.3216849999999999
    vertex -3.7537089579999976 -0.45328568180000295 -0.04241999999999999
    vertex -3.7537089579999976 -0.45328568180000295 0.3216849999999999
  endloop
endfacet
facet normal -0.9980258950895978 -0.0628037636659376 0.0
  outer loop
    vertex -3.772579999999998 -0.15340256200000307 -0.04241999999999999
    vertex -3.7537089579999976 -0.45328568180000295 -0.04241999999999999
    vertex -3.772579999999998 -0.15340256200000307 0.3216849999999999
  endloop
endfacet
facet normal 0.0 0.0 -1.0
  outer loop
    vertex -3.7537089579999976 20.95251592799999 -0.04241999999999999
    vertex -3.772579999999998 -0.15340256200000307 -0.04241999999999999
    vertex -3.772579999999998 20.652597437999987 -0.04241999999999999
  endloop
endfacet
facet normal 0.0 0.0 -1.0
  outer loop
    vertex -3.772579999999998 -0.15340256200000307 -0.04241999999999999
    vertex -3.7537089579999976 20.95251592799999 -0.04241999999999999
    vertex -3.6974079219999973 21.247649037999988 -0.04241999999999999
  endloop
endfacet
facet normal -1.0 0.0 0.0
  outer loop
    vertex -3.772579999999998 20.652597437999987 -0.04241999999999999
    vertex -3.772579999999998 -0.15340256200000307 0.3216849999999999
    vertex -3.772579999999998 20.652597437999987 0.3216849999999999
  endloop
endfacet
facet normal -1.0 0.0 0.0
  outer loop
    vertex -3.772579999999998 20.652597437999987 -0.04241999999999999
    vertex -3.772579999999998 -0.15340256200000307 -0.04241999999999999
    vertex -3.772579999999998 -0.15340256200000307 0.3216849999999999
  endloop
endfacet
facet normal 0.0 0.0 1.0
  outer loop
    vertex -1.5301280453999984 -2.541369600000002 0.3216849999999999
    vertex -3.772579999999998 20.652597437999987 0.3216849999999999
    vertex -1.8282353730999983 -2.503710740000002 0.3216849999999999
  endloop
endfacet
facet normal 0.0 0.0 -1.0
  outer loop
    vertex 46.78599999999999 20.652597437999987 -0.04241999999999999
    vertex -3.7537089579999976 -0.45328568180000295 -0.04241999999999999
    vertex 46.76717056999999 20.95251592799999 -0.04241999999999999
  endloop
endfacet
facet normal 0.0 0.0 -1.0
  outer loop
    vertex -1.8282353730999983 -2.503710740000002 -0.04241999999999999
    vertex -2.1192717816999984 -2.4289859910000025 -0.04241999999999999
    vertex -3.7537089579999976 -0.45328568180000295 -0.04241999999999999
  endloop
endfacet
facet normal 0.0 0.0 -1.0
  outer loop
    vertex 46.328996209999985 22.05897900799999 -0.04241999999999999
    vertex -3.7537089579999976 -0.45328568180000295 -0.04241999999999999
    vertex 46.13747697999999 22.29054978799999 -0.04241999999999999
  endloop
endfacet
facet normal 0.0 0.0 1.0
  outer loop
    vertex 46.78599999999999 -0.15340256200000307 0.3216849999999999
    vertex 44.39330999999999 20.652597437999987 0.3216849999999999
    vertex 46.76717056999999 -0.45328568180000295 0.3216849999999999
  endloop
endfacet
facet normal 0.0 0.0 -1.0
  outer loop
    vertex 46.78599999999999 -0.15340256200000307 -0.04241999999999999
    vertex 46.76717056999999 -0.45328568180000295 -0.04241999999999999
    vertex -3.7537089579999976 -0.45328568180000295 -0.04241999999999999
  endloop
endfacet
facet normal 0.0 0.0 -1.0
  outer loop
    vertex 46.71078630999999 -0.748440638100003 -0.04241999999999999
    vertex 46.61799154999999 -1.0342100078000027 -0.04241999999999999
    vertex -3.7537089579999976 -0.45328568180000295 -0.04241999999999999
  endloop
endfacet
facet normal 0.0 0.0 -1.0
  outer loop
    vertex 46.76717056999999 -0.45328568180000295 -0.04241999999999999
    vertex 46.71078630999999 -0.748440638100003 -0.04241999999999999
    vertex -3.7537089579999976 -0.45328568180000295 -0.04241999999999999
  endloop
endfacet
facet normal 0.0 0.0 1.0
  outer loop
    vertex 45.41207578999999 -2.3183708920000026 0.3216849999999999
    vertex 44.39330999999999 -0.15340256200000307 0.3216849999999999
    vertex 45.13265120999999 -2.4289859910000025 0.3216849999999999
  endloop
endfacet
facet normal 0.0 0.0 -1.0
  outer loop
    vertex 13.184309999999998 23.04060608799999 -0.04241999999999999
    vertex -3.7537089579999976 -0.45328568180000295 -0.04241999999999999
    vertex -1.5301280453999984 23.04060608799999 -0.04241999999999999
  endloop
endfacet
facet normal 0.0 0.0 -1.0
  outer loop
    vertex 13.184309999999998 16.491397437999993 -0.04241999999999999
    vertex -3.7537089579999976 -0.45328568180000295 -0.04241999999999999
    vertex 13.184309999999998 23.04060608799999 -0.04241999999999999
  endloop
endfacet
facet normal -0.9980263593077507 0.06279638625682443 0.0
  outer loop
    vertex -3.7537089579999976 20.95251592799999 -0.04241999999999999
    vertex -3.772579999999998 20.652597437999987 -0.04241999999999999
    vertex -3.772579999999998 20.652597437999987 0.3216849999999999
  endloop
endfacet
facet normal 0.0 0.0 -1.0
  outer loop
    vertex 45.91849382999999 22.496217097999992 -0.04241999999999999
    vertex -3.7537089579999976 -0.45328568180000295 -0.04241999999999999
    vertex 45.675375719999984 22.67286003799999 -0.04241999999999999
  endloop
endfacet
facet normal 0.0 0.0 -1.0
  outer loop
    vertex 46.13747697999999 22.29054978799999 -0.04241999999999999
    vertex -3.7537089579999976 -0.45328568180000295 -0.04241999999999999
    vertex 45.91849382999999 22.496217097999992 -0.04241999999999999
  endloop
endfacet
facet normal 0.0 0.0 -1.0
  outer loop
    vertex 46.71078630999999 21.247649037999988 -0.04241999999999999
    vertex -3.7537089579999976 -0.45328568180000295 -0.04241999999999999
    vertex 46.61799154999999 21.53341944799999 -0.04241999999999999
  endloop
endfacet
facet normal 0.0 0.0 -1.0
  outer loop
    vertex 46.76717056999999 20.95251592799999 -0.04241999999999999
    vertex -3.7537089579999976 -0.45328568180000295 -0.04241999999999999
    vertex 46.71078630999999 21.247649037999988 -0.04241999999999999
  endloop
endfacet
facet normal 0.0 0.0 -1.0
  outer loop
    vertex -1.5301280453999984 23.04060608799999 -0.04241999999999999
    vertex -3.7537089579999976 -0.45328568180000295 -0.04241999999999999
    vertex -1.8282353730999983 23.00294722799999 -0.04241999999999999
  endloop
endfacet
facet normal 0.0 0.0 -1.0
  outer loop
    vertex 46.49003465 -1.306086171000003 -0.04241999999999999
    vertex 46.328996209999985 -1.5597945350000026 -0.04241999999999999
    vertex -3.7537089579999976 -0.45328568180000295 -0.04241999999999999
  endloop
endfacet
facet normal 0.0 0.0 -1.0
  outer loop
    vertex 45.675375719999984 22.67286003799999 -0.04241999999999999
    vertex -3.7537089579999976 -0.45328568180000295 -0.04241999999999999
    vertex 45.41207578999999 22.81756576799999 -0.04241999999999999
  endloop
endfacet
facet normal 0.0 0.0 -1.0
  outer loop
    vertex 45.91849382999999 -1.9970014160000025 -0.04241999999999999
    vertex 45.675375719999984 -2.173613147000003 -0.04241999999999999
    vertex -3.7537089579999976 -0.45328568180000295 -0.04241999999999999
  endloop
endfacet
facet normal 0.0 0.0 -1.0
  outer loop
    vertex 29.829109999999993 16.491397437999993 -0.04241999999999999
    vertex -3.7537089579999976 -0.45328568180000295 -0.04241999999999999
    vertex 13.184309999999998 16.491397437999993 -0.04241999999999999
  endloop
endfacet
facet normal 0.0 0.0 -1.0
  outer loop
    vertex -2.9050530239999985 -1.9970014160000025 -0.04241999999999999
    vertex -3.1240881889999983 -1.7913133000000023 -0.04241999999999999
    vertex -3.7537089579999976 -0.45328568180000295 -0.04241999999999999
  endloop
endfacet
facet normal 0.0 0.0 -1.0
  outer loop
    vertex 45.41207578999999 22.81756576799999 -0.04241999999999999
    vertex -3.7537089579999976 -0.45328568180000295 -0.04241999999999999
    vertex 45.13265120999999 22.92814965799999 -0.04241999999999999
  endloop
endfacet
facet normal 0.0 0.0 -1.0
  outer loop
    vertex 46.61799154999999 -1.0342100078000027 -0.04241999999999999
    vertex 46.49003465 -1.306086171000003 -0.04241999999999999
    vertex -3.7537089579999976 -0.45328568180000295 -0.04241999999999999
  endloop
endfacet
facet normal 0.0 0.0 -1.0
  outer loop
    vertex 44.84167929999999 23.00294722799999 -0.04241999999999999
    vertex -3.7537089579999976 -0.45328568180000295 -0.04241999999999999
    vertex 44.54352931999999 23.04060608799999 -0.04241999999999999
  endloop
endfacet
facet normal 0.0 0.0 -1.0
  outer loop
    vertex 45.13265120999999 22.92814965799999 -0.04241999999999999
    vertex -3.7537089579999976 -0.45328568180000295 -0.04241999999999999
    vertex 44.84167929999999 23.00294722799999 -0.04241999999999999
  endloop
endfacet
facet normal 0.0 0.0 -1.0
  outer loop
    vertex 44.54352931999999 23.04060608799999 -0.04241999999999999
    vertex 29.829109999999993 16.491397437999993 -0.04241999999999999
    vertex 29.829109999999993 23.04060608799999 -0.04241999999999999
  endloop
endfacet
facet normal 0.0 0.0 -1.0
  outer loop
    vertex 44.54352931999999 23.04060608799999 -0.04241999999999999
    vertex -3.7537089579999976 -0.45328568180000295 -0.04241999999999999
    vertex 29.829109999999993 16.491397437999993 -0.04241999999999999
  endloop
endfacet
facet normal 0.0 0.0 -1.0
  outer loop
    vertex 46.49003465 21.80524983799999 -0.04241999999999999
    vertex -3.7537089579999976 -0.45328568180000295 -0.04241999999999999
    vertex 46.328996209999985 22.05897900799999 -0.04241999999999999
  endloop
endfacet
facet normal 0.0 0.0 -1.0
  outer loop
    vertex 46.78599999999999 -0.15340256200000307 -0.04241999999999999
    vertex -3.7537089579999976 -0.45328568180000295 -0.04241999999999999
    vertex 46.78599999999999 20.652597437999987 -0.04241999999999999
  endloop
endfacet
facet normal 0.0 0.0 -1.0
  outer loop
    vertex 46.61799154999999 21.53341944799999 -0.04241999999999999
    vertex -3.7537089579999976 -0.45328568180000295 -0.04241999999999999
    vertex 46.49003465 21.80524983799999 -0.04241999999999999
  endloop
endfacet
facet normal 0.0 0.0 -1.0
  outer loop
    vertex 45.675375719999984 -2.173613147000003 -0.04241999999999999
    vertex 45.41207578999999 -2.3183708920000026 -0.04241999999999999
    vertex -3.7537089579999976 -0.45328568180000295 -0.04241999999999999
  endloop
endfacet
facet normal 0.0 0.0 -1.0
  outer loop
    vertex 46.328996209999985 -1.5597945350000026 -0.04241999999999999
    vertex 46.13747697999999 -1.7913133000000023 -0.04241999999999999
    vertex -3.7537089579999976 -0.45328568180000295 -0.04241999999999999
  endloop
endfacet
facet normal 0.0 0.0 -1.0
  outer loop
    vertex 46.13747697999999 -1.7913133000000023 -0.04241999999999999
    vertex 45.91849382999999 -1.9970014160000025 -0.04241999999999999
    vertex -3.7537089579999976 -0.45328568180000295 -0.04241999999999999
  endloop
endfacet
facet normal 0.0 0.0 -1.0
  outer loop
    vertex 44.54352931999999 -2.541369600000002 -0.04241999999999999
    vertex -1.5301280453999984 -2.541369600000002 -0.04241999999999999
    vertex -3.7537089579999976 -0.45328568180000295 -0.04241999999999999
  endloop
endfacet
facet normal 0.0 0.0 -1.0
  outer loop
    vertex -3.476625052999998 -1.306086171000003 -0.04241999999999999
    vertex -3.6974079219999973 -0.748440638100003 -0.04241999999999999
    vertex -3.7537089579999976 -0.45328568180000295 -0.04241999999999999
  endloop
endfacet
facet normal 0.0 0.0 -1.0
  outer loop
    vertex -3.6974079219999973 -0.748440638100003 -0.04241999999999999
    vertex -3.476625052999998 -1.306086171000003 -0.04241999999999999
    vertex -3.6045611469999974 -1.0342100078000027 -0.04241999999999999
  endloop
endfacet
facet normal 0.0 0.0 -1.0
  outer loop
    vertex -3.1240881889999983 -1.7913133000000023 -0.04241999999999999
    vertex -3.3156178219999974 -1.5597945350000026 -0.04241999999999999
    vertex -3.7537089579999976 -0.45328568180000295 -0.04241999999999999
  endloop
endfacet
facet normal 0.0 0.0 -1.0
  outer loop
    vertex -3.3156178219999974 -1.5597945350000026 -0.04241999999999999
    vertex -3.476625052999998 -1.306086171000003 -0.04241999999999999
    vertex -3.7537089579999976 -0.45328568180000295 -0.04241999999999999
  endloop
endfacet
facet normal 0.0 0.0 -1.0
  outer loop
    vertex -2.1192717816999984 -2.4289859910000025 -0.04241999999999999
    vertex -2.3986474675999983 -2.3183708920000026 -0.04241999999999999
    vertex -3.7537089579999976 -0.45328568180000295 -0.04241999999999999
  endloop
endfacet
facet normal 0.0 0.0 -1.0
  outer loop
    vertex -2.3986474675999983 -2.3183708920000026 -0.04241999999999999
    vertex -2.661955719999998 -2.173613147000003 -0.04241999999999999
    vertex -3.7537089579999976 -0.45328568180000295 -0.04241999999999999
  endloop
endfacet
facet normal 0.0 0.0 -1.0
  outer loop
    vertex 45.41207578999999 -2.3183708920000026 -0.04241999999999999
    vertex 45.13265120999999 -2.4289859910000025 -0.04241999999999999
    vertex -3.7537089579999976 -0.45328568180000295 -0.04241999999999999
  endloop
endfacet
facet normal 0.0 0.0 -1.0
  outer loop
    vertex 45.13265120999999 -2.4289859910000025 -0.04241999999999999
    vertex 44.84167929999999 -2.503710740000002 -0.04241999999999999
    vertex -3.7537089579999976 -0.45328568180000295 -0.04241999999999999
  endloop
endfacet
facet normal 0.0 0.0 -1.0
  outer loop
    vertex 44.84167929999999 -2.503710740000002 -0.04241999999999999
    vertex 44.54352931999999 -2.541369600000002 -0.04241999999999999
    vertex -3.7537089579999976 -0.45328568180000295 -0.04241999999999999
  endloop
endfacet
facet normal 0.0 0.0 -1.0
  outer loop
    vertex -2.661955719999998 -2.173613147000003 -0.04241999999999999
    vertex -2.9050530239999985 -1.9970014160000025 -0.04241999999999999
    vertex -3.7537089579999976 -0.45328568180000295 -0.04241999999999999
  endloop
endfacet
facet normal 0.0 0.0 -1.0
  outer loop
    vertex -1.5301280453999984 -2.541369600000002 -0.04241999999999999
    vertex -1.8282353730999983 -2.503710740000002 -0.04241999999999999
    vertex -3.7537089579999976 -0.45328568180000295 -0.04241999999999999
  endloop
endfacet
facet normal -0.9980263593077507 0.06279638625682443 0.0
  outer loop
    vertex -3.7537089579999976 20.95251592799999 -0.04241999999999999
    vertex -3.772579999999998 20.652597437999987 0.3216849999999999
    vertex -3.7537089579999976 20.95251592799999 0.3216849999999999
  endloop
endfacet
facet normal 0.0 0.0 1.0
  outer loop
    vertex -3.6045611469999974 -1.0342100078000027 0.3216849999999999
    vertex -3.772579999999998 20.652597437999987 0.3216849999999999
    vertex -3.6974079219999973 -0.748440638100003 0.3216849999999999
  endloop
endfacet
facet normal 0.0 0.0 1.0
  outer loop
    vertex -3.7537089579999976 -0.45328568180000295 0.3216849999999999
    vertex -3.772579999999998 20.652597437999987 0.3216849999999999
    vertex -3.772579999999998 -0.15340256200000307 0.3216849999999999
  endloop
endfacet
facet normal 0.0 0.0 1.0
  outer loop
    vertex -3.772579999999998 20.652597437999987 0.3216849999999999
    vertex -3.7537089579999976 -0.45328568180000295 0.3216849999999999
    vertex -3.6974079219999973 -0.748440638100003 0.3216849999999999
  endloop
endfacet
facet normal 0.0 0.0 1.0
  outer loop
    vertex -3.476625052999998 -1.306086171000003 0.3216849999999999
    vertex -3.772579999999998 20.652597437999987 0.3216849999999999
    vertex -3.6045611469999974 -1.0342100078000027 0.3216849999999999
  endloop
endfacet
facet normal 0.0 0.0 1.0
  outer loop
    vertex -3.3156178219999974 -1.5597945350000026 0.3216849999999999
    vertex -3.772579999999998 20.652597437999987 0.3216849999999999
    vertex -3.476625052999998 -1.306086171000003 0.3216849999999999
  endloop
endfacet
facet normal 0.0 0.0 1.0
  outer loop
    vertex -3.1240881889999983 -1.7913133000000023 0.3216849999999999
    vertex -3.772579999999998 20.652597437999987 0.3216849999999999
    vertex -3.3156178219999974 -1.5597945350000026 0.3216849999999999
  endloop
endfacet
facet normal 0.0 0.0 1.0
  outer loop
    vertex -2.9050530239999985 -1.9970014160000025 0.3216849999999999
    vertex -3.772579999999998 20.652597437999987 0.3216849999999999
    vertex -3.1240881889999983 -1.7913133000000023 0.3216849999999999
  endloop
endfacet
facet normal 0.0 0.0 1.0
  outer loop
    vertex -2.661955719999998 -2.173613147000003 0.3216849999999999
    vertex -3.772579999999998 20.652597437999987 0.3216849999999999
    vertex -2.9050530239999985 -1.9970014160000025 0.3216849999999999
  endloop
endfacet
facet normal 0.0 0.0 1.0
  outer loop
    vertex -2.3986474675999983 -2.3183708920000026 0.3216849999999999
    vertex -3.772579999999998 20.652597437999987 0.3216849999999999
    vertex -2.661955719999998 -2.173613147000003 0.3216849999999999
  endloop
endfacet
facet normal 0.0 0.0 1.0
  outer loop
    vertex -2.1192717816999984 -2.4289859910000025 0.3216849999999999
    vertex -3.772579999999998 20.652597437999987 0.3216849999999999
    vertex -2.3986474675999983 -2.3183708920000026 0.3216849999999999
  endloop
endfacet
facet normal 0.0 0.0 1.0
  outer loop
    vertex -1.8282353730999983 -2.503710740000002 0.3216849999999999
    vertex -3.772579999999998 20.652597437999987 0.3216849999999999
    vertex -2.1192717816999984 -2.4289859910000025 0.3216849999999999
  endloop
endfacet
facet normal 0.0 0.0 -1.0
  outer loop
    vertex -3.6045611469999974 21.53341944799999 -0.04241999999999999
    vertex -3.772579999999998 -0.15340256200000307 -0.04241999999999999
    vertex -3.6974079219999973 21.247649037999988 -0.04241999999999999
  endloop
endfacet
facet normal 0.0 0.0 1.0
  outer loop
    vertex -1.3798899999999983 -0.15340256200000307 0.3216849999999999
    vertex -3.772579999999998 20.652597437999987 0.3216849999999999
    vertex -1.5301280453999984 -2.541369600000002 0.3216849999999999
  endloop
endfacet
facet normal 0.0 0.0 1.0
  outer loop
    vertex -1.3798899999999983 20.652597437999987 0.3216849999999999
    vertex -3.772579999999998 20.652597437999987 0.3216849999999999
    vertex -1.3798899999999983 -0.15340256200000307 0.3216849999999999
  endloop
endfacet
facet normal 0.0 0.0 1.0
  outer loop
    vertex 13.184309999999998 23.04060608799999 0.3216849999999999
    vertex -1.3798899999999983 20.652597437999987 0.3216849999999999
    vertex 13.184309999999998 20.652597437999987 0.3216849999999999
  endloop
endfacet
facet normal 0.0 0.0 1.0
  outer loop
    vertex 46.49003465 -1.306086171000003 0.3216849999999999
    vertex 44.39330999999999 -0.15340256200000307 0.3216849999999999
    vertex 46.328996209999985 -1.5597945350000026 0.3216849999999999
  endloop
endfacet
facet normal 0.0 0.0 1.0
  outer loop
    vertex 46.328996209999985 -1.5597945350000026 0.3216849999999999
    vertex 44.39330999999999 -0.15340256200000307 0.3216849999999999
    vertex 46.13747697999999 -1.7913133000000023 0.3216849999999999
  endloop
endfacet
facet normal 0.0 0.0 1.0
  outer loop
    vertex 46.13747697999999 -1.7913133000000023 0.3216849999999999
    vertex 44.39330999999999 -0.15340256200000307 0.3216849999999999
    vertex 45.91849382999999 -1.9970014160000025 0.3216849999999999
  endloop
endfacet
facet normal 0.0 0.0 1.0
  outer loop
    vertex 46.78599999999999 20.652597437999987 0.3216849999999999
    vertex 44.39330999999999 20.652597437999987 0.3216849999999999
    vertex 46.78599999999999 -0.15340256200000307 0.3216849999999999
  endloop
endfacet
facet normal 0.0 0.0 -1.0
  outer loop
    vertex -3.476625052999998 21.80524983799999 -0.04241999999999999
    vertex -3.772579999999998 -0.15340256200000307 -0.04241999999999999
    vertex -3.6045611469999974 21.53341944799999 -0.04241999999999999
  endloop
endfacet
facet normal 0.0 0.0 -1.0
  outer loop
    vertex -3.3156178219999974 22.05897900799999 -0.04241999999999999
    vertex -3.772579999999998 -0.15340256200000307 -0.04241999999999999
    vertex -3.476625052999998 21.80524983799999 -0.04241999999999999
  endloop
endfacet
facet normal 0.0 0.0 -1.0
  outer loop
    vertex -3.3156178219999974 22.05897900799999 -0.04241999999999999
    vertex -3.7537089579999976 -0.45328568180000295 -0.04241999999999999
    vertex -3.772579999999998 -0.15340256200000307 -0.04241999999999999
  endloop
endfacet
facet normal 0.0 0.0 -1.0
  outer loop
    vertex -3.7537089579999976 -0.45328568180000295 -0.04241999999999999
    vertex -3.3156178219999974 22.05897900799999 -0.04241999999999999
    vertex -3.1240881889999983 22.29054978799999 -0.04241999999999999
  endloop
endfacet
facet normal 0.0 0.0 -1.0
  outer loop
    vertex -2.9050530239999985 22.496217097999992 -0.04241999999999999
    vertex -3.7537089579999976 -0.45328568180000295 -0.04241999999999999
    vertex -3.1240881889999983 22.29054978799999 -0.04241999999999999
  endloop
endfacet
facet normal 0.0 0.0 -1.0
  outer loop
    vertex -2.661955719999998 22.67286003799999 -0.04241999999999999
    vertex -3.7537089579999976 -0.45328568180000295 -0.04241999999999999
    vertex -2.9050530239999985 22.496217097999992 -0.04241999999999999
  endloop
endfacet
facet normal 0.0 0.0 -1.0
  outer loop
    vertex -2.3986474675999983 22.81756576799999 -0.04241999999999999
    vertex -3.7537089579999976 -0.45328568180000295 -0.04241999999999999
    vertex -2.661955719999998 22.67286003799999 -0.04241999999999999
  endloop
endfacet
facet normal 0.0 0.0 -1.0
  outer loop
    vertex -2.1192717816999984 22.92814965799999 -0.04241999999999999
    vertex -3.7537089579999976 -0.45328568180000295 -0.04241999999999999
    vertex -2.3986474675999983 22.81756576799999 -0.04241999999999999
  endloop
endfacet
facet normal 0.0 0.0 -1.0
  outer loop
    vertex -1.8282353730999983 23.00294722799999 -0.04241999999999999
    vertex -3.7537089579999976 -0.45328568180000295 -0.04241999999999999
    vertex -2.1192717816999984 22.92814965799999 -0.04241999999999999
  endloop
endfacet
facet normal 0.0 0.0 1.0
  outer loop
    vertex 46.76717056999999 -0.45328568180000295 0.3216849999999999
    vertex 44.39330999999999 20.652597437999987 0.3216849999999999
    vertex 46.71078630999999 -0.748440638100003 0.3216849999999999
  endloop
endfacet
facet normal 0.0 0.0 1.0
  outer loop
    vertex 46.71078630999999 -0.748440638100003 0.3216849999999999
    vertex 44.39330999999999 20.652597437999987 0.3216849999999999
    vertex 46.61799154999999 -1.0342100078000027 0.3216849999999999
  endloop
endfacet
facet normal 0.0 0.0 1.0
  outer loop
    vertex 46.61799154999999 -1.0342100078000027 0.3216849999999999
    vertex 44.39330999999999 20.652597437999987 0.3216849999999999
    vertex 44.39330999999999 -0.15340256200000307 0.3216849999999999
  endloop
endfacet
facet normal 0.0 0.0 1.0
  outer loop
    vertex 44.84167929999999 -2.503710740000002 0.3216849999999999
    vertex 44.39330999999999 -0.15340256200000307 0.3216849999999999
    vertex 44.54352931999999 -2.541369600000002 0.3216849999999999
  endloop
endfacet
facet normal 0.0 0.0 1.0
  outer loop
    vertex 44.54352931999999 -2.541369600000002 0.3216849999999999
    vertex 44.39330999999999 -0.15340256200000307 0.3216849999999999
    vertex -1.3798899999999983 -0.15340256200000307 0.3216849999999999
  endloop
endfacet
facet normal 0.0 0.0 1.0
  outer loop
    vertex 45.13265120999999 -2.4289859910000025 0.3216849999999999
    vertex 44.39330999999999 -0.15340256200000307 0.3216849999999999
    vertex 44.84167929999999 -2.503710740000002 0.3216849999999999
  endloop
endfacet
facet normal 0.0 0.0 1.0
  outer loop
    vertex 45.91849382999999 -1.9970014160000025 0.3216849999999999
    vertex 44.39330999999999 -0.15340256200000307 0.3216849999999999
    vertex 45.675375719999984 -2.173613147000003 0.3216849999999999
  endloop
endfacet
facet normal 0.0 0.0 1.0
  outer loop
    vertex 46.78599999999999 20.652597437999987 0.3216849999999999
    vertex 46.76717056999999 20.95251592799999 0.3216849999999999
    vertex 44.39330999999999 20.652597437999987 0.3216849999999999
  endloop
endfacet
facet normal 0.0 0.0 1.0
  outer loop
    vertex 46.76717056999999 20.95251592799999 0.3216849999999999
    vertex 29.829109999999993 20.652597437999987 0.3216849999999999
    vertex 44.39330999999999 20.652597437999987 0.3216849999999999
  endloop
endfacet
facet normal 0.0 0.0 1.0
  outer loop
    vertex 46.61799154999999 -1.0342100078000027 0.3216849999999999
    vertex 44.39330999999999 -0.15340256200000307 0.3216849999999999
    vertex 46.49003465 -1.306086171000003 0.3216849999999999
  endloop
endfacet
facet normal 0.0 0.0 1.0
  outer loop
    vertex 13.184309999999998 23.04060608799999 0.3216849999999999
    vertex -3.772579999999998 20.652597437999987 0.3216849999999999
    vertex -1.3798899999999983 20.652597437999987 0.3216849999999999
  endloop
endfacet
facet normal 0.0 0.0 1.0
  outer loop
    vertex 44.54352931999999 -2.541369600000002 0.3216849999999999
    vertex -1.3798899999999983 -0.15340256200000307 0.3216849999999999
    vertex -1.5301280453999984 -2.541369600000002 0.3216849999999999
  endloop
endfacet
facet normal 0.0 0.0 1.0
  outer loop
    vertex 45.675375719999984 -2.173613147000003 0.3216849999999999
    vertex 44.39330999999999 -0.15340256200000307 0.3216849999999999
    vertex 45.41207578999999 -2.3183708920000026 0.3216849999999999
  endloop
endfacet
facet normal 0.0 0.0 1.0
  outer loop
    vertex 13.184309999999998 23.04060608799999 0.3216849999999999
    vertex -1.5301280453999984 23.04060608799999 0.3216849999999999
    vertex -3.772579999999998 20.652597437999987 0.3216849999999999
  endloop
endfacet
facet normal 0.0 0.0 1.0
  outer loop
    vertex -1.5301280453999984 23.04060608799999 0.3216849999999999
    vertex -1.8282353730999983 23.00294722799999 0.3216849999999999
    vertex -3.772579999999998 20.652597437999987 0.3216849999999999
  endloop
endfacet
facet normal 0.0 0.0 1.0
  outer loop
    vertex -1.8282353730999983 23.00294722799999 0.3216849999999999
    vertex -2.1192717816999984 22.92814965799999 0.3216849999999999
    vertex -3.772579999999998 20.652597437999987 0.3216849999999999
  endloop
endfacet
facet normal 0.0 0.0 1.0
  outer loop
    vertex -2.1192717816999984 22.92814965799999 0.3216849999999999
    vertex -2.3986474675999983 22.81756576799999 0.3216849999999999
    vertex -3.772579999999998 20.652597437999987 0.3216849999999999
  endloop
endfacet
facet normal 0.0 0.0 1.0
  outer loop
    vertex -2.3986474675999983 22.81756576799999 0.3216849999999999
    vertex -2.661955719999998 22.67286003799999 0.3216849999999999
    vertex -3.772579999999998 20.652597437999987 0.3216849999999999
  endloop
endfacet
facet normal 0.0 0.0 1.0
  outer loop
    vertex -2.661955719999998 22.67286003799999 0.3216849999999999
    vertex -2.9050530239999985 22.496217097999992 0.3216849999999999
    vertex -3.772579999999998 20.652597437999987 0.3216849999999999
  endloop
endfacet
facet normal 0.0 0.0 1.0
  outer loop
    vertex -2.9050530239999985 22.496217097999992 0.3216849999999999
    vertex -3.1240881889999983 22.29054978799999 0.3216849999999999
    vertex -3.772579999999998 20.652597437999987 0.3216849999999999
  endloop
endfacet
facet normal 0.0 0.0 1.0
  outer loop
    vertex -3.1240881889999983 22.29054978799999 0.3216849999999999
    vertex -3.3156178219999974 22.05897900799999 0.3216849999999999
    vertex -3.772579999999998 20.652597437999987 0.3216849999999999
  endloop
endfacet
facet normal 0.0 0.0 1.0
  outer loop
    vertex -3.3156178219999974 22.05897900799999 0.3216849999999999
    vertex -3.476625052999998 21.80524983799999 0.3216849999999999
    vertex -3.772579999999998 20.652597437999987 0.3216849999999999
  endloop
endfacet
facet normal 0.0 0.0 1.0
  outer loop
    vertex -3.476625052999998 21.80524983799999 0.3216849999999999
    vertex -3.6045611469999974 21.53341944799999 0.3216849999999999
    vertex -3.772579999999998 20.652597437999987 0.3216849999999999
  endloop
endfacet
facet normal 0.0 0.0 1.0
  outer loop
    vertex -3.6045611469999974 21.53341944799999 0.3216849999999999
    vertex -3.7537089579999976 20.95251592799999 0.3216849999999999
    vertex -3.772579999999998 20.652597437999987 0.3216849999999999
  endloop
endfacet
facet normal 0.0 0.0 1.0
  outer loop
    vertex -3.7537089579999976 20.95251592799999 0.3216849999999999
    vertex -3.6045611469999974 21.53341944799999 0.3216849999999999
    vertex -3.6974079219999973 21.247649037999988 0.3216849999999999
  endloop
endfacet
facet normal 0.0 0.0 1.0
  outer loop
    vertex 44.84167929999999 23.00294722799999 0.3216849999999999
    vertex 44.54352931999999 23.04060608799999 0.3216849999999999
    vertex 29.829109999999993 23.04060608799999 0.3216849999999999
  endloop
endfacet
facet normal 0.0 0.0 1.0
  outer loop
    vertex 45.13265120999999 22.92814965799999 0.3216849999999999
    vertex 44.84167929999999 23.00294722799999 0.3216849999999999
    vertex 29.829109999999993 23.04060608799999 0.3216849999999999
  endloop
endfacet
facet normal 0.0 0.0 1.0
  outer loop
    vertex 45.41207578999999 22.81756576799999 0.3216849999999999
    vertex 45.13265120999999 22.92814965799999 0.3216849999999999
    vertex 29.829109999999993 23.04060608799999 0.3216849999999999
  endloop
endfacet
facet normal 0.0 0.0 1.0
  outer loop
    vertex 45.675375719999984 22.67286003799999 0.3216849999999999
    vertex 45.41207578999999 22.81756576799999 0.3216849999999999
    vertex 29.829109999999993 23.04060608799999 0.3216849999999999
  endloop
endfacet
facet normal 0.0 0.0 1.0
  outer loop
    vertex 45.91849382999999 22.496217097999992 0.3216849999999999
    vertex 45.675375719999984 22.67286003799999 0.3216849999999999
    vertex 29.829109999999993 23.04060608799999 0.3216849999999999
  endloop
endfacet
facet normal 0.0 0.0 1.0
  outer loop
    vertex 46.13747697999999 22.29054978799999 0.3216849999999999
    vertex 45.91849382999999 22.496217097999992 0.3216849999999999
    vertex 29.829109999999993 23.04060608799999 0.3216849999999999
  endloop
endfacet
facet normal 0.0 0.0 1.0
  outer loop
    vertex 46.328996209999985 22.05897900799999 0.3216849999999999
    vertex 46.13747697999999 22.29054978799999 0.3216849999999999
    vertex 29.829109999999993 23.04060608799999 0.3216849999999999
  endloop
endfacet
facet normal 0.0 0.0 1.0
  outer loop
    vertex 46.49003465 21.80524983799999 0.3216849999999999
    vertex 46.328996209999985 22.05897900799999 0.3216849999999999
    vertex 29.829109999999993 23.04060608799999 0.3216849999999999
  endloop
endfacet
facet normal 0.0 0.0 1.0
  outer loop
    vertex 46.61799154999999 21.53341944799999 0.3216849999999999
    vertex 46.49003465 21.80524983799999 0.3216849999999999
    vertex 29.829109999999993 23.04060608799999 0.3216849999999999
  endloop
endfacet
facet normal 0.0 0.0 1.0
  outer loop
    vertex 46.71078630999999 21.247649037999988 0.3216849999999999
    vertex 46.61799154999999 21.53341944799999 0.3216849999999999
    vertex 29.829109999999993 23.04060608799999 0.3216849999999999
  endloop
endfacet
facet normal 0.0 0.0 1.0
  outer loop
    vertex 46.76717056999999 20.95251592799999 0.3216849999999999
    vertex 46.71078630999999 21.247649037999988 0.3216849999999999
    vertex 29.829109999999993 23.04060608799999 0.3216849999999999
  endloop
endfacet
facet normal 0.0 0.0 1.0
  outer loop
    vertex 46.76717056999999 20.95251592799999 0.3216849999999999
    vertex 29.829109999999993 23.04060608799999 0.3216849999999999
    vertex 29.829109999999993 20.652597437999987 0.3216849999999999
  endloop
endfacet
facet normal -0.9822889555550948 -0.18737237735184206 0.0
  outer loop
    vertex -3.7537089579999976 -0.45328568180000295 -0.04241999999999999
    vertex -3.6974079219999973 -0.748440638100003 -0.04241999999999999
    vertex -3.7537089579999976 -0.45328568180000295 0.3216849999999999
  endloop
endfacet
facet normal -0.9822889555550948 -0.18737237735184206 3.858406178727683e-17
  outer loop
    vertex -3.7537089579999976 -0.45328568180000295 0.3216849999999999
    vertex -3.6974079219999973 -0.748440638100003 -0.04241999999999999
    vertex -3.6974079219999973 -0.748440638100003 0.3216849999999999
  endloop
endfacet
facet normal -0.9510617213899957 -0.30900097428114726 0.0
  outer loop
    vertex -3.6974079219999973 -0.748440638100003 -0.04241999999999999
    vertex -3.6045611469999974 -1.0342100078000027 -0.04241999999999999
    vertex -3.6974079219999973 -0.748440638100003 0.3216849999999999
  endloop
endfacet
facet normal -0.9510617213899957 -0.30900097428114726 0.0
  outer loop
    vertex -3.6974079219999973 -0.748440638100003 0.3216849999999999
    vertex -3.6045611469999974 -1.0342100078000027 -0.04241999999999999
    vertex -3.6045611469999974 -1.0342100078000027 0.3216849999999999
  endloop
endfacet
facet normal -0.9048259207147016 -0.4257816966507518 -2.7925461152013253e-17
  outer loop
    vertex -3.6045611469999974 -1.0342100078000027 -0.04241999999999999
    vertex -3.476625052999998 -1.306086171000003 -0.04241999999999999
    vertex -3.6045611469999974 -1.0342100078000027 0.3216849999999999
  endloop
endfacet
facet normal -0.9048259207147016 -0.4257816966507518 0.0
  outer loop
    vertex -3.6045611469999974 -1.0342100078000027 0.3216849999999999
    vertex -3.476625052999998 -1.306086171000003 -0.04241999999999999
    vertex -3.476625052999998 -1.306086171000003 0.3216849999999999
  endloop
endfacet
facet normal -0.8443294201829337 -0.535824439731477 2.9924020089561965e-17
  outer loop
    vertex -3.476625052999998 -1.306086171000003 -0.04241999999999999
    vertex -3.3156178219999974 -1.5597945350000026 -0.04241999999999999
    vertex -3.476625052999998 -1.306086171000003 0.3216849999999999
  endloop
endfacet
facet normal -0.8443294201829337 -0.535824439731477 -2.9924020089561965e-17
  outer loop
    vertex -3.476625052999998 -1.306086171000003 0.3216849999999999
    vertex -3.3156178219999974 -1.5597945350000026 -0.04241999999999999
    vertex -3.3156178219999974 -1.5597945350000026 0.3216849999999999
  endloop
endfacet
facet normal -0.7705121741798977 -0.6374252814570246 0.0
  outer loop
    vertex -3.3156178219999974 -1.5597945350000026 -0.04241999999999999
    vertex -3.1240881889999983 -1.7913133000000023 -0.04241999999999999
    vertex -3.3156178219999974 -1.5597945350000026 0.3216849999999999
  endloop
endfacet
facet normal -0.7705121741798977 -0.6374252814570245 -6.558653563110935e-17
  outer loop
    vertex -3.3156178219999974 -1.5597945350000026 0.3216849999999999
    vertex -3.1240881889999983 -1.7913133000000023 -0.04241999999999999
    vertex -3.1240881889999983 -1.7913133000000023 0.3216849999999999
  endloop
endfacet
facet normal -0.6845478223471291 -0.7289679546590533 -6.932475276419052e-17
  outer loop
    vertex -3.1240881889999983 -1.7913133000000023 0.3216849999999999
    vertex -3.1240881889999983 -1.7913133000000023 -0.04241999999999999
    vertex -2.9050530239999985 -1.9970014160000025 -0.04241999999999999
  endloop
endfacet
facet normal -0.684547822347129 -0.7289679546590534 0.0
  outer loop
    vertex -3.1240881889999983 -1.7913133000000023 0.3216849999999999
    vertex -2.9050530239999985 -1.9970014160000025 -0.04241999999999999
    vertex -2.9050530239999985 -1.9970014160000025 0.3216849999999999
  endloop
endfacet
facet normal -0.5877660864717044 -0.8090309188119679 -3.12307504082429e-17
  outer loop
    vertex -2.9050530239999985 -1.9970014160000025 0.3216849999999999
    vertex -2.9050530239999985 -1.9970014160000025 -0.04241999999999999
    vertex -2.661955719999998 -2.173613147000003 -0.04241999999999999
  endloop
endfacet
facet normal -0.5877660864717045 -0.8090309188119679 -6.24615008164858e-17
  outer loop
    vertex -2.9050530239999985 -1.9970014160000025 0.3216849999999999
    vertex -2.661955719999998 -2.173613147000003 -0.04241999999999999
    vertex -2.661955719999998 -2.173613147000003 0.3216849999999999
  endloop
endfacet
facet normal -0.4817608510816805 -0.8763027344274664 0.0
  outer loop
    vertex -2.661955719999998 -2.173613147000003 0.3216849999999999
    vertex -2.661955719999998 -2.173613147000003 -0.04241999999999999
    vertex -2.3986474675999983 -2.3183708920000026 -0.04241999999999999
  endloop
endfacet
facet normal -0.4817608510816805 -0.8763027344274664 -2.8833861671834414e-17
  outer loop
    vertex -2.661955719999998 -2.173613147000003 0.3216849999999999
    vertex -2.3986474675999983 -2.3183708920000026 -0.04241999999999999
    vertex -2.3986474675999983 -2.3183708920000026 0.3216849999999999
  endloop
endfacet
facet normal -0.3681315725781055 -0.9297737064851701 0.0
  outer loop
    vertex -2.3986474675999983 -2.3183708920000026 0.3216849999999999
    vertex -2.3986474675999983 -2.3183708920000026 -0.04241999999999999
    vertex -2.1192717816999984 -2.4289859910000025 -0.04241999999999999
  endloop
endfacet
facet normal -0.3681315725781055 -0.9297737064851701 0.0
  outer loop
    vertex -2.3986474675999983 -2.3183708920000026 0.3216849999999999
    vertex -2.1192717816999984 -2.4289859910000025 -0.04241999999999999
    vertex -2.1192717816999984 -2.4289859910000025 0.3216849999999999
  endloop
endfacet
facet normal -0.24868770158865625 -0.9685837222865927 0.0
  outer loop
    vertex -2.1192717816999984 -2.4289859910000025 0.3216849999999999
    vertex -2.1192717816999984 -2.4289859910000025 -0.04241999999999999
    vertex -1.8282353730999983 -2.503710740000002 -0.04241999999999999
  endloop
endfacet
facet normal -0.24868770158865625 -0.9685837222865927 2.6086757803328383e-17
  outer loop
    vertex -2.1192717816999984 -2.4289859910000025 0.3216849999999999
    vertex -1.8282353730999983 -2.503710740000002 -0.04241999999999999
    vertex -1.8282353730999983 -2.503710740000002 0.3216849999999999
  endloop
endfacet
facet normal -0.12533043796241605 -0.9921150544771251 1.27339847725884e-17
  outer loop
    vertex -1.8282353730999983 -2.503710740000002 0.3216849999999999
    vertex -1.8282353730999983 -2.503710740000002 -0.04241999999999999
    vertex -1.5301280453999984 -2.541369600000002 -0.04241999999999999
  endloop
endfacet
facet normal -0.12533043796241605 -0.9921150544771251 1.27339847725884e-17
  outer loop
    vertex -1.8282353730999983 -2.503710740000002 0.3216849999999999
    vertex -1.5301280453999984 -2.541369600000002 -0.04241999999999999
    vertex -1.5301280453999984 -2.541369600000002 0.3216849999999999
  endloop
endfacet
facet normal 0.0 -1.0 0.0
  outer loop
    vertex -1.5301280453999984 -2.541369600000002 0.3216849999999999
    vertex -1.5301280453999984 -2.541369600000002 -0.04241999999999999
    vertex 44.54352931999999 -2.541369600000002 -0.04241999999999999
  endloop
endfacet
facet normal 0.0 -1.0 0.0
  outer loop
    vertex -1.5301280453999984 -2.541369600000002 0.3216849999999999
    vertex 44.54352931999999 -2.541369600000002 -0.04241999999999999
    vertex 44.54352931999999 -2.541369600000002 0.3216849999999999
  endloop
endfacet
facet normal 0.12531279019501224 -0.9921172836986264 0.0
  outer loop
    vertex 44.54352931999999 -2.541369600000002 0.3216849999999999
    vertex 44.54352931999999 -2.541369600000002 -0.04241999999999999
    vertex 44.84167929999999 -2.503710740000002 -0.04241999999999999
  endloop
endfacet
facet normal 0.12531279019501226 -0.9921172836986264 -1.2730370278270198e-17
  outer loop
    vertex 44.54352931999999 -2.541369600000002 0.3216849999999999
    vertex 44.84167929999999 -2.503710740000002 -0.04241999999999999
    vertex 44.84167929999999 -2.503710740000002 0.3216849999999999
  endloop
endfacet
facet normal 0.2487394168748887 -0.9685704427106684 0.0
  outer loop
    vertex 44.84167929999999 -2.503710740000002 0.3216849999999999
    vertex 44.84167929999999 -2.503710740000002 -0.04241999999999999
    vertex 45.13265120999999 -2.4289859910000025 -0.04241999999999999
  endloop
endfacet
facet normal 0.2487394168748887 -0.9685704427106684 0.0
  outer loop
    vertex 44.84167929999999 -2.503710740000002 0.3216849999999999
    vertex 45.13265120999999 -2.4289859910000025 -0.04241999999999999
    vertex 45.13265120999999 -2.4289859910000025 0.3216849999999999
  endloop
endfacet
facet normal 0.36807588415968095 -0.929795753647041 2.7166640131879594e-17
  outer loop
    vertex 45.13265120999999 -2.4289859910000025 0.3216849999999999
    vertex 45.13265120999999 -2.4289859910000025 -0.04241999999999999
    vertex 45.41207578999999 -2.3183708920000026 -0.04241999999999999
  endloop
endfacet
facet normal 0.36807588415968084 -0.929795753647041 0.0
  outer loop
    vertex 45.13265120999999 -2.4289859910000025 0.3216849999999999
    vertex 45.41207578999999 -2.3183708920000026 -0.04241999999999999
    vertex 45.41207578999999 -2.3183708920000026 0.3216849999999999
  endloop
endfacet
facet normal 0.48177254426887123 -0.8762963058171012 0.0
  outer loop
    vertex 45.41207578999999 -2.3183708920000026 0.3216849999999999
    vertex 45.41207578999999 -2.3183708920000026 -0.04241999999999999
    vertex 45.675375719999984 -2.173613147000003 -0.04241999999999999
  endloop
endfacet
facet normal 0.48177254426887134 -0.8762963058171012 2.883547292516303e-17
  outer loop
    vertex 45.41207578999999 -2.3183708920000026 0.3216849999999999
    vertex 45.675375719999984 -2.173613147000003 -0.04241999999999999
    vertex 45.675375719999984 -2.173613147000003 0.3216849999999999
  endloop
endfacet
facet normal 0.5877331615079003 -0.809054837983142 -3.1226328379773094e-17
  outer loop
    vertex 45.675375719999984 -2.173613147000003 0.3216849999999999
    vertex 45.675375719999984 -2.173613147000003 -0.04241999999999999
    vertex 45.91849382999999 -1.9970014160000025 -0.04241999999999999
  endloop
endfacet
facet normal 0.5877331615079004 -0.8090548379831419 0.0
  outer loop
    vertex 45.675375719999984 -2.173613147000003 0.3216849999999999
    vertex 45.91849382999999 -1.9970014160000025 -0.04241999999999999
    vertex 45.91849382999999 -1.9970014160000025 0.3216849999999999
  endloop
endfacet
facet normal 0.6846342128621246 -0.7288868187713775 3.4674985185967623e-17
  outer loop
    vertex 45.91849382999999 -1.9970014160000025 0.3216849999999999
    vertex 45.91849382999999 -1.9970014160000025 -0.04241999999999999
    vertex 46.13747697999999 -1.7913133000000023 -0.04241999999999999
  endloop
endfacet
facet normal 0.6846342128621246 -0.7288868187713775 0.0
  outer loop
    vertex 45.91849382999999 -1.9970014160000025 0.3216849999999999
    vertex 46.13747697999999 -1.7913133000000023 -0.04241999999999999
    vertex 46.13747697999999 -1.7913133000000023 0.3216849999999999
  endloop
endfacet
facet normal 0.7705291786568448 -0.6374047260872859 -3.279399153204518e-17
  outer loop
    vertex 46.328996209999985 -1.5597945350000026 -0.04241999999999999
    vertex 46.13747697999999 -1.7913133000000023 0.3216849999999999
    vertex 46.13747697999999 -1.7913133000000023 -0.04241999999999999
  endloop
endfacet
facet normal 0.7705291786568448 -0.6374047260872859 0.0
  outer loop
    vertex 46.328996209999985 -1.5597945350000026 0.3216849999999999
    vertex 46.13747697999999 -1.7913133000000023 0.3216849999999999
    vertex 46.328996209999985 -1.5597945350000026 -0.04241999999999999
  endloop
endfacet
facet normal 0.8442824310680045 -0.5358984760100557 5.984470948097338e-17
  outer loop
    vertex 46.49003465 -1.306086171000003 -0.04241999999999999
    vertex 46.328996209999985 -1.5597945350000026 0.3216849999999999
    vertex 46.328996209999985 -1.5597945350000026 -0.04241999999999999
  endloop
endfacet
facet normal 0.8442824310680044 -0.5358984760100558 2.99223547404867e-17
  outer loop
    vertex 46.49003465 -1.306086171000003 0.3216849999999999
    vertex 46.328996209999985 -1.5597945350000026 0.3216849999999999
    vertex 46.49003465 -1.306086171000003 -0.04241999999999999
  endloop
endfacet
facet normal 0.904799242877247 -0.42583838494053156 2.792463779925953e-17
  outer loop
    vertex 46.61799154999999 -1.0342100078000027 -0.04241999999999999
    vertex 46.49003465 -1.306086171000003 0.3216849999999999
    vertex 46.49003465 -1.306086171000003 -0.04241999999999999
  endloop
endfacet
facet normal 0.904799242877247 -0.42583838494053167 -2.792463779925953e-17
  outer loop
    vertex 46.61799154999999 -1.0342100078000027 0.3216849999999999
    vertex 46.49003465 -1.306086171000003 0.3216849999999999
    vertex 46.61799154999999 -1.0342100078000027 -0.04241999999999999
  endloop
endfacet
facet normal 0.9511125845513243 -0.3088443807293566 2.6569180498396964e-17
  outer loop
    vertex 46.71078630999999 -0.748440638100003 -0.04241999999999999
    vertex 46.61799154999999 -1.0342100078000027 0.3216849999999999
    vertex 46.61799154999999 -1.0342100078000027 -0.04241999999999999
  endloop
endfacet
facet normal 0.9511125845513243 -0.30884438072935666 2.6569180498396964e-17
  outer loop
    vertex 46.71078630999999 -0.748440638100003 0.3216849999999999
    vertex 46.61799154999999 -1.0342100078000027 0.3216849999999999
    vertex 46.71078630999999 -0.748440638100003 -0.04241999999999999
  endloop
endfacet
facet normal 0.9822379438746186 -0.18763960566192253 0.0
  outer loop
    vertex 46.76717056999999 -0.45328568180000295 -0.04241999999999999
    vertex 46.71078630999999 -0.748440638100003 0.3216849999999999
    vertex 46.71078630999999 -0.748440638100003 -0.04241999999999999
  endloop
endfacet
facet normal 0.9822379438746186 -0.1876396056619226 -3.8582058061366814e-17
  outer loop
    vertex 46.76717056999999 -0.45328568180000295 0.3216849999999999
    vertex 46.71078630999999 -0.748440638100003 0.3216849999999999
    vertex 46.76717056999999 -0.45328568180000295 -0.04241999999999999
  endloop
endfacet
facet normal 0.9980345659547067 -0.06266582130316545 6.329350350131722e-18
  outer loop
    vertex 46.78599999999999 -0.15340256200000307 -0.04241999999999999
    vertex 46.76717056999999 -0.45328568180000295 0.3216849999999999
    vertex 46.76717056999999 -0.45328568180000295 -0.04241999999999999
  endloop
endfacet
facet normal 0.9980345659547067 -0.06266582130316545 0.0
  outer loop
    vertex 46.78599999999999 -0.15340256200000307 0.3216849999999999
    vertex 46.76717056999999 -0.45328568180000295 0.3216849999999999
    vertex 46.78599999999999 -0.15340256200000307 -0.04241999999999999
  endloop
endfacet
facet normal 1.0 0.0 0.0
  outer loop
    vertex 46.78599999999999 20.652597437999987 -0.04241999999999999
    vertex 46.78599999999999 -0.15340256200000307 0.3216849999999999
    vertex 46.78599999999999 -0.15340256200000307 -0.04241999999999999
  endloop
endfacet
facet normal 1.0 0.0 0.0
  outer loop
    vertex 46.78599999999999 20.652597437999987 0.3216849999999999
    vertex 46.78599999999999 -0.15340256200000307 0.3216849999999999
    vertex 46.78599999999999 20.652597437999987 -0.04241999999999999
  endloop
endfacet
facet normal 0.9980350281398929 0.0626584599699278 -6.327860493696869e-18
  outer loop
    vertex 46.76717056999999 20.95251592799999 0.3216849999999999
    vertex 46.78599999999999 20.652597437999987 -0.04241999999999999
    vertex 46.76717056999999 20.95251592799999 -0.04241999999999999
  endloop
endfacet
facet normal 0.9980350281398929 0.06265845996992779 6.327860493696868e-18
  outer loop
    vertex 46.76717056999999 20.95251592799999 0.3216849999999999
    vertex 46.78599999999999 20.652597437999987 0.3216849999999999
    vertex 46.78599999999999 20.652597437999987 -0.04241999999999999
  endloop
endfacet
facet normal 0.9822353838740339 0.18765300601330479 -1.2862556510882387e-17
  outer loop
    vertex 46.71078630999999 21.247649037999988 0.3216849999999999
    vertex 46.76717056999999 20.95251592799999 -0.04241999999999999
    vertex 46.71078630999999 21.247649037999988 -0.04241999999999999
  endloop
endfacet
facet normal 0.9822353838740339 0.18765300601330476 1.2862556510882386e-17
  outer loop
    vertex 46.71078630999999 21.247649037999988 0.3216849999999999
    vertex 46.76717056999999 20.95251592799999 0.3216849999999999
    vertex 46.76717056999999 20.95251592799999 -0.04241999999999999
  endloop
endfacet
facet normal 0.9511129148083858 0.30884336367274634 -2.6568996282930313e-17
  outer loop
    vertex 46.61799154999999 21.53341944799999 0.3216849999999999
    vertex 46.71078630999999 21.247649037999988 -0.04241999999999999
    vertex 46.61799154999999 21.53341944799999 -0.04241999999999999
  endloop
endfacet
facet normal 0.9511129148083858 0.30884336367274623 0.0
  outer loop
    vertex 46.61799154999999 21.53341944799999 0.3216849999999999
    vertex 46.71078630999999 21.247649037999988 0.3216849999999999
    vertex 46.71078630999999 21.247649037999988 -0.04241999999999999
  endloop
endfacet
facet normal 0.9047716134566377 0.42589708555362604 2.793318997648186e-17
  outer loop
    vertex 46.49003465 21.80524983799999 0.3216849999999999
    vertex 46.61799154999999 21.53341944799999 -0.04241999999999999
    vertex 46.49003465 21.80524983799999 -0.04241999999999999
  endloop
endfacet
facet normal 0.9047716134566377 0.42589708555362604 2.793318997648186e-17
  outer loop
    vertex 46.49003465 21.80524983799999 0.3216849999999999
    vertex 46.61799154999999 21.53341944799999 0.3216849999999999
    vertex 46.61799154999999 21.53341944799999 -0.04241999999999999
  endloop
endfacet
facet normal 0.8443023134551316 0.5358671509752326 0.0
  outer loop
    vertex 46.328996209999985 22.05897900799999 0.3216849999999999
    vertex 46.49003465 21.80524983799999 -0.04241999999999999
    vertex 46.328996209999985 22.05897900799999 -0.04241999999999999
  endloop
endfacet
facet normal 0.8443023134551316 0.5358671509752326 -2.9918152165882993e-17
  outer loop
    vertex 46.328996209999985 22.05897900799999 0.3216849999999999
    vertex 46.49003465 21.80524983799999 0.3216849999999999
    vertex 46.49003465 21.80524983799999 -0.04241999999999999
  endloop
endfacet
facet normal 0.7705994980578138 0.6373197106578814 6.556450481846906e-17
  outer loop
    vertex 46.13747697999999 22.29054978799999 0.3216849999999999
    vertex 46.328996209999985 22.05897900799999 -0.04241999999999999
    vertex 46.13747697999999 22.29054978799999 -0.04241999999999999
  endloop
endfacet
facet normal 0.7705994980578136 0.6373197106578813 3.2782252409234534e-17
  outer loop
    vertex 46.13747697999999 22.29054978799999 0.3216849999999999
    vertex 46.328996209999985 22.05897900799999 0.3216849999999999
    vertex 46.328996209999985 22.05897900799999 -0.04241999999999999
  endloop
endfacet
facet normal 0.6845974178396931 0.7289213781247087 3.467662926161e-17
  outer loop
    vertex 45.91849382999999 22.496217097999992 0.3216849999999999
    vertex 46.13747697999999 22.29054978799999 -0.04241999999999999
    vertex 45.91849382999999 22.496217097999992 -0.04241999999999999
  endloop
endfacet
facet normal 0.6845974178396931 0.7289213781247087 0.0
  outer loop
    vertex 46.13747697999999 22.29054978799999 0.3216849999999999
    vertex 46.13747697999999 22.29054978799999 -0.04241999999999999
    vertex 45.91849382999999 22.496217097999992 0.3216849999999999
  endloop
endfacet
facet normal 0.587801137672254 0.8090054527326772 -3.1224422303725174e-17
  outer loop
    vertex 45.675375719999984 22.67286003799999 0.3216849999999999
    vertex 45.91849382999999 22.496217097999992 -0.04241999999999999
    vertex 45.675375719999984 22.67286003799999 -0.04241999999999999
  endloop
endfacet
facet normal 0.587801137672254 0.8090054527326771 0.0
  outer loop
    vertex 45.91849382999999 22.496217097999992 0.3216849999999999
    vertex 45.91849382999999 22.496217097999992 -0.04241999999999999
    vertex 45.675375719999984 22.67286003799999 0.3216849999999999
  endloop
endfacet
facet normal 0.481639595251983 0.8763693857532369 -2.8837877699102876e-17
  outer loop
    vertex 45.41207578999999 22.81756576799999 0.3216849999999999
    vertex 45.675375719999984 22.67286003799999 -0.04241999999999999
    vertex 45.41207578999999 22.81756576799999 -0.04241999999999999
  endloop
endfacet
facet normal 0.481639595251983 0.8763693857532369 -5.767575539820575e-17
  outer loop
    vertex 45.675375719999984 22.67286003799999 0.3216849999999999
    vertex 45.675375719999984 22.67286003799999 -0.04241999999999999
    vertex 45.41207578999999 22.81756576799999 0.3216849999999999
  endloop
endfacet
facet normal 0.3679860993593506 0.9298312915138369 2.716767847221887e-17
  outer loop
    vertex 45.13265120999999 22.92814965799999 0.3216849999999999
    vertex 45.41207578999999 22.81756576799999 -0.04241999999999999
    vertex 45.13265120999999 22.92814965799999 -0.04241999999999999
  endloop
endfacet
facet normal 0.36798609935935067 0.9298312915138369 2.716767847221887e-17
  outer loop
    vertex 45.41207578999999 22.81756576799999 0.3216849999999999
    vertex 45.41207578999999 22.81756576799999 -0.04241999999999999
    vertex 45.13265120999999 22.92814965799999 0.3216849999999999
  endloop
endfacet
facet normal 0.24896680088417214 0.9685120195730671 -2.609639216586723e-17
  outer loop
    vertex 44.84167929999999 23.00294722799999 0.3216849999999999
    vertex 45.13265120999999 22.92814965799999 -0.04241999999999999
    vertex 44.84167929999999 23.00294722799999 -0.04241999999999999
  endloop
endfacet
facet normal 0.24896680088417214 0.9685120195730671 -2.609639216586723e-17
  outer loop
    vertex 45.13265120999999 22.92814965799999 0.3216849999999999
    vertex 45.13265120999999 22.92814965799999 -0.04241999999999999
    vertex 44.84167929999999 23.00294722799999 0.3216849999999999
  endloop
endfacet
facet normal 0.12531279019501823 0.9921172836986256 0.0
  outer loop
    vertex 44.54352931999999 23.04060608799999 0.3216849999999999
    vertex 44.84167929999999 23.00294722799999 -0.04241999999999999
    vertex 44.54352931999999 23.04060608799999 -0.04241999999999999
  endloop
endfacet
facet normal 0.1253127901950182 0.9921172836986256 -3.8191110834810557e-17
  outer loop
    vertex 44.84167929999999 23.00294722799999 0.3216849999999999
    vertex 44.84167929999999 23.00294722799999 -0.04241999999999999
    vertex 44.54352931999999 23.04060608799999 0.3216849999999999
  endloop
endfacet
facet normal 0.0 1.0 0.0
  outer loop
    vertex 29.829109999999993 23.04060608799999 0.3216849999999999
    vertex 44.54352931999999 23.04060608799999 -0.04241999999999999
    vertex 29.829109999999993 23.04060608799999 -0.04241999999999999
  endloop
endfacet
facet normal 0.0 1.0 0.0
  outer loop
    vertex 44.54352931999999 23.04060608799999 0.3216849999999999
    vertex 44.54352931999999 23.04060608799999 -0.04241999999999999
    vertex 29.829109999999993 23.04060608799999 0.3216849999999999
  endloop
endfacet
facet normal -1.0 0.0 0.0
  outer loop
    vertex 29.829109999999993 20.652597437999987 0.3216849999999999
    vertex 29.829109999999993 16.491397437999993 1.4139999999999995
    vertex 29.829109999999993 20.652597437999987 1.4139999999999995
  endloop
endfacet
facet normal -1.0 0.0 0.0
  outer loop
    vertex 29.829109999999993 23.04060608799999 -0.04241999999999999
    vertex 29.829109999999993 20.652597437999987 0.3216849999999999
    vertex 29.829109999999993 23.04060608799999 0.3216849999999999
  endloop
endfacet
facet normal -1.0 0.0 0.0
  outer loop
    vertex 29.829109999999993 23.04060608799999 -0.04241999999999999
    vertex 29.829109999999993 16.491397437999993 -0.04241999999999999
    vertex 29.829109999999993 20.652597437999987 0.3216849999999999
  endloop
endfacet
facet normal -1.0 0.0 0.0
  outer loop
    vertex 29.829109999999993 20.652597437999987 0.3216849999999999
    vertex 29.829109999999993 16.491397437999993 -0.04241999999999999
    vertex 29.829109999999993 16.491397437999993 1.4139999999999995
  endloop
endfacet
facet normal 0.0 1.0 0.0
  outer loop
    vertex 29.829109999999993 16.491397437999993 1.4139999999999995
    vertex 29.829109999999993 16.491397437999993 -0.04241999999999999
    vertex 13.184309999999998 16.491397437999993 1.4139999999999995
  endloop
endfacet
facet normal 0.0 1.0 0.0
  outer loop
    vertex 13.184309999999998 16.491397437999993 1.4139999999999995
    vertex 29.829109999999993 16.491397437999993 -0.04241999999999999
    vertex 13.184309999999998 16.491397437999993 -0.04241999999999999
  endloop
endfacet
facet normal 1.0 0.0 0.0
  outer loop
    vertex 13.184309999999998 23.04060608799999 0.3216849999999999
    vertex 13.184309999999998 20.652597437999987 0.3216849999999999
    vertex 13.184309999999998 23.04060608799999 -0.04241999999999999
  endloop
endfacet
facet normal 1.0 0.0 0.0
  outer loop
    vertex 13.184309999999998 23.04060608799999 -0.04241999999999999
    vertex 13.184309999999998 20.652597437999987 0.3216849999999999
    vertex 13.184309999999998 16.491397437999993 -0.04241999999999999
  endloop
endfacet
facet normal 1.0 0.0 0.0
  outer loop
    vertex 13.184309999999998 20.652597437999987 1.4139999999999995
    vertex 13.184309999999998 16.491397437999993 1.4139999999999995
    vertex 13.184309999999998 20.652597437999987 0.3216849999999999
  endloop
endfacet
facet normal 1.0 0.0 0.0
  outer loop
    vertex 13.184309999999998 20.652597437999987 0.3216849999999999
    vertex 13.184309999999998 16.491397437999993 1.4139999999999995
    vertex 13.184309999999998 16.491397437999993 -0.04241999999999999
  endloop
endfacet
facet normal 0.0 1.0 0.0
  outer loop
    vertex -1.5301280453999984 23.04060608799999 0.3216849999999999
    vertex 13.184309999999998 23.04060608799999 -0.04241999999999999
    vertex -1.5301280453999984 23.04060608799999 -0.04241999999999999
  endloop
endfacet
facet normal 0.0 1.0 0.0
  outer loop
    vertex 13.184309999999998 23.04060608799999 0.3216849999999999
    vertex 13.184309999999998 23.04060608799999 -0.04241999999999999
    vertex -1.5301280453999984 23.04060608799999 0.3216849999999999
  endloop
endfacet
facet normal -0.12533043796242208 0.9921150544771243 2.546796954517678e-17
  outer loop
    vertex -1.8282353730999983 23.00294722799999 0.3216849999999999
    vertex -1.5301280453999984 23.04060608799999 -0.04241999999999999
    vertex -1.8282353730999983 23.00294722799999 -0.04241999999999999
  endloop
endfacet
facet normal -0.12533043796242208 0.9921150544771243 1.273398477258839e-17
  outer loop
    vertex -1.5301280453999984 23.04060608799999 0.3216849999999999
    vertex -1.5301280453999984 23.04060608799999 -0.04241999999999999
    vertex -1.8282353730999983 23.00294722799999 0.3216849999999999
  endloop
endfacet
facet normal -0.24891504456503522 0.9685253226370422 0.0
  outer loop
    vertex -2.1192717816999984 22.92814965799999 0.3216849999999999
    vertex -1.8282353730999983 23.00294722799999 -0.04241999999999999
    vertex -2.1192717816999984 22.92814965799999 -0.04241999999999999
  endloop
endfacet
facet normal -0.24891504456503522 0.9685253226370422 0.0
  outer loop
    vertex -1.8282353730999983 23.00294722799999 0.3216849999999999
    vertex -1.8282353730999983 23.00294722799999 -0.04241999999999999
    vertex -2.1192717816999984 22.92814965799999 0.3216849999999999
  endloop
endfacet
facet normal -0.36804177845065195 0.929809254263949 2.7176544537683174e-17
  outer loop
    vertex -2.3986474675999983 22.81756576799999 0.3216849999999999
    vertex -2.1192717816999984 22.92814965799999 -0.04241999999999999
    vertex -2.3986474675999983 22.81756576799999 -0.04241999999999999
  endloop
endfacet
facet normal -0.368041778450652 0.929809254263949 -5.435308907536635e-17
  outer loop
    vertex -2.1192717816999984 22.92814965799999 0.3216849999999999
    vertex -2.1192717816999984 22.92814965799999 -0.04241999999999999
    vertex -2.3986474675999983 22.81756576799999 0.3216849999999999
  endloop
endfacet
facet normal -0.4816279033418109 0.8763758113518261 0.0
  outer loop
    vertex -2.661955719999998 22.67286003799999 0.3216849999999999
    vertex -2.3986474675999983 22.81756576799999 -0.04241999999999999
    vertex -2.661955719999998 22.67286003799999 -0.04241999999999999
  endloop
endfacet
facet normal -0.4816279033418109 0.8763758113518261 -2.883626619466152e-17
  outer loop
    vertex -2.3986474675999983 22.81756576799999 0.3216849999999999
    vertex -2.3986474675999983 22.81756576799999 -0.04241999999999999
    vertex -2.661955719999998 22.67286003799999 0.3216849999999999
  endloop
endfacet
facet normal -0.5878340624238966 0.8089815294889114 -3.122884384869697e-17
  outer loop
    vertex -2.9050530239999985 22.496217097999992 0.3216849999999999
    vertex -2.661955719999998 22.67286003799999 -0.04241999999999999
    vertex -2.9050530239999985 22.496217097999992 -0.04241999999999999
  endloop
endfacet
facet normal -0.5878340624238965 0.8089815294889114 0.0
  outer loop
    vertex -2.661955719999998 22.67286003799999 0.3216849999999999
    vertex -2.661955719999998 22.67286003799999 -0.04241999999999999
    vertex -2.9050530239999985 22.496217097999992 0.3216849999999999
  endloop
endfacet
facet normal -0.6845110237772519 0.7290025091365726 -6.932803889027551e-17
  outer loop
    vertex -3.1240881889999983 22.29054978799999 0.3216849999999999
    vertex -2.9050530239999985 22.496217097999992 -0.04241999999999999
    vertex -3.1240881889999983 22.29054978799999 -0.04241999999999999
  endloop
endfacet
facet normal -0.6845110237772518 0.7290025091365726 -3.466401944513775e-17
  outer loop
    vertex -2.9050530239999985 22.496217097999992 0.3216849999999999
    vertex -2.9050530239999985 22.496217097999992 -0.04241999999999999
    vertex -3.1240881889999983 22.29054978799999 0.3216849999999999
  endloop
endfacet
facet normal -0.7705824965650075 0.6373402670376636 -6.556305828955254e-17
  outer loop
    vertex -3.1240881889999983 22.29054978799999 -0.04241999999999999
    vertex -3.3156178219999974 22.05897900799999 -0.04241999999999999
    vertex -3.3156178219999974 22.05897900799999 0.3216849999999999
  endloop
endfacet
facet normal -0.7705824965650075 0.6373402670376634 -9.834458743432878e-17
  outer loop
    vertex -3.1240881889999983 22.29054978799999 -0.04241999999999999
    vertex -3.3156178219999974 22.05897900799999 0.3216849999999999
    vertex -3.1240881889999983 22.29054978799999 0.3216849999999999
  endloop
endfacet
facet normal -0.8443492981828635 0.5357931155381767 0.0
  outer loop
    vertex -3.3156178219999974 22.05897900799999 -0.04241999999999999
    vertex -3.476625052999998 21.80524983799999 -0.04241999999999999
    vertex -3.476625052999998 21.80524983799999 0.3216849999999999
  endloop
endfacet
facet normal -0.8443492981828635 0.5357931155381765 -5.98396341727752e-17
  outer loop
    vertex -3.3156178219999974 22.05897900799999 -0.04241999999999999
    vertex -3.476625052999998 21.80524983799999 0.3216849999999999
    vertex -3.3156178219999974 22.05897900799999 0.3216849999999999
  endloop
endfacet
facet normal -0.9047982978349798 0.4258403929113856 -2.793401380848383e-17
  outer loop
    vertex -3.476625052999998 21.80524983799999 -0.04241999999999999
    vertex -3.6045611469999974 21.53341944799999 -0.04241999999999999
    vertex -3.6045611469999974 21.53341944799999 0.3216849999999999
  endloop
endfacet
facet normal -0.9047982978349798 0.4258403929113856 0.0
  outer loop
    vertex -3.476625052999998 21.80524983799999 -0.04241999999999999
    vertex -3.6045611469999974 21.53341944799999 0.3216849999999999
    vertex -3.476625052999998 21.80524983799999 0.3216849999999999
  endloop
endfacet
facet normal -0.9510620519643639 0.3089999568176891 -5.3135150895449625e-17
  outer loop
    vertex -3.6045611469999974 21.53341944799999 -0.04241999999999999
    vertex -3.6974079219999973 21.247649037999988 -0.04241999999999999
    vertex -3.6974079219999973 21.247649037999988 0.3216849999999999
  endloop
endfacet
facet normal -0.9510620519643639 0.3089999568176892 2.656757544772482e-17
  outer loop
    vertex -3.6045611469999974 21.53341944799999 -0.04241999999999999
    vertex -3.6974079219999973 21.247649037999988 0.3216849999999999
    vertex -3.6045611469999974 21.53341944799999 0.3216849999999999
  endloop
endfacet
facet normal -0.9822864027084033 0.18738576000909055 1.286322461208396e-17
  outer loop
    vertex -3.6974079219999973 21.247649037999988 -0.04241999999999999
    vertex -3.7537089579999976 20.95251592799999 -0.04241999999999999
    vertex -3.7537089579999976 20.95251592799999 0.3216849999999999
  endloop
endfacet
facet normal -0.9822864027084033 0.18738576000909055 2.572644922416792e-17
  outer loop
    vertex -3.6974079219999973 21.247649037999988 -0.04241999999999999
    vertex -3.7537089579999976 20.95251592799999 0.3216849999999999
    vertex -3.6974079219999973 21.247649037999988 0.3216849999999999
  endloop
endfacet
facet normal 0.0 1.0 0.0
  outer loop
    vertex -1.3798899999999983 20.652597437999987 1.4139999999999995
    vertex 13.184309999999998 20.652597437999987 0.3216849999999999
    vertex -1.3798899999999983 20.652597437999987 0.3216849999999999
  endloop
endfacet
facet normal 0.0 1.0 0.0
  outer loop
    vertex 13.184309999999998 20.652597437999987 1.4139999999999995
    vertex 13.184309999999998 20.652597437999987 0.3216849999999999
    vertex -1.3798899999999983 20.652597437999987 1.4139999999999995
  endloop
endfacet
facet normal -1.0 0.0 0.0
  outer loop
    vertex -1.3798899999999983 20.652597437999987 0.3216849999999999
    vertex -1.3798899999999983 -0.15340256200000307 0.3216849999999999
    vertex -1.3798899999999983 -0.15340256200000307 1.4139999999999995
  endloop
endfacet
facet normal -1.0 0.0 0.0
  outer loop
    vertex -1.3798899999999983 20.652597437999987 0.3216849999999999
    vertex -1.3798899999999983 -0.15340256200000307 1.4139999999999995
    vertex -1.3798899999999983 20.652597437999987 1.4139999999999995
  endloop
endfacet
facet normal 0.0 -1.0 0.0
  outer loop
    vertex -1.3798899999999983 -0.15340256200000307 1.4139999999999995
    vertex -1.3798899999999983 -0.15340256200000307 0.3216849999999999
    vertex 44.39330999999999 -0.15340256200000307 0.3216849999999999
  endloop
endfacet
facet normal 0.0 -1.0 0.0
  outer loop
    vertex -1.3798899999999983 -0.15340256200000307 1.4139999999999995
    vertex 44.39330999999999 -0.15340256200000307 0.3216849999999999
    vertex 44.39330999999999 -0.15340256200000307 1.4139999999999995
  endloop
endfacet
facet normal 1.0 0.0 0.0
  outer loop
    vertex 44.39330999999999 20.652597437999987 0.3216849999999999
    vertex 44.39330999999999 -0.15340256200000307 1.4139999999999995
    vertex 44.39330999999999 -0.15340256200000307 0.3216849999999999
  endloop
endfacet
facet normal 1.0 0.0 0.0
  outer loop
    vertex 44.39330999999999 20.652597437999987 1.4139999999999995
    vertex 44.39330999999999 -0.15340256200000307 1.4139999999999995
    vertex 44.39330999999999 20.652597437999987 0.3216849999999999
  endloop
endfacet
facet normal 0.0 1.0 0.0
  outer loop
    vertex 29.829109999999993 20.652597437999987 1.4139999999999995
    vertex 44.39330999999999 20.652597437999987 0.3216849999999999
    vertex 29.829109999999993 20.652597437999987 0.3216849999999999
  endloop
endfacet
facet normal 0.0 1.0 0.0
  outer loop
    vertex 44.39330999999999 20.652597437999987 1.4139999999999995
    vertex 44.39330999999999 20.652597437999987 0.3216849999999999
    vertex 29.829109999999993 20.652597437999987 1.4139999999999995
  endloop
endfacet
facet normal 0.0 0.0 1.0
  outer loop
    vertex 44.39330999999999 -0.15340256200000307 1.4139999999999995
    vertex -1.3798899999999983 20.652597437999987 1.4139999999999995
    vertex -1.3798899999999983 -0.15340256200000307 1.4139999999999995
  endloop
endfacet
facet normal 0.0 0.0 1.0
  outer loop
    vertex 44.39330999999999 -0.15340256200000307 1.4139999999999995
    vertex 13.184309999999998 16.491397437999993 1.4139999999999995
    vertex -1.3798899999999983 20.652597437999987 1.4139999999999995
  endloop
endfacet
facet normal 0.0 0.0 1.0
  outer loop
    vertex 44.39330999999999 20.652597437999987 1.4139999999999995
    vertex 29.829109999999993 20.652597437999987 1.4139999999999995
    vertex 44.39330999999999 -0.15340256200000307 1.4139999999999995
  endloop
endfacet
facet normal 0.0 0.0 1.0
  outer loop
    vertex 44.39330999999999 -0.15340256200000307 1.4139999999999995
    vertex 29.829109999999993 20.652597437999987 1.4139999999999995
    vertex 29.829109999999993 16.491397437999993 1.4139999999999995
  endloop
endfacet
facet normal 0.0 0.0 1.0
  outer loop
    vertex 44.39330999999999 -0.15340256200000307 1.4139999999999995
    vertex 29.829109999999993 16.491397437999993 1.4139999999999995
    vertex 13.184309999999998 16.491397437999993 1.4139999999999995
  endloop
endfacet
facet normal 0.0 0.0 1.0
  outer loop
    vertex 13.184309999999998 20.652597437999987 1.4139999999999995
    vertex -1.3798899999999983 20.652597437999987 1.4139999999999995
    vertex 13.184309999999998 16.491397437999993 1.4139999999999995
  endloop
endfacet
endsolid hc-sr04-back 42.5
