solid geocache_micro
facet normal -1.0 0.0 0.0
outer loop
vertex 27.9703863610066 15.9637504944356 3.0
vertex 27.9703863610066 -0.0362495055643698 0.0
vertex 27.9703863610066 -0.0362495055643698 3.0
endloop
endfacet
facet normal -1.0 0.0 0.0
outer loop
vertex 27.9703863610066 -0.0362495055643698 0.0
vertex 27.9703863610066 15.9637504944356 3.0
vertex 27.9703863610066 15.9637504944356 0.0
endloop
endfacet
facet normal 0.0 0.0 1.0
outer loop
vertex 27.9703863610066 -0.0362495055643698 3.0
vertex 29.0255834518052 7.0864178594855 3.0
vertex 27.9703863610066 15.9637504944356 3.0
endloop
endfacet
facet normal 0.0 0.0 1.0
outer loop
vertex 29.0255834518052 7.0864178594855 3.0
vertex 27.9703863610066 -0.0362495055643698 3.0
vertex 29.1903042331062 6.22292128428164 3.0
endloop
endfacet
facet normal 0.0 0.0 1.0
outer loop
vertex 29.1903042331062 6.22292128428164 3.0
vertex 27.9703863610066 -0.0362495055643698 3.0
vertex 29.4619509597888 5.38687862564288 3.0
endloop
endfacet
facet normal 0.0 0.0 1.0
outer loop
vertex 29.4619509597888 5.38687862564288 3.0
vertex 27.9703863610066 -0.0362495055643698 3.0
vertex 29.8362396006995 4.59147477572362 3.0
endloop
endfacet
facet normal 0.0 0.0 1.0
outer loop
vertex 29.8362396006995 4.59147477572362 3.0
vertex 27.9703863610066 -0.0362495055643698 3.0
vertex 30.3072674003819 3.84925372838831 3.0
endloop
endfacet
facet normal 0.0 0.0 1.0
outer loop
vertex 30.3072674003819 3.84925372838831 3.0
vertex 27.9703863610066 -0.0362495055643698 3.0
vertex 30.8676059690567 3.17192075293481 3.0
endloop
endfacet
facet normal 0.0 0.0 1.0
outer loop
vertex 30.8676059690567 3.17192075293481 3.0
vertex 27.9703863610066 -0.0362495055643698 3.0
vertex 31.5084184327658 2.5701577950051 3.0
endloop
endfacet
facet normal 0.0 0.0 1.0
outer loop
vertex 31.5084184327658 2.5701577950051 3.0
vertex 27.9703863610066 -0.0362495055643698 3.0
vertex 32.2195987961536 2.05345501592152 3.0
endloop
endfacet
facet normal 0.0 0.0 1.0
outer loop
vertex 32.2195987961536 2.05345501592152 3.0
vertex 27.9703863610066 -0.0362495055643698 3.0
vertex 32.9899313200511 1.62996112717349 3.0
endloop
endfacet
facet normal 0.0 0.0 1.0
outer loop
vertex 32.9899313200511 1.62996112717349 3.0
vertex 27.9703863610066 -0.0362495055643698 3.0
vertex 33.807267400382 1.30635488036954 3.0
endloop
endfacet
facet normal 0.0 0.0 1.0
outer loop
vertex 33.807267400382 1.30635488036954 3.0
vertex 27.9703863610066 -0.0362495055643698 3.0
vertex 34.6587171589065 1.0877397393348 3.0
endloop
endfacet
facet normal 0.0 0.0 1.0
outer loop
vertex 34.6587171589065 1.0877397393348 3.0
vertex 27.9703863610066 -0.0362495055643698 3.0
vertex 35.5308527243014 0.977563395437724 3.0
endloop
endfacet
facet normal 0.0 0.0 1.0
outer loop
vertex 35.5308527243014 0.977563395437724 3.0
vertex 27.9703863610066 -0.0362495055643698 3.0
vertex 43.9703863610066 -0.0362495055643698 3.0
endloop
endfacet
facet normal 0.0 0.0 1.0
outer loop
vertex 27.9703863610066 15.9637504944356 3.0
vertex 29.0255834518052 7.0864178594855 3.0
vertex 28.9703863610066 7.96375049443563 3.0
endloop
endfacet
facet normal 0.0 0.0 1.0
outer loop
vertex 35.5308527243014 0.977563395437724 3.0
vertex 43.9703863610066 -0.0362495055643698 3.0
vertex 36.4099199977118 0.977563395437727 3.0
endloop
endfacet
facet normal 0.0 0.0 1.0
outer loop
vertex 36.4099199977118 0.977563395437727 3.0
vertex 43.9703863610066 -0.0362495055643698 3.0
vertex 37.2820555631067 1.08773973933481 3.0
endloop
endfacet
facet normal 0.0 0.0 1.0
outer loop
vertex 37.2820555631067 1.08773973933481 3.0
vertex 43.9703863610066 -0.0362495055643698 3.0
vertex 38.1335053216312 1.30635488036955 3.0
endloop
endfacet
facet normal 0.0 0.0 1.0
outer loop
vertex 38.1335053216312 1.30635488036955 3.0
vertex 43.9703863610066 -0.0362495055643698 3.0
vertex 38.9508414019621 1.6299611271735 3.0
endloop
endfacet
facet normal 0.0 0.0 1.0
outer loop
vertex 38.9508414019621 1.6299611271735 3.0
vertex 43.9703863610066 -0.0362495055643698 3.0
vertex 39.7211739258596 2.05345501592153 3.0
endloop
endfacet
facet normal 0.0 0.0 1.0
outer loop
vertex 39.7211739258596 2.05345501592153 3.0
vertex 43.9703863610066 -0.0362495055643698 3.0
vertex 40.4323542892474 2.5701577950051 3.0
endloop
endfacet
facet normal 0.0 0.0 1.0
outer loop
vertex 40.4323542892474 2.5701577950051 3.0
vertex 43.9703863610066 -0.0362495055643698 3.0
vertex 41.0731667529565 3.17192075293482 3.0
endloop
endfacet
facet normal 0.0 0.0 1.0
outer loop
vertex 41.0731667529565 3.17192075293482 3.0
vertex 43.9703863610066 -0.0362495055643698 3.0
vertex 41.6335053216312 3.84925372838831 3.0
endloop
endfacet
facet normal 0.0 0.0 1.0
outer loop
vertex 41.6335053216312 3.84925372838831 3.0
vertex 43.9703863610066 -0.0362495055643698 3.0
vertex 42.1045331213136 4.59147477572363 3.0
endloop
endfacet
facet normal 0.0 0.0 1.0
outer loop
vertex 42.1045331213136 4.59147477572363 3.0
vertex 43.9703863610066 -0.0362495055643698 3.0
vertex 42.4788217622243 5.38687862564288 3.0
endloop
endfacet
facet normal 0.0 0.0 1.0
outer loop
vertex 42.4788217622243 5.38687862564288 3.0
vertex 43.9703863610066 -0.0362495055643698 3.0
vertex 42.750468488907 6.22292128428164 3.0
endloop
endfacet
facet normal 0.0 0.0 1.0
outer loop
vertex 42.750468488907 6.22292128428164 3.0
vertex 43.9703863610066 -0.0362495055643698 3.0
vertex 42.9151892702079 7.0864178594855 3.0
endloop
endfacet
facet normal 0.0 0.0 1.0
outer loop
vertex 42.9151892702079 7.0864178594855 3.0
vertex 43.9703863610066 -0.0362495055643698 3.0
vertex 42.9703863610066 7.96375049443563 3.0
endloop
endfacet
facet normal 0.0 0.0 1.0
outer loop
vertex 27.9703863610066 15.9637504944356 3.0
vertex 35.5308527243014 14.9499375934335 3.0
vertex 43.9703863610066 15.9637504944356 3.0
endloop
endfacet
facet normal 0.0 0.0 1.0
outer loop
vertex 35.5308527243014 14.9499375934335 3.0
vertex 27.9703863610066 15.9637504944356 3.0
vertex 34.6587171589065 14.8397612495364 3.0
endloop
endfacet
facet normal 0.0 0.0 1.0
outer loop
vertex 34.6587171589065 14.8397612495364 3.0
vertex 27.9703863610066 15.9637504944356 3.0
vertex 33.807267400382 14.6211461085017 3.0
endloop
endfacet
facet normal 0.0 0.0 1.0
outer loop
vertex 33.807267400382 14.6211461085017 3.0
vertex 27.9703863610066 15.9637504944356 3.0
vertex 32.9899313200511 14.2975398616978 3.0
endloop
endfacet
facet normal 0.0 0.0 1.0
outer loop
vertex 32.9899313200511 14.2975398616978 3.0
vertex 27.9703863610066 15.9637504944356 3.0
vertex 32.2195987961536 13.8740459729497 3.0
endloop
endfacet
facet normal 0.0 0.0 1.0
outer loop
vertex 32.2195987961536 13.8740459729497 3.0
vertex 27.9703863610066 15.9637504944356 3.0
vertex 31.5084184327658 13.3573431938662 3.0
endloop
endfacet
facet normal 0.0 0.0 1.0
outer loop
vertex 31.5084184327658 13.3573431938662 3.0
vertex 27.9703863610066 15.9637504944356 3.0
vertex 30.8676059690567 12.7555802359364 3.0
endloop
endfacet
facet normal 0.0 0.0 1.0
outer loop
vertex 30.8676059690567 12.7555802359364 3.0
vertex 27.9703863610066 15.9637504944356 3.0
vertex 30.3072674003819 12.0782472604829 3.0
endloop
endfacet
facet normal 0.0 0.0 1.0
outer loop
vertex 30.3072674003819 12.0782472604829 3.0
vertex 27.9703863610066 15.9637504944356 3.0
vertex 29.8362396006995 11.3360262131476 3.0
endloop
endfacet
facet normal 0.0 0.0 1.0
outer loop
vertex 29.8362396006995 11.3360262131476 3.0
vertex 27.9703863610066 15.9637504944356 3.0
vertex 29.4619509597888 10.5406223632284 3.0
endloop
endfacet
facet normal 0.0 0.0 1.0
outer loop
vertex 29.4619509597888 10.5406223632284 3.0
vertex 27.9703863610066 15.9637504944356 3.0
vertex 29.1903042331062 9.70457970458961 3.0
endloop
endfacet
facet normal 0.0 0.0 1.0
outer loop
vertex 29.1903042331062 9.70457970458961 3.0
vertex 27.9703863610066 15.9637504944356 3.0
vertex 29.0255834518052 8.84108312938575 3.0
endloop
endfacet
facet normal 0.0 0.0 1.0
outer loop
vertex 29.0255834518052 8.84108312938575 3.0
vertex 27.9703863610066 15.9637504944356 3.0
vertex 28.9703863610066 7.96375049443563 3.0
endloop
endfacet
facet normal 0.0 0.0 1.0
outer loop
vertex 43.9703863610066 15.9637504944356 3.0
vertex 35.5308527243014 14.9499375934335 3.0
vertex 36.4099199977118 14.9499375934335 3.0
endloop
endfacet
facet normal 0.0 0.0 1.0
outer loop
vertex 43.9703863610066 15.9637504944356 3.0
vertex 36.4099199977118 14.9499375934335 3.0
vertex 37.2820555631067 14.8397612495364 3.0
endloop
endfacet
facet normal 0.0 0.0 1.0
outer loop
vertex 43.9703863610066 15.9637504944356 3.0
vertex 37.2820555631067 14.8397612495364 3.0
vertex 38.1335053216312 14.6211461085017 3.0
endloop
endfacet
facet normal 0.0 0.0 1.0
outer loop
vertex 43.9703863610066 15.9637504944356 3.0
vertex 38.1335053216312 14.6211461085017 3.0
vertex 38.9508414019621 14.2975398616978 3.0
endloop
endfacet
facet normal 0.0 0.0 1.0
outer loop
vertex 43.9703863610066 15.9637504944356 3.0
vertex 38.9508414019621 14.2975398616978 3.0
vertex 39.7211739258596 13.8740459729497 3.0
endloop
endfacet
facet normal 0.0 0.0 1.0
outer loop
vertex 43.9703863610066 15.9637504944356 3.0
vertex 39.7211739258596 13.8740459729497 3.0
vertex 40.4323542892474 13.3573431938661 3.0
endloop
endfacet
facet normal 0.0 0.0 1.0
outer loop
vertex 43.9703863610066 15.9637504944356 3.0
vertex 40.4323542892474 13.3573431938661 3.0
vertex 41.0731667529565 12.7555802359364 3.0
endloop
endfacet
facet normal 0.0 0.0 1.0
outer loop
vertex 43.9703863610066 15.9637504944356 3.0
vertex 41.0731667529565 12.7555802359364 3.0
vertex 41.6335053216312 12.0782472604829 3.0
endloop
endfacet
facet normal 0.0 0.0 1.0
outer loop
vertex 43.9703863610066 15.9637504944356 3.0
vertex 41.6335053216312 12.0782472604829 3.0
vertex 42.1045331213136 11.3360262131476 3.0
endloop
endfacet
facet normal 0.0 0.0 1.0
outer loop
vertex 43.9703863610066 15.9637504944356 3.0
vertex 42.1045331213136 11.3360262131476 3.0
vertex 42.4788217622243 10.5406223632284 3.0
endloop
endfacet
facet normal 0.0 0.0 1.0
outer loop
vertex 43.9703863610066 15.9637504944356 3.0
vertex 42.4788217622243 10.5406223632284 3.0
vertex 42.750468488907 9.70457970458961 3.0
endloop
endfacet
facet normal 0.0 0.0 1.0
outer loop
vertex 43.9703863610066 15.9637504944356 3.0
vertex 42.750468488907 9.70457970458961 3.0
vertex 42.9151892702079 8.84108312938576 3.0
endloop
endfacet
facet normal 0.0 0.0 1.0
outer loop
vertex 43.9703863610066 15.9637504944356 3.0
vertex 42.9151892702079 8.84108312938576 3.0
vertex 42.9703863610066 7.96375049443563 3.0
endloop
endfacet
facet normal 0.0 0.0 1.0
outer loop
vertex 43.9703863610066 15.9637504944356 3.0
vertex 42.9703863610066 7.96375049443563 3.0
vertex 43.9703863610066 -0.0362495055643698 3.0
endloop
endfacet
facet normal 1.0 0.0 0.0
outer loop
vertex 43.9703863610066 15.9637504944356 0.0
vertex 43.9703863610066 -0.0362495055643698 3.0
vertex 43.9703863610066 -0.0362495055643698 0.0
endloop
endfacet
facet normal 1.0 0.0 0.0
outer loop
vertex 43.9703863610066 -0.0362495055643698 3.0
vertex 43.9703863610066 15.9637504944356 0.0
vertex 43.9703863610066 15.9637504944356 3.0
endloop
endfacet
facet normal 0.0 0.0 -1.0
outer loop
vertex 43.9703863610066 15.9637504944356 0.0
vertex 27.9703863610066 -0.0362495055643698 0.0
vertex 27.9703863610066 15.9637504944356 0.0
endloop
endfacet
facet normal 0.0 0.0 -1.0
outer loop
vertex 27.9703863610066 -0.0362495055643698 0.0
vertex 43.9703863610066 15.9637504944356 0.0
vertex 43.9703863610066 -0.0362495055643698 0.0
endloop
endfacet
facet normal -0.0 -1.0 -0.0
outer loop
vertex 43.9703863610066 -0.0362495055643698 3.0
vertex 27.9703863610066 -0.0362495055643698 0.0
vertex 43.9703863610066 -0.0362495055643698 0.0
endloop
endfacet
facet normal -0.0 -1.0 -0.0
outer loop
vertex 27.9703863610066 -0.0362495055643698 0.0
vertex 43.9703863610066 -0.0362495055643698 3.0
vertex 27.9703863610066 -0.0362495055643698 3.0
endloop
endfacet
facet normal 0.0 1.0 0.0
outer loop
vertex 27.9703863610066 15.9637504944356 3.0
vertex 43.9703863610066 15.9637504944356 0.0
vertex 27.9703863610066 15.9637504944356 0.0
endloop
endfacet
facet normal 0.0 1.0 0.0
outer loop
vertex 43.9703863610066 15.9637504944356 0.0
vertex 27.9703863610066 15.9637504944356 3.0
vertex 43.9703863610066 15.9637504944356 3.0
endloop
endfacet
facet normal -0.368124552684677 0.929776485888252 3.13098386203368e-017
outer loop
vertex 32.9899313200511 14.2975398616978 29.9
vertex 33.807267400382 14.6211461085017 3.0
vertex 32.9899313200511 14.2975398616978 3.0
endloop
endfacet
facet normal -0.368124552684677 0.929776485888252 3.13098386203368e-017
outer loop
vertex 33.807267400382 14.6211461085017 3.0
vertex 32.9899313200511 14.2975398616978 29.9
vertex 33.807267400382 14.6211461085017 29.9
endloop
endfacet
facet normal -0.481753674101715 0.876306680043864 -9.84878053837363e-018
outer loop
vertex 32.2195987961536 13.8740459729497 29.9
vertex 32.9899313200511 14.2975398616978 3.0
vertex 32.2195987961536 13.8740459729497 3.0
endloop
endfacet
facet normal -0.481753674101715 0.876306680043864 -9.84878053837363e-018
outer loop
vertex 32.9899313200511 14.2975398616978 3.0
vertex 32.2195987961536 13.8740459729497 29.9
vertex 32.9899313200511 14.2975398616978 29.9
endloop
endfacet
facet normal -0.587785252292473 0.809016994374947 4.19175200445466e-017
outer loop
vertex 31.5084184327658 13.3573431938662 3.0
vertex 32.2195987961536 13.8740459729497 29.9
vertex 32.2195987961536 13.8740459729497 3.0
endloop
endfacet
facet normal -0.587785252292473 0.809016994374947 4.19175200445466e-017
outer loop
vertex 32.2195987961536 13.8740459729497 29.9
vertex 31.5084184327658 13.3573431938662 3.0
vertex 31.5084184327658 13.3573431938662 29.9
endloop
endfacet
facet normal -0.684547105928687 0.728968627421413 1.10329217437683e-016
outer loop
vertex 30.8676059690567 12.7555802359364 29.9
vertex 31.5084184327658 13.3573431938662 3.0
vertex 30.8676059690567 12.7555802359364 3.0
endloop
endfacet
facet normal -0.684547105928687 0.728968627421413 1.10329217437683e-016
outer loop
vertex 31.5084184327658 13.3573431938662 3.0
vertex 30.8676059690567 12.7555802359364 29.9
vertex 31.5084184327658 13.3573431938662 29.9
endloop
endfacet
facet normal -0.77051324277579 0.637423989748688 8.04409163409685e-017
outer loop
vertex 30.8676059690567 12.7555802359364 29.9
vertex 30.3072674003819 12.0782472604829 3.0
vertex 30.3072674003819 12.0782472604829 29.9
endloop
endfacet
facet normal -0.77051324277579 0.637423989748688 8.04409163409685e-017
outer loop
vertex 30.3072674003819 12.0782472604829 3.0
vertex 30.8676059690567 12.7555802359364 29.9
vertex 30.8676059690567 12.7555802359364 3.0
endloop
endfacet
facet normal -0.844327925502017 0.535826794978994 -4.69487486594316e-017
outer loop
vertex 30.3072674003819 12.0782472604829 29.9
vertex 29.8362396006995 11.3360262131476 3.0
vertex 29.8362396006995 11.3360262131476 29.9
endloop
endfacet
facet normal -0.844327925502017 0.535826794978994 -4.69487486594316e-017
outer loop
vertex 29.8362396006995 11.3360262131476 3.0
vertex 30.3072674003819 12.0782472604829 29.9
vertex 30.3072674003819 12.0782472604829 3.0
endloop
endfacet
facet normal -0.904827052466021 0.425779291565069 -1.67235922762696e-016
outer loop
vertex 29.4619509597888 10.5406223632284 29.9
vertex 29.8362396006995 11.3360262131476 3.0
vertex 29.4619509597888 10.5406223632284 3.0
endloop
endfacet
facet normal -0.904827052466021 0.425779291565069 -1.67235922762696e-016
outer loop
vertex 29.8362396006995 11.3360262131476 3.0
vertex 29.4619509597888 10.5406223632284 29.9
vertex 29.8362396006995 11.3360262131476 29.9
endloop
endfacet
facet normal -0.951056516295153 0.309016994374949 -9.96572168015922e-017
outer loop
vertex 29.4619509597888 10.5406223632284 29.9
vertex 29.1903042331062 9.70457970458961 3.0
vertex 29.1903042331062 9.70457970458961 29.9
endloop
endfacet
facet normal -0.951056516295153 0.309016994374949 -9.96572168015922e-017
outer loop
vertex 29.1903042331062 9.70457970458961 3.0
vertex 29.4619509597888 10.5406223632284 29.9
vertex 29.4619509597888 10.5406223632284 3.0
endloop
endfacet
facet normal -0.982287250728689 0.187381314585726 -9.30760771351916e-017
outer loop
vertex 29.1903042331062 9.70457970458961 29.9
vertex 29.0255834518052 8.84108312938575 3.0
vertex 29.0255834518052 8.84108312938575 29.9
endloop
endfacet
facet normal -0.982287250728689 0.187381314585726 -9.30760771351916e-017
outer loop
vertex 29.0255834518052 8.84108312938575 3.0
vertex 29.1903042331062 9.70457970458961 29.9
vertex 29.1903042331062 9.70457970458961 3.0
endloop
endfacet
facet normal -0.998026728428271 0.0627905195293155 -9.97226279585273e-017
outer loop
vertex 29.0255834518052 8.84108312938575 29.9
vertex 28.9703863610066 7.96375049443563 3.0
vertex 28.9703863610066 7.96375049443563 29.9
endloop
endfacet
facet normal -0.998026728428271 0.0627905195293155 -9.97226279585273e-017
outer loop
vertex 28.9703863610066 7.96375049443563 3.0
vertex 29.0255834518052 8.84108312938575 29.9
vertex 29.0255834518052 8.84108312938575 3.0
endloop
endfacet
facet normal -0.998026728428271 -0.062790519529315 -1.07880304694591e-016
outer loop
vertex 28.9703863610066 7.96375049443563 29.9
vertex 29.0255834518052 7.0864178594855 3.0
vertex 29.0255834518052 7.0864178594855 29.9
endloop
endfacet
facet normal -0.998026728428271 -0.062790519529315 -1.07880304694591e-016
outer loop
vertex 29.0255834518052 7.0864178594855 3.0
vertex 28.9703863610066 7.96375049443563 29.9
vertex 28.9703863610066 7.96375049443563 3.0
endloop
endfacet
facet normal -0.98228725072869 -0.18738131458572 1.09985197787148e-016
outer loop
vertex 29.1903042331062 6.22292128428164 29.9
vertex 29.0255834518052 7.0864178594855 3.0
vertex 29.1903042331062 6.22292128428164 3.0
endloop
endfacet
facet normal -0.98228725072869 -0.18738131458572 1.09985197787148e-016
outer loop
vertex 29.0255834518052 7.0864178594855 3.0
vertex 29.1903042331062 6.22292128428164 29.9
vertex 29.0255834518052 7.0864178594855 29.9
endloop
endfacet
facet normal -0.951056516295152 -0.309016994374953 2.03615914540384e-016
outer loop
vertex 29.1903042331062 6.22292128428164 29.9
vertex 29.4619509597888 5.38687862564288 3.0
vertex 29.4619509597888 5.38687862564288 29.9
endloop
endfacet
facet normal -0.951056516295152 -0.309016994374953 2.03615914540384e-016
outer loop
vertex 29.4619509597888 5.38687862564288 3.0
vertex 29.1903042331062 6.22292128428164 29.9
vertex 29.1903042331062 6.22292128428164 3.0
endloop
endfacet
facet normal -0.904827052466021 -0.42577929156507 -5.26826546963882e-018
outer loop
vertex 29.8362396006995 4.59147477572362 29.9
vertex 29.4619509597888 5.38687862564288 3.0
vertex 29.8362396006995 4.59147477572362 3.0
endloop
endfacet
facet normal -0.904827052466021 -0.42577929156507 -5.26826546963882e-018
outer loop
vertex 29.4619509597888 5.38687862564288 3.0
vertex 29.8362396006995 4.59147477572362 29.9
vertex 29.4619509597888 5.38687862564288 29.9
endloop
endfacet
facet normal -0.844327925502017 -0.535826794978994 1.16977158615221e-016
outer loop
vertex 30.307267400382 3.84925372838831 29.9
vertex 29.8362396006995 4.59147477572362 3.0
vertex 30.3072674003819 3.84925372838831 3.0
endloop
endfacet
facet normal -0.844327925502017 -0.535826794978994 1.16977158615221e-016
outer loop
vertex 29.8362396006995 4.59147477572362 3.0
vertex 30.307267400382 3.84925372838831 29.9
vertex 29.8362396006995 4.59147477572362 29.9
endloop
endfacet
facet normal 0.982287250728689 -0.187381314585723 2.13104859340384e-016
outer loop
vertex 42.9151892702079 7.0864178594855 3.0
vertex 42.750468488907 6.22292128428164 29.9
vertex 42.750468488907 6.22292128428164 3.0
endloop
endfacet
facet normal 0.982287250728689 -0.187381314585723 2.13104859340384e-016
outer loop
vertex 42.750468488907 6.22292128428164 29.9
vertex 42.9151892702079 7.0864178594855 3.0
vertex 42.9151892702079 7.0864178594855 29.9
endloop
endfacet
facet normal 0.998026728428272 -0.0627905195293085 1.0457838792047e-016
outer loop
vertex 42.9703863610066 7.96375049443563 3.0
vertex 42.9151892702079 7.0864178594855 29.9
vertex 42.9151892702079 7.0864178594855 3.0
endloop
endfacet
facet normal 0.998026728428272 -0.0627905195293085 1.0457838792047e-016
outer loop
vertex 42.9151892702079 7.0864178594855 29.9
vertex 42.9703863610066 7.96375049443563 3.0
vertex 42.9703863610066 7.96375049443563 29.9
endloop
endfacet
facet normal 0.998026728428271 0.0627905195293153 -9.98197431577662e-017
outer loop
vertex 42.9703863610066 7.96375049443563 3.0
vertex 42.9151892702079 8.84108312938576 29.9
vertex 42.9703863610066 7.96375049443563 29.9
endloop
endfacet
facet normal 0.998026728428271 0.0627905195293153 -9.98197431577662e-017
outer loop
vertex 42.9151892702079 8.84108312938576 29.9
vertex 42.9703863610066 7.96375049443563 3.0
vertex 42.9151892702079 8.84108312938576 3.0
endloop
endfacet
facet normal 0.98228725072869 0.18738131458572 -9.30760771351921e-017
outer loop
vertex 42.9151892702079 8.84108312938576 3.0
vertex 42.750468488907 9.70457970458961 29.9
vertex 42.9151892702079 8.84108312938576 29.9
endloop
endfacet
facet normal 0.98228725072869 0.18738131458572 -9.30760771351921e-017
outer loop
vertex 42.750468488907 9.70457970458961 29.9
vertex 42.9151892702079 8.84108312938576 3.0
vertex 42.750468488907 9.70457970458961 3.0
endloop
endfacet
facet normal 0.951056516295153 0.309016994374949 1.24032275445727e-016
outer loop
vertex 42.4788217622243 10.5406223632284 3.0
vertex 42.750468488907 9.70457970458961 29.9
vertex 42.750468488907 9.70457970458961 3.0
endloop
endfacet
facet normal 0.951056516295153 0.309016994374949 1.24032275445727e-016
outer loop
vertex 42.750468488907 9.70457970458961 29.9
vertex 42.4788217622243 10.5406223632284 3.0
vertex 42.4788217622243 10.5406223632284 29.9
endloop
endfacet
facet normal 0.904827052466019 0.425779291565074 1.61983410242226e-016
outer loop
vertex 42.4788217622243 10.5406223632284 3.0
vertex 42.1045331213136 11.3360262131476 29.9
vertex 42.4788217622243 10.5406223632284 29.9
endloop
endfacet
facet normal 0.904827052466019 0.425779291565074 1.61983410242226e-016
outer loop
vertex 42.1045331213136 11.3360262131476 29.9
vertex 42.4788217622243 10.5406223632284 3.0
vertex 42.1045331213136 11.3360262131476 3.0
endloop
endfacet
facet normal 0.844327925502014 0.535826794978998 2.77627424085083e-017
outer loop
vertex 42.1045331213136 11.3360262131476 3.0
vertex 41.6335053216312 12.0782472604829 29.9
vertex 42.1045331213136 11.3360262131476 29.9
endloop
endfacet
facet normal 0.844327925502014 0.535826794978998 2.77627424085083e-017
outer loop
vertex 41.6335053216312 12.0782472604829 29.9
vertex 42.1045331213136 11.3360262131476 3.0
vertex 41.6335053216312 12.0782472604829 3.0
endloop
endfacet
facet normal 0.770513242775791 0.637423989748688 -1.67598626333693e-017
outer loop
vertex 41.0731667529565 12.7555802359364 3.0
vertex 41.6335053216312 12.0782472604829 29.9
vertex 41.6335053216312 12.0782472604829 3.0
endloop
endfacet
facet normal 0.770513242775791 0.637423989748688 -1.67598626333693e-017
outer loop
vertex 41.6335053216312 12.0782472604829 29.9
vertex 41.0731667529565 12.7555802359364 3.0
vertex 41.0731667529565 12.7555802359364 29.9
endloop
endfacet
facet normal 0.684547105928688 0.728968627421412 -5.20129950565978e-018
outer loop
vertex 40.4323542892474 13.3573431938662 29.9
vertex 41.0731667529565 12.7555802359364 3.0
vertex 40.4323542892474 13.3573431938661 3.0
endloop
endfacet
facet normal 0.684547105928688 0.728968627421412 -5.20129950565978e-018
outer loop
vertex 41.0731667529565 12.7555802359364 3.0
vertex 40.4323542892474 13.3573431938662 29.9
vertex 41.0731667529565 12.7555802359364 29.9
endloop
endfacet
facet normal 0.587785252292474 0.809016994374947 4.27142391357139e-017
outer loop
vertex 39.7211739258596 13.8740459729497 29.9
vertex 40.4323542892474 13.3573431938661 3.0
vertex 39.7211739258596 13.8740459729497 3.0
endloop
endfacet
facet normal 0.587785252292474 0.809016994374947 4.27142391357139e-017
outer loop
vertex 40.4323542892474 13.3573431938661 3.0
vertex 39.7211739258596 13.8740459729497 29.9
vertex 40.4323542892474 13.3573431938662 29.9
endloop
endfacet
facet normal 0.481753674101716 0.876306680043863 1.33659442417974e-016
outer loop
vertex 38.9508414019621 14.2975398616978 29.9
vertex 39.7211739258596 13.8740459729497 3.0
vertex 38.9508414019621 14.2975398616978 3.0
endloop
endfacet
facet normal 0.481753674101716 0.876306680043863 1.33659442417974e-016
outer loop
vertex 39.7211739258596 13.8740459729497 3.0
vertex 38.9508414019621 14.2975398616978 29.9
vertex 39.7211739258596 13.8740459729497 29.9
endloop
endfacet
facet normal 0.368124552684672 0.929776485888254 -6.88876817418909e-017
outer loop
vertex 38.1335053216312 14.6211461085017 29.9
vertex 38.9508414019621 14.2975398616978 3.0
vertex 38.1335053216312 14.6211461085017 3.0
endloop
endfacet
facet normal 0.368124552684672 0.929776485888254 -6.88876817418909e-017
outer loop
vertex 38.9508414019621 14.2975398616978 3.0
vertex 38.1335053216312 14.6211461085017 29.9
vertex 38.9508414019621 14.2975398616978 29.9
endloop
endfacet
facet normal 0.248689887164858 0.96858316112863 -2.01995640170756e-016
outer loop
vertex 37.2820555631067 14.8397612495364 29.9
vertex 38.1335053216312 14.6211461085017 3.0
vertex 37.2820555631067 14.8397612495364 3.0
endloop
endfacet
facet normal 0.248689887164858 0.96858316112863 -2.01995640170756e-016
outer loop
vertex 38.1335053216312 14.6211461085017 3.0
vertex 37.2820555631067 14.8397612495364 29.9
vertex 38.1335053216312 14.6211461085017 29.9
endloop
endfacet
facet normal 0.125333233564302 0.992114701314478 -1.42757692494146e-016
outer loop
vertex 36.4099199977118 14.9499375934335 29.9
vertex 37.2820555631067 14.8397612495364 3.0
vertex 36.4099199977118 14.9499375934335 3.0
endloop
endfacet
facet normal 0.125333233564302 0.992114701314478 -1.42757692494146e-016
outer loop
vertex 37.2820555631067 14.8397612495364 3.0
vertex 36.4099199977118 14.9499375934335 29.9
vertex 37.2820555631067 14.8397612495364 29.9
endloop
endfacet
facet normal 3.20790748085489e-015 1.0 -1.0483146775271e-016
outer loop
vertex 35.5308527243014 14.9499375934335 29.9
vertex 36.4099199977118 14.9499375934335 3.0
vertex 35.5308527243014 14.9499375934335 3.0
endloop
endfacet
facet normal 3.20790748085489e-015 1.0 -1.0483146775271e-016
outer loop
vertex 36.4099199977118 14.9499375934335 3.0
vertex 35.5308527243014 14.9499375934335 29.9
vertex 36.4099199977118 14.9499375934335 29.9
endloop
endfacet
facet normal -0.125333233564305 0.992114701314478 3.8798160976399e-017
outer loop
vertex 34.6587171589065 14.8397612495364 29.9
vertex 35.5308527243014 14.9499375934335 3.0
vertex 34.6587171589065 14.8397612495364 3.0
endloop
endfacet
facet normal -0.125333233564305 0.992114701314478 3.8798160976399e-017
outer loop
vertex 35.5308527243014 14.9499375934335 3.0
vertex 34.6587171589065 14.8397612495364 29.9
vertex 35.5308527243014 14.9499375934335 29.9
endloop
endfacet
facet normal -0.248689887164854 0.968583161128631 4.95576204356034e-017
outer loop
vertex 33.807267400382 14.6211461085017 29.9
vertex 34.6587171589065 14.8397612495364 3.0
vertex 33.807267400382 14.6211461085017 3.0
endloop
endfacet
facet normal -0.248689887164854 0.968583161128631 4.95576204356034e-017
outer loop
vertex 34.6587171589065 14.8397612495364 3.0
vertex 33.807267400382 14.6211461085017 29.9
vertex 34.6587171589065 14.8397612495364 29.9
endloop
endfacet
facet normal -0.770513242775788 -0.637423989748691 8.8820847657653e-017
outer loop
vertex 30.307267400382 3.84925372838831 29.9
vertex 30.8676059690567 3.17192075293481 3.0
vertex 30.8676059690567 3.17192075293481 29.9
endloop
endfacet
facet normal -0.770513242775788 -0.637423989748691 8.8820847657653e-017
outer loop
vertex 30.8676059690567 3.17192075293481 3.0
vertex 30.307267400382 3.84925372838831 29.9
vertex 30.3072674003819 3.84925372838831 3.0
endloop
endfacet
facet normal -0.684547105928688 -0.728968627421412 4.67192079467758e-018
outer loop
vertex 31.5084184327658 2.5701577950051 3.0
vertex 30.8676059690567 3.17192075293481 29.9
vertex 30.8676059690567 3.17192075293481 3.0
endloop
endfacet
facet normal -0.684547105928688 -0.728968627421412 4.67192079467758e-018
outer loop
vertex 30.8676059690567 3.17192075293481 29.9
vertex 31.5084184327658 2.5701577950051 3.0
vertex 31.5084184327658 2.5701577950051 29.9
endloop
endfacet
facet normal -0.587785252292473 -0.809016994374947 9.77180077307413e-017
outer loop
vertex 32.2195987961536 2.05345501592152 29.9
vertex 31.5084184327658 2.5701577950051 3.0
vertex 32.2195987961536 2.05345501592152 3.0
endloop
endfacet
facet normal -0.587785252292473 -0.809016994374947 9.77180077307413e-017
outer loop
vertex 31.5084184327658 2.5701577950051 3.0
vertex 32.2195987961536 2.05345501592152 29.9
vertex 31.5084184327658 2.5701577950051 29.9
endloop
endfacet
facet normal -0.481753674101714 -0.876306680043864 5.76020820460082e-017
outer loop
vertex 32.9899313200511 1.62996112717349 29.9
vertex 32.2195987961536 2.05345501592152 3.0
vertex 32.9899313200511 1.62996112717349 3.0
endloop
endfacet
facet normal -0.481753674101714 -0.876306680043864 5.76020820460082e-017
outer loop
vertex 32.2195987961536 2.05345501592152 3.0
vertex 32.9899313200511 1.62996112717349 29.9
vertex 32.2195987961536 2.05345501592152 29.9
endloop
endfacet
facet normal -0.36812455268468 -0.929776485888251 4.50103223980108e-017
outer loop
vertex 33.807267400382 1.30635488036955 29.9
vertex 32.9899313200511 1.62996112717349 3.0
vertex 33.807267400382 1.30635488036954 3.0
endloop
endfacet
facet normal -0.36812455268468 -0.929776485888251 4.50103223980108e-017
outer loop
vertex 32.9899313200511 1.62996112717349 3.0
vertex 33.807267400382 1.30635488036955 29.9
vertex 32.9899313200511 1.62996112717349 29.9
endloop
endfacet
facet normal -0.248689887164852 -0.968583161128632 7.2899140429506e-017
outer loop
vertex 34.6587171589065 1.08773973933481 29.9
vertex 33.807267400382 1.30635488036954 3.0
vertex 34.6587171589065 1.0877397393348 3.0
endloop
endfacet
facet normal -0.248689887164852 -0.968583161128632 7.2899140429506e-017
outer loop
vertex 33.807267400382 1.30635488036954 3.0
vertex 34.6587171589065 1.08773973933481 29.9
vertex 33.807267400382 1.30635488036955 29.9
endloop
endfacet
facet normal -0.125333233564303 -0.992114701314478 3.8190219134702e-017
outer loop
vertex 35.5308527243014 0.977563395437727 29.9
vertex 34.6587171589065 1.0877397393348 3.0
vertex 35.5308527243014 0.977563395437724 3.0
endloop
endfacet
facet normal -0.125333233564303 -0.992114701314478 3.8190219134702e-017
outer loop
vertex 34.6587171589065 1.0877397393348 3.0
vertex 35.5308527243014 0.977563395437727 29.9
vertex 34.6587171589065 1.08773973933481 29.9
endloop
endfacet
facet normal 1.20296530532059e-015 -1.0 3.93118004072665e-017
outer loop
vertex 36.4099199977118 0.977563395437727 29.9
vertex 35.5308527243014 0.977563395437724 3.0
vertex 36.4099199977118 0.977563395437727 3.0
endloop
endfacet
facet normal 1.20296530532059e-015 -1.0 3.93118004072665e-017
outer loop
vertex 35.5308527243014 0.977563395437724 3.0
vertex 36.4099199977118 0.977563395437727 29.9
vertex 35.5308527243014 0.977563395437727 29.9
endloop
endfacet
facet normal 0.125333233564304 -0.992114701314478 1.3181604782474e-017
outer loop
vertex 37.2820555631067 1.08773973933481 29.9
vertex 36.4099199977118 0.977563395437727 3.0
vertex 37.2820555631067 1.08773973933481 3.0
endloop
endfacet
facet normal 0.125333233564304 -0.992114701314478 1.3181604782474e-017
outer loop
vertex 36.4099199977118 0.977563395437727 3.0
vertex 37.2820555631067 1.08773973933481 29.9
vertex 36.4099199977118 0.977563395437727 29.9
endloop
endfacet
facet normal 0.248689887164854 -0.968583161128631 6.88258782708758e-019
outer loop
vertex 38.1335053216312 1.30635488036955 29.9
vertex 37.2820555631067 1.08773973933481 3.0
vertex 38.1335053216312 1.30635488036955 3.0
endloop
endfacet
facet normal 0.248689887164854 -0.968583161128631 6.88258782708758e-019
outer loop
vertex 37.2820555631067 1.08773973933481 3.0
vertex 38.1335053216312 1.30635488036955 29.9
vertex 37.2820555631067 1.08773973933481 29.9
endloop
endfacet
facet normal 0.368124552684678 -0.929776485888252 5.57009294691679e-018
outer loop
vertex 38.9508414019621 1.62996112717349 29.9
vertex 38.1335053216312 1.30635488036955 3.0
vertex 38.9508414019621 1.6299611271735 3.0
endloop
endfacet
facet normal 0.368124552684678 -0.929776485888252 5.57009294691679e-018
outer loop
vertex 38.1335053216312 1.30635488036955 3.0
vertex 38.9508414019621 1.62996112717349 29.9
vertex 38.1335053216312 1.30635488036955 29.9
endloop
endfacet
facet normal 0.481753674101719 -0.876306680043861 1.13399214281404e-017
outer loop
vertex 39.7211739258596 2.05345501592152 29.9
vertex 38.9508414019621 1.6299611271735 3.0
vertex 39.7211739258596 2.05345501592153 3.0
endloop
endfacet
facet normal 0.481753674101719 -0.876306680043861 1.13399214281404e-017
outer loop
vertex 38.9508414019621 1.6299611271735 3.0
vertex 39.7211739258596 2.05345501592152 29.9
vertex 38.9508414019621 1.62996112717349 29.9
endloop
endfacet
facet normal 0.587785252292474 -0.809016994374947 -3.82073497349826e-018
outer loop
vertex 40.4323542892474 2.5701577950051 29.9
vertex 39.7211739258596 2.05345501592153 3.0
vertex 40.4323542892474 2.5701577950051 3.0
endloop
endfacet
facet normal 0.587785252292474 -0.809016994374947 -3.82073497349826e-018
outer loop
vertex 39.7211739258596 2.05345501592153 3.0
vertex 40.4323542892474 2.5701577950051 29.9
vertex 39.7211739258596 2.05345501592152 29.9
endloop
endfacet
facet normal 0.684547105928687 -0.728968627421413 1.20186584579172e-016
outer loop
vertex 41.0731667529565 3.17192075293481 29.9
vertex 40.4323542892474 2.5701577950051 3.0
vertex 41.0731667529565 3.17192075293482 3.0
endloop
endfacet
facet normal 0.684547105928687 -0.728968627421413 1.20186584579172e-016
outer loop
vertex 40.4323542892474 2.5701577950051 3.0
vertex 41.0731667529565 3.17192075293481 29.9
vertex 40.4323542892474 2.5701577950051 29.9
endloop
endfacet
facet normal 0.77051324277579 -0.637423989748689 2.48028937929113e-016
outer loop
vertex 41.0731667529565 3.17192075293482 3.0
vertex 41.6335053216312 3.84925372838831 29.9
vertex 41.0731667529565 3.17192075293481 29.9
endloop
endfacet
facet normal 0.77051324277579 -0.637423989748689 2.48028937929113e-016
outer loop
vertex 41.6335053216312 3.84925372838831 29.9
vertex 41.0731667529565 3.17192075293482 3.0
vertex 41.6335053216312 3.84925372838831 3.0
endloop
endfacet
facet normal 0.844327925502019 -0.53582679497899 -2.81771116981871e-017
outer loop
vertex 42.1045331213136 4.59147477572363 3.0
vertex 41.6335053216312 3.84925372838831 29.9
vertex 41.6335053216312 3.84925372838831 3.0
endloop
endfacet
facet normal 0.844327925502019 -0.53582679497899 -2.81771116981871e-017
outer loop
vertex 41.6335053216312 3.84925372838831 29.9
vertex 42.1045331213136 4.59147477572363 3.0
vertex 42.1045331213136 4.59147477572362 29.9
endloop
endfacet
facet normal 0.904827052466016 -0.425779291565079 -1.28398217873278e-016
outer loop
vertex 42.1045331213136 4.59147477572363 3.0
vertex 42.4788217622243 5.38687862564288 29.9
vertex 42.1045331213136 4.59147477572362 29.9
endloop
endfacet
facet normal 0.904827052466016 -0.425779291565079 -1.28398217873278e-016
outer loop
vertex 42.4788217622243 5.38687862564288 29.9
vertex 42.1045331213136 4.59147477572363 3.0
vertex 42.4788217622243 5.38687862564288 3.0
endloop
endfacet
facet normal 0.951056516295153 -0.30901699437495 1.08260178675993e-016
outer loop
vertex 42.750468488907 6.22292128428164 3.0
vertex 42.4788217622243 5.38687862564288 29.9
vertex 42.4788217622243 5.38687862564288 3.0
endloop
endfacet
facet normal 0.951056516295153 -0.30901699437495 1.08260178675993e-016
outer loop
vertex 42.4788217622243 5.38687862564288 29.9
vertex 42.750468488907 6.22292128428164 3.0
vertex 42.750468488907 6.22292128428164 29.9
endloop
endfacet
facet normal 0.982287250728689 -0.187381314585723 0.0
outer loop
vertex 31.1274705553634 9.2071999302599 4.5
vertex 31.0098128544342 8.59041666225715 29.9
vertex 31.0098128544342 8.59041666225715 4.5
endloop
endfacet
facet normal 0.982287250728689 -0.187381314585723 0.0
outer loop
vertex 31.0098128544342 8.59041666225715 29.9
vertex 31.1274705553634 9.2071999302599 4.5
vertex 31.1274705553634 9.2071999302599 29.9
endloop
endfacet
facet normal 0.998026728428272 -0.0627905195293144 0.0
outer loop
vertex 31.0098128544342 8.59041666225715 4.5
vertex 30.9703863610066 7.96375049443563 29.9
vertex 30.9703863610066 7.96375049443563 4.5
endloop
endfacet
facet normal 0.998026728428272 -0.0627905195293144 0.0
outer loop
vertex 30.9703863610066 7.96375049443563 29.9
vertex 31.0098128544342 8.59041666225715 4.5
vertex 31.0098128544342 8.59041666225715 29.9
endloop
endfacet
facet normal 0.998026728428272 0.0627905195293131 0.0
outer loop
vertex 30.9703863610066 7.96375049443563 4.5
vertex 31.0098128544342 7.3370843266141 29.9
vertex 31.0098128544342 7.3370843266141 4.5
endloop
endfacet
facet normal 0.998026728428272 0.0627905195293131 0.0
outer loop
vertex 31.0098128544342 7.3370843266141 29.9
vertex 30.9703863610066 7.96375049443563 4.5
vertex 30.9703863610066 7.96375049443563 29.9
endloop
endfacet
facet normal 0.982287250728689 0.187381314585724 0.0
outer loop
vertex 31.0098128544342 7.3370843266141 4.5
vertex 31.1274705553634 6.72030105861135 29.9
vertex 31.1274705553634 6.72030105861135 4.5
endloop
endfacet
facet normal 0.982287250728689 0.187381314585724 0.0
outer loop
vertex 31.1274705553634 6.72030105861135 29.9
vertex 31.0098128544342 7.3370843266141 4.5
vertex 31.0098128544342 7.3370843266141 29.9
endloop
endfacet
facet normal 0.951056516295154 0.309016994374947 0.0
outer loop
vertex 31.1274705553634 6.72030105861135 4.5
vertex 31.3215039315653 6.12312773101224 29.9
vertex 31.3215039315653 6.12312773101224 4.5
endloop
endfacet
facet normal 0.951056516295154 0.309016994374947 0.0
outer loop
vertex 31.3215039315653 6.12312773101224 29.9
vertex 31.1274705553634 6.72030105861135 4.5
vertex 31.1274705553634 6.72030105861135 29.9
endloop
endfacet
facet normal 0.904827052466018 0.425779291565075 0.0
outer loop
vertex 31.3215039315653 6.12312773101224 4.5
vertex 31.5888529607873 5.55498212392705 29.9
vertex 31.5888529607873 5.55498212392705 4.5
endloop
endfacet
facet normal 0.904827052466018 0.425779291565075 0.0
outer loop
vertex 31.5888529607873 5.55498212392705 29.9
vertex 31.3215039315653 6.12312773101224 4.5
vertex 31.3215039315653 6.12312773101224 29.9
endloop
endfacet
facet normal 0.844327925502016 0.535826794978995 0.0
outer loop
vertex 31.5888529607873 5.55498212392705 4.5
vertex 31.9253013891319 5.02482423297326 29.9
vertex 31.9253013891319 5.02482423297326 4.5
endloop
endfacet
facet normal 0.844327925502016 0.535826794978995 0.0
outer loop
vertex 31.9253013891319 5.02482423297326 29.9
vertex 31.5888529607873 5.55498212392705 4.5
vertex 31.5888529607873 5.55498212392705 29.9
endloop
endfacet
facet normal 0.770513242775789 0.63742398974869 0.0
outer loop
vertex 31.9253013891319 5.02482423297326 4.5
vertex 32.3255432238995 4.54101496479218 29.9
vertex 32.3255432238995 4.54101496479218 4.5
endloop
endfacet
facet normal 0.770513242775789 0.63742398974869 0.0
outer loop
vertex 32.3255432238995 4.54101496479218 29.9
vertex 31.9253013891319 5.02482423297326 4.5
vertex 31.9253013891319 5.02482423297326 29.9
endloop
endfacet
facet normal 0.684547105928688 0.728968627421412 0.0
outer loop
vertex 32.3255432238995 4.54101496479218 29.9
vertex 32.7832664122631 4.11118428055668 4.5
vertex 32.3255432238995 4.54101496479218 4.5
endloop
endfacet
facet normal 0.684547105928688 0.728968627421412 0.0
outer loop
vertex 32.7832664122631 4.11118428055668 4.5
vertex 32.3255432238995 4.54101496479218 29.9
vertex 32.7832664122631 4.11118428055668 29.9
endloop
endfacet
facet normal 0.587785252292473 0.809016994374948 0.0
outer loop
vertex 32.7832664122631 4.11118428055668 29.9
vertex 33.2912523861116 3.74211086692555 4.5
vertex 32.7832664122631 4.11118428055668 4.5
endloop
endfacet
facet normal 0.587785252292473 0.809016994374948 0.0
outer loop
vertex 33.2912523861116 3.74211086692555 4.5
vertex 32.7832664122631 4.11118428055668 29.9
vertex 33.2912523861116 3.74211086692555 29.9
endloop
endfacet
facet normal 0.481753674101716 0.876306680043863 0.0
outer loop
vertex 33.2912523861116 3.74211086692555 29.9
vertex 33.8414899031812 3.43961523210553 4.5
vertex 33.2912523861116 3.74211086692555 4.5
endloop
endfacet
facet normal 0.481753674101716 0.876306680043863 0.0
outer loop
vertex 33.8414899031812 3.43961523210553 4.5
vertex 33.2912523861116 3.74211086692555 29.9
vertex 33.8414899031812 3.43961523210553 29.9
endloop
endfacet
facet normal 0.368124552684676 0.929776485888252 0.0
outer loop
vertex 33.8414899031812 3.43961523210553 29.9
vertex 34.4253013891318 3.20846791295986 4.5
vertex 33.8414899031812 3.43961523210553 4.5
endloop
endfacet
facet normal 0.368124552684676 0.929776485888252 0.0
outer loop
vertex 34.4253013891318 3.20846791295986 4.5
vertex 33.8414899031812 3.43961523210553 29.9
vertex 34.4253013891318 3.20846791295986 29.9
endloop
endfacet
facet normal 0.248689887164854 0.968583161128631 0.0
outer loop
vertex 34.4253013891318 3.20846791295986 29.9
vertex 35.033479788078 3.05231424079218 4.5
vertex 34.4253013891318 3.20846791295986 4.5
endloop
endfacet
facet normal 0.248689887164854 0.968583161128631 0.0
outer loop
vertex 35.033479788078 3.05231424079218 4.5
vertex 34.4253013891318 3.20846791295986 29.9
vertex 35.033479788078 3.05231424079218 29.9
endloop
endfacet
facet normal 0.125333233564303 0.992114701314478 0.0
outer loop
vertex 35.033479788078 3.05231424079218 29.9
vertex 35.65643376336 2.97361685229427 4.5
vertex 35.033479788078 3.05231424079218 4.5
endloop
endfacet
facet normal 0.125333233564303 0.992114701314478 0.0
outer loop
vertex 35.65643376336 2.97361685229427 4.5
vertex 35.033479788078 3.05231424079218 29.9
vertex 35.65643376336 2.97361685229427 29.9
endloop
endfacet
facet normal 0.0 1.0 0.0
outer loop
vertex 35.65643376336 2.97361685229427 29.9
vertex 36.2843389586532 2.97361685229427 4.5
vertex 35.65643376336 2.97361685229427 4.5
endloop
endfacet
facet normal 0.0 1.0 0.0
outer loop
vertex 36.2843389586532 2.97361685229427 4.5
vertex 35.65643376336 2.97361685229427 29.9
vertex 36.2843389586532 2.97361685229427 29.9
endloop
endfacet
facet normal -0.125333233564304 0.992114701314478 0.0
outer loop
vertex 36.2843389586532 2.97361685229427 29.9
vertex 36.9072929339352 3.05231424079218 4.5
vertex 36.2843389586532 2.97361685229427 4.5
endloop
endfacet
facet normal -0.125333233564304 0.992114701314478 0.0
outer loop
vertex 36.9072929339352 3.05231424079218 4.5
vertex 36.2843389586532 2.97361685229427 29.9
vertex 36.9072929339352 3.05231424079218 29.9
endloop
endfacet
facet normal -6.12320244127404e-032 -6.75937931828952e-033 1.0
outer loop
vertex 31.0098128544342 7.3370843266141 4.5
vertex 31.0098128544342 8.59041666225715 4.5
vertex 30.9703863610066 7.96375049443563 4.5
endloop
endfacet
facet normal -6.12320244127404e-032 -6.75937931828952e-033 1.0
outer loop
vertex 31.0098128544342 8.59041666225715 4.5
vertex 31.0098128544342 7.3370843266141 4.5
vertex 31.1274705553634 6.72030105861135 4.5
endloop
endfacet
facet normal -6.12320244127404e-032 -6.75937931828952e-033 1.0
outer loop
vertex 31.0098128544342 8.59041666225715 4.5
vertex 31.1274705553634 6.72030105861135 4.5
vertex 31.1274705553634 9.2071999302599 4.5
endloop
endfacet
facet normal -6.12320244127404e-032 -6.75937931828952e-033 1.0
outer loop
vertex 31.1274705553634 9.2071999302599 4.5
vertex 31.1274705553634 6.72030105861135 4.5
vertex 31.3215039315653 6.12312773101224 4.5
endloop
endfacet
facet normal -6.12320244127404e-032 -6.75937931828952e-033 1.0
outer loop
vertex 31.1274705553634 9.2071999302599 4.5
vertex 31.3215039315653 6.12312773101224 4.5
vertex 31.3215039315653 9.80437325785902 4.5
endloop
endfacet
facet normal -6.12320244127404e-032 -6.75937931828952e-033 1.0
outer loop
vertex 31.3215039315653 9.80437325785902 4.5
vertex 31.3215039315653 6.12312773101224 4.5
vertex 31.5888529607873 5.55498212392705 4.5
endloop
endfacet
facet normal -6.12320244127404e-032 -6.75937931828952e-033 1.0
outer loop
vertex 31.3215039315653 9.80437325785902 4.5
vertex 31.5888529607873 5.55498212392705 4.5
vertex 31.5888529607873 10.3725188649442 4.5
endloop
endfacet
facet normal -6.12320244127404e-032 -6.75937931828952e-033 1.0
outer loop
vertex 31.5888529607873 10.3725188649442 4.5
vertex 31.5888529607873 5.55498212392705 4.5
vertex 31.9253013891319 5.02482423297326 4.5
endloop
endfacet
facet normal -6.12320244127404e-032 -6.75937931828952e-033 1.0
outer loop
vertex 31.5888529607873 10.3725188649442 4.5
vertex 31.9253013891319 5.02482423297326 4.5
vertex 31.9253013891319 10.902676755898 4.5
endloop
endfacet
facet normal -6.12320244127404e-032 -6.75937931828952e-033 1.0
outer loop
vertex 31.9253013891319 10.902676755898 4.5
vertex 31.9253013891319 5.02482423297326 4.5
vertex 32.3255432238995 4.54101496479218 4.5
endloop
endfacet
facet normal -6.12320244127404e-032 -6.75937931828952e-033 1.0
outer loop
vertex 31.9253013891319 10.902676755898 4.5
vertex 32.3255432238995 4.54101496479218 4.5
vertex 32.3255432238995 11.3864860240791 4.5
endloop
endfacet
facet normal -6.12320244127404e-032 -6.75937931828952e-033 1.0
outer loop
vertex 32.3255432238995 11.3864860240791 4.5
vertex 32.3255432238995 4.54101496479218 4.5
vertex 32.7832664122631 11.8163167083146 4.5
endloop
endfacet
facet normal -6.12320244127404e-032 -6.75937931828952e-033 1.0
outer loop
vertex 32.7832664122631 11.8163167083146 4.5
vertex 32.3255432238995 4.54101496479218 4.5
vertex 32.7832664122631 4.11118428055668 4.5
endloop
endfacet
facet normal -6.12320244127404e-032 -6.75937931828952e-033 1.0
outer loop
vertex 32.7832664122631 11.8163167083146 4.5
vertex 32.7832664122631 4.11118428055668 4.5
vertex 33.2912523861116 3.74211086692555 4.5
endloop
endfacet
facet normal -6.12320244127404e-032 -6.75937931828952e-033 1.0
outer loop
vertex 32.7832664122631 11.8163167083146 4.5
vertex 33.2912523861116 3.74211086692555 4.5
vertex 33.2912523861116 12.1853901219457 4.5
endloop
endfacet
facet normal -6.12320244127404e-032 -6.75937931828952e-033 1.0
outer loop
vertex 33.2912523861116 12.1853901219457 4.5
vertex 33.2912523861116 3.74211086692555 4.5
vertex 33.8414899031812 3.43961523210553 4.5
endloop
endfacet
facet normal -6.12320244127404e-032 -6.75937931828952e-033 1.0
outer loop
vertex 33.2912523861116 12.1853901219457 4.5
vertex 33.8414899031812 3.43961523210553 4.5
vertex 33.8414899031812 12.4878857567657 4.5
endloop
endfacet
facet normal -6.12320244127404e-032 -6.75937931828952e-033 1.0
outer loop
vertex 33.8414899031812 12.4878857567657 4.5
vertex 33.8414899031812 3.43961523210553 4.5
vertex 34.4253013891318 3.20846791295986 4.5
endloop
endfacet
facet normal -6.12320244127404e-032 -6.75937931828952e-033 1.0
outer loop
vertex 33.8414899031812 12.4878857567657 4.5
vertex 34.4253013891318 3.20846791295986 4.5
vertex 34.4253013891318 12.7190330759114 4.5
endloop
endfacet
facet normal -6.12320244127404e-032 -6.75937931828952e-033 1.0
outer loop
vertex 34.4253013891318 12.7190330759114 4.5
vertex 34.4253013891318 3.20846791295986 4.5
vertex 35.033479788078 3.05231424079218 4.5
endloop
endfacet
facet normal -6.12320244127404e-032 -6.75937931828952e-033 1.0
outer loop
vertex 34.4253013891318 12.7190330759114 4.5
vertex 35.033479788078 3.05231424079218 4.5
vertex 35.033479788078 12.8751867480791 4.5
endloop
endfacet
facet normal -6.12320244127404e-032 -6.75937931828952e-033 1.0
outer loop
vertex 35.033479788078 12.8751867480791 4.5
vertex 35.033479788078 3.05231424079218 4.5
vertex 35.65643376336 2.97361685229427 4.5
endloop
endfacet
facet normal -6.12320244127404e-032 -6.75937931828952e-033 1.0
outer loop
vertex 35.033479788078 12.8751867480791 4.5
vertex 35.65643376336 2.97361685229427 4.5
vertex 35.65643376336 12.953884136577 4.5
endloop
endfacet
facet normal -6.12320244127404e-032 -6.75937931828952e-033 1.0
outer loop
vertex 35.65643376336 12.953884136577 4.5
vertex 35.65643376336 2.97361685229427 4.5
vertex 36.2843389586532 2.97361685229427 4.5
endloop
endfacet
facet normal -6.12320244127404e-032 -6.75937931828952e-033 1.0
outer loop
vertex 35.65643376336 12.953884136577 4.5
vertex 36.2843389586532 2.97361685229427 4.5
vertex 36.2843389586532 12.953884136577 4.5
endloop
endfacet
facet normal -6.12320244127404e-032 -6.75937931828952e-033 1.0
outer loop
vertex 36.2843389586532 12.953884136577 4.5
vertex 36.2843389586532 2.97361685229427 4.5
vertex 36.9072929339352 3.05231424079218 4.5
endloop
endfacet
facet normal -6.12320244127404e-032 -6.75937931828952e-033 1.0
outer loop
vertex 36.2843389586532 12.953884136577 4.5
vertex 36.9072929339352 3.05231424079218 4.5
vertex 36.9072929339352 12.8751867480791 4.5
endloop
endfacet
facet normal -6.12320244127404e-032 -6.75937931828952e-033 1.0
outer loop
vertex 36.9072929339352 12.8751867480791 4.5
vertex 36.9072929339352 3.05231424079218 4.5
vertex 37.5154713328813 3.20846791295986 4.5
endloop
endfacet
facet normal -6.12320244127404e-032 -6.75937931828952e-033 1.0
outer loop
vertex 36.9072929339352 12.8751867480791 4.5
vertex 37.5154713328813 3.20846791295986 4.5
vertex 37.5154713328813 12.7190330759114 4.5
endloop
endfacet
facet normal -6.12320244127404e-032 -6.75937931828952e-033 1.0
outer loop
vertex 37.5154713328813 12.7190330759114 4.5
vertex 37.5154713328813 3.20846791295986 4.5
vertex 38.099282818832 3.43961523210553 4.5
endloop
endfacet
facet normal -6.12320244127404e-032 -6.75937931828952e-033 1.0
outer loop
vertex 37.5154713328813 12.7190330759114 4.5
vertex 38.099282818832 3.43961523210553 4.5
vertex 38.099282818832 12.4878857567657 4.5
endloop
endfacet
facet normal -6.12320244127404e-032 -6.75937931828952e-033 1.0
outer loop
vertex 38.099282818832 12.4878857567657 4.5
vertex 38.099282818832 3.43961523210553 4.5
vertex 38.6495203359016 3.74211086692555 4.5
endloop
endfacet
facet normal -6.12320244127404e-032 -6.75937931828952e-033 1.0
outer loop
vertex 38.099282818832 12.4878857567657 4.5
vertex 38.6495203359016 3.74211086692555 4.5
vertex 38.6495203359016 12.1853901219457 4.5
endloop
endfacet
facet normal -6.12320244127404e-032 -6.75937931828952e-033 1.0
outer loop
vertex 38.6495203359016 12.1853901219457 4.5
vertex 38.6495203359016 3.74211086692555 4.5
vertex 39.15750630975 4.11118428055668 4.5
endloop
endfacet
facet normal -6.12320244127404e-032 -6.75937931828952e-033 1.0
outer loop
vertex 38.6495203359016 12.1853901219457 4.5
vertex 39.15750630975 4.11118428055668 4.5
vertex 39.15750630975 11.8163167083146 4.5
endloop
endfacet
facet normal -6.12320244127404e-032 -6.75937931828952e-033 1.0
outer loop
vertex 39.15750630975 11.8163167083146 4.5
vertex 39.15750630975 4.11118428055668 4.5
vertex 39.6152294981136 4.54101496479218 4.5
endloop
endfacet
facet normal -6.12320244127404e-032 -6.75937931828952e-033 1.0
outer loop
vertex 39.15750630975 11.8163167083146 4.5
vertex 39.6152294981136 4.54101496479218 4.5
vertex 39.6152294981136 11.3864860240791 4.5
endloop
endfacet
facet normal -6.12320244127404e-032 -6.75937931828952e-033 1.0
outer loop
vertex 39.6152294981136 11.3864860240791 4.5
vertex 39.6152294981136 4.54101496479218 4.5
vertex 40.0154713328813 5.02482423297326 4.5
endloop
endfacet
facet normal -6.12320244127404e-032 -6.75937931828952e-033 1.0
outer loop
vertex 39.6152294981136 11.3864860240791 4.5
vertex 40.0154713328813 5.02482423297326 4.5
vertex 40.0154713328813 10.902676755898 4.5
endloop
endfacet
facet normal -6.12320244127404e-032 -6.75937931828952e-033 1.0
outer loop
vertex 40.0154713328813 10.902676755898 4.5
vertex 40.0154713328813 5.02482423297326 4.5
vertex 40.3519197612259 5.55498212392705 4.5
endloop
endfacet
facet normal -6.12320244127404e-032 -6.75937931828952e-033 1.0
outer loop
vertex 40.0154713328813 10.902676755898 4.5
vertex 40.3519197612259 5.55498212392705 4.5
vertex 40.3519197612259 10.3725188649442 4.5
endloop
endfacet
facet normal -6.12320244127404e-032 -6.75937931828952e-033 1.0
outer loop
vertex 40.3519197612259 10.3725188649442 4.5
vertex 40.3519197612259 5.55498212392705 4.5
vertex 40.6192687904478 6.12312773101224 4.5
endloop
endfacet
facet normal -6.12320244127404e-032 -6.75937931828952e-033 1.0
outer loop
vertex 40.3519197612259 10.3725188649442 4.5
vertex 40.6192687904478 6.12312773101224 4.5
vertex 40.6192687904478 9.80437325785902 4.5
endloop
endfacet
facet normal -6.12320244127404e-032 -6.75937931828952e-033 1.0
outer loop
vertex 40.6192687904478 9.80437325785902 4.5
vertex 40.6192687904478 6.12312773101224 4.5
vertex 40.8133021666497 6.72030105861135 4.5
endloop
endfacet
facet normal -6.12320244127404e-032 -6.75937931828952e-033 1.0
outer loop
vertex 40.6192687904478 9.80437325785902 4.5
vertex 40.8133021666497 6.72030105861135 4.5
vertex 40.8133021666497 9.2071999302599 4.5
endloop
endfacet
facet normal -6.12320244127404e-032 -6.75937931828952e-033 1.0
outer loop
vertex 40.8133021666497 9.2071999302599 4.5
vertex 40.8133021666497 6.72030105861135 4.5
vertex 40.930959867579 7.33708432661411 4.5
endloop
endfacet
facet normal -6.12320244127404e-032 -6.75937931828952e-033 1.0
outer loop
vertex 40.8133021666497 9.2071999302599 4.5
vertex 40.930959867579 7.33708432661411 4.5
vertex 40.930959867579 8.59041666225715 4.5
endloop
endfacet
facet normal -6.12320244127404e-032 -6.75937931828952e-033 1.0
outer loop
vertex 40.930959867579 8.59041666225715 4.5
vertex 40.930959867579 7.33708432661411 4.5
vertex 40.9703863610066 7.96375049443563 4.5
endloop
endfacet
facet normal -0.248689887164855 0.968583161128631 0.0
outer loop
vertex 36.9072929339352 3.05231424079218 29.9
vertex 37.5154713328813 3.20846791295986 4.5
vertex 36.9072929339352 3.05231424079218 4.5
endloop
endfacet
facet normal -0.248689887164855 0.968583161128631 0.0
outer loop
vertex 37.5154713328813 3.20846791295986 4.5
vertex 36.9072929339352 3.05231424079218 29.9
vertex 37.5154713328813 3.20846791295986 29.9
endloop
endfacet
facet normal 0.0 0.0 1.0
outer loop
vertex 29.0255834518052 7.0864178594855 29.9
vertex 29.0255834518052 8.84108312938575 29.9
vertex 28.9703863610066 7.96375049443563 29.9
endloop
endfacet
facet normal 0.0 0.0 1.0
outer loop
vertex 29.0255834518052 8.84108312938575 29.9
vertex 29.0255834518052 7.0864178594855 29.9
vertex 29.1903042331062 6.22292128428164 29.9
endloop
endfacet
facet normal 0.0 0.0 1.0
outer loop
vertex 29.0255834518052 8.84108312938575 29.9
vertex 29.1903042331062 6.22292128428164 29.9
vertex 29.1903042331062 9.70457970458961 29.9
endloop
endfacet
facet normal 0.0 0.0 1.0
outer loop
vertex 29.1903042331062 9.70457970458961 29.9
vertex 29.1903042331062 6.22292128428164 29.9
vertex 29.4619509597888 5.38687862564288 29.9
endloop
endfacet
facet normal 0.0 0.0 1.0
outer loop
vertex 29.1903042331062 9.70457970458961 29.9
vertex 29.4619509597888 5.38687862564288 29.9
vertex 29.4619509597888 10.5406223632284 29.9
endloop
endfacet
facet normal 0.0 0.0 1.0
outer loop
vertex 29.4619509597888 10.5406223632284 29.9
vertex 29.4619509597888 5.38687862564288 29.9
vertex 29.8362396006995 4.59147477572362 29.9
endloop
endfacet
facet normal 0.0 0.0 1.0
outer loop
vertex 29.4619509597888 10.5406223632284 29.9
vertex 29.8362396006995 4.59147477572362 29.9
vertex 29.8362396006995 11.3360262131476 29.9
endloop
endfacet
facet normal 0.0 0.0 1.0
outer loop
vertex 29.8362396006995 11.3360262131476 29.9
vertex 29.8362396006995 4.59147477572362 29.9
vertex 30.307267400382 3.84925372838831 29.9
endloop
endfacet
facet normal 0.0 0.0 1.0
outer loop
vertex 29.8362396006995 11.3360262131476 29.9
vertex 30.307267400382 3.84925372838831 29.9
vertex 30.3072674003819 12.0782472604829 29.9
endloop
endfacet
facet normal 0.0 0.0 1.0
outer loop
vertex 30.3072674003819 12.0782472604829 29.9
vertex 30.307267400382 3.84925372838831 29.9
vertex 30.8676059690567 12.7555802359364 29.9
endloop
endfacet
facet normal 0.0 0.0 1.0
outer loop
vertex 30.8676059690567 12.7555802359364 29.9
vertex 30.307267400382 3.84925372838831 29.9
vertex 30.8676059690567 3.17192075293481 29.9
endloop
endfacet
facet normal 0.0 0.0 1.0
outer loop
vertex 30.8676059690567 12.7555802359364 29.9
vertex 30.8676059690567 3.17192075293481 29.9
vertex 30.9703863610066 7.96375049443563 29.9
endloop
endfacet
facet normal 0.0 0.0 1.0
outer loop
vertex 30.9703863610066 7.96375049443563 29.9
vertex 30.8676059690567 3.17192075293481 29.9
vertex 31.0098128544342 7.3370843266141 29.9
endloop
endfacet
facet normal 0.0 0.0 1.0
outer loop
vertex 31.0098128544342 7.3370843266141 29.9
vertex 30.8676059690567 3.17192075293481 29.9
vertex 31.5084184327658 2.5701577950051 29.9
endloop
endfacet
facet normal 0.0 0.0 1.0
outer loop
vertex 31.0098128544342 7.3370843266141 29.9
vertex 31.5084184327658 2.5701577950051 29.9
vertex 31.1274705553634 6.72030105861135 29.9
endloop
endfacet
facet normal 0.0 0.0 1.0
outer loop
vertex 31.1274705553634 6.72030105861135 29.9
vertex 31.5084184327658 2.5701577950051 29.9
vertex 31.3215039315653 6.12312773101224 29.9
endloop
endfacet
facet normal 0.0 0.0 1.0
outer loop
vertex 31.3215039315653 6.12312773101224 29.9
vertex 31.5084184327658 2.5701577950051 29.9
vertex 31.5888529607873 5.55498212392705 29.9
endloop
endfacet
facet normal 0.0 0.0 1.0
outer loop
vertex 31.5888529607873 5.55498212392705 29.9
vertex 31.5084184327658 2.5701577950051 29.9
vertex 32.2195987961536 2.05345501592152 29.9
endloop
endfacet
facet normal 0.0 0.0 1.0
outer loop
vertex 31.5888529607873 5.55498212392705 29.9
vertex 32.2195987961536 2.05345501592152 29.9
vertex 31.9253013891319 5.02482423297326 29.9
endloop
endfacet
facet normal 0.0 0.0 1.0
outer loop
vertex 31.9253013891319 5.02482423297326 29.9
vertex 32.2195987961536 2.05345501592152 29.9
vertex 32.3255432238995 4.54101496479218 29.9
endloop
endfacet
facet normal 0.0 0.0 1.0
outer loop
vertex 32.3255432238995 4.54101496479218 29.9
vertex 32.2195987961536 2.05345501592152 29.9
vertex 32.9899313200511 1.62996112717349 29.9
endloop
endfacet
facet normal 0.0 0.0 1.0
outer loop
vertex 32.3255432238995 4.54101496479218 29.9
vertex 32.9899313200511 1.62996112717349 29.9
vertex 32.7832664122631 4.11118428055668 29.9
endloop
endfacet
facet normal 0.0 0.0 1.0
outer loop
vertex 32.7832664122631 4.11118428055668 29.9
vertex 32.9899313200511 1.62996112717349 29.9
vertex 33.2912523861116 3.74211086692555 29.9
endloop
endfacet
facet normal 0.0 0.0 1.0
outer loop
vertex 33.2912523861116 3.74211086692555 29.9
vertex 32.9899313200511 1.62996112717349 29.9
vertex 33.807267400382 1.30635488036955 29.9
endloop
endfacet
facet normal 0.0 0.0 1.0
outer loop
vertex 33.2912523861116 3.74211086692555 29.9
vertex 33.807267400382 1.30635488036955 29.9
vertex 33.8414899031812 3.43961523210553 29.9
endloop
endfacet
facet normal 0.0 0.0 1.0
outer loop
vertex 33.8414899031812 3.43961523210553 29.9
vertex 33.807267400382 1.30635488036955 29.9
vertex 34.6587171589065 1.08773973933481 29.9
endloop
endfacet
facet normal 0.0 0.0 1.0
outer loop
vertex 33.8414899031812 3.43961523210553 29.9
vertex 34.6587171589065 1.08773973933481 29.9
vertex 34.4253013891318 3.20846791295986 29.9
endloop
endfacet
facet normal 0.0 0.0 1.0
outer loop
vertex 34.4253013891318 3.20846791295986 29.9
vertex 34.6587171589065 1.08773973933481 29.9
vertex 35.033479788078 3.05231424079218 29.9
endloop
endfacet
facet normal 0.0 0.0 1.0
outer loop
vertex 35.033479788078 3.05231424079218 29.9
vertex 34.6587171589065 1.08773973933481 29.9
vertex 35.5308527243014 0.977563395437727 29.9
endloop
endfacet
facet normal 0.0 0.0 1.0
outer loop
vertex 35.033479788078 3.05231424079218 29.9
vertex 35.5308527243014 0.977563395437727 29.9
vertex 35.65643376336 2.97361685229427 29.9
endloop
endfacet
facet normal 0.0 0.0 1.0
outer loop
vertex 35.65643376336 2.97361685229427 29.9
vertex 35.5308527243014 0.977563395437727 29.9
vertex 36.4099199977118 0.977563395437727 29.9
endloop
endfacet
facet normal 0.0 0.0 1.0
outer loop
vertex 35.65643376336 2.97361685229427 29.9
vertex 36.4099199977118 0.977563395437727 29.9
vertex 36.2843389586532 2.97361685229427 29.9
endloop
endfacet
facet normal 0.0 0.0 1.0
outer loop
vertex 36.2843389586532 2.97361685229427 29.9
vertex 36.4099199977118 0.977563395437727 29.9
vertex 36.9072929339352 3.05231424079218 29.9
endloop
endfacet
facet normal 0.0 0.0 1.0
outer loop
vertex 36.9072929339352 3.05231424079218 29.9
vertex 36.4099199977118 0.977563395437727 29.9
vertex 37.2820555631067 1.08773973933481 29.9
endloop
endfacet
facet normal 0.0 0.0 1.0
outer loop
vertex 36.9072929339352 3.05231424079218 29.9
vertex 37.2820555631067 1.08773973933481 29.9
vertex 37.5154713328813 3.20846791295986 29.9
endloop
endfacet
facet normal 0.0 0.0 1.0
outer loop
vertex 37.5154713328813 3.20846791295986 29.9
vertex 37.2820555631067 1.08773973933481 29.9
vertex 38.1335053216312 1.30635488036955 29.9
endloop
endfacet
facet normal 0.0 0.0 1.0
outer loop
vertex 37.5154713328813 3.20846791295986 29.9
vertex 38.1335053216312 1.30635488036955 29.9
vertex 38.099282818832 3.43961523210553 29.9
endloop
endfacet
facet normal 0.0 0.0 1.0
outer loop
vertex 38.099282818832 3.43961523210553 29.9
vertex 38.1335053216312 1.30635488036955 29.9
vertex 38.6495203359016 3.74211086692555 29.9
endloop
endfacet
facet normal 0.0 0.0 1.0
outer loop
vertex 38.6495203359016 3.74211086692555 29.9
vertex 38.1335053216312 1.30635488036955 29.9
vertex 38.9508414019621 1.62996112717349 29.9
endloop
endfacet
facet normal 0.0 0.0 1.0
outer loop
vertex 38.6495203359016 3.74211086692555 29.9
vertex 38.9508414019621 1.62996112717349 29.9
vertex 39.15750630975 4.11118428055668 29.9
endloop
endfacet
facet normal 0.0 0.0 1.0
outer loop
vertex 39.15750630975 4.11118428055668 29.9
vertex 38.9508414019621 1.62996112717349 29.9
vertex 39.7211739258596 2.05345501592152 29.9
endloop
endfacet
facet normal 0.0 0.0 1.0
outer loop
vertex 39.15750630975 4.11118428055668 29.9
vertex 39.7211739258596 2.05345501592152 29.9
vertex 39.6152294981136 4.54101496479218 29.9
endloop
endfacet
facet normal 0.0 0.0 1.0
outer loop
vertex 39.6152294981136 4.54101496479218 29.9
vertex 39.7211739258596 2.05345501592152 29.9
vertex 40.0154713328813 5.02482423297326 29.9
endloop
endfacet
facet normal 0.0 0.0 1.0
outer loop
vertex 40.0154713328813 5.02482423297326 29.9
vertex 39.7211739258596 2.05345501592152 29.9
vertex 40.4323542892474 2.5701577950051 29.9
endloop
endfacet
facet normal 0.0 0.0 1.0
outer loop
vertex 40.0154713328813 5.02482423297326 29.9
vertex 40.4323542892474 2.5701577950051 29.9
vertex 40.3519197612259 5.55498212392705 29.9
endloop
endfacet
facet normal 0.0 0.0 1.0
outer loop
vertex 40.3519197612259 5.55498212392705 29.9
vertex 40.4323542892474 2.5701577950051 29.9
vertex 40.6192687904478 6.12312773101224 29.9
endloop
endfacet
facet normal 0.0 0.0 1.0
outer loop
vertex 40.6192687904478 6.12312773101224 29.9
vertex 40.4323542892474 2.5701577950051 29.9
vertex 41.0731667529565 3.17192075293481 29.9
endloop
endfacet
facet normal 0.0 0.0 1.0
outer loop
vertex 40.6192687904478 6.12312773101224 29.9
vertex 41.0731667529565 3.17192075293481 29.9
vertex 40.8133021666497 6.72030105861135 29.9
endloop
endfacet
facet normal 0.0 0.0 1.0
outer loop
vertex 40.8133021666497 6.72030105861135 29.9
vertex 41.0731667529565 3.17192075293481 29.9
vertex 40.930959867579 7.33708432661411 29.9
endloop
endfacet
facet normal 0.0 0.0 1.0
outer loop
vertex 40.930959867579 7.33708432661411 29.9
vertex 41.0731667529565 3.17192075293481 29.9
vertex 40.9703863610066 7.96375049443563 29.9
endloop
endfacet
facet normal 0.0 0.0 1.0
outer loop
vertex 30.8676059690567 12.7555802359364 29.9
vertex 31.0098128544342 8.59041666225715 29.9
vertex 31.5084184327658 13.3573431938662 29.9
endloop
endfacet
facet normal 0.0 0.0 1.0
outer loop
vertex 31.0098128544342 8.59041666225715 29.9
vertex 30.8676059690567 12.7555802359364 29.9
vertex 30.9703863610066 7.96375049443563 29.9
endloop
endfacet
facet normal 0.0 0.0 1.0
outer loop
vertex 31.5084184327658 13.3573431938662 29.9
vertex 31.0098128544342 8.59041666225715 29.9
vertex 31.1274705553634 9.2071999302599 29.9
endloop
endfacet
facet normal 0.0 0.0 1.0
outer loop
vertex 31.5084184327658 13.3573431938662 29.9
vertex 31.1274705553634 9.2071999302599 29.9
vertex 31.3215039315653 9.80437325785902 29.9
endloop
endfacet
facet normal 0.0 0.0 1.0
outer loop
vertex 31.5084184327658 13.3573431938662 29.9
vertex 31.3215039315653 9.80437325785902 29.9
vertex 31.5888529607873 10.3725188649442 29.9
endloop
endfacet
facet normal 0.0 0.0 1.0
outer loop
vertex 31.5084184327658 13.3573431938662 29.9
vertex 31.5888529607873 10.3725188649442 29.9
vertex 32.2195987961536 13.8740459729497 29.9
endloop
endfacet
facet normal 0.0 0.0 1.0
outer loop
vertex 32.2195987961536 13.8740459729497 29.9
vertex 31.5888529607873 10.3725188649442 29.9
vertex 31.9253013891319 10.902676755898 29.9
endloop
endfacet
facet normal 0.0 0.0 1.0
outer loop
vertex 32.2195987961536 13.8740459729497 29.9
vertex 31.9253013891319 10.902676755898 29.9
vertex 32.3255432238995 11.3864860240791 29.9
endloop
endfacet
facet normal 0.0 0.0 1.0
outer loop
vertex 32.2195987961536 13.8740459729497 29.9
vertex 32.3255432238995 11.3864860240791 29.9
vertex 32.9899313200511 14.2975398616978 29.9
endloop
endfacet
facet normal 0.0 0.0 1.0
outer loop
vertex 32.9899313200511 14.2975398616978 29.9
vertex 32.3255432238995 11.3864860240791 29.9
vertex 32.7832664122631 11.8163167083146 29.9
endloop
endfacet
facet normal 0.0 0.0 1.0
outer loop
vertex 32.9899313200511 14.2975398616978 29.9
vertex 32.7832664122631 11.8163167083146 29.9
vertex 33.2912523861116 12.1853901219457 29.9
endloop
endfacet
facet normal 0.0 0.0 1.0
outer loop
vertex 32.9899313200511 14.2975398616978 29.9
vertex 33.2912523861116 12.1853901219457 29.9
vertex 33.807267400382 14.6211461085017 29.9
endloop
endfacet
facet normal 0.0 0.0 1.0
outer loop
vertex 33.807267400382 14.6211461085017 29.9
vertex 33.2912523861116 12.1853901219457 29.9
vertex 33.8414899031812 12.4878857567657 29.9
endloop
endfacet
facet normal 0.0 0.0 1.0
outer loop
vertex 33.807267400382 14.6211461085017 29.9
vertex 33.8414899031812 12.4878857567657 29.9
vertex 34.6587171589065 14.8397612495364 29.9
endloop
endfacet
facet normal 0.0 0.0 1.0
outer loop
vertex 34.6587171589065 14.8397612495364 29.9
vertex 33.8414899031812 12.4878857567657 29.9
vertex 34.4253013891318 12.7190330759114 29.9
endloop
endfacet
facet normal 0.0 0.0 1.0
outer loop
vertex 34.6587171589065 14.8397612495364 29.9
vertex 34.4253013891318 12.7190330759114 29.9
vertex 35.033479788078 12.8751867480791 29.9
endloop
endfacet
facet normal 0.0 0.0 1.0
outer loop
vertex 34.6587171589065 14.8397612495364 29.9
vertex 35.033479788078 12.8751867480791 29.9
vertex 35.5308527243014 14.9499375934335 29.9
endloop
endfacet
facet normal 0.0 0.0 1.0
outer loop
vertex 35.5308527243014 14.9499375934335 29.9
vertex 35.033479788078 12.8751867480791 29.9
vertex 35.65643376336 12.953884136577 29.9
endloop
endfacet
facet normal 0.0 0.0 1.0
outer loop
vertex 35.5308527243014 14.9499375934335 29.9
vertex 35.65643376336 12.953884136577 29.9
vertex 36.4099199977118 14.9499375934335 29.9
endloop
endfacet
facet normal 0.0 0.0 1.0
outer loop
vertex 36.4099199977118 14.9499375934335 29.9
vertex 35.65643376336 12.953884136577 29.9
vertex 36.2843389586532 12.953884136577 29.9
endloop
endfacet
facet normal 0.0 0.0 1.0
outer loop
vertex 36.4099199977118 14.9499375934335 29.9
vertex 36.2843389586532 12.953884136577 29.9
vertex 36.9072929339352 12.8751867480791 29.9
endloop
endfacet
facet normal 0.0 0.0 1.0
outer loop
vertex 36.4099199977118 14.9499375934335 29.9
vertex 36.9072929339352 12.8751867480791 29.9
vertex 37.2820555631067 14.8397612495364 29.9
endloop
endfacet
facet normal 0.0 0.0 1.0
outer loop
vertex 37.2820555631067 14.8397612495364 29.9
vertex 36.9072929339352 12.8751867480791 29.9
vertex 37.5154713328813 12.7190330759114 29.9
endloop
endfacet
facet normal 0.0 0.0 1.0
outer loop
vertex 37.2820555631067 14.8397612495364 29.9
vertex 37.5154713328813 12.7190330759114 29.9
vertex 38.1335053216312 14.6211461085017 29.9
endloop
endfacet
facet normal 0.0 0.0 1.0
outer loop
vertex 38.1335053216312 14.6211461085017 29.9
vertex 37.5154713328813 12.7190330759114 29.9
vertex 38.099282818832 12.4878857567657 29.9
endloop
endfacet
facet normal 0.0 0.0 1.0
outer loop
vertex 38.1335053216312 14.6211461085017 29.9
vertex 38.099282818832 12.4878857567657 29.9
vertex 38.6495203359016 12.1853901219457 29.9
endloop
endfacet
facet normal 0.0 0.0 1.0
outer loop
vertex 38.1335053216312 14.6211461085017 29.9
vertex 38.6495203359016 12.1853901219457 29.9
vertex 38.9508414019621 14.2975398616978 29.9
endloop
endfacet
facet normal 0.0 0.0 1.0
outer loop
vertex 38.9508414019621 14.2975398616978 29.9
vertex 38.6495203359016 12.1853901219457 29.9
vertex 39.15750630975 11.8163167083146 29.9
endloop
endfacet
facet normal 0.0 0.0 1.0
outer loop
vertex 38.9508414019621 14.2975398616978 29.9
vertex 39.15750630975 11.8163167083146 29.9
vertex 39.7211739258596 13.8740459729497 29.9
endloop
endfacet
facet normal 0.0 0.0 1.0
outer loop
vertex 39.7211739258596 13.8740459729497 29.9
vertex 39.15750630975 11.8163167083146 29.9
vertex 39.6152294981136 11.3864860240791 29.9
endloop
endfacet
facet normal 0.0 0.0 1.0
outer loop
vertex 39.7211739258596 13.8740459729497 29.9
vertex 39.6152294981136 11.3864860240791 29.9
vertex 40.0154713328813 10.902676755898 29.9
endloop
endfacet
facet normal 0.0 0.0 1.0
outer loop
vertex 39.7211739258596 13.8740459729497 29.9
vertex 40.0154713328813 10.902676755898 29.9
vertex 40.4323542892474 13.3573431938662 29.9
endloop
endfacet
facet normal 0.0 0.0 1.0
outer loop
vertex 40.4323542892474 13.3573431938662 29.9
vertex 40.0154713328813 10.902676755898 29.9
vertex 40.3519197612259 10.3725188649442 29.9
endloop
endfacet
facet normal 0.0 0.0 1.0
outer loop
vertex 40.4323542892474 13.3573431938662 29.9
vertex 40.3519197612259 10.3725188649442 29.9
vertex 40.6192687904478 9.80437325785902 29.9
endloop
endfacet
facet normal 0.0 0.0 1.0
outer loop
vertex 40.4323542892474 13.3573431938662 29.9
vertex 40.6192687904478 9.80437325785902 29.9
vertex 41.0731667529565 12.7555802359364 29.9
endloop
endfacet
facet normal 0.0 0.0 1.0
outer loop
vertex 41.0731667529565 12.7555802359364 29.9
vertex 40.6192687904478 9.80437325785902 29.9
vertex 40.8133021666497 9.2071999302599 29.9
endloop
endfacet
facet normal 0.0 0.0 1.0
outer loop
vertex 41.0731667529565 12.7555802359364 29.9
vertex 40.8133021666497 9.2071999302599 29.9
vertex 40.930959867579 8.59041666225715 29.9
endloop
endfacet
facet normal 0.0 0.0 1.0
outer loop
vertex 41.0731667529565 12.7555802359364 29.9
vertex 40.930959867579 8.59041666225715 29.9
vertex 40.9703863610066 7.96375049443563 29.9
endloop
endfacet
facet normal 0.0 0.0 1.0
outer loop
vertex 41.0731667529565 12.7555802359364 29.9
vertex 40.9703863610066 7.96375049443563 29.9
vertex 41.0731667529565 3.17192075293481 29.9
endloop
endfacet
facet normal 0.0 0.0 1.0
outer loop
vertex 41.0731667529565 12.7555802359364 29.9
vertex 41.0731667529565 3.17192075293481 29.9
vertex 41.6335053216312 3.84925372838831 29.9
endloop
endfacet
facet normal 0.0 0.0 1.0
outer loop
vertex 41.0731667529565 12.7555802359364 29.9
vertex 41.6335053216312 3.84925372838831 29.9
vertex 41.6335053216312 12.0782472604829 29.9
endloop
endfacet
facet normal 0.0 0.0 1.0
outer loop
vertex 41.6335053216312 12.0782472604829 29.9
vertex 41.6335053216312 3.84925372838831 29.9
vertex 42.1045331213136 4.59147477572362 29.9
endloop
endfacet
facet normal 0.0 0.0 1.0
outer loop
vertex 41.6335053216312 12.0782472604829 29.9
vertex 42.1045331213136 4.59147477572362 29.9
vertex 42.1045331213136 11.3360262131476 29.9
endloop
endfacet
facet normal 0.0 0.0 1.0
outer loop
vertex 42.1045331213136 11.3360262131476 29.9
vertex 42.1045331213136 4.59147477572362 29.9
vertex 42.4788217622243 5.38687862564288 29.9
endloop
endfacet
facet normal 0.0 0.0 1.0
outer loop
vertex 42.1045331213136 11.3360262131476 29.9
vertex 42.4788217622243 5.38687862564288 29.9
vertex 42.4788217622243 10.5406223632284 29.9
endloop
endfacet
facet normal 0.0 0.0 1.0
outer loop
vertex 42.4788217622243 10.5406223632284 29.9
vertex 42.4788217622243 5.38687862564288 29.9
vertex 42.750468488907 9.70457970458961 29.9
endloop
endfacet
facet normal 0.0 0.0 1.0
outer loop
vertex 42.750468488907 9.70457970458961 29.9
vertex 42.4788217622243 5.38687862564288 29.9
vertex 42.750468488907 6.22292128428164 29.9
endloop
endfacet
facet normal 0.0 0.0 1.0
outer loop
vertex 42.750468488907 9.70457970458961 29.9
vertex 42.750468488907 6.22292128428164 29.9
vertex 42.9151892702079 7.0864178594855 29.9
endloop
endfacet
facet normal 0.0 0.0 1.0
outer loop
vertex 42.750468488907 9.70457970458961 29.9
vertex 42.9151892702079 7.0864178594855 29.9
vertex 42.9151892702079 8.84108312938576 29.9
endloop
endfacet
facet normal 0.0 0.0 1.0
outer loop
vertex 42.9151892702079 8.84108312938576 29.9
vertex 42.9151892702079 7.0864178594855 29.9
vertex 42.9703863610066 7.96375049443563 29.9
endloop
endfacet
facet normal -0.368124552684677 0.929776485888252 0.0
outer loop
vertex 37.5154713328813 3.20846791295986 29.9
vertex 38.099282818832 3.43961523210553 4.5
vertex 37.5154713328813 3.20846791295986 4.5
endloop
endfacet
facet normal -0.368124552684677 0.929776485888252 0.0
outer loop
vertex 38.099282818832 3.43961523210553 4.5
vertex 37.5154713328813 3.20846791295986 29.9
vertex 38.099282818832 3.43961523210553 29.9
endloop
endfacet
facet normal -0.481753674101715 0.876306680043863 0.0
outer loop
vertex 38.099282818832 3.43961523210553 29.9
vertex 38.6495203359016 3.74211086692555 4.5
vertex 38.099282818832 3.43961523210553 4.5
endloop
endfacet
facet normal -0.481753674101715 0.876306680043863 0.0
outer loop
vertex 38.6495203359016 3.74211086692555 4.5
vertex 38.099282818832 3.43961523210553 29.9
vertex 38.6495203359016 3.74211086692555 29.9
endloop
endfacet
facet normal -0.587785252292473 0.809016994374948 0.0
outer loop
vertex 38.6495203359016 3.74211086692555 29.9
vertex 39.15750630975 4.11118428055668 4.5
vertex 38.6495203359016 3.74211086692555 4.5
endloop
endfacet
facet normal -0.587785252292473 0.809016994374948 0.0
outer loop
vertex 39.15750630975 4.11118428055668 4.5
vertex 38.6495203359016 3.74211086692555 29.9
vertex 39.15750630975 4.11118428055668 29.9
endloop
endfacet
facet normal -0.684547105928689 0.728968627421412 0.0
outer loop
vertex 39.15750630975 4.11118428055668 29.9
vertex 39.6152294981136 4.54101496479218 4.5
vertex 39.15750630975 4.11118428055668 4.5
endloop
endfacet
facet normal -0.684547105928689 0.728968627421412 0.0
outer loop
vertex 39.6152294981136 4.54101496479218 4.5
vertex 39.15750630975 4.11118428055668 29.9
vertex 39.6152294981136 4.54101496479218 29.9
endloop
endfacet
facet normal -0.770513242775788 0.637423989748691 0.0
outer loop
vertex 40.0154713328813 5.02482423297326 29.9
vertex 39.6152294981136 4.54101496479218 4.5
vertex 39.6152294981136 4.54101496479218 29.9
endloop
endfacet
facet normal -0.770513242775788 0.637423989748691 0.0
outer loop
vertex 39.6152294981136 4.54101496479218 4.5
vertex 40.0154713328813 5.02482423297326 29.9
vertex 40.0154713328813 5.02482423297326 4.5
endloop
endfacet
facet normal -0.844327925502016 0.535826794978995 0.0
outer loop
vertex 40.3519197612259 5.55498212392705 29.9
vertex 40.0154713328813 5.02482423297326 4.5
vertex 40.0154713328813 5.02482423297326 29.9
endloop
endfacet
facet normal -0.844327925502016 0.535826794978995 0.0
outer loop
vertex 40.0154713328813 5.02482423297326 4.5
vertex 40.3519197612259 5.55498212392705 29.9
vertex 40.3519197612259 5.55498212392705 4.5
endloop
endfacet
facet normal -0.904827052466019 0.425779291565075 0.0
outer loop
vertex 40.6192687904478 6.12312773101224 29.9
vertex 40.3519197612259 5.55498212392705 4.5
vertex 40.3519197612259 5.55498212392705 29.9
endloop
endfacet
facet normal -0.904827052466019 0.425779291565075 0.0
outer loop
vertex 40.3519197612259 5.55498212392705 4.5
vertex 40.6192687904478 6.12312773101224 29.9
vertex 40.6192687904478 6.12312773101224 4.5
endloop
endfacet
facet normal -0.951056516295154 0.309016994374947 0.0
outer loop
vertex 40.8133021666497 6.72030105861135 29.9
vertex 40.6192687904478 6.12312773101224 4.5
vertex 40.6192687904478 6.12312773101224 29.9
endloop
endfacet
facet normal -0.951056516295154 0.309016994374947 0.0
outer loop
vertex 40.6192687904478 6.12312773101224 4.5
vertex 40.8133021666497 6.72030105861135 29.9
vertex 40.8133021666497 6.72030105861135 4.5
endloop
endfacet
facet normal -0.982287250728689 0.187381314585726 0.0
outer loop
vertex 40.930959867579 7.33708432661411 29.9
vertex 40.8133021666497 6.72030105861135 4.5
vertex 40.8133021666497 6.72030105861135 29.9
endloop
endfacet
facet normal -0.982287250728689 0.187381314585726 0.0
outer loop
vertex 40.8133021666497 6.72030105861135 4.5
vertex 40.930959867579 7.33708432661411 29.9
vertex 40.930959867579 7.33708432661411 4.5
endloop
endfacet
facet normal -0.998026728428272 0.0627905195293137 0.0
outer loop
vertex 40.9703863610066 7.96375049443563 29.9
vertex 40.930959867579 7.33708432661411 4.5
vertex 40.930959867579 7.33708432661411 29.9
endloop
endfacet
facet normal -0.998026728428272 0.0627905195293137 0.0
outer loop
vertex 40.930959867579 7.33708432661411 4.5
vertex 40.9703863610066 7.96375049443563 29.9
vertex 40.9703863610066 7.96375049443563 4.5
endloop
endfacet
facet normal -0.998026728428272 -0.0627905195293131 -0.0
outer loop
vertex 40.930959867579 8.59041666225715 29.9
vertex 40.9703863610066 7.96375049443563 4.5
vertex 40.9703863610066 7.96375049443563 29.9
endloop
endfacet
facet normal -0.998026728428272 -0.0627905195293131 -0.0
outer loop
vertex 40.9703863610066 7.96375049443563 4.5
vertex 40.930959867579 8.59041666225715 29.9
vertex 40.930959867579 8.59041666225715 4.5
endloop
endfacet
facet normal -0.982287250728689 -0.187381314585726 -0.0
outer loop
vertex 40.8133021666497 9.2071999302599 29.9
vertex 40.930959867579 8.59041666225715 4.5
vertex 40.930959867579 8.59041666225715 29.9
endloop
endfacet
facet normal -0.982287250728689 -0.187381314585726 -0.0
outer loop
vertex 40.930959867579 8.59041666225715 4.5
vertex 40.8133021666497 9.2071999302599 29.9
vertex 40.8133021666497 9.2071999302599 4.5
endloop
endfacet
facet normal -0.951056516295154 -0.309016994374947 -0.0
outer loop
vertex 40.6192687904478 9.80437325785902 29.9
vertex 40.8133021666497 9.2071999302599 4.5
vertex 40.8133021666497 9.2071999302599 29.9
endloop
endfacet
facet normal -0.951056516295154 -0.309016994374947 -0.0
outer loop
vertex 40.8133021666497 9.2071999302599 4.5
vertex 40.6192687904478 9.80437325785902 29.9
vertex 40.6192687904478 9.80437325785902 4.5
endloop
endfacet
facet normal -0.904827052466019 -0.425779291565075 -0.0
outer loop
vertex 40.3519197612259 10.3725188649442 29.9
vertex 40.6192687904478 9.80437325785902 4.5
vertex 40.6192687904478 9.80437325785902 29.9
endloop
endfacet
facet normal -0.904827052466019 -0.425779291565075 -0.0
outer loop
vertex 40.6192687904478 9.80437325785902 4.5
vertex 40.3519197612259 10.3725188649442 29.9
vertex 40.3519197612259 10.3725188649442 4.5
endloop
endfacet
facet normal -0.844327925502017 -0.535826794978994 -0.0
outer loop
vertex 40.0154713328813 10.902676755898 29.9
vertex 40.3519197612259 10.3725188649442 4.5
vertex 40.3519197612259 10.3725188649442 29.9
endloop
endfacet
facet normal -0.844327925502017 -0.535826794978994 -0.0
outer loop
vertex 40.3519197612259 10.3725188649442 4.5
vertex 40.0154713328813 10.902676755898 29.9
vertex 40.0154713328813 10.902676755898 4.5
endloop
endfacet
facet normal -0.770513242775787 -0.637423989748692 -0.0
outer loop
vertex 39.6152294981136 11.3864860240791 29.9
vertex 40.0154713328813 10.902676755898 4.5
vertex 40.0154713328813 10.902676755898 29.9
endloop
endfacet
facet normal -0.770513242775787 -0.637423989748692 -0.0
outer loop
vertex 40.0154713328813 10.902676755898 4.5
vertex 39.6152294981136 11.3864860240791 29.9
vertex 39.6152294981136 11.3864860240791 4.5
endloop
endfacet
facet normal -0.684547105928689 -0.728968627421411 -0.0
outer loop
vertex 39.6152294981136 11.3864860240791 29.9
vertex 39.15750630975 11.8163167083146 4.5
vertex 39.6152294981136 11.3864860240791 4.5
endloop
endfacet
facet normal -0.684547105928689 -0.728968627421411 -0.0
outer loop
vertex 39.15750630975 11.8163167083146 4.5
vertex 39.6152294981136 11.3864860240791 29.9
vertex 39.15750630975 11.8163167083146 29.9
endloop
endfacet
facet normal -0.587785252292473 -0.809016994374948 -0.0
outer loop
vertex 39.15750630975 11.8163167083146 29.9
vertex 38.6495203359016 12.1853901219457 4.5
vertex 39.15750630975 11.8163167083146 4.5
endloop
endfacet
facet normal -0.587785252292473 -0.809016994374948 -0.0
outer loop
vertex 38.6495203359016 12.1853901219457 4.5
vertex 39.15750630975 11.8163167083146 29.9
vertex 38.6495203359016 12.1853901219457 29.9
endloop
endfacet
facet normal -0.481753674101714 -0.876306680043864 -0.0
outer loop
vertex 38.6495203359016 12.1853901219457 29.9
vertex 38.099282818832 12.4878857567657 4.5
vertex 38.6495203359016 12.1853901219457 4.5
endloop
endfacet
facet normal -0.481753674101714 -0.876306680043864 -0.0
outer loop
vertex 38.099282818832 12.4878857567657 4.5
vertex 38.6495203359016 12.1853901219457 29.9
vertex 38.099282818832 12.4878857567657 29.9
endloop
endfacet
facet normal -0.368124552684678 -0.929776485888251 -0.0
outer loop
vertex 38.099282818832 12.4878857567657 29.9
vertex 37.5154713328813 12.7190330759114 4.5
vertex 38.099282818832 12.4878857567657 4.5
endloop
endfacet
facet normal -0.368124552684678 -0.929776485888251 -0.0
outer loop
vertex 37.5154713328813 12.7190330759114 4.5
vertex 38.099282818832 12.4878857567657 29.9
vertex 37.5154713328813 12.7190330759114 29.9
endloop
endfacet
facet normal -0.248689887164858 -0.96858316112863 -0.0
outer loop
vertex 37.5154713328813 12.7190330759114 29.9
vertex 36.9072929339352 12.8751867480791 4.5
vertex 37.5154713328813 12.7190330759114 4.5
endloop
endfacet
facet normal -0.248689887164858 -0.96858316112863 -0.0
outer loop
vertex 36.9072929339352 12.8751867480791 4.5
vertex 37.5154713328813 12.7190330759114 29.9
vertex 36.9072929339352 12.8751867480791 29.9
endloop
endfacet
facet normal -0.125333233564303 -0.992114701314478 -0.0
outer loop
vertex 36.9072929339352 12.8751867480791 29.9
vertex 36.2843389586532 12.953884136577 4.5
vertex 36.9072929339352 12.8751867480791 4.5
endloop
endfacet
facet normal -0.125333233564303 -0.992114701314478 -0.0
outer loop
vertex 36.2843389586532 12.953884136577 4.5
vertex 36.9072929339352 12.8751867480791 29.9
vertex 36.2843389586532 12.953884136577 29.9
endloop
endfacet
facet normal 4.49107047319685e-015 -1.0 0.0
outer loop
vertex 36.2843389586532 12.953884136577 29.9
vertex 35.65643376336 12.953884136577 4.5
vertex 36.2843389586532 12.953884136577 4.5
endloop
endfacet
facet normal 4.49107047319685e-015 -1.0 0.0
outer loop
vertex 35.65643376336 12.953884136577 4.5
vertex 36.2843389586532 12.953884136577 29.9
vertex 35.65643376336 12.953884136577 29.9
endloop
endfacet
facet normal 0.125333233564303 -0.992114701314478 0.0
outer loop
vertex 35.65643376336 12.953884136577 29.9
vertex 35.033479788078 12.8751867480791 4.5
vertex 35.65643376336 12.953884136577 4.5
endloop
endfacet
facet normal 0.125333233564303 -0.992114701314478 0.0
outer loop
vertex 35.033479788078 12.8751867480791 4.5
vertex 35.65643376336 12.953884136577 29.9
vertex 35.033479788078 12.8751867480791 29.9
endloop
endfacet
facet normal 0.248689887164853 -0.968583161128632 0.0
outer loop
vertex 35.033479788078 12.8751867480791 29.9
vertex 34.4253013891318 12.7190330759114 4.5
vertex 35.033479788078 12.8751867480791 4.5
endloop
endfacet
facet normal 0.248689887164853 -0.968583161128632 0.0
outer loop
vertex 34.4253013891318 12.7190330759114 4.5
vertex 35.033479788078 12.8751867480791 29.9
vertex 34.4253013891318 12.7190330759114 29.9
endloop
endfacet
facet normal 0.368124552684678 -0.929776485888251 0.0
outer loop
vertex 34.4253013891318 12.7190330759114 29.9
vertex 33.8414899031812 12.4878857567657 4.5
vertex 34.4253013891318 12.7190330759114 4.5
endloop
endfacet
facet normal 0.368124552684678 -0.929776485888251 0.0
outer loop
vertex 33.8414899031812 12.4878857567657 4.5
vertex 34.4253013891318 12.7190330759114 29.9
vertex 33.8414899031812 12.4878857567657 29.9
endloop
endfacet
facet normal 0.481753674101715 -0.876306680043863 0.0
outer loop
vertex 33.8414899031812 12.4878857567657 29.9
vertex 33.2912523861116 12.1853901219457 4.5
vertex 33.8414899031812 12.4878857567657 4.5
endloop
endfacet
facet normal 0.481753674101715 -0.876306680043863 0.0
outer loop
vertex 33.2912523861116 12.1853901219457 4.5
vertex 33.8414899031812 12.4878857567657 29.9
vertex 33.2912523861116 12.1853901219457 29.9
endloop
endfacet
facet normal 0.587785252292472 -0.809016994374948 0.0
outer loop
vertex 33.2912523861116 12.1853901219457 29.9
vertex 32.7832664122631 11.8163167083146 4.5
vertex 33.2912523861116 12.1853901219457 4.5
endloop
endfacet
facet normal 0.587785252292472 -0.809016994374948 0.0
outer loop
vertex 32.7832664122631 11.8163167083146 4.5
vertex 33.2912523861116 12.1853901219457 29.9
vertex 32.7832664122631 11.8163167083146 29.9
endloop
endfacet
facet normal 0.684547105928688 -0.728968627421412 0.0
outer loop
vertex 32.7832664122631 11.8163167083146 29.9
vertex 32.3255432238995 11.3864860240791 4.5
vertex 32.7832664122631 11.8163167083146 4.5
endloop
endfacet
facet normal 0.684547105928688 -0.728968627421412 0.0
outer loop
vertex 32.3255432238995 11.3864860240791 4.5
vertex 32.7832664122631 11.8163167083146 29.9
vertex 32.3255432238995 11.3864860240791 29.9
endloop
endfacet
facet normal 0.77051324277579 -0.637423989748689 0.0
outer loop
vertex 32.3255432238995 11.3864860240791 4.5
vertex 31.9253013891319 10.902676755898 29.9
vertex 31.9253013891319 10.902676755898 4.5
endloop
endfacet
facet normal 0.77051324277579 -0.637423989748689 0.0
outer loop
vertex 31.9253013891319 10.902676755898 29.9
vertex 32.3255432238995 11.3864860240791 4.5
vertex 32.3255432238995 11.3864860240791 29.9
endloop
endfacet
facet normal 0.844327925502014 -0.535826794978998 0.0
outer loop
vertex 31.9253013891319 10.902676755898 4.5
vertex 31.5888529607873 10.3725188649442 29.9
vertex 31.5888529607873 10.3725188649442 4.5
endloop
endfacet
facet normal 0.844327925502014 -0.535826794978998 0.0
outer loop
vertex 31.5888529607873 10.3725188649442 29.9
vertex 31.9253013891319 10.902676755898 4.5
vertex 31.9253013891319 10.902676755898 29.9
endloop
endfacet
facet normal 0.904827052466019 -0.425779291565073 0.0
outer loop
vertex 31.5888529607873 10.3725188649442 4.5
vertex 31.3215039315653 9.80437325785902 29.9
vertex 31.3215039315653 9.80437325785902 4.5
endloop
endfacet
facet normal 0.904827052466019 -0.425779291565073 0.0
outer loop
vertex 31.3215039315653 9.80437325785902 29.9
vertex 31.5888529607873 10.3725188649442 4.5
vertex 31.5888529607873 10.3725188649442 29.9
endloop
endfacet
facet normal 0.951056516295154 -0.309016994374946 0.0
outer loop
vertex 31.3215039315653 9.80437325785902 4.5
vertex 31.1274705553634 9.2071999302599 29.9
vertex 31.1274705553634 9.2071999302599 4.5
endloop
endfacet
facet normal 0.951056516295154 -0.309016994374946 0.0
outer loop
vertex 31.1274705553634 9.2071999302599 29.9
vertex 31.3215039315653 9.80437325785902 4.5
vertex 31.3215039315653 9.80437325785902 29.9
endloop
endfacet
endsolid geocache_micro
