solid frame_holder
facet normal -2.05912219124441e-028 -6.12304990081786e-017 -1.0
outer loop
vertex 613.20934 1163.79999904 1.83691005878112e-015
vertex 596.138309453727 1146.72893069373 2.88218009222976e-015
vertex 613.067239995453 1163.79999904 1.83691005878112e-015
endloop
endfacet
facet normal -0.707106781186547 0.707106781186547 0.0
outer loop
vertex 599.067239547452 1163.79999904 20.00000064
vertex 595.095339420352 1159.8280989129 13.1837004218784
vertex 589.067239227452 1153.79999872 20.00000064
endloop
endfacet
facet normal -0.707106671186556 -0.707106891186522 -4.8233217982653e-017
outer loop
vertex 589.067239227452 1153.79999872 20.00000064
vertex 596.138309453727 1146.72893069373 2.88218009222976e-015
vertex 596.138309453727 1146.72893069373 20.00000064
endloop
endfacet
facet normal -1.54448671245263e-017 -3.73319900863942e-017 -1.0
outer loop
vertex 604.567239659452 1219.8 0.0
vertex 599.067239547452 1163.79999904 1.83691005878112e-015
vertex 599.067239547452 1219.8 0.0
endloop
endfacet
facet normal -1.54448671245263e-017 -3.73319900863942e-017 -1.0
outer loop
vertex 613.067239995453 1219.8 0.0
vertex 607.567239883453 1169.799999232 1.46953004702496e-015
vertex 607.567239883453 1219.8 0.0
endloop
endfacet
facet normal -1.54448671245263e-017 -3.73319900863942e-017 -1.0
outer loop
vertex 599.067239547452 1163.79999904 1.83691005878112e-015
vertex 596.138309453727 1146.72893069373 2.88218009222976e-015
vertex 589.067239227452 1153.79999872 2.44921007837472e-015
endloop
endfacet
facet normal -1.54448671245263e-017 -3.73319900863942e-017 -1.0
outer loop
vertex 596.138309453727 1146.72893069373 2.88218009222976e-015
vertex 599.067239547452 1163.79999904 1.83691005878112e-015
vertex 613.067239995453 1163.79999904 1.83691005878112e-015
endloop
endfacet
facet normal -1.54448671245263e-017 -3.73319900863942e-017 -1.0
outer loop
vertex 613.067239995453 1163.79999904 1.83691005878112e-015
vertex 599.067239547452 1163.79999904 1.83691005878112e-015
vertex 604.567239659452 1169.799999232 1.46953004702496e-015
endloop
endfacet
facet normal -1.54448671245263e-017 -3.73319900863942e-017 -1.0
outer loop
vertex 604.567239659452 1169.799999232 1.46953004702496e-015
vertex 599.067239547452 1163.79999904 1.83691005878112e-015
vertex 604.567239659452 1219.8 0.0
endloop
endfacet
facet normal -1.54448671245263e-017 -3.73319900863942e-017 -1.0
outer loop
vertex 613.067239995453 1163.79999904 1.83691005878112e-015
vertex 604.567239659452 1169.799999232 1.46953004702496e-015
vertex 607.567239883453 1169.799999232 1.46953004702496e-015
endloop
endfacet
facet normal -1.54448671245263e-017 -3.73319900863942e-017 -1.0
outer loop
vertex 613.067239995453 1163.79999904 1.83691005878112e-015
vertex 607.567239883453 1169.799999232 1.46953004702496e-015
vertex 613.067239995453 1219.8 0.0
endloop
endfacet
facet normal -1.54448671245263e-017 -3.73319900863942e-017 -1.0
outer loop
vertex 613.067239995453 1163.79999904 1.83691005878112e-015
vertex 613.067239995453 1219.8 0.0
vertex 613.067239995453 1173.79999936 1.22461003918752e-015
endloop
endfacet
facet normal -0.707106781186547 0.707106781186547 0.0
outer loop
vertex 591.692619311465 1156.42537880401 10.9861003515552
vertex 589.067239227452 1153.79999872 2.44921007837472e-015
vertex 589.067239227452 1153.79999872 20.00000064
endloop
endfacet
facet normal -0.707106781186547 0.707106781186547 0.0
outer loop
vertex 591.692619311465 1156.42537880401 9.01394028844608
vertex 589.067239227452 1153.79999872 2.44921007837472e-015
vertex 591.692619311465 1156.42537880401 10.9861003515552
endloop
endfacet
facet normal -0.707106781186547 0.707106781186547 -2.42417278804679e-016
outer loop
vertex 592.44653933559 1157.17929882814 7.35488023535616
vertex 589.067239227452 1153.79999872 2.44921007837472e-015
vertex 591.692619311465 1156.42537880401 9.01394028844608
endloop
endfacet
facet normal -0.707106671186556 -0.707106891186522 0.0
outer loop
vertex 589.067239227452 1153.79999872 20.00000064
vertex 589.067239227452 1153.79999872 2.44921007837472e-015
vertex 596.138309453727 1146.72893069373 2.88218009222976e-015
endloop
endfacet
facet normal 0.70708643305054 -0.707127127697404 -3.83442698956225e-005
outer loop
vertex 603.220339680352 1153.81092872035 11.8922003805504
vertex 603.613139692921 1154.20380873292 10.00000032
vertex 613.20934 1163.79999904 1.83691005878112e-015
endloop
endfacet
facet normal 0.707107831594795 -0.707105730776739 -5.46705568413341e-018
outer loop
vertex 598.763679537739 1149.35430857774 9.01394028844608
vertex 596.138309453727 1146.72893069373 20.00000064
vertex 596.138309453727 1146.72893069373 2.88218009222976e-015
endloop
endfacet
facet normal 0.707095760013337 -0.707117802153018 -7.03183872803199e-006
outer loop
vertex 596.138309453727 1146.72893069373 20.00000064
vertex 598.763679537739 1149.35430857774 10.9861003515552
vertex 599.517639561865 1150.10822860186 12.6451004046432
endloop
endfacet
facet normal 0.0 0.0 1.0
outer loop
vertex 599.067239547452 1163.79999904 20.00000064
vertex 589.067239227452 1153.79999872 20.00000064
vertex 596.138309453727 1146.72893069373 20.00000064
endloop
endfacet
facet normal -0.707103658081236 0.707109904256489 5.52390138568945e-006
outer loop
vertex 589.067239227452 1153.79999872 20.00000064
vertex 595.095339420352 1159.8280989129 13.1837004218784
vertex 593.715029376182 1158.44779886873 13.4644004308608
endloop
endfacet
facet normal 0.707103860879444 -0.70710970148147 4.12189253926403e-007
outer loop
vertex 596.138309453727 1146.72893069373 20.00000064
vertex 599.517639561865 1150.10822860186 12.6451004046432
vertex 600.786139602457 1151.37671864245 13.4644004308608
endloop
endfacet
facet normal 0.707109022320641 -0.707104540045351 -9.88817262186704e-018
outer loop
vertex 613.20934 1163.79999904 20.00000064
vertex 602.166439646627 1152.75702868662 13.1837004218784
vertex 613.20934 1163.79999904 1.83691005878112e-015
endloop
endfacet
facet normal -0.707108930530773 0.70710463183303 -1.97508997807295e-006
outer loop
vertex 593.715029376182 1158.44779886873 13.4644004308608
vertex 592.44653933559 1157.17929882814 12.6451004046432
vertex 589.067239227452 1153.79999872 20.00000064
endloop
endfacet
facet normal 0.707107831594793 -0.707105730776742 0.0
outer loop
vertex 598.763679537739 1149.35430857774 10.9861003515552
vertex 596.138309453727 1146.72893069373 20.00000064
vertex 598.763679537739 1149.35430857774 9.01394028844608
endloop
endfacet
facet normal 0.707108271590617 -0.707105290775152 -2.43248500837891e-006
outer loop
vertex 613.20934 1163.79999904 1.83691005878112e-015
vertex 603.220339680352 1153.81092872035 8.10776025944832
vertex 602.166439646627 1152.75702868662 6.81629021812128
endloop
endfacet
facet normal -0.707116657918771 0.707096904280626 7.10934114165755e-006
outer loop
vertex 599.067239547452 1163.79999904 20.00000064
vertex 596.542109466648 1161.2748989592 10.00000032
vertex 596.149239454076 1160.88199894662 11.8922003805504
endloop
endfacet
facet normal 0.707107564042721 -0.707105998313721 4.72503133744374e-006
outer loop
vertex 613.20934 1163.79999904 20.00000064
vertex 596.138309453727 1146.72893069373 20.00000064
vertex 602.166439646627 1152.75702868662 13.1837004218784
endloop
endfacet
facet normal 0.707193707586524 -0.707019829861596 0.000141889066329023
outer loop
vertex 613.20934 1163.79999904 1.83691005878112e-015
vertex 602.166439646627 1152.75702868662 13.1837004218784
vertex 603.220339680352 1153.81092872035 11.8922003805504
endloop
endfacet
facet normal -0.707106781186547 0.707106781186547 0.0
outer loop
vertex 599.067239547452 1163.79999904 1.83691005878112e-015
vertex 595.095339420352 1159.8280989129 6.81629021812128
vertex 596.149239454076 1160.88199894662 8.10776025944832
endloop
endfacet
facet normal -0.707106781186547 0.707106781186548 2.4242543880467e-016
outer loop
vertex 589.067239227452 1153.79999872 20.00000064
vertex 592.44653933559 1157.17929882814 12.6451004046432
vertex 591.692619311465 1156.42537880401 10.9861003515552
endloop
endfacet
facet normal 0.707107564042721 -0.707105998313721 -4.72503826945878e-006
outer loop
vertex 613.20934 1163.79999904 1.83691005878112e-015
vertex 602.166439646627 1152.75702868662 6.81629021812128
vertex 596.138309453727 1146.72893069373 2.88218009222976e-015
endloop
endfacet
facet normal 0.707110318193963 -0.70710324409632 -9.59646738514274e-006
outer loop
vertex 602.166439646627 1152.75702868662 6.81629021812128
vertex 600.786139602457 1151.37671864245 6.53563020914016
vertex 596.138309453727 1146.72893069373 2.88218009222976e-015
endloop
endfacet
facet normal -0.707106781186547 0.707106781186548 8.85107233268174e-018
outer loop
vertex 599.067239547452 1163.79999904 20.00000064
vertex 599.067239547452 1163.79999904 1.83691005878112e-015
vertex 596.149239454076 1160.88199894662 8.10776025944832
endloop
endfacet
facet normal -0.707106781186548 0.707106781186547 3.97649053571286e-016
outer loop
vertex 599.067239547452 1163.79999904 20.00000064
vertex 596.149239454076 1160.88199894662 11.8922003805504
vertex 595.095339420352 1159.8280989129 13.1837004218784
endloop
endfacet
facet normal 0.0 0.0 1.0
outer loop
vertex 613.067239995453 1163.79999904 20.00000064
vertex 599.067239547452 1163.79999904 20.00000064
vertex 596.138309453727 1146.72893069373 20.00000064
endloop
endfacet
facet normal 0.0 0.0 1.0
outer loop
vertex 613.20934 1163.79999904 20.00000064
vertex 613.067239995453 1163.79999904 20.00000064
vertex 596.138309453727 1146.72893069373 20.00000064
endloop
endfacet
facet normal -0.707106781186547 0.707106781186547 -6.68738797280749e-017
outer loop
vertex 599.067239547452 1163.79999904 1.83691005878112e-015
vertex 589.067239227452 1153.79999872 2.44921007837472e-015
vertex 592.44653933559 1157.17929882814 7.35488023535616
endloop
endfacet
facet normal 0.0 0.0 1.0
outer loop
vertex 599.067239547452 1163.79999904 20.00000064
vertex 604.567239659452 1169.799999232 20.00000064
vertex 599.067239547452 1219.8 20.00000064
endloop
endfacet
facet normal 0.0 0.0 1.0
outer loop
vertex 604.567239659452 1169.799999232 20.00000064
vertex 599.067239547452 1163.79999904 20.00000064
vertex 613.067239995453 1163.79999904 20.00000064
endloop
endfacet
facet normal 0.0 0.0 1.0
outer loop
vertex 604.567239659452 1169.799999232 20.00000064
vertex 613.067239995453 1163.79999904 20.00000064
vertex 607.567239883453 1169.799999232 20.00000064
endloop
endfacet
facet normal 0.0 0.0 1.0
outer loop
vertex 607.567239883453 1169.799999232 20.00000064
vertex 613.067239995453 1163.79999904 20.00000064
vertex 607.567239883453 1219.8 20.00000064
endloop
endfacet
facet normal 0.0 0.0 1.0
outer loop
vertex 607.567239883453 1219.8 20.00000064
vertex 613.067239995453 1163.79999904 20.00000064
vertex 613.067239995453 1219.8 20.00000064
endloop
endfacet
facet normal 0.0 0.0 1.0
outer loop
vertex 613.067239995453 1219.8 20.00000064
vertex 613.067239995453 1163.79999904 20.00000064
vertex 613.067239995453 1173.79999936 20.00000064
endloop
endfacet
facet normal 0.0 0.0 1.0
outer loop
vertex 604.567239659452 1219.8 20.00000064
vertex 599.067239547452 1219.8 20.00000064
vertex 604.567239659452 1169.799999232 20.00000064
endloop
endfacet
facet normal -0.70710449110064 0.707109071260001 2.66889099064653e-006
outer loop
vertex 595.095339420352 1159.8280989129 6.81629021812128
vertex 599.067239547452 1163.79999904 1.83691005878112e-015
vertex 593.715029376182 1158.44779886873 6.53563020914016
endloop
endfacet
facet normal -0.707113439055627 0.707100123153181 -1.19866803026706e-005
outer loop
vertex 599.067239547452 1163.79999904 1.83691005878112e-015
vertex 592.44653933559 1157.17929882814 7.35488023535616
vertex 593.715029376182 1158.44779886873 6.53563020914016
endloop
endfacet
facet normal -0.70695824119778 0.707255286222858 -7.28859645320007e-005
outer loop
vertex 599.067239547452 1163.79999904 20.00000064
vertex 596.149239454076 1160.88199894662 8.10776025944832
vertex 596.542109466648 1161.2748989592 10.00000032
endloop
endfacet
facet normal 0.707103860885429 -0.707109701475485 -4.12195874560729e-007
outer loop
vertex 599.517639561865 1150.10822860186 7.35488023535616
vertex 596.138309453727 1146.72893069373 2.88218009222976e-015
vertex 600.786139602457 1151.37671864245 6.53563020914016
endloop
endfacet
facet normal -1.0 0.0 0.0
outer loop
vertex 599.067239547452 1219.8 20.00000064
vertex 599.067239547452 1163.79999904 1.83691005878112e-015
vertex 599.067239547452 1163.79999904 20.00000064
endloop
endfacet
facet normal -1.0 0.0 0.0
outer loop
vertex 599.067239547452 1163.79999904 1.83691005878112e-015
vertex 599.067239547452 1219.8 20.00000064
vertex 599.067239547452 1213.07605803375 11.0139158716687
endloop
endfacet
facet normal -1.0 0.0 0.0
outer loop
vertex 599.067239547452 1163.79999904 1.83691005878112e-015
vertex 599.067239547452 1213.07605803375 11.0139158716687
vertex 599.067239547452 1212.8723793597 10.5331785344203
endloop
endfacet
facet normal -1.0 0.0 0.0
outer loop
vertex 599.067239547452 1163.79999904 1.83691005878112e-015
vertex 599.067239547452 1212.8723793597 10.5331785344203
vertex 599.067239547452 1212.80006484675 10.0161060047853
endloop
endfacet
facet normal -1.0 0.0 0.0
outer loop
vertex 599.067239547452 1213.07605803375 11.0139158716687
vertex 599.067239547452 1219.8 20.00000064
vertex 599.067239547452 1213.39722050385 11.4255565614531
endloop
endfacet
facet normal -1.0 0.0 0.0
outer loop
vertex 599.067239547452 1213.39722050385 11.4255565614531
vertex 599.067239547452 1219.8 20.00000064
vertex 599.067239547452 1213.81398007841 11.7400479710329
endloop
endfacet
facet normal -1.0 0.0 0.0
outer loop
vertex 599.067239547452 1213.81398007841 11.7400479710329
vertex 599.067239547452 1219.8 20.00000064
vertex 599.067239547452 1214.29793528116 11.9359580305671
endloop
endfacet
facet normal -1.0 0.0 0.0
outer loop
vertex 599.067239547452 1214.29793528116 11.9359580305671
vertex 599.067239547452 1219.8 20.00000064
vertex 599.067239547452 1214.81610536479 11.9999357932549
endloop
endfacet
facet normal -1.0 0.0 0.0
outer loop
vertex 599.067239547452 1214.81610536479 11.9999357932549
vertex 599.067239547452 1219.8 20.00000064
vertex 599.067239547452 1215.33317789442 11.9276212802976
endloop
endfacet
facet normal -1.0 0.0 0.0
outer loop
vertex 599.067239547452 1215.33317789442 11.9276212802976
vertex 599.067239547452 1219.8 20.00000064
vertex 599.067239547452 1215.81391523167 11.7239426062476
endloop
endfacet
facet normal -1.0 0.0 0.0
outer loop
vertex 599.067239547452 1215.81391523167 11.7239426062476
vertex 599.067239547452 1219.8 20.00000064
vertex 599.067239547452 1216.22555592145 11.4027801361468
endloop
endfacet
facet normal -1.0 0.0 0.0
outer loop
vertex 599.067239547452 1216.22555592145 11.4027801361468
vertex 599.067239547452 1219.8 20.00000064
vertex 599.067239547452 1216.54004733103 10.9860205615862
endloop
endfacet
facet normal -1.0 0.0 0.0
outer loop
vertex 599.067239547452 1216.54004733103 10.9860205615862
vertex 599.067239547452 1219.8 20.00000064
vertex 599.067239547452 1216.73595739057 10.5020653588445
endloop
endfacet
facet normal -1.0 0.0 0.0
outer loop
vertex 599.067239547452 1216.73595739057 10.5020653588445
vertex 599.067239547452 1219.8 20.00000064
vertex 599.067239547452 1216.79993515325 9.98389527521471
endloop
endfacet
facet normal -1.0 0.0 0.0
outer loop
vertex 599.067239547452 1163.79999904 1.83691005878112e-015
vertex 599.067239547452 1213.05995266897 9.01398071841381
vertex 599.067239547452 1219.8 0.0
endloop
endfacet
facet normal -1.0 0.0 0.0
outer loop
vertex 599.067239547452 1213.05995266897 9.01398071841381
vertex 599.067239547452 1163.79999904 1.83691005878112e-015
vertex 599.067239547452 1212.86404260943 9.49793592115551
endloop
endfacet
facet normal -1.0 0.0 0.0
outer loop
vertex 599.067239547452 1212.86404260943 9.49793592115551
vertex 599.067239547452 1163.79999904 1.83691005878112e-015
vertex 599.067239547452 1212.80006484675 10.0161060047853
endloop
endfacet
facet normal -1.0 0.0 0.0
outer loop
vertex 599.067239547452 1219.8 0.0
vertex 599.067239547452 1213.05995266897 9.01398071841381
vertex 599.067239547452 1213.37444407855 8.59722114385325
endloop
endfacet
facet normal -1.0 0.0 0.0
outer loop
vertex 599.067239547452 1219.8 0.0
vertex 599.067239547452 1213.37444407855 8.59722114385325
vertex 599.067239547452 1213.78608476833 8.27605867375235
endloop
endfacet
facet normal -1.0 0.0 0.0
outer loop
vertex 599.067239547452 1219.8 0.0
vertex 599.067239547452 1213.78608476833 8.27605867375235
vertex 599.067239547452 1214.26682210558 8.07237999970244
endloop
endfacet
facet normal -1.0 0.0 0.0
outer loop
vertex 599.067239547452 1219.8 0.0
vertex 599.067239547452 1214.26682210558 8.07237999970244
vertex 599.067239547452 1214.78389463521 8.00006548674508
endloop
endfacet
facet normal -1.0 0.0 0.0
outer loop
vertex 599.067239547452 1219.8 0.0
vertex 599.067239547452 1214.78389463521 8.00006548674508
vertex 599.067239547452 1215.30206471884 8.06404324943292
endloop
endfacet
facet normal -1.0 0.0 0.0
outer loop
vertex 599.067239547452 1219.8 0.0
vertex 599.067239547452 1215.30206471884 8.06404324943292
vertex 599.067239547452 1215.78601992159 8.25995330896706
endloop
endfacet
facet normal -1.0 0.0 0.0
outer loop
vertex 599.067239547452 1219.8 0.0
vertex 599.067239547452 1215.78601992159 8.25995330896706
vertex 599.067239547452 1216.20277949615 8.57444471854692
endloop
endfacet
facet normal -1.0 0.0 0.0
outer loop
vertex 599.067239547452 1219.8 0.0
vertex 599.067239547452 1216.20277949615 8.57444471854692
vertex 599.067239547452 1216.52394196625 8.98608540833126
endloop
endfacet
facet normal -1.0 0.0 0.0
outer loop
vertex 599.067239547452 1219.8 0.0
vertex 599.067239547452 1216.52394196625 8.98608540833126
vertex 599.067239547452 1216.7276206403 9.46682274557968
endloop
endfacet
facet normal -1.0 0.0 0.0
outer loop
vertex 599.067239547452 1219.8 0.0
vertex 599.067239547452 1216.7276206403 9.46682274557968
vertex 599.067239547452 1216.79993515325 9.98389527521471
endloop
endfacet
facet normal -1.0 0.0 0.0
outer loop
vertex 599.067239547452 1219.8 0.0
vertex 599.067239547452 1216.79993515325 9.98389527521471
vertex 599.067239547452 1219.8 20.00000064
endloop
endfacet
facet normal 0.594845420490355 0.594847944204958 -0.540661492060224
outer loop
vertex 599.517639561865 1150.10822860186 12.6451004046432
vertex 598.763679537739 1149.35430857774 10.9861003515552
vertex 592.44653933559 1157.17929882814 12.6451004046432
endloop
endfacet
facet normal 1.0 0.0 0.0
outer loop
vertex 613.067239995453 1173.79999936 1.22461003918752e-015
vertex 613.067239995453 1163.79999904 20.00000064
vertex 613.067239995453 1163.79999904 1.83691005878112e-015
endloop
endfacet
facet normal 1.0 0.0 0.0
outer loop
vertex 613.067239995453 1163.79999904 20.00000064
vertex 613.067239995453 1173.79999936 1.22461003918752e-015
vertex 613.067239995453 1173.79999936 20.00000064
endloop
endfacet
facet normal 0.293754874601186 0.29375612089542 -0.909623776670617
outer loop
vertex 600.786139602457 1151.37671864245 13.4644004308608
vertex 599.517639561865 1150.10822860186 12.6451004046432
vertex 593.715029376182 1158.44779886873 13.4644004308608
endloop
endfacet
facet normal 0.29375487459624 0.293756120892237 -0.909623776673242
outer loop
vertex 599.517639561865 1150.10822860186 12.6451004046432
vertex 592.44653933559 1157.17929882814 12.6451004046432
vertex 593.715029376182 1158.44779886873 13.4644004308608
endloop
endfacet
facet normal 0.70710728118657 0.707106281186172 0.0
outer loop
vertex 591.692619311465 1156.42537880401 10.9861003515552
vertex 598.763679537739 1149.35430857774 9.01394028844608
vertex 591.692619311465 1156.42537880401 9.01394028844608
endloop
endfacet
facet normal -0.100644974990844 -0.100645401990574 -0.989818716769515
outer loop
vertex 600.786139602457 1151.37671864245 13.4644004308608
vertex 593.715029376182 1158.44779886873 13.4644004308608
vertex 595.095339420352 1159.8280989129 13.1837004218784
endloop
endfacet
facet normal -0.463060945303301 -0.4630629099039 -0.755742881148176
outer loop
vertex 603.220339680352 1153.81092872035 11.8922003805504
vertex 602.166439646627 1152.75702868662 13.1837004218784
vertex 596.149239454076 1160.88199894662 11.8922003805504
endloop
endfacet
facet normal 0.70710728118657 0.707106281186172 0.0
outer loop
vertex 591.692619311465 1156.42537880401 10.9861003515552
vertex 598.763679537739 1149.35430857774 10.9861003515552
vertex 598.763679537739 1149.35430857774 9.01394028844608
endloop
endfacet
facet normal -0.100644974989027 -0.100645401989361 -0.989818716769822
outer loop
vertex 602.166439646627 1152.75702868662 13.1837004218784
vertex 600.786139602457 1151.37671864245 13.4644004308608
vertex 595.095339420352 1159.8280989129 13.1837004218784
endloop
endfacet
facet normal -0.463060945303301 -0.4630629099039 -0.755742881148175
outer loop
vertex 602.166439646627 1152.75702868662 13.1837004218784
vertex 595.095339420352 1159.8280989129 13.1837004218784
vertex 596.149239454076 1160.88199894662 11.8922003805504
endloop
endfacet
facet normal 0.594851715590175 0.594850874343072 -0.540651342135307
outer loop
vertex 592.44653933559 1157.17929882814 12.6451004046432
vertex 598.763679537739 1149.35430857774 10.9861003515552
vertex 591.692619311465 1156.42537880401 10.9861003515552
endloop
endfacet
facet normal 0.0 1.0 0.0
outer loop
vertex 613.20934 1163.79999904 20.00000064
vertex 613.20934 1163.79999904 1.83691005878112e-015
vertex 613.067239995453 1163.79999904 20.00000064
endloop
endfacet
facet normal 0.707110318361755 -0.707103243928523 9.59675009256602e-006
outer loop
vertex 602.166439646627 1152.75702868662 13.1837004218784
vertex 596.138309453727 1146.72893069373 20.00000064
vertex 600.786139602457 1151.37671864245 13.4644004308608
endloop
endfacet
facet normal 0.0 1.0 0.0
outer loop
vertex 613.067239995453 1163.79999904 20.00000064
vertex 613.20934 1163.79999904 1.83691005878112e-015
vertex 613.067239995453 1163.79999904 1.83691005878112e-015
endloop
endfacet
facet normal 0.707119283976749 -0.707094277743741 2.47035755983072e-005
outer loop
vertex 613.20934 1163.79999904 1.83691005878112e-015
vertex 603.613139692921 1154.20380873292 10.00000032
vertex 603.220339680352 1153.81092872035 8.10776025944832
endloop
endfacet
facet normal 1.0 0.0 0.0
outer loop
vertex 613.067239995453 1219.8 0.0
vertex 613.067239995453 1173.79999936 20.00000064
vertex 613.067239995453 1173.79999936 1.22461003918752e-015
endloop
endfacet
facet normal 1.0 0.0 0.0
outer loop
vertex 613.067239995453 1173.79999936 20.00000064
vertex 613.067239995453 1219.8 0.0
vertex 613.067239995453 1213.1496923278 8.87018446598159
endloop
endfacet
facet normal 1.0 0.0 0.0
outer loop
vertex 613.067239995453 1173.79999936 20.00000064
vertex 613.067239995453 1213.1496923278 8.87018446598159
vertex 613.067239995453 1212.9135072548 9.33581307440104
endloop
endfacet
facet normal 1.0 0.0 0.0
outer loop
vertex 613.067239995453 1173.79999936 20.00000064
vertex 613.067239995453 1212.9135072548 9.33581307440104
vertex 613.067239995453 1212.8058835448 9.84670496779421
endloop
endfacet
facet normal 1.0 0.0 0.0
outer loop
vertex 613.067239995453 1213.1496923278 8.87018446598159
vertex 613.067239995453 1219.8 0.0
vertex 613.067239995453 1213.4983431414 8.48155096271199
endloop
endfacet
facet normal 1.0 0.0 0.0
outer loop
vertex 613.067239995453 1213.4983431414 8.48155096271199
vertex 613.067239995453 1219.8 0.0
vertex 613.067239995453 1213.93569971882 8.19639729559283
endloop
endfacet
facet normal 1.0 0.0 0.0
outer loop
vertex 613.067239995453 1213.93569971882 8.19639729559283
vertex 613.067239995453 1219.8 0.0
vertex 613.067239995453 1214.43195693208 8.03415621579956
endloop
endfacet
facet normal 1.0 0.0 0.0
outer loop
vertex 613.067239995453 1214.43195693208 8.03415621579956
vertex 613.067239995453 1219.8 0.0
vertex 613.067239995453 1214.95329567221 8.00588418480404
endloop
endfacet
facet normal 1.0 0.0 0.0
outer loop
vertex 613.067239995453 1214.95329567221 8.00588418480404
vertex 613.067239995453 1219.8 0.0
vertex 613.067239995453 1215.4641875656 8.11350789479687
endloop
endfacet
facet normal 1.0 0.0 0.0
outer loop
vertex 613.067239995453 1215.4641875656 8.11350789479687
vertex 613.067239995453 1219.8 0.0
vertex 613.067239995453 1215.92981617402 8.34969296779862
endloop
endfacet
facet normal 1.0 0.0 0.0
outer loop
vertex 613.067239995453 1215.92981617402 8.34969296779862
vertex 613.067239995453 1219.8 0.0
vertex 613.067239995453 1216.31844967729 8.69834378139852
endloop
endfacet
facet normal 1.0 0.0 0.0
outer loop
vertex 613.067239995453 1216.31844967729 8.69834378139852
vertex 613.067239995453 1219.8 0.0
vertex 613.067239995453 1216.60360334441 9.13570035882245
endloop
endfacet
facet normal 1.0 0.0 0.0
outer loop
vertex 613.067239995453 1216.60360334441 9.13570035882245
vertex 613.067239995453 1219.8 0.0
vertex 613.067239995453 1216.7658444242 9.63195757208488
endloop
endfacet
facet normal 1.0 0.0 0.0
outer loop
vertex 613.067239995453 1216.7658444242 9.63195757208488
vertex 613.067239995453 1219.8 0.0
vertex 613.067239995453 1216.7941164552 10.1532963122058
endloop
endfacet
facet normal 1.0 0.0 0.0
outer loop
vertex 613.067239995453 1173.79999936 20.00000064
vertex 613.067239995453 1213.28155032271 11.3016574986015
vertex 613.067239995453 1219.8 20.00000064
endloop
endfacet
facet normal 1.0 0.0 0.0
outer loop
vertex 613.067239995453 1213.28155032271 11.3016574986015
vertex 613.067239995453 1173.79999936 20.00000064
vertex 613.067239995453 1212.99639665559 10.8643009211775
endloop
endfacet
facet normal 1.0 0.0 0.0
outer loop
vertex 613.067239995453 1212.99639665559 10.8643009211775
vertex 613.067239995453 1173.79999936 20.00000064
vertex 613.067239995453 1212.8341555758 10.3680437079151
endloop
endfacet
facet normal 1.0 0.0 0.0
outer loop
vertex 613.067239995453 1212.8341555758 10.3680437079151
vertex 613.067239995453 1173.79999936 20.00000064
vertex 613.067239995453 1212.8058835448 9.84670496779421
endloop
endfacet
facet normal 1.0 0.0 0.0
outer loop
vertex 613.067239995453 1219.8 20.00000064
vertex 613.067239995453 1213.28155032271 11.3016574986015
vertex 613.067239995453 1213.67018382598 11.6503083122014
endloop
endfacet
facet normal 1.0 0.0 0.0
outer loop
vertex 613.067239995453 1219.8 20.00000064
vertex 613.067239995453 1213.67018382598 11.6503083122014
vertex 613.067239995453 1214.1358124344 11.8864933852031
endloop
endfacet
facet normal 1.0 0.0 0.0
outer loop
vertex 613.067239995453 1219.8 20.00000064
vertex 613.067239995453 1214.1358124344 11.8864933852031
vertex 613.067239995453 1214.64670432779 11.994117095196
endloop
endfacet
facet normal 1.0 0.0 0.0
outer loop
vertex 613.067239995453 1219.8 20.00000064
vertex 613.067239995453 1214.64670432779 11.994117095196
vertex 613.067239995453 1215.16804306792 11.9658450642004
endloop
endfacet
facet normal 1.0 0.0 0.0
outer loop
vertex 613.067239995453 1219.8 20.00000064
vertex 613.067239995453 1215.16804306792 11.9658450642004
vertex 613.067239995453 1215.66430028118 11.8036039844072
endloop
endfacet
facet normal 1.0 0.0 0.0
outer loop
vertex 613.067239995453 1219.8 20.00000064
vertex 613.067239995453 1215.66430028118 11.8036039844072
vertex 613.067239995453 1216.1016568586 11.518450317288
endloop
endfacet
facet normal 1.0 0.0 0.0
outer loop
vertex 613.067239995453 1219.8 20.00000064
vertex 613.067239995453 1216.1016568586 11.518450317288
vertex 613.067239995453 1216.4503076722 11.1298168140184
endloop
endfacet
facet normal 1.0 0.0 0.0
outer loop
vertex 613.067239995453 1219.8 20.00000064
vertex 613.067239995453 1216.4503076722 11.1298168140184
vertex 613.067239995453 1216.6864927452 10.664188205599
endloop
endfacet
facet normal 1.0 0.0 0.0
outer loop
vertex 613.067239995453 1219.8 20.00000064
vertex 613.067239995453 1216.6864927452 10.664188205599
vertex 613.067239995453 1216.7941164552 10.1532963122058
endloop
endfacet
facet normal 1.0 0.0 0.0
outer loop
vertex 613.067239995453 1219.8 20.00000064
vertex 613.067239995453 1216.7941164552 10.1532963122058
vertex 613.067239995453 1219.8 0.0
endloop
endfacet
facet normal -0.0 1.0 -0.0
outer loop
vertex 604.567239659452 1169.799999232 20.00000064
vertex 607.567239883453 1169.799999232 1.46953004702496e-015
vertex 604.567239659452 1169.799999232 1.46953004702496e-015
endloop
endfacet
facet normal -0.0 1.0 -0.0
outer loop
vertex 607.567239883453 1169.799999232 1.46953004702496e-015
vertex 604.567239659452 1169.799999232 20.00000064
vertex 607.567239883453 1169.799999232 20.00000064
endloop
endfacet
facet normal 0.707095760162933 -0.707117802003427 7.03172038326546e-006
outer loop
vertex 598.763679537739 1149.35430857774 9.01394028844608
vertex 596.138309453727 1146.72893069373 2.88218009222976e-015
vertex 599.517639561865 1150.10822860186 7.35488023535616
endloop
endfacet
facet normal -0.463054801750181 -0.463056766324716 0.755750409683645
outer loop
vertex 602.166439646627 1152.75702868662 6.81629021812128
vertex 596.149239454076 1160.88199894662 8.10776025944832
vertex 595.095339420352 1159.8280989129 6.81629021812128
endloop
endfacet
facet normal -0.678471919997401 -0.67846616299032 0.281708216870279
outer loop
vertex 596.542109466648 1161.2748989592 10.00000032
vertex 603.220339680352 1153.81092872035 8.10776025944832
vertex 603.613139692921 1154.20380873292 10.00000032
endloop
endfacet
facet normal -0.678461434230283 -0.678464312697478 0.281737925487724
outer loop
vertex 596.542109466648 1161.2748989592 10.00000032
vertex 596.149239454076 1160.88199894662 8.10776025944832
vertex 603.220339680352 1153.81092872035 8.10776025944832
endloop
endfacet
facet normal 0.594851708934257 0.594854232675539 0.540647654434929
outer loop
vertex 598.763679537739 1149.35430857774 9.01394028844608
vertex 599.517639561865 1150.10822860186 7.35488023535616
vertex 592.44653933559 1157.17929882814 7.35488023535616
endloop
endfacet
facet normal 0.594858003864513 0.594857162608517 0.540637504555198
outer loop
vertex 592.44653933559 1157.17929882814 7.35488023535616
vertex 591.692619311465 1156.42537880401 9.01394028844608
vertex 598.763679537739 1149.35430857774 9.01394028844608
endloop
endfacet
facet normal -0.100630923482837 -0.100631350423556 0.989821574098546
outer loop
vertex 602.166439646627 1152.75702868662 6.81629021812128
vertex 595.095339420352 1159.8280989129 6.81629021812128
vertex 600.786139602457 1151.37671864245 6.53563020914016
endloop
endfacet
facet normal -0.100630923484654 -0.100631350424769 0.989821574098238
outer loop
vertex 600.786139602457 1151.37671864245 6.53563020914016
vertex 595.095339420352 1159.8280989129 6.81629021812128
vertex 593.715029376182 1158.44779886873 6.53563020914016
endloop
endfacet
facet normal -0.678460295784792 -0.678463174247157 -0.281743408501574
outer loop
vertex 596.149239454076 1160.88199894662 11.8922003805504
vertex 596.542109466648 1161.2748989592 10.00000032
vertex 603.220339680352 1153.81092872035 11.8922003805504
endloop
endfacet
facet normal 0.293740041136553 0.293741287367855 0.909633357088762
outer loop
vertex 600.786139602457 1151.37671864245 6.53563020914016
vertex 593.715029376182 1158.44779886873 6.53563020914016
vertex 599.517639561865 1150.10822860186 7.35488023535616
endloop
endfacet
facet normal 0.293740041131607 0.293741287364671 0.909633357091388
outer loop
vertex 599.517639561865 1150.10822860186 7.35488023535616
vertex 593.715029376182 1158.44779886873 6.53563020914016
vertex 592.44653933559 1157.17929882814 7.35488023535616
endloop
endfacet
facet normal -0.463054801750182 -0.463056766324717 0.755750409683644
outer loop
vertex 603.220339680352 1153.81092872035 8.10776025944832
vertex 596.149239454076 1160.88199894662 8.10776025944832
vertex 602.166439646627 1152.75702868662 6.81629021812128
endloop
endfacet
facet normal -0.678470781774399 -0.678465024776976 -0.281713699405645
outer loop
vertex 596.542109466648 1161.2748989592 10.00000032
vertex 603.613139692921 1154.20380873292 10.00000032
vertex 603.220339680352 1153.81092872035 11.8922003805504
endloop
endfacet
facet normal -1.0 0.0 0.0
outer loop
vertex 607.567239883453 1219.8 20.00000064
vertex 607.567239883453 1169.799999232 1.46953004702496e-015
vertex 607.567239883453 1169.799999232 20.00000064
endloop
endfacet
facet normal -1.0 0.0 0.0
outer loop
vertex 607.567239883453 1169.799999232 1.46953004702496e-015
vertex 607.567239883453 1219.8 20.00000064
vertex 607.567239883453 1213.28155032271 11.3016574986015
endloop
endfacet
facet normal -1.0 0.0 0.0
outer loop
vertex 607.567239883453 1169.799999232 1.46953004702496e-015
vertex 607.567239883453 1213.28155032271 11.3016574986015
vertex 607.567239883453 1212.99639665559 10.8643009211775
endloop
endfacet
facet normal -1.0 0.0 0.0
outer loop
vertex 607.567239883453 1169.799999232 1.46953004702496e-015
vertex 607.567239883453 1212.99639665559 10.8643009211775
vertex 607.567239883453 1212.8341555758 10.3680437079151
endloop
endfacet
facet normal -1.0 0.0 0.0
outer loop
vertex 607.567239883453 1169.799999232 1.46953004702496e-015
vertex 607.567239883453 1212.8341555758 10.3680437079151
vertex 607.567239883453 1212.8058835448 9.84670496779421
endloop
endfacet
facet normal -1.0 0.0 0.0
outer loop
vertex 607.567239883453 1213.28155032271 11.3016574986015
vertex 607.567239883453 1219.8 20.00000064
vertex 607.567239883453 1213.67018382598 11.6503083122014
endloop
endfacet
facet normal -1.0 0.0 0.0
outer loop
vertex 607.567239883453 1213.67018382598 11.6503083122014
vertex 607.567239883453 1219.8 20.00000064
vertex 607.567239883453 1214.1358124344 11.8864933852031
endloop
endfacet
facet normal -1.0 0.0 0.0
outer loop
vertex 607.567239883453 1214.1358124344 11.8864933852031
vertex 607.567239883453 1219.8 20.00000064
vertex 607.567239883453 1214.64670432779 11.994117095196
endloop
endfacet
facet normal -1.0 0.0 0.0
outer loop
vertex 607.567239883453 1214.64670432779 11.994117095196
vertex 607.567239883453 1219.8 20.00000064
vertex 607.567239883453 1215.16804306792 11.9658450642004
endloop
endfacet
facet normal -1.0 0.0 0.0
outer loop
vertex 607.567239883453 1215.16804306792 11.9658450642004
vertex 607.567239883453 1219.8 20.00000064
vertex 607.567239883453 1215.66430028118 11.8036039844072
endloop
endfacet
facet normal -1.0 0.0 0.0
outer loop
vertex 607.567239883453 1215.66430028118 11.8036039844072
vertex 607.567239883453 1219.8 20.00000064
vertex 607.567239883453 1216.1016568586 11.518450317288
endloop
endfacet
facet normal -1.0 0.0 0.0
outer loop
vertex 607.567239883453 1216.1016568586 11.518450317288
vertex 607.567239883453 1219.8 20.00000064
vertex 607.567239883453 1216.4503076722 11.1298168140184
endloop
endfacet
facet normal -1.0 0.0 0.0
outer loop
vertex 607.567239883453 1216.4503076722 11.1298168140184
vertex 607.567239883453 1219.8 20.00000064
vertex 607.567239883453 1216.6864927452 10.664188205599
endloop
endfacet
facet normal -1.0 0.0 0.0
outer loop
vertex 607.567239883453 1216.6864927452 10.664188205599
vertex 607.567239883453 1219.8 20.00000064
vertex 607.567239883453 1216.7941164552 10.1532963122058
endloop
endfacet
facet normal -1.0 0.0 0.0
outer loop
vertex 607.567239883453 1169.799999232 1.46953004702496e-015
vertex 607.567239883453 1213.1496923278 8.87018446598159
vertex 607.567239883453 1219.8 0.0
endloop
endfacet
facet normal -1.0 0.0 0.0
outer loop
vertex 607.567239883453 1213.1496923278 8.87018446598159
vertex 607.567239883453 1169.799999232 1.46953004702496e-015
vertex 607.567239883453 1212.9135072548 9.33581307440104
endloop
endfacet
facet normal -1.0 0.0 0.0
outer loop
vertex 607.567239883453 1212.9135072548 9.33581307440104
vertex 607.567239883453 1169.799999232 1.46953004702496e-015
vertex 607.567239883453 1212.8058835448 9.84670496779421
endloop
endfacet
facet normal -1.0 0.0 0.0
outer loop
vertex 607.567239883453 1219.8 0.0
vertex 607.567239883453 1213.1496923278 8.87018446598159
vertex 607.567239883453 1213.4983431414 8.48155096271199
endloop
endfacet
facet normal -1.0 0.0 0.0
outer loop
vertex 607.567239883453 1219.8 0.0
vertex 607.567239883453 1213.4983431414 8.48155096271199
vertex 607.567239883453 1213.93569971882 8.19639729559283
endloop
endfacet
facet normal -1.0 0.0 0.0
outer loop
vertex 607.567239883453 1219.8 0.0
vertex 607.567239883453 1213.93569971882 8.19639729559283
vertex 607.567239883453 1214.43195693208 8.03415621579956
endloop
endfacet
facet normal -1.0 0.0 0.0
outer loop
vertex 607.567239883453 1219.8 0.0
vertex 607.567239883453 1214.43195693208 8.03415621579956
vertex 607.567239883453 1214.95329567221 8.00588418480404
endloop
endfacet
facet normal -1.0 0.0 0.0
outer loop
vertex 607.567239883453 1219.8 0.0
vertex 607.567239883453 1214.95329567221 8.00588418480404
vertex 607.567239883453 1215.4641875656 8.11350789479687
endloop
endfacet
facet normal -1.0 0.0 0.0
outer loop
vertex 607.567239883453 1219.8 0.0
vertex 607.567239883453 1215.4641875656 8.11350789479687
vertex 607.567239883453 1215.92981617402 8.34969296779862
endloop
endfacet
facet normal -1.0 0.0 0.0
outer loop
vertex 607.567239883453 1219.8 0.0
vertex 607.567239883453 1215.92981617402 8.34969296779862
vertex 607.567239883453 1216.31844967729 8.69834378139852
endloop
endfacet
facet normal -1.0 0.0 0.0
outer loop
vertex 607.567239883453 1219.8 0.0
vertex 607.567239883453 1216.31844967729 8.69834378139852
vertex 607.567239883453 1216.60360334441 9.13570035882245
endloop
endfacet
facet normal -1.0 0.0 0.0
outer loop
vertex 607.567239883453 1219.8 0.0
vertex 607.567239883453 1216.60360334441 9.13570035882245
vertex 607.567239883453 1216.7658444242 9.63195757208488
endloop
endfacet
facet normal -1.0 0.0 0.0
outer loop
vertex 607.567239883453 1219.8 0.0
vertex 607.567239883453 1216.7658444242 9.63195757208488
vertex 607.567239883453 1216.7941164552 10.1532963122058
endloop
endfacet
facet normal -1.0 0.0 0.0
outer loop
vertex 607.567239883453 1219.8 0.0
vertex 607.567239883453 1216.7941164552 10.1532963122058
vertex 607.567239883453 1219.8 20.00000064
endloop
endfacet
facet normal 1.0 0.0 0.0
outer loop
vertex 604.567239659452 1219.8 0.0
vertex 604.567239659452 1169.799999232 20.00000064
vertex 604.567239659452 1169.799999232 1.46953004702496e-015
endloop
endfacet
facet normal 1.0 0.0 0.0
outer loop
vertex 604.567239659452 1169.799999232 20.00000064
vertex 604.567239659452 1219.8 0.0
vertex 604.567239659452 1213.05995266897 9.01398071841381
endloop
endfacet
facet normal 1.0 0.0 0.0
outer loop
vertex 604.567239659452 1169.799999232 20.00000064
vertex 604.567239659452 1213.05995266897 9.01398071841381
vertex 604.567239659452 1212.86404260943 9.49793592115551
endloop
endfacet
facet normal 1.0 0.0 0.0
outer loop
vertex 604.567239659452 1169.799999232 20.00000064
vertex 604.567239659452 1212.86404260943 9.49793592115551
vertex 604.567239659452 1212.80006484675 10.0161060047853
endloop
endfacet
facet normal 1.0 0.0 0.0
outer loop
vertex 604.567239659452 1213.05995266897 9.01398071841381
vertex 604.567239659452 1219.8 0.0
vertex 604.567239659452 1213.37444407855 8.59722114385325
endloop
endfacet
facet normal 1.0 0.0 0.0
outer loop
vertex 604.567239659452 1213.37444407855 8.59722114385325
vertex 604.567239659452 1219.8 0.0
vertex 604.567239659452 1213.78608476833 8.27605867375235
endloop
endfacet
facet normal 1.0 0.0 0.0
outer loop
vertex 604.567239659452 1213.78608476833 8.27605867375235
vertex 604.567239659452 1219.8 0.0
vertex 604.567239659452 1214.26682210558 8.07237999970244
endloop
endfacet
facet normal 1.0 0.0 0.0
outer loop
vertex 604.567239659452 1214.26682210558 8.07237999970244
vertex 604.567239659452 1219.8 0.0
vertex 604.567239659452 1214.78389463521 8.00006548674508
endloop
endfacet
facet normal 1.0 0.0 0.0
outer loop
vertex 604.567239659452 1214.78389463521 8.00006548674508
vertex 604.567239659452 1219.8 0.0
vertex 604.567239659452 1215.30206471884 8.06404324943292
endloop
endfacet
facet normal 1.0 0.0 0.0
outer loop
vertex 604.567239659452 1215.30206471884 8.06404324943292
vertex 604.567239659452 1219.8 0.0
vertex 604.567239659452 1215.78601992159 8.25995330896706
endloop
endfacet
facet normal 1.0 0.0 0.0
outer loop
vertex 604.567239659452 1215.78601992159 8.25995330896706
vertex 604.567239659452 1219.8 0.0
vertex 604.567239659452 1216.20277949615 8.57444471854692
endloop
endfacet
facet normal 1.0 0.0 0.0
outer loop
vertex 604.567239659452 1216.20277949615 8.57444471854692
vertex 604.567239659452 1219.8 0.0
vertex 604.567239659452 1216.52394196625 8.98608540833126
endloop
endfacet
facet normal 1.0 0.0 0.0
outer loop
vertex 604.567239659452 1216.52394196625 8.98608540833126
vertex 604.567239659452 1219.8 0.0
vertex 604.567239659452 1216.7276206403 9.46682274557968
endloop
endfacet
facet normal 1.0 0.0 0.0
outer loop
vertex 604.567239659452 1216.7276206403 9.46682274557968
vertex 604.567239659452 1219.8 0.0
vertex 604.567239659452 1216.79993515325 9.98389527521471
endloop
endfacet
facet normal 1.0 0.0 0.0
outer loop
vertex 604.567239659452 1169.799999232 20.00000064
vertex 604.567239659452 1213.07605803375 11.0139158716687
vertex 604.567239659452 1219.8 20.00000064
endloop
endfacet
facet normal 1.0 0.0 0.0
outer loop
vertex 604.567239659452 1213.07605803375 11.0139158716687
vertex 604.567239659452 1169.799999232 20.00000064
vertex 604.567239659452 1212.8723793597 10.5331785344203
endloop
endfacet
facet normal 1.0 0.0 0.0
outer loop
vertex 604.567239659452 1212.8723793597 10.5331785344203
vertex 604.567239659452 1169.799999232 20.00000064
vertex 604.567239659452 1212.80006484675 10.0161060047853
endloop
endfacet
facet normal 1.0 0.0 0.0
outer loop
vertex 604.567239659452 1219.8 20.00000064
vertex 604.567239659452 1213.07605803375 11.0139158716687
vertex 604.567239659452 1213.39722050385 11.4255565614531
endloop
endfacet
facet normal 1.0 0.0 0.0
outer loop
vertex 604.567239659452 1219.8 20.00000064
vertex 604.567239659452 1213.39722050385 11.4255565614531
vertex 604.567239659452 1213.81398007841 11.7400479710329
endloop
endfacet
facet normal 1.0 0.0 0.0
outer loop
vertex 604.567239659452 1219.8 20.00000064
vertex 604.567239659452 1213.81398007841 11.7400479710329
vertex 604.567239659452 1214.29793528116 11.9359580305671
endloop
endfacet
facet normal 1.0 0.0 0.0
outer loop
vertex 604.567239659452 1219.8 20.00000064
vertex 604.567239659452 1214.29793528116 11.9359580305671
vertex 604.567239659452 1214.81610536479 11.9999357932549
endloop
endfacet
facet normal 1.0 0.0 0.0
outer loop
vertex 604.567239659452 1219.8 20.00000064
vertex 604.567239659452 1214.81610536479 11.9999357932549
vertex 604.567239659452 1215.33317789442 11.9276212802976
endloop
endfacet
facet normal 1.0 0.0 0.0
outer loop
vertex 604.567239659452 1219.8 20.00000064
vertex 604.567239659452 1215.33317789442 11.9276212802976
vertex 604.567239659452 1215.81391523167 11.7239426062476
endloop
endfacet
facet normal 1.0 0.0 0.0
outer loop
vertex 604.567239659452 1219.8 20.00000064
vertex 604.567239659452 1215.81391523167 11.7239426062476
vertex 604.567239659452 1216.22555592145 11.4027801361468
endloop
endfacet
facet normal 1.0 0.0 0.0
outer loop
vertex 604.567239659452 1219.8 20.00000064
vertex 604.567239659452 1216.22555592145 11.4027801361468
vertex 604.567239659452 1216.54004733103 10.9860205615862
endloop
endfacet
facet normal 1.0 0.0 0.0
outer loop
vertex 604.567239659452 1219.8 20.00000064
vertex 604.567239659452 1216.54004733103 10.9860205615862
vertex 604.567239659452 1216.73595739057 10.5020653588445
endloop
endfacet
facet normal 1.0 0.0 0.0
outer loop
vertex 604.567239659452 1219.8 20.00000064
vertex 604.567239659452 1216.73595739057 10.5020653588445
vertex 604.567239659452 1216.79993515325 9.98389527521471
endloop
endfacet
facet normal 1.0 0.0 0.0
outer loop
vertex 604.567239659452 1219.8 20.00000064
vertex 604.567239659452 1216.79993515325 9.98389527521471
vertex 604.567239659452 1219.8 0.0
endloop
endfacet
facet normal 0.0 1.0 0.0
outer loop
vertex 599.067239547452 1219.8 20.00000064
vertex 604.567239659452 1219.8 0.0
vertex 599.067239547452 1219.8 0.0
endloop
endfacet
facet normal 0.0 1.0 0.0
outer loop
vertex 604.567239659452 1219.8 0.0
vertex 599.067239547452 1219.8 20.00000064
vertex 604.567239659452 1219.8 20.00000064
endloop
endfacet
facet normal 0.0 1.0 0.0
outer loop
vertex 607.567239883453 1219.8 20.00000064
vertex 613.067239995453 1219.8 0.0
vertex 607.567239883453 1219.8 0.0
endloop
endfacet
facet normal 0.0 1.0 0.0
outer loop
vertex 613.067239995453 1219.8 0.0
vertex 607.567239883453 1219.8 20.00000064
vertex 613.067239995453 1219.8 20.00000064
endloop
endfacet
facet normal 0.0 0.506957615834468 0.861970983123812
outer loop
vertex 604.567239659452 1213.78608476833 8.27605867375235
vertex 599.067239547452 1214.26682210558 8.07237999970244
vertex 599.067239547452 1213.78608476833 8.27605867375235
endloop
endfacet
facet normal 0.0 0.266588947210168 0.963810320148822
outer loop
vertex 599.067239547452 1214.26682210558 8.07237999970244
vertex 604.567239659452 1213.78608476833 8.27605867375235
vertex 604.567239659452 1214.26682210558 8.07237999970244
endloop
endfacet
facet normal 0.0 0.712777960726611 0.701389748073362
outer loop
vertex 604.567239659452 1213.37444407855 8.59722114385325
vertex 599.067239547452 1213.78608476833 8.27605867375235
vertex 599.067239547452 1213.37444407855 8.59722114385325
endloop
endfacet
facet normal 0.0 0.506957615834468 0.861970983123812
outer loop
vertex 599.067239547452 1213.78608476833 8.27605867375235
vertex 604.567239659452 1213.37444407855 8.59722114385325
vertex 604.567239659452 1213.78608476833 8.27605867375235
endloop
endfacet
facet normal 0.0 0.870023665516486 0.493009960793144
outer loop
vertex 599.067239547452 1213.05995266897 9.01398071841381
vertex 604.567239659452 1213.37444407855 8.59722114385325
vertex 599.067239547452 1213.37444407855 8.59722114385325
endloop
endfacet
facet normal 0.0 0.712777960726611 0.701389748073362
outer loop
vertex 604.567239659452 1213.37444407855 8.59722114385325
vertex 599.067239547452 1213.05995266897 9.01398071841381
vertex 604.567239659452 1213.05995266897 9.01398071841381
endloop
endfacet
facet normal 0.0 0.96797869528355 0.25103235942236
outer loop
vertex 599.067239547452 1212.86404260943 9.49793592115551
vertex 604.567239659452 1213.05995266897 9.01398071841381
vertex 599.067239547452 1213.05995266897 9.01398071841381
endloop
endfacet
facet normal 0.0 0.870023665516486 0.493009960793144
outer loop
vertex 604.567239659452 1213.05995266897 9.01398071841381
vertex 599.067239547452 1212.86404260943 9.49793592115551
vertex 604.567239659452 1212.86404260943 9.49793592115551
endloop
endfacet
facet normal 0.0 0.999967576627504 -0.00805268239261622
outer loop
vertex 599.067239547452 1212.80006484675 10.0161060047853
vertex 604.567239659452 1212.86404260943 9.49793592115551
vertex 599.067239547452 1212.86404260943 9.49793592115551
endloop
endfacet
facet normal 0.0 0.96797869528355 0.25103235942236
outer loop
vertex 604.567239659452 1212.86404260943 9.49793592115551
vertex 599.067239547452 1212.80006484675 10.0161060047853
vertex 604.567239659452 1212.80006484675 10.0161060047853
endloop
endfacet
facet normal 0.0 0.963810320148783 -0.266588947210308
outer loop
vertex 599.067239547452 1212.8723793597 10.5331785344203
vertex 604.567239659452 1212.80006484675 10.0161060047853
vertex 599.067239547452 1212.80006484675 10.0161060047853
endloop
endfacet
facet normal 0.0 0.999967576627504 -0.00805268239261622
outer loop
vertex 604.567239659452 1212.80006484675 10.0161060047853
vertex 599.067239547452 1212.8723793597 10.5331785344203
vertex 604.567239659452 1212.8723793597 10.5331785344203
endloop
endfacet
facet normal 0.0 0.861970983123879 -0.506957615834355
outer loop
vertex 599.067239547452 1213.07605803375 11.0139158716687
vertex 604.567239659452 1212.8723793597 10.5331785344203
vertex 599.067239547452 1212.8723793597 10.5331785344203
endloop
endfacet
facet normal 0.0 0.963810320148783 -0.266588947210308
outer loop
vertex 604.567239659452 1212.8723793597 10.5331785344203
vertex 599.067239547452 1213.07605803375 11.0139158716687
vertex 604.567239659452 1213.07605803375 11.0139158716687
endloop
endfacet
facet normal 0.0 0.701389748073457 -0.712777960726517
outer loop
vertex 599.067239547452 1213.39722050385 11.4255565614531
vertex 604.567239659452 1213.07605803375 11.0139158716687
vertex 599.067239547452 1213.07605803375 11.0139158716687
endloop
endfacet
facet normal 0.0 0.861970983123879 -0.506957615834355
outer loop
vertex 604.567239659452 1213.07605803375 11.0139158716687
vertex 599.067239547452 1213.39722050385 11.4255565614531
vertex 604.567239659452 1213.39722050385 11.4255565614531
endloop
endfacet
facet normal 0.0 0.493009960793103 -0.870023665516509
outer loop
vertex 604.567239659452 1213.81398007841 11.7400479710329
vertex 599.067239547452 1213.39722050385 11.4255565614531
vertex 599.067239547452 1213.81398007841 11.7400479710329
endloop
endfacet
facet normal 0.0 0.701389748073457 -0.712777960726517
outer loop
vertex 599.067239547452 1213.39722050385 11.4255565614531
vertex 604.567239659452 1213.81398007841 11.7400479710329
vertex 604.567239659452 1213.39722050385 11.4255565614531
endloop
endfacet
facet normal 0.0 0.251032359422265 -0.967978695283574
outer loop
vertex 604.567239659452 1214.29793528116 11.9359580305671
vertex 599.067239547452 1213.81398007841 11.7400479710329
vertex 599.067239547452 1214.29793528116 11.9359580305671
endloop
endfacet
facet normal 0.0 0.493009960793103 -0.870023665516509
outer loop
vertex 599.067239547452 1213.81398007841 11.7400479710329
vertex 604.567239659452 1214.29793528116 11.9359580305671
vertex 604.567239659452 1213.81398007841 11.7400479710329
endloop
endfacet
facet normal 0.0 -0.00805268239265179 -0.999967576627504
outer loop
vertex 604.567239659452 1214.81610536479 11.9999357932549
vertex 599.067239547452 1214.29793528116 11.9359580305671
vertex 599.067239547452 1214.81610536479 11.9999357932549
endloop
endfacet
facet normal 0.0 0.251032359422265 -0.967978695283574
outer loop
vertex 599.067239547452 1214.29793528116 11.9359580305671
vertex 604.567239659452 1214.81610536479 11.9999357932549
vertex 604.567239659452 1214.29793528116 11.9359580305671
endloop
endfacet
facet normal 0.0 -0.266588947210169 -0.963810320148822
outer loop
vertex 604.567239659452 1215.33317789442 11.9276212802976
vertex 599.067239547452 1214.81610536479 11.9999357932549
vertex 599.067239547452 1215.33317789442 11.9276212802976
endloop
endfacet
facet normal 0.0 -0.00805268239265179 -0.999967576627504
outer loop
vertex 599.067239547452 1214.81610536479 11.9999357932549
vertex 604.567239659452 1215.33317789442 11.9276212802976
vertex 604.567239659452 1214.81610536479 11.9999357932549
endloop
endfacet
facet normal 0.0 -0.506957615834468 -0.861970983123812
outer loop
vertex 604.567239659452 1215.81391523167 11.7239426062476
vertex 599.067239547452 1215.33317789442 11.9276212802976
vertex 599.067239547452 1215.81391523167 11.7239426062476
endloop
endfacet
facet normal 0.0 -0.266588947210169 -0.963810320148822
outer loop
vertex 599.067239547452 1215.33317789442 11.9276212802976
vertex 604.567239659452 1215.81391523167 11.7239426062476
vertex 604.567239659452 1215.33317789442 11.9276212802976
endloop
endfacet
facet normal 0.0 -0.71277796072661 -0.701389748073363
outer loop
vertex 604.567239659452 1216.22555592145 11.4027801361468
vertex 599.067239547452 1215.81391523167 11.7239426062476
vertex 599.067239547452 1216.22555592145 11.4027801361468
endloop
endfacet
facet normal 0.0 -0.506957615834468 -0.861970983123812
outer loop
vertex 599.067239547452 1215.81391523167 11.7239426062476
vertex 604.567239659452 1216.22555592145 11.4027801361468
vertex 604.567239659452 1215.81391523167 11.7239426062476
endloop
endfacet
facet normal 0.0 -0.71277796072661 -0.701389748073363
outer loop
vertex 604.567239659452 1216.22555592145 11.4027801361468
vertex 599.067239547452 1216.54004733103 10.9860205615862
vertex 604.567239659452 1216.54004733103 10.9860205615862
endloop
endfacet
facet normal 0.0 -0.870023665516486 -0.493009960793144
outer loop
vertex 599.067239547452 1216.54004733103 10.9860205615862
vertex 604.567239659452 1216.22555592145 11.4027801361468
vertex 599.067239547452 1216.22555592145 11.4027801361468
endloop
endfacet
facet normal 0.0 -0.870023665516486 -0.493009960793144
outer loop
vertex 604.567239659452 1216.54004733103 10.9860205615862
vertex 599.067239547452 1216.73595739057 10.5020653588445
vertex 604.567239659452 1216.73595739057 10.5020653588445
endloop
endfacet
facet normal 0.0 -0.96797869528355 -0.25103235942236
outer loop
vertex 599.067239547452 1216.73595739057 10.5020653588445
vertex 604.567239659452 1216.54004733103 10.9860205615862
vertex 599.067239547452 1216.54004733103 10.9860205615862
endloop
endfacet
facet normal 0.0 -0.96797869528355 -0.25103235942236
outer loop
vertex 604.567239659452 1216.73595739057 10.5020653588445
vertex 599.067239547452 1216.79993515325 9.98389527521471
vertex 604.567239659452 1216.79993515325 9.98389527521471
endloop
endfacet
facet normal 0.0 -0.999967576627504 0.0080526823926166
outer loop
vertex 599.067239547452 1216.79993515325 9.98389527521471
vertex 604.567239659452 1216.73595739057 10.5020653588445
vertex 599.067239547452 1216.73595739057 10.5020653588445
endloop
endfacet
facet normal 0.0 -0.999967576627504 0.0080526823926166
outer loop
vertex 604.567239659452 1216.79993515325 9.98389527521471
vertex 599.067239547452 1216.7276206403 9.46682274557968
vertex 604.567239659452 1216.7276206403 9.46682274557968
endloop
endfacet
facet normal 0.0 -0.963810320148783 0.266588947210308
outer loop
vertex 599.067239547452 1216.7276206403 9.46682274557968
vertex 604.567239659452 1216.79993515325 9.98389527521471
vertex 599.067239547452 1216.79993515325 9.98389527521471
endloop
endfacet
facet normal 0.0 -0.963810320148783 0.266588947210308
outer loop
vertex 604.567239659452 1216.7276206403 9.46682274557968
vertex 599.067239547452 1216.52394196625 8.98608540833126
vertex 604.567239659452 1216.52394196625 8.98608540833126
endloop
endfacet
facet normal 0.0 -0.861970983123879 0.506957615834355
outer loop
vertex 599.067239547452 1216.52394196625 8.98608540833126
vertex 604.567239659452 1216.7276206403 9.46682274557968
vertex 599.067239547452 1216.7276206403 9.46682274557968
endloop
endfacet
facet normal 0.0 -0.861970983123879 0.506957615834355
outer loop
vertex 604.567239659452 1216.52394196625 8.98608540833126
vertex 599.067239547452 1216.20277949615 8.57444471854692
vertex 604.567239659452 1216.20277949615 8.57444471854692
endloop
endfacet
facet normal 0.0 -0.701389748073458 0.712777960726516
outer loop
vertex 599.067239547452 1216.20277949615 8.57444471854692
vertex 604.567239659452 1216.52394196625 8.98608540833126
vertex 599.067239547452 1216.52394196625 8.98608540833126
endloop
endfacet
facet normal 0.0 -0.493009960793104 0.870023665516509
outer loop
vertex 604.567239659452 1215.78601992159 8.25995330896706
vertex 599.067239547452 1216.20277949615 8.57444471854692
vertex 599.067239547452 1215.78601992159 8.25995330896706
endloop
endfacet
facet normal 0.0 -0.701389748073458 0.712777960726516
outer loop
vertex 599.067239547452 1216.20277949615 8.57444471854692
vertex 604.567239659452 1215.78601992159 8.25995330896706
vertex 604.567239659452 1216.20277949615 8.57444471854692
endloop
endfacet
facet normal 0.0 -0.251032359422265 0.967978695283574
outer loop
vertex 604.567239659452 1215.30206471884 8.06404324943292
vertex 599.067239547452 1215.78601992159 8.25995330896706
vertex 599.067239547452 1215.30206471884 8.06404324943292
endloop
endfacet
facet normal 0.0 -0.493009960793104 0.870023665516509
outer loop
vertex 599.067239547452 1215.78601992159 8.25995330896706
vertex 604.567239659452 1215.30206471884 8.06404324943292
vertex 604.567239659452 1215.78601992159 8.25995330896706
endloop
endfacet
facet normal 0.0 0.00805268239265179 0.999967576627504
outer loop
vertex 604.567239659452 1214.78389463521 8.00006548674508
vertex 599.067239547452 1215.30206471884 8.06404324943292
vertex 599.067239547452 1214.78389463521 8.00006548674508
endloop
endfacet
facet normal 0.0 -0.251032359422265 0.967978695283574
outer loop
vertex 599.067239547452 1215.30206471884 8.06404324943292
vertex 604.567239659452 1214.78389463521 8.00006548674508
vertex 604.567239659452 1215.30206471884 8.06404324943292
endloop
endfacet
facet normal 0.0 0.266588947210168 0.963810320148822
outer loop
vertex 604.567239659452 1214.26682210558 8.07237999970244
vertex 599.067239547452 1214.78389463521 8.00006548674508
vertex 599.067239547452 1214.26682210558 8.07237999970244
endloop
endfacet
facet normal 0.0 0.00805268239265179 0.999967576627504
outer loop
vertex 599.067239547452 1214.78389463521 8.00006548674508
vertex 604.567239659452 1214.26682210558 8.07237999970244
vertex 604.567239659452 1214.78389463521 8.00006548674508
endloop
endfacet
facet normal 0.0 -0.564908087009201 0.825153836100642
outer loop
vertex 613.067239995453 1215.92981617402 8.34969296779862
vertex 607.567239883453 1216.31844967729 8.69834378139852
vertex 607.567239883453 1215.92981617402 8.34969296779862
endloop
endfacet
facet normal 0.0 -0.759224838643964 0.650828429300723
outer loop
vertex 607.567239883453 1216.31844967729 8.69834378139852
vertex 613.067239995453 1215.92981617402 8.34969296779862
vertex 613.067239995453 1216.31844967729 8.69834378139852
endloop
endfacet
facet normal 0.0 -0.90180167220354 0.432150140588776
outer loop
vertex 613.067239995453 1216.60360334441 9.13570035882245
vertex 607.567239883453 1216.31844967729 8.69834378139852
vertex 613.067239995453 1216.31844967729 8.69834378139852
endloop
endfacet
facet normal 0.0 -0.759224838643964 0.650828429300723
outer loop
vertex 607.567239883453 1216.31844967729 8.69834378139852
vertex 613.067239995453 1216.60360334441 9.13570035882245
vertex 607.567239883453 1216.60360334441 9.13570035882245
endloop
endfacet
facet normal 0.0 -0.982922212100165 0.184021533957629
outer loop
vertex 613.067239995453 1216.7658444242 9.63195757208488
vertex 607.567239883453 1216.60360334441 9.13570035882245
vertex 613.067239995453 1216.60360334441 9.13570035882245
endloop
endfacet
facet normal 0.0 -0.90180167220354 0.432150140588776
outer loop
vertex 607.567239883453 1216.60360334441 9.13570035882245
vertex 613.067239995453 1216.7658444242 9.63195757208488
vertex 607.567239883453 1216.7658444242 9.63195757208488
endloop
endfacet
facet normal 0.0 -0.997058227597939 -0.0766478361029023
outer loop
vertex 613.067239995453 1216.7941164552 10.1532963122058
vertex 607.567239883453 1216.7658444242 9.63195757208488
vertex 613.067239995453 1216.7658444242 9.63195757208488
endloop
endfacet
facet normal 0.0 -0.982922212100165 0.184021533957629
outer loop
vertex 607.567239883453 1216.7658444242 9.63195757208488
vertex 613.067239995453 1216.7941164552 10.1532963122058
vertex 607.567239883453 1216.7941164552 10.1532963122058
endloop
endfacet
facet normal 0.0 -0.943246372601512 -0.332093782799512
outer loop
vertex 613.067239995453 1216.6864927452 10.664188205599
vertex 607.567239883453 1216.7941164552 10.1532963122058
vertex 613.067239995453 1216.7941164552 10.1532963122058
endloop
endfacet
facet normal 0.0 -0.997058227597939 -0.0766478361029023
outer loop
vertex 607.567239883453 1216.7941164552 10.1532963122058
vertex 613.067239995453 1216.6864927452 10.664188205599
vertex 607.567239883453 1216.6864927452 10.664188205599
endloop
endfacet
facet normal 0.0 -0.825153836100632 -0.564908087009215
outer loop
vertex 613.067239995453 1216.4503076722 11.1298168140184
vertex 607.567239883453 1216.6864927452 10.664188205599
vertex 613.067239995453 1216.6864927452 10.664188205599
endloop
endfacet
facet normal 0.0 -0.943246372601512 -0.332093782799512
outer loop
vertex 607.567239883453 1216.6864927452 10.664188205599
vertex 613.067239995453 1216.4503076722 11.1298168140184
vertex 607.567239883453 1216.4503076722 11.1298168140184
endloop
endfacet
facet normal 0.0 -0.650828429300659 -0.75922483864402
outer loop
vertex 613.067239995453 1216.1016568586 11.518450317288
vertex 607.567239883453 1216.4503076722 11.1298168140184
vertex 613.067239995453 1216.4503076722 11.1298168140184
endloop
endfacet
facet normal 0.0 -0.825153836100632 -0.564908087009215
outer loop
vertex 607.567239883453 1216.4503076722 11.1298168140184
vertex 613.067239995453 1216.1016568586 11.518450317288
vertex 607.567239883453 1216.1016568586 11.518450317288
endloop
endfacet
facet normal 0.0 -0.650828429300659 -0.75922483864402
outer loop
vertex 613.067239995453 1216.1016568586 11.518450317288
vertex 607.567239883453 1215.66430028118 11.8036039844072
vertex 607.567239883453 1216.1016568586 11.518450317288
endloop
endfacet
facet normal 0.0 -0.432150140588768 -0.901801672203544
outer loop
vertex 607.567239883453 1215.66430028118 11.8036039844072
vertex 613.067239995453 1216.1016568586 11.518450317288
vertex 613.067239995453 1215.66430028118 11.8036039844072
endloop
endfacet
facet normal 0.0 -0.432150140588768 -0.901801672203544
outer loop
vertex 613.067239995453 1215.66430028118 11.8036039844072
vertex 607.567239883453 1215.16804306792 11.9658450642004
vertex 607.567239883453 1215.66430028118 11.8036039844072
endloop
endfacet
facet normal 0.0 -0.184021533957581 -0.982922212100174
outer loop
vertex 607.567239883453 1215.16804306792 11.9658450642004
vertex 613.067239995453 1215.66430028118 11.8036039844072
vertex 613.067239995453 1215.16804306792 11.9658450642004
endloop
endfacet
facet normal 0.0 -0.184021533957581 -0.982922212100174
outer loop
vertex 613.067239995453 1215.16804306792 11.9658450642004
vertex 607.567239883453 1214.64670432779 11.994117095196
vertex 607.567239883453 1215.16804306792 11.9658450642004
endloop
endfacet
facet normal 0.0 0.0766478361028716 -0.997058227597941
outer loop
vertex 607.567239883453 1214.64670432779 11.994117095196
vertex 613.067239995453 1215.16804306792 11.9658450642004
vertex 613.067239995453 1214.64670432779 11.994117095196
endloop
endfacet
facet normal 0.0 0.0766478361028716 -0.997058227597941
outer loop
vertex 613.067239995453 1214.64670432779 11.994117095196
vertex 607.567239883453 1214.1358124344 11.8864933852031
vertex 607.567239883453 1214.64670432779 11.994117095196
endloop
endfacet
facet normal 0.0 0.332093782799487 -0.943246372601521
outer loop
vertex 607.567239883453 1214.1358124344 11.8864933852031
vertex 613.067239995453 1214.64670432779 11.994117095196
vertex 613.067239995453 1214.1358124344 11.8864933852031
endloop
endfacet
facet normal 0.0 0.332093782799487 -0.943246372601521
outer loop
vertex 613.067239995453 1214.1358124344 11.8864933852031
vertex 607.567239883453 1213.67018382598 11.6503083122014
vertex 607.567239883453 1214.1358124344 11.8864933852031
endloop
endfacet
facet normal 0.0 0.564908087009201 -0.825153836100642
outer loop
vertex 607.567239883453 1213.67018382598 11.6503083122014
vertex 613.067239995453 1214.1358124344 11.8864933852031
vertex 613.067239995453 1213.67018382598 11.6503083122014
endloop
endfacet
facet normal 0.0 0.564908087009201 -0.825153836100642
outer loop
vertex 613.067239995453 1213.67018382598 11.6503083122014
vertex 607.567239883453 1213.28155032271 11.3016574986015
vertex 607.567239883453 1213.67018382598 11.6503083122014
endloop
endfacet
facet normal 0.0 0.759224838643964 -0.650828429300724
outer loop
vertex 607.567239883453 1213.28155032271 11.3016574986015
vertex 613.067239995453 1213.67018382598 11.6503083122014
vertex 613.067239995453 1213.28155032271 11.3016574986015
endloop
endfacet
facet normal 0.0 0.759224838643964 -0.650828429300724
outer loop
vertex 607.567239883453 1213.28155032271 11.3016574986015
vertex 613.067239995453 1212.99639665559 10.8643009211775
vertex 607.567239883453 1212.99639665559 10.8643009211775
endloop
endfacet
facet normal 0.0 0.90180167220354 -0.432150140588776
outer loop
vertex 613.067239995453 1212.99639665559 10.8643009211775
vertex 607.567239883453 1213.28155032271 11.3016574986015
vertex 613.067239995453 1213.28155032271 11.3016574986015
endloop
endfacet
facet normal 0.0 0.90180167220354 -0.432150140588776
outer loop
vertex 607.567239883453 1212.99639665559 10.8643009211775
vertex 613.067239995453 1212.8341555758 10.3680437079151
vertex 607.567239883453 1212.8341555758 10.3680437079151
endloop
endfacet
facet normal 0.0 0.982922212100165 -0.184021533957629
outer loop
vertex 613.067239995453 1212.8341555758 10.3680437079151
vertex 607.567239883453 1212.99639665559 10.8643009211775
vertex 613.067239995453 1212.99639665559 10.8643009211775
endloop
endfacet
facet normal 0.0 0.982922212100165 -0.184021533957629
outer loop
vertex 607.567239883453 1212.8341555758 10.3680437079151
vertex 613.067239995453 1212.8058835448 9.84670496779421
vertex 607.567239883453 1212.8058835448 9.84670496779421
endloop
endfacet
facet normal 0.0 0.997058227597939 0.0766478361029027
outer loop
vertex 613.067239995453 1212.8058835448 9.84670496779421
vertex 607.567239883453 1212.8341555758 10.3680437079151
vertex 613.067239995453 1212.8341555758 10.3680437079151
endloop
endfacet
facet normal 0.0 0.997058227597939 0.0766478361029027
outer loop
vertex 607.567239883453 1212.8058835448 9.84670496779421
vertex 613.067239995453 1212.9135072548 9.33581307440104
vertex 607.567239883453 1212.9135072548 9.33581307440104
endloop
endfacet
facet normal 0.0 0.943246372601512 0.332093782799512
outer loop
vertex 613.067239995453 1212.9135072548 9.33581307440104
vertex 607.567239883453 1212.8058835448 9.84670496779421
vertex 613.067239995453 1212.8058835448 9.84670496779421
endloop
endfacet
facet normal 0.0 0.943246372601512 0.332093782799512
outer loop
vertex 607.567239883453 1212.9135072548 9.33581307440104
vertex 613.067239995453 1213.1496923278 8.87018446598159
vertex 607.567239883453 1213.1496923278 8.87018446598159
endloop
endfacet
facet normal 0.0 0.825153836100632 0.564908087009215
outer loop
vertex 613.067239995453 1213.1496923278 8.87018446598159
vertex 607.567239883453 1212.9135072548 9.33581307440104
vertex 613.067239995453 1212.9135072548 9.33581307440104
endloop
endfacet
facet normal 0.0 0.825153836100632 0.564908087009215
outer loop
vertex 607.567239883453 1213.1496923278 8.87018446598159
vertex 613.067239995453 1213.4983431414 8.48155096271199
vertex 607.567239883453 1213.4983431414 8.48155096271199
endloop
endfacet
facet normal 0.0 0.650828429300659 0.759224838644019
outer loop
vertex 613.067239995453 1213.4983431414 8.48155096271199
vertex 607.567239883453 1213.1496923278 8.87018446598159
vertex 613.067239995453 1213.1496923278 8.87018446598159
endloop
endfacet
facet normal 0.0 0.650828429300659 0.759224838644019
outer loop
vertex 613.067239995453 1213.4983431414 8.48155096271199
vertex 607.567239883453 1213.93569971882 8.19639729559283
vertex 607.567239883453 1213.4983431414 8.48155096271199
endloop
endfacet
facet normal 0.0 0.432150140588769 0.901801672203543
outer loop
vertex 607.567239883453 1213.93569971882 8.19639729559283
vertex 613.067239995453 1213.4983431414 8.48155096271199
vertex 613.067239995453 1213.93569971882 8.19639729559283
endloop
endfacet
facet normal 0.0 0.432150140588769 0.901801672203543
outer loop
vertex 613.067239995453 1213.93569971882 8.19639729559283
vertex 607.567239883453 1214.43195693208 8.03415621579956
vertex 607.567239883453 1213.93569971882 8.19639729559283
endloop
endfacet
facet normal 0.0 0.184021533957581 0.982922212100174
outer loop
vertex 607.567239883453 1214.43195693208 8.03415621579956
vertex 613.067239995453 1213.93569971882 8.19639729559283
vertex 613.067239995453 1214.43195693208 8.03415621579956
endloop
endfacet
facet normal 0.0 0.184021533957581 0.982922212100174
outer loop
vertex 613.067239995453 1214.43195693208 8.03415621579956
vertex 607.567239883453 1214.95329567221 8.00588418480404
vertex 607.567239883453 1214.43195693208 8.03415621579956
endloop
endfacet
facet normal 0.0 -0.0766478361028716 0.997058227597941
outer loop
vertex 607.567239883453 1214.95329567221 8.00588418480404
vertex 613.067239995453 1214.43195693208 8.03415621579956
vertex 613.067239995453 1214.95329567221 8.00588418480404
endloop
endfacet
facet normal 0.0 -0.0766478361028716 0.997058227597941
outer loop
vertex 613.067239995453 1214.95329567221 8.00588418480404
vertex 607.567239883453 1215.4641875656 8.11350789479687
vertex 607.567239883453 1214.95329567221 8.00588418480404
endloop
endfacet
facet normal 0.0 -0.332093782799486 0.943246372601521
outer loop
vertex 607.567239883453 1215.4641875656 8.11350789479687
vertex 613.067239995453 1214.95329567221 8.00588418480404
vertex 613.067239995453 1215.4641875656 8.11350789479687
endloop
endfacet
facet normal 0.0 -0.332093782799486 0.943246372601521
outer loop
vertex 613.067239995453 1215.4641875656 8.11350789479687
vertex 607.567239883453 1215.92981617402 8.34969296779862
vertex 607.567239883453 1215.4641875656 8.11350789479687
endloop
endfacet
facet normal 0.0 -0.564908087009201 0.825153836100642
outer loop
vertex 607.567239883453 1215.92981617402 8.34969296779862
vertex 613.067239995453 1215.4641875656 8.11350789479687
vertex 613.067239995453 1215.92981617402 8.34969296779862
endloop
endfacet
endsolid frame_holder
