solid OpenSCAD_Model
  facet normal -6.12303e-017 0 1
    outer loop
      vertex 8 -30 14
      vertex 0 -33 14
      vertex 14 -33 14
    endloop
  endfacet
  facet normal -6.12303e-017 0 1
    outer loop
      vertex 5.72774 -22.7081 14
      vertex 7.51785 -22.0292 14
      vertex 0 -13 14
    endloop
  endfacet
  facet normal -6.12303e-017 0 1
    outer loop
      vertex 7.51785 -29.9708 14
      vertex 0 -33 14
      vertex 8 -30 14
    endloop
  endfacet
  facet normal -6.12303e-017 0 1
    outer loop
      vertex 8 -29.9123 14
      vertex 7.51785 -29.9708 14
      vertex 8 -30 14
    endloop
  endfacet
  facet normal -6.12303e-017 0 1
    outer loop
      vertex 4 -26 14
      vertex 4.45818 -24.1411 14
      vertex 0 -13 14
    endloop
  endfacet
  facet normal -6.12303e-017 0 1
    outer loop
      vertex 5.72774 -29.2919 14
      vertex 0 -33 14
      vertex 7.51785 -29.9708 14
    endloop
  endfacet
  facet normal -6.12303e-017 0 1
    outer loop
      vertex 4.45818 -27.8589 14
      vertex 0 -33 14
      vertex 5.72774 -29.2919 14
    endloop
  endfacet
  facet normal -6.12303e-017 0 1
    outer loop
      vertex 0 -13 14
      vertex 0 -33 14
      vertex 4.45818 -27.8589 14
    endloop
  endfacet
  facet normal -6.12303e-017 0 1
    outer loop
      vertex 0 -13 14
      vertex 4.45818 -27.8589 14
      vertex 4 -26 14
    endloop
  endfacet
  facet normal -6.12303e-017 0 1
    outer loop
      vertex 4.45818 -24.1411 14
      vertex 5.72774 -22.7081 14
      vertex 0 -13 14
    endloop
  endfacet
  facet normal -6.12303e-017 0 1
    outer loop
      vertex 8 -22.0877 14
      vertex 0 -13 14
      vertex 7.51785 -22.0292 14
    endloop
  endfacet
  facet normal -6.12303e-017 0 1
    outer loop
      vertex 8 -22 14
      vertex 0 -13 14
      vertex 8 -22.0877 14
    endloop
  endfacet
  facet normal -6.12303e-017 0 1
    outer loop
      vertex 14 -22 14
      vertex 0 -13 14
      vertex 8 -22 14
    endloop
  endfacet
  facet normal -6.12303e-017 0 1
    outer loop
      vertex 14 -18.799 14
      vertex 0 -13 14
      vertex 14 -22 14
    endloop
  endfacet
  facet normal -6.12303e-017 0 1
    outer loop
      vertex 22.6274 -10.1716 14
      vertex 0 -13 14
      vertex 14 -18.799 14
    endloop
  endfacet
  facet normal -6.12303e-017 0 1
    outer loop
      vertex 12.7279 -0.272078 14
      vertex 0 -13 14
      vertex 22.6274 -10.1716 14
    endloop
  endfacet
  facet normal -6.12303e-017 0 1
    outer loop
      vertex 14 -30 14
      vertex 8 -30 14
      vertex 14 -33 14
    endloop
  endfacet
  facet normal 0 -1 0
    outer loop
      vertex 14 -33 14
      vertex 0 -33 14
      vertex 8.57224e-016 -33 0
    endloop
  endfacet
  facet normal 0 -1 0
    outer loop
      vertex 14 -33 8.57224e-016
      vertex 14 -33 14
      vertex 8.57224e-016 -33 0
    endloop
  endfacet
  facet normal -1 0 -6.12303e-017
    outer loop
      vertex 0 -33 14
      vertex 0 -13 14
      vertex 8.57224e-016 -33 0
    endloop
  endfacet
  facet normal -1 0 -6.12303e-017
    outer loop
      vertex 8.57224e-016 -33 0
      vertex 0 -13 14
      vertex 8.57224e-016 -13 0
    endloop
  endfacet
  facet normal -0.707107 0.707107 -4.32964e-017
    outer loop
      vertex 6.05032 -6.94968 7.4981
      vertex 8.57224e-016 -13 0
      vertex 6.62961 -6.37039 9.29201
    endloop
  endfacet
  facet normal -0.707107 0.707107 -4.32964e-017
    outer loop
      vertex 10.7512 -2.24878 5.54605
      vertex 12.7279 -0.272078 14
      vertex 12.7279 -0.272078 7.79335e-016
    endloop
  endfacet
  facet normal -0.707107 0.707107 -4.32964e-017
    outer loop
      vertex 0 -13 14
      vertex 12.7279 -0.272078 14
      vertex 9.19725 -3.80275 10.3582
    endloop
  endfacet
  facet normal -0.707107 0.707107 -4.32964e-017
    outer loop
      vertex 0 -13 14
      vertex 9.19725 -3.80275 10.3582
      vertex 7.80275 -5.19725 10.3582
    endloop
  endfacet
  facet normal -0.707107 0.707107 -4.32964e-017
    outer loop
      vertex 0 -13 14
      vertex 7.80275 -5.19725 10.3582
      vertex 6.62961 -6.37039 9.29201
    endloop
  endfacet
  facet normal -0.707107 0.707107 -4.32964e-017
    outer loop
      vertex 0 -13 14
      vertex 6.62961 -6.37039 9.29201
      vertex 8.57224e-016 -13 0
    endloop
  endfacet
  facet normal -0.707107 0.707107 -4.32964e-017
    outer loop
      vertex 6.24878 -6.75122 5.54605
      vertex 8.57224e-016 -13 0
      vertex 6.05032 -6.94968 7.4981
    endloop
  endfacet
  facet normal -0.707107 0.707107 -4.32964e-017
    outer loop
      vertex 8.57224e-016 -13 0
      vertex 6.24878 -6.75122 5.54605
      vertex 7.16198 -5.83802 4.05561
    endloop
  endfacet
  facet normal -0.707107 0.707107 -4.32964e-017
    outer loop
      vertex 8.57224e-016 -13 0
      vertex 7.16198 -5.83802 4.05561
      vertex 12.7279 -0.272078 7.79335e-016
    endloop
  endfacet
  facet normal -0.707107 0.707107 -4.32964e-017
    outer loop
      vertex 7.16198 -5.83802 4.05561
      vertex 8.5 -4.5 3.5
      vertex 12.7279 -0.272078 7.79335e-016
    endloop
  endfacet
  facet normal -0.707107 0.707107 -4.32964e-017
    outer loop
      vertex 10.3704 -2.62961 9.29201
      vertex 12.7279 -0.272078 14
      vertex 10.9497 -2.05032 7.4981
    endloop
  endfacet
  facet normal -0.707107 0.707107 -4.32964e-017
    outer loop
      vertex 10.9497 -2.05032 7.4981
      vertex 12.7279 -0.272078 14
      vertex 10.7512 -2.24878 5.54605
    endloop
  endfacet
  facet normal -0.707107 0.707107 -4.32964e-017
    outer loop
      vertex 9.83802 -3.16198 4.05561
      vertex 10.7512 -2.24878 5.54605
      vertex 12.7279 -0.272078 7.79335e-016
    endloop
  endfacet
  facet normal -0.707107 0.707107 -4.32964e-017
    outer loop
      vertex 9.19725 -3.80275 10.3582
      vertex 12.7279 -0.272078 14
      vertex 10.3704 -2.62961 9.29201
    endloop
  endfacet
  facet normal -0.707107 0.707107 -4.32964e-017
    outer loop
      vertex 9.83802 -3.16198 4.05561
      vertex 12.7279 -0.272078 7.79335e-016
      vertex 8.5 -4.5 3.5
    endloop
  endfacet
  facet normal 0.707107 0.707107 4.32964e-017
    outer loop
      vertex 12.7279 -0.272078 14
      vertex 22.6274 -10.1716 14
      vertex 22.6274 -10.1716 1.38548e-015
    endloop
  endfacet
  facet normal 0.707107 0.707107 4.32964e-017
    outer loop
      vertex 12.7279 -0.272078 7.79335e-016
      vertex 12.7279 -0.272078 14
      vertex 22.6274 -10.1716 1.38548e-015
    endloop
  endfacet
  facet normal 0.707107 -0.707107 4.32964e-017
    outer loop
      vertex 15.9498 -16.8492 7.4981
      vertex 14 -18.799 14
      vertex 14 -18.799 8.57224e-016
    endloop
  endfacet
  facet normal 0.707107 -0.707107 4.32964e-017
    outer loop
      vertex 22.6274 -10.1716 14
      vertex 14 -18.799 14
      vertex 17.7022 -15.0967 10.3582
    endloop
  endfacet
  facet normal 0.707107 -0.707107 4.32964e-017
    outer loop
      vertex 20.8492 -11.9498 7.4981
      vertex 20.6507 -12.1483 5.54605
      vertex 22.6274 -10.1716 1.38548e-015
    endloop
  endfacet
  facet normal 0.707107 -0.707107 4.32964e-017
    outer loop
      vertex 22.6274 -10.1716 14
      vertex 17.7022 -15.0967 10.3582
      vertex 19.0967 -13.7022 10.3582
    endloop
  endfacet
  facet normal 0.707107 -0.707107 4.32964e-017
    outer loop
      vertex 20.8492 -11.9498 7.4981
      vertex 22.6274 -10.1716 14
      vertex 20.2699 -12.5291 9.29201
    endloop
  endfacet
  facet normal 0.707107 -0.707107 4.32964e-017
    outer loop
      vertex 18.3995 -14.3995 3.5
      vertex 17.0615 -15.7375 4.05561
      vertex 14 -18.799 8.57224e-016
    endloop
  endfacet
  facet normal 0.707107 -0.707107 4.32964e-017
    outer loop
      vertex 22.6274 -10.1716 1.38548e-015
      vertex 22.6274 -10.1716 14
      vertex 20.8492 -11.9498 7.4981
    endloop
  endfacet
  facet normal 0.707107 -0.707107 4.32964e-017
    outer loop
      vertex 22.6274 -10.1716 1.38548e-015
      vertex 19.7375 -13.0615 4.05561
      vertex 14 -18.799 8.57224e-016
    endloop
  endfacet
  facet normal 0.707107 -0.707107 4.32964e-017
    outer loop
      vertex 22.6274 -10.1716 1.38548e-015
      vertex 20.6507 -12.1483 5.54605
      vertex 19.7375 -13.0615 4.05561
    endloop
  endfacet
  facet normal 0.707107 -0.707107 4.32964e-017
    outer loop
      vertex 19.7375 -13.0615 4.05561
      vertex 18.3995 -14.3995 3.5
      vertex 14 -18.799 8.57224e-016
    endloop
  endfacet
  facet normal 0.707107 -0.707107 4.32964e-017
    outer loop
      vertex 16.5291 -16.2699 9.29201
      vertex 14 -18.799 14
      vertex 15.9498 -16.8492 7.4981
    endloop
  endfacet
  facet normal 0.707107 -0.707107 4.32964e-017
    outer loop
      vertex 17.7022 -15.0967 10.3582
      vertex 14 -18.799 14
      vertex 16.5291 -16.2699 9.29201
    endloop
  endfacet
  facet normal 0.707107 -0.707107 4.32964e-017
    outer loop
      vertex 16.1483 -16.6507 5.54605
      vertex 15.9498 -16.8492 7.4981
      vertex 14 -18.799 8.57224e-016
    endloop
  endfacet
  facet normal 0.707107 -0.707107 4.32964e-017
    outer loop
      vertex 19.0967 -13.7022 10.3582
      vertex 20.2699 -12.5291 9.29201
      vertex 22.6274 -10.1716 14
    endloop
  endfacet
  facet normal 0.707107 -0.707107 4.32964e-017
    outer loop
      vertex 17.0615 -15.7375 4.05561
      vertex 16.1483 -16.6507 5.54605
      vertex 14 -18.799 8.57224e-016
    endloop
  endfacet
  facet normal 1 0 6.12303e-017
    outer loop
      vertex 14 -18.799 14
      vertex 14 -22 14
      vertex 14 -22 8.57224e-016
    endloop
  endfacet
  facet normal 1 0 6.12303e-017
    outer loop
      vertex 14 -18.799 8.57224e-016
      vertex 14 -18.799 14
      vertex 14 -22 8.57224e-016
    endloop
  endfacet
  facet normal 0 -1 0
    outer loop
      vertex 8 -22 4.89843e-016
      vertex 14 -22 8.57224e-016
      vertex 14 -22 14
    endloop
  endfacet
  facet normal 0 -1 0
    outer loop
      vertex 8 -22 14
      vertex 8 -22 4.89843e-016
      vertex 14 -22 14
    endloop
  endfacet
  facet normal 1 0 6.12303e-017
    outer loop
      vertex 8 -22.0877 4.89843e-016
      vertex 8 -22 4.89843e-016
      vertex 8 -22 14
    endloop
  endfacet
  facet normal 1 0 6.12303e-017
    outer loop
      vertex 8 -22.0877 14
      vertex 8 -22.0877 4.89843e-016
      vertex 8 -22 14
    endloop
  endfacet
  facet normal -0.120536 -0.992709 -1.4761e-017
    outer loop
      vertex 7.51785 -22.0292 14
      vertex 7.51785 -22.0292 4.60321e-016
      vertex 8 -22.0877 4.89843e-016
    endloop
  endfacet
  facet normal -0.120536 -0.992709 -1.4761e-017
    outer loop
      vertex 8 -22.0877 14
      vertex 7.51785 -22.0292 14
      vertex 8 -22.0877 4.89843e-016
    endloop
  endfacet
  facet normal 0.354605 -0.935016 4.34251e-017
    outer loop
      vertex 5.72774 -22.7081 3.50711e-016
      vertex 7.51785 -22.0292 4.60321e-016
      vertex 7.51785 -22.0292 14
    endloop
  endfacet
  facet normal 0.354605 -0.935016 4.34251e-017
    outer loop
      vertex 5.72774 -22.7081 14
      vertex 5.72774 -22.7081 3.50711e-016
      vertex 7.51785 -22.0292 14
    endloop
  endfacet
  facet normal 0.748511 -0.663123 9.16631e-017
    outer loop
      vertex 4.45818 -24.1411 2.72976e-016
      vertex 5.72774 -22.7081 3.50711e-016
      vertex 5.72774 -22.7081 14
    endloop
  endfacet
  facet normal 0.748511 -0.663123 9.16631e-017
    outer loop
      vertex 4.45818 -24.1411 14
      vertex 4.45818 -24.1411 2.72976e-016
      vertex 5.72774 -22.7081 14
    endloop
  endfacet
  facet normal 0.970942 -0.239316 1.18902e-016
    outer loop
      vertex 4 -26 2.44921e-016
      vertex 4.45818 -24.1411 2.72976e-016
      vertex 4.45818 -24.1411 14
    endloop
  endfacet
  facet normal 0.970942 -0.239316 1.18902e-016
    outer loop
      vertex 4 -26 14
      vertex 4 -26 2.44921e-016
      vertex 4.45818 -24.1411 14
    endloop
  endfacet
  facet normal 0.970942 0.239316 1.18902e-016
    outer loop
      vertex 4.45818 -27.8589 2.72976e-016
      vertex 4 -26 2.44921e-016
      vertex 4 -26 14
    endloop
  endfacet
  facet normal 0.970942 0.239316 1.18902e-016
    outer loop
      vertex 4.45818 -27.8589 14
      vertex 4.45818 -27.8589 2.72976e-016
      vertex 4 -26 14
    endloop
  endfacet
  facet normal 0.748511 0.663123 9.16631e-017
    outer loop
      vertex 5.72774 -29.2919 3.50711e-016
      vertex 4.45818 -27.8589 2.72976e-016
      vertex 4.45818 -27.8589 14
    endloop
  endfacet
  facet normal 0.748511 0.663123 9.16631e-017
    outer loop
      vertex 5.72774 -29.2919 14
      vertex 5.72774 -29.2919 3.50711e-016
      vertex 4.45818 -27.8589 14
    endloop
  endfacet
  facet normal 0.354605 0.935016 4.34251e-017
    outer loop
      vertex 5.72774 -29.2919 3.50711e-016
      vertex 5.72774 -29.2919 14
      vertex 7.51785 -29.9708 4.60321e-016
    endloop
  endfacet
  facet normal 0.354605 0.935016 4.34251e-017
    outer loop
      vertex 7.51785 -29.9708 4.60321e-016
      vertex 5.72774 -29.2919 14
      vertex 7.51785 -29.9708 14
    endloop
  endfacet
  facet normal -0.120536 0.992709 -1.4761e-017
    outer loop
      vertex 8 -29.9123 4.89843e-016
      vertex 7.51785 -29.9708 4.60321e-016
      vertex 8 -29.9123 14
    endloop
  endfacet
  facet normal -0.120536 0.992709 -1.4761e-017
    outer loop
      vertex 8 -29.9123 14
      vertex 7.51785 -29.9708 4.60321e-016
      vertex 7.51785 -29.9708 14
    endloop
  endfacet
  facet normal 1 0 6.12303e-017
    outer loop
      vertex 8 -30 4.89843e-016
      vertex 8 -29.9123 4.89843e-016
      vertex 8 -29.9123 14
    endloop
  endfacet
  facet normal 1 0 6.12303e-017
    outer loop
      vertex 8 -30 14
      vertex 8 -30 4.89843e-016
      vertex 8 -29.9123 14
    endloop
  endfacet
  facet normal 0 1 0
    outer loop
      vertex 14 -30 8.57224e-016
      vertex 8 -30 4.89843e-016
      vertex 14 -30 14
    endloop
  endfacet
  facet normal 0 1 0
    outer loop
      vertex 14 -30 14
      vertex 8 -30 4.89843e-016
      vertex 8 -30 14
    endloop
  endfacet
  facet normal 1 0 6.12303e-017
    outer loop
      vertex 14 -30 14
      vertex 14 -33 14
      vertex 14 -33 8.57224e-016
    endloop
  endfacet
  facet normal 1 0 6.12303e-017
    outer loop
      vertex 14 -30 8.57224e-016
      vertex 14 -30 14
      vertex 14 -33 8.57224e-016
    endloop
  endfacet
  facet normal 6.12303e-017 0 -1
    outer loop
      vertex 4 -26 2.44921e-016
      vertex 8.57224e-016 -33 0
      vertex 4.45818 -24.1411 2.72976e-016
    endloop
  endfacet
  facet normal 6.12303e-017 0 -1
    outer loop
      vertex 8 -22 4.89843e-016
      vertex 8.57224e-016 -13 0
      vertex 12.7279 -0.272078 7.79335e-016
    endloop
  endfacet
  facet normal 6.12303e-017 0 -1
    outer loop
      vertex 14 -18.799 8.57224e-016
      vertex 12.7279 -0.272078 7.79335e-016
      vertex 22.6274 -10.1716 1.38548e-015
    endloop
  endfacet
  facet normal 6.12303e-017 0 -1
    outer loop
      vertex 12.7279 -0.272078 7.79335e-016
      vertex 14 -18.799 8.57224e-016
      vertex 14 -22 8.57224e-016
    endloop
  endfacet
  facet normal 6.12303e-017 0 -1
    outer loop
      vertex 8 -22.0877 4.89843e-016
      vertex 8.57224e-016 -13 0
      vertex 8 -22 4.89843e-016
    endloop
  endfacet
  facet normal 6.12303e-017 0 -1
    outer loop
      vertex 5.72774 -22.7081 3.50711e-016
      vertex 8.57224e-016 -13 0
      vertex 7.51785 -22.0292 4.60321e-016
    endloop
  endfacet
  facet normal 6.12303e-017 0 -1
    outer loop
      vertex 7.51785 -22.0292 4.60321e-016
      vertex 8.57224e-016 -13 0
      vertex 8 -22.0877 4.89843e-016
    endloop
  endfacet
  facet normal 6.12303e-017 0 -1
    outer loop
      vertex 4.45818 -24.1411 2.72976e-016
      vertex 8.57224e-016 -13 0
      vertex 5.72774 -22.7081 3.50711e-016
    endloop
  endfacet
  facet normal 6.12303e-017 0 -1
    outer loop
      vertex 8.57224e-016 -33 0
      vertex 8.57224e-016 -13 0
      vertex 4.45818 -24.1411 2.72976e-016
    endloop
  endfacet
  facet normal 6.12303e-017 0 -1
    outer loop
      vertex 14 -30 8.57224e-016
      vertex 14 -33 8.57224e-016
      vertex 8 -30 4.89843e-016
    endloop
  endfacet
  facet normal 6.12303e-017 0 -1
    outer loop
      vertex 8.57224e-016 -33 0
      vertex 4 -26 2.44921e-016
      vertex 4.45818 -27.8589 2.72976e-016
    endloop
  endfacet
  facet normal 6.12303e-017 0 -1
    outer loop
      vertex 8.57224e-016 -33 0
      vertex 4.45818 -27.8589 2.72976e-016
      vertex 5.72774 -29.2919 3.50711e-016
    endloop
  endfacet
  facet normal 6.12303e-017 0 -1
    outer loop
      vertex 8.57224e-016 -33 0
      vertex 5.72774 -29.2919 3.50711e-016
      vertex 14 -33 8.57224e-016
    endloop
  endfacet
  facet normal 6.12303e-017 0 -1
    outer loop
      vertex 5.72774 -29.2919 3.50711e-016
      vertex 7.51785 -29.9708 4.60321e-016
      vertex 14 -33 8.57224e-016
    endloop
  endfacet
  facet normal 6.12303e-017 0 -1
    outer loop
      vertex 7.51785 -29.9708 4.60321e-016
      vertex 8 -29.9123 4.89843e-016
      vertex 8 -30 4.89843e-016
    endloop
  endfacet
  facet normal 6.12303e-017 0 -1
    outer loop
      vertex 7.51785 -29.9708 4.60321e-016
      vertex 8 -30 4.89843e-016
      vertex 14 -33 8.57224e-016
    endloop
  endfacet
  facet normal 6.12303e-017 0 -1
    outer loop
      vertex 8 -22 4.89843e-016
      vertex 12.7279 -0.272078 7.79335e-016
      vertex 14 -22 8.57224e-016
    endloop
  endfacet
  facet normal -0.382291 -0.382291 -0.841254
    outer loop
      vertex 10.3704 -2.62961 9.29201
      vertex 20.2699 -12.5291 9.29201
      vertex 9.19725 -3.80275 10.3582
    endloop
  endfacet
  facet normal -0.382291 -0.382291 -0.841254
    outer loop
      vertex 9.19725 -3.80275 10.3582
      vertex 20.2699 -12.5291 9.29201
      vertex 19.0967 -13.7022 10.3582
    endloop
  endfacet
  facet normal 6.12303e-017 0 -1
    outer loop
      vertex 9.19725 -3.80275 10.3582
      vertex 19.0967 -13.7022 10.3582
      vertex 7.80275 -5.19725 10.3582
    endloop
  endfacet
  facet normal 6.12303e-017 0 -1
    outer loop
      vertex 7.80275 -5.19725 10.3582
      vertex 19.0967 -13.7022 10.3582
      vertex 17.7022 -15.0967 10.3582
    endloop
  endfacet
  facet normal -0.643207 -0.643207 -0.415415
    outer loop
      vertex 10.3704 -2.62961 9.29201
      vertex 10.9497 -2.05032 7.4981
      vertex 20.8492 -11.9498 7.4981
    endloop
  endfacet
  facet normal -0.643207 -0.643207 -0.415415
    outer loop
      vertex 20.2699 -12.5291 9.29201
      vertex 10.3704 -2.62961 9.29201
      vertex 20.8492 -11.9498 7.4981
    endloop
  endfacet
  facet normal -0.699909 -0.699909 0.142315
    outer loop
      vertex 10.9497 -2.05032 7.4981
      vertex 10.7512 -2.24878 5.54605
      vertex 20.6507 -12.1483 5.54605
    endloop
  endfacet
  facet normal -0.699909 -0.699909 0.142315
    outer loop
      vertex 20.8492 -11.9498 7.4981
      vertex 10.9497 -2.05032 7.4981
      vertex 20.6507 -12.1483 5.54605
    endloop
  endfacet
  facet normal -0.534396 -0.534396 0.654861
    outer loop
      vertex 10.7512 -2.24878 5.54605
      vertex 9.83802 -3.16198 4.05561
      vertex 19.7375 -13.0615 4.05561
    endloop
  endfacet
  facet normal -0.534396 -0.534396 0.654861
    outer loop
      vertex 20.6507 -12.1483 5.54605
      vertex 10.7512 -2.24878 5.54605
      vertex 19.7375 -13.0615 4.05561
    endloop
  endfacet
  facet normal -0.199215 -0.199215 0.959493
    outer loop
      vertex 9.83802 -3.16198 4.05561
      vertex 8.5 -4.5 3.5
      vertex 18.3995 -14.3995 3.5
    endloop
  endfacet
  facet normal -0.199215 -0.199215 0.959493
    outer loop
      vertex 19.7375 -13.0615 4.05561
      vertex 9.83802 -3.16198 4.05561
      vertex 18.3995 -14.3995 3.5
    endloop
  endfacet
  facet normal 0.199215 0.199215 0.959493
    outer loop
      vertex 18.3995 -14.3995 3.5
      vertex 8.5 -4.5 3.5
      vertex 7.16198 -5.83802 4.05561
    endloop
  endfacet
  facet normal 0.199215 0.199215 0.959493
    outer loop
      vertex 17.0615 -15.7375 4.05561
      vertex 18.3995 -14.3995 3.5
      vertex 7.16198 -5.83802 4.05561
    endloop
  endfacet
  facet normal 0.534396 0.534396 0.654861
    outer loop
      vertex 17.0615 -15.7375 4.05561
      vertex 7.16198 -5.83802 4.05561
      vertex 6.24878 -6.75122 5.54605
    endloop
  endfacet
  facet normal 0.534396 0.534396 0.654861
    outer loop
      vertex 16.1483 -16.6507 5.54605
      vertex 17.0615 -15.7375 4.05561
      vertex 6.24878 -6.75122 5.54605
    endloop
  endfacet
  facet normal 0.699909 0.699909 0.142315
    outer loop
      vertex 6.24878 -6.75122 5.54605
      vertex 6.05032 -6.94968 7.4981
      vertex 16.1483 -16.6507 5.54605
    endloop
  endfacet
  facet normal 0.699909 0.699909 0.142315
    outer loop
      vertex 16.1483 -16.6507 5.54605
      vertex 6.05032 -6.94968 7.4981
      vertex 15.9498 -16.8492 7.4981
    endloop
  endfacet
  facet normal 0.643207 0.643207 -0.415415
    outer loop
      vertex 6.05032 -6.94968 7.4981
      vertex 6.62961 -6.37039 9.29201
      vertex 15.9498 -16.8492 7.4981
    endloop
  endfacet
  facet normal 0.643207 0.643207 -0.415415
    outer loop
      vertex 15.9498 -16.8492 7.4981
      vertex 6.62961 -6.37039 9.29201
      vertex 16.5291 -16.2699 9.29201
    endloop
  endfacet
  facet normal 0.382291 0.382291 -0.841254
    outer loop
      vertex 6.62961 -6.37039 9.29201
      vertex 7.80275 -5.19725 10.3582
      vertex 16.5291 -16.2699 9.29201
    endloop
  endfacet
  facet normal 0.382291 0.382291 -0.841254
    outer loop
      vertex 16.5291 -16.2699 9.29201
      vertex 7.80275 -5.19725 10.3582
      vertex 17.7022 -15.0967 10.3582
    endloop
  endfacet
endsolid OpenSCAD_Model
