solid cover_flipped
facet normal -1.0 0.0 0.0
  outer loop
    vertex -57.00000000000001 39.83851605670993 40.98475074146214
    vertex -57.00000000000001 -10.161483943290175 0.9847507414621169
    vertex -57.00000000000001 -10.161483943290186 40.98475074146213
  endloop
endfacet
facet normal -1.0 0.0 0.0
  outer loop
    vertex -57.00000000000001 39.83851605670993 0.9847507414619985
    vertex -57.00000000000001 -10.161483943290175 0.9847507414621169
    vertex -57.00000000000001 39.83851605670993 40.98475074146214
  endloop
endfacet
facet normal -0.0 4.077059974768041e-15 1.0
  outer loop
    vertex -52.50000000000001 -1.861483943290179 40.9847507414621
    vertex -55.000000000000014 -1.861483943290179 40.9847507414621
    vertex -52.50000000000001 -10.161483943290186 40.98475074146213
  endloop
endfacet
facet normal -0.0 4.077059974768041e-15 1.0
  outer loop
    vertex -52.50000000000001 -10.161483943290186 40.98475074146213
    vertex -55.000000000000014 -1.861483943290179 40.9847507414621
    vertex -57.00000000000001 -10.161483943290186 40.98475074146213
  endloop
endfacet
facet normal -2.1410105236802542e-14 -1.0820015280759294e-15 1.0
  outer loop
    vertex 56.999999999999986 -10.161483943290186 40.98475074146213
    vertex 54.99999999999999 39.83851605670993 40.98475074146214
    vertex 54.99999999999999 -1.861483943290179 40.9847507414621
  endloop
endfacet
facet normal -0.0 4.077059974768041e-15 1.0
  outer loop
    vertex 56.999999999999986 -10.161483943290186 40.98475074146213
    vertex 54.99999999999999 -1.861483943290179 40.9847507414621
    vertex 52.499999999999986 -10.161483943290186 40.98475074146213
  endloop
endfacet
facet normal -1.5391345274074124e-30 -2.255973186038313e-16 1.0
  outer loop
    vertex 56.999999999999986 39.83851605670993 40.98475074146214
    vertex 54.99999999999999 39.83851605670993 40.98475074146214
    vertex 56.999999999999986 -10.161483943290186 40.98475074146213
  endloop
endfacet
facet normal 2.212811804380109e-30 -1.0820015280759292e-15 1.0
  outer loop
    vertex -55.000000000000014 39.83851605670993 40.98475074146214
    vertex -57.00000000000001 39.83851605670993 40.98475074146214
    vertex -55.000000000000014 -1.861483943290179 40.9847507414621
  endloop
endfacet
facet normal 1.7856027767493315e-14 -2.2559731860383137e-16 1.0
  outer loop
    vertex -55.000000000000014 -1.861483943290179 40.9847507414621
    vertex -57.00000000000001 39.83851605670993 40.98475074146214
    vertex -57.00000000000001 -10.161483943290186 40.98475074146213
  endloop
endfacet
facet normal -0.0 4.077059974768041e-15 1.0
  outer loop
    vertex 54.99999999999999 -1.861483943290179 40.9847507414621
    vertex 52.499999999999986 -1.861483943290179 40.9847507414621
    vertex 52.499999999999986 -10.161483943290186 40.98475074146213
  endloop
endfacet
facet normal 2.375207604023782e-31 -1.0 -2.8199664825478977e-16
  outer loop
    vertex -57.00000000000001 -10.161483943290186 40.98475074146213
    vertex -57.00000000000001 -10.161483943290175 0.9847507414621169
    vertex -52.50000000000001 -10.161483943290186 40.98475074146213
  endloop
endfacet
facet normal 1.315904489763915e-31 -1.0 3.0079642480511413e-14
  outer loop
    vertex -52.50000000000001 -10.161483943290085 3.9847507414620664
    vertex -57.00000000000001 -10.161483943290175 0.9847507414621169
    vertex 56.999999999999986 -10.161483943290175 0.9847507414621169
  endloop
endfacet
facet normal -2.375207604023782e-31 -1.0 -2.8199664825478977e-16
  outer loop
    vertex 52.499999999999986 -10.161483943290186 40.98475074146213
    vertex 56.999999999999986 -10.161483943290175 0.9847507414621169
    vertex 56.999999999999986 -10.161483943290186 40.98475074146213
  endloop
endfacet
facet normal -2.1882262435146398e-14 -1.0 -2.74375117220876e-15
  outer loop
    vertex 52.499999999999986 -10.161483943290186 40.98475074146213
    vertex 52.499999999999986 -10.161483943290085 3.9847507414620664
    vertex 56.999999999999986 -10.161483943290175 0.9847507414621169
  endloop
endfacet
facet normal 2.1882262435146404e-14 -1.0 -2.7437511722087607e-15
  outer loop
    vertex -52.50000000000001 -10.161483943290186 40.98475074146213
    vertex -57.00000000000001 -10.161483943290175 0.9847507414621169
    vertex -52.50000000000001 -10.161483943290085 3.9847507414620664
  endloop
endfacet
facet normal -7.755779931506501e-32 -1.0 3.007964248051141e-14
  outer loop
    vertex -52.50000000000001 -10.161483943290085 3.9847507414620664
    vertex 56.999999999999986 -10.161483943290175 0.9847507414621169
    vertex 52.499999999999986 -10.161483943290085 3.9847507414620664
  endloop
endfacet
facet normal -1.211006462087351e-31 -3.825779980054005e-15 -1.0
  outer loop
    vertex 56.999999999999986 39.83851605670993 0.9847507414619985
    vertex 30.413399999999985 4.457916056709831 0.9847507414621338
    vertex -57.00000000000001 39.83851605670993 0.9847507414619985
  endloop
endfacet
facet normal -1.2611030232512407e-16 -2.3687718453402287e-15 -1.0
  outer loop
    vertex 23.49999999999999 -0.16148394329018226 0.9847507414620831
    vertex -57.00000000000001 -10.161483943290175 0.9847507414621169
    vertex -57.00000000000001 39.83851605670993 0.9847507414619985
  endloop
endfacet
facet normal 6.617638741061601e-16 -8.711158965612057e-15 -1.0
  outer loop
    vertex 23.880599999999987 -2.0748839432902133 0.9847507414621001
    vertex -57.00000000000001 -10.161483943290175 0.9847507414621169
    vertex 23.49999999999999 -0.16148394329018226 0.9847507414620831
  endloop
endfacet
facet normal 7.814866953977793e-16 -9.908603332807036e-15 -1.0
  outer loop
    vertex 24.964499999999987 -3.696983943290164 0.9847507414621169
    vertex -57.00000000000001 -10.161483943290175 0.9847507414621169
    vertex 23.880599999999987 -2.0748839432902133 0.9847507414621001
  endloop
endfacet
facet normal 1.835311878931261e-15 -2.3270232887409872e-14 -1.0
  outer loop
    vertex 26.58659999999999 -4.7808839432901955 0.9847507414621451
    vertex -57.00000000000001 -10.161483943290175 0.9847507414621169
    vertex 24.964499999999987 -3.696983943290164 0.9847507414621169
  endloop
endfacet
facet normal -1.8482556020530507e-14 2.9236398949766946e-13 -1.0
  outer loop
    vertex 28.499999999999986 -5.161483943290173 0.9847507414619985
    vertex -57.00000000000001 -10.161483943290175 0.9847507414621169
    vertex 26.58659999999999 -4.7808839432901955 0.9847507414621451
  endloop
endfacet
facet normal 1.8949024652599722e-31 -2.3687718453402335e-14 -1.0
  outer loop
    vertex 56.999999999999986 -10.161483943290175 0.9847507414621169
    vertex -57.00000000000001 -10.161483943290175 0.9847507414621169
    vertex 28.499999999999986 -5.161483943290173 0.9847507414619985
  endloop
endfacet
facet normal -4.8554084656750425e-15 -1.8750536722305585e-14 -1.0
  outer loop
    vertex 56.999999999999986 -10.161483943290175 0.9847507414621169
    vertex 30.413399999999985 -4.7808839432901955 0.9847507414621451
    vertex 32.035499999999985 -3.696983943290164 0.9847507414621169
  endloop
endfacet
facet normal -2.3026089515029953e-15 -8.892177456848393e-15 -1.0
  outer loop
    vertex 56.999999999999986 -10.161483943290175 0.9847507414621169
    vertex 32.035499999999985 -3.696983943290164 0.9847507414621169
    vertex 33.119399999999985 -2.0748839432902133 0.9847507414621001
  endloop
endfacet
facet normal 7.0542702797284765e-15 1.3193575378304405e-14 -1.0
  outer loop
    vertex 56.999999999999986 -10.161483943290175 0.9847507414621169
    vertex 33.499999999999986 -0.16148394329018226 0.9847507414620831
    vertex 33.119399999999985 1.7519160567098715 0.9847507414621056
  endloop
endfacet
facet normal 1.0971044388500026e-14 2.0484525434974114e-14 -1.0
  outer loop
    vertex 24.964499999999987 3.3740160567097996 0.9847507414621508
    vertex 23.880599999999987 1.7519160567098715 0.9847507414621056
    vertex -57.00000000000001 39.83851605670993 0.9847507414619985
  endloop
endfacet
facet normal -2.1416316397767115e-15 -8.416794132532753e-15 -1.0
  outer loop
    vertex 56.999999999999986 -10.161483943290175 0.9847507414621169
    vertex 33.119399999999985 -2.0748839432902133 0.9847507414621001
    vertex 33.499999999999986 -0.16148394329018226 0.9847507414620831
  endloop
endfacet
facet normal -3.053696160776695e-15 -1.1040131333970307e-14 -1.0
  outer loop
    vertex 26.58659999999999 4.457916056709831 0.9847507414621338
    vertex 24.964499999999987 3.3740160567097996 0.9847507414621508
    vertex -57.00000000000001 39.83851605670993 0.9847507414619985
  endloop
endfacet
facet normal -7.093733227843859e-16 -2.36877184534023e-15 -1.0
  outer loop
    vertex 56.999999999999986 -10.161483943290175 0.9847507414621169
    vertex 33.119399999999985 1.7519160567098715 0.9847507414621056
    vertex 56.999999999999986 39.83851605670993 0.9847507414619985
  endloop
endfacet
facet normal -2.3647810818955395e-14 1.201381023001061e-14 -1.0
  outer loop
    vertex 56.999999999999986 39.83851605670993 0.9847507414619985
    vertex 33.119399999999985 1.7519160567098715 0.9847507414621056
    vertex 32.035499999999985 3.3740160567097996 0.9847507414621508
  endloop
endfacet
facet normal -3.627261412362204e-14 -9.344304275779135e-14 -1.0
  outer loop
    vertex 30.413399999999985 4.457916056709831 0.9847507414621338
    vertex 28.499999999999986 4.838516056709876 0.9847507414621677
    vertex -57.00000000000001 39.83851605670993 0.9847507414619985
  endloop
endfacet
facet normal 5.242172658509244e-15 -7.764988122446175e-15 -1.0
  outer loop
    vertex 56.999999999999986 39.83851605670993 0.9847507414619985
    vertex 32.035499999999985 3.3740160567097996 0.9847507414621508
    vertex 30.413399999999985 4.457916056709831 0.9847507414621338
  endloop
endfacet
facet normal 1.2549280599752324e-14 2.582187149502725e-14 -1.0
  outer loop
    vertex 28.499999999999986 4.838516056709876 0.9847507414621677
    vertex 26.58659999999999 4.457916056709831 0.9847507414621338
    vertex -57.00000000000001 39.83851605670993 0.9847507414619985
  endloop
endfacet
facet normal 6.288000075901343e-15 1.0539625290840414e-14 -1.0
  outer loop
    vertex 23.880599999999987 1.7519160567098715 0.9847507414621056
    vertex 23.49999999999999 -0.16148394329018226 0.9847507414620831
    vertex -57.00000000000001 39.83851605670993 0.9847507414619985
  endloop
endfacet
facet normal 3.812409137210552e-14 1.9361960236759903e-13 -1.0
  outer loop
    vertex 56.999999999999986 -10.161483943290175 0.9847507414621169
    vertex 28.499999999999986 -5.161483943290173 0.9847507414619985
    vertex 30.413399999999985 -4.7808839432901955 0.9847507414621451
  endloop
endfacet
facet normal -1.931527915680339e-32 1.0 -3.580909819108433e-15
  outer loop
    vertex -57.00000000000001 39.83851605670993 40.98475074146214
    vertex 56.999999999999986 39.83851605670993 40.98475074146214
    vertex -10.400000000000011 39.83851605670988 28.384750741462113
  endloop
endfacet
facet normal -1.931527915680339e-32 1.0 -3.580909819108433e-15
  outer loop
    vertex 56.999999999999986 39.83851605670993 40.98475074146214
    vertex -57.00000000000001 39.83851605670993 40.98475074146214
    vertex -55.000000000000014 39.83851605670993 40.98475074146214
  endloop
endfacet
facet normal -1.931527915680339e-32 1.0 -3.580909819108433e-15
  outer loop
    vertex 56.999999999999986 39.83851605670993 40.98475074146214
    vertex -55.000000000000014 39.83851605670993 40.98475074146214
    vertex 54.99999999999999 39.83851605670993 40.98475074146214
  endloop
endfacet
facet normal -0.0 1.0 -3.580909819108432e-15
  outer loop
    vertex 56.999999999999986 39.83851605670993 40.98475074146214
    vertex 10.399999999999988 39.83851605670988 28.384750741462113
    vertex -10.400000000000011 39.83851605670988 28.384750741462113
  endloop
endfacet
facet normal 9.682288352095784e-16 1.0 -7.087690542317055e-32
  outer loop
    vertex -57.00000000000001 39.83851605670993 40.98475074146214
    vertex -10.400000000000011 39.83851605670988 28.384750741462113
    vertex -57.00000000000001 39.83851605670993 0.9847507414619985
  endloop
endfacet
facet normal -2.983910407627804e-32 1.0 1.074272945732529e-14
  outer loop
    vertex -10.400000000000011 39.83851605670979 13.58475074146204
    vertex 56.999999999999986 39.83851605670993 0.9847507414619985
    vertex -57.00000000000001 39.83851605670993 0.9847507414619985
  endloop
endfacet
facet normal -2.9046865056287357e-15 1.0 1.417538108463411e-31
  outer loop
    vertex 56.999999999999986 39.83851605670993 40.98475074146214
    vertex 56.999999999999986 39.83851605670993 0.9847507414619985
    vertex 10.399999999999988 39.83851605670979 13.58475074146204
  endloop
endfacet
facet normal -0.0 1.0 1.0742729457325294e-14
  outer loop
    vertex 10.399999999999988 39.83851605670979 13.58475074146204
    vertex 56.999999999999986 39.83851605670993 0.9847507414619985
    vertex -10.400000000000011 39.83851605670979 13.58475074146204
  endloop
endfacet
facet normal 6.803770193364546e-16 1.0 -6.097224827130558e-15
  outer loop
    vertex 56.999999999999986 39.83851605670993 40.98475074146214
    vertex 10.399999999999988 39.83851605670979 13.58475074146204
    vertex 10.399999999999988 39.83851605670988 28.384750741462113
  endloop
endfacet
facet normal 4.5532923601747736e-15 1.0 -6.0972248271305634e-15
  outer loop
    vertex -10.400000000000011 39.83851605670988 28.384750741462113
    vertex -10.400000000000011 39.83851605670979 13.58475074146204
    vertex -57.00000000000001 39.83851605670993 0.9847507414619985
  endloop
endfacet
facet normal 1.0 -0.0 -0.0
  outer loop
    vertex -52.50000000000001 -1.861483943290179 40.9847507414621
    vertex -52.50000000000001 -10.161483943290186 40.98475074146213
    vertex -52.50000000000001 -10.161483943290085 3.9847507414620664
  endloop
endfacet
facet normal 1.0 -0.0 -0.0
  outer loop
    vertex -52.50000000000001 36.838516056709885 3.984750741462106
    vertex -52.50000000000001 17.374986056709833 46.057750741462115
    vertex -52.50000000000001 -1.861483943290179 40.9847507414621
  endloop
endfacet
facet normal 1.0 -0.0 -0.0
  outer loop
    vertex -52.50000000000001 36.838516056709885 3.984750741462106
    vertex -52.50000000000001 -1.861483943290179 40.9847507414621
    vertex -52.50000000000001 -10.161483943290085 3.9847507414620664
  endloop
endfacet
facet normal 1.0 -0.0 -0.0
  outer loop
    vertex -52.50000000000001 36.838516056709885 58.9847507414621
    vertex -52.50000000000001 17.374986056709925 48.91135074146205
    vertex -52.50000000000001 19.05203605670972 48.36675074146211
  endloop
endfacet
facet normal 1.0 -0.0 -0.0
  outer loop
    vertex -52.50000000000001 36.838516056709885 58.9847507414621
    vertex -52.50000000000001 19.05203605670972 48.36675074146211
    vertex -52.50000000000001 36.838516056709885 3.984750741462106
  endloop
endfacet
facet normal 1.0 -0.0 -0.0
  outer loop
    vertex -52.50000000000001 36.838516056709885 3.984750741462106
    vertex -52.50000000000001 19.05203605670972 48.36675074146211
    vertex -52.50000000000001 19.052036056709834 46.602750741462096
  endloop
endfacet
facet normal 1.0 -0.0 -0.0
  outer loop
    vertex -52.50000000000001 36.838516056709885 3.984750741462106
    vertex -52.50000000000001 19.052036056709834 46.602750741462096
    vertex -52.50000000000001 17.374986056709833 46.057750741462115
  endloop
endfacet
facet normal 1.0 -0.0 -0.0
  outer loop
    vertex -52.50000000000001 17.374986056709925 48.91135074146205
    vertex -52.50000000000001 -1.861483943290179 40.9847507414621
    vertex -52.50000000000001 16.338516056709857 47.484750741462115
  endloop
endfacet
facet normal 1.0 -0.0 -0.0
  outer loop
    vertex -52.50000000000001 36.838516056709885 58.9847507414621
    vertex -52.50000000000001 -1.861483943290179 40.9847507414621
    vertex -52.50000000000001 17.374986056709925 48.91135074146205
  endloop
endfacet
facet normal 1.0 -0.0 -0.0
  outer loop
    vertex -52.50000000000001 36.838516056709885 58.9847507414621
    vertex -52.50000000000001 -1.861483943290179 58.98475074146213
    vertex -52.50000000000001 -1.861483943290179 40.9847507414621
  endloop
endfacet
facet normal 1.0 -0.0 -0.0
  outer loop
    vertex -52.50000000000001 17.374986056709833 46.057750741462115
    vertex -52.50000000000001 16.338516056709857 47.484750741462115
    vertex -52.50000000000001 -1.861483943290179 40.9847507414621
  endloop
endfacet
facet normal 1.0 -0.0 -0.0
  outer loop
    vertex 56.999999999999986 -6.861483943290125 19.984750741462094
    vertex 56.999999999999986 -10.161483943290186 40.98475074146213
    vertex 56.999999999999986 -10.161483943290175 0.9847507414621169
  endloop
endfacet
facet normal 1.0 -0.0 -0.0
  outer loop
    vertex 56.999999999999986 -4.311483943290186 18.512750741462092
    vertex 56.999999999999986 -6.011483943290092 18.51275074146216
    vertex 56.999999999999986 -10.161483943290175 0.9847507414621169
  endloop
endfacet
facet normal 1.0 -0.0 -0.0
  outer loop
    vertex 56.999999999999986 39.83851605670993 40.98475074146214
    vertex 56.999999999999986 -10.161483943290186 40.98475074146213
    vertex 56.999999999999986 4.356416056709761 29.955750741462076
  endloop
endfacet
facet normal 1.0 -0.0 -0.0
  outer loop
    vertex 56.999999999999986 39.83851605670993 40.98475074146214
    vertex 56.999999999999986 4.356416056709761 29.955750741462076
    vertex 56.999999999999986 24.35636605670982 29.955750741462122
  endloop
endfacet
facet normal 1.0 -0.0 -0.0
  outer loop
    vertex 56.999999999999986 39.83851605670993 40.98475074146214
    vertex 56.999999999999986 26.25691605670986 29.724750741462024
    vertex 56.999999999999986 27.832516056709835 28.636750741462112
  endloop
endfacet
facet normal 1.0 -0.0 -0.0
  outer loop
    vertex 56.999999999999986 39.83851605670993 40.98475074146214
    vertex 56.999999999999986 27.832516056709835 28.636750741462112
    vertex 56.999999999999986 28.72231605670978 26.94175074146215
  endloop
endfacet
facet normal 1.0 -0.0 -0.0
  outer loop
    vertex 56.999999999999986 24.3563660567098 10.013750741462076
    vertex 56.999999999999986 4.356416056709829 10.013750741462161
    vertex 56.999999999999986 -10.161483943290175 0.9847507414621169
  endloop
endfacet
facet normal 1.0 -0.0 -0.0
  outer loop
    vertex 56.999999999999986 39.83851605670993 40.98475074146214
    vertex 56.999999999999986 28.72231605670978 26.94175074146215
    vertex 56.999999999999986 33.98851605670989 21.456750741462155
  endloop
endfacet
facet normal 1.0 -0.0 -0.0
  outer loop
    vertex 56.999999999999986 2.5662160567097168 10.69275074146211
    vertex 56.999999999999986 1.296716056709925 12.125750741462113
    vertex 56.999999999999986 -10.161483943290175 0.9847507414621169
  endloop
endfacet
facet normal 1.0 -0.0 -0.0
  outer loop
    vertex 56.999999999999986 39.83851605670993 0.9847507414619985
    vertex 56.999999999999986 28.722316056709868 13.027750741462059
    vertex 56.999999999999986 27.83251605670988 11.332750741462114
  endloop
endfacet
facet normal 1.0 -0.0 -0.0
  outer loop
    vertex 56.999999999999986 39.83851605670993 0.9847507414619985
    vertex 56.999999999999986 26.2569160567099 10.244750741462108
    vertex 56.999999999999986 -10.161483943290175 0.9847507414621169
  endloop
endfacet
facet normal 1.0 -0.0 -0.0
  outer loop
    vertex 56.999999999999986 39.83851605670993 0.9847507414619985
    vertex 56.999999999999986 27.83251605670988 11.332750741462114
    vertex 56.999999999999986 26.2569160567099 10.244750741462108
  endloop
endfacet
facet normal 1.0 -0.0 -0.0
  outer loop
    vertex 56.999999999999986 26.2569160567099 10.244750741462108
    vertex 56.999999999999986 24.3563660567098 10.013750741462076
    vertex 56.999999999999986 -10.161483943290175 0.9847507414621169
  endloop
endfacet
facet normal 1.0 -0.0 -0.0
  outer loop
    vertex 56.999999999999986 4.356416056709829 10.013750741462161
    vertex 56.999999999999986 2.5662160567097168 10.69275074146211
    vertex 56.999999999999986 -10.161483943290175 0.9847507414621169
  endloop
endfacet
facet normal 1.0 -0.0 -0.0
  outer loop
    vertex 56.999999999999986 1.296716056709925 12.125750741462113
    vertex 56.999999999999986 0.8385160567098384 13.984750741462046
    vertex 56.999999999999986 -10.161483943290175 0.9847507414621169
  endloop
endfacet
facet normal 1.0 -0.0 -0.0
  outer loop
    vertex 56.999999999999986 1.2967160567099025 27.843750741462056
    vertex 56.999999999999986 -10.161483943290186 40.98475074146213
    vertex 56.999999999999986 0.8385160567099287 25.98475074146204
  endloop
endfacet
facet normal 1.0 -0.0 -0.0
  outer loop
    vertex 56.999999999999986 2.566216056709807 29.276750741462088
    vertex 56.999999999999986 -10.161483943290186 40.98475074146213
    vertex 56.999999999999986 1.2967160567099025 27.843750741462056
  endloop
endfacet
facet normal 1.0 -0.0 -0.0
  outer loop
    vertex 56.999999999999986 4.356416056709761 29.955750741462076
    vertex 56.999999999999986 -10.161483943290186 40.98475074146213
    vertex 56.999999999999986 2.566216056709807 29.276750741462088
  endloop
endfacet
facet normal 1.0 -0.0 -0.0
  outer loop
    vertex 56.999999999999986 39.83851605670993 0.9847507414619985
    vertex 56.999999999999986 36.53851605670987 19.98475074146209
    vertex 56.999999999999986 35.68851605670996 18.512750741462078
  endloop
endfacet
facet normal 1.0 -0.0 -0.0
  outer loop
    vertex 56.999999999999986 0.8385160567099287 25.98475074146204
    vertex 56.999999999999986 -10.161483943290186 40.98475074146213
    vertex 56.999999999999986 -6.011483943290228 21.456750741462123
  endloop
endfacet
facet normal 1.0 -0.0 -0.0
  outer loop
    vertex 56.999999999999986 -6.011483943290092 18.51275074146216
    vertex 56.999999999999986 -6.861483943290125 19.984750741462094
    vertex 56.999999999999986 -10.161483943290175 0.9847507414621169
  endloop
endfacet
facet normal 1.0 -0.0 -0.0
  outer loop
    vertex 56.999999999999986 0.8385160567099287 25.98475074146204
    vertex 56.999999999999986 -6.011483943290228 21.456750741462123
    vertex 56.999999999999986 -4.311483943290074 21.456750741462056
  endloop
endfacet
facet normal 1.0 -0.0 -0.0
  outer loop
    vertex 56.999999999999986 0.8385160567099287 25.98475074146204
    vertex 56.999999999999986 -3.4614839432901086 19.98475074146204
    vertex 56.999999999999986 -10.161483943290175 0.9847507414621169
  endloop
endfacet
facet normal 1.0 -0.0 -0.0
  outer loop
    vertex 56.999999999999986 0.8385160567099287 25.98475074146204
    vertex 56.999999999999986 -4.311483943290074 21.456750741462056
    vertex 56.999999999999986 -3.4614839432901086 19.98475074146204
  endloop
endfacet
facet normal 1.0 -0.0 -0.0
  outer loop
    vertex 56.999999999999986 -3.4614839432901086 19.98475074146204
    vertex 56.999999999999986 -4.311483943290186 18.512750741462092
    vertex 56.999999999999986 -10.161483943290175 0.9847507414621169
  endloop
endfacet
facet normal 1.0 -0.0 -0.0
  outer loop
    vertex 56.999999999999986 -6.011483943290228 21.456750741462123
    vertex 56.999999999999986 -10.161483943290186 40.98475074146213
    vertex 56.999999999999986 -6.861483943290125 19.984750741462094
  endloop
endfacet
facet normal 1.0 -0.0 -0.0
  outer loop
    vertex 56.999999999999986 33.98851605670989 21.456750741462155
    vertex 56.999999999999986 28.72231605670978 26.94175074146215
    vertex 56.999999999999986 33.13851605670981 19.98475074146212
  endloop
endfacet
facet normal 1.0 -0.0 -0.0
  outer loop
    vertex 56.999999999999986 39.83851605670993 40.98475074146214
    vertex 56.999999999999986 33.98851605670989 21.456750741462155
    vertex 56.999999999999986 35.68851605670991 21.456750741462105
  endloop
endfacet
facet normal 1.0 -0.0 -0.0
  outer loop
    vertex 56.999999999999986 39.83851605670993 40.98475074146214
    vertex 56.999999999999986 35.68851605670991 21.456750741462105
    vertex 56.999999999999986 36.53851605670987 19.98475074146209
  endloop
endfacet
facet normal 1.0 -0.0 -0.0
  outer loop
    vertex 56.999999999999986 39.83851605670993 0.9847507414619985
    vertex 56.999999999999986 35.68851605670996 18.512750741462078
    vertex 56.999999999999986 33.9885160567098 18.512750741462156
  endloop
endfacet
facet normal 1.0 -0.0 -0.0
  outer loop
    vertex 56.999999999999986 39.83851605670993 40.98475074146214
    vertex 56.999999999999986 36.53851605670987 19.98475074146209
    vertex 56.999999999999986 39.83851605670993 0.9847507414619985
  endloop
endfacet
facet normal 1.0 -0.0 -0.0
  outer loop
    vertex 56.999999999999986 39.83851605670993 0.9847507414619985
    vertex 56.999999999999986 33.9885160567098 18.512750741462156
    vertex 56.999999999999986 28.72231605670978 26.94175074146215
  endloop
endfacet
facet normal 1.0 -0.0 -0.0
  outer loop
    vertex 56.999999999999986 33.9885160567098 18.512750741462156
    vertex 56.999999999999986 33.13851605670981 19.98475074146212
    vertex 56.999999999999986 28.72231605670978 26.94175074146215
  endloop
endfacet
facet normal 1.0 -0.0 -0.0
  outer loop
    vertex 56.999999999999986 0.8385160567099287 25.98475074146204
    vertex 56.999999999999986 -10.161483943290175 0.9847507414621169
    vertex 56.999999999999986 0.8385160567098384 13.984750741462046
  endloop
endfacet
facet normal 1.0 -0.0 -0.0
  outer loop
    vertex 56.999999999999986 39.83851605670993 40.98475074146214
    vertex 56.999999999999986 24.35636605670982 29.955750741462122
    vertex 56.999999999999986 26.25691605670986 29.724750741462024
  endloop
endfacet
facet normal 1.0 -0.0 -0.0
  outer loop
    vertex 56.999999999999986 39.83851605670993 0.9847507414619985
    vertex 56.999999999999986 28.72231605670978 26.94175074146215
    vertex 56.999999999999986 28.722316056709868 13.027750741462059
  endloop
endfacet
facet normal -1.0 0.0 0.0
  outer loop
    vertex 52.499999999999986 -6.861483943290125 19.984750741462094
    vertex 52.499999999999986 -10.161483943290085 3.9847507414620664
    vertex 52.499999999999986 -10.161483943290186 40.98475074146213
  endloop
endfacet
facet normal -1.0 0.0 0.0
  outer loop
    vertex 52.499999999999986 36.838516056709885 58.9847507414621
    vertex 52.499999999999986 19.052046056709813 46.602750741462124
    vertex 52.499999999999986 19.05204605670986 48.36675074146209
  endloop
endfacet
facet normal -1.0 0.0 0.0
  outer loop
    vertex 52.499999999999986 36.838516056709885 58.9847507414621
    vertex 52.499999999999986 17.374996056709882 48.91135074146212
    vertex 52.499999999999986 -1.861483943290179 40.9847507414621
  endloop
endfacet
facet normal -1.0 0.0 0.0
  outer loop
    vertex 52.499999999999986 17.374996056709882 48.91135074146212
    vertex 52.499999999999986 16.338516056709857 47.484750741462115
    vertex 52.499999999999986 -1.861483943290179 40.9847507414621
  endloop
endfacet
facet normal -1.0 0.0 0.0
  outer loop
    vertex 52.499999999999986 19.052046056709813 46.602750741462124
    vertex 52.499999999999986 4.356416056709761 29.955750741462076
    vertex 52.499999999999986 17.37499605670979 46.05775074146211
  endloop
endfacet
facet normal -1.0 0.0 0.0
  outer loop
    vertex 52.499999999999986 17.37499605670979 46.05775074146211
    vertex 52.499999999999986 4.356416056709761 29.955750741462076
    vertex 52.499999999999986 16.338516056709857 47.484750741462115
  endloop
endfacet
facet normal -1.0 0.0 0.0
  outer loop
    vertex 52.499999999999986 36.838516056709885 58.9847507414621
    vertex 52.499999999999986 19.05204605670986 48.36675074146209
    vertex 52.499999999999986 17.374996056709882 48.91135074146212
  endloop
endfacet
facet normal -1.0 0.0 0.0
  outer loop
    vertex 52.499999999999986 0.8385160567099287 25.98475074146204
    vertex 52.499999999999986 0.8385160567098384 13.984750741462046
    vertex 52.499999999999986 -10.161483943290085 3.9847507414620664
  endloop
endfacet
facet normal -1.0 0.0 0.0
  outer loop
    vertex 52.499999999999986 16.338516056709857 47.484750741462115
    vertex 52.499999999999986 4.356416056709761 29.955750741462076
    vertex 52.499999999999986 -1.861483943290179 40.9847507414621
  endloop
endfacet
facet normal -1.0 0.0 0.0
  outer loop
    vertex 52.499999999999986 4.356416056709761 29.955750741462076
    vertex 52.499999999999986 2.566216056709807 29.276750741462088
    vertex 52.499999999999986 -1.861483943290179 40.9847507414621
  endloop
endfacet
facet normal -1.0 0.0 0.0
  outer loop
    vertex 52.499999999999986 1.2967160567099025 27.843750741462056
    vertex 52.499999999999986 0.8385160567099287 25.98475074146204
    vertex 52.499999999999986 -10.161483943290085 3.9847507414620664
  endloop
endfacet
facet normal -1.0 0.0 0.0
  outer loop
    vertex 52.499999999999986 2.566216056709807 29.276750741462088
    vertex 52.499999999999986 1.2967160567099025 27.843750741462056
    vertex 52.499999999999986 -1.861483943290179 40.9847507414621
  endloop
endfacet
facet normal -1.0 0.0 0.0
  outer loop
    vertex 52.499999999999986 1.296716056709925 12.125750741462113
    vertex 52.499999999999986 -10.161483943290085 3.9847507414620664
    vertex 52.499999999999986 0.8385160567098384 13.984750741462046
  endloop
endfacet
facet normal -1.0 0.0 0.0
  outer loop
    vertex 52.499999999999986 2.5662160567097168 10.69275074146211
    vertex 52.499999999999986 -10.161483943290085 3.9847507414620664
    vertex 52.499999999999986 1.296716056709925 12.125750741462113
  endloop
endfacet
facet normal -1.0 0.0 0.0
  outer loop
    vertex 52.499999999999986 4.356416056709829 10.013750741462161
    vertex 52.499999999999986 -10.161483943290085 3.9847507414620664
    vertex 52.499999999999986 2.5662160567097168 10.69275074146211
  endloop
endfacet
facet normal -1.0 0.0 0.0
  outer loop
    vertex 52.499999999999986 36.838516056709885 3.984750741462106
    vertex 52.499999999999986 -10.161483943290085 3.9847507414620664
    vertex 52.499999999999986 4.356416056709829 10.013750741462161
  endloop
endfacet
facet normal -1.0 0.0 0.0
  outer loop
    vertex 52.499999999999986 36.838516056709885 58.9847507414621
    vertex 52.499999999999986 28.722316056709868 13.027750741462059
    vertex 52.499999999999986 28.72231605670978 26.94175074146215
  endloop
endfacet
facet normal -1.0 0.0 0.0
  outer loop
    vertex 52.499999999999986 36.838516056709885 3.984750741462106
    vertex 52.499999999999986 24.3563660567098 10.013750741462076
    vertex 52.499999999999986 26.2569160567099 10.244750741462108
  endloop
endfacet
facet normal -1.0 0.0 0.0
  outer loop
    vertex 52.499999999999986 36.838516056709885 3.984750741462106
    vertex 52.499999999999986 26.2569160567099 10.244750741462108
    vertex 52.499999999999986 27.83251605670988 11.332750741462114
  endloop
endfacet
facet normal -1.0 0.0 0.0
  outer loop
    vertex 52.499999999999986 36.838516056709885 3.984750741462106
    vertex 52.499999999999986 27.83251605670988 11.332750741462114
    vertex 52.499999999999986 28.722316056709868 13.027750741462059
  endloop
endfacet
facet normal -1.0 0.0 0.0
  outer loop
    vertex 52.499999999999986 36.838516056709885 58.9847507414621
    vertex 52.499999999999986 33.98851605670989 21.456750741462155
    vertex 52.499999999999986 28.722316056709868 13.027750741462059
  endloop
endfacet
facet normal -1.0 0.0 0.0
  outer loop
    vertex 52.499999999999986 36.838516056709885 58.9847507414621
    vertex 52.499999999999986 28.72231605670978 26.94175074146215
    vertex 52.499999999999986 27.832516056709835 28.636750741462112
  endloop
endfacet
facet normal -1.0 0.0 0.0
  outer loop
    vertex 52.499999999999986 -1.861483943290179 40.9847507414621
    vertex 52.499999999999986 -6.011483943290228 21.456750741462123
    vertex 52.499999999999986 -6.861483943290125 19.984750741462094
  endloop
endfacet
facet normal -1.0 0.0 0.0
  outer loop
    vertex 52.499999999999986 36.838516056709885 58.9847507414621
    vertex 52.499999999999986 27.832516056709835 28.636750741462112
    vertex 52.499999999999986 26.25691605670986 29.724750741462024
  endloop
endfacet
facet normal -1.0 0.0 0.0
  outer loop
    vertex 52.499999999999986 36.838516056709885 58.9847507414621
    vertex 52.499999999999986 26.25691605670986 29.724750741462024
    vertex 52.499999999999986 24.35636605670982 29.955750741462122
  endloop
endfacet
facet normal -1.0 0.0 0.0
  outer loop
    vertex 52.499999999999986 1.2967160567099025 27.843750741462056
    vertex 52.499999999999986 -3.4614839432901086 19.98475074146204
    vertex 52.499999999999986 -4.311483943290074 21.456750741462056
  endloop
endfacet
facet normal -1.0 0.0 0.0
  outer loop
    vertex 52.499999999999986 1.2967160567099025 27.843750741462056
    vertex 52.499999999999986 -6.011483943290228 21.456750741462123
    vertex 52.499999999999986 -1.861483943290179 40.9847507414621
  endloop
endfacet
facet normal -1.0 0.0 0.0
  outer loop
    vertex 52.499999999999986 -6.011483943290092 18.51275074146216
    vertex 52.499999999999986 -10.161483943290085 3.9847507414620664
    vertex 52.499999999999986 -6.861483943290125 19.984750741462094
  endloop
endfacet
facet normal -1.0 0.0 0.0
  outer loop
    vertex 52.499999999999986 -1.861483943290179 40.9847507414621
    vertex 52.499999999999986 -6.861483943290125 19.984750741462094
    vertex 52.499999999999986 -10.161483943290186 40.98475074146213
  endloop
endfacet
facet normal -1.0 0.0 0.0
  outer loop
    vertex 52.499999999999986 -4.311483943290186 18.512750741462092
    vertex 52.499999999999986 -10.161483943290085 3.9847507414620664
    vertex 52.499999999999986 -6.011483943290092 18.51275074146216
  endloop
endfacet
facet normal -1.0 0.0 0.0
  outer loop
    vertex 52.499999999999986 1.2967160567099025 27.843750741462056
    vertex 52.499999999999986 -10.161483943290085 3.9847507414620664
    vertex 52.499999999999986 -4.311483943290186 18.512750741462092
  endloop
endfacet
facet normal -1.0 0.0 0.0
  outer loop
    vertex 52.499999999999986 1.2967160567099025 27.843750741462056
    vertex 52.499999999999986 -4.311483943290186 18.512750741462092
    vertex 52.499999999999986 -3.4614839432901086 19.98475074146204
  endloop
endfacet
facet normal -1.0 0.0 0.0
  outer loop
    vertex 52.499999999999986 36.838516056709885 3.984750741462106
    vertex 52.499999999999986 33.9885160567098 18.512750741462156
    vertex 52.499999999999986 35.68851605670996 18.512750741462078
  endloop
endfacet
facet normal -1.0 0.0 0.0
  outer loop
    vertex 52.499999999999986 1.2967160567099025 27.843750741462056
    vertex 52.499999999999986 -4.311483943290074 21.456750741462056
    vertex 52.499999999999986 -6.011483943290228 21.456750741462123
  endloop
endfacet
facet normal -1.0 0.0 0.0
  outer loop
    vertex 52.499999999999986 33.98851605670989 21.456750741462155
    vertex 52.499999999999986 33.13851605670981 19.98475074146212
    vertex 52.499999999999986 28.722316056709868 13.027750741462059
  endloop
endfacet
facet normal -1.0 0.0 0.0
  outer loop
    vertex 52.499999999999986 36.838516056709885 58.9847507414621
    vertex 52.499999999999986 35.68851605670991 21.456750741462105
    vertex 52.499999999999986 33.98851605670989 21.456750741462155
  endloop
endfacet
facet normal -1.0 0.0 0.0
  outer loop
    vertex 52.499999999999986 36.838516056709885 3.984750741462106
    vertex 52.499999999999986 28.722316056709868 13.027750741462059
    vertex 52.499999999999986 33.13851605670981 19.98475074146212
  endloop
endfacet
facet normal -1.0 0.0 0.0
  outer loop
    vertex 52.499999999999986 36.838516056709885 3.984750741462106
    vertex 52.499999999999986 33.13851605670981 19.98475074146212
    vertex 52.499999999999986 33.9885160567098 18.512750741462156
  endloop
endfacet
facet normal -1.0 0.0 0.0
  outer loop
    vertex 52.499999999999986 36.838516056709885 58.9847507414621
    vertex 52.499999999999986 36.53851605670987 19.98475074146209
    vertex 52.499999999999986 35.68851605670991 21.456750741462105
  endloop
endfacet
facet normal -1.0 0.0 0.0
  outer loop
    vertex 52.499999999999986 36.838516056709885 3.984750741462106
    vertex 52.499999999999986 35.68851605670996 18.512750741462078
    vertex 52.499999999999986 36.53851605670987 19.98475074146209
  endloop
endfacet
facet normal -1.0 0.0 0.0
  outer loop
    vertex 52.499999999999986 36.838516056709885 3.984750741462106
    vertex 52.499999999999986 36.53851605670987 19.98475074146209
    vertex 52.499999999999986 36.838516056709885 58.9847507414621
  endloop
endfacet
facet normal -1.0 0.0 0.0
  outer loop
    vertex 52.499999999999986 36.838516056709885 58.9847507414621
    vertex 52.499999999999986 -1.861483943290179 40.9847507414621
    vertex 52.499999999999986 -1.861483943290179 58.98475074146213
  endloop
endfacet
facet normal -1.0 0.0 0.0
  outer loop
    vertex 52.499999999999986 36.838516056709885 58.9847507414621
    vertex 52.499999999999986 4.356416056709761 29.955750741462076
    vertex 52.499999999999986 19.052046056709813 46.602750741462124
  endloop
endfacet
facet normal -1.0 0.0 0.0
  outer loop
    vertex 52.499999999999986 36.838516056709885 58.9847507414621
    vertex 52.499999999999986 24.35636605670982 29.955750741462122
    vertex 52.499999999999986 4.356416056709761 29.955750741462076
  endloop
endfacet
facet normal -1.0 0.0 0.0
  outer loop
    vertex 52.499999999999986 36.838516056709885 3.984750741462106
    vertex 52.499999999999986 4.356416056709829 10.013750741462161
    vertex 52.499999999999986 24.3563660567098 10.013750741462076
  endloop
endfacet
facet normal 0.0 -1.0 0.0
  outer loop
    vertex 52.499999999999986 -1.861483943290179 58.98475074146213
    vertex 52.499999999999986 -1.861483943290179 40.9847507414621
    vertex 54.99999999999999 -1.861483943290179 58.98475074146213
  endloop
endfacet
facet normal 0.0 -1.0 0.0
  outer loop
    vertex 54.99999999999999 -1.861483943290179 58.98475074146213
    vertex 52.499999999999986 -1.861483943290179 40.9847507414621
    vertex 54.99999999999999 -1.861483943290179 40.9847507414621
  endloop
endfacet
facet normal 1.0 -0.0 -0.0
  outer loop
    vertex 54.99999999999999 39.83851605670988 58.9847507414621
    vertex 54.99999999999999 -1.861483943290179 58.98475074146213
    vertex 54.99999999999999 -1.861483943290179 40.9847507414621
  endloop
endfacet
facet normal 1.0 -0.0 -0.0
  outer loop
    vertex 54.99999999999999 39.83851605670988 58.9847507414621
    vertex 54.99999999999999 -1.861483943290179 40.9847507414621
    vertex 54.99999999999999 17.374996056709882 48.91135074146212
  endloop
endfacet
facet normal 1.0 -0.0 -0.0
  outer loop
    vertex 54.99999999999999 17.374996056709882 48.91135074146212
    vertex 54.99999999999999 -1.861483943290179 40.9847507414621
    vertex 54.99999999999999 16.338516056709857 47.484750741462115
  endloop
endfacet
facet normal 1.0 -0.0 -0.0
  outer loop
    vertex 54.99999999999999 39.83851605670988 58.9847507414621
    vertex 54.99999999999999 17.374996056709882 48.91135074146212
    vertex 54.99999999999999 19.05204605670986 48.36675074146209
  endloop
endfacet
facet normal 1.0 -0.0 -0.0
  outer loop
    vertex 54.99999999999999 17.37499605670979 46.05775074146211
    vertex 54.99999999999999 16.338516056709857 47.484750741462115
    vertex 54.99999999999999 -1.861483943290179 40.9847507414621
  endloop
endfacet
facet normal 1.0 -0.0 -0.0
  outer loop
    vertex 54.99999999999999 39.83851605670993 40.98475074146214
    vertex 54.99999999999999 39.83851605670988 58.9847507414621
    vertex 54.99999999999999 19.05204605670986 48.36675074146209
  endloop
endfacet
facet normal 1.0 -0.0 -0.0
  outer loop
    vertex 54.99999999999999 39.83851605670993 40.98475074146214
    vertex 54.99999999999999 17.37499605670979 46.05775074146211
    vertex 54.99999999999999 -1.861483943290179 40.9847507414621
  endloop
endfacet
facet normal 1.0 -0.0 -0.0
  outer loop
    vertex 54.99999999999999 39.83851605670993 40.98475074146214
    vertex 54.99999999999999 19.052046056709813 46.602750741462124
    vertex 54.99999999999999 17.37499605670979 46.05775074146211
  endloop
endfacet
facet normal 1.0 -0.0 -0.0
  outer loop
    vertex 54.99999999999999 39.83851605670993 40.98475074146214
    vertex 54.99999999999999 19.05204605670986 48.36675074146209
    vertex 54.99999999999999 19.052046056709813 46.602750741462124
  endloop
endfacet
facet normal -0.0 1.0 2.5066368733759135e-15
  outer loop
    vertex 54.99999999999999 39.83851605670988 58.9847507414621
    vertex -55.000000000000014 39.83851605670993 40.98475074146214
    vertex -55.000000000000014 39.83851605670988 58.9847507414621
  endloop
endfacet
facet normal -0.0 1.0 2.5066368733759135e-15
  outer loop
    vertex 54.99999999999999 39.83851605670988 58.9847507414621
    vertex 54.99999999999999 39.83851605670993 40.98475074146214
    vertex -55.000000000000014 39.83851605670993 40.98475074146214
  endloop
endfacet
facet normal -1.0 0.0 0.0
  outer loop
    vertex -55.000000000000014 39.83851605670988 58.9847507414621
    vertex -55.000000000000014 -1.861483943290179 40.9847507414621
    vertex -55.000000000000014 -1.861483943290179 58.98475074146213
  endloop
endfacet
facet normal -1.0 0.0 0.0
  outer loop
    vertex -55.000000000000014 39.83851605670993 40.98475074146214
    vertex -55.000000000000014 19.05203605670972 48.36675074146211
    vertex -55.000000000000014 39.83851605670988 58.9847507414621
  endloop
endfacet
facet normal -1.0 0.0 0.0
  outer loop
    vertex -55.000000000000014 39.83851605670988 58.9847507414621
    vertex -55.000000000000014 19.05203605670972 48.36675074146211
    vertex -55.000000000000014 17.374986056709925 48.91135074146205
  endloop
endfacet
facet normal -1.0 0.0 0.0
  outer loop
    vertex -55.000000000000014 39.83851605670993 40.98475074146214
    vertex -55.000000000000014 19.052036056709834 46.602750741462096
    vertex -55.000000000000014 19.05203605670972 48.36675074146211
  endloop
endfacet
facet normal -1.0 0.0 0.0
  outer loop
    vertex -55.000000000000014 39.83851605670988 58.9847507414621
    vertex -55.000000000000014 17.374986056709925 48.91135074146205
    vertex -55.000000000000014 -1.861483943290179 40.9847507414621
  endloop
endfacet
facet normal -1.0 0.0 0.0
  outer loop
    vertex -55.000000000000014 17.374986056709925 48.91135074146205
    vertex -55.000000000000014 16.338516056709857 47.484750741462115
    vertex -55.000000000000014 -1.861483943290179 40.9847507414621
  endloop
endfacet
facet normal -1.0 0.0 0.0
  outer loop
    vertex -55.000000000000014 39.83851605670993 40.98475074146214
    vertex -55.000000000000014 -1.861483943290179 40.9847507414621
    vertex -55.000000000000014 17.374986056709833 46.057750741462115
  endloop
endfacet
facet normal -1.0 0.0 0.0
  outer loop
    vertex -55.000000000000014 39.83851605670993 40.98475074146214
    vertex -55.000000000000014 17.374986056709833 46.057750741462115
    vertex -55.000000000000014 19.052036056709834 46.602750741462096
  endloop
endfacet
facet normal -1.0 0.0 0.0
  outer loop
    vertex -55.000000000000014 17.374986056709833 46.057750741462115
    vertex -55.000000000000014 -1.861483943290179 40.9847507414621
    vertex -55.000000000000014 16.338516056709857 47.484750741462115
  endloop
endfacet
facet normal 0.0 -1.0 0.0
  outer loop
    vertex -55.000000000000014 -1.861483943290179 58.98475074146213
    vertex -55.000000000000014 -1.861483943290179 40.9847507414621
    vertex -52.50000000000001 -1.861483943290179 58.98475074146213
  endloop
endfacet
facet normal 0.0 -1.0 0.0
  outer loop
    vertex -52.50000000000001 -1.861483943290179 58.98475074146213
    vertex -55.000000000000014 -1.861483943290179 40.9847507414621
    vertex -52.50000000000001 -1.861483943290179 40.9847507414621
  endloop
endfacet
facet normal 1.9945700079133488e-32 1.6853480449717702e-15 1.0
  outer loop
    vertex 52.499999999999986 36.838516056709885 3.984750741462106
    vertex -52.50000000000001 36.838516056709885 3.984750741462106
    vertex 24.964499999999987 3.3740160567097996 3.9847507414621623
  endloop
endfacet
facet normal -6.166175963913472e-14 -1.0031073403581046e-13 1.0
  outer loop
    vertex 52.499999999999986 -10.161483943290085 3.9847507414620664
    vertex 32.035499999999985 3.3740160567097996 3.9847507414621623
    vertex 33.119399999999985 1.7519160567098488 3.9847507414620664
  endloop
endfacet
facet normal -4.0894250782749466e-16 -8.399900160780976e-16 1.0
  outer loop
    vertex 23.49999999999999 -0.16148394329009202 3.984750741462106
    vertex -52.50000000000001 36.838516056709885 3.984750741462106
    vertex -52.50000000000001 -10.161483943290085 3.9847507414620664
  endloop
endfacet
facet normal 9.15822660203033e-15 1.8811492479846116e-14 1.0
  outer loop
    vertex 23.880599999999987 1.7519160567098488 3.9847507414620664
    vertex -52.50000000000001 36.838516056709885 3.984750741462106
    vertex 23.49999999999999 -0.16148394329009202 3.984750741462106
  endloop
endfacet
facet normal 4.188525209499658e-15 -6.785410839389537e-14 1.0
  outer loop
    vertex 28.499999999999986 -5.1614839432901505 3.9847507414620664
    vertex 26.58659999999999 -4.780883943290128 3.9847507414621
    vertex -52.50000000000001 -10.161483943290085 3.9847507414620664
  endloop
endfacet
facet normal 5.156236918429622e-14 -4.074157053065849e-14 1.0
  outer loop
    vertex 52.499999999999986 36.838516056709885 3.984750741462106
    vertex 24.964499999999987 3.3740160567097996 3.9847507414621623
    vertex 26.58659999999999 4.457916056709854 3.984750741462123
  endloop
endfacet
facet normal 4.544975464435578e-14 -3.5849795034859226e-14 1.0
  outer loop
    vertex 52.499999999999986 36.838516056709885 3.984750741462106
    vertex 26.58659999999999 4.457916056709854 3.984750741462123
    vertex 28.499999999999986 4.838516056709898 3.9847507414620496
  endloop
endfacet
facet normal -3.364937493384349e-14 2.3474552148790183e-14 1.0
  outer loop
    vertex 52.499999999999986 36.838516056709885 3.984750741462106
    vertex 28.499999999999986 4.838516056709898 3.9847507414620496
    vertex 30.413399999999985 4.457916056709854 3.984750741462123
  endloop
endfacet
facet normal 2.9258172946101264e-15 -8.031966281509536e-16 1.0
  outer loop
    vertex 32.035499999999985 3.3740160567097996 3.9847507414621623
    vertex 52.499999999999986 36.838516056709885 3.984750741462106
    vertex 30.413399999999985 4.457916056709854 3.984750741462123
  endloop
endfacet
facet normal 2.9258172946101264e-15 -8.031966281509536e-16 1.0
  outer loop
    vertex 52.499999999999986 36.838516056709885 3.984750741462106
    vertex 32.035499999999985 3.3740160567097996 3.9847507414621623
    vertex 52.499999999999986 -10.161483943290085 3.9847507414620664
  endloop
endfacet
facet normal 1.4450251061631475e-14 2.3507523941532757e-14 1.0
  outer loop
    vertex 52.499999999999986 -10.161483943290085 3.9847507414620664
    vertex 33.119399999999985 1.7519160567098488 3.9847507414620664
    vertex 33.499999999999986 -0.16148394329009202 3.984750741462106
  endloop
endfacet
facet normal 4.689640927919745e-15 4.9623646874804836e-15 1.0
  outer loop
    vertex 52.499999999999986 -10.161483943290085 3.9847507414620664
    vertex 33.499999999999986 -0.16148394329009202 3.984750741462106
    vertex 33.119399999999985 -2.074883943290146 3.984750741462117
  endloop
endfacet
facet normal -1.355314950533729e-15 -9.525166771718238e-15 1.0
  outer loop
    vertex 52.499999999999986 -10.161483943290085 3.9847507414620664
    vertex 33.119399999999985 -2.074883943290146 3.984750741462117
    vertex 32.035499999999985 -3.6969839432901193 3.9847507414621
  endloop
endfacet
facet normal 1.122788658514538e-15 -1.68029844356159e-15 1.0
  outer loop
    vertex 52.499999999999986 -10.161483943290085 3.9847507414620664
    vertex 32.035499999999985 -3.6969839432901193 3.9847507414621
    vertex 30.413399999999985 -4.780883943290128 3.9847507414621
  endloop
endfacet
facet normal -9.047343458397136e-15 -4.342724860030681e-14 1.0
  outer loop
    vertex 52.499999999999986 -10.161483943290085 3.9847507414620664
    vertex 30.413399999999985 -4.780883943290128 3.9847507414621
    vertex 28.499999999999986 -5.1614839432901505 3.9847507414620664
  endloop
endfacet
facet normal -3.883409565355218e-16 -5.811678804283331e-16 1.0
  outer loop
    vertex 26.58659999999999 -4.780883943290128 3.9847507414621
    vertex 24.964499999999987 -3.6969839432901193 3.9847507414621
    vertex -52.50000000000001 -10.161483943290085 3.9847507414620664
  endloop
endfacet
facet normal -0.0 -0.0 1.0
  outer loop
    vertex 52.499999999999986 -10.161483943290085 3.9847507414620664
    vertex 28.499999999999986 -5.1614839432901505 3.9847507414620664
    vertex -52.50000000000001 -10.161483943290085 3.9847507414620664
  endloop
endfacet
facet normal -1.2621179475327938e-15 5.6441433256822e-15 1.0
  outer loop
    vertex 23.880599999999987 -2.074883943290146 3.984750741462117
    vertex 23.49999999999999 -0.16148394329009202 3.984750741462106
    vertex -52.50000000000001 -10.161483943290085 3.9847507414620664
  endloop
endfacet
facet normal 4.107190694086419e-16 -1.0156353181650716e-14 1.0
  outer loop
    vertex 24.964499999999987 -3.6969839432901193 3.9847507414621
    vertex 23.880599999999987 -2.074883943290146 3.984750741462117
    vertex -52.50000000000001 -10.161483943290085 3.9847507414620664
  endloop
endfacet
facet normal -2.0379656318959558e-14 -4.549001351489142e-14 1.0
  outer loop
    vertex 24.964499999999987 3.3740160567097996 3.9847507414621623
    vertex -52.50000000000001 36.838516056709885 3.984750741462106
    vertex 23.880599999999987 1.7519160567098488 3.9847507414620664
  endloop
endfacet
facet normal 0.9807851748445716 -0.19509085269459273 -1.4482185310714525e-15
  outer loop
    vertex 23.880599999999987 1.7519160567098715 0.9847507414621056
    vertex 23.880599999999987 1.7519160567098488 3.9847507414620664
    vertex 23.49999999999999 -0.16148394329018226 0.9847507414620831
  endloop
endfacet
facet normal 0.9807851748445693 -0.19509085269460372 5.855840147376307e-15
  outer loop
    vertex 23.880599999999987 1.7519160567098488 3.9847507414620664
    vertex 23.49999999999999 -0.16148394329009202 3.984750741462106
    vertex 23.49999999999999 -0.16148394329018226 0.9847507414620831
  endloop
endfacet
facet normal 0.9807851748445712 0.1950908526945949 -4.391880110531842e-15
  outer loop
    vertex 23.49999999999999 -0.16148394329018226 0.9847507414620831
    vertex 23.880599999999987 -2.074883943290146 3.984750741462117
    vertex 23.880599999999987 -2.0748839432902133 0.9847507414621001
  endloop
endfacet
facet normal 0.9807851748445716 0.19509085269459267 -5.88732315892066e-15
  outer loop
    vertex 23.49999999999999 -0.16148394329009202 3.984750741462106
    vertex 23.880599999999987 -2.074883943290146 3.984750741462117
    vertex 23.49999999999999 -0.16148394329018226 0.9847507414620831
  endloop
endfacet
facet normal 0.831458381234984 -0.5555870411322603 3.713634708251356e-17
  outer loop
    vertex 24.964499999999987 3.3740160567097996 3.9847507414621623
    vertex 23.880599999999987 1.7519160567098715 0.9847507414621056
    vertex 24.964499999999987 3.3740160567097996 0.9847507414621508
  endloop
endfacet
facet normal 0.8314583812349875 -0.555587041132255 -4.1592708732415605e-15
  outer loop
    vertex 24.964499999999987 3.3740160567097996 3.9847507414621623
    vertex 23.880599999999987 1.7519160567098488 3.9847507414620664
    vertex 23.880599999999987 1.7519160567098715 0.9847507414621056
  endloop
endfacet
facet normal 0.5555870411322538 -0.8314583812349883 6.27604265694435e-15
  outer loop
    vertex 26.58659999999999 4.457916056709854 3.984750741462123
    vertex 24.964499999999987 3.3740160567097996 0.9847507414621508
    vertex 26.58659999999999 4.457916056709831 0.9847507414621338
  endloop
endfacet
facet normal 0.5555870411322619 -0.8314583812349831 0.0
  outer loop
    vertex 24.964499999999987 3.3740160567097996 3.9847507414621623
    vertex 24.964499999999987 3.3740160567097996 0.9847507414621508
    vertex 26.58659999999999 4.457916056709854 3.984750741462123
  endloop
endfacet
facet normal 0.19509085269462048 -0.9807851748445661 7.367024701538169e-15
  outer loop
    vertex 28.499999999999986 4.838516056709898 3.9847507414620496
    vertex 26.58659999999999 4.457916056709831 0.9847507414621338
    vertex 28.499999999999986 4.838516056709876 0.9847507414621677
  endloop
endfacet
facet normal 0.19509085269462045 -0.9807851748445661 7.41424921885519e-15
  outer loop
    vertex 26.58659999999999 4.457916056709854 3.984750741462123
    vertex 26.58659999999999 4.457916056709831 0.9847507414621338
    vertex 28.499999999999986 4.838516056709898 3.9847507414620496
  endloop
endfacet
facet normal -0.1950908526946204 -0.9807851748445661 7.367024701537642e-15
  outer loop
    vertex 30.413399999999985 4.457916056709854 3.984750741462123
    vertex 28.499999999999986 4.838516056709876 0.9847507414621677
    vertex 30.413399999999985 4.457916056709831 0.9847507414621338
  endloop
endfacet
facet normal -0.19509085269462045 -0.9807851748445661 7.35128319576565e-15
  outer loop
    vertex 30.413399999999985 4.457916056709854 3.984750741462123
    vertex 28.499999999999986 4.838516056709898 3.9847507414620496
    vertex 28.499999999999986 4.838516056709876 0.9847507414621677
  endloop
endfacet
facet normal -0.5555870411322538 -0.8314583812349883 0.0
  outer loop
    vertex 32.035499999999985 3.3740160567097996 3.9847507414621623
    vertex 30.413399999999985 4.457916056709831 0.9847507414621338
    vertex 32.035499999999985 3.3740160567097996 0.9847507414621508
  endloop
endfacet
facet normal -0.5555870411322619 -0.8314583812349831 6.201769962779287e-15
  outer loop
    vertex 32.035499999999985 3.3740160567097996 3.9847507414621623
    vertex 30.413399999999985 4.457916056709854 3.984750741462123
    vertex 30.413399999999985 4.457916056709831 0.9847507414621338
  endloop
endfacet
facet normal -0.8314583812349847 -0.5555870411322593 -4.196407220324177e-15
  outer loop
    vertex 32.035499999999985 3.3740160567097996 0.9847507414621508
    vertex 33.119399999999985 1.7519160567098715 0.9847507414621056
    vertex 33.119399999999985 1.7519160567098488 3.9847507414620664
  endloop
endfacet
facet normal -0.8314583812349883 -0.555587041132254 0.0
  outer loop
    vertex 32.035499999999985 3.3740160567097996 0.9847507414621508
    vertex 33.119399999999985 1.7519160567098488 3.9847507414620664
    vertex 32.035499999999985 3.3740160567097996 3.9847507414621623
  endloop
endfacet
facet normal -0.9807851748445716 -0.19509085269459273 5.887323158920661e-15
  outer loop
    vertex 33.119399999999985 1.7519160567098715 0.9847507414621056
    vertex 33.499999999999986 -0.16148394329018226 0.9847507414620831
    vertex 33.499999999999986 -0.16148394329009202 3.984750741462106
  endloop
endfacet
facet normal -0.9807851748445693 -0.19509085269460374 -1.4639600368441375e-15
  outer loop
    vertex 33.119399999999985 1.7519160567098715 0.9847507414621056
    vertex 33.499999999999986 -0.16148394329009202 3.984750741462106
    vertex 33.119399999999985 1.7519160567098488 3.9847507414620664
  endloop
endfacet
facet normal -0.9807851748445712 0.19509085269459492 -5.8558401473757675e-15
  outer loop
    vertex 33.499999999999986 -0.16148394329009202 3.984750741462106
    vertex 33.499999999999986 -0.16148394329018226 0.9847507414620831
    vertex 33.119399999999985 -2.0748839432902133 0.9847507414621001
  endloop
endfacet
facet normal -0.9807851748445716 0.19509085269459267 -4.376138604759224e-15
  outer loop
    vertex 33.499999999999986 -0.16148394329009202 3.984750741462106
    vertex 33.119399999999985 -2.0748839432902133 0.9847507414621001
    vertex 33.119399999999985 -2.074883943290146 3.984750741462117
  endloop
endfacet
facet normal -0.8314583812349883 0.5555870411322539 -1.2552085313889246e-14
  outer loop
    vertex 33.119399999999985 -2.074883943290146 3.984750741462117
    vertex 33.119399999999985 -2.0748839432902133 0.9847507414621001
    vertex 32.035499999999985 -3.696983943290164 0.9847507414621169
  endloop
endfacet
facet normal -0.8314583812349919 0.5555870411322485 -8.35567809356532e-15
  outer loop
    vertex 33.119399999999985 -2.074883943290146 3.984750741462117
    vertex 32.035499999999985 -3.696983943290164 0.9847507414621169
    vertex 32.035499999999985 -3.6969839432901193 3.9847507414621
  endloop
endfacet
facet normal -0.5555870411322539 0.8314583812349883 -1.2477812619723722e-14
  outer loop
    vertex 32.035499999999985 -3.6969839432901193 3.9847507414621
    vertex 32.035499999999985 -3.696983943290164 0.9847507414621169
    vertex 30.413399999999985 -4.7808839432901955 0.9847507414621451
  endloop
endfacet
facet normal -0.5555870411322459 0.8314583812349936 -1.8753855276668567e-14
  outer loop
    vertex 32.035499999999985 -3.6969839432901193 3.9847507414621
    vertex 30.413399999999985 -4.7808839432901955 0.9847507414621451
    vertex 30.413399999999985 -4.780883943290128 3.9847507414621
  endloop
endfacet
facet normal -0.1950908526945871 0.9807851748445726 -2.2132557116158607e-14
  outer loop
    vertex 30.413399999999985 -4.780883943290128 3.9847507414621
    vertex 30.413399999999985 -4.7808839432901955 0.9847507414621451
    vertex 28.499999999999986 -5.161483943290173 0.9847507414619985
  endloop
endfacet
facet normal -0.19509085269460932 0.9807851748445682 -7.382766207309787e-15
  outer loop
    vertex 30.413399999999985 -4.780883943290128 3.9847507414621
    vertex 28.499999999999986 -5.161483943290173 0.9847507414619985
    vertex 28.499999999999986 -5.1614839432901505 3.9847507414620664
  endloop
endfacet
facet normal 0.19509085269458717 0.9807851748445726 -7.367024701537307e-15
  outer loop
    vertex 28.499999999999986 -5.1614839432901505 3.9847507414620664
    vertex 28.499999999999986 -5.161483943290173 0.9847507414619985
    vertex 26.58659999999999 -4.7808839432901955 0.9847507414621451
  endloop
endfacet
facet normal 0.19509085269460935 0.9807851748445682 -2.214829862193103e-14
  outer loop
    vertex 26.58659999999999 -4.780883943290128 3.9847507414621
    vertex 28.499999999999986 -5.1614839432901505 3.9847507414620664
    vertex 26.58659999999999 -4.7808839432901955 0.9847507414621451
  endloop
endfacet
facet normal 0.5555870411322539 0.8314583812349883 -1.8753855276668444e-14
  outer loop
    vertex 26.58659999999999 -4.780883943290128 3.9847507414621
    vertex 26.58659999999999 -4.7808839432901955 0.9847507414621451
    vertex 24.964499999999987 -3.696983943290164 0.9847507414621169
  endloop
endfacet
facet normal 0.5555870411322459 0.8314583812349936 -1.2552085313888826e-14
  outer loop
    vertex 26.58659999999999 -4.780883943290128 3.9847507414621
    vertex 24.964499999999987 -3.696983943290164 0.9847507414621169
    vertex 24.964499999999987 -3.6969839432901193 3.9847507414621
  endloop
endfacet
facet normal 0.8314583812349877 0.555587041132255 -8.318541746482996e-15
  outer loop
    vertex 23.880599999999987 -2.0748839432902133 0.9847507414621001
    vertex 24.964499999999987 -3.6969839432901193 3.9847507414621
    vertex 24.964499999999987 -3.696983943290164 0.9847507414621169
  endloop
endfacet
facet normal 0.831458381234991 0.5555870411322498 -1.2477812619723918e-14
  outer loop
    vertex 23.880599999999987 -2.074883943290146 3.984750741462117
    vertex 24.964499999999987 -3.6969839432901193 3.9847507414621
    vertex 23.880599999999987 -2.0748839432902133 0.9847507414621001
  endloop
endfacet
facet normal -0.0 1.0 -0.0
  outer loop
    vertex 10.399999999999988 39.83851605670988 28.384750741462113
    vertex -9.900000000000011 39.83851605670988 27.48475074146206
    vertex -10.400000000000011 39.83851605670988 28.384750741462113
  endloop
endfacet
facet normal -1.0975004688835702e-14 1.0 -6.0972248271305595e-15
  outer loop
    vertex -10.400000000000011 39.83851605670988 28.384750741462113
    vertex -9.900000000000011 39.83851605670988 27.48475074146206
    vertex -10.400000000000011 39.83851605670979 13.58475074146204
  endloop
endfacet
facet normal -0.0 1.0 -1.0026547493503027e-13
  outer loop
    vertex 9.89999999999999 39.83851605670988 14.484750741462095
    vertex -10.400000000000011 39.83851605670979 13.58475074146204
    vertex -9.900000000000011 39.83851605670988 14.484750741462095
  endloop
endfacet
facet normal -1.804778548830658e-13 1.0 7.115081949923389e-31
  outer loop
    vertex -9.900000000000011 39.83851605670988 27.48475074146206
    vertex -9.900000000000011 39.83851605670988 14.484750741462095
    vertex -10.400000000000011 39.83851605670979 13.58475074146204
  endloop
endfacet
facet normal 1.6950285019423006e-13 1.0 -6.097224827130557e-15
  outer loop
    vertex 10.399999999999988 39.83851605670988 28.384750741462113
    vertex 10.399999999999988 39.83851605670979 13.58475074146204
    vertex 9.89999999999999 39.83851605670988 14.484750741462095
  endloop
endfacet
facet normal -0.0 1.0 -1.0026547493503025e-13
  outer loop
    vertex 9.89999999999999 39.83851605670988 14.484750741462095
    vertex 10.399999999999988 39.83851605670979 13.58475074146204
    vertex -10.400000000000011 39.83851605670979 13.58475074146204
  endloop
endfacet
facet normal -0.0 1.0 -0.0
  outer loop
    vertex 10.399999999999988 39.83851605670988 28.384750741462113
    vertex 9.89999999999999 39.83851605670988 14.484750741462095
    vertex 9.89999999999999 39.83851605670988 27.48475074146206
  endloop
endfacet
facet normal -0.0 1.0 -0.0
  outer loop
    vertex 10.399999999999988 39.83851605670988 28.384750741462113
    vertex 9.89999999999999 39.83851605670988 27.48475074146206
    vertex -9.900000000000011 39.83851605670988 27.48475074146206
  endloop
endfacet
facet normal -0.0 5.410007640379651e-16 1.0
  outer loop
    vertex -52.50000000000001 -1.861483943290179 58.98475074146213
    vertex -55.000000000000014 39.83851605670988 58.9847507414621
    vertex -55.000000000000014 -1.861483943290179 58.98475074146213
  endloop
endfacet
facet normal -0.0 -0.0 1.0
  outer loop
    vertex 52.499999999999986 36.838516056709885 58.9847507414621
    vertex -55.000000000000014 39.83851605670988 58.9847507414621
    vertex -52.50000000000001 36.838516056709885 58.9847507414621
  endloop
endfacet
facet normal 6.995265693142023e-16 5.829388077618383e-16 1.0
  outer loop
    vertex -52.50000000000001 36.838516056709885 58.9847507414621
    vertex -55.000000000000014 39.83851605670988 58.9847507414621
    vertex -52.50000000000001 -1.861483943290179 58.98475074146213
  endloop
endfacet
facet normal -0.0 -0.0 1.0
  outer loop
    vertex 54.99999999999999 39.83851605670988 58.9847507414621
    vertex -55.000000000000014 39.83851605670988 58.9847507414621
    vertex 52.499999999999986 36.838516056709885 58.9847507414621
  endloop
endfacet
facet normal 1.6442756804491185e-30 5.829388077618384e-16 1.0
  outer loop
    vertex 54.99999999999999 -1.861483943290179 58.98475074146213
    vertex 52.499999999999986 36.838516056709885 58.9847507414621
    vertex 52.499999999999986 -1.861483943290179 58.98475074146213
  endloop
endfacet
facet normal -6.492009168455556e-16 5.410007640379653e-16 1.0
  outer loop
    vertex 54.99999999999999 39.83851605670988 58.9847507414621
    vertex 52.499999999999986 36.838516056709885 58.9847507414621
    vertex 54.99999999999999 -1.861483943290179 58.98475074146213
  endloop
endfacet
facet normal -3.376666092628558e-32 -1.0 -1.4323639276433744e-15
  outer loop
    vertex -52.50000000000001 36.838516056709885 58.9847507414621
    vertex -9.900000000000011 36.83851605670993 27.48475074146206
    vertex 52.499999999999986 36.838516056709885 58.9847507414621
  endloop
endfacet
facet normal 1.2661205887572649e-30 -1.0 -1.4323639276433748e-15
  outer loop
    vertex 52.499999999999986 36.838516056709885 58.9847507414621
    vertex -9.900000000000011 36.83851605670993 27.48475074146206
    vertex 9.89999999999999 36.83851605670993 27.48475074146206
  endloop
endfacet
facet normal 1.0591423408630602e-15 -1.0 0.0
  outer loop
    vertex -52.50000000000001 36.838516056709885 58.9847507414621
    vertex -52.50000000000001 36.838516056709885 3.984750741462106
    vertex -9.900000000000011 36.83851605670993 27.48475074146206
  endloop
endfacet
facet normal -1.05914234086306e-15 -1.0 -2.2429623859848425e-32
  outer loop
    vertex 52.499999999999986 36.838516056709885 58.9847507414621
    vertex 9.89999999999999 36.83851605670993 27.48475074146206
    vertex 52.499999999999986 36.838516056709885 3.984750741462106
  endloop
endfacet
facet normal -1.0591423408630604e-15 -1.0 0.0
  outer loop
    vertex 9.89999999999999 36.83851605670993 27.48475074146206
    vertex 9.89999999999999 36.83851605670993 14.484750741462145
    vertex 52.499999999999986 36.838516056709885 3.984750741462106
  endloop
endfacet
facet normal 1.8993746771035545e-32 -1.0 4.297091782930111e-15
  outer loop
    vertex 9.89999999999999 36.83851605670993 14.484750741462145
    vertex -52.50000000000001 36.838516056709885 3.984750741462106
    vertex 52.499999999999986 36.838516056709885 3.984750741462106
  endloop
endfacet
facet normal 0.0 -1.0 4.297091782930113e-15
  outer loop
    vertex -9.900000000000011 36.83851605670993 14.484750741462145
    vertex -52.50000000000001 36.838516056709885 3.984750741462106
    vertex 9.89999999999999 36.83851605670993 14.484750741462145
  endloop
endfacet
facet normal 1.0591423408630604e-15 -1.0 0.0
  outer loop
    vertex -9.900000000000011 36.83851605670993 27.48475074146206
    vertex -52.50000000000001 36.838516056709885 3.984750741462106
    vertex -9.900000000000011 36.83851605670993 14.484750741462145
  endloop
endfacet
facet normal 6.182860277029721e-30 -1.0 -6.394481819836455e-14
  outer loop
    vertex -52.50000000000001 19.05203605670972 48.36675074146211
    vertex -55.000000000000014 19.052036056709834 46.602750741462096
    vertex -52.50000000000001 19.052036056709834 46.602750741462096
  endloop
endfacet
facet normal 6.182860277029722e-30 -1.0 -6.394481819836456e-14
  outer loop
    vertex -55.000000000000014 19.05203605670972 48.36675074146211
    vertex -55.000000000000014 19.052036056709834 46.602750741462096
    vertex -52.50000000000001 19.05203605670972 48.36675074146211
  endloop
endfacet
facet normal 2.8614360396162725e-17 -0.30885972400178996 -0.9511076021615736
  outer loop
    vertex -52.50000000000001 17.374986056709925 48.91135074146205
    vertex -55.000000000000014 19.05203605670972 48.36675074146211
    vertex -52.50000000000001 19.05203605670972 48.36675074146211
  endloop
endfacet
facet normal 0.0 -0.30885972400179 -0.9511076021615736
  outer loop
    vertex -52.50000000000001 17.374986056709925 48.91135074146205
    vertex -55.000000000000014 17.374986056709925 48.91135074146205
    vertex -55.000000000000014 19.05203605670972 48.36675074146211
  endloop
endfacet
facet normal -0.0 0.8090211932514675 -0.5877794729913352
  outer loop
    vertex -52.50000000000001 17.374986056709925 48.91135074146205
    vertex -52.50000000000001 16.338516056709857 47.484750741462115
    vertex -55.000000000000014 16.338516056709857 47.484750741462115
  endloop
endfacet
facet normal -3.363580847861736e-17 0.8090211932514676 -0.587779472991335
  outer loop
    vertex -52.50000000000001 17.374986056709925 48.91135074146205
    vertex -55.000000000000014 16.338516056709857 47.484750741462115
    vertex -55.000000000000014 17.374986056709925 48.91135074146205
  endloop
endfacet
facet normal -0.0 0.8090995410790105 0.5876716197211965
  outer loop
    vertex -52.50000000000001 16.338516056709857 47.484750741462115
    vertex -52.50000000000001 17.374986056709833 46.057750741462115
    vertex -55.000000000000014 17.374986056709833 46.057750741462115
  endloop
endfacet
facet normal -3.362020988415438e-17 0.8090995410790104 0.5876716197211966
  outer loop
    vertex -52.50000000000001 16.338516056709857 47.484750741462115
    vertex -55.000000000000014 17.374986056709833 46.057750741462115
    vertex -55.000000000000014 16.338516056709857 47.484750741462115
  endloop
endfacet
facet normal -2.861235498808001e-17 -0.30906491451957036 0.9510409447615862
  outer loop
    vertex -52.50000000000001 19.052036056709834 46.602750741462096
    vertex -55.000000000000014 17.374986056709833 46.057750741462115
    vertex -52.50000000000001 17.374986056709833 46.057750741462115
  endloop
endfacet
facet normal -2.8612354988080015e-17 -0.3090649145195704 0.9510409447615862
  outer loop
    vertex -52.50000000000001 19.052036056709834 46.602750741462096
    vertex -55.000000000000014 19.052036056709834 46.602750741462096
    vertex -55.000000000000014 17.374986056709833 46.057750741462115
  endloop
endfacet
facet normal 1.9001755840850593e-30 2.2559788259853763e-15 -1.0
  outer loop
    vertex 56.999999999999986 4.356416056709761 29.955750741462076
    vertex 52.499999999999986 24.35636605670982 29.955750741462122
    vertex 56.999999999999986 24.35636605670982 29.955750741462122
  endloop
endfacet
facet normal 0.0 2.2559788259853755e-15 -1.0
  outer loop
    vertex 56.999999999999986 4.356416056709761 29.955750741462076
    vertex 52.499999999999986 4.356416056709761 29.955750741462076
    vertex 52.499999999999986 24.35636605670982 29.955750741462122
  endloop
endfacet
facet normal -1.5238495184633867e-17 0.3546353403744766 -0.9350046926927581
  outer loop
    vertex 56.999999999999986 2.566216056709807 29.276750741462088
    vertex 52.499999999999986 2.566216056709807 29.276750741462088
    vertex 56.999999999999986 4.356416056709761 29.955750741462076
  endloop
endfacet
facet normal -1.5238495184633867e-17 0.35463534037447664 -0.9350046926927581
  outer loop
    vertex 56.999999999999986 4.356416056709761 29.955750741462076
    vertex 52.499999999999986 2.566216056709807 29.276750741462088
    vertex 52.499999999999986 4.356416056709761 29.955750741462076
  endloop
endfacet
facet normal -0.0 0.7485178053840902 -0.6631146922086596
  outer loop
    vertex 56.999999999999986 2.566216056709807 29.276750741462088
    vertex 56.999999999999986 1.2967160567099025 27.843750741462056
    vertex 52.499999999999986 1.2967160567099025 27.843750741462056
  endloop
endfacet
facet normal -0.0 0.7485178053840902 -0.6631146922086596
  outer loop
    vertex 56.999999999999986 2.566216056709807 29.276750741462088
    vertex 52.499999999999986 1.2967160567099025 27.843750741462056
    vertex 52.499999999999986 2.566216056709807 29.276750741462088
  endloop
endfacet
facet normal 1.4674589155267595e-17 0.9709421023047498 -0.23931450848628671
  outer loop
    vertex 56.999999999999986 1.2967160567099025 27.843750741462056
    vertex 56.999999999999986 0.8385160567099287 25.98475074146204
    vertex 52.499999999999986 0.8385160567099287 25.98475074146204
  endloop
endfacet
facet normal 7.337294577633798e-18 0.9709421023047498 -0.23931450848628666
  outer loop
    vertex 56.999999999999986 1.2967160567099025 27.843750741462056
    vertex 52.499999999999986 0.8385160567099287 25.98475074146204
    vertex 52.499999999999986 1.2967160567099025 27.843750741462056
  endloop
endfacet
facet normal -2.6391195600264267e-30 1.0 -7.519910620127729e-15
  outer loop
    vertex 56.999999999999986 0.8385160567099287 25.98475074146204
    vertex 56.999999999999986 0.8385160567098384 13.984750741462046
    vertex 52.499999999999986 0.8385160567098384 13.984750741462046
  endloop
endfacet
facet normal -2.6391195600264267e-30 1.0 -7.519910620127729e-15
  outer loop
    vertex 56.999999999999986 0.8385160567099287 25.98475074146204
    vertex 52.499999999999986 0.8385160567098384 13.984750741462046
    vertex 52.499999999999986 0.8385160567099287 25.98475074146204
  endloop
endfacet
facet normal -0.0 0.9709421023047334 0.23931450848635247
  outer loop
    vertex 56.999999999999986 0.8385160567098384 13.984750741462046
    vertex 56.999999999999986 1.296716056709925 12.125750741462113
    vertex 52.499999999999986 1.296716056709925 12.125750741462113
  endloop
endfacet
facet normal -0.0 0.9709421023047334 0.23931450848635247
  outer loop
    vertex 56.999999999999986 0.8385160567098384 13.984750741462046
    vertex 52.499999999999986 1.296716056709925 12.125750741462113
    vertex 52.499999999999986 0.8385160567098384 13.984750741462046
  endloop
endfacet
facet normal -0.0 0.748517805384113 0.6631146922086338
  outer loop
    vertex 56.999999999999986 1.296716056709925 12.125750741462113
    vertex 56.999999999999986 2.5662160567097168 10.69275074146211
    vertex 52.499999999999986 2.5662160567097168 10.69275074146211
  endloop
endfacet
facet normal -0.0 0.748517805384113 0.6631146922086338
  outer loop
    vertex 56.999999999999986 1.296716056709925 12.125750741462113
    vertex 52.499999999999986 2.5662160567097168 10.69275074146211
    vertex 52.499999999999986 1.296716056709925 12.125750741462113
  endloop
endfacet
facet normal -1.5238495184631455e-17 0.35463534037443106 0.9350046926927754
  outer loop
    vertex 56.999999999999986 4.356416056709829 10.013750741462161
    vertex 52.499999999999986 4.356416056709829 10.013750741462161
    vertex 56.999999999999986 2.5662160567097168 10.69275074146211
  endloop
endfacet
facet normal 1.523849518463146e-17 0.3546353403744313 0.9350046926927754
  outer loop
    vertex 56.999999999999986 2.5662160567097168 10.69275074146211
    vertex 52.499999999999986 4.356416056709829 10.013750741462161
    vertex 52.499999999999986 2.5662160567097168 10.69275074146211
  endloop
endfacet
facet normal -0.0 4.2299602987226e-15 1.0
  outer loop
    vertex 56.999999999999986 24.3563660567098 10.013750741462076
    vertex 52.499999999999986 24.3563660567098 10.013750741462076
    vertex 56.999999999999986 4.356416056709829 10.013750741462161
  endloop
endfacet
facet normal 1.900175584085076e-30 4.2299602987226e-15 1.0
  outer loop
    vertex 56.999999999999986 4.356416056709829 10.013750741462161
    vertex 52.499999999999986 24.3563660567098 10.013750741462076
    vertex 52.499999999999986 4.356416056709829 10.013750741462161
  endloop
endfacet
facet normal -0.0 -0.12065581370085118 0.9926944014248218
  outer loop
    vertex 56.999999999999986 26.2569160567099 10.244750741462108
    vertex 52.499999999999986 24.3563660567098 10.013750741462076
    vertex 56.999999999999986 24.3563660567098 10.013750741462076
  endloop
endfacet
facet normal 7.17725497334017e-18 -0.12065581370085121 0.9926944014248218
  outer loop
    vertex 56.999999999999986 26.2569160567099 10.244750741462108
    vertex 52.499999999999986 26.2569160567099 10.244750741462108
    vertex 52.499999999999986 24.3563660567098 10.013750741462076
  endloop
endfacet
facet normal -3.4626119883619496e-17 -0.5682210299450372 0.8228759694681825
  outer loop
    vertex 56.999999999999986 27.83251605670988 11.332750741462114
    vertex 52.499999999999986 26.2569160567099 10.244750741462108
    vertex 56.999999999999986 26.2569160567099 10.244750741462108
  endloop
endfacet
facet normal 3.4626119883619496e-17 -0.5682210299450373 0.8228759694681824
  outer loop
    vertex 56.999999999999986 27.83251605670988 11.332750741462114
    vertex 52.499999999999986 27.83251605670988 11.332750741462114
    vertex 52.499999999999986 26.2569160567099 10.244750741462108
  endloop
endfacet
facet normal 1.6096757066632588e-17 -0.8854140263591125 0.46480318622675676
  outer loop
    vertex 56.999999999999986 28.722316056709868 13.027750741462059
    vertex 52.499999999999986 27.83251605670988 11.332750741462114
    vertex 56.999999999999986 27.83251605670988 11.332750741462114
  endloop
endfacet
facet normal 3.219351413326516e-17 -0.8854140263591125 0.46480318622675665
  outer loop
    vertex 52.499999999999986 28.722316056709868 13.027750741462059
    vertex 52.499999999999986 27.83251605670988 11.332750741462114
    vertex 56.999999999999986 28.722316056709868 13.027750741462059
  endloop
endfacet
facet normal -1.962987615125618e-30 -1.0 -6.485477033314079e-15
  outer loop
    vertex 56.999999999999986 28.72231605670978 26.94175074146215
    vertex 52.499999999999986 28.722316056709868 13.027750741462059
    vertex 56.999999999999986 28.722316056709868 13.027750741462059
  endloop
endfacet
facet normal -3.925975230251236e-30 -1.0 -6.485477033314079e-15
  outer loop
    vertex 52.499999999999986 28.72231605670978 26.94175074146215
    vertex 52.499999999999986 28.722316056709868 13.027750741462059
    vertex 56.999999999999986 28.72231605670978 26.94175074146215
  endloop
endfacet
facet normal -1.6096757066632474e-17 -0.8854140263591239 -0.46480318622673455
  outer loop
    vertex 56.999999999999986 27.832516056709835 28.636750741462112
    vertex 52.499999999999986 28.72231605670978 26.94175074146215
    vertex 56.999999999999986 28.72231605670978 26.94175074146215
  endloop
endfacet
facet normal 1.6096757066632477e-17 -0.8854140263591239 -0.46480318622673455
  outer loop
    vertex 52.499999999999986 27.832516056709835 28.636750741462112
    vertex 52.499999999999986 28.72231605670978 26.94175074146215
    vertex 56.999999999999986 27.832516056709835 28.636750741462112
  endloop
endfacet
facet normal 0.0 -0.5682210299450032 -0.8228759694682058
  outer loop
    vertex 56.999999999999986 26.25691605670986 29.724750741462024
    vertex 52.499999999999986 27.832516056709835 28.636750741462112
    vertex 56.999999999999986 27.832516056709835 28.636750741462112
  endloop
endfacet
facet normal -3.462611988362049e-17 -0.5682210299450035 -0.8228759694682058
  outer loop
    vertex 56.999999999999986 26.25691605670986 29.724750741462024
    vertex 52.499999999999986 26.25691605670986 29.724750741462024
    vertex 52.499999999999986 27.832516056709835 28.636750741462112
  endloop
endfacet
facet normal 0.0 -0.12065581370089029 -0.9926944014248172
  outer loop
    vertex 56.999999999999986 24.35636605670982 29.955750741462122
    vertex 52.499999999999986 26.25691605670986 29.724750741462024
    vertex 56.999999999999986 26.25691605670986 29.724750741462024
  endloop
endfacet
facet normal 0.0 -0.12065581370089028 -0.9926944014248172
  outer loop
    vertex 56.999999999999986 24.35636605670982 29.955750741462122
    vertex 52.499999999999986 24.35636605670982 29.955750741462122
    vertex 52.499999999999986 26.25691605670986 29.724750741462024
  endloop
endfacet
facet normal 0.0 -3.981129151831963e-14 -1.0
  outer loop
    vertex 56.999999999999986 -6.011483943290228 21.456750741462123
    vertex 52.499999999999986 -4.311483943290074 21.456750741462056
    vertex 56.999999999999986 -4.311483943290074 21.456750741462056
  endloop
endfacet
facet normal 2.054677858151686e-30 -3.9811291518319616e-14 -1.0
  outer loop
    vertex 56.999999999999986 -6.011483943290228 21.456750741462123
    vertex 52.499999999999986 -6.011483943290228 21.456750741462123
    vertex 52.499999999999986 -4.311483943290074 21.456750741462056
  endloop
endfacet
facet normal -0.0 0.8659896344269166 -0.5000619492274289
  outer loop
    vertex 56.999999999999986 -6.011483943290228 21.456750741462123
    vertex 56.999999999999986 -6.861483943290125 19.984750741462094
    vertex 52.499999999999986 -6.861483943290125 19.984750741462094
  endloop
endfacet
facet normal 2.0875095494671524e-17 0.8659896344269166 -0.5000619492274289
  outer loop
    vertex 56.999999999999986 -6.011483943290228 21.456750741462123
    vertex 52.499999999999986 -6.861483943290125 19.984750741462094
    vertex 52.499999999999986 -6.011483943290228 21.456750741462123
  endloop
endfacet
facet normal 2.0875095494673068e-17 0.8659896344268679 0.5000619492275128
  outer loop
    vertex 56.999999999999986 -6.861483943290125 19.984750741462094
    vertex 56.999999999999986 -6.011483943290092 18.51275074146216
    vertex 52.499999999999986 -6.011483943290092 18.51275074146216
  endloop
endfacet
facet normal -0.0 0.8659896344268679 0.5000619492275129
  outer loop
    vertex 56.999999999999986 -6.861483943290125 19.984750741462094
    vertex 52.499999999999986 -6.011483943290092 18.51275074146216
    vertex 52.499999999999986 -6.861483943290125 19.984750741462094
  endloop
endfacet
facet normal -0.0 3.981129151832544e-14 1.0
  outer loop
    vertex 56.999999999999986 -4.311483943290186 18.512750741462092
    vertex 52.499999999999986 -4.311483943290186 18.512750741462092
    vertex 56.999999999999986 -6.011483943290092 18.51275074146216
  endloop
endfacet
facet normal 2.0546778581522876e-30 3.9811291518325454e-14 1.0
  outer loop
    vertex 56.999999999999986 -6.011483943290092 18.51275074146216
    vertex 52.499999999999986 -4.311483943290186 18.512750741462092
    vertex 52.499999999999986 -6.011483943290092 18.51275074146216
  endloop
endfacet
facet normal 0.0 -0.8659896344268584 0.5000619492275292
  outer loop
    vertex 56.999999999999986 -3.4614839432901086 19.98475074146204
    vertex 52.499999999999986 -4.311483943290186 18.512750741462092
    vertex 56.999999999999986 -4.311483943290186 18.512750741462092
  endloop
endfacet
facet normal 0.0 -0.8659896344268584 0.5000619492275292
  outer loop
    vertex 52.499999999999986 -3.4614839432901086 19.98475074146204
    vertex 52.499999999999986 -4.311483943290186 18.512750741462092
    vertex 56.999999999999986 -3.4614839432901086 19.98475074146204
  endloop
endfacet
facet normal 0.0 -0.8659896344268972 -0.5000619492274622
  outer loop
    vertex 56.999999999999986 -4.311483943290074 21.456750741462056
    vertex 52.499999999999986 -3.4614839432901086 19.98475074146204
    vertex 56.999999999999986 -3.4614839432901086 19.98475074146204
  endloop
endfacet
facet normal 2.0875095494671453e-17 -0.8659896344268972 -0.5000619492274623
  outer loop
    vertex 52.499999999999986 -4.311483943290074 21.456750741462056
    vertex 52.499999999999986 -3.4614839432901086 19.98475074146204
    vertex 56.999999999999986 -4.311483943290074 21.456750741462056
  endloop
endfacet
facet normal 0.0 -2.98584686387421e-14 -1.0
  outer loop
    vertex 56.999999999999986 33.98851605670989 21.456750741462155
    vertex 52.499999999999986 35.68851605670991 21.456750741462105
    vertex 56.999999999999986 35.68851605670991 21.456750741462105
  endloop
endfacet
facet normal 2.054677858152014e-30 -2.9858468638742104e-14 -1.0
  outer loop
    vertex 56.999999999999986 33.98851605670989 21.456750741462155
    vertex 52.499999999999986 33.98851605670989 21.456750741462155
    vertex 52.499999999999986 35.68851605670991 21.456750741462105
  endloop
endfacet
facet normal -2.0875095494670196e-17 0.8659896344268717 -0.5000619492275062
  outer loop
    vertex 56.999999999999986 33.98851605670989 21.456750741462155
    vertex 56.999999999999986 33.13851605670981 19.98475074146212
    vertex 52.499999999999986 33.13851605670981 19.98475074146212
  endloop
endfacet
facet normal -2.0875095494670196e-17 0.8659896344268717 -0.5000619492275062
  outer loop
    vertex 56.999999999999986 33.98851605670989 21.456750741462155
    vertex 52.499999999999986 33.13851605670981 19.98475074146212
    vertex 52.499999999999986 33.98851605670989 21.456750741462155
  endloop
endfacet
facet normal -2.087509549467265e-17 0.8659896344268836 0.5000619492274858
  outer loop
    vertex 56.999999999999986 33.13851605670981 19.98475074146212
    vertex 56.999999999999986 33.9885160567098 18.512750741462156
    vertex 52.499999999999986 33.9885160567098 18.512750741462156
  endloop
endfacet
facet normal -2.087509549467265e-17 0.8659896344268836 0.5000619492274858
  outer loop
    vertex 56.999999999999986 33.13851605670981 19.98475074146212
    vertex 52.499999999999986 33.9885160567098 18.512750741462156
    vertex 52.499999999999986 33.13851605670981 19.98475074146212
  endloop
endfacet
facet normal -2.0546778581516864e-30 4.64465067713729e-14 1.0
  outer loop
    vertex 56.999999999999986 35.68851605670996 18.512750741462078
    vertex 52.499999999999986 35.68851605670996 18.512750741462078
    vertex 56.999999999999986 33.9885160567098 18.512750741462156
  endloop
endfacet
facet normal -2.0546778581516864e-30 4.64465067713729e-14 1.0
  outer loop
    vertex 56.999999999999986 33.9885160567098 18.512750741462156
    vertex 52.499999999999986 35.68851605670996 18.512750741462078
    vertex 52.499999999999986 33.9885160567098 18.512750741462156
  endloop
endfacet
facet normal 0.0 -0.865989634426911 0.5000619492274381
  outer loop
    vertex 56.999999999999986 36.53851605670987 19.98475074146209
    vertex 52.499999999999986 35.68851605670996 18.512750741462078
    vertex 56.999999999999986 35.68851605670996 18.512750741462078
  endloop
endfacet
facet normal 2.087509549467187e-17 -0.8659896344269112 0.500061949227438
  outer loop
    vertex 52.499999999999986 36.53851605670987 19.98475074146209
    vertex 52.499999999999986 35.68851605670996 18.512750741462078
    vertex 56.999999999999986 36.53851605670987 19.98475074146209
  endloop
endfacet
facet normal 0.0 -0.8659896344269 -0.5000619492274573
  outer loop
    vertex 56.999999999999986 35.68851605670991 21.456750741462105
    vertex 52.499999999999986 36.53851605670987 19.98475074146209
    vertex 56.999999999999986 36.53851605670987 19.98475074146209
  endloop
endfacet
facet normal 0.0 -0.8659896344269 -0.5000619492274572
  outer loop
    vertex 52.499999999999986 35.68851605670991 21.456750741462105
    vertex 52.499999999999986 36.53851605670987 19.98475074146209
    vertex 56.999999999999986 35.68851605670991 21.456750741462105
  endloop
endfacet
facet normal 2.861436039615641e-17 -0.30885972400180606 -0.9511076021615684
  outer loop
    vertex 54.99999999999999 17.374996056709882 48.91135074146212
    vertex 52.499999999999986 19.05204605670986 48.36675074146209
    vertex 54.99999999999999 19.05204605670986 48.36675074146209
  endloop
endfacet
facet normal 2.86143603961564e-17 -0.30885972400180606 -0.9511076021615684
  outer loop
    vertex 54.99999999999999 17.374996056709882 48.91135074146212
    vertex 52.499999999999986 17.374996056709882 48.91135074146212
    vertex 52.499999999999986 19.05204605670986 48.36675074146209
  endloop
endfacet
facet normal 3.36356963609904e-17 0.8090184965559557 -0.5877831847121361
  outer loop
    vertex 54.99999999999999 17.374996056709882 48.91135074146212
    vertex 54.99999999999999 16.338516056709857 47.484750741462115
    vertex 52.499999999999986 16.338516056709857 47.484750741462115
  endloop
endfacet
facet normal -3.36356963609904e-17 0.8090184965559557 -0.5877831847121361
  outer loop
    vertex 54.99999999999999 17.374996056709882 48.91135074146212
    vertex 52.499999999999986 16.338516056709857 47.484750741462115
    vertex 52.499999999999986 17.374996056709882 48.91135074146212
  endloop
endfacet
facet normal -1.5457150692575096e-30 -1.0 2.5577927279346477e-14
  outer loop
    vertex 54.99999999999999 19.05204605670986 48.36675074146209
    vertex 52.499999999999986 19.052046056709813 46.602750741462124
    vertex 54.99999999999999 19.052046056709813 46.602750741462124
  endloop
endfacet
facet normal -1.5457150692575092e-30 -1.0 2.557792727934647e-14
  outer loop
    vertex 52.499999999999986 19.05204605670986 48.36675074146209
    vertex 52.499999999999986 19.052046056709813 46.602750741462124
    vertex 54.99999999999999 19.05204605670986 48.36675074146209
  endloop
endfacet
facet normal -0.0 -0.30906491451958407 0.951040944761582
  outer loop
    vertex 54.99999999999999 19.052046056709813 46.602750741462124
    vertex 52.499999999999986 17.37499605670979 46.05775074146211
    vertex 54.99999999999999 17.37499605670979 46.05775074146211
  endloop
endfacet
facet normal -2.861235498807912e-17 -0.30906491451958407 0.951040944761582
  outer loop
    vertex 54.99999999999999 19.052046056709813 46.602750741462124
    vertex 52.499999999999986 19.052046056709813 46.602750741462124
    vertex 52.499999999999986 17.37499605670979 46.05775074146211
  endloop
endfacet
facet normal -0.0 0.8090968451119804 0.587675331479755
  outer loop
    vertex 54.99999999999999 16.338516056709857 47.484750741462115
    vertex 54.99999999999999 17.37499605670979 46.05775074146211
    vertex 52.499999999999986 17.37499605670979 46.05775074146211
  endloop
endfacet
facet normal -0.0 0.8090968451119804 0.587675331479755
  outer loop
    vertex 54.99999999999999 16.338516056709857 47.484750741462115
    vertex 52.499999999999986 17.37499605670979 46.05775074146211
    vertex 52.499999999999986 16.338516056709857 47.484750741462115
  endloop
endfacet
facet normal 1.0 -0.0 -0.0
  outer loop
    vertex -9.900000000000011 39.83851605670988 27.48475074146206
    vertex -9.900000000000011 36.83851605670993 14.484750741462145
    vertex -9.900000000000011 39.83851605670988 14.484750741462095
  endloop
endfacet
facet normal 1.0 -0.0 -0.0
  outer loop
    vertex -9.900000000000011 39.83851605670988 27.48475074146206
    vertex -9.900000000000011 36.83851605670993 27.48475074146206
    vertex -9.900000000000011 36.83851605670993 14.484750741462145
  endloop
endfacet
facet normal 0.0 0.0 -1.0
  outer loop
    vertex 9.89999999999999 36.83851605670993 27.48475074146206
    vertex -9.900000000000011 39.83851605670988 27.48475074146206
    vertex 9.89999999999999 39.83851605670988 27.48475074146206
  endloop
endfacet
facet normal 0.0 0.0 -1.0
  outer loop
    vertex 9.89999999999999 36.83851605670993 27.48475074146206
    vertex -9.900000000000011 36.83851605670993 27.48475074146206
    vertex -9.900000000000011 39.83851605670988 27.48475074146206
  endloop
endfacet
facet normal -1.0 0.0 0.0
  outer loop
    vertex 9.89999999999999 39.83851605670988 14.484750741462095
    vertex 9.89999999999999 36.83851605670993 14.484750741462145
    vertex 9.89999999999999 39.83851605670988 27.48475074146206
  endloop
endfacet
facet normal -1.0 0.0 0.0
  outer loop
    vertex 9.89999999999999 39.83851605670988 27.48475074146206
    vertex 9.89999999999999 36.83851605670993 14.484750741462145
    vertex 9.89999999999999 36.83851605670993 27.48475074146206
  endloop
endfacet
facet normal -0.0 1.691979889528767e-14 1.0
  outer loop
    vertex 9.89999999999999 39.83851605670988 14.484750741462095
    vertex -9.900000000000011 39.83851605670988 14.484750741462095
    vertex 9.89999999999999 36.83851605670993 14.484750741462145
  endloop
endfacet
facet normal -2.7263631818455763e-31 1.6919798895287667e-14 1.0
  outer loop
    vertex 9.89999999999999 36.83851605670993 14.484750741462145
    vertex -9.900000000000011 39.83851605670988 14.484750741462095
    vertex -9.900000000000011 36.83851605670993 14.484750741462145
  endloop
endfacet
endsolid cover_flipped
