solid OpenSCAD_Model
  facet normal 0 0 -1
    outer loop
      vertex -5 5 0
      vertex -4.6194 6.91342 0
      vertex -4.6194 3.08658 0
    endloop
  endfacet
  facet normal 0 0 -1
    outer loop
      vertex -4.6194 3.08658 0
      vertex -4.6194 6.91342 0
      vertex 47.7125 106.82 0
    endloop
  endfacet
  facet normal 0 0 -1
    outer loop
      vertex 47.7125 106.82 0
      vertex 47.2325 108.085 0
      vertex 47 110 0
    endloop
  endfacet
  facet normal 0 0 -1
    outer loop
      vertex 47.7125 106.82 0
      vertex 47 110 0
      vertex 47.2325 111.915 0
    endloop
  endfacet
  facet normal 0 0 -1
    outer loop
      vertex 47.7125 106.82 0
      vertex 47.2325 111.915 0
      vertex 47.9164 113.718 0
    endloop
  endfacet
  facet normal 0 0 -1
    outer loop
      vertex 47.7125 106.82 0
      vertex 47.9164 113.718 0
      vertex 49.0119 115.305 0
    endloop
  endfacet
  facet normal 0 0 -1
    outer loop
      vertex 47.7125 106.82 0
      vertex 49.0119 115.305 0
      vertex 50.4555 116.584 0
    endloop
  endfacet
  facet normal 0 0 -1
    outer loop
      vertex 47.7125 106.82 0
      vertex 50.4555 116.584 0
      vertex 52.1632 117.48 0
    endloop
  endfacet
  facet normal 0 0 -1
    outer loop
      vertex 47.7125 106.82 0
      vertex 52.1632 117.48 0
      vertex 54.0357 117.942 0
    endloop
  endfacet
  facet normal 0 0 -1
    outer loop
      vertex 47.7125 106.82 0
      vertex 54.0357 117.942 0
      vertex -4.6194 3.08658 0
    endloop
  endfacet
  facet normal 0 0 -1
    outer loop
      vertex 52.006 112.652 0
      vertex 54.0357 117.942 0
      vertex 55.9643 117.942 0
    endloop
  endfacet
  facet normal 0 0 -1
    outer loop
      vertex 55.4821 113.971 0
      vertex 55.9643 117.942 0
      vertex 57.8368 117.48 0
    endloop
  endfacet
  facet normal 0 0 -1
    outer loop
      vertex 57.2723 113.292 0
      vertex 57.8368 117.48 0
      vertex 59.5445 116.584 0
    endloop
  endfacet
  facet normal 0 0 -1
    outer loop
      vertex 58.5418 111.859 0
      vertex 59.5445 116.584 0
      vertex 60.9881 115.305 0
    endloop
  endfacet
  facet normal 0 0 -1
    outer loop
      vertex 59 110 0
      vertex 60.9881 115.305 0
      vertex 62.0836 113.718 0
    endloop
  endfacet
  facet normal 0 0 -1
    outer loop
      vertex -4.6194 3.08658 0
      vertex 62.0836 113.718 0
      vertex 62.7675 111.915 0
    endloop
  endfacet
  facet normal 0 0 -1
    outer loop
      vertex 55 99.2677 0
      vertex 62.7675 111.915 0
      vertex 63 110 0
    endloop
  endfacet
  facet normal 0 0 -1
    outer loop
      vertex 101.759 10 0
      vertex 62.2875 106.82 0
      vertex 114.619 6.91342 0
    endloop
  endfacet
  facet normal 0 0 -1
    outer loop
      vertex -4.6194 3.08658 0
      vertex 114.619 6.91342 0
      vertex 115 5 0
    endloop
  endfacet
  facet normal 0 0 -1
    outer loop
      vertex -4.6194 3.08658 0
      vertex 115 5 0
      vertex 114.619 3.08658 0
    endloop
  endfacet
  facet normal 0 0 -1
    outer loop
      vertex -4.6194 3.08658 0
      vertex 114.619 3.08658 0
      vertex 113.536 1.46447 0
    endloop
  endfacet
  facet normal 0 0 -1
    outer loop
      vertex -4.6194 3.08658 0
      vertex 113.536 1.46447 0
      vertex 111.913 0.380602 0
    endloop
  endfacet
  facet normal 0 0 -1
    outer loop
      vertex -4.6194 3.08658 0
      vertex 111.913 0.380602 0
      vertex 110 0 0
    endloop
  endfacet
  facet normal 0 0 -1
    outer loop
      vertex -4.6194 3.08658 0
      vertex 110 0 0
      vertex 0 0 0
    endloop
  endfacet
  facet normal 0 0 -1
    outer loop
      vertex -4.6194 3.08658 0
      vertex 0 0 0
      vertex -1.91342 0.380602 0
    endloop
  endfacet
  facet normal 0 0 -1
    outer loop
      vertex -4.6194 3.08658 0
      vertex -1.91342 0.380602 0
      vertex -3.53553 1.46447 0
    endloop
  endfacet
  facet normal 0 0 -1
    outer loop
      vertex -4.6194 3.08658 0
      vertex 62.7675 111.915 0
      vertex 55 99.2677 0
    endloop
  endfacet
  facet normal 0 0 -1
    outer loop
      vertex 52.006 107.348 0
      vertex -4.6194 3.08658 0
      vertex 51.1162 109.043 0
    endloop
  endfacet
  facet normal 0 0 -1
    outer loop
      vertex -4.6194 3.08658 0
      vertex 8.24071 10 0
      vertex 114.619 6.91342 0
    endloop
  endfacet
  facet normal 0 0 -1
    outer loop
      vertex 8.24071 10 0
      vertex 101.759 10 0
      vertex 114.619 6.91342 0
    endloop
  endfacet
  facet normal 0 0 -1
    outer loop
      vertex -4.6194 3.08658 0
      vertex 54.0357 117.942 0
      vertex 51.1162 110.957 0
    endloop
  endfacet
  facet normal 0 0 -1
    outer loop
      vertex -4.6194 3.08658 0
      vertex 51.1162 110.957 0
      vertex 51.1162 109.043 0
    endloop
  endfacet
  facet normal 0 0 -1
    outer loop
      vertex 53.5816 106.26 0
      vertex -4.6194 3.08658 0
      vertex 52.006 107.348 0
    endloop
  endfacet
  facet normal 0 0 -1
    outer loop
      vertex 55.4821 106.029 0
      vertex -4.6194 3.08658 0
      vertex 53.5816 106.26 0
    endloop
  endfacet
  facet normal 0 0 -1
    outer loop
      vertex 57.2723 106.708 0
      vertex -4.6194 3.08658 0
      vertex 55.4821 106.029 0
    endloop
  endfacet
  facet normal 0 0 -1
    outer loop
      vertex 59 110 0
      vertex 62.0836 113.718 0
      vertex 58.5418 108.141 0
    endloop
  endfacet
  facet normal 0 0 -1
    outer loop
      vertex -4.6194 3.08658 0
      vertex 57.2723 106.708 0
      vertex 58.5418 108.141 0
    endloop
  endfacet
  facet normal 0 0 -1
    outer loop
      vertex -4.6194 3.08658 0
      vertex 58.5418 108.141 0
      vertex 62.0836 113.718 0
    endloop
  endfacet
  facet normal 0 0 -1
    outer loop
      vertex 58.5418 111.859 0
      vertex 60.9881 115.305 0
      vertex 59 110 0
    endloop
  endfacet
  facet normal 0 0 -1
    outer loop
      vertex 57.2723 113.292 0
      vertex 59.5445 116.584 0
      vertex 58.5418 111.859 0
    endloop
  endfacet
  facet normal 0 0 -1
    outer loop
      vertex 55.4821 113.971 0
      vertex 57.8368 117.48 0
      vertex 57.2723 113.292 0
    endloop
  endfacet
  facet normal 0 0 -1
    outer loop
      vertex 53.5816 113.74 0
      vertex 55.9643 117.942 0
      vertex 55.4821 113.971 0
    endloop
  endfacet
  facet normal 0 0 -1
    outer loop
      vertex 52.006 112.652 0
      vertex 55.9643 117.942 0
      vertex 53.5816 113.74 0
    endloop
  endfacet
  facet normal 0 0 -1
    outer loop
      vertex 51.1162 110.957 0
      vertex 54.0357 117.942 0
      vertex 52.006 112.652 0
    endloop
  endfacet
  facet normal 0 0 -1
    outer loop
      vertex 55 99.2677 0
      vertex 63 110 0
      vertex 62.7675 108.085 0
    endloop
  endfacet
  facet normal 0 0 -1
    outer loop
      vertex 55 99.2677 0
      vertex 62.7675 108.085 0
      vertex 62.2875 106.82 0
    endloop
  endfacet
  facet normal 0 0 -1
    outer loop
      vertex 55 99.2677 0
      vertex 62.2875 106.82 0
      vertex 101.759 10 0
    endloop
  endfacet
  facet normal 0 0 -1
    outer loop
      vertex 8.24071 10 0
      vertex -4.6194 3.08658 0
      vertex 55 99.2677 0
    endloop
  endfacet
  facet normal -0.980785 0.19509 0
    outer loop
      vertex -5 5 0
      vertex -5 5 5
      vertex -4.6194 6.91342 0
    endloop
  endfacet
  facet normal -0.980785 0.19509 0
    outer loop
      vertex -4.6194 6.91342 0
      vertex -5 5 5
      vertex -4.6194 6.91342 5
    endloop
  endfacet
  facet normal -0.980785 -0.19509 0
    outer loop
      vertex -5 5 0
      vertex -4.6194 3.08658 0
      vertex -5 5 5
    endloop
  endfacet
  facet normal -0.980785 -0.19509 0
    outer loop
      vertex -5 5 5
      vertex -4.6194 3.08658 0
      vertex -4.6194 3.08658 5
    endloop
  endfacet
  facet normal -0.83147 -0.55557 0
    outer loop
      vertex -4.6194 3.08658 0
      vertex -3.53553 1.46447 0
      vertex -4.6194 3.08658 5
    endloop
  endfacet
  facet normal -0.83147 -0.55557 0
    outer loop
      vertex -4.6194 3.08658 5
      vertex -3.53553 1.46447 0
      vertex -3.53553 1.46447 5
    endloop
  endfacet
  facet normal -0.55557 -0.83147 0
    outer loop
      vertex -3.53553 1.46447 5
      vertex -3.53553 1.46447 0
      vertex -1.91342 0.380602 0
    endloop
  endfacet
  facet normal -0.55557 -0.83147 0
    outer loop
      vertex -1.91342 0.380602 5
      vertex -3.53553 1.46447 5
      vertex -1.91342 0.380602 0
    endloop
  endfacet
  facet normal -0.19509 -0.980785 0
    outer loop
      vertex -1.91342 0.380602 5
      vertex -1.91342 0.380602 0
      vertex 0 0 0
    endloop
  endfacet
  facet normal -0.19509 -0.980785 0
    outer loop
      vertex 0 0 5
      vertex -1.91342 0.380602 5
      vertex 0 0 0
    endloop
  endfacet
  facet normal 0 -1 0
    outer loop
      vertex 0 0 5
      vertex 0 0 0
      vertex 110 0 0
    endloop
  endfacet
  facet normal 0 -1 0
    outer loop
      vertex 110 0 20
      vertex 0 0 5
      vertex 110 0 5
    endloop
  endfacet
  facet normal 0 -1 0
    outer loop
      vertex 110 0 5
      vertex 0 0 5
      vertex 110 0 0
    endloop
  endfacet
  facet normal 0 -1 0
    outer loop
      vertex 0 0 20
      vertex 0 0 5
      vertex 110 0 20
    endloop
  endfacet
  facet normal 0.19509 -0.980785 0
    outer loop
      vertex 110 0 5
      vertex 110 0 0
      vertex 111.913 0.380602 0
    endloop
  endfacet
  facet normal 0.19509 -0.980785 0
    outer loop
      vertex 111.913 0.380602 5
      vertex 110 0 5
      vertex 111.913 0.380602 0
    endloop
  endfacet
  facet normal 0.55557 -0.83147 0
    outer loop
      vertex 111.913 0.380602 5
      vertex 111.913 0.380602 0
      vertex 113.536 1.46447 0
    endloop
  endfacet
  facet normal 0.55557 -0.83147 0
    outer loop
      vertex 113.536 1.46447 5
      vertex 111.913 0.380602 5
      vertex 113.536 1.46447 0
    endloop
  endfacet
  facet normal 0.83147 -0.55557 0
    outer loop
      vertex 113.536 1.46447 5
      vertex 113.536 1.46447 0
      vertex 114.619 3.08658 0
    endloop
  endfacet
  facet normal 0.83147 -0.55557 0
    outer loop
      vertex 114.619 3.08658 5
      vertex 113.536 1.46447 5
      vertex 114.619 3.08658 0
    endloop
  endfacet
  facet normal 0.980785 -0.19509 0
    outer loop
      vertex 114.619 3.08658 5
      vertex 114.619 3.08658 0
      vertex 115 5 0
    endloop
  endfacet
  facet normal 0.980785 -0.19509 0
    outer loop
      vertex 115 5 5
      vertex 114.619 3.08658 5
      vertex 115 5 0
    endloop
  endfacet
  facet normal 0.980785 0.19509 0
    outer loop
      vertex 115 5 0
      vertex 114.619 6.91342 0
      vertex 114.619 6.91342 5
    endloop
  endfacet
  facet normal 0.980785 0.19509 0
    outer loop
      vertex 115 5 5
      vertex 115 5 0
      vertex 114.619 6.91342 5
    endloop
  endfacet
  facet normal 0.885832 0.464007 0
    outer loop
      vertex 114.619 6.91342 0
      vertex 62.2875 106.82 0
      vertex 62.2875 106.82 5
    endloop
  endfacet
  facet normal 0.885832 0.464007 0
    outer loop
      vertex 114.619 6.91342 5
      vertex 114.619 6.91342 0
      vertex 62.2875 106.82 5
    endloop
  endfacet
  facet normal 0.935016 -0.354605 0
    outer loop
      vertex 62.0836 106.282 10
      vertex 62.0836 106.282 5
      vertex 62.2875 106.82 5
    endloop
  endfacet
  facet normal 0.935016 -0.354605 0
    outer loop
      vertex 62.7675 108.085 0
      vertex 62.0836 106.282 10
      vertex 62.2875 106.82 5
    endloop
  endfacet
  facet normal 0.935016 -0.354605 0
    outer loop
      vertex 62.2875 106.82 0
      vertex 62.7675 108.085 0
      vertex 62.2875 106.82 5
    endloop
  endfacet
  facet normal 0.935016 -0.354605 0
    outer loop
      vertex 62.7675 108.085 0
      vertex 62.7675 108.085 10
      vertex 62.0836 106.282 10
    endloop
  endfacet
  facet normal 0.992709 -0.120536 0
    outer loop
      vertex 62.7675 108.085 10
      vertex 62.7675 108.085 0
      vertex 63 110 0
    endloop
  endfacet
  facet normal 0.992709 -0.120536 0
    outer loop
      vertex 63 110 10
      vertex 62.7675 108.085 10
      vertex 63 110 0
    endloop
  endfacet
  facet normal 0.992709 0.120536 0
    outer loop
      vertex 63 110 0
      vertex 62.7675 111.915 0
      vertex 62.7675 111.915 10
    endloop
  endfacet
  facet normal 0.992709 0.120536 0
    outer loop
      vertex 63 110 10
      vertex 63 110 0
      vertex 62.7675 111.915 10
    endloop
  endfacet
  facet normal 0.935016 0.354605 0
    outer loop
      vertex 62.7675 111.915 0
      vertex 62.0836 113.718 0
      vertex 62.0836 113.718 10
    endloop
  endfacet
  facet normal 0.935016 0.354605 0
    outer loop
      vertex 62.7675 111.915 10
      vertex 62.7675 111.915 0
      vertex 62.0836 113.718 10
    endloop
  endfacet
  facet normal 0.822984 0.568065 0
    outer loop
      vertex 62.0836 113.718 0
      vertex 60.9881 115.305 0
      vertex 60.9881 115.305 10
    endloop
  endfacet
  facet normal 0.822984 0.568065 0
    outer loop
      vertex 62.0836 113.718 10
      vertex 62.0836 113.718 0
      vertex 60.9881 115.305 10
    endloop
  endfacet
  facet normal 0.663123 0.748511 0
    outer loop
      vertex 59.5445 116.584 0
      vertex 59.5445 116.584 10
      vertex 60.9881 115.305 0
    endloop
  endfacet
  facet normal 0.663123 0.748511 0
    outer loop
      vertex 60.9881 115.305 0
      vertex 59.5445 116.584 10
      vertex 60.9881 115.305 10
    endloop
  endfacet
  facet normal 0.464723 0.885456 0
    outer loop
      vertex 57.8368 117.48 0
      vertex 57.8368 117.48 10
      vertex 59.5445 116.584 0
    endloop
  endfacet
  facet normal 0.464723 0.885456 0
    outer loop
      vertex 59.5445 116.584 0
      vertex 57.8368 117.48 10
      vertex 59.5445 116.584 10
    endloop
  endfacet
  facet normal 0.239316 0.970942 0
    outer loop
      vertex 55.9643 117.942 0
      vertex 55.9643 117.942 10
      vertex 57.8368 117.48 0
    endloop
  endfacet
  facet normal 0.239316 0.970942 0
    outer loop
      vertex 57.8368 117.48 0
      vertex 55.9643 117.942 10
      vertex 57.8368 117.48 10
    endloop
  endfacet
  facet normal 0 1 0
    outer loop
      vertex 54.0357 117.942 0
      vertex 54.0357 117.942 10
      vertex 55.9643 117.942 0
    endloop
  endfacet
  facet normal 0 1 0
    outer loop
      vertex 55.9643 117.942 0
      vertex 54.0357 117.942 10
      vertex 55.9643 117.942 10
    endloop
  endfacet
  facet normal -0.239316 0.970942 0
    outer loop
      vertex 52.1632 117.48 0
      vertex 52.1632 117.48 10
      vertex 54.0357 117.942 0
    endloop
  endfacet
  facet normal -0.239316 0.970942 0
    outer loop
      vertex 54.0357 117.942 0
      vertex 52.1632 117.48 10
      vertex 54.0357 117.942 10
    endloop
  endfacet
  facet normal -0.464723 0.885456 0
    outer loop
      vertex 50.4555 116.584 0
      vertex 50.4555 116.584 10
      vertex 52.1632 117.48 0
    endloop
  endfacet
  facet normal -0.464723 0.885456 0
    outer loop
      vertex 52.1632 117.48 0
      vertex 50.4555 116.584 10
      vertex 52.1632 117.48 10
    endloop
  endfacet
  facet normal -0.663123 0.748511 0
    outer loop
      vertex 49.0119 115.305 0
      vertex 49.0119 115.305 10
      vertex 50.4555 116.584 0
    endloop
  endfacet
  facet normal -0.663123 0.748511 0
    outer loop
      vertex 50.4555 116.584 0
      vertex 49.0119 115.305 10
      vertex 50.4555 116.584 10
    endloop
  endfacet
  facet normal -0.822984 0.568065 0
    outer loop
      vertex 47.9164 113.718 0
      vertex 47.9164 113.718 10
      vertex 49.0119 115.305 0
    endloop
  endfacet
  facet normal -0.822984 0.568065 0
    outer loop
      vertex 49.0119 115.305 0
      vertex 47.9164 113.718 10
      vertex 49.0119 115.305 10
    endloop
  endfacet
  facet normal -0.935016 0.354605 0
    outer loop
      vertex 47.2325 111.915 0
      vertex 47.2325 111.915 10
      vertex 47.9164 113.718 0
    endloop
  endfacet
  facet normal -0.935016 0.354605 0
    outer loop
      vertex 47.9164 113.718 0
      vertex 47.2325 111.915 10
      vertex 47.9164 113.718 10
    endloop
  endfacet
  facet normal -0.992709 0.120536 0
    outer loop
      vertex 47 110 0
      vertex 47 110 10
      vertex 47.2325 111.915 0
    endloop
  endfacet
  facet normal -0.992709 0.120536 0
    outer loop
      vertex 47.2325 111.915 0
      vertex 47 110 10
      vertex 47.2325 111.915 10
    endloop
  endfacet
  facet normal -0.992709 -0.120536 0
    outer loop
      vertex 47 110 0
      vertex 47.2325 108.085 0
      vertex 47 110 10
    endloop
  endfacet
  facet normal -0.992709 -0.120536 0
    outer loop
      vertex 47 110 10
      vertex 47.2325 108.085 0
      vertex 47.2325 108.085 10
    endloop
  endfacet
  facet normal -0.935016 -0.354605 0
    outer loop
      vertex 47.2325 108.085 0
      vertex 47.7125 106.82 0
      vertex 47.2325 108.085 10
    endloop
  endfacet
  facet normal -0.935016 -0.354605 0
    outer loop
      vertex 47.2325 108.085 10
      vertex 47.7125 106.82 0
      vertex 47.7125 106.82 5
    endloop
  endfacet
  facet normal -0.935016 -0.354605 0
    outer loop
      vertex 47.2325 108.085 10
      vertex 47.7125 106.82 5
      vertex 47.9164 106.282 5
    endloop
  endfacet
  facet normal -0.935016 -0.354605 0
    outer loop
      vertex 47.2325 108.085 10
      vertex 47.9164 106.282 5
      vertex 47.9164 106.282 10
    endloop
  endfacet
  facet normal -0.885832 0.464007 0
    outer loop
      vertex -4.6194 6.91342 0
      vertex -4.6194 6.91342 5
      vertex 47.7125 106.82 0
    endloop
  endfacet
  facet normal -0.885832 0.464007 0
    outer loop
      vertex 47.7125 106.82 0
      vertex -4.6194 6.91342 5
      vertex 47.7125 106.82 5
    endloop
  endfacet
  facet normal 0.885832 -0.464007 0
    outer loop
      vertex 8.24071 10 5
      vertex 8.24071 10 0
      vertex 55 99.2677 0
    endloop
  endfacet
  facet normal 0.885832 -0.464007 0
    outer loop
      vertex 55 99.2677 5
      vertex 8.24071 10 5
      vertex 55 99.2677 0
    endloop
  endfacet
  facet normal -0.885832 -0.464007 0
    outer loop
      vertex 55 99.2677 0
      vertex 101.759 10 0
      vertex 55 99.2677 5
    endloop
  endfacet
  facet normal -0.885832 -0.464007 0
    outer loop
      vertex 55 99.2677 5
      vertex 101.759 10 0
      vertex 101.759 10 5
    endloop
  endfacet
  facet normal 0 1 0
    outer loop
      vertex 0 10 5
      vertex 0 10 10
      vertex 8.24071 10 5
    endloop
  endfacet
  facet normal 0 1 0
    outer loop
      vertex 8.24071 10 5
      vertex 0 10 10
      vertex 110 10 10
    endloop
  endfacet
  facet normal 0 1 0
    outer loop
      vertex 101.759 10 5
      vertex 110 10 10
      vertex 110 10 5
    endloop
  endfacet
  facet normal 0 1 0
    outer loop
      vertex 8.24071 10 5
      vertex 110 10 10
      vertex 101.759 10 5
    endloop
  endfacet
  facet normal 0 1 0
    outer loop
      vertex 101.759 10 5
      vertex 101.759 10 0
      vertex 8.24071 10 5
    endloop
  endfacet
  facet normal 0 1 0
    outer loop
      vertex 8.24071 10 5
      vertex 101.759 10 0
      vertex 8.24071 10 0
    endloop
  endfacet
  facet normal 0.885456 -0.464723 0
    outer loop
      vertex 52.006 112.652 0
      vertex 52.006 112.652 10
      vertex 51.1162 110.957 10
    endloop
  endfacet
  facet normal 0.885456 -0.464723 0
    outer loop
      vertex 51.1162 110.957 0
      vertex 52.006 112.652 0
      vertex 51.1162 110.957 10
    endloop
  endfacet
  facet normal 1 0 0
    outer loop
      vertex 51.1162 110.957 0
      vertex 51.1162 110.957 10
      vertex 51.1162 109.043 10
    endloop
  endfacet
  facet normal 1 0 0
    outer loop
      vertex 51.1162 109.043 0
      vertex 51.1162 110.957 0
      vertex 51.1162 109.043 10
    endloop
  endfacet
  facet normal 0.568065 -0.822984 0
    outer loop
      vertex 53.5816 113.74 0
      vertex 53.5816 113.74 10
      vertex 52.006 112.652 10
    endloop
  endfacet
  facet normal 0.568065 -0.822984 0
    outer loop
      vertex 52.006 112.652 0
      vertex 53.5816 113.74 0
      vertex 52.006 112.652 10
    endloop
  endfacet
  facet normal 0.120536 -0.992709 0
    outer loop
      vertex 55.4821 113.971 0
      vertex 55.4821 113.971 10
      vertex 53.5816 113.74 10
    endloop
  endfacet
  facet normal 0.120536 -0.992709 0
    outer loop
      vertex 53.5816 113.74 0
      vertex 55.4821 113.971 0
      vertex 53.5816 113.74 10
    endloop
  endfacet
  facet normal -0.354605 -0.935016 0
    outer loop
      vertex 57.2723 113.292 0
      vertex 57.2723 113.292 10
      vertex 55.4821 113.971 10
    endloop
  endfacet
  facet normal -0.354605 -0.935016 0
    outer loop
      vertex 55.4821 113.971 0
      vertex 57.2723 113.292 0
      vertex 55.4821 113.971 10
    endloop
  endfacet
  facet normal -0.748511 -0.663123 0
    outer loop
      vertex 58.5418 111.859 10
      vertex 57.2723 113.292 10
      vertex 58.5418 111.859 0
    endloop
  endfacet
  facet normal -0.748511 -0.663123 0
    outer loop
      vertex 58.5418 111.859 0
      vertex 57.2723 113.292 10
      vertex 57.2723 113.292 0
    endloop
  endfacet
  facet normal -0.970942 -0.239316 0
    outer loop
      vertex 59 110 10
      vertex 58.5418 111.859 10
      vertex 59 110 0
    endloop
  endfacet
  facet normal -0.970942 -0.239316 0
    outer loop
      vertex 59 110 0
      vertex 58.5418 111.859 10
      vertex 58.5418 111.859 0
    endloop
  endfacet
  facet normal -0.970942 0.239316 0
    outer loop
      vertex 59 110 10
      vertex 59 110 0
      vertex 58.5418 108.141 10
    endloop
  endfacet
  facet normal -0.970942 0.239316 0
    outer loop
      vertex 58.5418 108.141 10
      vertex 59 110 0
      vertex 58.5418 108.141 0
    endloop
  endfacet
  facet normal -0.748511 0.663123 0
    outer loop
      vertex 58.5418 108.141 10
      vertex 58.5418 108.141 0
      vertex 57.2723 106.708 10
    endloop
  endfacet
  facet normal -0.748511 0.663123 0
    outer loop
      vertex 57.2723 106.708 10
      vertex 58.5418 108.141 0
      vertex 57.2723 106.708 0
    endloop
  endfacet
  facet normal -0.354605 0.935016 0
    outer loop
      vertex 57.2723 106.708 10
      vertex 57.2723 106.708 0
      vertex 55.4821 106.029 10
    endloop
  endfacet
  facet normal -0.354605 0.935016 0
    outer loop
      vertex 55.4821 106.029 10
      vertex 57.2723 106.708 0
      vertex 55.4821 106.029 0
    endloop
  endfacet
  facet normal 0.120536 0.992709 0
    outer loop
      vertex 55.4821 106.029 10
      vertex 55.4821 106.029 0
      vertex 53.5816 106.26 10
    endloop
  endfacet
  facet normal 0.120536 0.992709 0
    outer loop
      vertex 53.5816 106.26 10
      vertex 55.4821 106.029 0
      vertex 53.5816 106.26 0
    endloop
  endfacet
  facet normal 0.568065 0.822984 0
    outer loop
      vertex 53.5816 106.26 10
      vertex 53.5816 106.26 0
      vertex 52.006 107.348 10
    endloop
  endfacet
  facet normal 0.568065 0.822984 0
    outer loop
      vertex 52.006 107.348 10
      vertex 53.5816 106.26 0
      vertex 52.006 107.348 0
    endloop
  endfacet
  facet normal 0.885456 0.464723 0
    outer loop
      vertex 51.1162 109.043 10
      vertex 52.006 107.348 10
      vertex 52.006 107.348 0
    endloop
  endfacet
  facet normal 0.885456 0.464723 0
    outer loop
      vertex 51.1162 109.043 0
      vertex 51.1162 109.043 10
      vertex 52.006 107.348 0
    endloop
  endfacet
  facet normal 0 0 1
    outer loop
      vertex -4.6194 6.91342 5
      vertex -5 5 5
      vertex -4.6194 3.08658 5
    endloop
  endfacet
  facet normal 0 0 1
    outer loop
      vertex -1.91342 0.380602 5
      vertex -4.6194 6.91342 5
      vertex -3.53553 1.46447 5
    endloop
  endfacet
  facet normal 0 0 1
    outer loop
      vertex -3.53553 1.46447 5
      vertex -4.6194 6.91342 5
      vertex -4.6194 3.08658 5
    endloop
  endfacet
  facet normal 0 0 1
    outer loop
      vertex 0 0 5
      vertex -4.6194 6.91342 5
      vertex -1.91342 0.380602 5
    endloop
  endfacet
  facet normal 0 0 1
    outer loop
      vertex 0 10 5
      vertex -4.6194 6.91342 5
      vertex 0 0 5
    endloop
  endfacet
  facet normal 0 0 1
    outer loop
      vertex 55 99.2677 5
      vertex -4.6194 6.91342 5
      vertex 0 10 5
    endloop
  endfacet
  facet normal 0 0 1
    outer loop
      vertex 55 99.2677 5
      vertex 0 10 5
      vertex 8.24071 10 5
    endloop
  endfacet
  facet normal 0 0 1
    outer loop
      vertex 55.9643 102.058 5
      vertex -4.6194 6.91342 5
      vertex 55 99.2677 5
    endloop
  endfacet
  facet normal 0 0 1
    outer loop
      vertex 110 10 5
      vertex 55 99.2677 5
      vertex 101.759 10 5
    endloop
  endfacet
  facet normal 0 0 1
    outer loop
      vertex 114.619 3.08658 5
      vertex 55 99.2677 5
      vertex 110 10 5
    endloop
  endfacet
  facet normal 0 0 1
    outer loop
      vertex 111.913 0.380602 5
      vertex 110 10 5
      vertex 110 0 5
    endloop
  endfacet
  facet normal 0 0 1
    outer loop
      vertex 113.536 1.46447 5
      vertex 110 10 5
      vertex 111.913 0.380602 5
    endloop
  endfacet
  facet normal 0 0 1
    outer loop
      vertex 114.619 3.08658 5
      vertex 110 10 5
      vertex 113.536 1.46447 5
    endloop
  endfacet
  facet normal 0 0 1
    outer loop
      vertex 115 5 5
      vertex 55 99.2677 5
      vertex 114.619 3.08658 5
    endloop
  endfacet
  facet normal 0 0 1
    outer loop
      vertex 114.619 6.91342 5
      vertex 55 99.2677 5
      vertex 115 5 5
    endloop
  endfacet
  facet normal 0 0 1
    outer loop
      vertex 60.9881 104.695 5
      vertex 55 99.2677 5
      vertex 114.619 6.91342 5
    endloop
  endfacet
  facet normal 0 0 1
    outer loop
      vertex 62.2875 106.82 5
      vertex 62.0836 106.282 5
      vertex 114.619 6.91342 5
    endloop
  endfacet
  facet normal 0 0 1
    outer loop
      vertex 62.0836 106.282 5
      vertex 60.9881 104.695 5
      vertex 114.619 6.91342 5
    endloop
  endfacet
  facet normal 0 0 1
    outer loop
      vertex 59.5445 103.416 5
      vertex 55 99.2677 5
      vertex 60.9881 104.695 5
    endloop
  endfacet
  facet normal 0 0 1
    outer loop
      vertex 55.9643 102.058 5
      vertex 55 99.2677 5
      vertex 57.8368 102.52 5
    endloop
  endfacet
  facet normal 0 0 1
    outer loop
      vertex 54.0357 102.058 5
      vertex -4.6194 6.91342 5
      vertex 55.9643 102.058 5
    endloop
  endfacet
  facet normal 0 0 1
    outer loop
      vertex 52.1632 102.52 5
      vertex -4.6194 6.91342 5
      vertex 54.0357 102.058 5
    endloop
  endfacet
  facet normal 0 0 1
    outer loop
      vertex 50.4555 103.416 5
      vertex -4.6194 6.91342 5
      vertex 52.1632 102.52 5
    endloop
  endfacet
  facet normal 0 0 1
    outer loop
      vertex 49.0119 104.695 5
      vertex -4.6194 6.91342 5
      vertex 50.4555 103.416 5
    endloop
  endfacet
  facet normal 0 0 1
    outer loop
      vertex 47.9164 106.282 5
      vertex -4.6194 6.91342 5
      vertex 49.0119 104.695 5
    endloop
  endfacet
  facet normal 0 0 1
    outer loop
      vertex 47.7125 106.82 5
      vertex -4.6194 6.91342 5
      vertex 47.9164 106.282 5
    endloop
  endfacet
  facet normal 0 0 1
    outer loop
      vertex 59.5445 103.416 5
      vertex 57.8368 102.52 5
      vertex 55 99.2677 5
    endloop
  endfacet
  facet normal -1 0 0
    outer loop
      vertex 0 10 10
      vertex 0 10 5
      vertex 0 2 10
    endloop
  endfacet
  facet normal -1 0 0
    outer loop
      vertex 0 0 5
      vertex 0 0 20
      vertex 0 2 10
    endloop
  endfacet
  facet normal -1 0 0
    outer loop
      vertex 0 0 5
      vertex 0 2 10
      vertex 0 10 5
    endloop
  endfacet
  facet normal -1 0 0
    outer loop
      vertex 0 2 10
      vertex 0 0 20
      vertex 0 2 20
    endloop
  endfacet
  facet normal 0 0 1
    outer loop
      vertex 0 2 20
      vertex 0 0 20
      vertex 110 0 20
    endloop
  endfacet
  facet normal 0 0 1
    outer loop
      vertex 110 2 20
      vertex 0 2 20
      vertex 110 0 20
    endloop
  endfacet
  facet normal 1 0 0
    outer loop
      vertex 110 2 10
      vertex 110 0 5
      vertex 110 10 5
    endloop
  endfacet
  facet normal 1 0 0
    outer loop
      vertex 110 2 10
      vertex 110 2 20
      vertex 110 0 20
    endloop
  endfacet
  facet normal 1 0 0
    outer loop
      vertex 110 0 20
      vertex 110 0 5
      vertex 110 2 10
    endloop
  endfacet
  facet normal 1 0 0
    outer loop
      vertex 110 10 10
      vertex 110 2 10
      vertex 110 10 5
    endloop
  endfacet
  facet normal 0 0 1
    outer loop
      vertex 47.2325 111.915 10
      vertex 47 110 10
      vertex 47.2325 108.085 10
    endloop
  endfacet
  facet normal 0 0 1
    outer loop
      vertex 49.0119 104.695 10
      vertex 47.2325 111.915 10
      vertex 47.9164 106.282 10
    endloop
  endfacet
  facet normal 0 0 1
    outer loop
      vertex 47.9164 106.282 10
      vertex 47.2325 111.915 10
      vertex 47.2325 108.085 10
    endloop
  endfacet
  facet normal 0 0 1
    outer loop
      vertex 50.4555 103.416 10
      vertex 47.2325 111.915 10
      vertex 49.0119 104.695 10
    endloop
  endfacet
  facet normal 0 0 1
    outer loop
      vertex 52.1632 102.52 10
      vertex 47.2325 111.915 10
      vertex 50.4555 103.416 10
    endloop
  endfacet
  facet normal 0 0 1
    outer loop
      vertex 54.0357 102.058 10
      vertex 47.2325 111.915 10
      vertex 52.1632 102.52 10
    endloop
  endfacet
  facet normal 0 0 1
    outer loop
      vertex 55.9643 102.058 10
      vertex 47.2325 111.915 10
      vertex 54.0357 102.058 10
    endloop
  endfacet
  facet normal 0 0 1
    outer loop
      vertex 52.006 107.348 10
      vertex 47.2325 111.915 10
      vertex 55.9643 102.058 10
    endloop
  endfacet
  facet normal 0 0 1
    outer loop
      vertex 51.1162 110.957 10
      vertex 52.006 112.652 10
      vertex 47.2325 111.915 10
    endloop
  endfacet
  facet normal 0 0 1
    outer loop
      vertex 57.2723 106.708 10
      vertex 55.4821 106.029 10
      vertex 59.5445 103.416 10
    endloop
  endfacet
  facet normal 0 0 1
    outer loop
      vertex 57.2723 113.292 10
      vertex 62.7675 111.915 10
      vertex 62.0836 113.718 10
    endloop
  endfacet
  facet normal 0 0 1
    outer loop
      vertex 55.4821 113.971 10
      vertex 57.2723 113.292 10
      vertex 60.9881 115.305 10
    endloop
  endfacet
  facet normal 0 0 1
    outer loop
      vertex 57.8368 117.48 10
      vertex 47.2325 111.915 10
      vertex 59.5445 116.584 10
    endloop
  endfacet
  facet normal 0 0 1
    outer loop
      vertex 55.9643 117.942 10
      vertex 47.2325 111.915 10
      vertex 57.8368 117.48 10
    endloop
  endfacet
  facet normal 0 0 1
    outer loop
      vertex 54.0357 117.942 10
      vertex 47.2325 111.915 10
      vertex 55.9643 117.942 10
    endloop
  endfacet
  facet normal 0 0 1
    outer loop
      vertex 52.1632 117.48 10
      vertex 47.2325 111.915 10
      vertex 54.0357 117.942 10
    endloop
  endfacet
  facet normal 0 0 1
    outer loop
      vertex 50.4555 116.584 10
      vertex 47.2325 111.915 10
      vertex 52.1632 117.48 10
    endloop
  endfacet
  facet normal 0 0 1
    outer loop
      vertex 49.0119 115.305 10
      vertex 47.2325 111.915 10
      vertex 50.4555 116.584 10
    endloop
  endfacet
  facet normal 0 0 1
    outer loop
      vertex 47.9164 113.718 10
      vertex 47.2325 111.915 10
      vertex 49.0119 115.305 10
    endloop
  endfacet
  facet normal 0 0 1
    outer loop
      vertex 58.5418 108.141 10
      vertex 57.2723 106.708 10
      vertex 62.0836 106.282 10
    endloop
  endfacet
  facet normal 0 0 1
    outer loop
      vertex 58.5418 111.859 10
      vertex 59 110 10
      vertex 63 110 10
    endloop
  endfacet
  facet normal 0 0 1
    outer loop
      vertex 57.2723 113.292 10
      vertex 58.5418 111.859 10
      vertex 62.7675 111.915 10
    endloop
  endfacet
  facet normal 0 0 1
    outer loop
      vertex 59.5445 116.584 10
      vertex 53.5816 113.74 10
      vertex 60.9881 115.305 10
    endloop
  endfacet
  facet normal 0 0 1
    outer loop
      vertex 59.5445 116.584 10
      vertex 47.2325 111.915 10
      vertex 53.5816 113.74 10
    endloop
  endfacet
  facet normal 0 0 1
    outer loop
      vertex 53.5816 113.74 10
      vertex 55.4821 113.971 10
      vertex 60.9881 115.305 10
    endloop
  endfacet
  facet normal 0 0 1
    outer loop
      vertex 60.9881 115.305 10
      vertex 57.2723 113.292 10
      vertex 62.0836 113.718 10
    endloop
  endfacet
  facet normal 0 0 1
    outer loop
      vertex 62.7675 111.915 10
      vertex 58.5418 111.859 10
      vertex 63 110 10
    endloop
  endfacet
  facet normal 0 0 1
    outer loop
      vertex 52.006 112.652 10
      vertex 53.5816 113.74 10
      vertex 47.2325 111.915 10
    endloop
  endfacet
  facet normal 0 0 1
    outer loop
      vertex 63 110 10
      vertex 59 110 10
      vertex 62.7675 108.085 10
    endloop
  endfacet
  facet normal 0 0 1
    outer loop
      vertex 62.7675 108.085 10
      vertex 58.5418 108.141 10
      vertex 62.0836 106.282 10
    endloop
  endfacet
  facet normal 0 0 1
    outer loop
      vertex 62.0836 106.282 10
      vertex 57.2723 106.708 10
      vertex 60.9881 104.695 10
    endloop
  endfacet
  facet normal 0 0 1
    outer loop
      vertex 59 110 10
      vertex 58.5418 108.141 10
      vertex 62.7675 108.085 10
    endloop
  endfacet
  facet normal 0 0 1
    outer loop
      vertex 59.5445 103.416 10
      vertex 55.4821 106.029 10
      vertex 57.8368 102.52 10
    endloop
  endfacet
  facet normal 0 0 1
    outer loop
      vertex 57.8368 102.52 10
      vertex 53.5816 106.26 10
      vertex 55.9643 102.058 10
    endloop
  endfacet
  facet normal 0 0 1
    outer loop
      vertex 53.5816 106.26 10
      vertex 52.006 107.348 10
      vertex 55.9643 102.058 10
    endloop
  endfacet
  facet normal 0 0 1
    outer loop
      vertex 52.006 107.348 10
      vertex 51.1162 109.043 10
      vertex 47.2325 111.915 10
    endloop
  endfacet
  facet normal 0 0 1
    outer loop
      vertex 57.2723 106.708 10
      vertex 59.5445 103.416 10
      vertex 60.9881 104.695 10
    endloop
  endfacet
  facet normal 0 0 1
    outer loop
      vertex 55.4821 106.029 10
      vertex 53.5816 106.26 10
      vertex 57.8368 102.52 10
    endloop
  endfacet
  facet normal 0 0 1
    outer loop
      vertex 51.1162 109.043 10
      vertex 51.1162 110.957 10
      vertex 47.2325 111.915 10
    endloop
  endfacet
  facet normal 0.822984 -0.568065 0
    outer loop
      vertex 60.9881 104.695 10
      vertex 60.9881 104.695 5
      vertex 62.0836 106.282 5
    endloop
  endfacet
  facet normal 0.822984 -0.568065 0
    outer loop
      vertex 62.0836 106.282 10
      vertex 60.9881 104.695 10
      vertex 62.0836 106.282 5
    endloop
  endfacet
  facet normal -0.822984 -0.568065 0
    outer loop
      vertex 47.9164 106.282 5
      vertex 49.0119 104.695 5
      vertex 47.9164 106.282 10
    endloop
  endfacet
  facet normal -0.822984 -0.568065 0
    outer loop
      vertex 47.9164 106.282 10
      vertex 49.0119 104.695 5
      vertex 49.0119 104.695 10
    endloop
  endfacet
  facet normal 0 0 1
    outer loop
      vertex 0 10 10
      vertex 0 2 10
      vertex 110 2 10
    endloop
  endfacet
  facet normal 0 0 1
    outer loop
      vertex 110 10 10
      vertex 0 10 10
      vertex 110 2 10
    endloop
  endfacet
  facet normal -0.663123 -0.748511 0
    outer loop
      vertex 49.0119 104.695 10
      vertex 49.0119 104.695 5
      vertex 50.4555 103.416 5
    endloop
  endfacet
  facet normal -0.663123 -0.748511 0
    outer loop
      vertex 50.4555 103.416 10
      vertex 49.0119 104.695 10
      vertex 50.4555 103.416 5
    endloop
  endfacet
  facet normal -0.464723 -0.885456 0
    outer loop
      vertex 50.4555 103.416 10
      vertex 50.4555 103.416 5
      vertex 52.1632 102.52 5
    endloop
  endfacet
  facet normal -0.464723 -0.885456 0
    outer loop
      vertex 52.1632 102.52 10
      vertex 50.4555 103.416 10
      vertex 52.1632 102.52 5
    endloop
  endfacet
  facet normal -0.239316 -0.970942 0
    outer loop
      vertex 52.1632 102.52 10
      vertex 52.1632 102.52 5
      vertex 54.0357 102.058 5
    endloop
  endfacet
  facet normal -0.239316 -0.970942 0
    outer loop
      vertex 54.0357 102.058 10
      vertex 52.1632 102.52 10
      vertex 54.0357 102.058 5
    endloop
  endfacet
  facet normal 0 -1 0
    outer loop
      vertex 54.0357 102.058 10
      vertex 54.0357 102.058 5
      vertex 55.9643 102.058 5
    endloop
  endfacet
  facet normal 0 -1 0
    outer loop
      vertex 55.9643 102.058 10
      vertex 54.0357 102.058 10
      vertex 55.9643 102.058 5
    endloop
  endfacet
  facet normal 0.239316 -0.970942 0
    outer loop
      vertex 55.9643 102.058 10
      vertex 55.9643 102.058 5
      vertex 57.8368 102.52 5
    endloop
  endfacet
  facet normal 0.239316 -0.970942 0
    outer loop
      vertex 57.8368 102.52 10
      vertex 55.9643 102.058 10
      vertex 57.8368 102.52 5
    endloop
  endfacet
  facet normal 0.464723 -0.885456 0
    outer loop
      vertex 57.8368 102.52 10
      vertex 57.8368 102.52 5
      vertex 59.5445 103.416 5
    endloop
  endfacet
  facet normal 0.464723 -0.885456 0
    outer loop
      vertex 59.5445 103.416 10
      vertex 57.8368 102.52 10
      vertex 59.5445 103.416 5
    endloop
  endfacet
  facet normal 0.663123 -0.748511 0
    outer loop
      vertex 59.5445 103.416 10
      vertex 59.5445 103.416 5
      vertex 60.9881 104.695 5
    endloop
  endfacet
  facet normal 0.663123 -0.748511 0
    outer loop
      vertex 60.9881 104.695 10
      vertex 59.5445 103.416 10
      vertex 60.9881 104.695 5
    endloop
  endfacet
  facet normal 0 1 0
    outer loop
      vertex 0 2 10
      vertex 0 2 20
      vertex 110 2 10
    endloop
  endfacet
  facet normal 0 1 0
    outer loop
      vertex 110 2 10
      vertex 0 2 20
      vertex 110 2 20
    endloop
  endfacet
endsolid OpenSCAD_Model
