solid MLCH10009-A-005_P01 - layingdownss
facet normal -0.09481995766661347 -0.931434016927829 0.3513400741984758
  outer loop
    vertex 3.379133310214663 211.25192232720073 45.82725508692866
    vertex 2.3295163222342588 209.80890496509235 41.718415240677075
    vertex 3.9086114250171216 209.66820402435107 41.77157196758867
  endloop
endfacet
facet normal -0.24353773064886194 0.19533115791869884 -0.9500184800815943
  outer loop
    vertex -10.615002830047523 172.18735246076434 1.8928860435962984
    vertex -10.672344780860007 167.23549261870141 0.8894449440636563
    vertex -11.313876782565421 167.21702746953065 1.050105428112538
  endloop
endfacet
facet normal 0.08017715034775813 -0.006371063224592029 -0.9967602691296946
  outer loop
    vertex 12.498231216545694 6.003231102498024 0.0014535874839093131
    vertex 12.410649096078602 5.037897914232932 0.0005788675615464367
    vertex 11.798736379029899 5.142375846388938 -0.04930981175878952
  endloop
endfacet
facet normal 0.24778578141810173 0.966546977367668 -0.06625063824934527
  outer loop
    vertex 12.46172100827116 216.2559337644666 41.66327083365406
    vertex 13.55096610070664 215.96985154981206 41.5634611768304
    vertex 13.169362249801644 216.03509403535918 41.088053210666835
  endloop
endfacet
facet normal 0.07809950760742564 -0.018545633857504722 -0.9967730566063177
  outer loop
    vertex 12.410649096078602 5.037897914232932 0.0005788675615464367
    vertex 11.585093462714932 4.297080133503032 -0.05032193961359366
    vertex 11.798736379029899 5.142375846388938 -0.04930981175878952
  endloop
endfacet
facet normal 0.07809965440505322 -0.01854579844715741 -0.9967730420420533
  outer loop
    vertex 12.410649096078602 5.037897914232932 0.0005788675615464367
    vertex 12.173133572185263 4.098154483478227 -0.0005463515462978741
    vertex 11.585093462714932 4.297080133503032 -0.05032193961359366
  endloop
endfacet
facet normal 0.24908350367512422 0.967008150653787 -0.053410156019875706
  outer loop
    vertex 12.786437784141441 216.2013725078959 42.18977018354594
    vertex 13.55096610070664 215.96985154981206 41.5634611768304
    vertex 12.46172100827116 216.2559337644666 41.66327083365406
  endloop
endfacet
facet normal 0.21492993351578654 0.976124521142834 -0.0314013200769149
  outer loop
    vertex 12.786437784141441 216.2013725078959 42.18977018354594
    vertex 12.46172100827116 216.2559337644666 41.66327083365406
    vertex 11.921556736929217 216.38586495337336 42.00502553058093
  endloop
endfacet
facet normal 0.21317973097044735 0.976752013185359 -0.02258112135647811
  outer loop
    vertex 12.200965712377169 216.33777234226392 42.562560973460606
    vertex 12.786437784141441 216.2013725078959 42.18977018354594
    vertex 11.921556736929217 216.38586495337336 42.00502553058093
  endloop
endfacet
facet normal 0.17668265225675306 0.9842611288999872 -0.00364287359676655
  outer loop
    vertex 12.200965712377169 216.33777234226392 42.562560973460606
    vertex 11.921556736929217 216.38586495337336 42.00502553058093
    vertex 11.10296822521493 216.534252110147 42.395190340298925
  endloop
endfacet
facet normal 0.0741431543430894 -0.030245483119260716 -0.9967888459523107
  outer loop
    vertex 12.173133572185263 4.098154483478227 -0.0005463515462978741
    vertex 11.241845476405503 3.4956101623409186 -0.05153447519565008
    vertex 11.585093462714932 4.297080133503032 -0.05032193961359366
  endloop
endfacet
facet normal 0.07414319195343252 -0.030245541636515563 -0.9967888413791912
  outer loop
    vertex 12.173133572185263 4.098154483478227 -0.0005463515462978741
    vertex 11.791532620875946 3.2071331312400067 -0.0018943694199045511
    vertex 11.241845476405503 3.4956101623409186 -0.05153447519565008
  endloop
endfacet
facet normal 0.46487827956249916 0.8690499492733604 -0.1692346621085072
  outer loop
    vertex 15.600156410239453 214.92885248247248 39.657744847460286
    vertex 15.973015389180718 214.53496833698563 38.659303074953236
    vertex 15.149110565347847 215.10768321683526 39.337074276346996
  endloop
endfacet
facet normal 0.6875571130285247 0.6730227247848033 -0.27259058723132673
  outer loop
    vertex 16.70924686446468 213.57794172331648 37.164276561848936
    vertex 17.097233720841277 213.26333309095122 37.366133729504384
    vertex 17.088726664863614 212.795733266971 36.19017825082004
  endloop
endfacet
facet normal 0.4027694801777188 0.6460438662355784 0.6483857406951177
  outer loop
    vertex 13.137436373790054 214.76661375247522 45.00338912242285
    vertex 13.028727944398783 215.23539857375368 44.60382586167519
    vertex 11.922888951060981 215.39693931430398 45.12980256122697
  endloop
endfacet
facet normal 0.6668841062829393 0.5970928626648583 0.4458090422388156
  outer loop
    vertex 14.701332072776356 214.85688995617932 43.3730703310315
    vertex 14.860509752951907 214.39892018913113 43.748337313945484
    vertex 15.717906928577756 214.12534072040637 42.83217778743955
  endloop
endfacet
facet normal 0.2808187632572116 0.9532764082241396 -0.11137733937374154
  outer loop
    vertex 13.169362249801644 216.03509403535918 41.088053210666835
    vertex 14.224260019873427 215.69460464974125 40.833554301235495
    vertex 13.795669621565255 215.77206833960565 40.41594765147516
  endloop
endfacet
facet normal 0.284357119534403 0.9537620023592206 -0.09736052293320657
  outer loop
    vertex 13.55096610070664 215.96985154981206 41.5634611768304
    vertex 14.224260019873427 215.69460464974125 40.833554301235495
    vertex 13.169362249801644 216.03509403535918 41.088053210666835
  endloop
endfacet
facet normal 0.2804211823248189 0.6467112597536279 0.7093155200694726
  outer loop
    vertex 12.000648729858176 214.92372503509762 45.53906109814625
    vertex 10.758729310414202 215.51191839162178 45.49376284410456
    vertex 10.805120247552805 215.03582338111303 45.909497442070304
  endloop
endfacet
facet normal 0.45247612962695566 0.8136459319442866 -0.3650282859564778
  outer loop
    vertex 15.80251056488751 214.04218911712283 36.820728694828084
    vertex 16.19313500342963 213.40914465854044 35.89388048225817
    vertex 15.811171822489827 213.58391748941895 35.8099800830529
  endloop
endfacet
facet normal 0.17531724626525913 0.9844961199971661 0.0055904268613372835
  outer loop
    vertex 11.311549647275918 216.49373783949642 42.98874460806834
    vertex 12.200965712377169 216.33777234226392 42.562560973460606
    vertex 11.10296822521493 216.534252110147 42.395190340298925
  endloop
endfacet
facet normal 0.41640234205764504 0.9083076892281263 -0.03982751835063083
  outer loop
    vertex 14.620755022707938 215.53145315349911 41.25812730876736
    vertex 15.092340467548697 215.28622916947813 40.59603366975931
    vertex 14.224260019873427 215.69460464974125 40.833554301235495
  endloop
endfacet
facet normal 0.6667076770482351 0.61283495796268 0.42418650103913796
  outer loop
    vertex 14.701332072776356 214.85688995617932 43.3730703310315
    vertex 15.717906928577756 214.12534072040637 42.83217778743955
    vertex 15.530981160254077 214.57517319068887 42.47608861942911
  endloop
endfacet
facet normal 0.4128172843943775 0.9091854905696399 -0.05443926379824697
  outer loop
    vertex 14.224260019873427 215.69460464974125 40.833554301235495
    vertex 15.092340467548697 215.28622916947813 40.59603366975931
    vertex 14.668326409156213 215.4559476760833 40.21515547638597
  endloop
endfacet
facet normal 0.06840469060561274 -0.04118184131808868 -0.9968073305553097
  outer loop
    vertex 11.791532620875946 3.2071331312400067 -0.0018943694199045511
    vertex 11.275245100027739 2.386776897885683 -0.0034319864235937024
    vertex 10.777447572078335 2.7577142379833313 -0.05291754602013947
  endloop
endfacet
facet normal 0.06840504229879323 -0.04118264138401046 -0.9968072733666906
  outer loop
    vertex 11.791532620875946 3.2071331312400067 -0.0018943694199045511
    vertex 10.777447572078335 2.7577142379833313 -0.05291754602013947
    vertex 11.241845476405503 3.4956101623409186 -0.05153447519565008
  endloop
endfacet
facet normal 0.061026480804635706 -0.05108614289025078 -0.9968279563922746
  outer loop
    vertex 11.275245100027739 2.386776897885683 -0.0034319864235937024
    vertex 10.203334360525597 2.1015409468567343 -0.05443711252460761
    vertex 10.777447572078335 2.7577142379833313 -0.05291754602013947
  endloop
endfacet
facet normal 0.06102634331956844 -0.051085619926656806 -0.9968279916102634
  outer loop
    vertex 11.275245100027739 2.386776897885683 -0.0034319864235937024
    vertex 10.636979398738113 1.6572759026624673 -0.005121356357106998
    vertex 10.203334360525597 2.1015409468567343 -0.05443711252460761
  endloop
endfacet
facet normal 0.042112546448791595 -0.06685442856310787 -0.9968736222877497
  outer loop
    vertex 9.892458189586334 1.0366226108863 -0.0069208476363227245
    vertex 8.784860562389447 1.0966058526500053 -0.057733609395553206
    vertex 9.533640638672894 1.5432543188913397 -0.05605575602892365
  endloop
endfacet
facet normal 0.05218958055548239 -0.05971518535222184 -0.9968502115763394
  outer loop
    vertex 10.636979398738113 1.6572759026624673 -0.005121356357106998
    vertex 9.892458189586334 1.0366226108863 -0.0069208476363227245
    vertex 9.533640638672894 1.5432543188913397 -0.05605575602892365
  endloop
endfacet
facet normal 0.05218943747944049 -0.05971375936114764 -0.9968503044883612
  outer loop
    vertex 10.636979398738113 1.6572759026624673 -0.005121356357106998
    vertex 9.533640638672894 1.5432543188913397 -0.05605575602892365
    vertex 10.203334360525597 2.1015409468567343 -0.05443711252460761
  endloop
endfacet
facet normal 0.042112514511873415 -0.06685498766183397 -0.9968735861413038
  outer loop
    vertex 9.892458189586334 1.0366226108863 -0.0069208476363227245
    vertex 9.060005639783686 0.5400678850611664 -0.008786189482467366
    vertex 8.784860562389447 1.0966058526500053 -0.057733609395553206
  endloop
endfacet
facet normal 0.031041607106172944 -0.07233040705838704 -0.9968975528323029
  outer loop
    vertex 9.060005639783686 0.5400678850611664 -0.008786189482467366
    vertex 7.9754239667593305 0.7725967047910911 -0.05942936962571163
    vertex 8.784860562389447 1.0966058526500053 -0.057733609395553206
  endloop
endfacet
facet normal 0.34057357260301513 0.892102816249847 -0.2969212132595288
  outer loop
    vertex 15.005249550033932 214.8400474155955 38.161344508976455
    vertex 15.655452280287 214.47964102686234 37.824293186418
    vertex 15.151289341366526 214.60551270997448 37.624192662647744
  endloop
endfacet
facet normal 0.031041671870629166 -0.07233010924508086 -0.9968975724236021
  outer loop
    vertex 9.060005639783686 0.5400678850611664 -0.008786189482467366
    vertex 8.160126475597496 0.179853241610407 -0.010671427522364052
    vertex 7.9754239667593305 0.7725967047910911 -0.05942936962571163
  endloop
endfacet
facet normal 0.286506597902445 0.9511925249222901 0.11465927738445496
  outer loop
    vertex 12.457376126889256 216.1939891256633 43.11465101584693
    vertex 13.085032821302118 216.05326157819619 42.71373454389443
    vertex 12.200965712377169 216.33777234226392 42.562560973460606
  endloop
endfacet
facet normal 0.01925070330852533 -0.07600621533201311 -0.9969214942276201
  outer loop
    vertex 8.160126475597496 0.179853241610407 -0.010671427522364052
    vertex 7.125269595006968 0.5792004790688423 -0.061101270984102424
    vertex 7.9754239667593305 0.7725967047910911 -0.05942936962571163
  endloop
endfacet
facet normal 0.4923659332103292 0.6279162104756773 0.6027412549641733
  outer loop
    vertex 13.137436373790054 214.76661375247522 45.00338912242285
    vertex 13.885168764499237 214.6299365094967 44.53496905402956
    vertex 13.028727944398783 215.23539857375368 44.60382586167519
  endloop
endfacet
facet normal 0.12790035495836233 0.9915264519993171 0.0227331077323559
  outer loop
    vertex 11.311549647275918 216.49373783949642 42.98874460806834
    vertex 11.10296822521493 216.534252110147 42.395190340298925
    vertex 10.244330078841994 216.63883408852573 42.66459150661026
  endloop
endfacet
facet normal 0.12599089158667212 0.9916058135809943 0.02905521828467146
  outer loop
    vertex 10.37673049492624 216.60387970687398 43.28340363911385
    vertex 11.311549647275918 216.49373783949642 42.98874460806834
    vertex 10.244330078841994 216.63883408852573 42.66459150661026
  endloop
endfacet
facet normal 0.019250537067279687 -0.07600664241825238 -0.9969214648762085
  outer loop
    vertex 8.160126475597496 0.179853241610407 -0.010671427522364052
    vertex 7.214977121420699 -0.035149547101941486 -0.012530142237006724
    vertex 7.125269595006968 0.5792004790688423 -0.061101270984102424
  endloop
endfacet
facet normal 0.007029112621535617 -0.07779305834329739 -0.9969447485439453
  outer loop
    vertex 7.214977121420699 -0.035149547101941486 -0.012530142237006724
    vertex 6.255327988382687 0.5211881908496016 -0.06270814459209047
    vertex 7.125269595006968 0.5792004790688423 -0.061101270984102424
  endloop
endfacet
facet normal 0.08719387706213272 0.9954824632980258 0.037575165588038514
  outer loop
    vertex 10.37673049492624 216.60387970687398 43.28340363911385
    vertex 10.244330078841994 216.63883408852573 42.66459150661026
    vertex 9.744358669871025 216.6789266927082 42.76260734071754
  endloop
endfacet
facet normal 0.007030295825025556 -0.07779103090473292 -0.9969448984028112
  outer loop
    vertex 7.214977121420699 -0.035149547101941486 -0.012530142237006724
    vertex 6.247827046696376 -0.09966044121266378 -0.014316582167538882
    vertex 6.255327988382687 0.5211881908496016 -0.06270814459209047
  endloop
endfacet
facet normal 0.4968631759636798 0.6356302623941589 0.590847826347883
  outer loop
    vertex 13.028727944398783 215.23539857375368 44.60382586167519
    vertex 13.885168764499237 214.6299365094967 44.53496905402956
    vertex 13.75521821148012 215.09474126068528 44.14421476642255
  endloop
endfacet
facet normal 0.33833435059854994 0.8771589732151481 -0.3407667866931939
  outer loop
    vertex 15.151289341366526 214.60551270997448 37.624192662647744
    vertex 15.80251056488751 214.04218911712283 36.820728694828084
    vertex 15.300471359013402 214.18324583130277 36.68536354798701
  endloop
endfacet
facet normal 0.8361687609257191 0.5173744328860498 -0.18205905483602333
  outer loop
    vertex 17.70682009705966 212.4979536341701 37.8114858431504
    vertex 17.709924130701292 212.0498571869428 36.55234413495603
    vertex 17.61074499588449 212.18673742916772 36.485815411153084
  endloop
endfacet
facet normal 0.7308576943882841 0.5837160137095418 0.3537267955534095
  outer loop
    vertex 15.530981160254077 214.57517319068887 42.47608861942911
    vertex 15.717906928577756 214.12534072040637 42.83217778743955
    vertex 16.28211899418445 213.88890956408173 42.05657898978676
  endloop
endfacet
facet normal 0.45351408161809825 0.8717643317415137 -0.18534273030622198
  outer loop
    vertex 15.149110565347847 215.10768321683526 39.337074276346996
    vertex 15.973015389180718 214.53496833698563 38.659303074953236
    vertex 15.505474785860677 214.7231505210761 38.400400385350494
  endloop
endfacet
facet normal 0.08519200266836327 0.9955606197675638 0.040017184425917805
  outer loop
    vertex 9.83183821497344 216.6461954837163 43.39067114456676
    vertex 10.37673049492624 216.60387970687398 43.28340363911385
    vertex 9.744358669871025 216.6789266927082 42.76260734071754
  endloop
endfacet
facet normal 0.23495242543416156 -0.020436038074455487 -0.9717920179392422
  outer loop
    vertex 12.53599101056325 6.002773227105764 0.010592489824456307
    vertex 12.410649096078602 5.037897914232932 0.0005788675615464367
    vertex 12.498231216545694 6.003231102498024 0.0014535874839093131
  endloop
endfacet
facet normal 0.8594184359925736 0.5087481080218265 -0.050747556200185354
  outer loop
    vertex 17.26564725398897 213.34185075463853 38.80028200135786
    vertex 17.52688432431949 212.92686381986377 39.06410035023562
    vertex 17.70682009705966 212.4979536341701 37.8114858431504
  endloop
endfacet
facet normal 0.8455971142650097 0.5320838678297497 0.04303809872684738
  outer loop
    vertex 17.08870166534328 213.5878912386939 39.5010147761706
    vertex 17.339669879781376 213.16614519767592 39.78416545443393
    vertex 17.52688432431949 212.92686381986377 39.06410035023562
  endloop
endfacet
facet normal 0.07714854106786596 0.6576250784944084 0.7493846533965871
  outer loop
    vertex 10.108076989457796 215.0795381356343 46.04435890352012
    vertex 8.741977528719131 215.60081346793987 45.727550773144074
    vertex 8.735523167496124 215.12322527022602 46.147324408934004
  endloop
endfacet
facet normal 0.7581707505456795 0.609078427809507 -0.2328101840429242
  outer loop
    vertex 17.431814085327066 212.90111406983414 37.58320226080726
    vertex 17.426498811234012 212.4410336706557 36.36222933509689
    vertex 17.21535326203117 212.66275381492622 36.25467638276176
  endloop
endfacet
facet normal 0.34606042397038467 0.893105902236861 -0.2874091688710015
  outer loop
    vertex 15.505474785860677 214.7231505210761 38.400400385350494
    vertex 15.655452280287 214.47964102686234 37.824293186418
    vertex 15.005249550033932 214.8400474155955 38.161344508976455
  endloop
endfacet
facet normal 0.23492241177811093 -0.020432062985970268 -0.971799357504672
  outer loop
    vertex 13.007319492980878 4.935927835822839 0.14696166421920245
    vertex 12.410649096078602 5.037897914232932 0.0005788675615464367
    vertex 12.53599101056325 6.002773227105764 0.010592489824456307
  endloop
endfacet
facet normal 0.2287421716532489 -0.05664980998891155 -0.9718373412951242
  outer loop
    vertex 13.007319492980878 4.935927835822839 0.14696166421920245
    vertex 12.173133572185263 4.098154483478227 -0.0005463515462978741
    vertex 12.410649096078602 5.037897914232932 0.0005788675615464367
  endloop
endfacet
facet normal 0.7788021114432062 0.5827579250960677 0.23207859002788295
  outer loop
    vertex 16.075343518083237 214.33170220488228 41.71769137418109
    vertex 16.891003713677257 213.5448551686816 40.95632628512532
    vertex 16.660482522868218 213.9775347682445 40.643427643637295
  endloop
endfacet
facet normal 0.04211758565716271 0.9980464044336446 0.04614632786566596
  outer loop
    vertex 9.83183821497344 216.6461954837163 43.39067114456676
    vertex 9.744358669871025 216.6789266927082 42.76260734071754
    vertex 8.760476760047258 216.716987071924 42.83742815844024
  endloop
endfacet
facet normal 0.4628747730841271 0.8532699425212183 -0.24016109100384025
  outer loop
    vertex 15.505474785860677 214.7231505210761 38.400400385350494
    vertex 16.127845046454297 214.28592014978358 38.04648776661844
    vertex 15.655452280287 214.47964102686234 37.824293186418
  endloop
endfacet
facet normal 0.5739641339654644 0.7804148207768503 -0.2480279831654305
  outer loop
    vertex 16.127845046454297 214.28592014978358 38.04648776661844
    vertex 16.70924686446468 213.57794172331648 37.164276561848936
    vertex 16.275003571953448 213.83917506535988 36.98135484904154
  endloop
endfacet
facet normal 0.9622926943869767 0.2659119249147249 -0.057302866574006864
  outer loop
    vertex 17.917188855829348 212.06133175879094 38.04677712931339
    vertex 18.059046568649222 211.59924842417286 38.284726337178775
    vertex 18.09535714901288 211.18528260971874 36.97349978168994
  endloop
endfacet
facet normal 0.452352113838616 0.8171814024409579 -0.35720039279144833
  outer loop
    vertex 16.275003571953448 213.83917506535988 36.98135484904154
    vertex 16.274093406607317 213.37210523810734 35.91166819863127
    vertex 16.19313500342963 213.40914465854044 35.89388048225817
  endloop
endfacet
facet normal 0.2883974019918593 0.9517704780662133 0.1046895200388157
  outer loop
    vertex 13.085032821302118 216.05326157819619 42.71373454389443
    vertex 12.786437784141441 216.2013725078959 42.18977018354594
    vertex 12.200965712377169 216.33777234226392 42.562560973460606
  endloop
endfacet
facet normal 0.4447185338381107 0.8902497413271416 -0.09839117708330629
  outer loop
    vertex 15.092340467548697 215.28622916947813 40.59603366975931
    vertex 15.600156410239453 214.92885248247248 39.657744847460286
    vertex 14.668326409156213 215.4559476760833 40.21515547638597
  endloop
endfacet
facet normal 0.2287422856595648 -0.05664992945786952 -0.9718373074973282
  outer loop
    vertex 13.007319492980878 4.935927835822839 0.14696166421920245
    vertex 12.7465179183 3.9040534748237623 0.14572612970445092
    vertex 12.173133572185263 4.098154483478227 -0.0005463515462978741
  endloop
endfacet
facet normal 0.05154054702910083 0.9770693793877406 0.20658896358420617
  outer loop
    vertex 8.75629579783814 216.55520610512795 44.09473384125404
    vertex 9.910992198531657 216.5129646933276 44.006438252682685
    vertex 8.75897789291252 216.68661001840547 43.47258552116678
  endloop
endfacet
facet normal 0.2169726966045112 -0.09145333025885194 -0.9718843230100649
  outer loop
    vertex 12.7465179183 3.9040534748237623 0.14572612970445092
    vertex 11.791532620875946 3.2071331312400067 -0.0018943694199045511
    vertex 12.173133572185263 4.098154483478227 -0.0005463515462978741
  endloop
endfacet
facet normal 0.5906491928000218 0.7731073559037687 -0.23116779034321855
  outer loop
    vertex 16.55917576323829 214.02812673958513 38.286413743710874
    vertex 16.70924686446468 213.57794172331648 37.164276561848936
    vertex 16.127845046454297 214.28592014978358 38.04648776661844
  endloop
endfacet
facet normal 0.5760787251292546 0.7976406675521789 -0.1786131795819308
  outer loop
    vertex 15.973015389180718 214.53496833698563 38.659303074953236
    vertex 16.55917576323829 214.02812673958513 38.286413743710874
    vertex 16.127845046454297 214.28592014978358 38.04648776661844
  endloop
endfacet
facet normal 0.19990190456256804 -0.12398563400418726 -0.9719397054924949
  outer loop
    vertex 12.327509609407258 2.925674977216544 0.14424595973702684
    vertex 11.275245100027739 2.386776897885683 -0.0034319864235937024
    vertex 11.791532620875946 3.2071331312400067 -0.0018943694199045511
  endloop
endfacet
facet normal 0.21697152829423288 -0.09145164040206208 -0.9718847428463094
  outer loop
    vertex 12.7465179183 3.9040534748237623 0.14572612970445092
    vertex 12.327509609407258 2.925674977216544 0.14424595973702684
    vertex 11.791532620875946 3.2071331312400067 -0.0018943694199045511
  endloop
endfacet
facet normal 0.19990231680143464 -0.12398649218575047 -0.9719395112314819
  outer loop
    vertex 12.327509609407258 2.925674977216544 0.14424595973702684
    vertex 11.760608157552896 2.0248999449096874 0.1425576066033288
    vertex 11.275245100027739 2.386776897885683 -0.0034319864235937024
  endloop
endfacet
facet normal 0.17795490365446812 -0.15344796373729455 -0.9720009129060564
  outer loop
    vertex 11.760608157552896 2.0248999449096874 0.1425576066033288
    vertex 10.636979398738113 1.6572759026624673 -0.005121356357106998
    vertex 11.275245100027739 2.386776897885683 -0.0034319864235937024
  endloop
endfacet
facet normal 0.17795629084631837 -0.15345259966188005 -0.9719999270603016
  outer loop
    vertex 11.760608157552896 2.0248999449096874 0.1425576066033288
    vertex 11.0597702190352 1.2239002488847792 0.14070263286372864
    vertex 10.636979398738113 1.6572759026624673 -0.005121356357106998
  endloop
endfacet
facet normal 0.7587107273347243 0.6034249800566992 -0.24543089795456838
  outer loop
    vertex 17.097233720841277 213.26333309095122 37.366133729504384
    vertex 17.21535326203117 212.66275381492622 36.25467638276176
    vertex 17.088726664863614 212.795733266971 36.19017825082004
  endloop
endfacet
facet normal 0.8398293719578609 0.5424199359554263 0.021615713612473508
  outer loop
    vertex 17.08870166534328 213.5878912386939 39.5010147761706
    vertex 17.52688432431949 212.92686381986377 39.06410035023562
    vertex 17.26564725398897 213.34185075463853 38.80028200135786
  endloop
endfacet
facet normal 0.15166894346182525 -0.1791201660975026 -0.9720660973855517
  outer loop
    vertex 11.0597702190352 1.2239002488847792 0.14070263286372864
    vertex 9.892458189586334 1.0366226108863 -0.0069208476363227245
    vertex 10.636979398738113 1.6572759026624673 -0.005121356357106998
  endloop
endfacet
facet normal 0.16731570809311425 0.9689792979506383 0.18189165447702155
  outer loop
    vertex 10.49724605233084 216.4690474253878 43.890828668865055
    vertex 11.502351115070994 216.3550774773834 43.573412538688025
    vertex 10.37673049492624 216.60387970687398 43.28340363911385
  endloop
endfacet
facet normal 0.5786834806714689 0.6135150060243177 0.5373311516941254
  outer loop
    vertex 13.885168764499237 214.6299365094967 44.53496905402956
    vertex 14.860509752951907 214.39892018913113 43.748337313945484
    vertex 13.75521821148012 215.09474126068528 44.14421476642255
  endloop
endfacet
facet normal 0.5834639242092394 0.795412914101361 -0.1639760507730802
  outer loop
    vertex 16.39833979698444 214.27935737421552 38.93278927647158
    vertex 16.55917576323829 214.02812673958513 38.286413743710874
    vertex 15.973015389180718 214.53496833698563 38.659303074953236
  endloop
endfacet
facet normal 0.563872864449032 0.8182034862446785 -0.11220716481177953
  outer loop
    vertex 15.600156410239453 214.92885248247248 39.657744847460286
    vertex 16.39833979698444 214.27935737421552 38.93278927647158
    vertex 15.973015389180718 214.53496833698563 38.659303074953236
  endloop
endfacet
facet normal 0.15166858336228686 -0.1791174883459951 -0.9720666469895464
  outer loop
    vertex 11.0597702190352 1.2239002488847792 0.14070263286372864
    vertex 10.242261240779063 0.5423938474470684 0.1387267254434245
    vertex 9.892458189586334 1.0366226108863 -0.0069208476363227245
  endloop
endfacet
facet normal 0.46956442539959675 0.8529503219565623 -0.2280021900626032
  outer loop
    vertex 15.973015389180718 214.53496833698563 38.659303074953236
    vertex 16.127845046454297 214.28592014978358 38.04648776661844
    vertex 15.505474785860677 214.7231505210761 38.400400385350494
  endloop
endfacet
facet normal 0.12168999553059218 -0.20035612468661296 -0.9721362910046755
  outer loop
    vertex 10.242261240779063 0.5423938474470684 0.1387267254434245
    vertex 9.060005639783686 0.5400678850611664 -0.008786189482467366
    vertex 9.892458189586334 1.0366226108863 -0.0069208476363227245
  endloop
endfacet
facet normal 0.12169001893285963 -0.20035512385318163 -0.9721364943452624
  outer loop
    vertex 10.242261240779063 0.5423938474470684 0.1387267254434245
    vertex 9.328203308997386 -0.002840991181527802 0.13667852191097726
    vertex 9.060005639783686 0.5400678850611664 -0.008786189482467366
  endloop
endfacet
facet normal 0.08875728893965651 -0.21664303031921037 -0.972207766413225
  outer loop
    vertex 9.328203308997386 -0.002840991181527802 0.13667852191097726
    vertex 8.160126475597496 0.179853241610407 -0.010671427522364052
    vertex 9.060005639783686 0.5400678850611664 -0.008786189482467366
  endloop
endfacet
facet normal 0.16936444076628074 0.9699353619909713 0.17476006341086217
  outer loop
    vertex 11.502351115070994 216.3550774773834 43.573412538688025
    vertex 11.311549647275918 216.49373783949642 42.98874460806834
    vertex 10.37673049492624 216.60387970687398 43.28340363911385
  endloop
endfacet
facet normal 0.05368100956859667 -0.2275755646337834 -0.972279646806057
  outer loop
    vertex 8.340104802554167 -0.39837781083781276 0.13460845877908198
    vertex 7.214977121420699 -0.035149547101941486 -0.012530142237006724
    vertex 8.160126475597496 0.179853241610407 -0.010671427522364052
  endloop
endfacet
facet normal 0.08875788563439775 -0.2166397592390018 -0.9722084408472179
  outer loop
    vertex 9.328203308997386 -0.002840991181527802 0.13667852191097726
    vertex 8.340104802554167 -0.39837781083781276 0.13460845877908198
    vertex 8.160126475597496 0.179853241610407 -0.010671427522364052
  endloop
endfacet
facet normal 0.01733006871412133 -0.23288676434977912 -0.9723494349816091
  outer loop
    vertex 7.302297657740831 -0.6344638111760288 0.13256752081263773
    vertex 6.247827046696376 -0.09966044121266378 -0.014316582167538882
    vertex 7.214977121420699 -0.035149547101941486 -0.012530142237006724
  endloop
endfacet
facet normal 0.05368173031524047 -0.22757351069096965 -0.9722800877638855
  outer loop
    vertex 8.340104802554167 -0.39837781083781276 0.13460845877908198
    vertex 7.302297657740831 -0.6344638111760288 0.13256752081263773
    vertex 7.214977121420699 -0.035149547101941486 -0.012530142237006724
  endloop
endfacet
facet normal 0.017326079385143054 -0.23289416292954312 -0.9723477340162249
  outer loop
    vertex 7.302297657740831 -0.6344638111760288 0.13256752081263773
    vertex 6.240335330345448 -0.7052785135210926 0.13060596663196525
    vertex 6.247827046696376 -0.09966044121266378 -0.014316582167538882
  endloop
endfacet
facet normal 0.38377670634868866 -0.03398926347091272 -0.9228001786046952
  outer loop
    vertex 13.574054293090672 4.8389680939939925 0.38622820348695286
    vertex 13.007319492980878 4.935927835822839 0.14696166421920245
    vertex 13.175244739102256 5.995012092700256 0.17778990275223178
  endloop
endfacet
facet normal 0.3836997480203975 -0.033976115571116156 -0.9228326646471621
  outer loop
    vertex 13.175244739102256 5.995012092700256 0.17778990275223178
    vertex 13.007319492980878 4.935927835822839 0.14696166421920245
    vertex 13.103487941901333 5.99589177274953 0.14792213346785746
  endloop
endfacet
facet normal 0.900770321048818 0.4098553254620788 -0.1436364887762944
  outer loop
    vertex 17.70682009705966 212.4979536341701 37.8114858431504
    vertex 17.934158942783913 211.6288564104496 36.75726875857601
    vertex 17.709924130701292 212.0498571869428 36.55234413495603
  endloop
endfacet
facet normal 0.28391151864249486 0.653492087525165 0.7016711060918176
  outer loop
    vertex 12.000648729858176 214.92372503509762 45.53906109814625
    vertex 11.922888951060981 215.39693931430398 45.12980256122697
    vertex 10.758729310414202 215.51191839162178 45.49376284410456
  endloop
endfacet
facet normal 0.981554536624172 0.18843260991491206 -0.03230856160774714
  outer loop
    vertex 18.059046568649222 211.59924842417286 38.284726337178775
    vertex 18.114421231019133 211.0936446075394 37.01822007222191
    vertex 18.09535714901288 211.18528260971874 36.97349978168994
  endloop
endfacet
facet normal 0.5648468662368178 0.7560709243962567 -0.33061272659266505
  outer loop
    vertex 16.275003571953448 213.83917506535988 36.98135484904154
    vertex 16.70238766870798 213.10787231400428 36.03913407396687
    vertex 16.274093406607317 213.37210523810734 35.91166819863127
  endloop
endfacet
facet normal 0.576287634713028 0.811945919268206 -0.09293215945285922
  outer loop
    vertex 16.00805285804277 214.6770387750686 39.987087963452545
    vertex 16.39833979698444 214.27935737421552 38.93278927647158
    vertex 15.600156410239453 214.92885248247248 39.657744847460286
  endloop
endfacet
facet normal 0.37365000072578464 -0.0933333399481708 -0.9228621590528785
  outer loop
    vertex 13.574054293090672 4.8389680939939925 0.38622820348695286
    vertex 12.7465179183 3.9040534748237623 0.14572612970445092
    vertex 13.007319492980878 4.935927835822839 0.14696166421920245
  endloop
endfacet
facet normal 0.05245082657222763 0.9774109586764665 0.20473575323094148
  outer loop
    vertex 9.910992198531657 216.5129646933276 44.006438252682685
    vertex 9.83183821497344 216.6461954837163 43.39067114456676
    vertex 8.75897789291252 216.68661001840547 43.47258552116678
  endloop
endfacet
facet normal 0.3338144482456337 0.9075742320698518 -0.2547094961427273
  outer loop
    vertex 14.664606119203935 215.20967134077483 39.03194201121478
    vertex 15.505474785860677 214.7231505210761 38.400400385350494
    vertex 15.005249550033932 214.8400474155955 38.161344508976455
  endloop
endfacet
facet normal 0.8276575315236431 0.5431507519361669 0.14131620991013932
  outer loop
    vertex 16.660482522868218 213.9775347682445 40.643427643637295
    vertex 16.891003713677257 213.5448551686816 40.95632628512532
    vertex 17.339669879781376 213.16614519767592 39.78416545443393
  endloop
endfacet
facet normal 0.5410106272453502 0.8405707724657908 -0.02735466475496257
  outer loop
    vertex 15.092340467548697 215.28622916947813 40.59603366975931
    vertex 16.00805285804277 214.6770387750686 39.987087963452545
    vertex 15.600156410239453 214.92885248247248 39.657744847460286
  endloop
endfacet
facet normal 0.5503841474568696 0.8348772883886375 -0.007563303577864666
  outer loop
    vertex 15.473699701273226 215.0382925816669 40.979126927127375
    vertex 16.00805285804277 214.6770387750686 39.987087963452545
    vertex 15.092340467548697 215.28622916947813 40.59603366975931
  endloop
endfacet
facet normal 0.5113279153125896 0.8581339029563592 0.0463677433025083
  outer loop
    vertex 14.620755022707938 215.53145315349911 41.25812730876736
    vertex 15.473699701273226 215.0382925816669 40.979126927127375
    vertex 15.092340467548697 215.28622916947813 40.59603366975931
  endloop
endfacet
facet normal 0.5149069187327251 0.8549300172823284 0.06297245898651611
  outer loop
    vertex 14.975989431758702 215.2864389430958 41.67985688023056
    vertex 15.473699701273226 215.0382925816669 40.979126927127375
    vertex 14.620755022707938 215.53145315349911 41.25812730876736
  endloop
endfacet
facet normal 0.8434778939340438 0.531567753746178 -0.07733540988339437
  outer loop
    vertex 17.26564725398897 213.34185075463853 38.80028200135786
    vertex 17.70682009705966 212.4979536341701 37.8114858431504
    vertex 17.431814085327066 212.90111406983414 37.58320226080726
  endloop
endfacet
facet normal 0.4750430208874645 0.8329636381736916 -0.2837352741316447
  outer loop
    vertex 16.127845046454297 214.28592014978358 38.04648776661844
    vertex 16.275003571953448 213.83917506535988 36.98135484904154
    vertex 15.655452280287 214.47964102686234 37.824293186418
  endloop
endfacet
facet normal 0.3543607365378168 -0.15036510388917906 -0.9229403035585629
  outer loop
    vertex 13.291131645644873 3.7195540336361437 0.38488785916965207
    vertex 12.327509609407258 2.925674977216544 0.14424595973702684
    vertex 12.7465179183 3.9040534748237623 0.14572612970445092
  endloop
endfacet
facet normal 0.3736481743376492 -0.09333148483980028 -0.9228630861356086
  outer loop
    vertex 13.574054293090672 4.8389680939939925 0.38622820348695286
    vertex 13.291131645644873 3.7195540336361437 0.38488785916965207
    vertex 12.7465179183 3.9040534748237623 0.14572612970445092
  endloop
endfacet
facet normal 0.35436275979895965 -0.1503679350433285 -0.9229390654742435
  outer loop
    vertex 13.291131645644873 3.7195540336361437 0.38488785916965207
    vertex 12.836578409359634 2.658192422828456 0.38328213503291053
    vertex 12.327509609407258 2.925674977216544 0.14424595973702684
  endloop
endfacet
facet normal 0.4692846216311498 0.8757246483268315 0.11348252822948457
  outer loop
    vertex 13.902893558314892 215.81469964898986 42.04093863165384
    vertex 14.975989431758702 215.2864389430958 41.67985688023056
    vertex 14.620755022707938 215.53145315349911 41.25812730876736
  endloop
endfacet
facet normal 0.47317539572643363 0.8710377802930961 0.13190235093131886
  outer loop
    vertex 14.216743575841376 215.57331819704262 42.50905961229009
    vertex 14.975989431758702 215.2864389430958 41.67985688023056
    vertex 13.902893558314892 215.81469964898986 42.04093863165384
  endloop
endfacet
facet normal 0.4117895584110036 0.8924853589788527 0.18411747226175848
  outer loop
    vertex 13.085032821302118 216.05326157819619 42.71373454389443
    vertex 14.216743575841376 215.57331819704262 42.50905961229009
    vertex 13.902893558314892 215.81469964898986 42.04093863165384
  endloop
endfacet
facet normal 0.41301001229622664 0.8883877654997852 0.20047420745165523
  outer loop
    vertex 13.350192293207515 215.8152231666724 43.22231316386089
    vertex 14.216743575841376 215.57331819704262 42.50905961229009
    vertex 13.085032821302118 216.05326157819619 42.71373454389443
  endloop
endfacet
facet normal 0.32639093053079565 -0.2036835918352499 -0.9230286858404417
  outer loop
    vertex 12.836578409359634 2.658192422828456 0.38328213503291053
    vertex 11.760608157552896 2.0248999449096874 0.1425576066033288
    vertex 12.327509609407258 2.925674977216544 0.14424595973702684
  endloop
endfacet
facet normal 0.9900767646537152 0.13996280387191487 -0.012586247460767867
  outer loop
    vertex 18.059046568649222 211.59924842417286 38.284726337178775
    vertex 18.129767453824623 211.12022281966009 38.520963425566826
    vertex 18.114421231019133 211.0936446075394 37.01822007222191
  endloop
endfacet
facet normal 0.8368883657696209 0.5110035858926275 -0.19619683596921136
  outer loop
    vertex 17.431814085327066 212.90111406983414 37.58320226080726
    vertex 17.61074499588449 212.18673742916772 36.485815411153084
    vertex 17.426498811234012 212.4410336706557 36.36222933509689
  endloop
endfacet
facet normal 0.2904185690607706 -0.25196534539743237 -0.9231308246740801
  outer loop
    vertex 12.221586620524862 1.6809918147569352 0.38145054921371613
    vertex 11.461299465940037 0.812047437411542 0.37943822626753804
    vertex 11.0597702190352 1.2239002488847792 0.14070263286372864
  endloop
endfacet
facet normal 0.29041846125313897 -0.25196500450651693 -0.9231309516354599
  outer loop
    vertex 12.221586620524862 1.6809918147569352 0.38145054921371613
    vertex 11.0597702190352 1.2239002488847792 0.14070263286372864
    vertex 11.760608157552896 2.0248999449096874 0.1425576066033288
  endloop
endfacet
facet normal 0.3263889937032132 -0.20367971568661558 -0.923030226052876
  outer loop
    vertex 12.836578409359634 2.658192422828456 0.38328213503291053
    vertex 12.221586620524862 1.6809918147569352 0.38145054921371613
    vertex 11.760608157552896 2.0248999449096874 0.1425576066033288
  endloop
endfacet
facet normal 0.24734196211843804 -0.29402517504701053 -0.9232394869230715
  outer loop
    vertex 11.461299465940037 0.812047437411542 0.37943822626753804
    vertex 10.242261240779063 0.5423938474470684 0.1387267254434245
    vertex 11.0597702190352 1.2239002488847792 0.14070263286372864
  endloop
endfacet
facet normal 0.43589315665391914 0.8925764531510061 -0.11534483630683975
  outer loop
    vertex 14.668326409156213 215.4559476760833 40.21515547638597
    vertex 15.600156410239453 214.92885248247248 39.657744847460286
    vertex 15.149110565347847 215.10768321683526 39.337074276346996
  endloop
endfacet
facet normal 0.2473421691627137 -0.29402655201833755 -0.9232389929276662
  outer loop
    vertex 11.461299465940037 0.812047437411542 0.37943822626753804
    vertex 10.574438454259797 0.07272938575901776 0.37729469808287186
    vertex 10.242261240779063 0.5423938474470684 0.1387267254434245
  endloop
endfacet
facet normal 0.19821584081620594 -0.328829952308008 -0.9233533142381836
  outer loop
    vertex 10.574438454259797 0.07272938575901776 0.37729469808287186
    vertex 9.328203308997386 -0.002840991181527802 0.13667852191097726
    vertex 10.242261240779063 0.5423938474470684 0.1387267254434245
  endloop
endfacet
facet normal 0.19821585933200864 -0.32882757740322127 -0.923354156024871
  outer loop
    vertex 10.574438454259797 0.07272938575901776 0.37729469808287186
    vertex 9.582844148231091 -0.518760152285489 0.3750727493210704
    vertex 9.328203308997386 -0.002840991181527802 0.13667852191097726
  endloop
endfacet
facet normal 0.14424889055038392 -0.3555180263553188 -0.92347127216357
  outer loop
    vertex 9.582844148231091 -0.518760152285489 0.3750727493210704
    vertex 8.340104802554167 -0.39837781083781276 0.13460845877908198
    vertex 9.328203308997386 -0.002840991181527802 0.13667852191097726
  endloop
endfacet
facet normal 0.08676943404067285 -0.37344424253427677 -0.9235856554939892
  outer loop
    vertex 8.510925219920098 -0.9478395430823899 0.3728270907254708
    vertex 7.302297657740831 -0.6344638111760288 0.13256752081263773
    vertex 8.340104802554167 -0.39837781083781276 0.13460845877908198
  endloop
endfacet
facet normal 0.14424783293601098 -0.35552438474058673 -0.9234689894891392
  outer loop
    vertex 9.582844148231091 -0.518760152285489 0.3750727493210704
    vertex 8.510925219920098 -0.9478395430823899 0.3728270907254708
    vertex 8.340104802554167 -0.39837781083781276 0.13460845877908198
  endloop
endfacet
facet normal 0.35482972421105974 0.9040891449627372 0.2381568491075794
  outer loop
    vertex 13.350192293207515 215.8152231666724 43.22231316386089
    vertex 13.085032821302118 216.05326157819619 42.71373454389443
    vertex 12.457376126889256 216.1939891256633 43.11465101584693
  endloop
endfacet
facet normal 0.08676815724940529 -0.37344807175602807 -0.9235842271223815
  outer loop
    vertex 8.510925219920098 -0.9478395430823899 0.3728270907254708
    vertex 7.385083361272457 -1.2039457028514575 0.3706130296377517
    vertex 7.302297657740831 -0.6344638111760288 0.13256752081263773
  endloop
endfacet
facet normal 0.7305991424295941 0.596072570160401 0.3330501226294859
  outer loop
    vertex 15.530981160254077 214.57517319068887 42.47608861942911
    vertex 16.28211899418445 213.88890956408173 42.05657898978676
    vertex 16.075343518083237 214.33170220488228 41.71769137418109
  endloop
endfacet
facet normal 0.027189454052054154 -0.38215641914913434 -0.92369757220178
  outer loop
    vertex 7.385083361272457 -1.2039457028514575 0.3706130296377517
    vertex 6.240335330345448 -0.7052785135210926 0.13060596663196525
    vertex 7.302297657740831 -0.6344638111760288 0.13256752081263773
  endloop
endfacet
facet normal 0.027192574294674768 -0.38215040885116086 -0.9236999669362986
  outer loop
    vertex 7.385083361272457 -1.2039457028514575 0.3706130296377517
    vertex 6.233037030119858 -1.2807780479521156 0.3684850731281447
    vertex 6.240335330345448 -0.7052785135210926 0.13060596663196525
  endloop
endfacet
facet normal 0.5832883625847423 0.7482139409386023 -0.3161496238465832
  outer loop
    vertex 16.70924686446468 213.57794172331648 37.164276561848936
    vertex 16.70238766870798 213.10787231400428 36.03913407396687
    vertex 16.275003571953448 213.83917506535988 36.98135484904154
  endloop
endfacet
facet normal 0.5230595335683317 -0.04668525068399201 -0.8510165754624597
  outer loop
    vertex 13.777715030539222 5.9876111347378576 0.44839150741992023
    vertex 13.574054293090672 4.8389680939939925 0.38622820348695286
    vertex 13.678380764871687 5.9888440102208875 0.3872701458998682
  endloop
endfacet
facet normal 0.07835967141763588 0.6596432258279229 0.7474828269028341
  outer loop
    vertex 10.108076989457796 215.0795381356343 46.04435890352012
    vertex 10.079615254083029 215.55662634722393 45.626318858426046
    vertex 8.741977528719131 215.60081346793987 45.727550773144074
  endloop
endfacet
facet normal 0.5092426801987432 -0.12768780385893005 -0.8510979481879181
  outer loop
    vertex 14.096899063801986 4.749395816370988 0.7125034111437104
    vertex 13.291131645644873 3.7195540336361437 0.38488785916965207
    vertex 13.574054293090672 4.8389680939939925 0.38622820348695286
  endloop
endfacet
facet normal 0.5230661866497699 -0.04668665578736016 -0.851012409166318
  outer loop
    vertex 14.096899063801986 4.749395816370988 0.7125034111437104
    vertex 13.574054293090672 4.8389680939939925 0.38622820348695286
    vertex 13.777715030539222 5.9876111347378576 0.44839150741992023
  endloop
endfacet
facet normal 0.5092440846612618 -0.12768923854167424 -0.8510968926028113
  outer loop
    vertex 14.096899063801986 4.749395816370988 0.7125034111437104
    vertex 13.793557421795862 3.549201882033483 0.7110663394591705
    vertex 13.291131645644873 3.7195540336361437 0.38488785916965207
  endloop
endfacet
facet normal 0.4829187040332315 -0.20553359135574298 -0.8512023661382027
  outer loop
    vertex 13.793557421795862 3.549201882033483 0.7110663394591705
    vertex 12.836578409359634 2.658192422828456 0.38328213503291053
    vertex 13.291131645644873 3.7195540336361437 0.38488785916965207
  endloop
endfacet
facet normal 0.35262316587196496 0.9019998197309392 0.24910485361747936
  outer loop
    vertex 12.684420775480143 215.95805055265564 43.64758060598617
    vertex 13.350192293207515 215.8152231666724 43.22231316386089
    vertex 12.457376126889256 216.1939891256633 43.11465101584693
  endloop
endfacet
facet normal 0.7798306992882117 0.581644371551201 -0.2314171676658141
  outer loop
    vertex 17.097233720841277 213.26333309095122 37.366133729504384
    vertex 17.431814085327066 212.90111406983414 37.58320226080726
    vertex 17.21535326203117 212.66275381492622 36.25467638276176
  endloop
endfacet
facet normal 0.4829182904981984 -0.2055330091791884 -0.8512027413254997
  outer loop
    vertex 13.793557421795862 3.549201882033483 0.7110663394591705
    vertex 13.306202217056539 2.4112468995886567 0.7093447396397234
    vertex 12.836578409359634 2.658192422828456 0.38328213503291053
  endloop
endfacet
facet normal 0.28958254884863427 0.9147846086182574 0.2816222065773049
  outer loop
    vertex 12.684420775480143 215.95805055265564 43.64758060598617
    vertex 12.457376126889256 216.1939891256633 43.11465101584693
    vertex 11.502351115070994 216.3550774773834 43.573412538688025
  endloop
endfacet
facet normal 0.444741206207808 -0.2782979375709444 -0.8513257410912599
  outer loop
    vertex 13.306202217056539 2.4112468995886567 0.7093447396397234
    vertex 12.221586620524862 1.6809918147569352 0.38145054921371613
    vertex 12.836578409359634 2.658192422828456 0.38328213503291053
  endloop
endfacet
facet normal 0.28786703383104234 0.911782273382226 0.292891885820105
  outer loop
    vertex 11.670559434111059 216.12175800538 44.13442135011268
    vertex 12.684420775480143 215.95805055265564 43.64758060598617
    vertex 11.502351115070994 216.3550774773834 43.573412538688025
  endloop
endfacet
facet normal 0.33685075641262613 -0.4016057038403645 -0.8516128384114034
  outer loop
    vertex 11.831675017408337 0.43186962834586334 0.7052234290607357
    vertex 10.574438454259797 0.07272938575901776 0.37729469808287186
    vertex 11.461299465940037 0.812047437411542 0.37943822626753804
  endloop
endfacet
facet normal 0.39564838602467384 -0.34419658999573594 -0.8514640697477365
  outer loop
    vertex 12.64682831425222 1.363537795528284 0.7073809835277702
    vertex 11.831675017408337 0.43186962834586334 0.7052234290607357
    vertex 11.461299465940037 0.812047437411542 0.37943822626753804
  endloop
endfacet
facet normal 0.39565100783550555 -0.3442049633225841 -0.8514594665765643
  outer loop
    vertex 12.64682831425222 1.363537795528284 0.7073809835277702
    vertex 11.461299465940037 0.812047437411542 0.37943822626753804
    vertex 12.221586620524862 1.6809918147569352 0.38145054921371613
  endloop
endfacet
facet normal 0.4447437341258606 -0.27830303308949833 -0.8513227547346374
  outer loop
    vertex 13.306202217056539 2.4112468995886567 0.7093447396397234
    vertex 12.64682831425222 1.363537795528284 0.7073809835277702
    vertex 12.221586620524862 1.6809918147569352 0.38145054921371613
  endloop
endfacet
facet normal 0.3368513372020633 -0.40160964295303386 -0.8516107510549162
  outer loop
    vertex 11.831675017408337 0.43186962834586334 0.7052234290607357
    vertex 10.880814280155459 -0.36079443320345755 0.7029252193521046
    vertex 10.574438454259797 0.07272938575901776 0.37729469808287186
  endloop
endfacet
facet normal 0.19614548711835944 -0.48554558295840905 -0.8519227868490665
  outer loop
    vertex 9.817660526805497 -0.9949584093076149 0.7005429295118377
    vertex 8.66838777465587 -1.4550047640600259 0.6981352133106051
    vertex 8.510925219920098 -0.9478395430823899 0.3728270907254708
  endloop
endfacet
facet normal 0.19614511781089014 -0.48554776532971144 -0.8519216280517096
  outer loop
    vertex 9.817660526805497 -0.9949584093076149 0.7005429295118377
    vertex 8.510925219920098 -0.9478395430823899 0.3728270907254708
    vertex 9.582844148231091 -0.518760152285489 0.3750727493210704
  endloop
endfacet
facet normal 0.26980404365631155 -0.4491173374867179 -0.8517625227700177
  outer loop
    vertex 10.880814280155459 -0.36079443320345755 0.7029252193521046
    vertex 9.817660526805497 -0.9949584093076149 0.7005429295118377
    vertex 9.582844148231091 -0.518760152285489 0.3750727493210704
  endloop
endfacet
facet normal 0.26980412549652694 -0.4491096390633316 -0.8517665560266253
  outer loop
    vertex 10.880814280155459 -0.36079443320345755 0.7029252193521046
    vertex 9.582844148231091 -0.518760152285489 0.3750727493210704
    vertex 10.574438454259797 0.07272938575901776 0.37729469808287186
  endloop
endfacet
facet normal 0.11769158368428763 -0.5100055019846381 -0.852081615266567
  outer loop
    vertex 8.66838777465587 -1.4550047640600259 0.6981352133106051
    vertex 7.385083361272457 -1.2039457028514575 0.3706130296377517
    vertex 8.510925219920098 -0.9478395430823899 0.3728270907254708
  endloop
endfacet
facet normal 0.1176940325903754 -0.5099982250194988 -0.8520856325332428
  outer loop
    vertex 8.66838777465587 -1.4550047640600259 0.6981352133106051
    vertex 7.461297193041856 -1.729603041819006 0.6957613626971304
    vertex 7.385083361272457 -1.2039457028514575 0.3706130296377517
  endloop
endfacet
facet normal 0.03638141032077595 -0.5218803255615131 -0.8522425234490947
  outer loop
    vertex 7.461297193041856 -1.729603041819006 0.6957613626971304
    vertex 6.226111868275714 -1.8119847064381986 0.6934798358813957
    vertex 6.233037030119858 -1.2807780479521156 0.3684850731281447
  endloop
endfacet
facet normal 0.03637967818226824 -0.5218836397833562 -0.8522405678808248
  outer loop
    vertex 7.461297193041856 -1.729603041819006 0.6957613626971304
    vertex 6.233037030119858 -1.2807780479521156 0.3684850731281447
    vertex 7.385083361272457 -1.2039457028514575 0.3706130296377517
  endloop
endfacet
facet normal 0.6492848372527198 -0.0582216399936393 -0.7583135504197193
  outer loop
    vertex 14.326853185360294 5.980773728655491 0.8148527399186856
    vertex 14.096899063801986 4.749395816370988 0.7125034111437104
    vertex 14.208755358688292 5.982261324398353 0.713620553850093
  endloop
endfacet
facet normal 0.632129493458872 -0.15885875819222847 -0.7584037173201703
  outer loop
    vertex 14.562983065661445 4.669441425545756 1.1177320409942622
    vertex 13.793557421795862 3.549201882033483 0.7110663394591705
    vertex 14.096899063801986 4.749395816370988 0.7125034111437104
  endloop
endfacet
facet normal 0.6493014784071531 -0.05822595955058896 -0.7582989699140428
  outer loop
    vertex 14.562983065661445 4.669441425545756 1.1177320409942622
    vertex 14.096899063801986 4.749395816370988 0.7125034111437104
    vertex 14.326853185360294 5.980773728655491 0.8148527399186856
  endloop
endfacet
facet normal 0.632130844874809 -0.15886020534476253 -0.7584022877837858
  outer loop
    vertex 14.562983065661445 4.669441425545756 1.1177320409942622
    vertex 14.241430704860862 3.397204227129413 1.116208703136093
    vertex 13.793557421795862 3.549201882033483 0.7110663394591705
  endloop
endfacet
facet normal 0.14568072361041368 -0.6338225043178882 -0.7596355440529009
  outer loop
    vertex 8.808608007836984 -1.9074082281208222 1.1025013386091809
    vertex 7.461297193041856 -1.729603041819006 0.6957613626971304
    vertex 8.66838777465587 -1.4550047640600259 0.6981352133106051
  endloop
endfacet
facet normal 0.2431405244009535 -0.6034381591932356 -0.7594373400245137
  outer loop
    vertex 10.026868336178364 -1.4197523117510353 1.1050535789241789
    vertex 8.808608007836984 -1.9074082281208222 1.1025013386091809
    vertex 8.66838777465587 -1.4550047640600259 0.6981352133106051
  endloop
endfacet
facet normal 0.24314144985279068 -0.6034333765333946 -0.7594408439430876
  outer loop
    vertex 10.026868336178364 -1.4197523117510353 1.1050535789241789
    vertex 8.66838777465587 -1.4550047640600259 0.6981352133106051
    vertex 9.817660526805497 -0.9949584093076149 0.7005429295118377
  endloop
endfacet
facet normal 0.33465152428704753 -0.5581758152322124 -0.759241803763604
  outer loop
    vertex 11.153843258456703 -0.7475150874682112 1.1075788809698701
    vertex 10.026868336178364 -1.4197523117510353 1.1050535789241789
    vertex 9.817660526805497 -0.9949584093076149 0.7005429295118377
  endloop
endfacet
facet normal 0.3346514069630426 -0.5581792479046016 -0.7592393318488638
  outer loop
    vertex 11.153843258456703 -0.7475150874682112 1.1075788809698701
    vertex 9.817660526805497 -0.9949584093076149 0.7005429295118377
    vertex 10.880814280155459 -0.36079443320345755 0.7029252193521046
  endloop
endfacet
facet normal 0.4179580036975744 -0.4991607666556961 -0.7590452135260694
  outer loop
    vertex 12.161783449992772 0.09275026432718843 1.1100150640477742
    vertex 11.153843258456703 -0.7475150874682112 1.1075788809698701
    vertex 10.880814280155459 -0.36079443320345755 0.7029252193521046
  endloop
endfacet
facet normal 0.41795958179902765 -0.49917354844372336 -0.7590359388833203
  outer loop
    vertex 12.161783449992772 0.09275026432718843 1.1100150640477742
    vertex 10.880814280155459 -0.36079443320345755 0.7029252193521046
    vertex 11.831675017408337 0.43186962834586334 0.7052234290607357
  endloop
endfacet
facet normal 0.4910065567670694 -0.42784906928609817 -0.7588529074351409
  outer loop
    vertex 13.025865558739293 1.0803285400293723 1.1123021144844296
    vertex 12.161783449992772 0.09275026432718843 1.1100150640477742
    vertex 11.831675017408337 0.43186962834586334 0.7052234290607357
  endloop
endfacet
facet normal 0.4910044865878423 -0.42784186678939223 -0.7588583077049216
  outer loop
    vertex 13.025865558739293 1.0803285400293723 1.1123021144844296
    vertex 11.831675017408337 0.43186962834586334 0.7052234290607357
    vertex 12.64682831425222 1.363537795528284 0.7073809835277702
  endloop
endfacet
facet normal 0.5519927070476666 -0.3459731139890111 -0.758687455915106
  outer loop
    vertex 13.724819142485929 2.1909292070227027 1.1143837485258352
    vertex 13.025865558739293 1.0803285400293723 1.1123021144844296
    vertex 12.64682831425222 1.363537795528284 0.7073809835277702
  endloop
endfacet
facet normal 0.551993040585365 -0.345973828111489 -0.7586868875940889
  outer loop
    vertex 13.724819142485929 2.1909292070227027 1.1143837485258352
    vertex 12.64682831425222 1.363537795528284 0.7073809835277702
    vertex 13.306202217056539 2.4112468995886567 0.7093447396397234
  endloop
endfacet
facet normal 0.5994254391765568 -0.25556843779093547 -0.7585340575564771
  outer loop
    vertex 14.241430704860862 3.397204227129413 1.116208703136093
    vertex 13.724819142485929 2.1909292070227027 1.1143837485258352
    vertex 13.306202217056539 2.4112468995886567 0.7093447396397234
  endloop
endfacet
facet normal 0.5994269773838875 -0.25557071509234874 -0.7585320747151052
  outer loop
    vertex 14.241430704860862 3.397204227129413 1.116208703136093
    vertex 13.306202217056539 2.4112468995886567 0.7093447396397234
    vertex 13.793557421795862 3.549201882033483 0.7110663394591705
  endloop
endfacet
facet normal 0.739349229018308 -0.18608841216249847 -0.6470964537137209
  outer loop
    vertex 14.960820419862134 4.601053210219698 1.5919614037364063
    vertex 14.62372162821845 3.267276918228642 1.5903643939827183
    vertex 14.241430704860862 3.397204227129413 1.116208703136093
  endloop
endfacet
facet normal 0.7393535802587434 -0.18609356242462088 -0.6470900009911229
  outer loop
    vertex 14.562983065661445 4.669441425545756 1.1177320409942622
    vertex 14.960820419862134 4.601053210219698 1.5919614037364063
    vertex 14.241430704860862 3.397204227129413 1.116208703136093
  endloop
endfacet
facet normal 0.7594516628453034 -0.06831958049359133 -0.6469664649135094
  outer loop
    vertex 14.807593254317752 5.974687525520878 1.2670376909333907
    vertex 14.960820419862134 4.601053210219698 1.5919614037364063
    vertex 14.562983065661445 4.669441425545756 1.1177320409942622
  endloop
endfacet
facet normal 0.7594370983242799 -0.0683148381033209 -0.6469840620785919
  outer loop
    vertex 14.681550335525152 5.976305840689066 1.1189162315839791
    vertex 14.807593254317752 5.974687525520878 1.2670376909333907
    vertex 14.562983065661445 4.669441425545756 1.1177320409942622
  endloop
endfacet
facet normal 0.04466003311134266 -0.6485928219964889 -0.759824211707632
  outer loop
    vertex 7.529059506220195 -2.1984872530253687 1.0999849949610008
    vertex 6.2197305010621085 -2.2858102364907955 1.0975665191810888
    vertex 6.226111868275714 -1.8119847064381986 0.6934798358813957
  endloop
endfacet
facet normal 0.04466169744844731 -0.6485898113380714 -0.7598266837966856
  outer loop
    vertex 7.529059506220195 -2.1984872530253687 1.0999849949610008
    vertex 6.226111868275714 -1.8119847064381986 0.6934798358813957
    vertex 7.461297193041856 -1.729603041819006 0.6957613626971304
  endloop
endfacet
facet normal 0.14567994775570528 -0.6338246425198395 -0.7596339087721748
  outer loop
    vertex 8.808608007836984 -1.9074082281208222 1.1025013386091809
    vertex 7.529059506220195 -2.1984872530253687 1.0999849949610008
    vertex 7.461297193041856 -1.729603041819006 0.6957613626971304
  endloop
endfacet
facet normal 0.7010768849797587 -0.2992748280856177 -0.6472447594391184
  outer loop
    vertex 14.62372162821845 3.267276918228642 1.5903643939827183
    vertex 14.082123718268637 2.0026752008645743 1.5884511856636125
    vertex 13.724819142485929 2.1909292070227027 1.1143837485258352
  endloop
endfacet
facet normal 0.7010738179744681 -0.299269761688813 -0.6472504240936607
  outer loop
    vertex 14.241430704860862 3.397204227129413 1.116208703136093
    vertex 14.62372162821845 3.267276918228642 1.5903643939827183
    vertex 13.724819142485929 2.1909292070227027 1.1143837485258352
  endloop
endfacet
facet normal 0.11170657640467416 0.9741378496799977 0.19641051552495117
  outer loop
    vertex 9.910992198531657 216.5129646933276 44.006438252682685
    vertex 10.49724605233084 216.4690474253878 43.890828668865055
    vertex 9.83183821497344 216.6461954837163 43.39067114456676
  endloop
endfacet
facet normal 0.6455685972134512 -0.4050719137949818 -0.6474240734992234
  outer loop
    vertex 14.082123718268637 2.0026752008645743 1.5884511856636125
    vertex 13.349363264534132 0.8383529292315367 1.5862688643317493
    vertex 13.025865558739293 1.0803285400293723 1.1123021144844296
  endloop
endfacet
facet normal 0.6455694129990299 -0.40507391400961595 -0.6474220085763368
  outer loop
    vertex 14.082123718268637 2.0026752008645743 1.5884511856636125
    vertex 13.025865558739293 1.0803285400293723 1.1123021144844296
    vertex 13.724819142485929 2.1909292070227027 1.1143837485258352
  endloop
endfacet
facet normal 0.5741903607903598 -0.5008883672338336 -0.6476235582074363
  outer loop
    vertex 13.349363264534132 0.8383529292315367 1.5862688643317493
    vertex 12.161783449992772 0.09275026432718843 1.1100150640477742
    vertex 13.025865558739293 1.0803285400293723 1.1123021144844296
  endloop
endfacet
facet normal 0.48870770334390246 -0.5843509724080063 -0.6478415869162352
  outer loop
    vertex 12.443488165667915 -0.19699417141114486 1.5838711942994792
    vertex 11.153843258456703 -0.7475150874682112 1.1075788809698701
    vertex 12.161783449992772 0.09275026432718843 1.1100150640477742
  endloop
endfacet
facet normal 0.5741899734505728 -0.5008867143776525 -0.6476251799836004
  outer loop
    vertex 13.349363264534132 0.8383529292315367 1.5862688643317493
    vertex 12.443488165667915 -0.19699417141114486 1.5838711942994792
    vertex 12.161783449992772 0.09275026432718843 1.1100150640477742
  endloop
endfacet
facet normal 0.33520727783577625 0.9391974491770629 0.07445960210226076
  outer loop
    vertex 13.085032821302118 216.05326157819619 42.71373454389443
    vertex 13.902893558314892 215.81469964898986 42.04093863165384
    vertex 12.786437784141441 216.2013725078959 42.18977018354594
  endloop
endfacet
facet normal 0.3912152787506131 -0.653424368746331 -0.6480641943515619
  outer loop
    vertex 11.386799623236296 -1.0778971311862335 1.5813171877996273
    vertex 10.20532129091339 -1.7826407762352343 1.5786697591369396
    vertex 10.026868336178364 -1.4197523117510353 1.1050535789241789
  endloop
endfacet
facet normal 0.3912156009849923 -0.6534205315214454 -0.648067868770072
  outer loop
    vertex 11.386799623236296 -1.0778971311862335 1.5813171877996273
    vertex 10.026868336178364 -1.4197523117510353 1.1050535789241789
    vertex 11.153843258456703 -0.7475150874682112 1.1075788809698701
  endloop
endfacet
facet normal 0.4887077708982022 -0.5843518937268584 -0.6478407049279513
  outer loop
    vertex 12.443488165667915 -0.19699417141114486 1.5838711942994792
    vertex 11.386799623236296 -1.0778971311862335 1.5813171877996273
    vertex 11.153843258456703 -0.7475150874682112 1.1075788809698701
  endloop
endfacet
facet normal 0.28411914325434234 -0.706390593359997 -0.6482967237684684
  outer loop
    vertex 10.20532129091339 -1.7826407762352343 1.5786697591369396
    vertex 8.928139513322034 -2.2938836503260718 1.57599407810136
    vertex 8.808608007836984 -1.9074082281208222 1.1025013386091809
  endloop
endfacet
facet normal 0.2841188554040674 -0.7063917660254408 -0.6482955721700878
  outer loop
    vertex 10.20532129091339 -1.7826407762352343 1.5786697591369396
    vertex 8.808608007836984 -1.9074082281208222 1.1025013386091809
    vertex 10.026868336178364 -1.4197523117510353 1.1050535789241789
  endloop
endfacet
facet normal -0.008211435701476278 -0.9962513431678773 0.08611523419187134
  outer loop
    vertex 0.030274437937595832 13.399928088306723 15.810709125586472
    vertex 0.03693263198137442 12.637604966844412 6.992167697011222
    vertex 0.24140008910244098 12.636013336853736 6.993251220292967
  endloop
endfacet
facet normal 0.05183391847413877 -0.7592350408463726 -0.6487491022318439
  outer loop
    vertex 7.5867063915333555 -2.5990364342231294 1.5733560360072043
    vertex 6.2197305010621085 -2.2858102364907955 1.0975665191810888
    vertex 7.529059506220195 -2.1984872530253687 1.0999849949610008
  endloop
endfacet
facet normal 0.17005721347942598 -0.7419547070439176 -0.6485242916336963
  outer loop
    vertex 8.928139513322034 -2.2938836503260718 1.57599407810136
    vertex 7.5867063915333555 -2.5990364342231294 1.5733560360072043
    vertex 7.529059506220195 -2.1984872530253687 1.0999849949610008
  endloop
endfacet
facet normal 0.17005869326128262 -0.7419511834311608 -0.6485279348273019
  outer loop
    vertex 8.928139513322034 -2.2938836503260718 1.57599407810136
    vertex 7.529059506220195 -2.1984872530253687 1.0999849949610008
    vertex 8.808608007836984 -1.9074082281208222 1.1025013386091809
  endloop
endfacet
facet normal 0.8507880880177301 -0.07671957003429875 -0.5198785789594409
  outer loop
    vertex 15.085124779120708 5.9711241731036315 1.5932028723851575
    vertex 15.206734962415247 5.969519698209243 1.792456302214882
    vertex 14.960820419862134 4.601053210219698 1.5919614037364063
  endloop
endfacet
facet normal 0.0518401685689034 -0.7592249477851896 -0.6487604146241691
  outer loop
    vertex 7.5867063915333555 -2.5990364342231294 1.5733560360072043
    vertex 6.214049919097825 -2.6905953831281924 1.5708205781101685
    vertex 6.2197305010621085 -2.2858102364907955 1.0975665191810888
  endloop
endfacet
facet normal 0.35006853289544226 0.8763985396204247 -0.33072287799246586
  outer loop
    vertex 15.655452280287 214.47964102686234 37.824293186418
    vertex 15.80251056488751 214.04218911712283 36.820728694828084
    vertex 15.151289341366526 214.60551270997448 37.624192662647744
  endloop
endfacet
facet normal 0.6675015378709299 0.6856011827176028 -0.29050424299167804
  outer loop
    vertex 16.70924686446468 213.57794172331648 37.164276561848936
    vertex 17.088726664863614 212.795733266971 36.19017825082004
    vertex 16.70238766870798 213.10787231400428 36.03913407396687
  endloop
endfacet
facet normal 0.8282734024529572 -0.2087152980867124 -0.5200010530119881
  outer loop
    vertex 14.960820419862134 4.601053210219698 1.5919614037364063
    vertex 15.280626786073677 4.5459220447687185 2.123486913344828
    vertex 14.62372162821845 3.267276918228642 1.5903643939827183
  endloop
endfacet
facet normal 0.8507974232311979 -0.0767235724374138 -0.5198627107762155
  outer loop
    vertex 15.206734962415247 5.969519698209243 1.792456302214882
    vertex 15.280626786073677 4.5459220447687185 2.123486913344828
    vertex 14.960820419862134 4.601053210219698 1.5919614037364063
  endloop
endfacet
facet normal 0.8282759205252892 -0.20871886019005745 -0.5199956123650933
  outer loop
    vertex 15.280626786073677 4.5459220447687185 2.123486913344828
    vertex 14.931011285337304 3.1626410365177637 2.1218306198739776
    vertex 14.62372162821845 3.267276918228642 1.5903643939827183
  endloop
endfacet
facet normal 0.7853767361589283 -0.3355689891866734 -0.5201700066291631
  outer loop
    vertex 14.931011285337304 3.1626410365177637 2.1218306198739776
    vertex 14.36931261777296 1.8510987041542426 2.119846400336921
    vertex 14.082123718268637 2.0026752008645743 1.5884511856636125
  endloop
endfacet
facet normal 0.7853777699651853 -0.33557108526476737 -0.5201670935177837
  outer loop
    vertex 14.62372162821845 3.267276918228642 1.5903643939827183
    vertex 14.931011285337304 3.1626410365177637 2.1218306198739776
    vertex 14.082123718268637 2.0026752008645743 1.5884511856636125
  endloop
endfacet
facet normal 0.1902259630601547 -0.8317097102438177 -0.5216062124476484
  outer loop
    vertex 9.02403422941584 -2.604924098043728 2.106926942033441
    vertex 7.6328121976570715 -2.9214040614370926 2.104190985030068
    vertex 7.5867063915333555 -2.5990364342231294 1.5733560360072043
  endloop
endfacet
facet normal 0.19022551682018157 -0.8317105603039584 -0.5216050197509323
  outer loop
    vertex 9.02403422941584 -2.604924098043728 2.106926942033441
    vertex 7.5867063915333555 -2.5990364342231294 1.5733560360072043
    vertex 8.928139513322034 -2.2938836503260718 1.57599407810136
  endloop
endfacet
facet normal 0.318061210608923 -0.7918558486352653 -0.5213457406444502
  outer loop
    vertex 10.348620276874435 -2.0747105321639063 2.109701930932142
    vertex 9.02403422941584 -2.604924098043728 2.106926942033441
    vertex 8.928139513322034 -2.2938836503260718 1.57599407810136
  endloop
endfacet
facet normal 0.318062519092317 -0.7918519857424291 -0.5213508095557361
  outer loop
    vertex 10.348620276874435 -2.0747105321639063 2.109701930932142
    vertex 8.928139513322034 -2.2938836503260718 1.57599407810136
    vertex 10.20532129091339 -1.7826407762352343 1.5786697591369396
  endloop
endfacet
facet normal 0.4380953287819686 -0.7324868923548984 -0.5210906211281127
  outer loop
    vertex 11.57395313996485 -1.3438007378278602 2.1124476331573727
    vertex 10.348620276874435 -2.0747105321639063 2.109701930932142
    vertex 10.20532129091339 -1.7826407762352343 1.5786697591369396
  endloop
endfacet
facet normal 0.43809436065902324 -0.7324925409089935 -0.5210834949136735
  outer loop
    vertex 11.57395313996485 -1.3438007378278602 2.1124476331573727
    vertex 10.20532129091339 -1.7826407762352343 1.5786697591369396
    vertex 11.386799623236296 -1.0778971311862335 1.5813171877996273
  endloop
endfacet
facet normal 0.5473606784962755 -0.6550814788098963 -0.5208306286657272
  outer loop
    vertex 12.669860714832108 -0.4302088260733631 2.115096427394345
    vertex 11.57395313996485 -1.3438007378278602 2.1124476331573727
    vertex 11.386799623236296 -1.0778971311862335 1.5813171877996273
  endloop
endfacet
facet normal 0.5473607312273964 -0.6550773714608006 -0.5208357392789194
  outer loop
    vertex 12.669860714832108 -0.4302088260733631 2.115096427394345
    vertex 11.386799623236296 -1.0778971311862335 1.5813171877996273
    vertex 12.443488165667915 -0.19699417141114486 1.5838711942994792
  endloop
endfacet
facet normal -0.7722091158516998 0.6252852940611051 -0.11274476673643594
  outer loop
    vertex -12.136804683933137 214.11946517527423 38.65152577491237
    vertex -12.323486585356756 213.67635091305453 37.472620806120545
    vertex -12.46929411615708 213.7567814047194 38.91735223615445
  endloop
endfacet
facet normal -0.7484941498502187 0.6623434415049955 -0.032521887019621415
  outer loop
    vertex -12.136804683933137 214.11946517527423 38.65152577491237
    vertex -12.46929411615708 213.7567814047194 38.91735223615445
    vertex -12.35729801600395 213.90440359448493 39.34623766438129
  endloop
endfacet
facet normal -0.7910108168364898 0.17717400196079988 -0.5855862538318876
  outer loop
    vertex -12.847475245496444 176.67897488618837 4.468349131658399
    vertex -12.901884904281555 171.9182132422087 3.1014376664932004
    vertex -13.306159207245663 171.7982218581872 3.6112276264730983
  endloop
endfacet
facet normal -0.08101581478061505 0.04141324857160909 -0.9958520877109106
  outer loop
    vertex -10.071761075162227 162.21606142604702 0.22946787367878016
    vertex -10.131734790692914 157.1633806170866 0.024227447527589385
    vertex -10.791084750095958 157.17121263843003 0.07819341726999868
  endloop
endfacet
facet normal -0.7487954672202404 0.6532799713411381 -0.11194028459381344
  outer loop
    vertex -12.46929411615708 213.7567814047194 38.91735223615445
    vertex -12.323486585356756 213.67635091305453 37.472620806120545
    vertex -12.666493283030741 213.32121211244916 37.69449620203352
  endloop
endfacet
facet normal -0.9483751757510993 0.04898766203394804 -0.31334443506709864
  outer loop
    vertex -13.673033569550254 166.89528367585362 3.2128050364458764
    vertex -13.729665159884695 162.065783849318 2.6291728081610866
    vertex -13.938908280910711 162.01782787187773 3.254975307000467
  endloop
endfacet
facet normal -0.695256402716906 0.7034006544414626 0.14780410620977227
  outer loop
    vertex -11.352672695699942 214.6351281519833 41.59250248290655
    vertex -11.628406206040177 214.66013460624973 40.176472508022975
    vertex -11.936848871671943 214.28779767305403 40.49754142517255
  endloop
endfacet
facet normal -0.400359355434518 0.25711288743591 -0.8795483782205651
  outer loop
    vertex -11.201324811096386 176.99984913382474 3.4416984621058524
    vertex -11.25668304148073 172.1560880257023 2.0509503811427603
    vertex -11.862707590702701 172.0996604179341 2.310310000679705
  endloop
endfacet
facet normal -0.9470372158018961 0.1669076994369201 -0.2743398107363702
  outer loop
    vertex -13.418022406020782 189.52156335787058 11.710423245619491
    vertex -13.67614079862149 185.00958063562564 9.856383429714034
    vertex -13.630470599769577 189.1912413831945 12.242839830187727
  endloop
endfacet
facet normal -0.6740087133404278 0.6220560109622719 -0.3984451951860973
  outer loop
    vertex -12.001855946995084 211.0535285295271 31.610383889864405
    vertex -12.515184802150971 207.98019700933924 27.680618282081834
    vertex -12.490491293461954 210.67082418644614 31.839476736842474
  endloop
endfacet
facet normal -0.46888194423615337 0.6511102801215318 0.5968292264034873
  outer loop
    vertex -8.135902515635761 215.05456980858227 45.09140092698402
    vertex -9.057318089527126 215.35026727801875 44.044926055678985
    vertex -9.202161309690196 214.88927917466447 44.43404862567729
  endloop
endfacet
facet normal -0.48074801704458814 0.6364755361694152 0.603141969991769
  outer loop
    vertex -8.135902515635761 215.05456980858227 45.09140092698402
    vertex -8.021008239612724 215.52181530020027 44.689911490863715
    vertex -9.057318089527126 215.35026727801875 44.044926055678985
  endloop
endfacet
facet normal -0.2426746711571184 0.2702832260767953 -0.9316952193074215
  outer loop
    vertex -10.55950111528125 177.04366798332347 3.287237162600348
    vertex -11.25668304148073 172.1560880257023 2.0509503811427603
    vertex -11.201324811096386 176.99984913382474 3.4416984621058524
  endloop
endfacet
facet normal -0.4317941122622089 0.7951877951865929 -0.42571142221224983
  outer loop
    vertex -11.423248096206915 213.73894885739315 35.84448357520742
    vertex -11.036921457842459 213.90454651107962 35.761957401607845
    vertex -11.445914279794104 211.3609118676067 31.42553034068008
  endloop
endfacet
facet normal -0.7879425162140361 0.46087791957568014 -0.40833581081003234
  outer loop
    vertex -12.544135044653547 204.9671734548711 23.749059742844192
    vertex -12.577158384372808 201.65086814303785 20.06975619015571
    vertex -12.984176388081956 201.27965836015798 20.43618106293471
  endloop
endfacet
facet normal -0.8812616487606344 0.17484218592320178 -0.4390992102535429
  outer loop
    vertex -13.200390265662088 181.11648259288978 6.693321518261003
    vertex -13.564385453649372 176.338789829023 5.5214513919171
    vertex -13.513058300688213 180.8928747841081 7.231801808053496
  endloop
endfacet
facet normal -0.24184475667913294 0.3435359585756508 -0.9074657893454275
  outer loop
    vertex -10.506191769039825 181.7736252090437 5.063632286929969
    vertex -10.55950111528125 177.04366798332347 3.287237162600348
    vertex -11.201324811096386 176.99984913382474 3.4416984621058524
  endloop
endfacet
facet normal -0.54623748757425 0.2998875725353134 -0.7821074421123022
  outer loop
    vertex -11.754637412786801 181.62066148482364 5.459468590918185
    vertex -12.361431153816605 176.81494192026656 4.04058158617691
    vertex -12.308791426195233 181.48548695874754 5.794668745530946
  endloop
endfacet
facet normal -0.618519797315629 0.6176133736720975 0.48578491227085613
  outer loop
    vertex -9.442662741403364 215.26907453561807 43.74954816166362
    vertex -10.345595662170362 215.0290955502502 42.905002260760426
    vertex -9.599111302019585 214.8109457553102 44.132804053060525
  endloop
endfacet
facet normal -0.2794099238530939 0.6545516208413605 0.7024900498272957
  outer loop
    vertex -6.3747663212385275 215.68752779481807 45.3575191684989
    vertex -6.894480068045751 215.64724408195963 45.18834181302598
    vertex -6.444640813867728 215.21373828099522 45.771184910265646
  endloop
endfacet
facet normal -0.1848929530455324 0.6616859406179907 0.7266266661103125
  outer loop
    vertex -5.221231317080776 215.26701827375368 46.03396796162616
    vertex -6.3747663212385275 215.68752779481807 45.3575191684989
    vertex -6.444640813867728 215.21373828099522 45.771184910265646
  endloop
endfacet
facet normal -0.6737977289688156 0.6505836443490807 -0.3503391815682847
  outer loop
    vertex -12.33428789127898 213.14711287046617 36.13754985593072
    vertex -12.001855946995084 211.0535285295271 31.610383889864405
    vertex -12.490491293461954 210.67082418644614 31.839476736842474
  endloop
endfacet
facet normal -0.08009117307917354 0.12051758655362659 -0.98947507059354
  outer loop
    vertex -10.012891491405504 167.2364179994845 0.8361799434244729
    vertex -10.048883001922258 164.16708738628952 0.4652502187179321
    vertex -10.731163021875405 162.21951461310627 0.2832626493019124
  endloop
endfacet
facet normal -0.08009046184367136 0.1205174923353494 -0.9894751396386199
  outer loop
    vertex -10.012891491405504 167.2364179994845 0.8361799434244729
    vertex -10.731163021875405 162.21951461310627 0.2832626493019124
    vertex -10.672344780860007 167.23549261870141 0.8894449440636563
  endloop
endfacet
facet normal -0.6783842001728312 0.20990963337575327 -0.7040829658299689
  outer loop
    vertex -12.361431153816605 176.81494192026656 4.04058158617691
    vertex -12.901884904281555 171.9182132422087 3.1014376664932004
    vertex -12.847475245496444 176.67897488618837 4.468349131658399
  endloop
endfacet
facet normal -0.4028613856250343 0.04192084705575589 -0.9143004684207513
  outer loop
    vertex -11.372543140514788 162.21400209210702 0.44548943018642256
    vertex -11.432310041097937 157.17874505709509 0.2409565986647163
    vertex -12.037590541764462 157.1857685529712 0.5079788528569796
  endloop
endfacet
facet normal -0.07742770397356025 0.3512943596431716 -0.9330579958074829
  outer loop
    vertex -9.846594139101722 181.7871812700719 5.014000900175438
    vertex -10.55950111528125 177.04366798332347 3.287237162600348
    vertex -10.506191769039825 181.7736252090437 5.063632286929969
  endloop
endfacet
facet normal -0.9877275028434983 0.04192587696488116 -0.15045464754294885
  outer loop
    vertex -13.828217274039213 171.51634923421736 4.788815809733054
    vertex -13.985543688937629 166.6946185977126 4.478026749583773
    vertex -13.93149248816066 171.36230068750768 5.42388525088514
  endloop
endfacet
facet normal -0.7899861090425974 0.2677256111587438 -0.5515840322647262
  outer loop
    vertex -12.745434919628265 185.79949237864827 8.314748537605794
    vertex -13.200390265662088 181.11648259288978 6.693321518261003
    vertex -13.15103089113023 185.5622324857248 8.780488331557068
  endloop
endfacet
facet normal -0.787631278679134 0.49183519421405886 -0.37112681199111947
  outer loop
    vertex -12.515184802150971 207.98019700933924 27.680618282081834
    vertex -12.951431876490457 204.56795837257553 24.084388722501245
    vertex -12.922726378305962 207.55551099262132 27.982717078522576
  endloop
endfacet
facet normal -0.3968267066367903 0.5782039088984517 -0.712887652182551
  outer loop
    vertex -10.96382462664284 198.74587288089066 15.852067787459331
    vertex -11.612138445018747 194.6681720204073 12.905636701149879
    vertex -11.571090071086367 198.5767800510094 16.052953594262643
  endloop
endfacet
facet normal -0.07661012807770726 0.4244168240547413 -0.9022201769718987
  outer loop
    vertex -9.818406957930124 184.32597124511088 6.205889290654032
    vertex -9.846594139101722 181.7871812700719 5.014000900175438
    vertex -10.506191769039825 181.7736252090437 5.063632286929969
  endloop
endfacet
facet normal -0.5492380516711765 0.04042453498486145 -0.8346876179551891
  outer loop
    vertex -11.978076822924173 162.19969595701548 0.7116485159945134
    vertex -12.590106073061595 157.1920879407202 0.8718515962721697
    vertex -12.53093698049855 162.1769808093056 1.0743393957886997
  endloop
endfacet
facet normal -0.3945822931088329 0.8083298320849014 -0.4369298530960896
  outer loop
    vertex -11.036921457842459 213.90454651107962 35.761957401607845
    vertex -10.838116474728244 211.5843803247779 31.290062299784086
    vertex -11.445914279794104 211.3609118676067 31.42553034068008
  endloop
endfacet
facet normal -0.6760624285815058 0.4199294122302436 -0.6054740963942541
  outer loop
    vertex -12.167117450894215 194.4574581174288 13.197718859427859
    vertex -12.211325312817094 190.334823666531 10.387808084642414
    vertex -12.698451347719217 190.10140913596592 10.769839264725121
  endloop
endfacet
facet normal -0.2738343405908862 0.6584230074883318 0.7010662572989622
  outer loop
    vertex -6.444640813867728 215.21373828099522 45.771184910265646
    vertex -6.894480068045751 215.64724408195963 45.18834181302598
    vertex -6.978317452726131 215.17514960601022 45.598973913380604
  endloop
endfacet
facet normal -0.24353423889065204 0.19533083014873032 -0.9500194425807079
  outer loop
    vertex -10.615002830047523 172.18735246076434 1.8928860435962984
    vertex -11.313876782565421 167.21702746953065 1.050105428112538
    vertex -11.25668304148073 172.1560880257023 2.0509503811427603
  endloop
endfacet
facet normal -0.2395907140777292 0.5485526921803006 -0.8010532027459026
  outer loop
    vertex -10.36271588532831 194.91058425667916 12.56084832820823
    vertex -10.407485953496776 190.73552036907594 9.715199580841876
    vertex -11.049702350885081 190.65633123921845 9.85305518704806
  endloop
endfacet
facet normal -0.8792981380417211 0.35767131677511305 -0.31449326478117007
  outer loop
    vertex -12.951431876490457 204.56795837257553 24.084388722501245
    vertex -13.298895201256293 200.86480053866265 20.844289177328644
    vertex -13.26646130103011 204.12190899507812 24.457896620394035
  endloop
endfacet
facet normal -0.7293237123801422 0.6830632278709291 0.03887864826090363
  outer loop
    vertex -11.936848871671943 214.28779767305403 40.49754142517255
    vertex -12.030126791612643 214.2697261251699 39.06524396847613
    vertex -12.35729801600395 213.90440359448493 39.34623766438129
  endloop
endfacet
facet normal -0.2453432510460355 0.042254606155396605 -0.9685149649978644
  outer loop
    vertex -10.731163021875405 162.21951461310627 0.2832626493019124
    vertex -10.791084750095958 157.17121263843003 0.07819341726999868
    vertex -11.432310041097937 157.17874505709509 0.2409565986647163
  endloop
endfacet
facet normal -0.9871084619129387 0.09723486940241091 -0.12713089550604348
  outer loop
    vertex -13.58780823935076 193.16974825532938 14.954511275447473
    vertex -13.630470599769577 189.1912413831945 12.242839830187727
    vertex -13.73588490195469 188.84599741390628 12.797273094795036
  endloop
endfacet
facet normal -0.5492406431186106 0.04042490684071378 -0.8346858947254199
  outer loop
    vertex -11.978076822924173 162.19969595701548 0.7116485159945134
    vertex -12.037590541764462 157.1857685529712 0.5079788528569796
    vertex -12.590106073061595 157.1920879407202 0.8718515962721697
  endloop
endfacet
facet normal -0.08009138921442908 0.12051765980240135 -0.9894750441771917
  outer loop
    vertex -10.048883001922258 164.16708738628952 0.4652502187179321
    vertex -10.071761075162227 162.21606142604702 0.22946787367878016
    vertex -10.731163021875405 162.21951461310627 0.2832626493019124
  endloop
endfacet
facet normal -0.9478091066610934 0.09795008542927766 -0.30341996983504105
  outer loop
    vertex -13.564385453649372 176.338789829023 5.5214513919171
    vertex -13.828217274039213 171.51634923421736 4.788815809733054
    vertex -13.77532872170422 176.14401579520657 6.117509117774228
  endloop
endfacet
facet normal -0.5437211018709803 0.5298227930090772 -0.6508879868212868
  outer loop
    vertex -11.571090071086367 198.5767800510094 16.052953594262643
    vertex -11.612138445018747 194.6681720204073 12.905636701149879
    vertex -12.167117450894215 194.4574581174288 13.197718859427859
  endloop
endfacet
facet normal -0.6747012203794128 0.5512545263398622 -0.49081229651298
  outer loop
    vertex -12.055888845130418 205.30849676237315 23.461242405215
    vertex -12.577158384372808 201.65086814303785 20.06975619015571
    vertex -12.544135044653547 204.9671734548711 23.749059742844192
  endloop
endfacet
facet normal -0.9462212818478621 0.24448770867304212 -0.21187507188434082
  outer loop
    vertex -13.26646130103011 204.12190899507812 24.457896620394035
    vertex -13.298895201256293 200.86480053866265 20.844289177328644
    vertex -13.512568462907277 200.41782691699123 21.282767522657473
  endloop
endfacet
facet normal -0.8790651144768432 0.38147138482331944 -0.28587428543119037
  outer loop
    vertex -12.922726378305962 207.55551099262132 27.982717078522576
    vertex -12.951431876490457 204.56795837257553 24.084388722501245
    vertex -13.26646130103011 204.12190899507812 24.457896620394035
  endloop
endfacet
facet normal -0.5455533116092864 0.36111340706611034 -0.7562861174378692
  outer loop
    vertex -11.704204068331533 186.16314200615855 7.592043158029804
    vertex -11.754637412786801 181.62066148482364 5.459468590918185
    vertex -12.308791426195233 181.48548695874754 5.794668745530946
  endloop
endfacet
facet normal -0.9486693731000767 0.024070290193635442 -0.3153522501456139
  outer loop
    vertex -13.729665159884695 162.065783849318 2.6291728081610866
    vertex -13.99600885961494 157.20720325817092 3.059563477108269
    vertex -13.938908280910711 162.01782787187773 3.254975307000467
  endloop
endfacet
facet normal -0.40286548764372937 0.04192141238417619 -0.9142986350472674
  outer loop
    vertex -11.372543140514788 162.21400209210702 0.44548943018642256
    vertex -12.037590541764462 157.1857685529712 0.5079788528569796
    vertex -11.978076822924173 162.19969595701548 0.7116485159945134
  endloop
endfacet
facet normal -0.40200880487854346 0.1145000947011445 -0.9084484845678121
  outer loop
    vertex -11.313876782565421 167.21702746953065 1.050105428112538
    vertex -11.372543140514788 162.21400209210702 0.44548943018642256
    vertex -11.978076822924173 162.19969595701548 0.7116485159945134
  endloop
endfacet
facet normal 0.3433835015535754 0.9075047174039773 -0.2419151891682969
  outer loop
    vertex 15.149110565347847 215.10768321683526 39.337074276346996
    vertex 15.505474785860677 214.7231505210761 38.400400385350494
    vertex 14.664606119203935 215.20967134077483 39.03194201121478
  endloop
endfacet
facet normal 0.18302535283858842 0.6540510665086817 0.7339747424926599
  outer loop
    vertex 10.805120247552805 215.03582338111303 45.909497442070304
    vertex 10.079615254083029 215.55662634722393 45.626318858426046
    vertex 10.108076989457796 215.0795381356343 46.04435890352012
  endloop
endfacet
facet normal 0.8567494204483147 0.48480702637941203 -0.17590502475662498
  outer loop
    vertex 17.431814085327066 212.90111406983414 37.58320226080726
    vertex 17.70682009705966 212.4979536341701 37.8114858431504
    vertex 17.61074499588449 212.18673742916772 36.485815411153084
  endloop
endfacet
facet normal 0.94925867947572 0.3017284123523579 -0.08870132253432188
  outer loop
    vertex 17.917188855829348 212.06133175879094 38.04677712931339
    vertex 18.09535714901288 211.18528260971874 36.97349978168994
    vertex 17.934158942783913 211.6288564104496 36.75726875857601
  endloop
endfacet
facet normal 0.81807181094945 0.5636213594317855 0.11440924491558067
  outer loop
    vertex 16.660482522868218 213.9775347682445 40.643427643637295
    vertex 17.339669879781376 213.16614519767592 39.78416545443393
    vertex 17.08870166534328 213.5878912386939 39.5010147761706
  endloop
endfacet
facet normal 0.38340089000600247 0.9234168217163448 0.01746799684823113
  outer loop
    vertex 13.902893558314892 215.81469964898986 42.04093863165384
    vertex 14.620755022707938 215.53145315349911 41.25812730876736
    vertex 13.55096610070664 215.96985154981206 41.5634611768304
  endloop
endfacet
facet normal 0.2345939313327307 0.9602657856457629 0.1511797218544204
  outer loop
    vertex 11.502351115070994 216.3550774773834 43.573412538688025
    vertex 12.457376126889256 216.1939891256633 43.11465101584693
    vertex 11.311549647275918 216.49373783949642 42.98874460806834
  endloop
endfacet
facet normal 0.3213319401100103 0.9254070387496963 -0.20091689052355668
  outer loop
    vertex 14.211174384705416 215.54365029760234 39.845036311364744
    vertex 15.149110565347847 215.10768321683526 39.337074276346996
    vertex 14.664606119203935 215.20967134077483 39.03194201121478
  endloop
endfacet
facet normal 0.3794747315720425 0.9252013868110162 0.001149757060749028
  outer loop
    vertex 13.55096610070664 215.96985154981206 41.5634611768304
    vertex 14.620755022707938 215.53145315349911 41.25812730876736
    vertex 14.224260019873427 215.69460464974125 40.833554301235495
  endloop
endfacet
facet normal 0.32897715793233334 0.9256379534684175 -0.18699841886380944
  outer loop
    vertex 14.668326409156213 215.4559476760833 40.21515547638597
    vertex 15.149110565347847 215.10768321683526 39.337074276346996
    vertex 14.211174384705416 215.54365029760234 39.845036311364744
  endloop
endfacet
facet normal 0.5646551703157774 0.7249688849841346 -0.3944422067179439
  outer loop
    vertex 16.70238766870798 213.10787231400428 36.03913407396687
    vertex 16.722588505007316 210.71049148677596 31.66176276549633
    vertex 16.274093406607317 213.37210523810734 35.91166819863127
  endloop
endfacet
facet normal 0.23605755038744825 0.9614886045836559 0.1407710771460234
  outer loop
    vertex 12.457376126889256 216.1939891256633 43.11465101584693
    vertex 12.200965712377169 216.33777234226392 42.562560973460606
    vertex 11.311549647275918 216.49373783949642 42.98874460806834
  endloop
endfacet
facet normal 0.30500587570531956 0.939811480510859 -0.15403180478465572
  outer loop
    vertex 13.795669621565255 215.77206833960565 40.41594765147516
    vertex 14.668326409156213 215.4559476760833 40.21515547638597
    vertex 14.211174384705416 215.54365029760234 39.845036311364744
  endloop
endfacet
facet normal 0.7590672367330893 0.572287278367486 -0.31032918189742936
  outer loop
    vertex 17.088726664863614 212.795733266971 36.19017825082004
    vertex 17.21535326203117 212.66275381492622 36.25467638276176
    vertex 17.201122263677295 210.31623688272404 31.892585569732617
  endloop
endfacet
facet normal 0.8375505301789917 0.4800053047346239 -0.2609674631510809
  outer loop
    vertex 17.426498811234012 212.4410336706557 36.36222933509689
    vertex 17.61074499588449 212.18673742916772 36.485815411153084
    vertex 17.597114803146365 209.85921390764622 32.160986565628384
  endloop
endfacet
facet normal 0.9017065285332082 0.3790075780912328 -0.20803507432644353
  outer loop
    vertex 17.709924130701292 212.0498571869428 36.55234413495603
    vertex 17.934158942783913 211.6288564104496 36.75726875857601
    vertex 17.899561211059105 209.3521490794823 32.45950149507031
  endloop
endfacet
facet normal 0.30815572051364243 0.9407141722995733 -0.14176352827665645
  outer loop
    vertex 14.224260019873427 215.69460464974125 40.833554301235495
    vertex 14.668326409156213 215.4559476760833 40.21515547638597
    vertex 13.795669621565255 215.77206833960565 40.41594765147516
  endloop
endfacet
facet normal 0.9829151568227448 0.1606090362787516 -0.08990290292159477
  outer loop
    vertex 18.09535714901288 211.18528260971874 36.97349978168994
    vertex 18.114421231019133 211.0936446075394 37.01822007222191
    vertex 18.10005281861791 208.8090966695571 32.77984777724835
  endloop
endfacet
facet normal 0.9879696169564897 0.1546474494347399 -0.0004498379448470578
  outer loop
    vertex 18.129767453824623 211.12022281966009 38.520963425566826
    vertex 18.15364051331844 210.96739181150397 38.411883783077776
    vertex 18.190763970406852 210.72669464102898 37.19732234683826
  endloop
endfacet
facet normal 0.9960742673053269 0.07589522828217975 -0.045562795526087566
  outer loop
    vertex 18.190763970406852 210.72669464102898 37.19732234683826
    vertex 18.21252166698028 210.50589286604932 37.30518404625083
    vertex 18.193021515522297 208.2451609613618 33.113115476675105
  endloop
endfacet
facet normal 0.08017729808074163 -0.006371184012481095 -0.9967602564743194
  outer loop
    vertex 12.498231216545694 6.003231102498024 0.0014535874839093131
    vertex 11.798736379029899 5.142375846388938 -0.04930981175878952
    vertex 11.877516614856644 6.010681245260855 -0.04852300974655912
  endloop
endfacet
facet normal 0.18591463080547513 0.6564927356828214 0.7310629508107693
  outer loop
    vertex 10.805120247552805 215.03582338111303 45.909497442070304
    vertex 10.758729310414202 215.51191839162178 45.49376284410456
    vertex 10.079615254083029 215.55662634722393 45.626318858426046
  endloop
endfacet
facet normal -0.39000975709815117 -0.5906899828501885 0.7063835597808639
  outer loop
    vertex -7.2819796270109745 209.8756110381581 45.48555375104979
    vertex -7.324339454756945 210.23722702633782 45.764555425136685
    vertex -8.28693364587121 210.3549254617985 45.3315076345968
  endloop
endfacet
facet normal -0.07917909185840906 0.19885978855530978 -0.9768241683681946
  outer loop
    vertex -9.968278122101392 171.08907989112475 1.6168800491064366
    vertex -10.672344780860007 167.23549261870141 0.8894449440636563
    vertex -10.615002830047523 172.18735246076434 1.8928860435962984
  endloop
endfacet
facet normal -0.8808782760263444 0.2091358325522522 -0.4246359221351061
  outer loop
    vertex -13.15103089113023 185.5622324857248 8.780488331557068
    vertex -13.200390265662088 181.11648259288978 6.693321518261003
    vertex -13.513058300688213 180.8928747841081 7.231801808053496
  endloop
endfacet
facet normal -0.24442563773325285 0.11916241274511388 -0.9623182566113228
  outer loop
    vertex -10.672344780860007 167.23549261870141 0.8894449440636563
    vertex -11.372543140514788 162.21400209210702 0.44548943018642256
    vertex -11.313876782565421 167.21702746953065 1.050105428112538
  endloop
endfacet
facet normal -0.26079472163074435 -0.4557077043372667 0.8510679181929024
  outer loop
    vertex -4.408638697591858 209.82770477605993 46.44263883148745
    vertex -4.447435912651015 209.97043236790498 46.50717416779822
    vertex -4.534432852356829 209.67772134620162 46.32378221156123
  endloop
endfacet
facet normal -0.8937628988743808 0.32360992683859635 0.3105873401270272
  outer loop
    vertex -3.6304786300966843 147.71625140298036 9.175304292363144
    vertex -3.6706566154306755 147.71532335087545 9.060652916828289
    vertex -3.708673155741331 147.59273813108467 9.07897955155989
  endloop
endfacet
facet normal -0.23830450122945707 0.6686559288012853 -0.7043509164987793
  outer loop
    vertex -10.283758710763534 202.51677305951557 19.20177875851428
    vertex -10.96382462664284 198.74587288089066 15.852067787459331
    vertex -10.92629438947417 202.40717827383972 19.315128424652674
  endloop
endfacet
facet normal -0.4453139975319135 -0.4252667156302049 0.7879363325670706
  outer loop
    vertex -10.621679455114288 -1.0381790860316633 7.153848782879553
    vertex -11.101490042154397 -0.3292541661484289 7.265299160409528
    vertex -11.24052610713619 -0.6738982608801672 7.0007087874198195
  endloop
endfacet
facet normal -0.17307261922097186 0.7677222368407072 0.616967126787395
  outer loop
    vertex -5.182827924267188 215.74344552567106 45.61575007220258
    vertex -5.132407179340894 216.14691662920805 45.127835441664566
    vertex -6.280709622126598 216.08914411969235 44.87760092430646
  endloop
endfacet
facet normal -0.6424080799589438 0.7083671885999817 0.2924513376929938
  outer loop
    vertex -10.345595662170362 215.0290955502502 42.905002260760426
    vertex -10.102005274571978 215.41589568981814 42.50318466214977
    vertex -10.839492089270161 215.12701383149437 41.58291853880074
  endloop
endfacet
facet normal -0.43471713821515695 -0.7826351483429344 0.4455370179011588
  outer loop
    vertex -10.677597445803025 209.61943054763975 42.590090151431106
    vertex -11.172842084949856 209.46829732369588 41.84139028591022
    vertex -10.363157705285442 209.34752246163896 42.419257026402505
  endloop
endfacet
facet normal -0.25592270038535536 -0.7103629567344851 0.6556584790322685
  outer loop
    vertex -5.017043015859354 209.41441789187084 45.989767825014034
    vertex -6.0283829788732834 209.6471391106618 45.847150404119965
    vertex -5.0860823351851145 209.10313569354898 45.625565912814594
  endloop
endfacet
facet normal -0.052921792898310935 0.7708772414977013 0.6347815075892831
  outer loop
    vertex -3.9570964322253563 215.75247010953373 45.704836177470334
    vertex -3.951388890241374 216.1569045140969 45.214167780427026
    vertex -5.132407179340894 216.14691662920805 45.127835441664566
  endloop
endfacet
facet normal -0.8563278012258749 -0.039318761027372875 0.5149337160052068
  outer loop
    vertex -15.319049152509352 6.331068737690519 5.66221515154384
    vertex -15.518621367311102 5.162131547340919 5.241072796343831
    vertex -15.243386864500458 5.211454455474599 5.702550195988441
  endloop
endfacet
facet normal -0.5210633449589775 -0.4995615931304072 0.6920485569735488
  outer loop
    vertex -11.347710230298649 -0.9879634214962415 6.687675350570575
    vertex -11.821512033591327 -0.25961732816158795 6.856699591841784
    vertex -11.954797279104724 -0.554236359790858 6.543671833189258
  endloop
endfacet
facet normal -0.9468078593786468 0.18810904030517084 -0.26109359696149653
  outer loop
    vertex -13.37491671564793 193.54141293337153 14.450271096955037
    vertex -13.630470599769577 189.1912413831945 12.242839830187727
    vertex -13.58780823935076 193.16974825532938 14.954511275447473
  endloop
endfacet
facet normal -0.4390200460592022 -0.7759406464946348 0.452965244004067
  outer loop
    vertex -10.363157705285442 209.34752246163896 42.419257026402505
    vertex -11.172842084949856 209.46829732369588 41.84139028591022
    vertex -10.822295651392816 209.20051166244045 41.722421185247946
  endloop
endfacet
facet normal -0.9218776470476467 0.023693502255614514 0.38675602364379263
  outer loop
    vertex -6.0114334302614285 19.53686911650333 9.074636901834879
    vertex -6.035125307750746 18.606239714292453 9.075176925916374
    vertex -5.973185083235661 19.533019674779148 9.166042079141981
  endloop
endfacet
facet normal -0.8674889899155146 0.022372825771258816 0.49695302498563093
  outer loop
    vertex -6.0114334302614285 19.53686911650333 9.074636901834879
    vertex -6.084244579256313 18.603912225806653 8.989538339189581
    vertex -6.035125307750746 18.606239714292453 9.075176925916374
  endloop
endfacet
