solid motor bracket
facet normal -0.0 1.0 -0.0
  outer loop
    vertex 135.4997844788163 149.84818736656163 51.77138876360422
    vertex 138.4997844788163 149.84818736656163 3.0684760288224307e-13
    vertex 135.4997844788163 149.84818736656163 3.0684760288224307e-13
  endloop
endfacet
facet normal -0.0 1.0 -0.0
  outer loop
    vertex 138.4997844788163 149.84818736656163 3.0684760288224307e-13
    vertex 135.4997844788163 149.84818736656163 51.77138876360422
    vertex 138.4997844788163 149.84818736656163 51.77138876360422
  endloop
endfacet
facet normal -0.0 1.0 -0.0
  outer loop
    vertex 105.94253390880768 117.96414710680199 42.0000000000003
    vertex 135.4997844788163 117.96414710680199 31.035113098509314
    vertex 105.94253390880768 117.96414710680199 3.068874559079213e-13
  endloop
endfacet
facet normal -0.0 1.0 -0.0
  outer loop
    vertex 135.4997844788163 117.96414710680199 31.035113098509314
    vertex 105.94253390880768 117.96414710680199 42.0000000000003
    vertex 135.4997844788163 117.96414710680199 42.0000000000003
  endloop
endfacet
facet normal -4.101769429162616e-16 9.02389274414761e-15 -1.0
  outer loop
    vertex 131.44253390880738 69.9641471068014 29.000000000000377
    vertex 103.9425339088084 69.96414710680084 29.000000000000387
    vertex 103.94253390880851 72.46414710680241 29.00000000000041
  endloop
endfacet
facet normal -2.4610616574973667e-15 -1.3535839116234601e-14 -1.0
  outer loop
    vertex 131.44253390880738 69.9641471068014 29.000000000000377
    vertex 103.94253390880851 72.46414710680241 29.00000000000041
    vertex 131.4425339088073 72.46414710680057 29.00000000000034
  endloop
endfacet
facet normal -1.0 -2.9005369534776376e-14 -2.900536953477645e-14
  outer loop
    vertex 103.94253390880813 76.96414710680106 1.4433031048581047e-13
    vertex 103.94253390880833 69.96414710680043 3.0236740817838174e-13
    vertex 103.94253390880813 72.96414710680104 4.000000000000161
  endloop
endfacet
facet normal -1.0 -5.842392097175416e-14 -6.941455957037803e-15
  outer loop
    vertex 103.94253390880813 72.96414710680104 4.000000000000161
    vertex 103.94253390880833 69.96414710680043 3.0236740817838174e-13
    vertex 103.94253390880824 69.96414710680111 13.000000000000458
  endloop
endfacet
facet normal -1.0 1.082867129297829e-13 4.862875534347135e-14
  outer loop
    vertex 103.94253390880813 72.96414710680104 4.000000000000161
    vertex 103.94253390880824 69.96414710680111 13.000000000000458
    vertex 103.94253390880851 72.46414710680241 13.000000000000453
  endloop
endfacet
facet normal -1.0 -5.263937434088686e-14 -5.938721734200996e-28
  outer loop
    vertex 103.94253390880824 72.96414710680115 38.0000000000005
    vertex 103.9425339088084 69.96414710680084 29.000000000000387
    vertex 103.9425339088084 69.9641471068007 42.00000000000043
  endloop
endfacet
facet normal -1.0 -2.255973186038191e-14 2.2559731860381914e-14
  outer loop
    vertex 103.94253390880824 76.96414710680118 42.00000000000052
    vertex 103.94253390880824 72.96414710680115 38.0000000000005
    vertex 103.9425339088084 69.9641471068007 42.00000000000043
  endloop
endfacet
facet normal -1.0 4.5119463720738225e-14 -3.25862793538786e-14
  outer loop
    vertex 103.94253390880824 72.96414710680115 38.0000000000005
    vertex 103.94253390880851 72.46414710680241 29.00000000000041
    vertex 103.9425339088084 69.96414710680084 29.000000000000387
  endloop
endfacet
facet normal -1.0 -5.414335646505655e-13 3.757652654822279e-30
  outer loop
    vertex 103.94253390880824 72.96414710680115 38.0000000000005
    vertex 103.94253390880851 72.46414710680241 13.000000000000453
    vertex 103.94253390880851 72.46414710680241 29.00000000000041
  endloop
endfacet
facet normal -1.0 -7.073139459774477e-13 3.3176076265292514e-15
  outer loop
    vertex 103.94253390880824 72.96414710680115 38.0000000000005
    vertex 103.94253390880813 72.96414710680104 4.000000000000161
    vertex 103.94253390880851 72.46414710680241 13.000000000000453
  endloop
endfacet
facet normal -1.0 -3.6095570976625365e-14 -6.114452399900015e-28
  outer loop
    vertex 131.4425339088073 72.46414710680057 29.00000000000034
    vertex 131.44253390880738 69.96414710680168 13.000000000000377
    vertex 131.44253390880738 69.9641471068014 29.000000000000377
  endloop
endfacet
facet normal -1.0 -3.6095570976629284e-14 1.2024488495381195e-30
  outer loop
    vertex 131.4425339088073 72.46414710680057 13.000000000000338
    vertex 131.44253390880738 69.96414710680168 13.000000000000377
    vertex 131.4425339088073 72.46414710680057 29.00000000000034
  endloop
endfacet
facet normal -1.0 -3.3176076265269534e-15 3.3176076265269435e-15
  outer loop
    vertex 131.44253390880743 76.96414710680197 42.00000000000033
    vertex 131.44253390880732 72.96414710680196 4.000000000000347
    vertex 131.44253390880743 72.96414710680196 38.0000000000003
  endloop
endfacet
facet normal -1.0 2.6856823643313318e-15 2.6856823643313306e-15
  outer loop
    vertex 131.44253390880732 76.96414710680197 3.230515696972046e-13
    vertex 131.44253390880732 72.96414710680196 4.000000000000347
    vertex 131.44253390880743 76.96414710680197 42.00000000000033
  endloop
endfacet
facet normal -1.0 -3.31760762652694e-15 2.68568236433133e-15
  outer loop
    vertex 131.44253390880732 110.96414710680196 42.00000000000033
    vertex 131.44253390880732 76.96414710680197 3.230515696972046e-13
    vertex 131.44253390880743 76.96414710680197 42.00000000000033
  endloop
endfacet
facet normal -1.0 1.990564575916165e-15 -1.6114094185987994e-15
  outer loop
    vertex 131.44253390880738 110.96414710680196 3.4515474699382165e-13
    vertex 131.44253390880732 76.96414710680197 3.230515696972046e-13
    vertex 131.44253390880732 110.96414710680196 42.00000000000033
  endloop
endfacet
facet normal -1.0 -1.611409418598809e-15 -1.6114094185987994e-15
  outer loop
    vertex 131.44253390880732 114.96414710680193 38.00000000000033
    vertex 131.44253390880738 110.96414710680196 3.4515474699382165e-13
    vertex 131.44253390880732 110.96414710680196 42.00000000000033
  endloop
endfacet
facet normal -1.0 1.990564575916178e-15 -1.990564575916164e-15
  outer loop
    vertex 131.44253390880738 114.96414710680193 4.0000000000003455
    vertex 131.44253390880738 110.96414710680196 3.4515474699382165e-13
    vertex 131.44253390880732 114.96414710680193 38.00000000000033
  endloop
endfacet
facet normal -3.3634509319117725e-14 1.0 -3.317607626526792e-15
  outer loop
    vertex 103.94253390880824 72.96414710680115 38.0000000000005
    vertex 131.44253390880732 72.96414710680196 4.000000000000347
    vertex 103.94253390880813 72.96414710680104 4.000000000000161
  endloop
endfacet
facet normal -2.953273988995704e-14 1.0 9.239472675609379e-29
  outer loop
    vertex 103.94253390880824 72.96414710680115 38.0000000000005
    vertex 131.44253390880743 72.96414710680196 38.0000000000003
    vertex 131.44253390880732 72.96414710680196 4.000000000000347
  endloop
endfacet
facet normal 2.9737828361414646e-15 2.2559731860368157e-15 1.0
  outer loop
    vertex 131.44253390880738 69.96414710680168 13.000000000000377
    vertex 103.94253390880851 72.46414710680241 13.000000000000453
    vertex 103.94253390880824 69.96414710680111 13.000000000000458
  endloop
endfacet
facet normal 4.204313664890842e-15 1.5791812302275457e-14 1.0
  outer loop
    vertex 131.44253390880738 69.96414710680168 13.000000000000377
    vertex 131.4425339088073 72.46414710680057 13.000000000000338
    vertex 103.94253390880851 72.46414710680241 13.000000000000453
  endloop
endfacet
facet normal 7.1780965010316e-15 -1.2891275348789335e-14 1.0
  outer loop
    vertex 131.44253390880743 76.96414710680197 42.00000000000033
    vertex 103.94253390880824 76.96414710680118 42.00000000000052
    vertex 103.9425339088084 69.9641471068007 42.00000000000043
  endloop
endfacet
facet normal 3.210852927775681e-15 2.6810512114317816e-15 1.0
  outer loop
    vertex 135.4997844788163 69.96414710680176 42.00000000000033
    vertex 131.44253390880743 76.96414710680197 42.00000000000033
    vertex 103.9425339088084 69.9641471068007 42.00000000000043
  endloop
endfacet
facet normal 3.210852927775681e-15 2.6810512114317816e-15 1.0
  outer loop
    vertex 131.44253390880743 76.96414710680197 42.00000000000033
    vertex 135.4997844788163 69.96414710680176 42.00000000000033
    vertex 135.4997844788163 72.23068810845882 42.00000000000033
  endloop
endfacet
facet normal 2.162358204264489e-16 1.8534498893697708e-16 1.0
  outer loop
    vertex 135.4997844788163 102.6600673835227 42.00000000000032
    vertex 131.44253390880743 76.96414710680197 42.00000000000033
    vertex 135.4997844788163 72.23068810845882 42.00000000000033
  endloop
endfacet
facet normal -0.0 -0.0 1.0
  outer loop
    vertex 105.94253390880768 117.96414710680199 42.0000000000003
    vertex 103.94253390880748 126.96414710680193 42.0000000000003
    vertex 103.94253390880743 110.96414710680196 42.0000000000003
  endloop
endfacet
facet normal -8.203538858321193e-16 2.343868245234902e-16 1.0
  outer loop
    vertex 131.44253390880732 110.96414710680196 42.00000000000033
    vertex 105.94253390880768 117.96414710680199 42.0000000000003
    vertex 103.94253390880743 110.96414710680196 42.0000000000003
  endloop
endfacet
facet normal -1.4358842457272463e-16 2.7478264853087804e-15 1.0
  outer loop
    vertex 131.44253390880732 110.96414710680196 42.00000000000033
    vertex 135.4997844788163 115.14917086203931 42.00000000000031
    vertex 105.94253390880768 117.96414710680199 42.0000000000003
  endloop
endfacet
facet normal -1.4358842457272463e-16 2.7478264853087804e-15 1.0
  outer loop
    vertex 135.4997844788163 115.14917086203931 42.00000000000031
    vertex 131.44253390880732 110.96414710680196 42.00000000000033
    vertex 135.4997844788163 113.66898082014103 42.00000000000032
  endloop
endfacet
facet normal -3.473914070676896e-32 4.007090983868162e-15 1.0
  outer loop
    vertex 135.4997844788163 117.96414710680199 42.0000000000003
    vertex 105.94253390880768 117.96414710680199 42.0000000000003
    vertex 135.4997844788163 115.14917086203931 42.00000000000031
  endloop
endfacet
facet normal 1.390087417027172e-15 4.178925580154349e-30 1.0
  outer loop
    vertex 131.44253390880743 76.96414710680197 42.00000000000033
    vertex 135.4997844788163 113.66898082014103 42.00000000000032
    vertex 131.44253390880732 110.96414710680196 42.00000000000033
  endloop
endfacet
facet normal 1.390087417027172e-15 4.178925580154349e-30 1.0
  outer loop
    vertex 135.4997844788163 113.66898082014103 42.00000000000032
    vertex 131.44253390880743 76.96414710680197 42.00000000000033
    vertex 135.4997844788163 102.6600673835227 42.00000000000032
  endloop
endfacet
facet normal -1.0 2.819966482547902e-15 2.8199664825478813e-15
  outer loop
    vertex 103.94253390880748 126.96414710680193 42.0000000000003
    vertex 103.94253390880743 114.96414710680193 38.000000000000306
    vertex 103.94253390880743 110.96414710680196 42.0000000000003
  endloop
endfacet
facet normal -1.0 3.981129151832317e-15 -6.635215253053604e-16
  outer loop
    vertex 103.94253390880748 126.96414710680193 42.0000000000003
    vertex 103.94253390880745 114.96414710680213 4.000000000000113
    vertex 103.94253390880743 114.96414710680193 38.000000000000306
  endloop
endfacet
facet normal -2.596597310566246e-14 0.7071067811865486 -0.7071067811865466
  outer loop
    vertex 131.44253390880743 76.96414710680197 42.00000000000033
    vertex 131.44253390880743 72.96414710680196 38.0000000000003
    vertex 103.94253390880824 72.96414710680115 38.0000000000005
  endloop
endfacet
facet normal -2.568115438786722e-14 0.7071067811865476 -0.7071067811865475
  outer loop
    vertex 103.94253390880824 76.96414710680118 42.00000000000052
    vertex 131.44253390880743 76.96414710680197 42.00000000000033
    vertex 103.94253390880824 72.96414710680115 38.0000000000005
  endloop
endfacet
facet normal -7.383184972489011e-15 -1.0 -5.97169372774846e-15
  outer loop
    vertex 103.94253390880743 114.96414710680193 38.000000000000306
    vertex 103.94253390880745 114.96414710680213 4.000000000000113
    vertex 131.44253390880738 114.96414710680193 4.0000000000003455
  endloop
endfacet
facet normal 0.0 -1.0 0.0
  outer loop
    vertex 131.44253390880732 114.96414710680193 38.00000000000033
    vertex 103.94253390880743 114.96414710680193 38.000000000000306
    vertex 131.44253390880738 114.96414710680193 4.0000000000003455
  endloop
endfacet
facet normal 8.617349258408897e-15 2.5925016429074725e-14 -1.0
  outer loop
    vertex 131.44253390880738 110.96414710680196 3.4515474699382165e-13
    vertex 103.94253390880745 110.96414710680212 1.0817764238758173e-13
    vertex 105.94253390880768 117.96414710680199 3.068874559079213e-13
  endloop
endfacet
facet normal 5.063275822925582e-14 1.3920613865974063e-14 -1.0
  outer loop
    vertex 105.94253390880768 117.96414710680199 3.068874559079213e-13
    vertex 103.94253390880745 110.96414710680212 1.0817764238758173e-13
    vertex 103.94253390880748 126.96414710680193 3.309074642431653e-13
  endloop
endfacet
facet normal -1.1181060931564864e-16 -5.834191783121067e-15 -1.0
  outer loop
    vertex 135.4997844788163 115.14917086203931 3.184524032922753e-13
    vertex 131.44253390880738 110.96414710680196 3.4515474699382165e-13
    vertex 105.94253390880768 117.96414710680199 3.068874559079213e-13
  endloop
endfacet
facet normal -1.1181060931564864e-16 -5.834191783121067e-15 -1.0
  outer loop
    vertex 131.44253390880738 110.96414710680196 3.4515474699382165e-13
    vertex 135.4997844788163 115.14917086203931 3.184524032922753e-13
    vertex 135.4997844788163 113.66898082014103 3.2761241355265794e-13
  endloop
endfacet
facet normal -1.1181060931564864e-16 -5.834191783121067e-15 -1.0
  outer loop
    vertex 135.4997844788163 113.66898082014103 3.2761241355265794e-13
    vertex 135.4997844788163 115.14917086203931 3.184524032922753e-13
    vertex 135.4997844788163 114.96414710680205 3.235569472157875e-13
  endloop
endfacet
facet normal -6.937968208791102e-19 -4.115648980124935e-15 -1.0
  outer loop
    vertex 135.4997844788163 115.14917086203931 3.184524032922753e-13
    vertex 105.94253390880768 117.96414710680199 3.068874559079213e-13
    vertex 135.4997844788163 117.96414710680199 3.0686694918144187e-13
  endloop
endfacet
facet normal 6.498954880415274e-15 -2.2576728241793635e-14 -1.0
  outer loop
    vertex 131.44253390880732 76.96414710680197 3.230515696972046e-13
    vertex 103.94253390880833 69.96414710680043 3.0236740817838174e-13
    vertex 103.94253390880813 76.96414710680106 1.4433031048581047e-13
  endloop
endfacet
facet normal 6.888015777972367e-16 2.4887401848559395e-16 -1.0
  outer loop
    vertex 131.44253390880732 76.96414710680197 3.230515696972046e-13
    vertex 135.4997844788163 69.96414710680175 3.2410409216194635e-13
    vertex 103.94253390880833 69.96414710680043 3.0236740817838174e-13
  endloop
endfacet
facet normal 6.888015777972367e-16 2.4887401848559395e-16 -1.0
  outer loop
    vertex 135.4997844788163 69.96414710680175 3.2410409216194635e-13
    vertex 131.44253390880732 76.96414710680197 3.230515696972046e-13
    vertex 135.4997844788163 72.23068810845878 3.2466817532909104e-13
  endloop
endfacet
facet normal 1.1568909144478981e-15 6.500934499004991e-16 -1.0
  outer loop
    vertex 131.44253390880738 110.96414710680196 3.4515474699382165e-13
    vertex 135.4997844788163 72.23068810845878 3.2466817532909104e-13
    vertex 131.44253390880732 76.96414710680197 3.230515696972046e-13
  endloop
endfacet
facet normal 1.1568909144478981e-15 6.500934499004991e-16 -1.0
  outer loop
    vertex 135.4997844788163 72.23068810845878 3.2466817532909104e-13
    vertex 131.44253390880738 110.96414710680196 3.4515474699382165e-13
    vertex 135.4997844788163 83.23960154507816 3.3182499784475895e-13
  endloop
endfacet
facet normal -4.231407749620528e-15 -1.3843806191450144e-16 -1.0
  outer loop
    vertex 135.4997844788163 83.23960154507816 3.3182499784475895e-13
    vertex 131.44253390880738 110.96414710680196 3.4515474699382165e-13
    vertex 135.4997844788163 113.66898082014103 3.2761241355265794e-13
  endloop
endfacet
facet normal -1.0158534268028329e-14 -0.7071067811865467 0.7071067811865483
  outer loop
    vertex 131.44253390880738 110.96414710680196 3.4515474699382165e-13
    vertex 103.94253390880745 114.96414710680213 4.000000000000113
    vertex 103.94253390880745 110.96414710680212 1.0817764238758173e-13
  endloop
endfacet
facet normal -1.1210781197660655e-14 -0.7071067811865502 0.7071067811865448
  outer loop
    vertex 131.44253390880738 114.96414710680193 4.0000000000003455
    vertex 103.94253390880745 114.96414710680213 4.000000000000113
    vertex 131.44253390880738 110.96414710680196 3.4515474699382165e-13
  endloop
endfacet
facet normal -2.856889972106859e-14 0.7071067811865467 0.7071067811865483
  outer loop
    vertex 131.44253390880732 72.96414710680196 4.000000000000347
    vertex 103.94253390880813 76.96414710680106 1.4433031048581047e-13
    vertex 103.94253390880813 72.96414710680104 4.000000000000161
  endloop
endfacet
facet normal -2.8102113489126486e-14 0.7071067811865485 0.7071067811865467
  outer loop
    vertex 131.44253390880732 72.96414710680196 4.000000000000347
    vertex 131.44253390880732 76.96414710680197 3.230515696972046e-13
    vertex 103.94253390880813 76.96414710680106 1.4433031048581047e-13
  endloop
endfacet
facet normal 5.538141734906486e-16 -0.7071067811865499 -0.7071067811865451
  outer loop
    vertex 103.94253390880743 110.96414710680196 42.0000000000003
    vertex 103.94253390880743 114.96414710680193 38.000000000000306
    vertex 131.44253390880732 114.96414710680193 38.00000000000033
  endloop
endfacet
facet normal 5.77549066640248e-16 -0.7071067811865501 -0.7071067811865449
  outer loop
    vertex 131.44253390880732 110.96414710680196 42.00000000000033
    vertex 103.94253390880743 110.96414710680196 42.0000000000003
    vertex 131.44253390880732 114.96414710680193 38.00000000000033
  endloop
endfacet
facet normal -6.726901863823649e-14 -1.0 1.0176096048975536e-29
  outer loop
    vertex 131.4425339088073 72.46414710680057 29.00000000000034
    vertex 103.94253390880851 72.46414710680241 13.000000000000453
    vertex 131.4425339088073 72.46414710680057 13.000000000000338
  endloop
endfacet
facet normal -6.726901863823647e-14 -1.0 1.0176096048975592e-29
  outer loop
    vertex 103.94253390880851 72.46414710680241 29.00000000000041
    vertex 103.94253390880851 72.46414710680241 13.000000000000453
    vertex 131.4425339088073 72.46414710680057 29.00000000000034
  endloop
endfacet
facet normal 2.7801748340543803e-14 -1.0 1.4489826791594738e-31
  outer loop
    vertex 135.4997844788163 69.96414710680179 32.61004442170736
    vertex 131.44253390880738 69.96414710680168 13.000000000000377
    vertex 135.4997844788163 69.96414710680179 4.2092904316489195
  endloop
endfacet
facet normal 1.0809413187127725e-13 -1.0 -1.7380331340674726e-14
  outer loop
    vertex 135.4997844788163 69.96414710680179 32.61004442170736
    vertex 131.44253390880738 69.9641471068014 29.000000000000377
    vertex 131.44253390880738 69.96414710680168 13.000000000000377
  endloop
endfacet
facet normal 1.0809413187127725e-13 -1.0 -1.7380331340674726e-14
  outer loop
    vertex 131.44253390880738 69.9641471068014 29.000000000000377
    vertex 135.4997844788163 69.96414710680179 32.61004442170736
    vertex 135.4997844788163 69.96414710680168 37.790709568351765
  endloop
endfacet
facet normal 2.081793011771152e-14 -1.0 2.233317955869608e-14
  outer loop
    vertex 135.4997844788163 69.96414710680168 37.790709568351765
    vertex 103.9425339088084 69.96414710680084 29.000000000000387
    vertex 131.44253390880738 69.9641471068014 29.000000000000377
  endloop
endfacet
facet normal 2.081793011771152e-14 -1.0 2.233317955869608e-14
  outer loop
    vertex 103.9425339088084 69.96414710680084 29.000000000000387
    vertex 135.4997844788163 69.96414710680168 37.790709568351765
    vertex 135.4997844788163 69.96414710680178 41.24609723612286
  endloop
endfacet
facet normal 3.400330465440368e-14 -1.0 -1.1292207805819217e-14
  outer loop
    vertex 135.4997844788163 69.96414710680178 41.24609723612286
    vertex 103.9425339088084 69.9641471068007 42.00000000000043
    vertex 103.9425339088084 69.96414710680084 29.000000000000387
  endloop
endfacet
facet normal 3.400330465440368e-14 -1.0 -1.1292207805819217e-14
  outer loop
    vertex 103.9425339088084 69.9641471068007 42.00000000000043
    vertex 135.4997844788163 69.96414710680178 41.24609723612286
    vertex 135.4997844788163 69.96414710680176 42.00000000000033
  endloop
endfacet
facet normal 4.226522862365563e-14 -1.0 5.2951794040447306e-14
  outer loop
    vertex 135.4997844788163 69.96414710680175 3.2410409216194635e-13
    vertex 103.94253390880824 69.96414710680111 13.000000000000458
    vertex 103.94253390880833 69.96414710680043 3.0236740817838174e-13
  endloop
endfacet
facet normal 4.226522862365563e-14 -1.0 5.2951794040447306e-14
  outer loop
    vertex 103.94253390880824 69.96414710680111 13.000000000000458
    vertex 135.4997844788163 69.96414710680175 3.2410409216194635e-13
    vertex 135.4997844788163 69.96414710680179 0.7539027638777973
  endloop
endfacet
facet normal 2.0983580170976695e-14 -1.0 -2.4152492125060988e-15
  outer loop
    vertex 135.4997844788163 69.96414710680179 4.2092904316489195
    vertex 103.94253390880824 69.96414710680111 13.000000000000458
    vertex 135.4997844788163 69.96414710680179 0.7539027638777973
  endloop
endfacet
facet normal 2.0983580170976695e-14 -1.0 -2.4152492125060988e-15
  outer loop
    vertex 103.94253390880824 69.96414710680111 13.000000000000458
    vertex 135.4997844788163 69.96414710680179 4.2092904316489195
    vertex 131.44253390880738 69.96414710680168 13.000000000000377
  endloop
endfacet
facet normal 1.0 6.517255870777335e-15 -0.0
  outer loop
    vertex 137.44253390880792 114.96414710680202 3.1921254824843836e-13
    vertex 137.44253390880823 69.96414710680183 42.00000000000033
    vertex 137.44253390880823 69.96414710680183 3.2544226103458943e-13
  endloop
endfacet
facet normal 1.0 6.517255870777336e-15 5.515221284626614e-31
  outer loop
    vertex 137.44253390880792 114.96414710680202 42.00000000000032
    vertex 137.44253390880823 69.96414710680183 42.00000000000033
    vertex 137.44253390880792 114.96414710680202 3.1921254824843836e-13
  endloop
endfacet
facet normal 1.0 -0.0 -0.0
  outer loop
    vertex 138.4997844788163 114.96414710680205 3.180459090945381e-13
    vertex 138.4997844788163 15.848187366561717 51.77138876360422
    vertex 138.4997844788163 15.848187366561717 3.0684760288224307e-13
  endloop
endfacet
facet normal 1.0 -0.0 -0.0
  outer loop
    vertex 138.4997844788163 15.848187366561717 51.77138876360422
    vertex 138.4997844788163 114.96414710680205 3.180459090945381e-13
    vertex 138.4997844788163 149.84818736656163 51.77138876360422
  endloop
endfacet
facet normal 1.0 -0.0 -0.0
  outer loop
    vertex 138.4997844788163 149.84818736656163 51.77138876360422
    vertex 138.4997844788163 114.96414710680205 3.180459090945381e-13
    vertex 138.4997844788163 115.33729436680498 3.176760715912863e-13
  endloop
endfacet
facet normal 1.0 -0.0 -0.0
  outer loop
    vertex 138.4997844788163 149.84818736656163 51.77138876360422
    vertex 138.4997844788163 115.33729436680498 3.176760715912863e-13
    vertex 138.4997844788163 117.96414710680199 3.0686486779097925e-13
  endloop
endfacet
facet normal 1.0 -0.0 -0.0
  outer loop
    vertex 138.4997844788163 149.84818736656163 51.77138876360422
    vertex 138.4997844788163 117.96414710680199 3.0686486779097925e-13
    vertex 138.4997844788163 149.84818736656163 3.0684760288224307e-13
  endloop
endfacet
facet normal 0.0 -1.0 0.0
  outer loop
    vertex 138.4997844788163 15.848187366561717 51.77138876360422
    vertex 135.4997844788163 15.848187366561717 3.0684760288224307e-13
    vertex 138.4997844788163 15.848187366561717 3.0684760288224307e-13
  endloop
endfacet
facet normal 0.0 -1.0 0.0
  outer loop
    vertex 135.4997844788163 15.848187366561717 3.0684760288224307e-13
    vertex 138.4997844788163 15.848187366561717 51.77138876360422
    vertex 135.4997844788163 15.848187366561717 51.77138876360422
  endloop
endfacet
facet normal -0.0 -0.0 1.0
  outer loop
    vertex 138.4997844788163 15.848187366561717 51.77138876360422
    vertex 135.4997844788163 149.84818736656163 51.77138876360422
    vertex 135.4997844788163 15.848187366561717 51.77138876360422
  endloop
endfacet
facet normal -0.0 -0.0 1.0
  outer loop
    vertex 135.4997844788163 149.84818736656163 51.77138876360422
    vertex 138.4997844788163 15.848187366561717 51.77138876360422
    vertex 138.4997844788163 149.84818736656163 51.77138876360422
  endloop
endfacet
facet normal -1.0 -4.443474991022899e-32 7.918042933085381e-32
  outer loop
    vertex 135.4997844788163 15.848187366561717 51.77138876360422
    vertex 135.4997844788163 69.96414710680176 42.00000000000033
    vertex 135.4997844788163 15.848187366561717 3.0684760288224307e-13
  endloop
endfacet
facet normal -1.0 -4.443474991022899e-32 7.918042933085381e-32
  outer loop
    vertex 135.4997844788163 69.96414710680176 42.00000000000033
    vertex 135.4997844788163 15.848187366561717 51.77138876360422
    vertex 135.4997844788163 149.84818736656163 51.77138876360422
  endloop
endfacet
facet normal -1.0 -4.443474991022899e-32 7.918042933085381e-32
  outer loop
    vertex 135.4997844788163 15.848187366561717 3.0684760288224307e-13
    vertex 135.4997844788163 69.96414710680176 42.00000000000033
    vertex 135.4997844788163 69.96414710680168 37.790709568351765
  endloop
endfacet
facet normal -1.0 -4.443474991022899e-32 7.918042933085381e-32
  outer loop
    vertex 135.4997844788163 69.96414710680176 42.00000000000033
    vertex 135.4997844788163 149.84818736656163 51.77138876360422
    vertex 135.4997844788163 72.23068810845882 42.00000000000033
  endloop
endfacet
facet normal -1.0 -4.443474991022899e-32 7.918042933085381e-32
  outer loop
    vertex 135.4997844788163 72.23068810845882 42.00000000000033
    vertex 135.4997844788163 149.84818736656163 51.77138876360422
    vertex 135.4997844788163 102.6600673835227 42.00000000000032
  endloop
endfacet
facet normal -1.0 -4.443474991022899e-32 7.918042933085381e-32
  outer loop
    vertex 135.4997844788163 102.6600673835227 42.00000000000032
    vertex 135.4997844788163 149.84818736656163 51.77138876360422
    vertex 135.4997844788163 113.66898082014103 42.00000000000032
  endloop
endfacet
facet normal -1.0 -4.443474991022899e-32 7.918042933085381e-32
  outer loop
    vertex 135.4997844788163 113.66898082014103 42.00000000000032
    vertex 135.4997844788163 149.84818736656163 51.77138876360422
    vertex 135.4997844788163 115.14917086203931 42.00000000000031
  endloop
endfacet
facet normal -1.0 -4.443474991022899e-32 7.918042933085381e-32
  outer loop
    vertex 135.4997844788163 115.14917086203931 42.00000000000031
    vertex 135.4997844788163 149.84818736656163 51.77138876360422
    vertex 135.4997844788163 117.96414710680199 42.0000000000003
  endloop
endfacet
facet normal -1.0 -4.443474991022899e-32 7.918042933085381e-32
  outer loop
    vertex 135.4997844788163 117.96414710680199 42.0000000000003
    vertex 135.4997844788163 149.84818736656163 51.77138876360422
    vertex 135.4997844788163 117.96414710680199 31.035113098509314
  endloop
endfacet
facet normal -1.0 -4.443474991022899e-32 7.918042933085381e-32
  outer loop
    vertex 135.4997844788163 117.96414710680199 31.035113098509314
    vertex 135.4997844788163 149.84818736656163 51.77138876360422
    vertex 135.4997844788163 117.96414710680199 3.0686694918144187e-13
  endloop
endfacet
facet normal -1.0 -4.443474991022899e-32 7.918042933085381e-32
  outer loop
    vertex 135.4997844788163 117.96414710680199 3.0686694918144187e-13
    vertex 135.4997844788163 149.84818736656163 51.77138876360422
    vertex 135.4997844788163 149.84818736656163 3.0684760288224307e-13
  endloop
endfacet
facet normal -1.0 -4.443474991022899e-32 7.918042933085381e-32
  outer loop
    vertex 135.4997844788163 69.96414710680178 41.24609723612286
    vertex 135.4997844788163 69.96414710680168 37.790709568351765
    vertex 135.4997844788163 69.96414710680176 42.00000000000033
  endloop
endfacet
facet normal -1.0 -4.443474991022899e-32 7.918042933085381e-32
  outer loop
    vertex 135.4997844788163 69.96414710680168 37.790709568351765
    vertex 135.4997844788163 69.96414710680175 3.2410409216194635e-13
    vertex 135.4997844788163 15.848187366561717 3.0684760288224307e-13
  endloop
endfacet
facet normal -1.0 -4.443474991022899e-32 7.918042933085381e-32
  outer loop
    vertex 135.4997844788163 69.96414710680175 3.2410409216194635e-13
    vertex 135.4997844788163 69.96414710680168 37.790709568351765
    vertex 135.4997844788163 69.96414710680179 32.61004442170736
  endloop
endfacet
facet normal -1.0 -4.443474991022899e-32 7.918042933085381e-32
  outer loop
    vertex 135.4997844788163 69.96414710680175 3.2410409216194635e-13
    vertex 135.4997844788163 69.96414710680179 32.61004442170736
    vertex 135.4997844788163 69.96414710680179 0.7539027638777973
  endloop
endfacet
facet normal -1.0 -4.443474991022899e-32 7.918042933085381e-32
  outer loop
    vertex 135.4997844788163 69.96414710680179 0.7539027638777973
    vertex 135.4997844788163 69.96414710680179 32.61004442170736
    vertex 135.4997844788163 69.96414710680179 4.2092904316489195
  endloop
endfacet
facet normal -1.0 1.4099832412739848e-15 -1.4099832412739884e-15
  outer loop
    vertex 103.94253390880748 126.96414710680193 3.309074642431653e-13
    vertex 103.94253390880745 110.96414710680212 1.0817764238758173e-13
    vertex 103.94253390880745 114.96414710680213 4.000000000000113
  endloop
endfacet
facet normal 1.0 -0.0 -0.0
  outer loop
    vertex 105.94253390880768 124.96414710680197 3.068874559079213e-13
    vertex 105.94253390880768 117.96414710680199 42.0000000000003
    vertex 105.94253390880768 117.96414710680199 3.068874559079213e-13
  endloop
endfacet
facet normal 2.2559731860379658e-14 -1.0 0.0
  outer loop
    vertex 106.94253390880783 124.964147106802 42.0000000000003
    vertex 105.94253390880768 124.96414710680197 3.068874559079213e-13
    vertex 106.94253390880783 124.964147106802 3.068772472027376e-13
  endloop
endfacet
facet normal 2.2559731860379658e-14 -1.0 6.816603455423279e-32
  outer loop
    vertex 105.94253390880768 124.96414710680197 42.0000000000003
    vertex 105.94253390880768 124.96414710680197 3.068874559079213e-13
    vertex 106.94253390880783 124.964147106802 42.0000000000003
  endloop
endfacet
facet normal -3.759955310063416e-14 1.0 -4.847362457190251e-31
  outer loop
    vertex 106.94253390880783 126.96414710680205 42.0000000000003
    vertex 106.94253390880783 126.96414710680205 3.064894193986528e-13
    vertex 103.94253390880748 126.96414710680193 3.309074642431653e-13
  endloop
endfacet
facet normal -3.7599553100634194e-14 1.0 2.4236812285951293e-31
  outer loop
    vertex 106.94253390880783 126.96414710680205 42.0000000000003
    vertex 103.94253390880748 126.96414710680193 3.309074642431653e-13
    vertex 103.94253390880748 126.96414710680193 42.0000000000003
  endloop
endfacet
facet normal 1.0 -0.0 -0.0
  outer loop
    vertex 106.94253390880783 126.96414710680205 3.064894193986528e-13
    vertex 106.94253390880783 124.964147106802 42.0000000000003
    vertex 106.94253390880783 124.964147106802 3.068772472027376e-13
  endloop
endfacet
facet normal 1.0 -0.0 -0.0
  outer loop
    vertex 106.94253390880783 126.96414710680205 42.0000000000003
    vertex 106.94253390880783 124.964147106802 42.0000000000003
    vertex 106.94253390880783 126.96414710680205 3.064894193986528e-13
  endloop
endfacet
facet normal -0.0 -0.0 1.0
  outer loop
    vertex 106.94253390880783 126.96414710680205 42.0000000000003
    vertex 103.94253390880748 126.96414710680193 42.0000000000003
    vertex 105.94253390880768 124.96414710680197 42.0000000000003
  endloop
endfacet
facet normal -0.0 -0.0 1.0
  outer loop
    vertex 106.94253390880783 126.96414710680205 42.0000000000003
    vertex 105.94253390880768 124.96414710680197 42.0000000000003
    vertex 106.94253390880783 124.964147106802 42.0000000000003
  endloop
endfacet
facet normal -8.139348281503344e-15 3.870655886117945e-15 -1.0
  outer loop
    vertex 106.94253390880783 126.96414710680205 3.064894193986528e-13
    vertex 105.94253390880768 124.96414710680197 3.068874559079213e-13
    vertex 103.94253390880748 126.96414710680193 3.309074642431653e-13
  endloop
endfacet
facet normal -1.0208705183674139e-17 -1.939139020423953e-16 -1.0
  outer loop
    vertex 106.94253390880783 124.964147106802 3.068772472027376e-13
    vertex 105.94253390880768 124.96414710680197 3.068874559079213e-13
    vertex 106.94253390880783 126.96414710680205 3.064894193986528e-13
  endloop
endfacet
facet normal 1.0 -0.0 -0.0
  outer loop
    vertex 105.94253390880768 124.96414710680197 42.0000000000003
    vertex 105.94253390880768 117.96414710680199 42.0000000000003
    vertex 105.94253390880768 124.96414710680197 3.068874559079213e-13
  endloop
endfacet
facet normal -0.0 -0.0 1.0
  outer loop
    vertex 105.94253390880768 124.96414710680197 42.0000000000003
    vertex 103.94253390880748 126.96414710680193 42.0000000000003
    vertex 105.94253390880768 117.96414710680199 42.0000000000003
  endloop
endfacet
facet normal -1.2010004167620814e-14 -1.2269886219763335e-30 -1.0
  outer loop
    vertex 105.94253390880768 117.96414710680199 3.068874559079213e-13
    vertex 103.94253390880748 126.96414710680193 3.309074642431653e-13
    vertex 105.94253390880768 124.96414710680197 3.068874559079213e-13
  endloop
endfacet
facet normal -1.0 1.8799776550319637e-15 -6.059203071489464e-32
  outer loop
    vertex 103.94253390880748 126.96414710680193 3.309074642431653e-13
    vertex 103.94253390880745 114.96414710680213 4.000000000000113
    vertex 103.94253390880748 126.96414710680193 42.0000000000003
  endloop
endfacet
facet normal -0.0 1.0 -0.0
  outer loop
    vertex 135.4997844788163 117.96414710680199 31.035113098509314
    vertex 135.4997844788163 117.96414710680199 3.0686694918144187e-13
    vertex 105.94253390880768 117.96414710680199 3.068874559079213e-13
  endloop
endfacet
facet normal 1.8896331057544716e-14 -1.0 2.611542788185658e-14
  outer loop
    vertex 137.44253390880823 69.96414710680183 42.00000000000033
    vertex 135.4997844788163 69.96414710680178 41.24609723612286
    vertex 135.4997844788163 69.96414710680168 37.790709568351765
  endloop
endfacet
facet normal 3.4836811446873376e-14 -1.0 -1.4961963890644245e-14
  outer loop
    vertex 135.4997844788163 69.96414710680176 42.00000000000033
    vertex 135.4997844788163 69.96414710680178 41.24609723612286
    vertex 137.44253390880823 69.96414710680183 42.00000000000033
  endloop
endfacet
facet normal 1.7418405723436713e-14 -1.0 4.1312054657899816e-32
  outer loop
    vertex 137.44253390880823 69.96414710680183 42.00000000000033
    vertex 135.4997844788163 69.96414710680179 4.2092904316489195
    vertex 137.44253390880823 69.96414710680183 3.2544226103458943e-13
  endloop
endfacet
facet normal 1.7418405723436713e-14 -1.0 4.1312054657899816e-32
  outer loop
    vertex 135.4997844788163 69.96414710680179 4.2092904316489195
    vertex 137.44253390880823 69.96414710680183 42.00000000000033
    vertex 135.4997844788163 69.96414710680179 32.61004442170736
  endloop
endfacet
facet normal -4.2314077496204596e-15 -1.3843806191449732e-16 -1.0
  outer loop
    vertex 137.44253390880792 114.96414710680202 3.1921254824843836e-13
    vertex 135.4997844788163 83.23960154507816 3.3182499784475895e-13
    vertex 135.4997844788163 113.66898082014103 3.2761241355265794e-13
  endloop
endfacet
facet normal -4.2314077496204596e-15 -1.3843806191449732e-16 -1.0
  outer loop
    vertex 135.4997844788163 83.23960154507816 3.3182499784475895e-13
    vertex 137.44253390880792 114.96414710680202 3.1921254824843836e-13
    vertex 137.44253390880823 69.96414710680183 3.2544226103458943e-13
  endloop
endfacet
facet normal -2.540184168001554e-15 3.810276252002642e-15 1.0
  outer loop
    vertex 137.44253390880792 114.96414710680202 42.00000000000032
    vertex 135.4997844788163 115.14917086203931 42.00000000000031
    vertex 135.4997844788163 113.66898082014103 42.00000000000032
  endloop
endfacet
facet normal -0.0 -0.0 1.0
  outer loop
    vertex 137.44253390880792 114.96414710680202 42.00000000000032
    vertex 135.4997844788163 113.66898082014103 42.00000000000032
    vertex 135.4997844788163 102.6600673835227 42.00000000000032
  endloop
endfacet
facet normal -1.0920079567795282e-15 -5.062075949346498e-15 -1.0
  outer loop
    vertex 137.44253390880792 114.96414710680202 3.1921254824843836e-13
    vertex 135.4997844788163 113.66898082014103 3.2761241355265794e-13
    vertex 135.4997844788163 114.96414710680205 3.235569472157875e-13
  endloop
endfacet
facet normal 1.2265460696920004e-13 -1.0 -2.1773007154298978e-14
  outer loop
    vertex 137.44253390880823 69.96414710680183 42.00000000000033
    vertex 135.4997844788163 69.96414710680168 37.790709568351765
    vertex 135.4997844788163 69.96414710680179 32.61004442170736
  endloop
endfacet
facet normal 1.156890914447899e-15 6.500934499005009e-16 -1.0
  outer loop
    vertex 137.44253390880823 69.96414710680183 3.2544226103458943e-13
    vertex 135.4997844788163 72.23068810845878 3.2466817532909104e-13
    vertex 135.4997844788163 83.23960154507816 3.3182499784475895e-13
  endloop
endfacet
facet normal 2.9030676205726993e-15 2.48834367477688e-15 1.0
  outer loop
    vertex 137.44253390880823 69.96414710680183 42.00000000000033
    vertex 135.4997844788163 72.23068810845882 42.00000000000033
    vertex 135.4997844788163 69.96414710680176 42.00000000000033
  endloop
endfacet
facet normal 1.7418405723436723e-14 -1.0 2.6683295938415428e-30
  outer loop
    vertex 135.4997844788163 69.96414710680179 4.2092904316489195
    vertex 135.4997844788163 69.96414710680179 0.7539027638777973
    vertex 137.44253390880823 69.96414710680183 3.2544226103458943e-13
  endloop
endfacet
facet normal -3.7242042904714395e-16 1.4416274672796625e-16 1.0
  outer loop
    vertex 137.44253390880823 69.96414710680183 42.00000000000033
    vertex 135.4997844788163 102.6600673835227 42.00000000000032
    vertex 135.4997844788163 72.23068810845882 42.00000000000033
  endloop
endfacet
facet normal -3.7242042904714395e-16 1.4416274672796625e-16 1.0
  outer loop
    vertex 135.4997844788163 102.6600673835227 42.00000000000032
    vertex 137.44253390880823 69.96414710680183 42.00000000000033
    vertex 137.44253390880792 114.96414710680202 42.00000000000032
  endloop
endfacet
facet normal 6.888015777972274e-16 2.488740184855865e-16 -1.0
  outer loop
    vertex 137.44253390880823 69.96414710680183 3.2544226103458943e-13
    vertex 135.4997844788163 69.96414710680175 3.2410409216194635e-13
    vertex 135.4997844788163 72.23068810845878 3.2466817532909104e-13
  endloop
endfacet
facet normal 4.064294668801895e-14 -1.0 5.984785556257665e-14
  outer loop
    vertex 135.4997844788163 69.96414710680179 0.7539027638777973
    vertex 135.4997844788163 69.96414710680175 3.2410409216194635e-13
    vertex 137.44253390880823 69.96414710680183 3.2544226103458943e-13
  endloop
endfacet
facet normal -1.837012707083116e-15 1.4276025625011017e-16 -1.0
  outer loop
    vertex 138.4997844788163 114.96414710680205 3.180459090945381e-13
    vertex 137.44253390880823 69.96414710680183 3.2544226103458943e-13
    vertex 137.44253390880792 114.96414710680202 3.1921254824843836e-13
  endloop
endfacet
facet normal -1.837012707083116e-15 1.4276025625011017e-16 -1.0
  outer loop
    vertex 137.44253390880823 69.96414710680183 3.2544226103458943e-13
    vertex 135.4997844788163 15.848187366561717 3.0684760288224307e-13
    vertex 135.4997844788163 69.96414710680175 3.2410409216194635e-13
  endloop
endfacet
facet normal -1.837012707083116e-15 1.4276025625011017e-16 -1.0
  outer loop
    vertex 135.4997844788163 15.848187366561717 3.0684760288224307e-13
    vertex 137.44253390880823 69.96414710680183 3.2544226103458943e-13
    vertex 138.4997844788163 15.848187366561717 3.0684760288224307e-13
  endloop
endfacet
facet normal -1.837012707083116e-15 1.4276025625011017e-16 -1.0
  outer loop
    vertex 138.4997844788163 15.848187366561717 3.0684760288224307e-13
    vertex 137.44253390880823 69.96414710680183 3.2544226103458943e-13
    vertex 138.4997844788163 114.96414710680205 3.180459090945381e-13
  endloop
endfacet
facet normal -6.93796820876873e-19 -4.115648980124951e-15 -1.0
  outer loop
    vertex 138.4997844788163 117.96414710680199 3.0686486779097925e-13
    vertex 135.4997844788163 115.14917086203931 3.184524032922753e-13
    vertex 135.4997844788163 117.96414710680199 3.0686694918144187e-13
  endloop
endfacet
facet normal -6.93796820876873e-19 -4.115648980124951e-15 -1.0
  outer loop
    vertex 135.4997844788163 115.14917086203931 3.184524032922753e-13
    vertex 138.4997844788163 117.96414710680199 3.0686486779097925e-13
    vertex 137.44253390880792 114.96414710680202 3.1921254824843836e-13
  endloop
endfacet
facet normal -6.93796820876873e-19 -4.115648980124951e-15 -1.0
  outer loop
    vertex 137.44253390880792 114.96414710680202 3.1921254824843836e-13
    vertex 138.4997844788163 117.96414710680199 3.0686486779097925e-13
    vertex 138.4997844788163 115.33729436680498 3.176760715912863e-13
  endloop
endfacet
facet normal -3.4689841044213985e-19 -5.741306251757314e-19 -1.0
  outer loop
    vertex 138.4997844788163 149.84818736656163 3.0684760288224307e-13
    vertex 135.4997844788163 117.96414710680199 3.0686694918144187e-13
    vertex 135.4997844788163 149.84818736656163 3.0684760288224307e-13
  endloop
endfacet
facet normal -3.4689841044213985e-19 -5.741306251757314e-19 -1.0
  outer loop
    vertex 135.4997844788163 117.96414710680199 3.0686694918144187e-13
    vertex 138.4997844788163 149.84818736656163 3.0684760288224307e-13
    vertex 138.4997844788163 117.96414710680199 3.0686486779097925e-13
  endloop
endfacet
facet normal -1.1034651453448307e-15 -9.91130159307327e-16 -1.0
  outer loop
    vertex 138.4997844788163 114.96414710680205 3.180459090945381e-13
    vertex 137.44253390880792 114.96414710680202 3.1921254824843836e-13
    vertex 138.4997844788163 115.33729436680498 3.176760715912863e-13
  endloop
endfacet
facet normal -2.2362116803547162e-15 -2.7588586757231377e-14 -1.0
  outer loop
    vertex 137.44253390880792 114.96414710680202 3.1921254824843836e-13
    vertex 135.4997844788163 114.96414710680205 3.235569472157875e-13
    vertex 135.4997844788163 115.14917086203931 3.184524032922753e-13
  endloop
endfacet
endsolid motor bracket
