solid spool holder 23mm single
facet normal -0.2923570295017789 -0.9562547841108301 0.010205643832990823
  outer loop
    vertex 78.21792297848076 1.4790054456472421 7.607057605060244
    vertex 82.49810605190608 0.0882855176925666 -0.08877978450426174
    vertex 83.05552184017512 0.0 7.607057605060244
  endloop
endfacet
facet normal -0.8656195915968704 -0.4997648887457494 -0.030623171302403072
  outer loop
    vertex 70.11225594662044 10.481251796245585 -0.08877978450426174
    vertex 72.91989690121031 5.6182670784473405 -0.08877978450426174
    vertex 71.02974823177665 8.420542316532142 7.607057605060244
  endloop
endfacet
facet normal 0.0 0.0 -1.0
  outer loop
    vertex 101.47433823269228 16.011233843421955 -0.08877978450426174
    vertex 100.4992536318622 10.481251796245585 -0.08877978450426174
    vertex 89.89341078365658 15.851029921531696 -0.08877978450426174
  endloop
endfacet
facet normal -0.9935718483420791 -0.1132032781420427 4.456159156360004e-19
  outer loop
    vertex 69.13717134579035 16.011233843421955 -0.08877978450426174
    vertex 69.55157140529964 12.374093295574196 78.50676075123188
    vertex 69.13717134579035 16.011233843421955 78.50676075123188
  endloop
endfacet
facet normal -0.9862858818991925 0.16504593047491972 8.298825311697591e-19
  outer loop
    vertex 69.84365783871024 20.738469484519975 7.607057605060244
    vertex 69.1470243014178 16.575508176040668 78.50676075123188
    vertex 69.84365783871024 20.738469484519975 78.50676075123188
  endloop
endfacet
facet normal 0.0 0.0 -1.0
  outer loop
    vertex 97.69161267727236 5.6182670784473405 -0.08877978450426174
    vertex 93.39005818508484 2.008827996659281 -0.08877978450426174
    vertex 88.71712664974545 12.939622595882417 -0.08877978450426174
  endloop
endfacet
facet normal 0.0 0.0 -1.0
  outer loop
    vertex 100.4992536318622 10.481251796245585 -0.08877978450426174
    vertex 97.69161267727236 5.6182670784473405 -0.08877978450426174
    vertex 89.5619436587176 14.291620690345768 -0.08877978450426174
  endloop
endfacet
facet normal -0.5734837171625538 -0.8190220596244042 0.017868743604941933
  outer loop
    vertex 74.07410916927667 4.380526495790482 7.607057605060244
    vertex 77.22146695888847 2.008827996659281 -0.08877978450426174
    vertex 78.21792297848076 1.4790054456472421 7.607057605060244
  endloop
endfacet
facet normal -0.7984254756022463 -0.6016549036637528 0.02298122726677724
  outer loop
    vertex 71.02974823177665 8.420542316532142 7.607057605060244
    vertex 72.91989690121031 5.6182670784473405 -0.08877978450426174
    vertex 74.07410916927667 4.380526495790482 7.607057605060244
  endloop
endfacet
facet normal 0.0 0.0 -1.0
  outer loop
    vertex 84.35134894283625 11.521095648384106 -0.08877978450426174
    vertex 82.49810605190608 0.0882855176925666 -0.08877978450426174
    vertex 77.22146695888847 2.008827996659281 -0.08877978450426174
  endloop
endfacet
facet normal -0.9848037853090933 -0.17364740024506625 -0.0028433833739079126
  outer loop
    vertex 69.13717134579035 16.011233843421955 -0.08877978450426174
    vertex 70.11225594662044 10.481251796245585 -0.08877978450426174
    vertex 69.55157140529964 12.374093295574196 78.50676075123188
  endloop
endfacet
facet normal 0.0 0.0 -1.0
  outer loop
    vertex 80.71809879482599 16.17143776531221 -0.08877978450426174
    vertex 69.13717134579035 16.011233843421955 -0.08877978450426174
    vertex 70.11225594662044 21.541214917755152 -0.08877978450426174
  endloop
endfacet
facet normal -0.6425561800584296 -0.7657700717160144 -0.026790907651090778
  outer loop
    vertex 74.07410916927667 4.380526495790482 7.607057605060244
    vertex 72.91989690121031 5.6182670784473405 -0.08877978450426174
    vertex 77.22146695888847 2.008827996659281 -0.08877978450426174
  endloop
endfacet
facet normal -0.9135445825120804 -0.4067386086454405 0.0
  outer loop
    vertex 70.11225594662044 10.481251796245585 -0.08877978450426174
    vertex 71.02974823177665 8.420542316532142 7.607057605060244
    vertex 71.02974823177665 8.420542316532142 78.50676075123188
  endloop
endfacet
facet normal -0.3419493953965063 -0.9394968178749722 -0.020404415962367833
  outer loop
    vertex 78.21792297848076 1.4790054456472421 7.607057605060244
    vertex 77.22146695888847 2.008827996659281 -0.08877978450426174
    vertex 82.49810605190608 0.0882855176925666 -0.08877978450426174
  endloop
endfacet
facet normal 1.2265112423792804e-18 -0.99993420478481 -0.011471098524981549
  outer loop
    vertex 83.05552184017512 0.0 7.607057605060244
    vertex 82.49810605190608 0.0882855176925666 -0.08877978450426174
    vertex 88.1134035265765 0.0882855176925666 -0.08877978450426174
  endloop
endfacet
facet normal 0.017452379651190297 -0.999847695623944 0.0
  outer loop
    vertex 83.05552184017512 0.0 7.607057605060244
    vertex 88.1134035265765 0.0882855176925666 -0.08877978450426174
    vertex 88.1134035265765 0.0882855176925666 7.607057605060244
  endloop
endfacet
facet normal 0.3255683916510028 -0.9455184939268926 5.1151373057835916e-17
  outer loop
    vertex 88.1134035265765 0.0882855176925666 7.607057605060244
    vertex 88.1134035265765 0.0882855176925666 -0.08877978450426174
    vertex 92.89644534328798 1.7352202328443551 7.607057605060244
  endloop
endfacet
facet normal 0.34199720894577573 -0.9396309561200001 -0.011470630946627546
  outer loop
    vertex 92.89644534328798 1.7352202328443551 7.607057605060244
    vertex 88.1134035265765 0.0882855176925666 -0.08877978450426174
    vertex 93.39005818508484 2.008827996659281 -0.08877978450426174
  endloop
endfacet
facet normal 0.4848010779552466 -0.8746244421541344 3.7764723200903757e-19
  outer loop
    vertex 92.89644534328798 1.7352202328443551 78.50676075123188
    vertex 92.89644534328798 1.7352202328443551 7.607057605060244
    vertex 93.39005818508484 2.008827996659281 -0.08877978450426174
  endloop
endfacet
facet normal 0.5807014931434507 -0.8141161557140344 0.0008129368788633928
  outer loop
    vertex 92.89644534328798 1.7352202328443551 78.50676075123188
    vertex 93.39005818508484 2.008827996659281 -0.08877978450426174
    vertex 96.33271420620302 4.186278900003438 78.50676075123188
  endloop
endfacet
facet normal 0.6427856689227656 -0.7660407944324521 -0.0028434297618580634
  outer loop
    vertex 96.33271420620302 4.186278900003438 78.50676075123188
    vertex 93.39005818508484 2.008827996659281 -0.08877978450426174
    vertex 97.69161267727236 5.6182670784473405 -0.08877978450426174
  endloop
endfacet
facet normal 0.7716242132347239 -0.6360762562641232 0.001752075030046279
  outer loop
    vertex 99.01749674251894 7.443189045429236 78.50676075123188
    vertex 96.33271420620302 4.186278900003438 78.50676075123188
    vertex 97.69161267727236 5.6182670784473405 -0.08877978450426174
  endloop
endfacet
facet normal 0.8660218598650044 -0.49999713805967616 -0.0030000280152004777
  outer loop
    vertex 100.4992536318622 10.481251796245585 -0.08877978450426174
    vertex 99.01749674251894 7.443189045429236 78.50676075123188
    vertex 97.69161267727236 5.6182670784473405 -0.08877978450426174
  endloop
endfacet
facet normal 0.9099608454890059 -0.4146926480867428 0.0011257440822105098
  outer loop
    vertex 100.76785173977238 11.283996256637584 78.50676075123188
    vertex 99.01749674251894 7.443189045429236 78.50676075123188
    vertex 100.4992536318622 10.481251796245585 -0.08877978450426174
  endloop
endfacet
facet normal 0.94832238660483 -0.3173084478297413 0.0
  outer loop
    vertex 100.76785173977238 11.283996256637584 78.50676075123188
    vertex 100.4992536318622 10.481251796245585 -0.08877978450426174
    vertex 100.76785173977238 11.283996256637584 7.607057605060244
  endloop
endfacet
facet normal 0.9846776313240168 -0.17362515590374072 -0.016256309775763995
  outer loop
    vertex 101.47433823269228 16.011233843421955 -0.08877978450426174
    vertex 100.76785173977238 11.283996256637584 7.607057605060244
    vertex 100.4992536318622 10.481251796245585 -0.08877978450426174
  endloop
endfacet
facet normal 0.986227328315289 -0.1650398196139122 -0.010840425540290008
  outer loop
    vertex 101.47433823269228 16.011233843421955 -0.08877978450426174
    vertex 101.46450084255557 15.446957565116906 7.607057605060244
    vertex 100.76785173977238 11.283996256637584 7.607057605060244
  endloop
endfacet
facet normal 0.9953616329985863 0.09584534673465954 0.008299943596238575
  outer loop
    vertex 101.05993817318299 19.64837341842654 7.607057605060244
    vertex 101.46450084255557 15.446957565116906 7.607057605060244
    vertex 101.47433823269228 16.011233843421955 -0.08877978450426174
  endloop
endfacet
facet normal 0.9843928022036931 0.17357496340302167 -0.029026592104490705
  outer loop
    vertex 100.4992536318622 21.541214917755152 -0.08877978450426174
    vertex 101.05993817318299 19.64837341842654 7.607057605060244
    vertex 101.47433823269228 16.011233843421955 -0.08877978450426174
  endloop
endfacet
facet normal 0.9365231217140516 0.35014907000670836 0.017890535721578338
  outer loop
    vertex 99.58177691219667 23.601924397468593 7.607057605060244
    vertex 101.05993817318299 19.64837341842654 7.607057605060244
    vertex 100.4992536318622 21.541214917755152 -0.08877978450426174
  endloop
endfacet
facet normal 0.8656195232051208 0.4997648992489611 -0.030624933058133078
  outer loop
    vertex 97.69161267727236 26.404199149131788 -0.08877978450426174
    vertex 99.58177691219667 23.601924397468593 7.607057605060244
    vertex 100.4992536318622 21.541214917755152 -0.08877978450426174
  endloop
endfacet
facet normal 0.829036743010801 0.5591941333186922 0.0
  outer loop
    vertex 97.69161267727236 26.404199149131788 -0.08877978450426174
    vertex 99.58177691219667 23.601924397468593 78.50676075123188
    vertex 99.58177691219667 23.601924397468593 7.607057605060244
  endloop
endfacet
facet normal 0.8141140771839522 0.5807038848801723 0.0011257957175151712
  outer loop
    vertex 97.13071021908144 27.038181586265573 78.50676075123188
    vertex 99.58177691219667 23.601924397468593 78.50676075123188
    vertex 97.69161267727236 26.404199149131788 -0.08877978450426174
  endloop
endfacet
facet normal 0.6427874275464699 0.766042941892329 -0.0015919061335052942
  outer loop
    vertex 97.13071021908144 27.038181586265573 78.50676075123188
    vertex 97.69161267727236 26.404199149131788 -0.08877978450426174
    vertex 93.39005818508484 30.01363798770905 -0.08877978450426174
  endloop
endfacet
facet normal 0.6360782550056575 0.7716238248825454 -0.0010613117302362407
  outer loop
    vertex 97.13071021908144 27.038181586265573 78.50676075123188
    vertex 93.39005818508484 30.01363798770905 -0.08877978450426174
    vertex 93.8738025057636 29.72297190532685 78.50676075123188
  endloop
endfacet
facet normal 0.41469390137824735 0.909960970679341 1.798986232055402e-18
  outer loop
    vertex 93.8738025057636 29.72297190532685 78.50676075123188
    vertex 90.03300210445735 31.473328848266643 7.607057605060244
    vertex 90.03300210445735 31.473328848266643 78.50676075123188
  endloop
endfacet
facet normal -0.9998475865936551 0.01745862488409388 1.8194278471254137e-20
  outer loop
    vertex 69.1470243014178 16.575508176040668 78.50676075123188
    vertex 69.13717134579035 16.011233843421955 -0.08877978450426174
    vertex 69.13717134579035 16.011233843421955 78.50676075123188
  endloop
endfacet
facet normal -0.9887887498200403 0.14931814824941522 -0.0009480678708549615
  outer loop
    vertex 69.84365783871024 20.738469484519975 7.607057605060244
    vertex 69.13717134579035 16.011233843421955 -0.08877978450426174
    vertex 69.1470243014178 16.575508176040668 78.50676075123188
  endloop
endfacet
facet normal -0.9846776265043261 0.17362518559831616 -0.016256284561900706
  outer loop
    vertex 70.11225594662044 21.541214917755152 -0.08877978450426174
    vertex 69.13717134579035 16.011233843421955 -0.08877978450426174
    vertex 69.84365783871024 20.738469484519975 7.607057605060244
  endloop
endfacet
facet normal -0.8987012047352294 0.43832644626293155 0.01435517725271909
  outer loop
    vertex 72.06122660549497 25.28515321598054 7.607057605060244
    vertex 70.11225594662044 21.541214917755152 -0.08877978450426174
    vertex 69.84365783871024 20.738469484519975 7.607057605060244
  endloop
endfacet
facet normal -0.8657780221928119 0.4998564085420059 -0.023916252369262387
  outer loop
    vertex 72.91989690121031 26.404199149131788 -0.08877978450426174
    vertex 70.11225594662044 21.541214917755152 -0.08877978450426174
    vertex 72.06122660549497 25.28515321598054 7.607057605060244
  endloop
endfacet
facet normal -0.7191848186645216 0.6945090854115608 0.020744321711659634
  outer loop
    vertex 75.57526066006035 28.924040017318738 7.607057605060244
    vertex 72.91989690121031 26.404199149131788 -0.08877978450426174
    vertex 72.06122660549497 25.28515321598054 7.607057605060244
  endloop
endfacet
facet normal -0.6425160308323249 0.7657222752376647 -0.029026665814887682
  outer loop
    vertex 75.57526066006035 28.924040017318738 7.607057605060244
    vertex 77.22146695888847 30.01363798770905 -0.08877978450426174
    vertex 72.91989690121031 26.404199149131788 -0.08877978450426174
  endloop
endfacet
facet normal -0.46932968298416555 0.8826808796538518 0.024578717694077743
  outer loop
    vertex 80.04177822292661 31.298929198837318 7.607057605060244
    vertex 77.22146695888847 30.01363798770905 -0.08877978450426174
    vertex 75.57526066006035 28.924040017318738 7.607057605060244
  endloop
endfacet
facet normal -0.3418499470247062 0.9392237050733637 -0.03158236133459168
  outer loop
    vertex 80.04177822292661 31.298929198837318 7.607057605060244
    vertex 82.49810605190608 31.93418022346501 -0.08877978450426174
    vertex 77.22146695888847 30.01363798770905 -0.08877978450426174
  endloop
endfacet
facet normal -0.17359039792714762 0.9844784190128387 0.025857614845073304
  outer loop
    vertex 85.0235757906756 32.17735599365237 7.607057605060244
    vertex 82.49810605190608 31.93418022346501 -0.08877978450426174
    vertex 80.04177822292661 31.298929198837318 7.607057605060244
  endloop
endfacet
facet normal 1.2259800555232249e-18 0.9995011456426277 -0.031582587909717075
  outer loop
    vertex 85.0235757906756 32.17735599365237 7.607057605060244
    vertex 88.1134035265765 31.93418022346501 -0.08877978450426174
    vertex 82.49810605190608 31.93418022346501 -0.08877978450426174
  endloop
endfacet
facet normal 0.13913070581415274 0.989968956919372 0.02457867033885946
  outer loop
    vertex 90.03300210445735 31.473328848266643 7.607057605060244
    vertex 88.1134035265765 31.93418022346501 -0.08877978450426174
    vertex 85.0235757906756 32.17735599365237 7.607057605060244
  endloop
endfacet
facet normal 0.3418755538940841 0.9392968300826201 -0.029027067477697507
  outer loop
    vertex 90.03300210445735 31.473328848266643 7.607057605060244
    vertex 93.39005818508484 30.01363798770905 -0.08877978450426174
    vertex 88.1134035265765 31.93418022346501 -0.08877978450426174
  endloop
endfacet
facet normal 0.40052880692737214 0.9162837017328656 0.0009234500815096011
  outer loop
    vertex 93.8738025057636 29.72297190532685 78.50676075123188
    vertex 93.39005818508484 30.01363798770905 -0.08877978450426174
    vertex 90.03300210445735 31.473328848266643 7.607057605060244
  endloop
endfacet
facet normal 0.0 0.0 1.0
  outer loop
    vertex 72.62391909511899 19.88846138439181 7.607057605060244
    vertex 72.06122660549497 25.28515321598054 7.607057605060244
    vertex 69.84365783871024 20.738469484519975 7.607057605060244
  endloop
endfacet
facet normal 0.0 0.0 1.0
  outer loop
    vertex 74.44273112057066 23.617602737998997 7.607057605060244
    vertex 72.06122660549497 25.28515321598054 7.607057605060244
    vertex 72.62391909511899 19.88846138439181 7.607057605060244
  endloop
endfacet
facet normal 0.0 0.0 1.0
  outer loop
    vertex 75.57526066006035 28.924040017318738 7.607057605060244
    vertex 72.06122660549497 25.28515321598054 7.607057605060244
    vertex 74.44273112057066 23.617602737998997 7.607057605060244
  endloop
endfacet
facet normal 0.0 0.0 1.0
  outer loop
    vertex 77.32491521023125 26.60217857131959 7.607057605060244
    vertex 75.57526066006035 28.924040017318738 7.607057605060244
    vertex 74.44273112057066 23.617602737998997 7.607057605060244
  endloop
endfacet
facet normal 0.0 0.0 1.0
  outer loop
    vertex 80.04177822292661 31.298929198837318 7.607057605060244
    vertex 75.57526066006035 28.924040017318738 7.607057605060244
    vertex 77.32491521023125 26.60217857131959 7.607057605060244
  endloop
endfacet
facet normal 0.0 0.0 1.0
  outer loop
    vertex 80.9883001482806 28.55003824329377 7.607057605060244
    vertex 80.04177822292661 31.298929198837318 7.607057605060244
    vertex 77.32491521023125 26.60217857131959 7.607057605060244
  endloop
endfacet
facet normal 0.0 0.0 1.0
  outer loop
    vertex 85.0743192904315 29.270514221000685 7.607057605060244
    vertex 80.04177822292661 31.298929198837318 7.607057605060244
    vertex 80.9883001482806 28.55003824329377 7.607057605060244
  endloop
endfacet
facet normal 0.0 0.0 1.0
  outer loop
    vertex 85.0743192904315 29.270514221000685 7.607057605060244
    vertex 85.0235757906756 32.17735599365237 7.607057605060244
    vertex 80.04177822292661 31.298929198837318 7.607057605060244
  endloop
endfacet
facet normal 0.0 0.0 1.0
  outer loop
    vertex 89.18298622158382 28.693077320289618 7.607057605060244
    vertex 85.0235757906756 32.17735599365237 7.607057605060244
    vertex 85.0743192904315 29.270514221000685 7.607057605060244
  endloop
endfacet
facet normal 0.0 0.0 1.0
  outer loop
    vertex 90.03300210445735 31.473328848266643 7.607057605060244
    vertex 85.0235757906756 32.17735599365237 7.607057605060244
    vertex 89.18298622158382 28.693077320289618 7.607057605060244
  endloop
endfacet
facet normal 0.0 0.0 1.0
  outer loop
    vertex 93.72046685665468 8.43459406328202 3.200225916370059
    vertex 88.71712664974545 12.939622595882417 3.200225916370059
    vertex 90.62164226711603 6.013520611524583 3.200225916370059
  endloop
endfacet
facet normal 0.0 0.0 1.0
  outer loop
    vertex 93.72046685665468 8.43459406328202 3.200225916370059
    vertex 89.5619436587176 14.291620690345768 3.200225916370059
    vertex 88.71712664974545 12.939622595882417 3.200225916370059
  endloop
endfacet
facet normal 0.0 0.0 1.0
  outer loop
    vertex 95.80435918911319 11.769521853160866 3.200225916370059
    vertex 89.5619436587176 14.291620690345768 3.200225916370059
    vertex 93.72046685665468 8.43459406328202 3.200225916370059
  endloop
endfacet
facet normal 0.0 0.0 1.0
  outer loop
    vertex 95.80435918911319 11.769521853160866 3.200225916370059
    vertex 89.89341078365658 15.851029921531696 3.200225916370059
    vertex 89.5619436587176 14.291620690345768 3.200225916370059
  endloop
endfacet
facet normal 0.0 0.0 1.0
  outer loop
    vertex 96.62196772030215 15.616063002014178 3.200225916370059
    vertex 89.89341078365658 15.851029921531696 3.200225916370059
    vertex 95.80435918911319 11.769521853160866 3.200225916370059
  endloop
endfacet
facet normal 0.0 0.0 1.0
  outer loop
    vertex 96.62196772030215 15.616063002014178 3.200225916370059
    vertex 89.67154027889585 17.429759818077105 3.200225916370059
    vertex 89.89341078365658 15.851029921531696 3.200225916370059
  endloop
endfacet
facet normal 0.0 0.0 1.0
  outer loop
    vertex 96.62196772030215 15.616063002014178 3.200225916370059
    vertex 96.07466950100282 19.51026665630343 3.200225916370059
    vertex 89.67154027889585 17.429759818077105 3.200225916370059
  endloop
endfacet
facet normal 0.0 0.0 1.0
  outer loop
    vertex 96.07466950100282 19.51026665630343 3.200225916370059
    vertex 94.22849334286073 22.982435377883935 3.200225916370059
    vertex 89.67154027889585 17.429759818077105 3.200225916370059
  endloop
endfacet
facet normal 0.0 0.0 1.0
  outer loop
    vertex 94.22849334286073 22.982435377883935 3.200225916370059
    vertex 88.9230892229876 18.83739578628543 3.200225916370059
    vertex 89.67154027889585 17.429759818077105 3.200225916370059
  endloop
endfacet
facet normal 0.0 0.0 1.0
  outer loop
    vertex 94.22849334286073 22.982435377883935 3.200225916370059
    vertex 91.3060880251727 25.613775747489935 3.200225916370059
    vertex 88.9230892229876 18.83739578628543 3.200225916370059
  endloop
endfacet
facet normal 0.0 0.0 1.0
  outer loop
    vertex 91.3060880251727 25.613775747489935 3.200225916370059
    vertex 87.73832189663268 19.90415529041293 3.200225916370059
    vertex 88.9230892229876 18.83739578628543 3.200225916370059
  endloop
endfacet
facet normal 0.0 0.0 1.0
  outer loop
    vertex 91.3060880251727 25.613775747489935 3.200225916370059
    vertex 87.6599652163348 27.086905463600168 3.200225916370059
    vertex 87.73832189663268 19.90415529041293 3.200225916370059
  endloop
endfacet
facet normal 0.0 0.0 1.0
  outer loop
    vertex 87.73832189663268 19.90415529041293 3.200225916370059
    vertex 87.6599652163348 27.086905463600168 3.200225916370059
    vertex 86.26016063564632 20.501370092773453 3.200225916370059
  endloop
endfacet
facet normal 0.0 0.0 1.0
  outer loop
    vertex 87.6599652163348 27.086905463600168 3.200225916370059
    vertex 83.72988116024351 27.224148340988172 3.200225916370059
    vertex 86.26016063564632 20.501370092773453 3.200225916370059
  endloop
endfacet
facet normal 0.0 0.0 1.0
  outer loop
    vertex 86.26016063564632 20.501370092773453 3.200225916370059
    vertex 83.72988116024351 27.224148340988172 3.200225916370059
    vertex 84.66689257076597 20.557008939361587 3.200225916370059
  endloop
endfacet
facet normal 0.0 0.0 1.0
  outer loop
    vertex 84.66689257076597 20.557008939361587 3.200225916370059
    vertex 83.72988116024351 27.224148340988172 3.200225916370059
    vertex 83.15067368496274 20.064359212303188 3.200225916370059
  endloop
endfacet
facet normal 0.0 0.0 1.0
  outer loop
    vertex 83.72988116024351 27.224148340988172 3.200225916370059
    vertex 79.98988287685724 26.008946588897718 3.200225916370059
    vertex 83.15067368496274 20.064359212303188 3.200225916370059
  endloop
endfacet
facet normal 0.0 0.0 1.0
  outer loop
    vertex 83.15067368496274 20.064359212303188 3.200225916370059
    vertex 79.98988287685724 26.008946588897718 3.200225916370059
    vertex 81.89438292873713 19.082844118118313 3.200225916370059
  endloop
endfacet
facet normal 0.0 0.0 1.0
  outer loop
    vertex 81.89438292873713 19.082844118118313 3.200225916370059
    vertex 79.98988287685724 26.008946588897718 3.200225916370059
    vertex 76.89104272182792 23.587872650718715 3.200225916370059
  endloop
endfacet
facet normal 0.0 0.0 1.0
  outer loop
    vertex 81.89438292873713 19.082844118118313 3.200225916370059
    vertex 76.89104272182792 23.587872650718715 3.200225916370059
    vertex 81.04956591976497 17.730846996498123 3.200225916370059
  endloop
endfacet
facet normal 0.0 0.0 1.0
  outer loop
    vertex 81.04956591976497 17.730846996498123 3.200225916370059
    vertex 76.89104272182792 23.587872650718715 3.200225916370059
    vertex 74.80715038936945 20.25294486083986 3.200225916370059
  endloop
endfacet
facet normal 0.0 0.0 1.0
  outer loop
    vertex 81.04956591976497 17.730846996498123 3.200225916370059
    vertex 74.80715038936945 20.25294486083986 3.200225916370059
    vertex 80.71809879482599 16.17143776531221 3.200225916370059
  endloop
endfacet
facet normal 0.0 0.0 1.0
  outer loop
    vertex 80.71809879482599 16.17143776531221 3.200225916370059
    vertex 74.80715038936945 20.25294486083986 3.200225916370059
    vertex 73.9895418581805 16.40640468482973 3.200225916370059
  endloop
endfacet
facet normal 0.0 0.0 1.0
  outer loop
    vertex 80.9399848650775 14.59270592308045 3.200225916370059
    vertex 80.71809879482599 16.17143776531221 3.200225916370059
    vertex 73.9895418581805 16.40640468482973 3.200225916370059
  endloop
endfacet
facet normal 0.0 0.0 1.0
  outer loop
    vertex 80.9399848650775 14.59270592308045 3.200225916370059
    vertex 73.9895418581805 16.40640468482973 3.200225916370059
    vertex 74.53684007747985 12.512200057697303 3.200225916370059
  endloop
endfacet
facet normal 0.0 0.0 1.0
  outer loop
    vertex 80.9399848650775 14.59270592308045 3.200225916370059
    vertex 74.53684007747985 12.512200057697303 3.200225916370059
    vertex 76.38303180111262 9.040030363273631 3.200225916370059
  endloop
endfacet
facet normal 0.0 0.0 1.0
  outer loop
    vertex 81.68843592098565 13.185069954872136 3.200225916370059
    vertex 80.9399848650775 14.59270592308045 3.200225916370059
    vertex 76.38303180111262 9.040030363273631 3.200225916370059
  endloop
endfacet
facet normal 0.0 0.0 1.0
  outer loop
    vertex 81.68843592098565 13.185069954872136 3.200225916370059
    vertex 76.38303180111262 9.040030363273631 3.200225916370059
    vertex 79.30542155330988 6.408691452932358 3.200225916370059
  endloop
endfacet
facet normal 0.0 0.0 1.0
  outer loop
    vertex 82.87318768184991 12.118311423587802 3.200225916370059
    vertex 81.68843592098565 13.185069954872136 3.200225916370059
    vertex 79.30542155330988 6.408691452932358 3.200225916370059
  endloop
endfacet
facet normal 0.0 0.0 1.0
  outer loop
    vertex 82.95154436214776 4.935560763978964 3.200225916370059
    vertex 82.87318768184991 12.118311423587802 3.200225916370059
    vertex 79.30542155330988 6.408691452932358 3.200225916370059
  endloop
endfacet
facet normal 0.0 0.0 1.0
  outer loop
    vertex 84.35134894283625 11.521095648384106 3.200225916370059
    vertex 82.87318768184991 12.118311423587802 3.200225916370059
    vertex 82.95154436214776 4.935560763978964 3.200225916370059
  endloop
endfacet
facet normal 0.0 0.0 1.0
  outer loop
    vertex 86.88162841823907 4.7983193458557185 3.200225916370059
    vertex 84.35134894283625 11.521095648384106 3.200225916370059
    vertex 82.95154436214776 4.935560763978964 3.200225916370059
  endloop
endfacet
facet normal 0.0 0.0 1.0
  outer loop
    vertex 86.88162841823907 4.7983193458557185 3.200225916370059
    vertex 85.94463257320737 11.465457774639138 3.200225916370059
    vertex 84.35134894283625 11.521095648384106 3.200225916370059
  endloop
endfacet
facet normal 0.0 0.0 1.0
  outer loop
    vertex 90.62164226711603 6.013520611524583 3.200225916370059
    vertex 85.94463257320737 11.465457774639138 3.200225916370059
    vertex 86.88162841823907 4.7983193458557185 3.200225916370059
  endloop
endfacet
facet normal 0.0 0.0 1.0
  outer loop
    vertex 90.62164226711603 6.013520611524583 3.200225916370059
    vertex 87.4608514590106 11.958106528854374 3.200225916370059
    vertex 85.94463257320737 11.465457774639138 3.200225916370059
  endloop
endfacet
facet normal 0.0 0.0 1.0
  outer loop
    vertex 90.62164226711603 6.013520611524583 3.200225916370059
    vertex 88.71712664974545 12.939622595882417 3.200225916370059
    vertex 87.4608514590106 11.958106528854374 3.200225916370059
  endloop
endfacet
facet normal -0.3090166394457127 0.9510566316185796 -2.190033415394346e-17
  outer loop
    vertex 87.4608514590106 11.958106528854374 3.200225916370059
    vertex 85.94463257320737 11.465457774639138 -0.08877978450426174
    vertex 85.94463257320737 11.465457774639138 3.200225916370059
  endloop
endfacet
facet normal 0.034898985083177646 0.9993908448851051 0.0
  outer loop
    vertex 85.94463257320737 11.465457774639138 3.200225916370059
    vertex 85.94463257320737 11.465457774639138 -0.08877978450426174
    vertex 84.35134894283625 11.521095648384106 -0.08877978450426174
  endloop
endfacet
facet normal 0.03489898508317765 0.9993908448851051 -1.3025588756776686e-18
  outer loop
    vertex 85.94463257320737 11.465457774639138 3.200225916370059
    vertex 84.35134894283625 11.521095648384106 -0.08877978450426174
    vertex 84.35134894283625 11.521095648384106 3.200225916370059
  endloop
endfacet
facet normal 0.37460651778949317 0.9271838851218404 2.2464171654742393e-17
  outer loop
    vertex 84.35134894283625 11.521095648384106 3.200225916370059
    vertex 84.35134894283625 11.521095648384106 -0.08877978450426174
    vertex 82.87318768184991 12.118311423587802 -0.08877978450426174
  endloop
endfacet
facet normal 0.37460651778949317 0.9271838851218404 2.246417165474239e-17
  outer loop
    vertex 84.35134894283625 11.521095648384106 3.200225916370059
    vertex 82.87318768184991 12.118311423587802 -0.08877978450426174
    vertex 82.87318768184991 12.118311423587802 3.200225916370059
  endloop
endfacet
facet normal 0.6691317336899005 0.7431438104224163 8.408287653068361e-17
  outer loop
    vertex 82.87318768184991 12.118311423587802 3.200225916370059
    vertex 82.87318768184991 12.118311423587802 -0.08877978450426174
    vertex 81.68843592098565 13.185069954872136 -0.08877978450426174
  endloop
endfacet
facet normal 0.6691317336899005 0.7431438104224162 2.8027625510227874e-17
  outer loop
    vertex 82.87318768184991 12.118311423587802 3.200225916370059
    vertex 81.68843592098565 13.185069954872136 -0.08877978450426174
    vertex 81.68843592098565 13.185069954872136 3.200225916370059
  endloop
endfacet
facet normal 0.8829481817104293 0.46947045531561094 0.0
  outer loop
    vertex 80.9399848650775 14.59270592308045 -0.08877978450426174
    vertex 81.68843592098565 13.185069954872136 3.200225916370059
    vertex 81.68843592098565 13.185069954872136 -0.08877978450426174
  endloop
endfacet
facet normal 0.8829481817104293 0.46947045531561094 -2.3589713826864305e-17
  outer loop
    vertex 80.9399848650775 14.59270592308045 3.200225916370059
    vertex 81.68843592098565 13.185069954872136 3.200225916370059
    vertex 80.9399848650775 14.59270592308045 -0.08877978450426174
  endloop
endfacet
facet normal 0.990267223321582 0.13917911630328728 -5.258281631344376e-18
  outer loop
    vertex 80.71809879482599 16.17143776531221 -0.08877978450426174
    vertex 80.9399848650775 14.59270592308045 3.200225916370059
    vertex 80.9399848650775 14.59270592308045 -0.08877978450426174
  endloop
endfacet
facet normal 0.990267223321582 0.13917911630328725 5.258281631344374e-18
  outer loop
    vertex 80.71809879482599 16.17143776531221 3.200225916370059
    vertex 80.9399848650775 14.59270592308045 3.200225916370059
    vertex 80.71809879482599 16.17143776531221 -0.08877978450426174
  endloop
endfacet
facet normal 0.9781470317291923 -0.20791436775598426 1.0646873914493724e-17
  outer loop
    vertex 81.04956591976497 17.730846996498123 -0.08877978450426174
    vertex 80.71809879482599 16.17143776531221 3.200225916370059
    vertex 80.71809879482599 16.17143776531221 -0.08877978450426174
  endloop
endfacet
facet normal 0.9781470317291923 -0.20791436775598432 -1.0646873914493724e-17
  outer loop
    vertex 81.04956591976497 17.730846996498123 3.200225916370059
    vertex 80.71809879482599 16.17143776531221 3.200225916370059
    vertex 81.04956591976497 17.730846996498123 -0.08877978450426174
  endloop
endfacet
facet normal 0.8480493804884263 -0.5299172088668158 -2.4560532244330536e-17
  outer loop
    vertex 81.89438292873713 19.082844118118313 -0.08877978450426174
    vertex 81.04956591976497 17.730846996498123 3.200225916370059
    vertex 81.04956591976497 17.730846996498123 -0.08877978450426174
  endloop
endfacet
facet normal 0.8480493804884263 -0.5299172088668158 0.0
  outer loop
    vertex 81.89438292873713 19.082844118118313 3.200225916370059
    vertex 81.04956591976497 17.730846996498123 3.200225916370059
    vertex 81.89438292873713 19.082844118118313 -0.08877978450426174
  endloop
endfacet
facet normal 0.6156588203473584 -0.7880128278959037 -2.643145833498712e-17
  outer loop
    vertex 81.89438292873713 19.082844118118313 3.200225916370059
    vertex 81.89438292873713 19.082844118118313 -0.08877978450426174
    vertex 83.15067368496274 20.064359212303188 -0.08877978450426174
  endloop
endfacet
facet normal 0.6156588203473587 -0.7880128278959034 0.0
  outer loop
    vertex 81.89438292873713 19.082844118118313 3.200225916370059
    vertex 83.15067368496274 20.064359212303188 -0.08877978450426174
    vertex 83.15067368496274 20.064359212303188 3.200225916370059
  endloop
endfacet
facet normal 0.30901719139597633 -0.9510564522791182 3.2850495036340656e-17
  outer loop
    vertex 83.15067368496274 20.064359212303188 3.200225916370059
    vertex 83.15067368496274 20.064359212303188 -0.08877978450426174
    vertex 84.66689257076597 20.557008939361587 -0.08877978450426174
  endloop
endfacet
facet normal 0.30901719139597633 -0.9510564522791182 1.0950165012113551e-17
  outer loop
    vertex 83.15067368496274 20.064359212303188 3.200225916370059
    vertex 84.66689257076597 20.557008939361587 -0.08877978450426174
    vertex 84.66689257076597 20.557008939361587 3.200225916370059
  endloop
endfacet
facet normal -0.034899935095666586 -0.9993908117099728 0.0
  outer loop
    vertex 84.66689257076597 20.557008939361587 3.200225916370059
    vertex 84.66689257076597 20.557008939361587 -0.08877978450426174
    vertex 86.26016063564632 20.501370092773453 -0.08877978450426174
  endloop
endfacet
facet normal -0.03489993509566658 -0.9993908117099728 0.0
  outer loop
    vertex 84.66689257076597 20.557008939361587 3.200225916370059
    vertex 86.26016063564632 20.501370092773453 -0.08877978450426174
    vertex 86.26016063564632 20.501370092773453 3.200225916370059
  endloop
endfacet
facet normal -0.37460599320096444 -0.9271840970691414 2.2464176789884018e-17
  outer loop
    vertex 86.26016063564632 20.501370092773453 3.200225916370059
    vertex 86.26016063564632 20.501370092773453 -0.08877978450426174
    vertex 87.73832189663268 19.90415529041293 -0.08877978450426174
  endloop
endfacet
facet normal -0.3746059932009644 -0.9271840970691414 0.0
  outer loop
    vertex 86.26016063564632 20.501370092773453 3.200225916370059
    vertex 87.73832189663268 19.90415529041293 -0.08877978450426174
    vertex 87.73832189663268 19.90415529041293 3.200225916370059
  endloop
endfacet
facet normal -0.6691272156754137 -0.7431478784484744 5.6054084963361e-17
  outer loop
    vertex 87.73832189663268 19.90415529041293 3.200225916370059
    vertex 87.73832189663268 19.90415529041293 -0.08877978450426174
    vertex 88.9230892229876 18.83739578628543 -0.08877978450426174
  endloop
endfacet
facet normal -0.6691272156754137 -0.7431478784484744 -2.80270424816805e-17
  outer loop
    vertex 87.73832189663268 19.90415529041293 3.200225916370059
    vertex 88.9230892229876 18.83739578628543 -0.08877978450426174
    vertex 88.9230892229876 18.83739578628543 3.200225916370059
  endloop
endfacet
facet normal -0.8829481817104232 -0.4694704553156223 -2.3589713826864173e-17
  outer loop
    vertex 88.9230892229876 18.83739578628543 -0.08877978450426174
    vertex 89.67154027889585 17.429759818077105 -0.08877978450426174
    vertex 88.9230892229876 18.83739578628543 3.200225916370059
  endloop
endfacet
facet normal -0.8829481817104232 -0.4694704553156223 -2.358971382686417e-17
  outer loop
    vertex 88.9230892229876 18.83739578628543 3.200225916370059
    vertex 89.67154027889585 17.429759818077105 -0.08877978450426174
    vertex 89.67154027889585 17.429759818077105 3.200225916370059
  endloop
endfacet
facet normal -0.9902685452931186 -0.1391697100774831 0.0
  outer loop
    vertex 89.67154027889585 17.429759818077105 -0.08877978450426174
    vertex 89.89341078365658 15.851029921531696 -0.08877978450426174
    vertex 89.67154027889585 17.429759818077105 3.200225916370059
  endloop
endfacet
facet normal -0.9902685452931186 -0.1391697100774831 0.0
  outer loop
    vertex 89.67154027889585 17.429759818077105 3.200225916370059
    vertex 89.89341078365658 15.851029921531696 -0.08877978450426174
    vertex 89.89341078365658 15.851029921531696 3.200225916370059
  endloop
endfacet
facet normal -0.9781470317291923 0.20791436775598426 1.0646873914493724e-17
  outer loop
    vertex 89.89341078365658 15.851029921531696 -0.08877978450426174
    vertex 89.5619436587176 14.291620690345768 -0.08877978450426174
    vertex 89.89341078365658 15.851029921531696 3.200225916370059
  endloop
endfacet
facet normal -0.9781470317291923 0.20791436775598426 1.0646873914493723e-17
  outer loop
    vertex 89.89341078365658 15.851029921531696 3.200225916370059
    vertex 89.5619436587176 14.291620690345768 -0.08877978450426174
    vertex 89.5619436587176 14.291620690345768 3.200225916370059
  endloop
endfacet
facet normal -0.8480495518462425 0.5299169346354081 -2.4560501861532805e-17
  outer loop
    vertex 89.5619436587176 14.291620690345768 -0.08877978450426174
    vertex 88.71712664974545 12.939622595882417 -0.08877978450426174
    vertex 89.5619436587176 14.291620690345768 3.200225916370059
  endloop
endfacet
facet normal -0.8480495518462425 0.5299169346354081 0.0
  outer loop
    vertex 89.5619436587176 14.291620690345768 3.200225916370059
    vertex 88.71712664974545 12.939622595882417 -0.08877978450426174
    vertex 88.71712664974545 12.939622595882417 3.200225916370059
  endloop
endfacet
facet normal -0.61566393603386 0.7880088310845859 0.0
  outer loop
    vertex 88.71712664974545 12.939622595882417 3.200225916370059
    vertex 88.71712664974545 12.939622595882417 -0.08877978450426174
    vertex 87.4608514590106 11.958106528854374 -0.08877978450426174
  endloop
endfacet
facet normal -0.61566393603386 0.7880088310845859 0.0
  outer loop
    vertex 88.71712664974545 12.939622595882417 3.200225916370059
    vertex 87.4608514590106 11.958106528854374 -0.08877978450426174
    vertex 87.4608514590106 11.958106528854374 3.200225916370059
  endloop
endfacet
facet normal -0.3090166394457128 0.9510566316185796 3.285050123091519e-17
  outer loop
    vertex 87.4608514590106 11.958106528854374 3.200225916370059
    vertex 87.4608514590106 11.958106528854374 -0.08877978450426174
    vertex 85.94463257320737 11.465457774639138 -0.08877978450426174
  endloop
endfacet
facet normal -0.7986362273258707 -0.6018140712900457 -6.325451710068138e-17
  outer loop
    vertex 73.59673113430354 9.78543058300019 7.607057605060244
    vertex 76.09368489406916 6.471852809333804 7.607057605060244
    vertex 73.59673113430354 9.78543058300019 12.197507605060256
  endloop
endfacet
facet normal -0.7986362273258707 -0.6018140712900457 0.0
  outer loop
    vertex 73.59673113430354 9.78543058300019 12.197507605060256
    vertex 76.09368489406916 6.471852809333804 7.607057605060244
    vertex 76.09368489406916 6.471852809333804 12.197507605060256
  endloop
endfacet
facet normal -0.5735755942724239 -0.8191526339181459 0.0
  outer loop
    vertex 76.09368489406916 6.471852809333804 12.197507605060256
    vertex 76.09368489406916 6.471852809333804 7.607057605060244
    vertex 79.49239422787045 4.092056120443348 7.607057605060244
  endloop
endfacet
facet normal -0.5735755942724239 -0.8191526339181459 0.0
  outer loop
    vertex 76.09368489406916 6.471852809333804 12.197507605060256
    vertex 79.49239422787045 4.092056120443348 7.607057605060244
    vertex 79.49239422787045 4.092056120443348 12.197507605060256
  endloop
endfacet
facet normal -0.29237197209706395 -0.9563046742184594 -2.641277308737624e-17
  outer loop
    vertex 79.49239422787045 4.092056120443348 12.197507605060256
    vertex 79.49239422787045 4.092056120443348 7.607057605060244
    vertex 83.46014677151058 2.8789912183761595 7.607057605060244
  endloop
endfacet
facet normal -0.29237197209706395 -0.9563046742184594 -2.641277308737624e-17
  outer loop
    vertex 79.49239422787045 4.092056120443348 12.197507605060256
    vertex 83.46014677151058 2.8789912183761595 7.607057605060244
    vertex 83.46014677151058 2.8789912183761595 12.197507605060256
  endloop
endfacet
facet normal 0.017452517190961095 -0.9998476932231725 -1.5789134192447533e-18
  outer loop
    vertex 83.46014677151058 2.8789912183761595 12.197507605060256
    vertex 83.46014677151058 2.8789912183761595 7.607057605060244
    vertex 87.60855240047788 2.951402367639545 7.607057605060244
  endloop
endfacet
facet normal 0.017452517190961102 -0.9998476932231725 3.157826838489507e-18
  outer loop
    vertex 83.46014677151058 2.8789912183761595 12.197507605060256
    vertex 87.60855240047788 2.951402367639545 7.607057605060244
    vertex 87.60855240047788 2.951402367639545 12.197507605060256
  endloop
endfacet
facet normal 0.3255670556777578 -0.9455189539386908 2.6713861294277757e-17
  outer loop
    vertex 87.60855240047788 2.951402367639545 12.197507605060256
    vertex 87.60855240047788 2.951402367639545 7.607057605060244
    vertex 91.53156972378108 4.302200460052491 7.607057605060244
  endloop
endfacet
facet normal 0.3255670556777578 -0.9455189539386908 0.0
  outer loop
    vertex 87.60855240047788 2.951402367639545 12.197507605060256
    vertex 91.53156972378108 4.302200460052491 7.607057605060244
    vertex 91.53156972378108 4.302200460052491 12.197507605060256
  endloop
endfacet
facet normal 0.13917343674216298 0.990268021550416 0.0
  outer loop
    vertex 89.18298622158382 28.693077320289618 12.197507605060256
    vertex 89.18298622158382 28.693077320289618 7.607057605060244
    vertex 85.0743192904315 29.270514221000685 7.607057605060244
  endloop
endfacet
facet normal 0.13917343674216298 0.990268021550416 2.5506904771349952e-17
  outer loop
    vertex 89.18298622158382 28.693077320289618 12.197507605060256
    vertex 85.0743192904315 29.270514221000685 7.607057605060244
    vertex 85.0743192904315 29.270514221000685 12.197507605060256
  endloop
endfacet
facet normal -0.1736483083933657 0.9848077299616015 -1.2824118979904997e-17
  outer loop
    vertex 85.0743192904315 29.270514221000685 12.197507605060256
    vertex 85.0743192904315 29.270514221000685 7.607057605060244
    vertex 80.9883001482806 28.55003824329377 7.607057605060244
  endloop
endfacet
facet normal -0.1736483083933657 0.9848077299616015 1.2824118979904997e-17
  outer loop
    vertex 85.0743192904315 29.270514221000685 12.197507605060256
    vertex 80.9883001482806 28.55003824329377 7.607057605060244
    vertex 80.9883001482806 28.55003824329377 12.197507605060256
  endloop
endfacet
facet normal -0.4694721919821419 0.8829472583090583 -2.86072776227755e-17
  outer loop
    vertex 80.9883001482806 28.55003824329377 12.197507605060256
    vertex 80.9883001482806 28.55003824329377 7.607057605060244
    vertex 77.32491521023125 26.60217857131959 7.607057605060244
  endloop
endfacet
facet normal -0.4694721919821418 0.8829472583090585 -5.7214555245551e-17
  outer loop
    vertex 80.9883001482806 28.55003824329377 12.197507605060256
    vertex 77.32491521023125 26.60217857131959 7.607057605060244
    vertex 77.32491521023125 26.60217857131959 12.197507605060256
  endloop
endfacet
facet normal -0.7193382696133638 0.6946599555679396 0.0
  outer loop
    vertex 77.32491521023125 26.60217857131959 7.607057605060244
    vertex 74.44273112057066 23.617602737998997 7.607057605060244
    vertex 77.32491521023125 26.60217857131959 12.197507605060256
  endloop
endfacet
facet normal -0.7193382696133638 0.6946599555679396 0.0
  outer loop
    vertex 77.32491521023125 26.60217857131959 12.197507605060256
    vertex 74.44273112057066 23.617602737998997 7.607057605060244
    vertex 74.44273112057066 23.617602737998997 12.197507605060256
  endloop
endfacet
facet normal -0.8987951611676175 0.43836886096263356 8.43084623085108e-17
  outer loop
    vertex 74.44273112057066 23.617602737998997 7.607057605060244
    vertex 72.62391909511899 19.88846138439181 7.607057605060244
    vertex 74.44273112057066 23.617602737998997 12.197507605060256
  endloop
endfacet
facet normal -0.8987951611676175 0.43836886096263356 8.43084623085108e-17
  outer loop
    vertex 74.44273112057066 23.617602737998997 12.197507605060256
    vertex 72.62391909511899 19.88846138439181 7.607057605060244
    vertex 72.62391909511899 19.88846138439181 12.197507605060256
  endloop
endfacet
facet normal 0.986285572963758 -0.16504777660893225 9.196371016361234e-18
  outer loop
    vertex 98.55898408230166 15.548421216392532 7.607057605060244
    vertex 97.9876060488544 12.134004356765754 12.197507605060256
    vertex 97.9876060488544 12.134004356765754 7.607057605060244
  endloop
endfacet
facet normal 0.986285572963758 -0.16504777660893222 0.0
  outer loop
    vertex 98.55898408230166 15.548421216392532 12.197507605060256
    vertex 97.9876060488544 12.134004356765754 12.197507605060256
    vertex 98.55898408230166 15.548421216392532 7.607057605060244
  endloop
endfacet
facet normal 0.995396151505022 0.09584623920108355 9.112200767917337e-18
  outer loop
    vertex 98.22717451656682 18.9943776515961 7.607057605060244
    vertex 98.55898408230166 15.548421216392532 12.197507605060256
    vertex 98.55898408230166 15.548421216392532 7.607057605060244
  endloop
endfacet
facet normal 0.995396151505022 0.09584623920108355 1.8224401535834674e-17
  outer loop
    vertex 98.22717451656682 18.9943776515961 12.197507605060256
    vertex 98.55898408230166 15.548421216392532 12.197507605060256
    vertex 98.22717451656682 18.9943776515961 7.607057605060244
  endloop
endfacet
facet normal 0.9366722065964985 0.3502073348598606 -1.9366976942619847e-17
  outer loop
    vertex 97.01479400966983 22.237037103843715 7.607057605060244
    vertex 98.22717451656682 18.9943776515961 12.197507605060256
    vertex 98.22717451656682 18.9943776515961 7.607057605060244
  endloop
endfacet
facet normal 0.9366722065964986 0.3502073348598604 -5.810093082785954e-17
  outer loop
    vertex 97.01479400966983 22.237037103843715 12.197507605060256
    vertex 98.22717451656682 18.9943776515961 12.197507605060256
    vertex 97.01479400966983 22.237037103843715 7.607057605060244
  endloop
endfacet
facet normal 0.0 0.0 1.0
  outer loop
    vertex 76.01238633602475 22.480090295791655 12.197507605060256
    vertex 72.62391909511899 19.88846138439181 12.197507605060256
    vertex 74.47741103390071 19.321789966201813 12.197507605060256
  endloop
endfacet
facet normal 0.0 0.0 1.0
  outer loop
    vertex 76.01238633602475 22.480090295791655 12.197507605060256
    vertex 74.44273112057066 23.617602737998997 12.197507605060256
    vertex 72.62391909511899 19.88846138439181 12.197507605060256
  endloop
endfacet
facet normal 0.0 0.0 1.0
  outer loop
    vertex 78.44116324642513 25.016241852569593 12.197507605060256
    vertex 74.44273112057066 23.617602737998997 12.197507605060256
    vertex 76.01238633602475 22.480090295791655 12.197507605060256
  endloop
endfacet
facet normal 0.0 0.0 1.0
  outer loop
    vertex 78.44116324642513 25.016241852569593 12.197507605060256
    vertex 77.32491521023125 26.60217857131959 12.197507605060256
    vertex 74.44273112057066 23.617602737998997 12.197507605060256
  endloop
endfacet
facet normal 0.0 0.0 1.0
  outer loop
    vertex 79.98988287685724 26.008946588897718 12.197507605060256
    vertex 77.32491521023125 26.60217857131959 12.197507605060256
    vertex 78.44116324642513 25.016241852569593 12.197507605060256
  endloop
endfacet
facet normal 0.0 0.0 1.0
  outer loop
    vertex 80.9883001482806 28.55003824329377 12.197507605060256
    vertex 77.32491521023125 26.60217857131959 12.197507605060256
    vertex 79.98988287685724 26.008946588897718 12.197507605060256
  endloop
endfacet
facet normal 0.0 0.0 1.0
  outer loop
    vertex 81.53015044582696 26.686325614166268 12.197507605060256
    vertex 80.9883001482806 28.55003824329377 12.197507605060256
    vertex 79.98988287685724 26.008946588897718 12.197507605060256
  endloop
endfacet
facet normal 0.0 0.0 1.0
  outer loop
    vertex 84.98224941280696 27.32972128181459 12.197507605060256
    vertex 80.9883001482806 28.55003824329377 12.197507605060256
    vertex 81.53015044582696 26.686325614166268 12.197507605060256
  endloop
endfacet
facet normal 0.0 0.0 1.0
  outer loop
    vertex 85.0743192904315 29.270514221000685 12.197507605060256
    vertex 80.9883001482806 28.55003824329377 12.197507605060256
    vertex 84.98224941280696 27.32972128181459 12.197507605060256
  endloop
endfacet
facet normal 0.0 0.0 1.0
  outer loop
    vertex 86.20898130215026 27.298261479377757 12.197507605060256
    vertex 85.0743192904315 29.270514221000685 12.197507605060256
    vertex 84.98224941280696 27.32972128181459 12.197507605060256
  endloop
endfacet
facet normal 0.0 0.0 1.0
  outer loop
    vertex 87.42509752682065 27.134238175201432 12.197507605060256
    vertex 85.0743192904315 29.270514221000685 12.197507605060256
    vertex 86.20898130215026 27.298261479377757 12.197507605060256
  endloop
endfacet
facet normal 0.0 0.0 1.0
  outer loop
    vertex 89.18298622158382 28.693077320289618 12.197507605060256
    vertex 85.0743192904315 29.270514221000685 12.197507605060256
    vertex 87.42509752682065 27.134238175201432 12.197507605060256
  endloop
endfacet
facet normal 0.0 0.0 1.0
  outer loop
    vertex 89.18298622158382 28.693077320289618 12.197507605060256
    vertex 87.42509752682065 27.134238175201432 12.197507605060256
    vertex 88.6163089663348 26.839577598762524 12.197507605060256
  endloop
endfacet
facet normal 0.0 0.0 1.0
  outer loop
    vertex 97.9876060488544 12.134004356765754 12.197507605060256
    vertex 96.36432771786073 13.577961424732214 12.197507605060256
    vertex 96.1340985445819 12.700676747798926 12.197507605060256
  endloop
endfacet
facet normal 0.0 0.0 1.0
  outer loop
    vertex 97.9876060488544 12.134004356765754 12.197507605060256
    vertex 96.52360938442567 14.470858288860324 12.197507605060256
    vertex 96.36432771786073 13.577961424732214 12.197507605060256
  endloop
endfacet
facet normal 0.0 0.0 1.0
  outer loop
    vertex 98.55898408230166 15.548421216392532 12.197507605060256
    vertex 96.52360938442567 14.470858288860324 12.197507605060256
    vertex 97.9876060488544 12.134004356765754 12.197507605060256
  endloop
endfacet
facet normal 0.0 0.0 1.0
  outer loop
    vertex 98.55898408230166 15.548421216392532 12.197507605060256
    vertex 96.61090065639831 15.373638266754167 12.197507605060256
    vertex 96.52360938442567 14.470858288860324 12.197507605060256
  endloop
endfacet
facet normal 0.0 0.0 1.0
  outer loop
    vertex 98.55898408230166 15.548421216392532 12.197507605060256
    vertex 96.54004654262884 17.426736221504232 12.197507605060256
    vertex 96.61090065639831 15.373638266754167 12.197507605060256
  endloop
endfacet
facet normal 0.0 0.0 1.0
  outer loop
    vertex 98.55898408230166 15.548421216392532 12.197507605060256
    vertex 98.22717451656682 18.9943776515961 12.197507605060256
    vertex 96.54004654262884 17.426736221504232 12.197507605060256
  endloop
endfacet
facet normal 0.0 0.0 1.0
  outer loop
    vertex 98.22717451656682 18.9943776515961 12.197507605060256
    vertex 96.09940306576112 19.43324277114871 12.197507605060256
    vertex 96.54004654262884 17.426736221504232 12.197507605060256
  endloop
endfacet
facet normal 0.0 0.0 1.0
  outer loop
    vertex 98.22717451656682 18.9943776515961 12.197507605060256
    vertex 97.01479400966983 22.237037103843715 12.197507605060256
    vertex 96.09940306576112 19.43324277114871 12.197507605060256
  endloop
endfacet
facet normal 0.0 0.0 1.0
  outer loop
    vertex 97.01479400966983 22.237037103843715 12.197507605060256
    vertex 95.30347726314884 21.327111592865027 12.197507605060256
    vertex 96.09940306576112 19.43324277114871 12.197507605060256
  endloop
endfacet
facet normal 0.0 0.0 1.0
  outer loop
    vertex 76.09368489406916 6.471852809333804 12.197507605060256
    vertex 75.30804788082455 10.695355121135725 12.197507605060256
    vertex 73.59673113430354 9.78543058300019 12.197507605060256
  endloop
endfacet
facet normal 0.0 0.0 1.0
  outer loop
    vertex 77.44006871059747 7.86606937885285 12.197507605060256
    vertex 75.30804788082455 10.695355121135725 12.197507605060256
    vertex 76.09368489406916 6.471852809333804 12.197507605060256
  endloop
endfacet
facet normal 0.0 0.0 1.0
  outer loop
    vertex 79.49239422787045 4.092056120443348 12.197507605060256
    vertex 77.44006871059747 7.86606937885285 12.197507605060256
    vertex 76.09368489406916 6.471852809333804 12.197507605060256
  endloop
endfacet
facet normal 0.0 0.0 1.0
  outer loop
    vertex 80.34203653896664 5.834089417219165 12.197507605060256
    vertex 77.44006871059747 7.86606937885285 12.197507605060256
    vertex 79.49239422787045 4.092056120443348 12.197507605060256
  endloop
endfacet
facet normal 0.0 0.0 1.0
  outer loop
    vertex 83.46014677151058 2.8789912183761595 12.197507605060256
    vertex 80.34203653896664 5.834089417219165 12.197507605060256
    vertex 79.49239422787045 4.092056120443348 12.197507605060256
  endloop
endfacet
facet normal 0.0 0.0 1.0
  outer loop
    vertex 83.72988116024351 4.7983193458557185 12.197507605060256
    vertex 80.34203653896664 5.834089417219165 12.197507605060256
    vertex 83.46014677151058 2.8789912183761595 12.197507605060256
  endloop
endfacet
facet normal 0.0 0.0 1.0
  outer loop
    vertex 87.60855240047788 2.951402367639545 12.197507605060256
    vertex 83.72988116024351 4.7983193458557185 12.197507605060256
    vertex 83.46014677151058 2.8789912183761595 12.197507605060256
  endloop
endfacet
facet normal 0.0 0.0 1.0
  outer loop
    vertex 87.60855240047788 2.951402367639545 12.197507605060256
    vertex 87.27199536007261 4.8601469342708645 12.197507605060256
    vertex 83.72988116024351 4.7983193458557185 12.197507605060256
  endloop
endfacet
facet normal 0.0 0.0 1.0
  outer loop
    vertex 91.53156972378108 4.302200460052491 12.197507605060256
    vertex 87.27199536007261 4.8601469342708645 12.197507605060256
    vertex 87.60855240047788 2.951402367639545 12.197507605060256
  endloop
endfacet
facet normal 0.0 0.0 1.0
  outer loop
    vertex 91.53156972378108 4.302200460052491 12.197507605060256
    vertex 90.62164226711603 6.013520611524583 12.197507605060256
    vertex 87.27199536007261 4.8601469342708645 12.197507605060256
  endloop
endfacet
facet normal -0.6691288956428184 -0.743144393417278 0.0017121764769097085
  outer loop
    vertex 93.58696164272646 23.733575372314483 78.50676075123188
    vertex 91.3060880251727 25.613775747489935 3.200225916370059
    vertex 94.22849334286073 22.982435377883935 3.200225916370059
  endloop
endfacet
facet normal -0.4146929380420282 -0.9099614096971753 -2.0967607333003787e-18
  outer loop
    vertex 88.6163089663348 26.839577598762524 78.50676075123188
    vertex 88.6163089663348 26.839577598762524 12.197507605060256
    vertex 91.3060880251727 25.613775747489935 78.50676075123188
  endloop
endfacet
facet normal -0.8141147163250764 -0.580702954817549 -0.0011432100017574633
  outer loop
    vertex 93.58696164272646 23.733575372314483 78.50676075123188
    vertex 94.22849334286073 22.982435377883935 3.200225916370059
    vertex 95.30347726314884 21.327111592865027 78.50676075123188
  endloop
endfacet
facet normal -0.8386696225554154 -0.5446404907852126 2.5512564897169382e-18
  outer loop
    vertex 94.22849334286073 22.982435377883935 3.200225916370059
    vertex 95.30347726314884 21.327111592865027 12.197507605060256
    vertex 95.30347726314884 21.327111592865027 78.50676075123188
  endloop
endfacet
facet normal -0.8827871570932573 -0.46938404577233167 0.019116821011943192
  outer loop
    vertex 94.22849334286073 22.982435377883935 3.200225916370059
    vertex 96.07466950100282 19.51026665630343 3.200225916370059
    vertex 95.30347726314884 21.327111592865027 12.197507605060256
  endloop
endfacet
facet normal -0.9218947488805481 -0.38743962069234655 -0.0007824987168811382
  outer loop
    vertex 95.30347726314884 21.327111592865027 12.197507605060256
    vertex 96.07466950100282 19.51026665630343 3.200225916370059
    vertex 96.09940306576112 19.43324277114871 12.197507605060256
  endloop
endfacet
facet normal -0.9767245348455446 -0.21449583359325125 0.0008487649208954228
  outer loop
    vertex 96.07466950100282 19.51026665630343 3.200225916370059
    vertex 96.54004654262884 17.426736221504232 12.197507605060256
    vertex 96.09940306576112 19.43324277114871 12.197507605060256
  endloop
endfacet
facet normal -0.9900894019215706 -0.13914890301691468 0.018988390973864393
  outer loop
    vertex 96.07466950100282 19.51026665630343 3.200225916370059
    vertex 96.62196772030215 15.616063002014178 3.200225916370059
    vertex 96.54004654262884 17.426736221504232 12.197507605060256
  endloop
endfacet
facet normal -0.9994027042768823 -0.03449021647825759 -0.0021586225556435154
  outer loop
    vertex 96.54004654262884 17.426736221504232 12.197507605060256
    vertex 96.62196772030215 15.616063002014178 3.200225916370059
    vertex 96.61090065639831 15.373638266754167 12.197507605060256
  endloop
endfacet
facet normal -0.9953569563764304 0.0962426913716283 0.001368850099317154
  outer loop
    vertex 96.62196772030215 15.616063002014178 3.200225916370059
    vertex 96.52360938442567 14.470858288860324 12.197507605060256
    vertex 96.61090065639831 15.373638266754167 12.197507605060256
  endloop
endfacet
facet normal -0.9843927668351041 0.1756033946978604 0.011590011791022654
  outer loop
    vertex 96.62196772030215 15.616063002014178 3.200225916370059
    vertex 96.36432771786073 13.577961424732214 12.197507605060256
    vertex 96.52360938442567 14.470858288860324 12.197507605060256
  endloop
endfacet
facet normal -0.9779694135283821 0.20787406264483968 0.01908403213375161
  outer loop
    vertex 96.62196772030215 15.616063002014178 3.200225916370059
    vertex 95.80435918911319 11.769521853160866 3.200225916370059
    vertex 96.36432771786073 13.577961424732214 12.197507605060256
  endloop
endfacet
facet normal -0.9672059471114492 0.25382755615000513 0.009177560196517194
  outer loop
    vertex 96.36432771786073 13.577961424732214 12.197507605060256
    vertex 95.80435918911319 11.769521853160866 3.200225916370059
    vertex 96.1340985445819 12.700676747798926 12.197507605060256
  endloop
endfacet
facet normal -0.9426414549776423 0.3338069612180577 5.663850897244816e-19
  outer loop
    vertex 96.1340985445819 12.700676747798926 12.197507605060256
    vertex 95.80435918911319 11.769521853160866 3.200225916370059
    vertex 96.1340985445819 12.700676747798926 78.50676075123188
  endloop
endfacet
facet normal -0.909961198631362 0.4146918253622344 -0.001143224874215114
  outer loop
    vertex 96.1340985445819 12.700676747798926 78.50676075123188
    vertex 95.80435918911319 11.769521853160866 3.200225916370059
    vertex 94.90830058468204 10.010899634647371 78.50676075123188
  endloop
endfacet
facet normal -0.8480460931228874 0.529917546159035 0.0022843405600282405
  outer loop
    vertex 95.80435918911319 11.769521853160866 3.200225916370059
    vertex 93.72046685665468 8.43459406328202 3.200225916370059
    vertex 94.90830058468204 10.010899634647371 78.50676075123188
  endloop
endfacet
facet normal -0.5807042518319383 0.8141145938406391 2.3436286938571582e-18
  outer loop
    vertex 93.0280982638202 7.730034772682196 78.50676075123188
    vertex 90.62164226711603 6.013520611524583 12.197507605060256
    vertex 90.62164226711603 6.013520611524583 78.50676075123188
  endloop
endfacet
facet normal -0.77162367664334 0.6360782928659532 -0.0011432358240426183
  outer loop
    vertex 94.90830058468204 10.010899634647371 78.50676075123188
    vertex 93.72046685665468 8.43459406328202 3.200225916370059
    vertex 93.0280982638202 7.730034772682196 78.50676075123188
  endloop
endfacet
facet normal -0.6124750281108681 0.7904879670611961 0.001764616686086597
  outer loop
    vertex 93.0280982638202 7.730034772682196 78.50676075123188
    vertex 93.72046685665468 8.43459406328202 3.200225916370059
    vertex 90.62164226711603 6.013520611524583 12.197507605060256
  endloop
endfacet
facet normal -0.6156624765898728 0.7880099713323584 0.0
  outer loop
    vertex 90.62164226711603 6.013520611524583 12.197507605060256
    vertex 93.72046685665468 8.43459406328202 3.200225916370059
    vertex 90.62164226711603 6.013520611524583 3.200225916370059
  endloop
endfacet
facet normal -0.3255675872619161 0.9455187709001099 -1.9076419234910128e-17
  outer loop
    vertex 90.62164226711603 6.013520611524583 12.197507605060256
    vertex 90.62164226711603 6.013520611524583 3.200225916370059
    vertex 87.27199536007261 4.8601469342708645 12.197507605060256
  endloop
endfacet
facet normal -0.30900903177010425 0.9510342779408908 0.006871714920687299
  outer loop
    vertex 87.27199536007261 4.8601469342708645 12.197507605060256
    vertex 90.62164226711603 6.013520611524583 3.200225916370059
    vertex 86.88162841823907 4.7983193458557185 3.200225916370059
  endloop
endfacet
facet normal -0.017452011186011467 0.9998290119690927 -0.006113438514564013
  outer loop
    vertex 87.27199536007261 4.8601469342708645 12.197507605060256
    vertex 86.88162841823907 4.7983193458557185 3.200225916370059
    vertex 83.72988116024351 4.7983193458557185 12.197507605060256
  endloop
endfacet
facet normal 0.034896853119227626 0.9993161534404755 0.012224365640286231
  outer loop
    vertex 83.72988116024351 4.7983193458557185 12.197507605060256
    vertex 86.88162841823907 4.7983193458557185 3.200225916370059
    vertex 82.95154436214776 4.935560763978964 3.200225916370059
  endloop
endfacet
facet normal 0.29235547559390423 0.9562498018385959 -0.010704782758572394
  outer loop
    vertex 83.72988116024351 4.7983193458557185 12.197507605060256
    vertex 82.95154436214776 4.935560763978964 3.200225916370059
    vertex 80.34203653896664 5.834089417219165 12.197507605060256
  endloop
endfacet
facet normal 0.3745586487446971 0.9270642738464736 0.016051504853360637
  outer loop
    vertex 80.34203653896664 5.834089417219165 12.197507605060256
    vertex 82.95154436214776 4.935560763978964 3.200225916370059
    vertex 79.30542155330988 6.408691452932358 3.200225916370059
  endloop
endfacet
facet normal 0.5735221064853753 0.8190743675153924 -0.01376858205618299
  outer loop
    vertex 80.34203653896664 5.834089417219165 12.197507605060256
    vertex 79.30542155330988 6.408691452932358 3.200225916370059
    vertex 77.44006871059747 7.86606937885285 12.197507605060256
  endloop
endfacet
facet normal 0.6690189782858531 0.7430187721103878 0.018349686235050785
  outer loop
    vertex 77.44006871059747 7.86606937885285 12.197507605060256
    vertex 79.30542155330988 6.408691452932358 3.200225916370059
    vertex 76.38303180111262 9.040030363273631 3.200225916370059
  endloop
endfacet
facet normal 0.7985418723871637 0.601744772516906 -0.015300548780352339
  outer loop
    vertex 75.30804788082455 10.695355121135725 12.197507605060256
    vertex 77.44006871059747 7.86606937885285 12.197507605060256
    vertex 76.38303180111262 9.040030363273631 3.200225916370059
  endloop
endfacet
facet normal 0.8827855844783203 0.4693870355540768 0.019116032303441898
  outer loop
    vertex 74.53684007747985 12.512200057697303 3.200225916370059
    vertex 75.30804788082455 10.695355121135725 12.197507605060256
    vertex 76.38303180111262 9.040030363273631 3.200225916370059
  endloop
endfacet
facet normal 0.9205043281254236 0.39073236607985634 0.0
  outer loop
    vertex 74.53684007747985 12.512200057697303 3.200225916370059
    vertex 75.30804788082455 10.695355121135725 78.50676075123188
    vertex 75.30804788082455 10.695355121135725 12.197507605060256
  endloop
endfacet
facet normal 0.9366720114096224 0.3502059906426438 -0.0011433109186324583
  outer loop
    vertex 74.27286492031429 13.464088185977943 78.50676075123188
    vertex 75.30804788082455 10.695355121135725 78.50676075123188
    vertex 74.53684007747985 12.512200057697303 3.200225916370059
  endloop
endfacet
facet normal 0.9902664965327403 0.13917375743637844 0.0017120414167087477
  outer loop
    vertex 73.9895418581805 16.40640468482973 3.200225916370059
    vertex 74.27286492031429 13.464088185977943 78.50676075123188
    vertex 74.53684007747985 12.512200057697303 3.200225916370059
  endloop
endfacet
facet normal 0.9862855466728074 -0.16504793371721288 -9.672525328779481e-19
  outer loop
    vertex 74.47741103390071 19.321789966201813 78.50676075123188
    vertex 73.9895418581805 16.40640468482973 78.50676075123188
    vertex 74.47741103390071 19.321789966201813 12.197507605060256
  endloop
endfacet
facet normal 0.9953958689246931 0.09584917384962392 0.0
  outer loop
    vertex 73.9895418581805 16.40640468482973 78.50676075123188
    vertex 74.27286492031429 13.464088185977943 78.50676075123188
    vertex 73.9895418581805 16.40640468482973 3.200225916370059
  endloop
endfacet
facet normal 0.9862855466728074 -0.16504793371721285 3.749668065136212e-19
  outer loop
    vertex 74.47741103390071 19.321789966201813 12.197507605060256
    vertex 73.9895418581805 16.40640468482973 78.50676075123188
    vertex 73.9895418581805 16.40640468482973 3.200225916370059
  endloop
endfacet
facet normal 0.9780471176554436 -0.2078906317649165 0.01432902195765779
  outer loop
    vertex 74.80715038936945 20.25294486083986 3.200225916370059
    vertex 74.47741103390071 19.321789966201813 12.197507605060256
    vertex 73.9895418581805 16.40640468482973 3.200225916370059
  endloop
endfacet
facet normal 0.8993347426949141 -0.43708845718229294 -0.012276040887666642
  outer loop
    vertex 76.01238633602475 22.480090295791655 12.197507605060256
    vertex 74.47741103390071 19.321789966201813 12.197507605060256
    vertex 74.80715038936945 20.25294486083986 3.200225916370059
  endloop
endfacet
facet normal 0.847917394728242 -0.5298371265473611 0.017570174993618303
  outer loop
    vertex 76.89104272182792 23.587872650718715 3.200225916370059
    vertex 76.01238633602475 22.480090295791655 12.197507605060256
    vertex 74.80715038936945 20.25294486083986 3.200225916370059
  endloop
endfacet
facet normal 0.7221529826700454 -0.6915787368457066 -0.014626016670787346
  outer loop
    vertex 78.44116324642513 25.016241852569593 12.197507605060256
    vertex 76.01238633602475 22.480090295791655 12.197507605060256
    vertex 76.89104272182792 23.587872650718715 3.200225916370059
  endloop
endfacet
facet normal 0.6155491791940911 -0.7878687568363442 0.019027085815605072
  outer loop
    vertex 78.44116324642513 25.016241852569593 12.197507605060256
    vertex 76.89104272182792 23.587872650718715 3.200225916370059
    vertex 79.98988287685724 26.008946588897718 3.200225916370059
  endloop
endfacet
facet normal 0.5396413568772692 -0.8418950088625421 0.0
  outer loop
    vertex 78.44116324642513 25.016241852569593 12.197507605060256
    vertex 79.98988287685724 26.008946588897718 3.200225916370059
    vertex 79.98988287685724 26.008946588897718 12.197507605060256
  endloop
endfacet
facet normal 0.4025699627986802 -0.9153892205244004 5.459064568735937e-18
  outer loop
    vertex 79.98988287685724 26.008946588897718 12.197507605060256
    vertex 79.98988287685724 26.008946588897718 3.200225916370059
    vertex 81.53015044582696 26.686325614166268 12.197507605060256
  endloop
endfacet
facet normal 0.3089635826882919 -0.9508900615846569 0.0186974691320112
  outer loop
    vertex 81.53015044582696 26.686325614166268 12.197507605060256
    vertex 79.98988287685724 26.008946588897718 3.200225916370059
    vertex 83.72988116024351 27.224148340988172 3.200225916370059
  endloop
endfacet
facet normal 0.18320510999541206 -0.9829754888966886 -0.013966957431210694
  outer loop
    vertex 81.53015044582696 26.686325614166268 12.197507605060256
    vertex 83.72988116024351 27.224148340988172 3.200225916370059
    vertex 84.98224941280696 27.32972128181459 12.197507605060256
  endloop
endfacet
facet normal -0.02563378597997781 -0.9995543605011116 0.015296712703938536
  outer loop
    vertex 84.98224941280696 27.32972128181459 12.197507605060256
    vertex 83.72988116024351 27.224148340988172 3.200225916370059
    vertex 86.20898130215026 27.298261479377757 12.197507605060256
  endloop
endfacet
facet normal -0.03489427376090516 -0.999231665545118 0.01784567820589896
  outer loop
    vertex 86.20898130215026 27.298261479377757 12.197507605060256
    vertex 83.72988116024351 27.224148340988172 3.200225916370059
    vertex 87.6599652163348 27.086905463600168 3.200225916370059
  endloop
endfacet
facet normal -0.13366421804010944 -0.9910251779936753 0.0017243544677790338
  outer loop
    vertex 86.20898130215026 27.298261479377757 12.197507605060256
    vertex 87.6599652163348 27.086905463600168 3.200225916370059
    vertex 87.42509752682065 27.134238175201432 12.197507605060256
  endloop
endfacet
facet normal -0.6360768628152054 -0.7716257023914941 1.9171067744636997e-18
  outer loop
    vertex 91.3060880251727 25.613775747489935 78.50676075123188
    vertex 91.3060880251727 25.613775747489935 3.200225916370059
    vertex 93.58696164272646 23.733575372314483 78.50676075123188
  endloop
endfacet
facet normal -0.41469293804202817 -0.9099614096971754 -3.251335714157328e-18
  outer loop
    vertex 91.3060880251727 25.613775747489935 78.50676075123188
    vertex 88.6163089663348 26.839577598762524 12.197507605060256
    vertex 91.3060880251727 25.613775747489935 3.200225916370059
  endloop
endfacet
facet normal -0.3745682394655101 -0.9270886239316438 0.014328899477618081
  outer loop
    vertex 88.6163089663348 26.839577598762524 12.197507605060256
    vertex 87.6599652163348 27.086905463600168 3.200225916370059
    vertex 91.3060880251727 25.613775747489935 3.200225916370059
  endloop
endfacet
facet normal -0.24012463503178422 -0.9707413717027552 -0.001161428218066118
  outer loop
    vertex 87.42509752682065 27.134238175201432 12.197507605060256
    vertex 87.6599652163348 27.086905463600168 3.200225916370059
    vertex 88.6163089663348 26.839577598762524 12.197507605060256
  endloop
endfacet
facet normal -0.9563039593319289 0.2923743103729816 0.0
  outer loop
    vertex 89.18298622158382 28.693077320289618 12.197507605060256
    vertex 88.6163089663348 26.839577598762524 12.197507605060256
    vertex 88.6163089663348 26.839577598762524 78.50676075123188
  endloop
endfacet
facet normal -0.956304016540753 0.2923741232531078 1.3448526144827636e-17
  outer loop
    vertex 90.03300210445735 31.473328848266643 7.607057605060244
    vertex 89.18298622158382 28.693077320289618 7.607057605060244
    vertex 89.18298622158382 28.693077320289618 12.197507605060256
  endloop
endfacet
facet normal -0.956304016540753 0.2923741232531078 -9.020204076859206e-19
  outer loop
    vertex 90.03300210445735 31.473328848266643 7.607057605060244
    vertex 89.18298622158382 28.693077320289618 12.197507605060256
    vertex 90.03300210445735 31.473328848266643 78.50676075123188
  endloop
endfacet
facet normal -0.956304016540753 0.2923741232531078 0.0
  outer loop
    vertex 90.03300210445735 31.473328848266643 78.50676075123188
    vertex 89.18298622158382 28.693077320289618 12.197507605060256
    vertex 89.18298622158382 28.693077320289618 78.50676075123188
  endloop
endfacet
facet normal -0.9563039593319289 0.2923743103729815 -1.1601390050921256e-18
  outer loop
    vertex 89.18298622158382 28.693077320289618 12.197507605060256
    vertex 88.6163089663348 26.839577598762524 78.50676075123188
    vertex 89.18298622158382 28.693077320289618 78.50676075123188
  endloop
endfacet
facet normal 0.0 0.0 1.0
  outer loop
    vertex 99.58177691219667 23.601924397468593 78.50676075123188
    vertex 97.13071021908144 27.038181586265573 78.50676075123188
    vertex 95.30347726314884 21.327111592865027 78.50676075123188
  endloop
endfacet
facet normal 0.0 0.0 1.0
  outer loop
    vertex 97.13071021908144 27.038181586265573 78.50676075123188
    vertex 93.58696164272646 23.733575372314483 78.50676075123188
    vertex 95.30347726314884 21.327111592865027 78.50676075123188
  endloop
endfacet
facet normal 0.0 0.0 1.0
  outer loop
    vertex 97.13071021908144 27.038181586265573 78.50676075123188
    vertex 93.8738025057636 29.72297190532685 78.50676075123188
    vertex 93.58696164272646 23.733575372314483 78.50676075123188
  endloop
endfacet
facet normal 0.0 0.0 1.0
  outer loop
    vertex 93.8738025057636 29.72297190532685 78.50676075123188
    vertex 91.3060880251727 25.613775747489935 78.50676075123188
    vertex 93.58696164272646 23.733575372314483 78.50676075123188
  endloop
endfacet
facet normal 0.0 0.0 1.0
  outer loop
    vertex 93.8738025057636 29.72297190532685 78.50676075123188
    vertex 90.03300210445735 31.473328848266643 78.50676075123188
    vertex 89.18298622158382 28.693077320289618 78.50676075123188
  endloop
endfacet
facet normal 0.0 0.0 1.0
  outer loop
    vertex 93.8738025057636 29.72297190532685 78.50676075123188
    vertex 89.18298622158382 28.693077320289618 78.50676075123188
    vertex 91.3060880251727 25.613775747489935 78.50676075123188
  endloop
endfacet
facet normal 0.0 0.0 1.0
  outer loop
    vertex 91.3060880251727 25.613775747489935 78.50676075123188
    vertex 89.18298622158382 28.693077320289618 78.50676075123188
    vertex 88.6163089663348 26.839577598762524 78.50676075123188
  endloop
endfacet
facet normal 0.4694710998037186 -0.8829478390307589 3.907847854817023e-18
  outer loop
    vertex 99.58177691219667 23.601924397468593 78.50676075123188
    vertex 97.01479400966983 22.237037103843715 12.197507605060256
    vertex 99.58177691219667 23.601924397468593 7.607057605060244
  endloop
endfacet
facet normal 0.4694710998037187 -0.8829478390307589 0.0
  outer loop
    vertex 97.01479400966983 22.237037103843715 12.197507605060256
    vertex 97.01479400966983 22.237037103843715 7.607057605060244
    vertex 99.58177691219667 23.601924397468593 7.607057605060244
  endloop
endfacet
facet normal 0.4694716480151674 -0.8829475475417111 -2.7222431663827164e-08
  outer loop
    vertex 95.30347726314884 21.327111592865027 78.50676075123188
    vertex 97.01479400966983 22.237037103843715 12.197507605060256
    vertex 99.58177691219667 23.601924397468593 78.50676075123188
  endloop
endfacet
facet normal 0.46947247033381573 -0.8829471103065374 1.2565304394827823e-18
  outer loop
    vertex 95.30347726314884 21.327111592865027 78.50676075123188
    vertex 95.30347726314884 21.327111592865027 12.197507605060256
    vertex 97.01479400966983 22.237037103843715 12.197507605060256
  endloop
endfacet
facet normal 0.0 0.0 1.0
  outer loop
    vertex 100.76785173977238 11.283996256637584 7.607057605060244
    vertex 98.55898408230166 15.548421216392532 7.607057605060244
    vertex 97.9876060488544 12.134004356765754 7.607057605060244
  endloop
endfacet
facet normal 0.0 0.0 1.0
  outer loop
    vertex 101.46450084255557 15.446957565116906 7.607057605060244
    vertex 98.55898408230166 15.548421216392532 7.607057605060244
    vertex 100.76785173977238 11.283996256637584 7.607057605060244
  endloop
endfacet
facet normal 0.0 0.0 1.0
  outer loop
    vertex 101.46450084255557 15.446957565116906 7.607057605060244
    vertex 98.22717451656682 18.9943776515961 7.607057605060244
    vertex 98.55898408230166 15.548421216392532 7.607057605060244
  endloop
endfacet
facet normal 0.0 0.0 1.0
  outer loop
    vertex 101.46450084255557 15.446957565116906 7.607057605060244
    vertex 101.05993817318299 19.64837341842654 7.607057605060244
    vertex 98.22717451656682 18.9943776515961 7.607057605060244
  endloop
endfacet
facet normal 0.0 0.0 1.0
  outer loop
    vertex 101.05993817318299 19.64837341842654 7.607057605060244
    vertex 97.01479400966983 22.237037103843715 7.607057605060244
    vertex 98.22717451656682 18.9943776515961 7.607057605060244
  endloop
endfacet
facet normal 0.0 0.0 1.0
  outer loop
    vertex 101.05993817318299 19.64837341842654 7.607057605060244
    vertex 99.58177691219667 23.601924397468593 7.607057605060244
    vertex 97.01479400966983 22.237037103843715 7.607057605060244
  endloop
endfacet
facet normal 0.2923722364643142 0.9563045933931592 -1.3448590726924855e-17
  outer loop
    vertex 97.9876060488544 12.134004356765754 12.197507605060256
    vertex 100.76785173977238 11.283996256637584 7.607057605060244
    vertex 97.9876060488544 12.134004356765754 7.607057605060244
  endloop
endfacet
facet normal 0.29237223646431426 0.956304593393159 9.020247393404846e-19
  outer loop
    vertex 100.76785173977238 11.283996256637584 78.50676075123188
    vertex 100.76785173977238 11.283996256637584 7.607057605060244
    vertex 97.9876060488544 12.134004356765754 12.197507605060256
  endloop
endfacet
facet normal 0.29237169888785625 0.9563047577469374 2.464658544770946e-08
  outer loop
    vertex 100.76785173977238 11.283996256637584 78.50676075123188
    vertex 97.9876060488544 12.134004356765754 12.197507605060256
    vertex 96.1340985445819 12.700676747798926 78.50676075123188
  endloop
endfacet
facet normal 0.29237089252716447 0.9563050042757641 -1.1601305300929898e-18
  outer loop
    vertex 96.1340985445819 12.700676747798926 78.50676075123188
    vertex 97.9876060488544 12.134004356765754 12.197507605060256
    vertex 96.1340985445819 12.700676747798926 12.197507605060256
  endloop
endfacet
facet normal 0.0 0.0 1.0
  outer loop
    vertex 93.0280982638202 7.730034772682196 78.50676075123188
    vertex 90.62164226711603 6.013520611524583 78.50676075123188
    vertex 92.89644534328798 1.7352202328443551 78.50676075123188
  endloop
endfacet
facet normal 0.0 0.0 1.0
  outer loop
    vertex 96.33271420620302 4.186278900003438 78.50676075123188
    vertex 93.0280982638202 7.730034772682196 78.50676075123188
    vertex 92.89644534328798 1.7352202328443551 78.50676075123188
  endloop
endfacet
facet normal 0.0 0.0 1.0
  outer loop
    vertex 96.33271420620302 4.186278900003438 78.50676075123188
    vertex 94.90830058468204 10.010899634647371 78.50676075123188
    vertex 93.0280982638202 7.730034772682196 78.50676075123188
  endloop
endfacet
facet normal 0.0 0.0 1.0
  outer loop
    vertex 99.01749674251894 7.443189045429236 78.50676075123188
    vertex 94.90830058468204 10.010899634647371 78.50676075123188
    vertex 96.33271420620302 4.186278900003438 78.50676075123188
  endloop
endfacet
facet normal 0.0 0.0 1.0
  outer loop
    vertex 99.01749674251894 7.443189045429236 78.50676075123188
    vertex 96.1340985445819 12.700676747798926 78.50676075123188
    vertex 94.90830058468204 10.010899634647371 78.50676075123188
  endloop
endfacet
facet normal 0.0 0.0 1.0
  outer loop
    vertex 100.76785173977238 11.283996256637584 78.50676075123188
    vertex 96.1340985445819 12.700676747798926 78.50676075123188
    vertex 99.01749674251894 7.443189045429236 78.50676075123188
  endloop
endfacet
facet normal -0.8829493006986482 -0.46946835079243443 -2.913181905032095e-17
  outer loop
    vertex 91.53156972378108 4.302200460052491 7.607057605060244
    vertex 92.89644534328798 1.7352202328443551 7.607057605060244
    vertex 91.53156972378108 4.302200460052491 12.197507605060256
  endloop
endfacet
facet normal -0.882947081383455 -0.4694725247300833 -1.2565253981819262e-18
  outer loop
    vertex 90.62164226711603 6.013520611524583 12.197507605060256
    vertex 91.53156972378108 4.302200460052491 12.197507605060256
    vertex 90.62164226711603 6.013520611524583 78.50676075123188
  endloop
endfacet
facet normal -0.8829484129735968 -0.4694700203712693 -8.290562591275961e-08
  outer loop
    vertex 90.62164226711603 6.013520611524583 78.50676075123188
    vertex 91.53156972378108 4.302200460052491 12.197507605060256
    vertex 92.89644534328798 1.7352202328443551 78.50676075123188
  endloop
endfacet
facet normal -0.8829493006986482 -0.46946835079243454 1.953931234799987e-18
  outer loop
    vertex 91.53156972378108 4.302200460052491 12.197507605060256
    vertex 92.89644534328798 1.7352202328443551 7.607057605060244
    vertex 92.89644534328798 1.7352202328443551 78.50676075123188
  endloop
endfacet
facet normal 0.0 0.0 1.0
  outer loop
    vertex 74.07410916927667 4.380526495790482 7.607057605060244
    vertex 73.59673113430354 9.78543058300019 7.607057605060244
    vertex 71.02974823177665 8.420542316532142 7.607057605060244
  endloop
endfacet
facet normal 0.0 0.0 1.0
  outer loop
    vertex 76.09368489406916 6.471852809333804 7.607057605060244
    vertex 73.59673113430354 9.78543058300019 7.607057605060244
    vertex 74.07410916927667 4.380526495790482 7.607057605060244
  endloop
endfacet
facet normal 0.0 0.0 1.0
  outer loop
    vertex 78.21792297848076 1.4790054456472421 7.607057605060244
    vertex 76.09368489406916 6.471852809333804 7.607057605060244
    vertex 74.07410916927667 4.380526495790482 7.607057605060244
  endloop
endfacet
facet normal 0.0 0.0 1.0
  outer loop
    vertex 79.49239422787045 4.092056120443348 7.607057605060244
    vertex 76.09368489406916 6.471852809333804 7.607057605060244
    vertex 78.21792297848076 1.4790054456472421 7.607057605060244
  endloop
endfacet
facet normal 0.0 0.0 1.0
  outer loop
    vertex 83.05552184017512 0.0 7.607057605060244
    vertex 79.49239422787045 4.092056120443348 7.607057605060244
    vertex 78.21792297848076 1.4790054456472421 7.607057605060244
  endloop
endfacet
facet normal 0.0 0.0 1.0
  outer loop
    vertex 83.46014677151058 2.8789912183761595 7.607057605060244
    vertex 79.49239422787045 4.092056120443348 7.607057605060244
    vertex 83.05552184017512 0.0 7.607057605060244
  endloop
endfacet
facet normal 0.0 0.0 1.0
  outer loop
    vertex 88.1134035265765 0.0882855176925666 7.607057605060244
    vertex 83.46014677151058 2.8789912183761595 7.607057605060244
    vertex 83.05552184017512 0.0 7.607057605060244
  endloop
endfacet
facet normal 0.0 0.0 1.0
  outer loop
    vertex 88.1134035265765 0.0882855176925666 7.607057605060244
    vertex 87.60855240047788 2.951402367639545 7.607057605060244
    vertex 83.46014677151058 2.8789912183761595 7.607057605060244
  endloop
endfacet
facet normal 0.0 0.0 1.0
  outer loop
    vertex 92.89644534328798 1.7352202328443551 7.607057605060244
    vertex 87.60855240047788 2.951402367639545 7.607057605060244
    vertex 88.1134035265765 0.0882855176925666 7.607057605060244
  endloop
endfacet
facet normal 0.0 0.0 1.0
  outer loop
    vertex 92.89644534328798 1.7352202328443551 7.607057605060244
    vertex 91.53156972378108 4.302200460052491 7.607057605060244
    vertex 87.60855240047788 2.951402367639545 7.607057605060244
  endloop
endfacet
facet normal 0.46947136067417644 -0.8829477003236021 0.0
  outer loop
    vertex 73.59673113430354 9.78543058300019 12.197507605060256
    vertex 71.02974823177665 8.420542316532142 7.607057605060244
    vertex 73.59673113430354 9.78543058300019 7.607057605060244
  endloop
endfacet
facet normal 0.46947136067417644 -0.8829477003236021 -1.9539236204558017e-18
  outer loop
    vertex 71.02974823177665 8.420542316532142 78.50676075123188
    vertex 71.02974823177665 8.420542316532142 7.607057605060244
    vertex 73.59673113430354 9.78543058300019 12.197507605060256
  endloop
endfacet
facet normal 0.4694716480151671 -0.8829475475417116 1.4268440299491743e-08
  outer loop
    vertex 71.02974823177665 8.420542316532142 78.50676075123188
    vertex 73.59673113430354 9.78543058300019 12.197507605060256
    vertex 75.30804788082455 10.695355121135725 78.50676075123188
  endloop
endfacet
facet normal 0.4694720790276801 -0.882947318368105 -1.2565307355771798e-18
  outer loop
    vertex 75.30804788082455 10.695355121135725 78.50676075123188
    vertex 73.59673113430354 9.78543058300019 12.197507605060256
    vertex 75.30804788082455 10.695355121135725 12.197507605060256
  endloop
endfacet
facet normal 0.0 0.0 1.0
  outer loop
    vertex 74.47741103390071 19.321789966201813 78.50676075123188
    vertex 69.84365783871024 20.738469484519975 78.50676075123188
    vertex 73.9895418581805 16.40640468482973 78.50676075123188
  endloop
endfacet
facet normal 0.0 0.0 1.0
  outer loop
    vertex 73.9895418581805 16.40640468482973 78.50676075123188
    vertex 69.84365783871024 20.738469484519975 78.50676075123188
    vertex 69.1470243014178 16.575508176040668 78.50676075123188
  endloop
endfacet
facet normal 0.0 0.0 1.0
  outer loop
    vertex 73.9895418581805 16.40640468482973 78.50676075123188
    vertex 69.1470243014178 16.575508176040668 78.50676075123188
    vertex 69.13717134579035 16.011233843421955 78.50676075123188
  endloop
endfacet
facet normal 0.0 0.0 1.0
  outer loop
    vertex 74.27286492031429 13.464088185977943 78.50676075123188
    vertex 73.9895418581805 16.40640468482973 78.50676075123188
    vertex 69.13717134579035 16.011233843421955 78.50676075123188
  endloop
endfacet
facet normal 0.0 0.0 1.0
  outer loop
    vertex 74.27286492031429 13.464088185977943 78.50676075123188
    vertex 69.13717134579035 16.011233843421955 78.50676075123188
    vertex 69.55157140529964 12.374093295574196 78.50676075123188
  endloop
endfacet
facet normal 0.0 0.0 1.0
  outer loop
    vertex 75.30804788082455 10.695355121135725 78.50676075123188
    vertex 74.27286492031429 13.464088185977943 78.50676075123188
    vertex 69.55157140529964 12.374093295574196 78.50676075123188
  endloop
endfacet
facet normal 0.0 0.0 1.0
  outer loop
    vertex 75.30804788082455 10.695355121135725 78.50676075123188
    vertex 69.55157140529964 12.374093295574196 78.50676075123188
    vertex 71.02974823177665 8.420542316532142 78.50676075123188
  endloop
endfacet
facet normal 0.2923707395183145 0.9563050510551088 1.8040301418989035e-18
  outer loop
    vertex 69.84365783871024 20.738469484519975 78.50676075123188
    vertex 72.62391909511899 19.88846138439181 12.197507605060256
    vertex 69.84365783871024 20.738469484519975 7.607057605060244
  endloop
endfacet
facet normal 0.29237073951831444 0.9563050510551088 0.0
  outer loop
    vertex 72.62391909511899 19.88846138439181 12.197507605060256
    vertex 72.62391909511899 19.88846138439181 7.607057605060244
    vertex 69.84365783871024 20.738469484519975 7.607057605060244
  endloop
endfacet
facet normal 0.2923715152767597 0.9563048138824621 3.556682828468598e-08
  outer loop
    vertex 74.47741103390071 19.321789966201813 78.50676075123188
    vertex 72.62391909511899 19.88846138439181 12.197507605060256
    vertex 69.84365783871024 20.738469484519975 78.50676075123188
  endloop
endfacet
facet normal 0.2923726789231179 0.9563044581195465 0.0
  outer loop
    vertex 74.47741103390071 19.321789966201813 78.50676075123188
    vertex 74.47741103390071 19.321789966201813 12.197507605060256
    vertex 72.62391909511899 19.88846138439181 12.197507605060256
  endloop
endfacet
facet normal 0.0 0.0 -1.0
  outer loop
    vertex 81.04956591976497 17.730846996498123 -0.08877978450426174
    vertex 80.71809879482599 16.17143776531221 -0.08877978450426174
    vertex 70.11225594662044 21.541214917755152 -0.08877978450426174
  endloop
endfacet
facet normal 0.0 0.0 -1.0
  outer loop
    vertex 81.04956591976497 17.730846996498123 -0.08877978450426174
    vertex 70.11225594662044 21.541214917755152 -0.08877978450426174
    vertex 72.91989690121031 26.404199149131788 -0.08877978450426174
  endloop
endfacet
facet normal 0.0 0.0 -1.0
  outer loop
    vertex 81.89438292873713 19.082844118118313 -0.08877978450426174
    vertex 81.04956591976497 17.730846996498123 -0.08877978450426174
    vertex 72.91989690121031 26.404199149131788 -0.08877978450426174
  endloop
endfacet
facet normal 0.0 0.0 -1.0
  outer loop
    vertex 81.89438292873713 19.082844118118313 -0.08877978450426174
    vertex 72.91989690121031 26.404199149131788 -0.08877978450426174
    vertex 77.22146695888847 30.01363798770905 -0.08877978450426174
  endloop
endfacet
facet normal 0.0 0.0 -1.0
  outer loop
    vertex 83.15067368496274 20.064359212303188 -0.08877978450426174
    vertex 81.89438292873713 19.082844118118313 -0.08877978450426174
    vertex 77.22146695888847 30.01363798770905 -0.08877978450426174
  endloop
endfacet
facet normal 0.0 0.0 -1.0
  outer loop
    vertex 83.15067368496274 20.064359212303188 -0.08877978450426174
    vertex 77.22146695888847 30.01363798770905 -0.08877978450426174
    vertex 82.49810605190608 31.93418022346501 -0.08877978450426174
  endloop
endfacet
facet normal 0.0 0.0 -1.0
  outer loop
    vertex 84.66689257076597 20.557008939361587 -0.08877978450426174
    vertex 83.15067368496274 20.064359212303188 -0.08877978450426174
    vertex 82.49810605190608 31.93418022346501 -0.08877978450426174
  endloop
endfacet
facet normal 0.0 0.0 -1.0
  outer loop
    vertex 88.1134035265765 31.93418022346501 -0.08877978450426174
    vertex 84.66689257076597 20.557008939361587 -0.08877978450426174
    vertex 82.49810605190608 31.93418022346501 -0.08877978450426174
  endloop
endfacet
facet normal 0.0 0.0 -1.0
  outer loop
    vertex 88.1134035265765 31.93418022346501 -0.08877978450426174
    vertex 86.26016063564632 20.501370092773453 -0.08877978450426174
    vertex 84.66689257076597 20.557008939361587 -0.08877978450426174
  endloop
endfacet
facet normal 0.0 0.0 -1.0
  outer loop
    vertex 93.39005818508484 30.01363798770905 -0.08877978450426174
    vertex 86.26016063564632 20.501370092773453 -0.08877978450426174
    vertex 88.1134035265765 31.93418022346501 -0.08877978450426174
  endloop
endfacet
facet normal 0.0 0.0 -1.0
  outer loop
    vertex 93.39005818508484 30.01363798770905 -0.08877978450426174
    vertex 87.73832189663268 19.90415529041293 -0.08877978450426174
    vertex 86.26016063564632 20.501370092773453 -0.08877978450426174
  endloop
endfacet
facet normal 0.0 0.0 -1.0
  outer loop
    vertex 97.69161267727236 26.404199149131788 -0.08877978450426174
    vertex 87.73832189663268 19.90415529041293 -0.08877978450426174
    vertex 93.39005818508484 30.01363798770905 -0.08877978450426174
  endloop
endfacet
facet normal 0.0 0.0 -1.0
  outer loop
    vertex 97.69161267727236 26.404199149131788 -0.08877978450426174
    vertex 88.9230892229876 18.83739578628543 -0.08877978450426174
    vertex 87.73832189663268 19.90415529041293 -0.08877978450426174
  endloop
endfacet
facet normal 0.0 0.0 -1.0
  outer loop
    vertex 100.4992536318622 21.541214917755152 -0.08877978450426174
    vertex 88.9230892229876 18.83739578628543 -0.08877978450426174
    vertex 97.69161267727236 26.404199149131788 -0.08877978450426174
  endloop
endfacet
facet normal 0.0 0.0 -1.0
  outer loop
    vertex 100.4992536318622 21.541214917755152 -0.08877978450426174
    vertex 89.67154027889585 17.429759818077105 -0.08877978450426174
    vertex 88.9230892229876 18.83739578628543 -0.08877978450426174
  endloop
endfacet
facet normal 0.0 0.0 -1.0
  outer loop
    vertex 101.47433823269228 16.011233843421955 -0.08877978450426174
    vertex 89.67154027889585 17.429759818077105 -0.08877978450426174
    vertex 100.4992536318622 21.541214917755152 -0.08877978450426174
  endloop
endfacet
facet normal 0.0 0.0 -1.0
  outer loop
    vertex 101.47433823269228 16.011233843421955 -0.08877978450426174
    vertex 89.89341078365658 15.851029921531696 -0.08877978450426174
    vertex 89.67154027889585 17.429759818077105 -0.08877978450426174
  endloop
endfacet
facet normal 0.0 0.0 -1.0
  outer loop
    vertex 100.4992536318622 10.481251796245585 -0.08877978450426174
    vertex 89.5619436587176 14.291620690345768 -0.08877978450426174
    vertex 89.89341078365658 15.851029921531696 -0.08877978450426174
  endloop
endfacet
facet normal 0.0 0.0 -1.0
  outer loop
    vertex 80.9399848650775 14.59270592308045 -0.08877978450426174
    vertex 69.13717134579035 16.011233843421955 -0.08877978450426174
    vertex 80.71809879482599 16.17143776531221 -0.08877978450426174
  endloop
endfacet
facet normal 0.0 0.0 -1.0
  outer loop
    vertex 80.9399848650775 14.59270592308045 -0.08877978450426174
    vertex 70.11225594662044 10.481251796245585 -0.08877978450426174
    vertex 69.13717134579035 16.011233843421955 -0.08877978450426174
  endloop
endfacet
facet normal 0.0 0.0 -1.0
  outer loop
    vertex 81.68843592098565 13.185069954872136 -0.08877978450426174
    vertex 70.11225594662044 10.481251796245585 -0.08877978450426174
    vertex 80.9399848650775 14.59270592308045 -0.08877978450426174
  endloop
endfacet
facet normal 0.0 0.0 -1.0
  outer loop
    vertex 82.87318768184991 12.118311423587802 -0.08877978450426174
    vertex 77.22146695888847 2.008827996659281 -0.08877978450426174
    vertex 72.91989690121031 5.6182670784473405 -0.08877978450426174
  endloop
endfacet
facet normal 0.0 0.0 -1.0
  outer loop
    vertex 97.69161267727236 5.6182670784473405 -0.08877978450426174
    vertex 88.71712664974545 12.939622595882417 -0.08877978450426174
    vertex 89.5619436587176 14.291620690345768 -0.08877978450426174
  endloop
endfacet
facet normal 0.0 0.0 -1.0
  outer loop
    vertex 93.39005818508484 2.008827996659281 -0.08877978450426174
    vertex 88.1134035265765 0.0882855176925666 -0.08877978450426174
    vertex 87.4608514590106 11.958106528854374 -0.08877978450426174
  endloop
endfacet
facet normal 0.0 0.0 -1.0
  outer loop
    vertex 93.39005818508484 2.008827996659281 -0.08877978450426174
    vertex 87.4608514590106 11.958106528854374 -0.08877978450426174
    vertex 88.71712664974545 12.939622595882417 -0.08877978450426174
  endloop
endfacet
facet normal 0.0 0.0 -1.0
  outer loop
    vertex 81.68843592098565 13.185069954872136 -0.08877978450426174
    vertex 72.91989690121031 5.6182670784473405 -0.08877978450426174
    vertex 70.11225594662044 10.481251796245585 -0.08877978450426174
  endloop
endfacet
facet normal 0.0 0.0 -1.0
  outer loop
    vertex 84.35134894283625 11.521095648384106 -0.08877978450426174
    vertex 77.22146695888847 2.008827996659281 -0.08877978450426174
    vertex 82.87318768184991 12.118311423587802 -0.08877978450426174
  endloop
endfacet
facet normal 0.0 0.0 -1.0
  outer loop
    vertex 88.1134035265765 0.0882855176925666 -0.08877978450426174
    vertex 85.94463257320737 11.465457774639138 -0.08877978450426174
    vertex 87.4608514590106 11.958106528854374 -0.08877978450426174
  endloop
endfacet
facet normal 0.0 0.0 -1.0
  outer loop
    vertex 88.1134035265765 0.0882855176925666 -0.08877978450426174
    vertex 82.49810605190608 0.0882855176925666 -0.08877978450426174
    vertex 85.94463257320737 11.465457774639138 -0.08877978450426174
  endloop
endfacet
facet normal 0.0 0.0 -1.0
  outer loop
    vertex 85.94463257320737 11.465457774639138 -0.08877978450426174
    vertex 82.49810605190608 0.0882855176925666 -0.08877978450426174
    vertex 84.35134894283625 11.521095648384106 -0.08877978450426174
  endloop
endfacet
facet normal 0.0 0.0 -1.0
  outer loop
    vertex 82.87318768184991 12.118311423587802 -0.08877978450426174
    vertex 72.91989690121031 5.6182670784473405 -0.08877978450426174
    vertex 81.68843592098565 13.185069954872136 -0.08877978450426174
  endloop
endfacet
facet normal -0.9366703872716325 -0.35020781769397424 0.0017521513730373683
  outer loop
    vertex 69.55157140529964 12.374093295574196 78.50676075123188
    vertex 70.11225594662044 10.481251796245585 -0.08877978450426174
    vertex 71.02974823177665 8.420542316532142 78.50676075123188
  endloop
endfacet
endsolid spool holder 23mm single
