solid Default
  facet normal -2.220450e-16 -1.000000e+00 0.000000e+00
    outer loop
      vertex -2.250000e+01 -2.500000e+01 1.400000e+01
      vertex -2.250000e+01 -2.500000e+01 0.000000e+00
      vertex -1.750000e+01 -2.500000e+01 0.000000e+00
    endloop
  endfacet
  facet normal -2.220450e-16 -1.000000e+00 0.000000e+00
    outer loop
      vertex -1.750000e+01 -2.500000e+01 1.400000e+01
      vertex -2.250000e+01 -2.500000e+01 1.400000e+01
      vertex -1.750000e+01 -2.500000e+01 0.000000e+00
    endloop
  endfacet
  facet normal 0.000000e+00 0.000000e+00 -1.000000e+00
    outer loop
      vertex -2.250000e+01 -2.500000e+01 0.000000e+00
      vertex -2.250000e+01 -2.250000e+01 0.000000e+00
      vertex -1.750000e+01 -2.500000e+01 0.000000e+00
    endloop
  endfacet
  facet normal 0.000000e+00 0.000000e+00 -1.000000e+00
    outer loop
      vertex -1.750000e+01 -2.500000e+01 0.000000e+00
      vertex -2.250000e+01 -2.250000e+01 0.000000e+00
      vertex -1.750000e+01 -2.250000e+01 0.000000e+00
    endloop
  endfacet
  facet normal 0.000000e+00 0.000000e+00 -1.000000e+00
    outer loop
      vertex -1.750000e+01 -2.250000e+01 0.000000e+00
      vertex -1.750000e+01 2.500000e+01 0.000000e+00
      vertex -1.500000e+01 2.500000e+01 0.000000e+00
    endloop
  endfacet
  facet normal 0.000000e+00 0.000000e+00 -1.000000e+00
    outer loop
      vertex -1.750000e+01 -2.250000e+01 0.000000e+00
      vertex -1.500000e+01 2.500000e+01 0.000000e+00
      vertex -1.750000e+01 -2.500000e+01 0.000000e+00
    endloop
  endfacet
  facet normal 0.000000e+00 0.000000e+00 -1.000000e+00
    outer loop
      vertex -1.750000e+01 -2.500000e+01 0.000000e+00
      vertex -1.500000e+01 2.500000e+01 0.000000e+00
      vertex -1.500000e+01 2.500000e+00 0.000000e+00
    endloop
  endfacet
  facet normal 0.000000e+00 0.000000e+00 -1.000000e+00
    outer loop
      vertex -1.500000e+01 0.000000e+00 0.000000e+00
      vertex -1.500000e+01 2.500000e+00 0.000000e+00
      vertex -1.250000e+01 2.500000e+00 0.000000e+00
    endloop
  endfacet
  facet normal 0.000000e+00 0.000000e+00 -1.000000e+00
    outer loop
      vertex -1.500000e+01 0.000000e+00 0.000000e+00
      vertex -1.250000e+01 2.500000e+00 0.000000e+00
      vertex -1.250000e+01 0.000000e+00 0.000000e+00
    endloop
  endfacet
  facet normal 0.000000e+00 0.000000e+00 -1.000000e+00
    outer loop
      vertex -1.500000e+01 -1.150000e+01 0.000000e+00
      vertex -1.750000e+01 -2.500000e+01 0.000000e+00
      vertex -1.500000e+01 -9.000000e+00 0.000000e+00
    endloop
  endfacet
  facet normal 0.000000e+00 0.000000e+00 -1.000000e+00
    outer loop
      vertex -1.250000e+01 2.500000e+00 0.000000e+00
      vertex -1.000000e+01 2.500000e+00 0.000000e+00
      vertex -1.250000e+01 0.000000e+00 0.000000e+00
    endloop
  endfacet
  facet normal 0.000000e+00 0.000000e+00 -1.000000e+00
    outer loop
      vertex -1.000000e+01 2.500000e+00 0.000000e+00
      vertex -1.250000e+01 -2.500000e+00 0.000000e+00
      vertex -1.250000e+01 0.000000e+00 0.000000e+00
    endloop
  endfacet
  facet normal 0.000000e+00 0.000000e+00 -1.000000e+00
    outer loop
      vertex -1.750000e+01 -2.500000e+01 0.000000e+00
      vertex -1.500000e+01 2.500000e+00 0.000000e+00
      vertex -1.500000e+01 0.000000e+00 0.000000e+00
    endloop
  endfacet
  facet normal 0.000000e+00 0.000000e+00 -1.000000e+00
    outer loop
      vertex 2.000000e+01 -9.000000e+00 0.000000e+00
      vertex 7.072201e+00 -1.150000e+01 0.000000e+00
      vertex 2.072201e+00 -1.150000e+01 0.000000e+00
    endloop
  endfacet
  facet normal 0.000000e+00 0.000000e+00 -1.000000e+00
    outer loop
      vertex -1.750000e+01 -2.500000e+01 0.000000e+00
      vertex -1.500000e+01 0.000000e+00 0.000000e+00
      vertex -1.500000e+01 -9.000000e+00 0.000000e+00
    endloop
  endfacet
  facet normal 0.000000e+00 0.000000e+00 -1.000000e+00
    outer loop
      vertex -1.500000e+01 -2.135662e+01 0.000000e+00
      vertex -1.750000e+01 -2.500000e+01 0.000000e+00
      vertex -1.500000e+01 -1.150000e+01 0.000000e+00
    endloop
  endfacet
  facet normal 0.000000e+00 0.000000e+00 -1.000000e+00
    outer loop
      vertex 7.072201e+00 -1.150000e+01 0.000000e+00
      vertex 2.000000e+01 -9.000000e+00 0.000000e+00
      vertex 2.000000e+01 -1.150000e+01 0.000000e+00
    endloop
  endfacet
  facet normal 0.000000e+00 0.000000e+00 -1.000000e+00
    outer loop
      vertex 2.000000e+01 -9.000000e+00 0.000000e+00
      vertex 2.000000e+01 -4.000000e+00 0.000000e+00
      vertex 2.250000e+01 -4.000000e+00 0.000000e+00
    endloop
  endfacet
  facet normal 0.000000e+00 0.000000e+00 -1.000000e+00
    outer loop
      vertex 2.000000e+01 -9.000000e+00 0.000000e+00
      vertex 2.250000e+01 -4.000000e+00 0.000000e+00
      vertex 2.250000e+01 -1.150000e+01 0.000000e+00
    endloop
  endfacet
  facet normal 0.000000e+00 0.000000e+00 -1.000000e+00
    outer loop
      vertex 2.000000e+01 -9.000000e+00 0.000000e+00
      vertex 2.250000e+01 -1.150000e+01 0.000000e+00
      vertex 2.000000e+01 -1.150000e+01 0.000000e+00
    endloop
  endfacet
  facet normal 0.000000e+00 0.000000e+00 -1.000000e+00
    outer loop
      vertex -1.500000e+01 -2.424340e+01 0.000000e+00
      vertex -1.750000e+01 -2.500000e+01 0.000000e+00
      vertex 7.072201e+00 -1.150000e+01 0.000000e+00
    endloop
  endfacet
  facet normal 0.000000e+00 0.000000e+00 -1.000000e+00
    outer loop
      vertex -1.750000e+01 -2.500000e+01 0.000000e+00
      vertex -1.500000e+01 -2.424340e+01 0.000000e+00
      vertex -1.500000e+01 -2.500000e+01 0.000000e+00
    endloop
  endfacet
  facet normal 0.000000e+00 0.000000e+00 -1.000000e+00
    outer loop
      vertex 2.000000e+01 -9.000000e+00 0.000000e+00
      vertex 2.072201e+00 -1.150000e+01 0.000000e+00
      vertex -1.500000e+01 -1.150000e+01 0.000000e+00
    endloop
  endfacet
  facet normal 0.000000e+00 0.000000e+00 -1.000000e+00
    outer loop
      vertex -1.750000e+01 -2.500000e+01 0.000000e+00
      vertex -1.500000e+01 -2.135662e+01 0.000000e+00
      vertex 7.072201e+00 -1.150000e+01 0.000000e+00
    endloop
  endfacet
  facet normal 0.000000e+00 0.000000e+00 -1.000000e+00
    outer loop
      vertex -1.500000e+01 -2.135662e+01 0.000000e+00
      vertex 2.072201e+00 -1.150000e+01 0.000000e+00
      vertex 7.072201e+00 -1.150000e+01 0.000000e+00
    endloop
  endfacet
  facet normal 0.000000e+00 0.000000e+00 -1.000000e+00
    outer loop
      vertex 2.000000e+01 -9.000000e+00 0.000000e+00
      vertex -1.500000e+01 -1.150000e+01 0.000000e+00
      vertex -1.500000e+01 -9.000000e+00 0.000000e+00
    endloop
  endfacet
  facet normal 0.000000e+00 0.000000e+00 -1.000000e+00
    outer loop
      vertex -1.250000e+01 -2.500000e+00 0.000000e+00
      vertex -1.000000e+01 2.500000e+00 0.000000e+00
      vertex -1.000000e+01 0.000000e+00 0.000000e+00
    endloop
  endfacet
  facet normal 0.000000e+00 0.000000e+00 -1.000000e+00
    outer loop
      vertex -1.250000e+01 -2.500000e+00 0.000000e+00
      vertex -1.000000e+01 0.000000e+00 0.000000e+00
      vertex -1.000000e+01 -2.500000e+00 0.000000e+00
    endloop
  endfacet
  facet normal -1.000000e+00 2.220450e-16 0.000000e+00
    outer loop
      vertex -2.250000e+01 -2.500000e+01 0.000000e+00
      vertex -2.250000e+01 -2.500000e+01 1.400000e+01
      vertex -2.250000e+01 -2.250000e+01 0.000000e+00
    endloop
  endfacet
  facet normal -1.000000e+00 2.220450e-16 0.000000e+00
    outer loop
      vertex -2.250000e+01 -2.250000e+01 0.000000e+00
      vertex -2.250000e+01 -2.500000e+01 1.400000e+01
      vertex -2.250000e+01 -2.250000e+01 1.400000e+01
    endloop
  endfacet
  facet normal 0.000000e+00 0.000000e+00 1.000000e+00
    outer loop
      vertex -2.250000e+01 -2.250000e+01 1.400000e+01
      vertex -2.250000e+01 -2.500000e+01 1.400000e+01
      vertex -1.750000e+01 -2.500000e+01 1.400000e+01
    endloop
  endfacet
  facet normal 0.000000e+00 0.000000e+00 1.000000e+00
    outer loop
      vertex -1.500000e+01 -2.424340e+01 1.400000e+01
      vertex -2.250000e+01 -2.250000e+01 1.400000e+01
      vertex -1.500000e+01 -2.500000e+01 1.400000e+01
    endloop
  endfacet
  facet normal 0.000000e+00 0.000000e+00 1.000000e+00
    outer loop
      vertex -1.500000e+01 -2.500000e+01 1.400000e+01
      vertex -2.250000e+01 -2.250000e+01 1.400000e+01
      vertex -1.750000e+01 -2.500000e+01 1.400000e+01
    endloop
  endfacet
  facet normal 0.000000e+00 0.000000e+00 1.000000e+00
    outer loop
      vertex -1.750000e+01 -2.250000e+01 1.400000e+01
      vertex -2.250000e+01 -2.250000e+01 1.400000e+01
      vertex -1.500000e+01 -2.424340e+01 1.400000e+01
    endloop
  endfacet
  facet normal 0.000000e+00 0.000000e+00 1.000000e+00
    outer loop
      vertex 2.250000e+01 -1.150000e+01 1.400000e+01
      vertex 7.072201e+00 -1.150000e+01 1.400000e+01
      vertex 2.000000e+01 -1.150000e+01 1.400000e+01
    endloop
  endfacet
  facet normal 0.000000e+00 0.000000e+00 1.000000e+00
    outer loop
      vertex 2.000000e+01 -9.000000e+00 1.400000e+01
      vertex 7.072201e+00 -1.150000e+01 1.400000e+01
      vertex 2.250000e+01 -1.150000e+01 1.400000e+01
    endloop
  endfacet
  facet normal 0.000000e+00 0.000000e+00 1.000000e+00
    outer loop
      vertex 2.000000e+01 -9.000000e+00 1.400000e+01
      vertex 2.072201e+00 -1.150000e+01 1.400000e+01
      vertex 7.072201e+00 -1.150000e+01 1.400000e+01
    endloop
  endfacet
  facet normal 0.000000e+00 0.000000e+00 1.000000e+00
    outer loop
      vertex -1.750000e+01 2.500000e+01 1.400000e+01
      vertex -1.500000e+01 -9.000000e+00 1.400000e+01
      vertex -1.500000e+01 0.000000e+00 1.400000e+01
    endloop
  endfacet
  facet normal 0.000000e+00 0.000000e+00 1.000000e+00
    outer loop
      vertex -1.750000e+01 2.500000e+01 1.400000e+01
      vertex -1.500000e+01 0.000000e+00 1.400000e+01
      vertex -1.500000e+01 2.500000e+00 1.400000e+01
    endloop
  endfacet
  facet normal 0.000000e+00 0.000000e+00 1.000000e+00
    outer loop
      vertex 2.250000e+01 -4.000000e+00 1.400000e+01
      vertex 2.000000e+01 -9.000000e+00 1.400000e+01
      vertex 2.250000e+01 -1.150000e+01 1.400000e+01
    endloop
  endfacet
  facet normal 0.000000e+00 0.000000e+00 1.000000e+00
    outer loop
      vertex -1.000000e+01 -2.500000e+00 1.400000e+01
      vertex -1.000000e+01 0.000000e+00 1.400000e+01
      vertex -1.250000e+01 0.000000e+00 1.400000e+01
    endloop
  endfacet
  facet normal 0.000000e+00 0.000000e+00 1.000000e+00
    outer loop
      vertex -1.000000e+01 2.500000e+00 1.400000e+01
      vertex -1.500000e+01 0.000000e+00 1.400000e+01
      vertex -1.250000e+01 0.000000e+00 1.400000e+01
    endloop
  endfacet
  facet normal 0.000000e+00 0.000000e+00 1.000000e+00
    outer loop
      vertex -1.000000e+01 2.500000e+00 1.400000e+01
      vertex -1.250000e+01 0.000000e+00 1.400000e+01
      vertex -1.000000e+01 0.000000e+00 1.400000e+01
    endloop
  endfacet
  facet normal 0.000000e+00 0.000000e+00 1.000000e+00
    outer loop
      vertex -1.250000e+01 2.500000e+00 1.400000e+01
      vertex -1.500000e+01 0.000000e+00 1.400000e+01
      vertex -1.000000e+01 2.500000e+00 1.400000e+01
    endloop
  endfacet
  facet normal 0.000000e+00 0.000000e+00 1.000000e+00
    outer loop
      vertex -1.750000e+01 2.500000e+01 1.400000e+01
      vertex -1.500000e+01 2.500000e+00 1.400000e+01
      vertex -1.500000e+01 2.500000e+01 1.400000e+01
    endloop
  endfacet
  facet normal 0.000000e+00 0.000000e+00 1.000000e+00
    outer loop
      vertex 7.072201e+00 -1.150000e+01 1.400000e+01
      vertex -1.750000e+01 -2.250000e+01 1.400000e+01
      vertex -1.500000e+01 -2.424340e+01 1.400000e+01
    endloop
  endfacet
  facet normal 0.000000e+00 0.000000e+00 1.000000e+00
    outer loop
      vertex 7.072201e+00 -1.150000e+01 1.400000e+01
      vertex -1.500000e+01 -2.135662e+01 1.400000e+01
      vertex -1.750000e+01 -2.250000e+01 1.400000e+01
    endloop
  endfacet
  facet normal 0.000000e+00 0.000000e+00 1.000000e+00
    outer loop
      vertex -1.250000e+01 2.500000e+00 1.400000e+01
      vertex -1.500000e+01 2.500000e+00 1.400000e+01
      vertex -1.500000e+01 0.000000e+00 1.400000e+01
    endloop
  endfacet
  facet normal 0.000000e+00 0.000000e+00 1.000000e+00
    outer loop
      vertex -1.250000e+01 0.000000e+00 1.400000e+01
      vertex -1.250000e+01 -2.500000e+00 1.400000e+01
      vertex -1.000000e+01 -2.500000e+00 1.400000e+01
    endloop
  endfacet
  facet normal 0.000000e+00 0.000000e+00 1.000000e+00
    outer loop
      vertex -1.750000e+01 2.500000e+01 1.400000e+01
      vertex -1.500000e+01 -1.150000e+01 1.400000e+01
      vertex -1.500000e+01 -9.000000e+00 1.400000e+01
    endloop
  endfacet
  facet normal 0.000000e+00 0.000000e+00 1.000000e+00
    outer loop
      vertex 2.000000e+01 -4.000000e+00 1.400000e+01
      vertex 2.000000e+01 -9.000000e+00 1.400000e+01
      vertex 2.250000e+01 -4.000000e+00 1.400000e+01
    endloop
  endfacet
  facet normal 0.000000e+00 0.000000e+00 1.000000e+00
    outer loop
      vertex 2.000000e+01 -9.000000e+00 1.400000e+01
      vertex -1.500000e+01 -1.150000e+01 1.400000e+01
      vertex 2.072201e+00 -1.150000e+01 1.400000e+01
    endloop
  endfacet
  facet normal 0.000000e+00 0.000000e+00 1.000000e+00
    outer loop
      vertex 2.000000e+01 -9.000000e+00 1.400000e+01
      vertex -1.500000e+01 -9.000000e+00 1.400000e+01
      vertex -1.500000e+01 -1.150000e+01 1.400000e+01
    endloop
  endfacet
  facet normal 0.000000e+00 0.000000e+00 1.000000e+00
    outer loop
      vertex 2.072201e+00 -1.150000e+01 1.400000e+01
      vertex -1.500000e+01 -2.135662e+01 1.400000e+01
      vertex 7.072201e+00 -1.150000e+01 1.400000e+01
    endloop
  endfacet
  facet normal 0.000000e+00 0.000000e+00 1.000000e+00
    outer loop
      vertex -1.750000e+01 2.500000e+01 1.400000e+01
      vertex -1.500000e+01 -2.135662e+01 1.400000e+01
      vertex -1.500000e+01 -1.150000e+01 1.400000e+01
    endloop
  endfacet
  facet normal 0.000000e+00 0.000000e+00 1.000000e+00
    outer loop
      vertex -1.750000e+01 2.500000e+01 1.400000e+01
      vertex -1.750000e+01 -2.250000e+01 1.400000e+01
      vertex -1.500000e+01 -2.135662e+01 1.400000e+01
    endloop
  endfacet
  facet normal 0.000000e+00 -1.000000e+00 0.000000e+00
    outer loop
      vertex -1.750000e+01 -2.500000e+01 1.400000e+01
      vertex -1.750000e+01 -2.500000e+01 0.000000e+00
      vertex -1.500000e+01 -2.500000e+01 0.000000e+00
    endloop
  endfacet
  facet normal 0.000000e+00 -1.000000e+00 0.000000e+00
    outer loop
      vertex -1.500000e+01 -2.500000e+01 1.400000e+01
      vertex -1.750000e+01 -2.500000e+01 1.400000e+01
      vertex -1.500000e+01 -2.500000e+01 0.000000e+00
    endloop
  endfacet
  facet normal 1.000000e+00 0.000000e+00 0.000000e+00
    outer loop
      vertex -1.500000e+01 -2.500000e+01 1.400000e+01
      vertex -1.500000e+01 -2.500000e+01 0.000000e+00
      vertex -1.500000e+01 -2.424340e+01 0.000000e+00
    endloop
  endfacet
  facet normal 1.000000e+00 0.000000e+00 0.000000e+00
    outer loop
      vertex -1.500000e+01 -2.424340e+01 1.400000e+01
      vertex -1.500000e+01 -2.500000e+01 1.400000e+01
      vertex -1.500000e+01 -2.424340e+01 0.000000e+00
    endloop
  endfacet
  facet normal 5.000002e-01 -8.660253e-01 0.000000e+00
    outer loop
      vertex -1.500000e+01 -2.424340e+01 1.400000e+01
      vertex -1.500000e+01 -2.424340e+01 0.000000e+00
      vertex 7.072201e+00 -1.150000e+01 0.000000e+00
    endloop
  endfacet
  facet normal 5.000002e-01 -8.660253e-01 0.000000e+00
    outer loop
      vertex 7.072201e+00 -1.150000e+01 1.400000e+01
      vertex -1.500000e+01 -2.424340e+01 1.400000e+01
      vertex 7.072201e+00 -1.150000e+01 0.000000e+00
    endloop
  endfacet
  facet normal -2.220450e-16 -1.000000e+00 0.000000e+00
    outer loop
      vertex 7.072201e+00 -1.150000e+01 1.400000e+01
      vertex 7.072201e+00 -1.150000e+01 0.000000e+00
      vertex 2.000000e+01 -1.150000e+01 0.000000e+00
    endloop
  endfacet
  facet normal -2.220450e-16 -1.000000e+00 0.000000e+00
    outer loop
      vertex 2.000000e+01 -1.150000e+01 1.400000e+01
      vertex 7.072201e+00 -1.150000e+01 1.400000e+01
      vertex 2.000000e+01 -1.150000e+01 0.000000e+00
    endloop
  endfacet
  facet normal 0.000000e+00 -1.000000e+00 0.000000e+00
    outer loop
      vertex 2.000000e+01 -1.150000e+01 1.400000e+01
      vertex 2.000000e+01 -1.150000e+01 0.000000e+00
      vertex 2.250000e+01 -1.150000e+01 0.000000e+00
    endloop
  endfacet
  facet normal 0.000000e+00 -1.000000e+00 0.000000e+00
    outer loop
      vertex 2.250000e+01 -1.150000e+01 1.400000e+01
      vertex 2.000000e+01 -1.150000e+01 1.400000e+01
      vertex 2.250000e+01 -1.150000e+01 0.000000e+00
    endloop
  endfacet
  facet normal 1.000000e+00 0.000000e+00 0.000000e+00
    outer loop
      vertex 2.250000e+01 -1.150000e+01 1.400000e+01
      vertex 2.250000e+01 -1.150000e+01 0.000000e+00
      vertex 2.250000e+01 -4.000000e+00 0.000000e+00
    endloop
  endfacet
  facet normal 1.000000e+00 0.000000e+00 0.000000e+00
    outer loop
      vertex 2.250000e+01 -4.000000e+00 1.400000e+01
      vertex 2.250000e+01 -1.150000e+01 1.400000e+01
      vertex 2.250000e+01 -4.000000e+00 0.000000e+00
    endloop
  endfacet
  facet normal 0.000000e+00 1.000000e+00 0.000000e+00
    outer loop
      vertex 2.000000e+01 -4.000000e+00 0.000000e+00
      vertex 2.000000e+01 -4.000000e+00 1.400000e+01
      vertex 2.250000e+01 -4.000000e+00 0.000000e+00
    endloop
  endfacet
  facet normal 0.000000e+00 1.000000e+00 0.000000e+00
    outer loop
      vertex 2.250000e+01 -4.000000e+00 0.000000e+00
      vertex 2.000000e+01 -4.000000e+00 1.400000e+01
      vertex 2.250000e+01 -4.000000e+00 1.400000e+01
    endloop
  endfacet
  facet normal -1.000000e+00 0.000000e+00 0.000000e+00
    outer loop
      vertex 2.000000e+01 -9.000000e+00 0.000000e+00
      vertex 2.000000e+01 -9.000000e+00 1.400000e+01
      vertex 2.000000e+01 -4.000000e+00 0.000000e+00
    endloop
  endfacet
  facet normal -1.000000e+00 0.000000e+00 0.000000e+00
    outer loop
      vertex 2.000000e+01 -4.000000e+00 0.000000e+00
      vertex 2.000000e+01 -9.000000e+00 1.400000e+01
      vertex 2.000000e+01 -4.000000e+00 1.400000e+01
    endloop
  endfacet
  facet normal 2.220450e-16 1.000000e+00 0.000000e+00
    outer loop
      vertex -1.500000e+01 -9.000000e+00 0.000000e+00
      vertex -1.500000e+01 -9.000000e+00 1.400000e+01
      vertex 2.000000e+01 -9.000000e+00 0.000000e+00
    endloop
  endfacet
  facet normal 2.220450e-16 1.000000e+00 0.000000e+00
    outer loop
      vertex 2.000000e+01 -9.000000e+00 0.000000e+00
      vertex -1.500000e+01 -9.000000e+00 1.400000e+01
      vertex 2.000000e+01 -9.000000e+00 1.400000e+01
    endloop
  endfacet
  facet normal 1.000000e+00 0.000000e+00 0.000000e+00
    outer loop
      vertex -1.500000e+01 -9.000000e+00 1.400000e+01
      vertex -1.500000e+01 -9.000000e+00 0.000000e+00
      vertex -1.500000e+01 0.000000e+00 0.000000e+00
    endloop
  endfacet
  facet normal 1.000000e+00 0.000000e+00 0.000000e+00
    outer loop
      vertex -1.500000e+01 0.000000e+00 1.400000e+01
      vertex -1.500000e+01 -9.000000e+00 1.400000e+01
      vertex -1.500000e+01 0.000000e+00 0.000000e+00
    endloop
  endfacet
  facet normal -2.220450e-16 -1.000000e+00 0.000000e+00
    outer loop
      vertex -1.500000e+01 0.000000e+00 1.400000e+01
      vertex -1.500000e+01 0.000000e+00 0.000000e+00
      vertex -1.250000e+01 0.000000e+00 0.000000e+00
    endloop
  endfacet
  facet normal -2.220450e-16 -1.000000e+00 0.000000e+00
    outer loop
      vertex -1.250000e+01 0.000000e+00 1.400000e+01
      vertex -1.500000e+01 0.000000e+00 1.400000e+01
      vertex -1.250000e+01 0.000000e+00 0.000000e+00
    endloop
  endfacet
  facet normal -1.000000e+00 0.000000e+00 0.000000e+00
    outer loop
      vertex -1.250000e+01 -2.500000e+00 0.000000e+00
      vertex -1.250000e+01 -2.500000e+00 1.400000e+01
      vertex -1.250000e+01 0.000000e+00 0.000000e+00
    endloop
  endfacet
  facet normal -1.000000e+00 0.000000e+00 0.000000e+00
    outer loop
      vertex -1.250000e+01 0.000000e+00 0.000000e+00
      vertex -1.250000e+01 -2.500000e+00 1.400000e+01
      vertex -1.250000e+01 0.000000e+00 1.400000e+01
    endloop
  endfacet
  facet normal 0.000000e+00 -1.000000e+00 0.000000e+00
    outer loop
      vertex -1.250000e+01 -2.500000e+00 1.400000e+01
      vertex -1.250000e+01 -2.500000e+00 0.000000e+00
      vertex -1.000000e+01 -2.500000e+00 0.000000e+00
    endloop
  endfacet
  facet normal 0.000000e+00 -1.000000e+00 0.000000e+00
    outer loop
      vertex -1.000000e+01 -2.500000e+00 1.400000e+01
      vertex -1.250000e+01 -2.500000e+00 1.400000e+01
      vertex -1.000000e+01 -2.500000e+00 0.000000e+00
    endloop
  endfacet
  facet normal 1.000000e+00 0.000000e+00 0.000000e+00
    outer loop
      vertex -1.000000e+01 -2.500000e+00 1.400000e+01
      vertex -1.000000e+01 -2.500000e+00 0.000000e+00
      vertex -1.000000e+01 0.000000e+00 0.000000e+00
    endloop
  endfacet
  facet normal 1.000000e+00 0.000000e+00 0.000000e+00
    outer loop
      vertex -1.000000e+01 0.000000e+00 1.400000e+01
      vertex -1.000000e+01 -2.500000e+00 1.400000e+01
      vertex -1.000000e+01 0.000000e+00 0.000000e+00
    endloop
  endfacet
  facet normal 1.000000e+00 -2.220450e-16 0.000000e+00
    outer loop
      vertex -1.000000e+01 0.000000e+00 1.400000e+01
      vertex -1.000000e+01 0.000000e+00 0.000000e+00
      vertex -1.000000e+01 2.500000e+00 0.000000e+00
    endloop
  endfacet
  facet normal 1.000000e+00 -2.220450e-16 0.000000e+00
    outer loop
      vertex -1.000000e+01 2.500000e+00 1.400000e+01
      vertex -1.000000e+01 0.000000e+00 1.400000e+01
      vertex -1.000000e+01 2.500000e+00 0.000000e+00
    endloop
  endfacet
  facet normal 0.000000e+00 1.000000e+00 0.000000e+00
    outer loop
      vertex -1.250000e+01 2.500000e+00 0.000000e+00
      vertex -1.250000e+01 2.500000e+00 1.400000e+01
      vertex -1.000000e+01 2.500000e+00 0.000000e+00
    endloop
  endfacet
  facet normal 0.000000e+00 1.000000e+00 0.000000e+00
    outer loop
      vertex -1.000000e+01 2.500000e+00 0.000000e+00
      vertex -1.250000e+01 2.500000e+00 1.400000e+01
      vertex -1.000000e+01 2.500000e+00 1.400000e+01
    endloop
  endfacet
  facet normal 2.220450e-16 1.000000e+00 0.000000e+00
    outer loop
      vertex -1.500000e+01 2.500000e+00 0.000000e+00
      vertex -1.500000e+01 2.500000e+00 1.400000e+01
      vertex -1.250000e+01 2.500000e+00 0.000000e+00
    endloop
  endfacet
  facet normal 2.220450e-16 1.000000e+00 0.000000e+00
    outer loop
      vertex -1.250000e+01 2.500000e+00 0.000000e+00
      vertex -1.500000e+01 2.500000e+00 1.400000e+01
      vertex -1.250000e+01 2.500000e+00 1.400000e+01
    endloop
  endfacet
  facet normal 1.000000e+00 0.000000e+00 0.000000e+00
    outer loop
      vertex -1.500000e+01 1.350000e+01 2.000000e+00
      vertex -1.500000e+01 2.500000e+00 0.000000e+00
      vertex -1.500000e+01 2.500000e+01 0.000000e+00
    endloop
  endfacet
  facet normal 1.000000e+00 0.000000e+00 0.000000e+00
    outer loop
      vertex -1.500000e+01 2.500000e+00 1.400000e+01
      vertex -1.500000e+01 2.500000e+00 0.000000e+00
      vertex -1.500000e+01 9.590799e+00 3.882550e+00
    endloop
  endfacet
  facet normal 1.000000e+00 0.000000e+00 0.000000e+00
    outer loop
      vertex -1.500000e+01 2.500000e+00 1.400000e+01
      vertex -1.500000e+01 9.590799e+00 3.882550e+00
      vertex -1.500000e+01 8.625401e+00 8.112610e+00
    endloop
  endfacet
  facet normal 1.000000e+00 0.000000e+00 0.000000e+00
    outer loop
      vertex -1.500000e+01 2.500000e+01 1.400000e+01
      vertex -1.500000e+01 2.500000e+00 1.400000e+01
      vertex -1.500000e+01 1.133060e+01 1.150480e+01
    endloop
  endfacet
  facet normal 1.000000e+00 0.000000e+00 0.000000e+00
    outer loop
      vertex -1.500000e+01 2.500000e+01 1.400000e+01
      vertex -1.500000e+01 1.566940e+01 1.150480e+01
      vertex -1.500000e+01 2.500000e+01 0.000000e+00
    endloop
  endfacet
  facet normal 1.000000e+00 0.000000e+00 0.000000e+00
    outer loop
      vertex -1.500000e+01 2.500000e+01 1.400000e+01
      vertex -1.500000e+01 1.133060e+01 1.150480e+01
      vertex -1.500000e+01 1.566940e+01 1.150480e+01
    endloop
  endfacet
  facet normal 1.000000e+00 0.000000e+00 0.000000e+00
    outer loop
      vertex -1.500000e+01 1.566940e+01 1.150480e+01
      vertex -1.500000e+01 1.837460e+01 8.112610e+00
      vertex -1.500000e+01 2.500000e+01 0.000000e+00
    endloop
  endfacet
  facet normal 1.000000e+00 0.000000e+00 0.000000e+00
    outer loop
      vertex -1.500000e+01 1.837460e+01 8.112610e+00
      vertex -1.500000e+01 1.740920e+01 3.882550e+00
      vertex -1.500000e+01 2.500000e+01 0.000000e+00
    endloop
  endfacet
  facet normal 1.000000e+00 0.000000e+00 0.000000e+00
    outer loop
      vertex -1.500000e+01 1.740920e+01 3.882550e+00
      vertex -1.500000e+01 1.350000e+01 2.000000e+00
      vertex -1.500000e+01 2.500000e+01 0.000000e+00
    endloop
  endfacet
  facet normal 1.000000e+00 0.000000e+00 0.000000e+00
    outer loop
      vertex -1.500000e+01 9.590799e+00 3.882550e+00
      vertex -1.500000e+01 2.500000e+00 0.000000e+00
      vertex -1.500000e+01 1.350000e+01 2.000000e+00
    endloop
  endfacet
  facet normal 1.000000e+00 0.000000e+00 0.000000e+00
    outer loop
      vertex -1.500000e+01 8.625401e+00 8.112610e+00
      vertex -1.500000e+01 1.133060e+01 1.150480e+01
      vertex -1.500000e+01 2.500000e+00 1.400000e+01
    endloop
  endfacet
  facet normal 0.000000e+00 1.000000e+00 0.000000e+00
    outer loop
      vertex -1.750000e+01 2.500000e+01 0.000000e+00
      vertex -1.750000e+01 2.500000e+01 1.400000e+01
      vertex -1.500000e+01 2.500000e+01 0.000000e+00
    endloop
  endfacet
  facet normal 0.000000e+00 1.000000e+00 0.000000e+00
    outer loop
      vertex -1.500000e+01 2.500000e+01 0.000000e+00
      vertex -1.750000e+01 2.500000e+01 1.400000e+01
      vertex -1.500000e+01 2.500000e+01 1.400000e+01
    endloop
  endfacet
  facet normal -1.000000e+00 0.000000e+00 0.000000e+00
    outer loop
      vertex -1.750000e+01 1.740920e+01 3.882550e+00
      vertex -1.750000e+01 2.500000e+01 0.000000e+00
      vertex -1.750000e+01 1.350000e+01 2.000000e+00
    endloop
  endfacet
  facet normal -1.000000e+00 0.000000e+00 0.000000e+00
    outer loop
      vertex -1.750000e+01 1.566940e+01 1.150480e+01
      vertex -1.750000e+01 -2.250000e+01 1.400000e+01
      vertex -1.750000e+01 2.500000e+01 1.400000e+01
    endloop
  endfacet
  facet normal -1.000000e+00 0.000000e+00 0.000000e+00
    outer loop
      vertex -1.750000e+01 -2.250000e+01 0.000000e+00
      vertex -1.750000e+01 -2.250000e+01 1.400000e+01
      vertex -1.750000e+01 9.590799e+00 3.882550e+00
    endloop
  endfacet
  facet normal -1.000000e+00 0.000000e+00 0.000000e+00
    outer loop
      vertex -1.750000e+01 -2.250000e+01 0.000000e+00
      vertex -1.750000e+01 9.590799e+00 3.882550e+00
      vertex -1.750000e+01 1.350000e+01 2.000000e+00
    endloop
  endfacet
  facet normal -1.000000e+00 0.000000e+00 0.000000e+00
    outer loop
      vertex -1.750000e+01 -2.250000e+01 0.000000e+00
      vertex -1.750000e+01 1.350000e+01 2.000000e+00
      vertex -1.750000e+01 2.500000e+01 0.000000e+00
    endloop
  endfacet
  facet normal -1.000000e+00 0.000000e+00 0.000000e+00
    outer loop
      vertex -1.750000e+01 1.566940e+01 1.150480e+01
      vertex -1.750000e+01 2.500000e+01 1.400000e+01
      vertex -1.750000e+01 1.837460e+01 8.112610e+00
    endloop
  endfacet
  facet normal -1.000000e+00 0.000000e+00 0.000000e+00
    outer loop
      vertex -1.750000e+01 2.500000e+01 0.000000e+00
      vertex -1.750000e+01 1.740920e+01 3.882550e+00
      vertex -1.750000e+01 2.500000e+01 1.400000e+01
    endloop
  endfacet
  facet normal -1.000000e+00 0.000000e+00 0.000000e+00
    outer loop
      vertex -1.750000e+01 1.740920e+01 3.882550e+00
      vertex -1.750000e+01 1.837460e+01 8.112610e+00
      vertex -1.750000e+01 2.500000e+01 1.400000e+01
    endloop
  endfacet
  facet normal -1.000000e+00 0.000000e+00 0.000000e+00
    outer loop
      vertex -1.750000e+01 1.133060e+01 1.150480e+01
      vertex -1.750000e+01 -2.250000e+01 1.400000e+01
      vertex -1.750000e+01 1.566940e+01 1.150480e+01
    endloop
  endfacet
  facet normal -1.000000e+00 0.000000e+00 0.000000e+00
    outer loop
      vertex -1.750000e+01 8.625401e+00 8.112610e+00
      vertex -1.750000e+01 -2.250000e+01 1.400000e+01
      vertex -1.750000e+01 1.133060e+01 1.150480e+01
    endloop
  endfacet
  facet normal -1.000000e+00 0.000000e+00 0.000000e+00
    outer loop
      vertex -1.750000e+01 9.590799e+00 3.882550e+00
      vertex -1.750000e+01 -2.250000e+01 1.400000e+01
      vertex -1.750000e+01 8.625401e+00 8.112610e+00
    endloop
  endfacet
  facet normal 2.220450e-16 1.000000e+00 0.000000e+00
    outer loop
      vertex -2.250000e+01 -2.250000e+01 0.000000e+00
      vertex -2.250000e+01 -2.250000e+01 1.400000e+01
      vertex -1.750000e+01 -2.250000e+01 0.000000e+00
    endloop
  endfacet
  facet normal 2.220450e-16 1.000000e+00 0.000000e+00
    outer loop
      vertex -1.750000e+01 -2.250000e+01 0.000000e+00
      vertex -2.250000e+01 -2.250000e+01 1.400000e+01
      vertex -1.750000e+01 -2.250000e+01 1.400000e+01
    endloop
  endfacet
  facet normal 1.000000e+00 0.000000e+00 0.000000e+00
    outer loop
      vertex -1.500000e+01 -2.135662e+01 1.400000e+01
      vertex -1.500000e+01 -2.135662e+01 0.000000e+00
      vertex -1.500000e+01 -1.150000e+01 0.000000e+00
    endloop
  endfacet
  facet normal 1.000000e+00 0.000000e+00 0.000000e+00
    outer loop
      vertex -1.500000e+01 -1.150000e+01 1.400000e+01
      vertex -1.500000e+01 -2.135662e+01 1.400000e+01
      vertex -1.500000e+01 -1.150000e+01 0.000000e+00
    endloop
  endfacet
  facet normal -2.220450e-16 -1.000000e+00 0.000000e+00
    outer loop
      vertex -1.500000e+01 -1.150000e+01 1.400000e+01
      vertex -1.500000e+01 -1.150000e+01 0.000000e+00
      vertex 2.072201e+00 -1.150000e+01 0.000000e+00
    endloop
  endfacet
  facet normal -2.220450e-16 -1.000000e+00 0.000000e+00
    outer loop
      vertex 2.072201e+00 -1.150000e+01 1.400000e+01
      vertex -1.500000e+01 -1.150000e+01 1.400000e+01
      vertex 2.072201e+00 -1.150000e+01 0.000000e+00
    endloop
  endfacet
  facet normal -5.000002e-01 8.660253e-01 0.000000e+00
    outer loop
      vertex -1.500000e+01 -2.135662e+01 0.000000e+00
      vertex -1.500000e+01 -2.135662e+01 1.400000e+01
      vertex 2.072201e+00 -1.150000e+01 0.000000e+00
    endloop
  endfacet
  facet normal -5.000002e-01 8.660253e-01 0.000000e+00
    outer loop
      vertex 2.072201e+00 -1.150000e+01 0.000000e+00
      vertex -1.500000e+01 -2.135662e+01 1.400000e+01
      vertex 2.072201e+00 -1.150000e+01 1.400000e+01
    endloop
  endfacet
  facet normal -4.940959e-17 9.749279e-01 2.225210e-01
    outer loop
      vertex -1.500000e+01 9.590799e+00 3.882550e+00
      vertex -1.750000e+01 9.590799e+00 3.882550e+00
      vertex -1.500000e+01 8.625401e+00 8.112610e+00
    endloop
  endfacet
  facet normal -4.940959e-17 9.749279e-01 2.225210e-01
    outer loop
      vertex -1.500000e+01 8.625401e+00 8.112610e+00
      vertex -1.750000e+01 9.590799e+00 3.882550e+00
      vertex -1.750000e+01 8.625401e+00 8.112610e+00
    endloop
  endfacet
  facet normal -2.000549e-16 4.338839e-01 9.009688e-01
    outer loop
      vertex -1.500000e+01 9.590799e+00 3.882550e+00
      vertex -1.500000e+01 1.350000e+01 2.000000e+00
      vertex -1.750000e+01 1.350000e+01 2.000000e+00
    endloop
  endfacet
  facet normal -2.000549e-16 4.338839e-01 9.009688e-01
    outer loop
      vertex -1.750000e+01 9.590799e+00 3.882550e+00
      vertex -1.500000e+01 9.590799e+00 3.882550e+00
      vertex -1.750000e+01 1.350000e+01 2.000000e+00
    endloop
  endfacet
  facet normal -2.000549e-16 -4.338839e-01 9.009688e-01
    outer loop
      vertex -1.500000e+01 1.350000e+01 2.000000e+00
      vertex -1.500000e+01 1.740920e+01 3.882550e+00
      vertex -1.750000e+01 1.740920e+01 3.882550e+00
    endloop
  endfacet
  facet normal -2.000549e-16 -4.338839e-01 9.009688e-01
    outer loop
      vertex -1.750000e+01 1.350000e+01 2.000000e+00
      vertex -1.500000e+01 1.350000e+01 2.000000e+00
      vertex -1.750000e+01 1.740920e+01 3.882550e+00
    endloop
  endfacet
  facet normal -4.940959e-17 -9.749279e-01 2.225210e-01
    outer loop
      vertex -1.500000e+01 1.740920e+01 3.882550e+00
      vertex -1.500000e+01 1.837460e+01 8.112610e+00
      vertex -1.750000e+01 1.837460e+01 8.112610e+00
    endloop
  endfacet
  facet normal -4.940959e-17 -9.749279e-01 2.225210e-01
    outer loop
      vertex -1.750000e+01 1.740920e+01 3.882550e+00
      vertex -1.500000e+01 1.740920e+01 3.882550e+00
      vertex -1.750000e+01 1.837460e+01 8.112610e+00
    endloop
  endfacet
  facet normal 1.384430e-16 -7.818312e-01 -6.234901e-01
    outer loop
      vertex -1.750000e+01 1.837460e+01 8.112610e+00
      vertex -1.500000e+01 1.837460e+01 8.112610e+00
      vertex -1.500000e+01 1.566940e+01 1.150480e+01
    endloop
  endfacet
  facet normal 1.384430e-16 -7.818312e-01 -6.234901e-01
    outer loop
      vertex -1.750000e+01 1.566940e+01 1.150480e+01
      vertex -1.750000e+01 1.837460e+01 8.112610e+00
      vertex -1.500000e+01 1.566940e+01 1.150480e+01
    endloop
  endfacet
  facet normal 2.220450e-16 0.000000e+00 -1.000000e+00
    outer loop
      vertex -1.500000e+01 1.566940e+01 1.150480e+01
      vertex -1.500000e+01 1.133060e+01 1.150480e+01
      vertex -1.750000e+01 1.566940e+01 1.150480e+01
    endloop
  endfacet
  facet normal 2.220450e-16 0.000000e+00 -1.000000e+00
    outer loop
      vertex -1.750000e+01 1.566940e+01 1.150480e+01
      vertex -1.500000e+01 1.133060e+01 1.150480e+01
      vertex -1.750000e+01 1.133060e+01 1.150480e+01
    endloop
  endfacet
  facet normal 1.384430e-16 7.818312e-01 -6.234901e-01
    outer loop
      vertex -1.500000e+01 1.133060e+01 1.150480e+01
      vertex -1.500000e+01 8.625401e+00 8.112610e+00
      vertex -1.750000e+01 1.133060e+01 1.150480e+01
    endloop
  endfacet
  facet normal 1.384430e-16 7.818312e-01 -6.234901e-01
    outer loop
      vertex -1.750000e+01 1.133060e+01 1.150480e+01
      vertex -1.500000e+01 8.625401e+00 8.112610e+00
      vertex -1.750000e+01 8.625401e+00 8.112610e+00
    endloop
  endfacet
endsolid Default
