solid Default
  facet normal -2.220450e-16 -1.000000e+00 0.000000e+00
    outer loop
      vertex -1.650000e+01 -1.600000e+01 1.400000e+01
      vertex -1.650000e+01 -1.600000e+01 0.000000e+00
      vertex -1.150000e+01 -1.600000e+01 0.000000e+00
    endloop
  endfacet
  facet normal -2.220450e-16 -1.000000e+00 0.000000e+00
    outer loop
      vertex -1.150000e+01 -1.600000e+01 1.400000e+01
      vertex -1.650000e+01 -1.600000e+01 1.400000e+01
      vertex -1.150000e+01 -1.600000e+01 0.000000e+00
    endloop
  endfacet
  facet normal 0.000000e+00 0.000000e+00 -1.000000e+00
    outer loop
      vertex -1.650000e+01 -1.600000e+01 0.000000e+00
      vertex -1.650000e+01 -1.350000e+01 0.000000e+00
      vertex -1.150000e+01 -1.600000e+01 0.000000e+00
    endloop
  endfacet
  facet normal 0.000000e+00 0.000000e+00 -1.000000e+00
    outer loop
      vertex -1.150000e+01 -1.600000e+01 0.000000e+00
      vertex -1.650000e+01 -1.350000e+01 0.000000e+00
      vertex -1.150000e+01 -1.350000e+01 0.000000e+00
    endloop
  endfacet
  facet normal 0.000000e+00 0.000000e+00 -1.000000e+00
    outer loop
      vertex -1.150000e+01 -1.350000e+01 0.000000e+00
      vertex -1.150000e+01 3.400000e+01 0.000000e+00
      vertex -9.000000e+00 3.400000e+01 0.000000e+00
    endloop
  endfacet
  facet normal 0.000000e+00 0.000000e+00 -1.000000e+00
    outer loop
      vertex -1.150000e+01 -1.350000e+01 0.000000e+00
      vertex -9.000000e+00 3.400000e+01 0.000000e+00
      vertex -1.150000e+01 -1.600000e+01 0.000000e+00
    endloop
  endfacet
  facet normal 0.000000e+00 0.000000e+00 -1.000000e+00
    outer loop
      vertex -1.150000e+01 -1.600000e+01 0.000000e+00
      vertex -9.000000e+00 3.400000e+01 0.000000e+00
      vertex -9.000000e+00 1.150000e+01 0.000000e+00
    endloop
  endfacet
  facet normal 0.000000e+00 0.000000e+00 -1.000000e+00
    outer loop
      vertex -9.000000e+00 9.000000e+00 0.000000e+00
      vertex -9.000000e+00 1.150000e+01 0.000000e+00
      vertex -6.500000e+00 1.150000e+01 0.000000e+00
    endloop
  endfacet
  facet normal 0.000000e+00 0.000000e+00 -1.000000e+00
    outer loop
      vertex -9.000000e+00 9.000000e+00 0.000000e+00
      vertex -6.500000e+00 1.150000e+01 0.000000e+00
      vertex -6.500000e+00 9.000000e+00 0.000000e+00
    endloop
  endfacet
  facet normal 0.000000e+00 0.000000e+00 -1.000000e+00
    outer loop
      vertex -9.000000e+00 -2.500000e+00 0.000000e+00
      vertex -1.150000e+01 -1.600000e+01 0.000000e+00
      vertex -9.000000e+00 0.000000e+00 0.000000e+00
    endloop
  endfacet
  facet normal 0.000000e+00 0.000000e+00 -1.000000e+00
    outer loop
      vertex -6.500000e+00 1.150000e+01 0.000000e+00
      vertex -4.000000e+00 1.150000e+01 0.000000e+00
      vertex -6.500000e+00 9.000000e+00 0.000000e+00
    endloop
  endfacet
  facet normal 0.000000e+00 0.000000e+00 -1.000000e+00
    outer loop
      vertex -4.000000e+00 1.150000e+01 0.000000e+00
      vertex -6.500000e+00 6.500000e+00 0.000000e+00
      vertex -6.500000e+00 9.000000e+00 0.000000e+00
    endloop
  endfacet
  facet normal 0.000000e+00 0.000000e+00 -1.000000e+00
    outer loop
      vertex -1.150000e+01 -1.600000e+01 0.000000e+00
      vertex -9.000000e+00 1.150000e+01 0.000000e+00
      vertex -9.000000e+00 9.000000e+00 0.000000e+00
    endloop
  endfacet
  facet normal 0.000000e+00 0.000000e+00 -1.000000e+00
    outer loop
      vertex 2.600000e+01 0.000000e+00 0.000000e+00
      vertex 1.307220e+01 -2.500000e+00 0.000000e+00
      vertex 8.072201e+00 -2.500000e+00 0.000000e+00
    endloop
  endfacet
  facet normal 0.000000e+00 0.000000e+00 -1.000000e+00
    outer loop
      vertex -1.150000e+01 -1.600000e+01 0.000000e+00
      vertex -9.000000e+00 9.000000e+00 0.000000e+00
      vertex -9.000000e+00 0.000000e+00 0.000000e+00
    endloop
  endfacet
  facet normal 0.000000e+00 0.000000e+00 -1.000000e+00
    outer loop
      vertex -9.000000e+00 -1.235662e+01 0.000000e+00
      vertex -1.150000e+01 -1.600000e+01 0.000000e+00
      vertex -9.000000e+00 -2.500000e+00 0.000000e+00
    endloop
  endfacet
  facet normal 0.000000e+00 0.000000e+00 -1.000000e+00
    outer loop
      vertex 1.307220e+01 -2.500000e+00 0.000000e+00
      vertex 2.600000e+01 0.000000e+00 0.000000e+00
      vertex 2.600000e+01 -2.500000e+00 0.000000e+00
    endloop
  endfacet
  facet normal 0.000000e+00 0.000000e+00 -1.000000e+00
    outer loop
      vertex 2.600000e+01 0.000000e+00 0.000000e+00
      vertex 2.600000e+01 5.000000e+00 0.000000e+00
      vertex 2.850000e+01 5.000000e+00 0.000000e+00
    endloop
  endfacet
  facet normal 0.000000e+00 0.000000e+00 -1.000000e+00
    outer loop
      vertex 2.600000e+01 0.000000e+00 0.000000e+00
      vertex 2.850000e+01 5.000000e+00 0.000000e+00
      vertex 2.850000e+01 -2.500000e+00 0.000000e+00
    endloop
  endfacet
  facet normal 0.000000e+00 0.000000e+00 -1.000000e+00
    outer loop
      vertex 2.600000e+01 0.000000e+00 0.000000e+00
      vertex 2.850000e+01 -2.500000e+00 0.000000e+00
      vertex 2.600000e+01 -2.500000e+00 0.000000e+00
    endloop
  endfacet
  facet normal 0.000000e+00 0.000000e+00 -1.000000e+00
    outer loop
      vertex -9.000000e+00 -1.524340e+01 0.000000e+00
      vertex -1.150000e+01 -1.600000e+01 0.000000e+00
      vertex 1.307220e+01 -2.500000e+00 0.000000e+00
    endloop
  endfacet
  facet normal 0.000000e+00 0.000000e+00 -1.000000e+00
    outer loop
      vertex -1.150000e+01 -1.600000e+01 0.000000e+00
      vertex -9.000000e+00 -1.524340e+01 0.000000e+00
      vertex -9.000000e+00 -1.600000e+01 0.000000e+00
    endloop
  endfacet
  facet normal 0.000000e+00 0.000000e+00 -1.000000e+00
    outer loop
      vertex 2.600000e+01 0.000000e+00 0.000000e+00
      vertex 8.072201e+00 -2.500000e+00 0.000000e+00
      vertex -9.000000e+00 -2.500000e+00 0.000000e+00
    endloop
  endfacet
  facet normal 0.000000e+00 0.000000e+00 -1.000000e+00
    outer loop
      vertex -1.150000e+01 -1.600000e+01 0.000000e+00
      vertex -9.000000e+00 -1.235662e+01 0.000000e+00
      vertex 1.307220e+01 -2.500000e+00 0.000000e+00
    endloop
  endfacet
  facet normal 0.000000e+00 0.000000e+00 -1.000000e+00
    outer loop
      vertex -9.000000e+00 -1.235662e+01 0.000000e+00
      vertex 8.072201e+00 -2.500000e+00 0.000000e+00
      vertex 1.307220e+01 -2.500000e+00 0.000000e+00
    endloop
  endfacet
  facet normal 0.000000e+00 0.000000e+00 -1.000000e+00
    outer loop
      vertex 2.600000e+01 0.000000e+00 0.000000e+00
      vertex -9.000000e+00 -2.500000e+00 0.000000e+00
      vertex -9.000000e+00 0.000000e+00 0.000000e+00
    endloop
  endfacet
  facet normal 0.000000e+00 0.000000e+00 -1.000000e+00
    outer loop
      vertex -6.500000e+00 6.500000e+00 0.000000e+00
      vertex -4.000000e+00 1.150000e+01 0.000000e+00
      vertex -4.000000e+00 9.000000e+00 0.000000e+00
    endloop
  endfacet
  facet normal 0.000000e+00 0.000000e+00 -1.000000e+00
    outer loop
      vertex -6.500000e+00 6.500000e+00 0.000000e+00
      vertex -4.000000e+00 9.000000e+00 0.000000e+00
      vertex -4.000000e+00 6.500000e+00 0.000000e+00
    endloop
  endfacet
  facet normal -1.000000e+00 2.220450e-16 0.000000e+00
    outer loop
      vertex -1.650000e+01 -1.600000e+01 0.000000e+00
      vertex -1.650000e+01 -1.600000e+01 1.400000e+01
      vertex -1.650000e+01 -1.350000e+01 0.000000e+00
    endloop
  endfacet
  facet normal -1.000000e+00 2.220450e-16 0.000000e+00
    outer loop
      vertex -1.650000e+01 -1.350000e+01 0.000000e+00
      vertex -1.650000e+01 -1.600000e+01 1.400000e+01
      vertex -1.650000e+01 -1.350000e+01 1.400000e+01
    endloop
  endfacet
  facet normal 0.000000e+00 0.000000e+00 1.000000e+00
    outer loop
      vertex -1.650000e+01 -1.350000e+01 1.400000e+01
      vertex -1.650000e+01 -1.600000e+01 1.400000e+01
      vertex -1.150000e+01 -1.600000e+01 1.400000e+01
    endloop
  endfacet
  facet normal 0.000000e+00 0.000000e+00 1.000000e+00
    outer loop
      vertex -9.000000e+00 -1.524340e+01 1.400000e+01
      vertex -1.650000e+01 -1.350000e+01 1.400000e+01
      vertex -9.000000e+00 -1.600000e+01 1.400000e+01
    endloop
  endfacet
  facet normal 0.000000e+00 0.000000e+00 1.000000e+00
    outer loop
      vertex -9.000000e+00 -1.600000e+01 1.400000e+01
      vertex -1.650000e+01 -1.350000e+01 1.400000e+01
      vertex -1.150000e+01 -1.600000e+01 1.400000e+01
    endloop
  endfacet
  facet normal 0.000000e+00 0.000000e+00 1.000000e+00
    outer loop
      vertex -1.150000e+01 -1.350000e+01 1.400000e+01
      vertex -1.650000e+01 -1.350000e+01 1.400000e+01
      vertex -9.000000e+00 -1.524340e+01 1.400000e+01
    endloop
  endfacet
  facet normal 0.000000e+00 0.000000e+00 1.000000e+00
    outer loop
      vertex 2.850000e+01 -2.500000e+00 1.400000e+01
      vertex 1.307220e+01 -2.500000e+00 1.400000e+01
      vertex 2.600000e+01 -2.500000e+00 1.400000e+01
    endloop
  endfacet
  facet normal 0.000000e+00 0.000000e+00 1.000000e+00
    outer loop
      vertex 2.600000e+01 0.000000e+00 1.400000e+01
      vertex 1.307220e+01 -2.500000e+00 1.400000e+01
      vertex 2.850000e+01 -2.500000e+00 1.400000e+01
    endloop
  endfacet
  facet normal 0.000000e+00 0.000000e+00 1.000000e+00
    outer loop
      vertex 2.600000e+01 0.000000e+00 1.400000e+01
      vertex 8.072201e+00 -2.500000e+00 1.400000e+01
      vertex 1.307220e+01 -2.500000e+00 1.400000e+01
    endloop
  endfacet
  facet normal 0.000000e+00 0.000000e+00 1.000000e+00
    outer loop
      vertex -1.150000e+01 3.400000e+01 1.400000e+01
      vertex -9.000000e+00 0.000000e+00 1.400000e+01
      vertex -9.000000e+00 9.000000e+00 1.400000e+01
    endloop
  endfacet
  facet normal 0.000000e+00 0.000000e+00 1.000000e+00
    outer loop
      vertex -1.150000e+01 3.400000e+01 1.400000e+01
      vertex -9.000000e+00 9.000000e+00 1.400000e+01
      vertex -9.000000e+00 1.150000e+01 1.400000e+01
    endloop
  endfacet
  facet normal 0.000000e+00 0.000000e+00 1.000000e+00
    outer loop
      vertex 2.850000e+01 5.000000e+00 1.400000e+01
      vertex 2.600000e+01 0.000000e+00 1.400000e+01
      vertex 2.850000e+01 -2.500000e+00 1.400000e+01
    endloop
  endfacet
  facet normal 0.000000e+00 0.000000e+00 1.000000e+00
    outer loop
      vertex -4.000000e+00 6.500000e+00 1.400000e+01
      vertex -4.000000e+00 9.000000e+00 1.400000e+01
      vertex -6.500000e+00 9.000000e+00 1.400000e+01
    endloop
  endfacet
  facet normal 0.000000e+00 0.000000e+00 1.000000e+00
    outer loop
      vertex -4.000000e+00 1.150000e+01 1.400000e+01
      vertex -9.000000e+00 9.000000e+00 1.400000e+01
      vertex -6.500000e+00 9.000000e+00 1.400000e+01
    endloop
  endfacet
  facet normal 0.000000e+00 0.000000e+00 1.000000e+00
    outer loop
      vertex -4.000000e+00 1.150000e+01 1.400000e+01
      vertex -6.500000e+00 9.000000e+00 1.400000e+01
      vertex -4.000000e+00 9.000000e+00 1.400000e+01
    endloop
  endfacet
  facet normal 0.000000e+00 0.000000e+00 1.000000e+00
    outer loop
      vertex -6.500000e+00 1.150000e+01 1.400000e+01
      vertex -9.000000e+00 9.000000e+00 1.400000e+01
      vertex -4.000000e+00 1.150000e+01 1.400000e+01
    endloop
  endfacet
  facet normal 0.000000e+00 0.000000e+00 1.000000e+00
    outer loop
      vertex -1.150000e+01 3.400000e+01 1.400000e+01
      vertex -9.000000e+00 1.150000e+01 1.400000e+01
      vertex -9.000000e+00 3.400000e+01 1.400000e+01
    endloop
  endfacet
  facet normal 0.000000e+00 0.000000e+00 1.000000e+00
    outer loop
      vertex 1.307220e+01 -2.500000e+00 1.400000e+01
      vertex -1.150000e+01 -1.350000e+01 1.400000e+01
      vertex -9.000000e+00 -1.524340e+01 1.400000e+01
    endloop
  endfacet
  facet normal 0.000000e+00 0.000000e+00 1.000000e+00
    outer loop
      vertex 1.307220e+01 -2.500000e+00 1.400000e+01
      vertex -9.000000e+00 -1.235662e+01 1.400000e+01
      vertex -1.150000e+01 -1.350000e+01 1.400000e+01
    endloop
  endfacet
  facet normal 0.000000e+00 0.000000e+00 1.000000e+00
    outer loop
      vertex -6.500000e+00 1.150000e+01 1.400000e+01
      vertex -9.000000e+00 1.150000e+01 1.400000e+01
      vertex -9.000000e+00 9.000000e+00 1.400000e+01
    endloop
  endfacet
  facet normal 0.000000e+00 0.000000e+00 1.000000e+00
    outer loop
      vertex -6.500000e+00 9.000000e+00 1.400000e+01
      vertex -6.500000e+00 6.500000e+00 1.400000e+01
      vertex -4.000000e+00 6.500000e+00 1.400000e+01
    endloop
  endfacet
  facet normal 0.000000e+00 0.000000e+00 1.000000e+00
    outer loop
      vertex -1.150000e+01 3.400000e+01 1.400000e+01
      vertex -9.000000e+00 -2.500000e+00 1.400000e+01
      vertex -9.000000e+00 0.000000e+00 1.400000e+01
    endloop
  endfacet
  facet normal 0.000000e+00 0.000000e+00 1.000000e+00
    outer loop
      vertex 2.600000e+01 5.000000e+00 1.400000e+01
      vertex 2.600000e+01 0.000000e+00 1.400000e+01
      vertex 2.850000e+01 5.000000e+00 1.400000e+01
    endloop
  endfacet
  facet normal 0.000000e+00 0.000000e+00 1.000000e+00
    outer loop
      vertex 2.600000e+01 0.000000e+00 1.400000e+01
      vertex -9.000000e+00 -2.500000e+00 1.400000e+01
      vertex 8.072201e+00 -2.500000e+00 1.400000e+01
    endloop
  endfacet
  facet normal 0.000000e+00 0.000000e+00 1.000000e+00
    outer loop
      vertex 2.600000e+01 0.000000e+00 1.400000e+01
      vertex -9.000000e+00 0.000000e+00 1.400000e+01
      vertex -9.000000e+00 -2.500000e+00 1.400000e+01
    endloop
  endfacet
  facet normal 0.000000e+00 0.000000e+00 1.000000e+00
    outer loop
      vertex 8.072201e+00 -2.500000e+00 1.400000e+01
      vertex -9.000000e+00 -1.235662e+01 1.400000e+01
      vertex 1.307220e+01 -2.500000e+00 1.400000e+01
    endloop
  endfacet
  facet normal 0.000000e+00 0.000000e+00 1.000000e+00
    outer loop
      vertex -1.150000e+01 3.400000e+01 1.400000e+01
      vertex -9.000000e+00 -1.235662e+01 1.400000e+01
      vertex -9.000000e+00 -2.500000e+00 1.400000e+01
    endloop
  endfacet
  facet normal 0.000000e+00 0.000000e+00 1.000000e+00
    outer loop
      vertex -1.150000e+01 3.400000e+01 1.400000e+01
      vertex -1.150000e+01 -1.350000e+01 1.400000e+01
      vertex -9.000000e+00 -1.235662e+01 1.400000e+01
    endloop
  endfacet
  facet normal 0.000000e+00 -1.000000e+00 0.000000e+00
    outer loop
      vertex -1.150000e+01 -1.600000e+01 1.400000e+01
      vertex -1.150000e+01 -1.600000e+01 0.000000e+00
      vertex -9.000000e+00 -1.600000e+01 0.000000e+00
    endloop
  endfacet
  facet normal 0.000000e+00 -1.000000e+00 0.000000e+00
    outer loop
      vertex -9.000000e+00 -1.600000e+01 1.400000e+01
      vertex -1.150000e+01 -1.600000e+01 1.400000e+01
      vertex -9.000000e+00 -1.600000e+01 0.000000e+00
    endloop
  endfacet
  facet normal 1.000000e+00 0.000000e+00 0.000000e+00
    outer loop
      vertex -9.000000e+00 -1.600000e+01 1.400000e+01
      vertex -9.000000e+00 -1.600000e+01 0.000000e+00
      vertex -9.000000e+00 -1.524340e+01 0.000000e+00
    endloop
  endfacet
  facet normal 1.000000e+00 0.000000e+00 0.000000e+00
    outer loop
      vertex -9.000000e+00 -1.524340e+01 1.400000e+01
      vertex -9.000000e+00 -1.600000e+01 1.400000e+01
      vertex -9.000000e+00 -1.524340e+01 0.000000e+00
    endloop
  endfacet
  facet normal 5.000002e-01 -8.660253e-01 0.000000e+00
    outer loop
      vertex -9.000000e+00 -1.524340e+01 1.400000e+01
      vertex -9.000000e+00 -1.524340e+01 0.000000e+00
      vertex 1.307220e+01 -2.500000e+00 0.000000e+00
    endloop
  endfacet
  facet normal 5.000002e-01 -8.660253e-01 0.000000e+00
    outer loop
      vertex 1.307220e+01 -2.500000e+00 1.400000e+01
      vertex -9.000000e+00 -1.524340e+01 1.400000e+01
      vertex 1.307220e+01 -2.500000e+00 0.000000e+00
    endloop
  endfacet
  facet normal -2.220450e-16 -1.000000e+00 0.000000e+00
    outer loop
      vertex 1.307220e+01 -2.500000e+00 1.400000e+01
      vertex 1.307220e+01 -2.500000e+00 0.000000e+00
      vertex 2.600000e+01 -2.500000e+00 0.000000e+00
    endloop
  endfacet
  facet normal -2.220450e-16 -1.000000e+00 0.000000e+00
    outer loop
      vertex 2.600000e+01 -2.500000e+00 1.400000e+01
      vertex 1.307220e+01 -2.500000e+00 1.400000e+01
      vertex 2.600000e+01 -2.500000e+00 0.000000e+00
    endloop
  endfacet
  facet normal 0.000000e+00 -1.000000e+00 0.000000e+00
    outer loop
      vertex 2.600000e+01 -2.500000e+00 1.400000e+01
      vertex 2.600000e+01 -2.500000e+00 0.000000e+00
      vertex 2.850000e+01 -2.500000e+00 0.000000e+00
    endloop
  endfacet
  facet normal 0.000000e+00 -1.000000e+00 0.000000e+00
    outer loop
      vertex 2.850000e+01 -2.500000e+00 1.400000e+01
      vertex 2.600000e+01 -2.500000e+00 1.400000e+01
      vertex 2.850000e+01 -2.500000e+00 0.000000e+00
    endloop
  endfacet
  facet normal 1.000000e+00 0.000000e+00 0.000000e+00
    outer loop
      vertex 2.850000e+01 -2.500000e+00 1.400000e+01
      vertex 2.850000e+01 -2.500000e+00 0.000000e+00
      vertex 2.850000e+01 5.000000e+00 0.000000e+00
    endloop
  endfacet
  facet normal 1.000000e+00 0.000000e+00 0.000000e+00
    outer loop
      vertex 2.850000e+01 5.000000e+00 1.400000e+01
      vertex 2.850000e+01 -2.500000e+00 1.400000e+01
      vertex 2.850000e+01 5.000000e+00 0.000000e+00
    endloop
  endfacet
  facet normal 0.000000e+00 1.000000e+00 0.000000e+00
    outer loop
      vertex 2.600000e+01 5.000000e+00 0.000000e+00
      vertex 2.600000e+01 5.000000e+00 1.400000e+01
      vertex 2.850000e+01 5.000000e+00 0.000000e+00
    endloop
  endfacet
  facet normal 0.000000e+00 1.000000e+00 0.000000e+00
    outer loop
      vertex 2.850000e+01 5.000000e+00 0.000000e+00
      vertex 2.600000e+01 5.000000e+00 1.400000e+01
      vertex 2.850000e+01 5.000000e+00 1.400000e+01
    endloop
  endfacet
  facet normal -1.000000e+00 0.000000e+00 0.000000e+00
    outer loop
      vertex 2.600000e+01 0.000000e+00 0.000000e+00
      vertex 2.600000e+01 0.000000e+00 1.400000e+01
      vertex 2.600000e+01 5.000000e+00 0.000000e+00
    endloop
  endfacet
  facet normal -1.000000e+00 0.000000e+00 0.000000e+00
    outer loop
      vertex 2.600000e+01 5.000000e+00 0.000000e+00
      vertex 2.600000e+01 0.000000e+00 1.400000e+01
      vertex 2.600000e+01 5.000000e+00 1.400000e+01
    endloop
  endfacet
  facet normal 2.220450e-16 1.000000e+00 0.000000e+00
    outer loop
      vertex -9.000000e+00 0.000000e+00 0.000000e+00
      vertex -9.000000e+00 0.000000e+00 1.400000e+01
      vertex 2.600000e+01 0.000000e+00 0.000000e+00
    endloop
  endfacet
  facet normal 2.220450e-16 1.000000e+00 0.000000e+00
    outer loop
      vertex 2.600000e+01 0.000000e+00 0.000000e+00
      vertex -9.000000e+00 0.000000e+00 1.400000e+01
      vertex 2.600000e+01 0.000000e+00 1.400000e+01
    endloop
  endfacet
  facet normal 1.000000e+00 0.000000e+00 0.000000e+00
    outer loop
      vertex -9.000000e+00 0.000000e+00 1.400000e+01
      vertex -9.000000e+00 0.000000e+00 0.000000e+00
      vertex -9.000000e+00 9.000000e+00 0.000000e+00
    endloop
  endfacet
  facet normal 1.000000e+00 0.000000e+00 0.000000e+00
    outer loop
      vertex -9.000000e+00 9.000000e+00 1.400000e+01
      vertex -9.000000e+00 0.000000e+00 1.400000e+01
      vertex -9.000000e+00 9.000000e+00 0.000000e+00
    endloop
  endfacet
  facet normal -2.220450e-16 -1.000000e+00 0.000000e+00
    outer loop
      vertex -9.000000e+00 9.000000e+00 1.400000e+01
      vertex -9.000000e+00 9.000000e+00 0.000000e+00
      vertex -6.500000e+00 9.000000e+00 0.000000e+00
    endloop
  endfacet
  facet normal -2.220450e-16 -1.000000e+00 0.000000e+00
    outer loop
      vertex -6.500000e+00 9.000000e+00 1.400000e+01
      vertex -9.000000e+00 9.000000e+00 1.400000e+01
      vertex -6.500000e+00 9.000000e+00 0.000000e+00
    endloop
  endfacet
  facet normal -1.000000e+00 0.000000e+00 0.000000e+00
    outer loop
      vertex -6.500000e+00 6.500000e+00 0.000000e+00
      vertex -6.500000e+00 6.500000e+00 1.400000e+01
      vertex -6.500000e+00 9.000000e+00 0.000000e+00
    endloop
  endfacet
  facet normal -1.000000e+00 0.000000e+00 0.000000e+00
    outer loop
      vertex -6.500000e+00 9.000000e+00 0.000000e+00
      vertex -6.500000e+00 6.500000e+00 1.400000e+01
      vertex -6.500000e+00 9.000000e+00 1.400000e+01
    endloop
  endfacet
  facet normal 0.000000e+00 -1.000000e+00 0.000000e+00
    outer loop
      vertex -6.500000e+00 6.500000e+00 1.400000e+01
      vertex -6.500000e+00 6.500000e+00 0.000000e+00
      vertex -4.000000e+00 6.500000e+00 0.000000e+00
    endloop
  endfacet
  facet normal 0.000000e+00 -1.000000e+00 0.000000e+00
    outer loop
      vertex -4.000000e+00 6.500000e+00 1.400000e+01
      vertex -6.500000e+00 6.500000e+00 1.400000e+01
      vertex -4.000000e+00 6.500000e+00 0.000000e+00
    endloop
  endfacet
  facet normal 1.000000e+00 0.000000e+00 0.000000e+00
    outer loop
      vertex -4.000000e+00 6.500000e+00 1.400000e+01
      vertex -4.000000e+00 6.500000e+00 0.000000e+00
      vertex -4.000000e+00 9.000000e+00 0.000000e+00
    endloop
  endfacet
  facet normal 1.000000e+00 0.000000e+00 0.000000e+00
    outer loop
      vertex -4.000000e+00 9.000000e+00 1.400000e+01
      vertex -4.000000e+00 6.500000e+00 1.400000e+01
      vertex -4.000000e+00 9.000000e+00 0.000000e+00
    endloop
  endfacet
  facet normal 1.000000e+00 -2.220450e-16 0.000000e+00
    outer loop
      vertex -4.000000e+00 9.000000e+00 1.400000e+01
      vertex -4.000000e+00 9.000000e+00 0.000000e+00
      vertex -4.000000e+00 1.150000e+01 0.000000e+00
    endloop
  endfacet
  facet normal 1.000000e+00 -2.220450e-16 0.000000e+00
    outer loop
      vertex -4.000000e+00 1.150000e+01 1.400000e+01
      vertex -4.000000e+00 9.000000e+00 1.400000e+01
      vertex -4.000000e+00 1.150000e+01 0.000000e+00
    endloop
  endfacet
  facet normal 0.000000e+00 1.000000e+00 0.000000e+00
    outer loop
      vertex -6.500000e+00 1.150000e+01 0.000000e+00
      vertex -6.500000e+00 1.150000e+01 1.400000e+01
      vertex -4.000000e+00 1.150000e+01 0.000000e+00
    endloop
  endfacet
  facet normal 0.000000e+00 1.000000e+00 0.000000e+00
    outer loop
      vertex -4.000000e+00 1.150000e+01 0.000000e+00
      vertex -6.500000e+00 1.150000e+01 1.400000e+01
      vertex -4.000000e+00 1.150000e+01 1.400000e+01
    endloop
  endfacet
  facet normal 2.220450e-16 1.000000e+00 0.000000e+00
    outer loop
      vertex -9.000000e+00 1.150000e+01 0.000000e+00
      vertex -9.000000e+00 1.150000e+01 1.400000e+01
      vertex -6.500000e+00 1.150000e+01 0.000000e+00
    endloop
  endfacet
  facet normal 2.220450e-16 1.000000e+00 0.000000e+00
    outer loop
      vertex -6.500000e+00 1.150000e+01 0.000000e+00
      vertex -9.000000e+00 1.150000e+01 1.400000e+01
      vertex -6.500000e+00 1.150000e+01 1.400000e+01
    endloop
  endfacet
  facet normal 1.000000e+00 0.000000e+00 0.000000e+00
    outer loop
      vertex -9.000000e+00 2.250000e+01 2.000000e+00
      vertex -9.000000e+00 1.150000e+01 0.000000e+00
      vertex -9.000000e+00 3.400000e+01 0.000000e+00
    endloop
  endfacet
  facet normal 1.000000e+00 0.000000e+00 0.000000e+00
    outer loop
      vertex -9.000000e+00 1.150000e+01 1.400000e+01
      vertex -9.000000e+00 1.150000e+01 0.000000e+00
      vertex -9.000000e+00 1.859080e+01 3.882550e+00
    endloop
  endfacet
  facet normal 1.000000e+00 0.000000e+00 0.000000e+00
    outer loop
      vertex -9.000000e+00 1.150000e+01 1.400000e+01
      vertex -9.000000e+00 1.859080e+01 3.882550e+00
      vertex -9.000000e+00 1.762540e+01 8.112610e+00
    endloop
  endfacet
  facet normal 1.000000e+00 0.000000e+00 0.000000e+00
    outer loop
      vertex -9.000000e+00 3.400000e+01 1.400000e+01
      vertex -9.000000e+00 1.150000e+01 1.400000e+01
      vertex -9.000000e+00 2.033060e+01 1.150480e+01
    endloop
  endfacet
  facet normal 1.000000e+00 0.000000e+00 0.000000e+00
    outer loop
      vertex -9.000000e+00 3.400000e+01 1.400000e+01
      vertex -9.000000e+00 2.466940e+01 1.150480e+01
      vertex -9.000000e+00 3.400000e+01 0.000000e+00
    endloop
  endfacet
  facet normal 1.000000e+00 0.000000e+00 0.000000e+00
    outer loop
      vertex -9.000000e+00 3.400000e+01 1.400000e+01
      vertex -9.000000e+00 2.033060e+01 1.150480e+01
      vertex -9.000000e+00 2.466940e+01 1.150480e+01
    endloop
  endfacet
  facet normal 1.000000e+00 0.000000e+00 0.000000e+00
    outer loop
      vertex -9.000000e+00 2.466940e+01 1.150480e+01
      vertex -9.000000e+00 2.737460e+01 8.112610e+00
      vertex -9.000000e+00 3.400000e+01 0.000000e+00
    endloop
  endfacet
  facet normal 1.000000e+00 0.000000e+00 0.000000e+00
    outer loop
      vertex -9.000000e+00 2.737460e+01 8.112610e+00
      vertex -9.000000e+00 2.640920e+01 3.882550e+00
      vertex -9.000000e+00 3.400000e+01 0.000000e+00
    endloop
  endfacet
  facet normal 1.000000e+00 0.000000e+00 0.000000e+00
    outer loop
      vertex -9.000000e+00 2.640920e+01 3.882550e+00
      vertex -9.000000e+00 2.250000e+01 2.000000e+00
      vertex -9.000000e+00 3.400000e+01 0.000000e+00
    endloop
  endfacet
  facet normal 1.000000e+00 0.000000e+00 0.000000e+00
    outer loop
      vertex -9.000000e+00 1.859080e+01 3.882550e+00
      vertex -9.000000e+00 1.150000e+01 0.000000e+00
      vertex -9.000000e+00 2.250000e+01 2.000000e+00
    endloop
  endfacet
  facet normal 1.000000e+00 0.000000e+00 0.000000e+00
    outer loop
      vertex -9.000000e+00 1.762540e+01 8.112610e+00
      vertex -9.000000e+00 2.033060e+01 1.150480e+01
      vertex -9.000000e+00 1.150000e+01 1.400000e+01
    endloop
  endfacet
  facet normal 0.000000e+00 1.000000e+00 0.000000e+00
    outer loop
      vertex -1.150000e+01 3.400000e+01 0.000000e+00
      vertex -1.150000e+01 3.400000e+01 1.400000e+01
      vertex -9.000000e+00 3.400000e+01 0.000000e+00
    endloop
  endfacet
  facet normal 0.000000e+00 1.000000e+00 0.000000e+00
    outer loop
      vertex -9.000000e+00 3.400000e+01 0.000000e+00
      vertex -1.150000e+01 3.400000e+01 1.400000e+01
      vertex -9.000000e+00 3.400000e+01 1.400000e+01
    endloop
  endfacet
  facet normal -1.000000e+00 0.000000e+00 0.000000e+00
    outer loop
      vertex -1.150000e+01 2.640920e+01 3.882550e+00
      vertex -1.150000e+01 3.400000e+01 0.000000e+00
      vertex -1.150000e+01 2.250000e+01 2.000000e+00
    endloop
  endfacet
  facet normal -1.000000e+00 0.000000e+00 0.000000e+00
    outer loop
      vertex -1.150000e+01 2.466940e+01 1.150480e+01
      vertex -1.150000e+01 -1.350000e+01 1.400000e+01
      vertex -1.150000e+01 3.400000e+01 1.400000e+01
    endloop
  endfacet
  facet normal -1.000000e+00 0.000000e+00 0.000000e+00
    outer loop
      vertex -1.150000e+01 -1.350000e+01 0.000000e+00
      vertex -1.150000e+01 -1.350000e+01 1.400000e+01
      vertex -1.150000e+01 1.859080e+01 3.882550e+00
    endloop
  endfacet
  facet normal -1.000000e+00 0.000000e+00 0.000000e+00
    outer loop
      vertex -1.150000e+01 -1.350000e+01 0.000000e+00
      vertex -1.150000e+01 1.859080e+01 3.882550e+00
      vertex -1.150000e+01 2.250000e+01 2.000000e+00
    endloop
  endfacet
  facet normal -1.000000e+00 0.000000e+00 0.000000e+00
    outer loop
      vertex -1.150000e+01 -1.350000e+01 0.000000e+00
      vertex -1.150000e+01 2.250000e+01 2.000000e+00
      vertex -1.150000e+01 3.400000e+01 0.000000e+00
    endloop
  endfacet
  facet normal -1.000000e+00 0.000000e+00 0.000000e+00
    outer loop
      vertex -1.150000e+01 2.466940e+01 1.150480e+01
      vertex -1.150000e+01 3.400000e+01 1.400000e+01
      vertex -1.150000e+01 2.737460e+01 8.112610e+00
    endloop
  endfacet
  facet normal -1.000000e+00 0.000000e+00 0.000000e+00
    outer loop
      vertex -1.150000e+01 3.400000e+01 0.000000e+00
      vertex -1.150000e+01 2.640920e+01 3.882550e+00
      vertex -1.150000e+01 3.400000e+01 1.400000e+01
    endloop
  endfacet
  facet normal -1.000000e+00 0.000000e+00 0.000000e+00
    outer loop
      vertex -1.150000e+01 2.640920e+01 3.882550e+00
      vertex -1.150000e+01 2.737460e+01 8.112610e+00
      vertex -1.150000e+01 3.400000e+01 1.400000e+01
    endloop
  endfacet
  facet normal -1.000000e+00 0.000000e+00 0.000000e+00
    outer loop
      vertex -1.150000e+01 2.033060e+01 1.150480e+01
      vertex -1.150000e+01 -1.350000e+01 1.400000e+01
      vertex -1.150000e+01 2.466940e+01 1.150480e+01
    endloop
  endfacet
  facet normal -1.000000e+00 0.000000e+00 0.000000e+00
    outer loop
      vertex -1.150000e+01 1.762540e+01 8.112610e+00
      vertex -1.150000e+01 -1.350000e+01 1.400000e+01
      vertex -1.150000e+01 2.033060e+01 1.150480e+01
    endloop
  endfacet
  facet normal -1.000000e+00 0.000000e+00 0.000000e+00
    outer loop
      vertex -1.150000e+01 1.859080e+01 3.882550e+00
      vertex -1.150000e+01 -1.350000e+01 1.400000e+01
      vertex -1.150000e+01 1.762540e+01 8.112610e+00
    endloop
  endfacet
  facet normal 2.220450e-16 1.000000e+00 0.000000e+00
    outer loop
      vertex -1.650000e+01 -1.350000e+01 0.000000e+00
      vertex -1.650000e+01 -1.350000e+01 1.400000e+01
      vertex -1.150000e+01 -1.350000e+01 0.000000e+00
    endloop
  endfacet
  facet normal 2.220450e-16 1.000000e+00 0.000000e+00
    outer loop
      vertex -1.150000e+01 -1.350000e+01 0.000000e+00
      vertex -1.650000e+01 -1.350000e+01 1.400000e+01
      vertex -1.150000e+01 -1.350000e+01 1.400000e+01
    endloop
  endfacet
  facet normal 1.000000e+00 0.000000e+00 0.000000e+00
    outer loop
      vertex -9.000000e+00 -1.235662e+01 1.400000e+01
      vertex -9.000000e+00 -1.235662e+01 0.000000e+00
      vertex -9.000000e+00 -2.500000e+00 0.000000e+00
    endloop
  endfacet
  facet normal 1.000000e+00 0.000000e+00 0.000000e+00
    outer loop
      vertex -9.000000e+00 -2.500000e+00 1.400000e+01
      vertex -9.000000e+00 -1.235662e+01 1.400000e+01
      vertex -9.000000e+00 -2.500000e+00 0.000000e+00
    endloop
  endfacet
  facet normal -2.220450e-16 -1.000000e+00 0.000000e+00
    outer loop
      vertex -9.000000e+00 -2.500000e+00 1.400000e+01
      vertex -9.000000e+00 -2.500000e+00 0.000000e+00
      vertex 8.072201e+00 -2.500000e+00 0.000000e+00
    endloop
  endfacet
  facet normal -2.220450e-16 -1.000000e+00 0.000000e+00
    outer loop
      vertex 8.072201e+00 -2.500000e+00 1.400000e+01
      vertex -9.000000e+00 -2.500000e+00 1.400000e+01
      vertex 8.072201e+00 -2.500000e+00 0.000000e+00
    endloop
  endfacet
  facet normal -5.000002e-01 8.660253e-01 0.000000e+00
    outer loop
      vertex -9.000000e+00 -1.235662e+01 0.000000e+00
      vertex -9.000000e+00 -1.235662e+01 1.400000e+01
      vertex 8.072201e+00 -2.500000e+00 0.000000e+00
    endloop
  endfacet
  facet normal -5.000002e-01 8.660253e-01 0.000000e+00
    outer loop
      vertex 8.072201e+00 -2.500000e+00 0.000000e+00
      vertex -9.000000e+00 -1.235662e+01 1.400000e+01
      vertex 8.072201e+00 -2.500000e+00 1.400000e+01
    endloop
  endfacet
  facet normal -4.940959e-17 9.749279e-01 2.225210e-01
    outer loop
      vertex -9.000000e+00 1.859080e+01 3.882550e+00
      vertex -1.150000e+01 1.859080e+01 3.882550e+00
      vertex -9.000000e+00 1.762540e+01 8.112610e+00
    endloop
  endfacet
  facet normal -4.940959e-17 9.749279e-01 2.225210e-01
    outer loop
      vertex -9.000000e+00 1.762540e+01 8.112610e+00
      vertex -1.150000e+01 1.859080e+01 3.882550e+00
      vertex -1.150000e+01 1.762540e+01 8.112610e+00
    endloop
  endfacet
  facet normal -2.000549e-16 4.338839e-01 9.009688e-01
    outer loop
      vertex -9.000000e+00 1.859080e+01 3.882550e+00
      vertex -9.000000e+00 2.250000e+01 2.000000e+00
      vertex -1.150000e+01 2.250000e+01 2.000000e+00
    endloop
  endfacet
  facet normal -2.000549e-16 4.338839e-01 9.009688e-01
    outer loop
      vertex -1.150000e+01 1.859080e+01 3.882550e+00
      vertex -9.000000e+00 1.859080e+01 3.882550e+00
      vertex -1.150000e+01 2.250000e+01 2.000000e+00
    endloop
  endfacet
  facet normal -2.000549e-16 -4.338839e-01 9.009688e-01
    outer loop
      vertex -9.000000e+00 2.250000e+01 2.000000e+00
      vertex -9.000000e+00 2.640920e+01 3.882550e+00
      vertex -1.150000e+01 2.640920e+01 3.882550e+00
    endloop
  endfacet
  facet normal -2.000549e-16 -4.338839e-01 9.009688e-01
    outer loop
      vertex -1.150000e+01 2.250000e+01 2.000000e+00
      vertex -9.000000e+00 2.250000e+01 2.000000e+00
      vertex -1.150000e+01 2.640920e+01 3.882550e+00
    endloop
  endfacet
  facet normal -4.940959e-17 -9.749279e-01 2.225210e-01
    outer loop
      vertex -9.000000e+00 2.640920e+01 3.882550e+00
      vertex -9.000000e+00 2.737460e+01 8.112610e+00
      vertex -1.150000e+01 2.737460e+01 8.112610e+00
    endloop
  endfacet
  facet normal -4.940959e-17 -9.749279e-01 2.225210e-01
    outer loop
      vertex -1.150000e+01 2.640920e+01 3.882550e+00
      vertex -9.000000e+00 2.640920e+01 3.882550e+00
      vertex -1.150000e+01 2.737460e+01 8.112610e+00
    endloop
  endfacet
  facet normal 1.384430e-16 -7.818312e-01 -6.234901e-01
    outer loop
      vertex -1.150000e+01 2.737460e+01 8.112610e+00
      vertex -9.000000e+00 2.737460e+01 8.112610e+00
      vertex -9.000000e+00 2.466940e+01 1.150480e+01
    endloop
  endfacet
  facet normal 1.384430e-16 -7.818312e-01 -6.234901e-01
    outer loop
      vertex -1.150000e+01 2.466940e+01 1.150480e+01
      vertex -1.150000e+01 2.737460e+01 8.112610e+00
      vertex -9.000000e+00 2.466940e+01 1.150480e+01
    endloop
  endfacet
  facet normal 2.220450e-16 0.000000e+00 -1.000000e+00
    outer loop
      vertex -9.000000e+00 2.466940e+01 1.150480e+01
      vertex -9.000000e+00 2.033060e+01 1.150480e+01
      vertex -1.150000e+01 2.466940e+01 1.150480e+01
    endloop
  endfacet
  facet normal 2.220450e-16 0.000000e+00 -1.000000e+00
    outer loop
      vertex -1.150000e+01 2.466940e+01 1.150480e+01
      vertex -9.000000e+00 2.033060e+01 1.150480e+01
      vertex -1.150000e+01 2.033060e+01 1.150480e+01
    endloop
  endfacet
  facet normal 1.384430e-16 7.818312e-01 -6.234901e-01
    outer loop
      vertex -9.000000e+00 2.033060e+01 1.150480e+01
      vertex -9.000000e+00 1.762540e+01 8.112610e+00
      vertex -1.150000e+01 2.033060e+01 1.150480e+01
    endloop
  endfacet
  facet normal 1.384430e-16 7.818312e-01 -6.234901e-01
    outer loop
      vertex -1.150000e+01 2.033060e+01 1.150480e+01
      vertex -9.000000e+00 1.762540e+01 8.112610e+00
      vertex -1.150000e+01 1.762540e+01 8.112610e+00
    endloop
  endfacet
  facet normal -2.220450e-16 -1.000000e+00 0.000000e+00
    outer loop
      vertex -2.850000e+01 -3.400000e+01 1.400000e+01
      vertex -2.850000e+01 -3.400000e+01 0.000000e+00
      vertex -2.350000e+01 -3.400000e+01 0.000000e+00
    endloop
  endfacet
  facet normal -2.220450e-16 -1.000000e+00 0.000000e+00
    outer loop
      vertex -2.350000e+01 -3.400000e+01 1.400000e+01
      vertex -2.850000e+01 -3.400000e+01 1.400000e+01
      vertex -2.350000e+01 -3.400000e+01 0.000000e+00
    endloop
  endfacet
  facet normal 0.000000e+00 0.000000e+00 -1.000000e+00
    outer loop
      vertex -2.850000e+01 -3.400000e+01 0.000000e+00
      vertex -2.850000e+01 -3.150000e+01 0.000000e+00
      vertex -2.350000e+01 -3.400000e+01 0.000000e+00
    endloop
  endfacet
  facet normal 0.000000e+00 0.000000e+00 -1.000000e+00
    outer loop
      vertex -2.350000e+01 -3.400000e+01 0.000000e+00
      vertex -2.850000e+01 -3.150000e+01 0.000000e+00
      vertex -2.350000e+01 -3.150000e+01 0.000000e+00
    endloop
  endfacet
  facet normal 0.000000e+00 0.000000e+00 -1.000000e+00
    outer loop
      vertex -2.350000e+01 -3.150000e+01 0.000000e+00
      vertex -2.350000e+01 1.600000e+01 0.000000e+00
      vertex -2.100000e+01 1.600000e+01 0.000000e+00
    endloop
  endfacet
  facet normal 0.000000e+00 0.000000e+00 -1.000000e+00
    outer loop
      vertex -2.350000e+01 -3.150000e+01 0.000000e+00
      vertex -2.100000e+01 1.600000e+01 0.000000e+00
      vertex -2.350000e+01 -3.400000e+01 0.000000e+00
    endloop
  endfacet
  facet normal 0.000000e+00 0.000000e+00 -1.000000e+00
    outer loop
      vertex -2.350000e+01 -3.400000e+01 0.000000e+00
      vertex -2.100000e+01 1.600000e+01 0.000000e+00
      vertex -2.100000e+01 -6.500000e+00 0.000000e+00
    endloop
  endfacet
  facet normal 0.000000e+00 0.000000e+00 -1.000000e+00
    outer loop
      vertex -2.100000e+01 -9.000000e+00 0.000000e+00
      vertex -2.100000e+01 -6.500000e+00 0.000000e+00
      vertex -1.850000e+01 -6.500000e+00 0.000000e+00
    endloop
  endfacet
  facet normal 0.000000e+00 0.000000e+00 -1.000000e+00
    outer loop
      vertex -2.100000e+01 -9.000000e+00 0.000000e+00
      vertex -1.850000e+01 -6.500000e+00 0.000000e+00
      vertex -1.850000e+01 -9.000000e+00 0.000000e+00
    endloop
  endfacet
  facet normal 0.000000e+00 0.000000e+00 -1.000000e+00
    outer loop
      vertex -2.100000e+01 -2.050000e+01 0.000000e+00
      vertex -2.350000e+01 -3.400000e+01 0.000000e+00
      vertex -2.100000e+01 -1.800000e+01 0.000000e+00
    endloop
  endfacet
  facet normal 0.000000e+00 0.000000e+00 -1.000000e+00
    outer loop
      vertex -1.850000e+01 -6.500000e+00 0.000000e+00
      vertex -1.600000e+01 -6.500000e+00 0.000000e+00
      vertex -1.850000e+01 -9.000000e+00 0.000000e+00
    endloop
  endfacet
  facet normal 0.000000e+00 0.000000e+00 -1.000000e+00
    outer loop
      vertex -1.600000e+01 -6.500000e+00 0.000000e+00
      vertex -1.850000e+01 -1.150000e+01 0.000000e+00
      vertex -1.850000e+01 -9.000000e+00 0.000000e+00
    endloop
  endfacet
  facet normal 0.000000e+00 0.000000e+00 -1.000000e+00
    outer loop
      vertex -2.350000e+01 -3.400000e+01 0.000000e+00
      vertex -2.100000e+01 -6.500000e+00 0.000000e+00
      vertex -2.100000e+01 -9.000000e+00 0.000000e+00
    endloop
  endfacet
  facet normal 0.000000e+00 0.000000e+00 -1.000000e+00
    outer loop
      vertex 1.400000e+01 -1.800000e+01 0.000000e+00
      vertex 1.072200e+00 -2.050000e+01 0.000000e+00
      vertex -3.927830e+00 -2.050000e+01 0.000000e+00
    endloop
  endfacet
  facet normal 0.000000e+00 0.000000e+00 -1.000000e+00
    outer loop
      vertex -2.350000e+01 -3.400000e+01 0.000000e+00
      vertex -2.100000e+01 -9.000000e+00 0.000000e+00
      vertex -2.100000e+01 -1.800000e+01 0.000000e+00
    endloop
  endfacet
  facet normal 0.000000e+00 0.000000e+00 -1.000000e+00
    outer loop
      vertex -2.100000e+01 -3.035660e+01 0.000000e+00
      vertex -2.350000e+01 -3.400000e+01 0.000000e+00
      vertex -2.100000e+01 -2.050000e+01 0.000000e+00
    endloop
  endfacet
  facet normal 0.000000e+00 0.000000e+00 -1.000000e+00
    outer loop
      vertex 1.072200e+00 -2.050000e+01 0.000000e+00
      vertex 1.400000e+01 -1.800000e+01 0.000000e+00
      vertex 1.400000e+01 -2.050000e+01 0.000000e+00
    endloop
  endfacet
  facet normal 0.000000e+00 0.000000e+00 -1.000000e+00
    outer loop
      vertex 1.400000e+01 -1.800000e+01 0.000000e+00
      vertex 1.400000e+01 -1.300000e+01 0.000000e+00
      vertex 1.650000e+01 -1.300000e+01 0.000000e+00
    endloop
  endfacet
  facet normal 0.000000e+00 0.000000e+00 -1.000000e+00
    outer loop
      vertex 1.400000e+01 -1.800000e+01 0.000000e+00
      vertex 1.650000e+01 -1.300000e+01 0.000000e+00
      vertex 1.650000e+01 -2.050000e+01 0.000000e+00
    endloop
  endfacet
  facet normal 0.000000e+00 0.000000e+00 -1.000000e+00
    outer loop
      vertex 1.400000e+01 -1.800000e+01 0.000000e+00
      vertex 1.650000e+01 -2.050000e+01 0.000000e+00
      vertex 1.400000e+01 -2.050000e+01 0.000000e+00
    endloop
  endfacet
  facet normal 0.000000e+00 0.000000e+00 -1.000000e+00
    outer loop
      vertex -2.100000e+01 -3.324340e+01 0.000000e+00
      vertex -2.350000e+01 -3.400000e+01 0.000000e+00
      vertex 1.072200e+00 -2.050000e+01 0.000000e+00
    endloop
  endfacet
  facet normal 0.000000e+00 0.000000e+00 -1.000000e+00
    outer loop
      vertex -2.350000e+01 -3.400000e+01 0.000000e+00
      vertex -2.100000e+01 -3.324340e+01 0.000000e+00
      vertex -2.100000e+01 -3.400000e+01 0.000000e+00
    endloop
  endfacet
  facet normal 0.000000e+00 0.000000e+00 -1.000000e+00
    outer loop
      vertex 1.400000e+01 -1.800000e+01 0.000000e+00
      vertex -3.927830e+00 -2.050000e+01 0.000000e+00
      vertex -2.100000e+01 -2.050000e+01 0.000000e+00
    endloop
  endfacet
  facet normal 0.000000e+00 0.000000e+00 -1.000000e+00
    outer loop
      vertex -2.350000e+01 -3.400000e+01 0.000000e+00
      vertex -2.100000e+01 -3.035660e+01 0.000000e+00
      vertex 1.072200e+00 -2.050000e+01 0.000000e+00
    endloop
  endfacet
  facet normal 0.000000e+00 0.000000e+00 -1.000000e+00
    outer loop
      vertex -2.100000e+01 -3.035660e+01 0.000000e+00
      vertex -3.927830e+00 -2.050000e+01 0.000000e+00
      vertex 1.072200e+00 -2.050000e+01 0.000000e+00
    endloop
  endfacet
  facet normal 0.000000e+00 0.000000e+00 -1.000000e+00
    outer loop
      vertex 1.400000e+01 -1.800000e+01 0.000000e+00
      vertex -2.100000e+01 -2.050000e+01 0.000000e+00
      vertex -2.100000e+01 -1.800000e+01 0.000000e+00
    endloop
  endfacet
  facet normal 0.000000e+00 0.000000e+00 -1.000000e+00
    outer loop
      vertex -1.850000e+01 -1.150000e+01 0.000000e+00
      vertex -1.600000e+01 -6.500000e+00 0.000000e+00
      vertex -1.600000e+01 -9.000000e+00 0.000000e+00
    endloop
  endfacet
  facet normal 0.000000e+00 0.000000e+00 -1.000000e+00
    outer loop
      vertex -1.850000e+01 -1.150000e+01 0.000000e+00
      vertex -1.600000e+01 -9.000000e+00 0.000000e+00
      vertex -1.600000e+01 -1.150000e+01 0.000000e+00
    endloop
  endfacet
  facet normal -1.000000e+00 2.220450e-16 0.000000e+00
    outer loop
      vertex -2.850000e+01 -3.400000e+01 0.000000e+00
      vertex -2.850000e+01 -3.400000e+01 1.400000e+01
      vertex -2.850000e+01 -3.150000e+01 0.000000e+00
    endloop
  endfacet
  facet normal -1.000000e+00 2.220450e-16 0.000000e+00
    outer loop
      vertex -2.850000e+01 -3.150000e+01 0.000000e+00
      vertex -2.850000e+01 -3.400000e+01 1.400000e+01
      vertex -2.850000e+01 -3.150000e+01 1.400000e+01
    endloop
  endfacet
  facet normal 0.000000e+00 0.000000e+00 1.000000e+00
    outer loop
      vertex -2.850000e+01 -3.150000e+01 1.400000e+01
      vertex -2.850000e+01 -3.400000e+01 1.400000e+01
      vertex -2.350000e+01 -3.400000e+01 1.400000e+01
    endloop
  endfacet
  facet normal 0.000000e+00 0.000000e+00 1.000000e+00
    outer loop
      vertex -2.100000e+01 -3.324340e+01 1.400000e+01
      vertex -2.850000e+01 -3.150000e+01 1.400000e+01
      vertex -2.100000e+01 -3.400000e+01 1.400000e+01
    endloop
  endfacet
  facet normal 0.000000e+00 0.000000e+00 1.000000e+00
    outer loop
      vertex -2.100000e+01 -3.400000e+01 1.400000e+01
      vertex -2.850000e+01 -3.150000e+01 1.400000e+01
      vertex -2.350000e+01 -3.400000e+01 1.400000e+01
    endloop
  endfacet
  facet normal 0.000000e+00 0.000000e+00 1.000000e+00
    outer loop
      vertex -2.350000e+01 -3.150000e+01 1.400000e+01
      vertex -2.850000e+01 -3.150000e+01 1.400000e+01
      vertex -2.100000e+01 -3.324340e+01 1.400000e+01
    endloop
  endfacet
  facet normal 0.000000e+00 0.000000e+00 1.000000e+00
    outer loop
      vertex 1.650000e+01 -2.050000e+01 1.400000e+01
      vertex 1.072200e+00 -2.050000e+01 1.400000e+01
      vertex 1.400000e+01 -2.050000e+01 1.400000e+01
    endloop
  endfacet
  facet normal 0.000000e+00 0.000000e+00 1.000000e+00
    outer loop
      vertex 1.400000e+01 -1.800000e+01 1.400000e+01
      vertex 1.072200e+00 -2.050000e+01 1.400000e+01
      vertex 1.650000e+01 -2.050000e+01 1.400000e+01
    endloop
  endfacet
  facet normal 0.000000e+00 0.000000e+00 1.000000e+00
    outer loop
      vertex 1.400000e+01 -1.800000e+01 1.400000e+01
      vertex -3.927830e+00 -2.050000e+01 1.400000e+01
      vertex 1.072200e+00 -2.050000e+01 1.400000e+01
    endloop
  endfacet
  facet normal 0.000000e+00 0.000000e+00 1.000000e+00
    outer loop
      vertex -2.350000e+01 1.600000e+01 1.400000e+01
      vertex -2.100000e+01 -1.800000e+01 1.400000e+01
      vertex -2.100000e+01 -9.000000e+00 1.400000e+01
    endloop
  endfacet
  facet normal 0.000000e+00 0.000000e+00 1.000000e+00
    outer loop
      vertex -2.350000e+01 1.600000e+01 1.400000e+01
      vertex -2.100000e+01 -9.000000e+00 1.400000e+01
      vertex -2.100000e+01 -6.500000e+00 1.400000e+01
    endloop
  endfacet
  facet normal 0.000000e+00 0.000000e+00 1.000000e+00
    outer loop
      vertex 1.650000e+01 -1.300000e+01 1.400000e+01
      vertex 1.400000e+01 -1.800000e+01 1.400000e+01
      vertex 1.650000e+01 -2.050000e+01 1.400000e+01
    endloop
  endfacet
  facet normal 0.000000e+00 0.000000e+00 1.000000e+00
    outer loop
      vertex -1.600000e+01 -1.150000e+01 1.400000e+01
      vertex -1.600000e+01 -9.000000e+00 1.400000e+01
      vertex -1.850000e+01 -9.000000e+00 1.400000e+01
    endloop
  endfacet
  facet normal 0.000000e+00 0.000000e+00 1.000000e+00
    outer loop
      vertex -1.600000e+01 -6.500000e+00 1.400000e+01
      vertex -2.100000e+01 -9.000000e+00 1.400000e+01
      vertex -1.850000e+01 -9.000000e+00 1.400000e+01
    endloop
  endfacet
  facet normal 0.000000e+00 0.000000e+00 1.000000e+00
    outer loop
      vertex -1.600000e+01 -6.500000e+00 1.400000e+01
      vertex -1.850000e+01 -9.000000e+00 1.400000e+01
      vertex -1.600000e+01 -9.000000e+00 1.400000e+01
    endloop
  endfacet
  facet normal 0.000000e+00 0.000000e+00 1.000000e+00
    outer loop
      vertex -1.850000e+01 -6.500000e+00 1.400000e+01
      vertex -2.100000e+01 -9.000000e+00 1.400000e+01
      vertex -1.600000e+01 -6.500000e+00 1.400000e+01
    endloop
  endfacet
  facet normal 0.000000e+00 0.000000e+00 1.000000e+00
    outer loop
      vertex -2.350000e+01 1.600000e+01 1.400000e+01
      vertex -2.100000e+01 -6.500000e+00 1.400000e+01
      vertex -2.100000e+01 1.600000e+01 1.400000e+01
    endloop
  endfacet
  facet normal 0.000000e+00 0.000000e+00 1.000000e+00
    outer loop
      vertex 1.072200e+00 -2.050000e+01 1.400000e+01
      vertex -2.350000e+01 -3.150000e+01 1.400000e+01
      vertex -2.100000e+01 -3.324340e+01 1.400000e+01
    endloop
  endfacet
  facet normal 0.000000e+00 0.000000e+00 1.000000e+00
    outer loop
      vertex 1.072200e+00 -2.050000e+01 1.400000e+01
      vertex -2.100000e+01 -3.035660e+01 1.400000e+01
      vertex -2.350000e+01 -3.150000e+01 1.400000e+01
    endloop
  endfacet
  facet normal 0.000000e+00 0.000000e+00 1.000000e+00
    outer loop
      vertex -1.850000e+01 -6.500000e+00 1.400000e+01
      vertex -2.100000e+01 -6.500000e+00 1.400000e+01
      vertex -2.100000e+01 -9.000000e+00 1.400000e+01
    endloop
  endfacet
  facet normal 0.000000e+00 0.000000e+00 1.000000e+00
    outer loop
      vertex -1.850000e+01 -9.000000e+00 1.400000e+01
      vertex -1.850000e+01 -1.150000e+01 1.400000e+01
      vertex -1.600000e+01 -1.150000e+01 1.400000e+01
    endloop
  endfacet
  facet normal 0.000000e+00 0.000000e+00 1.000000e+00
    outer loop
      vertex -2.350000e+01 1.600000e+01 1.400000e+01
      vertex -2.100000e+01 -2.050000e+01 1.400000e+01
      vertex -2.100000e+01 -1.800000e+01 1.400000e+01
    endloop
  endfacet
  facet normal 0.000000e+00 0.000000e+00 1.000000e+00
    outer loop
      vertex 1.400000e+01 -1.300000e+01 1.400000e+01
      vertex 1.400000e+01 -1.800000e+01 1.400000e+01
      vertex 1.650000e+01 -1.300000e+01 1.400000e+01
    endloop
  endfacet
  facet normal 0.000000e+00 0.000000e+00 1.000000e+00
    outer loop
      vertex 1.400000e+01 -1.800000e+01 1.400000e+01
      vertex -2.100000e+01 -2.050000e+01 1.400000e+01
      vertex -3.927830e+00 -2.050000e+01 1.400000e+01
    endloop
  endfacet
  facet normal 0.000000e+00 0.000000e+00 1.000000e+00
    outer loop
      vertex 1.400000e+01 -1.800000e+01 1.400000e+01
      vertex -2.100000e+01 -1.800000e+01 1.400000e+01
      vertex -2.100000e+01 -2.050000e+01 1.400000e+01
    endloop
  endfacet
  facet normal 0.000000e+00 0.000000e+00 1.000000e+00
    outer loop
      vertex -3.927830e+00 -2.050000e+01 1.400000e+01
      vertex -2.100000e+01 -3.035660e+01 1.400000e+01
      vertex 1.072200e+00 -2.050000e+01 1.400000e+01
    endloop
  endfacet
  facet normal 0.000000e+00 0.000000e+00 1.000000e+00
    outer loop
      vertex -2.350000e+01 1.600000e+01 1.400000e+01
      vertex -2.100000e+01 -3.035660e+01 1.400000e+01
      vertex -2.100000e+01 -2.050000e+01 1.400000e+01
    endloop
  endfacet
  facet normal 0.000000e+00 0.000000e+00 1.000000e+00
    outer loop
      vertex -2.350000e+01 1.600000e+01 1.400000e+01
      vertex -2.350000e+01 -3.150000e+01 1.400000e+01
      vertex -2.100000e+01 -3.035660e+01 1.400000e+01
    endloop
  endfacet
  facet normal 0.000000e+00 -1.000000e+00 0.000000e+00
    outer loop
      vertex -2.350000e+01 -3.400000e+01 1.400000e+01
      vertex -2.350000e+01 -3.400000e+01 0.000000e+00
      vertex -2.100000e+01 -3.400000e+01 0.000000e+00
    endloop
  endfacet
  facet normal 0.000000e+00 -1.000000e+00 0.000000e+00
    outer loop
      vertex -2.100000e+01 -3.400000e+01 1.400000e+01
      vertex -2.350000e+01 -3.400000e+01 1.400000e+01
      vertex -2.100000e+01 -3.400000e+01 0.000000e+00
    endloop
  endfacet
  facet normal 1.000000e+00 0.000000e+00 0.000000e+00
    outer loop
      vertex -2.100000e+01 -3.400000e+01 1.400000e+01
      vertex -2.100000e+01 -3.400000e+01 0.000000e+00
      vertex -2.100000e+01 -3.324340e+01 0.000000e+00
    endloop
  endfacet
  facet normal 1.000000e+00 0.000000e+00 0.000000e+00
    outer loop
      vertex -2.100000e+01 -3.324340e+01 1.400000e+01
      vertex -2.100000e+01 -3.400000e+01 1.400000e+01
      vertex -2.100000e+01 -3.324340e+01 0.000000e+00
    endloop
  endfacet
  facet normal 5.000002e-01 -8.660253e-01 0.000000e+00
    outer loop
      vertex -2.100000e+01 -3.324340e+01 1.400000e+01
      vertex -2.100000e+01 -3.324340e+01 0.000000e+00
      vertex 1.072200e+00 -2.050000e+01 0.000000e+00
    endloop
  endfacet
  facet normal 5.000002e-01 -8.660253e-01 0.000000e+00
    outer loop
      vertex 1.072200e+00 -2.050000e+01 1.400000e+01
      vertex -2.100000e+01 -3.324340e+01 1.400000e+01
      vertex 1.072200e+00 -2.050000e+01 0.000000e+00
    endloop
  endfacet
  facet normal -2.220450e-16 -1.000000e+00 0.000000e+00
    outer loop
      vertex 1.072200e+00 -2.050000e+01 1.400000e+01
      vertex 1.072200e+00 -2.050000e+01 0.000000e+00
      vertex 1.400000e+01 -2.050000e+01 0.000000e+00
    endloop
  endfacet
  facet normal -2.220450e-16 -1.000000e+00 0.000000e+00
    outer loop
      vertex 1.400000e+01 -2.050000e+01 1.400000e+01
      vertex 1.072200e+00 -2.050000e+01 1.400000e+01
      vertex 1.400000e+01 -2.050000e+01 0.000000e+00
    endloop
  endfacet
  facet normal 0.000000e+00 -1.000000e+00 0.000000e+00
    outer loop
      vertex 1.400000e+01 -2.050000e+01 1.400000e+01
      vertex 1.400000e+01 -2.050000e+01 0.000000e+00
      vertex 1.650000e+01 -2.050000e+01 0.000000e+00
    endloop
  endfacet
  facet normal 0.000000e+00 -1.000000e+00 0.000000e+00
    outer loop
      vertex 1.650000e+01 -2.050000e+01 1.400000e+01
      vertex 1.400000e+01 -2.050000e+01 1.400000e+01
      vertex 1.650000e+01 -2.050000e+01 0.000000e+00
    endloop
  endfacet
  facet normal 1.000000e+00 0.000000e+00 0.000000e+00
    outer loop
      vertex 1.650000e+01 -2.050000e+01 1.400000e+01
      vertex 1.650000e+01 -2.050000e+01 0.000000e+00
      vertex 1.650000e+01 -1.300000e+01 0.000000e+00
    endloop
  endfacet
  facet normal 1.000000e+00 0.000000e+00 0.000000e+00
    outer loop
      vertex 1.650000e+01 -1.300000e+01 1.400000e+01
      vertex 1.650000e+01 -2.050000e+01 1.400000e+01
      vertex 1.650000e+01 -1.300000e+01 0.000000e+00
    endloop
  endfacet
  facet normal 0.000000e+00 1.000000e+00 0.000000e+00
    outer loop
      vertex 1.400000e+01 -1.300000e+01 0.000000e+00
      vertex 1.400000e+01 -1.300000e+01 1.400000e+01
      vertex 1.650000e+01 -1.300000e+01 0.000000e+00
    endloop
  endfacet
  facet normal 0.000000e+00 1.000000e+00 0.000000e+00
    outer loop
      vertex 1.650000e+01 -1.300000e+01 0.000000e+00
      vertex 1.400000e+01 -1.300000e+01 1.400000e+01
      vertex 1.650000e+01 -1.300000e+01 1.400000e+01
    endloop
  endfacet
  facet normal -1.000000e+00 0.000000e+00 0.000000e+00
    outer loop
      vertex 1.400000e+01 -1.800000e+01 0.000000e+00
      vertex 1.400000e+01 -1.800000e+01 1.400000e+01
      vertex 1.400000e+01 -1.300000e+01 0.000000e+00
    endloop
  endfacet
  facet normal -1.000000e+00 0.000000e+00 0.000000e+00
    outer loop
      vertex 1.400000e+01 -1.300000e+01 0.000000e+00
      vertex 1.400000e+01 -1.800000e+01 1.400000e+01
      vertex 1.400000e+01 -1.300000e+01 1.400000e+01
    endloop
  endfacet
  facet normal 2.220450e-16 1.000000e+00 0.000000e+00
    outer loop
      vertex -2.100000e+01 -1.800000e+01 0.000000e+00
      vertex -2.100000e+01 -1.800000e+01 1.400000e+01
      vertex 1.400000e+01 -1.800000e+01 0.000000e+00
    endloop
  endfacet
  facet normal 2.220450e-16 1.000000e+00 0.000000e+00
    outer loop
      vertex 1.400000e+01 -1.800000e+01 0.000000e+00
      vertex -2.100000e+01 -1.800000e+01 1.400000e+01
      vertex 1.400000e+01 -1.800000e+01 1.400000e+01
    endloop
  endfacet
  facet normal 1.000000e+00 0.000000e+00 0.000000e+00
    outer loop
      vertex -2.100000e+01 -1.800000e+01 1.400000e+01
      vertex -2.100000e+01 -1.800000e+01 0.000000e+00
      vertex -2.100000e+01 -9.000000e+00 0.000000e+00
    endloop
  endfacet
  facet normal 1.000000e+00 0.000000e+00 0.000000e+00
    outer loop
      vertex -2.100000e+01 -9.000000e+00 1.400000e+01
      vertex -2.100000e+01 -1.800000e+01 1.400000e+01
      vertex -2.100000e+01 -9.000000e+00 0.000000e+00
    endloop
  endfacet
  facet normal -2.220450e-16 -1.000000e+00 0.000000e+00
    outer loop
      vertex -2.100000e+01 -9.000000e+00 1.400000e+01
      vertex -2.100000e+01 -9.000000e+00 0.000000e+00
      vertex -1.850000e+01 -9.000000e+00 0.000000e+00
    endloop
  endfacet
  facet normal -2.220450e-16 -1.000000e+00 0.000000e+00
    outer loop
      vertex -1.850000e+01 -9.000000e+00 1.400000e+01
      vertex -2.100000e+01 -9.000000e+00 1.400000e+01
      vertex -1.850000e+01 -9.000000e+00 0.000000e+00
    endloop
  endfacet
  facet normal -1.000000e+00 0.000000e+00 0.000000e+00
    outer loop
      vertex -1.850000e+01 -1.150000e+01 0.000000e+00
      vertex -1.850000e+01 -1.150000e+01 1.400000e+01
      vertex -1.850000e+01 -9.000000e+00 0.000000e+00
    endloop
  endfacet
  facet normal -1.000000e+00 0.000000e+00 0.000000e+00
    outer loop
      vertex -1.850000e+01 -9.000000e+00 0.000000e+00
      vertex -1.850000e+01 -1.150000e+01 1.400000e+01
      vertex -1.850000e+01 -9.000000e+00 1.400000e+01
    endloop
  endfacet
  facet normal 0.000000e+00 -1.000000e+00 0.000000e+00
    outer loop
      vertex -1.850000e+01 -1.150000e+01 1.400000e+01
      vertex -1.850000e+01 -1.150000e+01 0.000000e+00
      vertex -1.600000e+01 -1.150000e+01 0.000000e+00
    endloop
  endfacet
  facet normal 0.000000e+00 -1.000000e+00 0.000000e+00
    outer loop
      vertex -1.600000e+01 -1.150000e+01 1.400000e+01
      vertex -1.850000e+01 -1.150000e+01 1.400000e+01
      vertex -1.600000e+01 -1.150000e+01 0.000000e+00
    endloop
  endfacet
  facet normal 1.000000e+00 0.000000e+00 0.000000e+00
    outer loop
      vertex -1.600000e+01 -1.150000e+01 1.400000e+01
      vertex -1.600000e+01 -1.150000e+01 0.000000e+00
      vertex -1.600000e+01 -9.000000e+00 0.000000e+00
    endloop
  endfacet
  facet normal 1.000000e+00 0.000000e+00 0.000000e+00
    outer loop
      vertex -1.600000e+01 -9.000000e+00 1.400000e+01
      vertex -1.600000e+01 -1.150000e+01 1.400000e+01
      vertex -1.600000e+01 -9.000000e+00 0.000000e+00
    endloop
  endfacet
  facet normal 1.000000e+00 -2.220450e-16 0.000000e+00
    outer loop
      vertex -1.600000e+01 -9.000000e+00 1.400000e+01
      vertex -1.600000e+01 -9.000000e+00 0.000000e+00
      vertex -1.600000e+01 -6.500000e+00 0.000000e+00
    endloop
  endfacet
  facet normal 1.000000e+00 -2.220450e-16 0.000000e+00
    outer loop
      vertex -1.600000e+01 -6.500000e+00 1.400000e+01
      vertex -1.600000e+01 -9.000000e+00 1.400000e+01
      vertex -1.600000e+01 -6.500000e+00 0.000000e+00
    endloop
  endfacet
  facet normal 0.000000e+00 1.000000e+00 0.000000e+00
    outer loop
      vertex -1.850000e+01 -6.500000e+00 0.000000e+00
      vertex -1.850000e+01 -6.500000e+00 1.400000e+01
      vertex -1.600000e+01 -6.500000e+00 0.000000e+00
    endloop
  endfacet
  facet normal 0.000000e+00 1.000000e+00 0.000000e+00
    outer loop
      vertex -1.600000e+01 -6.500000e+00 0.000000e+00
      vertex -1.850000e+01 -6.500000e+00 1.400000e+01
      vertex -1.600000e+01 -6.500000e+00 1.400000e+01
    endloop
  endfacet
  facet normal 2.220450e-16 1.000000e+00 0.000000e+00
    outer loop
      vertex -2.100000e+01 -6.500000e+00 0.000000e+00
      vertex -2.100000e+01 -6.500000e+00 1.400000e+01
      vertex -1.850000e+01 -6.500000e+00 0.000000e+00
    endloop
  endfacet
  facet normal 2.220450e-16 1.000000e+00 0.000000e+00
    outer loop
      vertex -1.850000e+01 -6.500000e+00 0.000000e+00
      vertex -2.100000e+01 -6.500000e+00 1.400000e+01
      vertex -1.850000e+01 -6.500000e+00 1.400000e+01
    endloop
  endfacet
  facet normal 1.000000e+00 0.000000e+00 0.000000e+00
    outer loop
      vertex -2.100000e+01 4.500000e+00 2.000000e+00
      vertex -2.100000e+01 -6.500000e+00 0.000000e+00
      vertex -2.100000e+01 1.600000e+01 0.000000e+00
    endloop
  endfacet
  facet normal 1.000000e+00 0.000000e+00 0.000000e+00
    outer loop
      vertex -2.100000e+01 -6.500000e+00 1.400000e+01
      vertex -2.100000e+01 -6.500000e+00 0.000000e+00
      vertex -2.100000e+01 5.908399e-01 3.882550e+00
    endloop
  endfacet
  facet normal 1.000000e+00 0.000000e+00 0.000000e+00
    outer loop
      vertex -2.100000e+01 -6.500000e+00 1.400000e+01
      vertex -2.100000e+01 5.908399e-01 3.882550e+00
      vertex -2.100000e+01 -3.746400e-01 8.112610e+00
    endloop
  endfacet
  facet normal 1.000000e+00 0.000000e+00 0.000000e+00
    outer loop
      vertex -2.100000e+01 1.600000e+01 1.400000e+01
      vertex -2.100000e+01 -6.500000e+00 1.400000e+01
      vertex -2.100000e+01 2.330580e+00 1.150480e+01
    endloop
  endfacet
  facet normal 1.000000e+00 0.000000e+00 0.000000e+00
    outer loop
      vertex -2.100000e+01 1.600000e+01 1.400000e+01
      vertex -2.100000e+01 6.669400e+00 1.150480e+01
      vertex -2.100000e+01 1.600000e+01 0.000000e+00
    endloop
  endfacet
  facet normal 1.000000e+00 0.000000e+00 0.000000e+00
    outer loop
      vertex -2.100000e+01 1.600000e+01 1.400000e+01
      vertex -2.100000e+01 2.330580e+00 1.150480e+01
      vertex -2.100000e+01 6.669400e+00 1.150480e+01
    endloop
  endfacet
  facet normal 1.000000e+00 0.000000e+00 0.000000e+00
    outer loop
      vertex -2.100000e+01 6.669400e+00 1.150480e+01
      vertex -2.100000e+01 9.374600e+00 8.112610e+00
      vertex -2.100000e+01 1.600000e+01 0.000000e+00
    endloop
  endfacet
  facet normal 1.000000e+00 0.000000e+00 0.000000e+00
    outer loop
      vertex -2.100000e+01 9.374600e+00 8.112610e+00
      vertex -2.100000e+01 8.409200e+00 3.882550e+00
      vertex -2.100000e+01 1.600000e+01 0.000000e+00
    endloop
  endfacet
  facet normal 1.000000e+00 0.000000e+00 0.000000e+00
    outer loop
      vertex -2.100000e+01 8.409200e+00 3.882550e+00
      vertex -2.100000e+01 4.500000e+00 2.000000e+00
      vertex -2.100000e+01 1.600000e+01 0.000000e+00
    endloop
  endfacet
  facet normal 1.000000e+00 0.000000e+00 0.000000e+00
    outer loop
      vertex -2.100000e+01 5.908399e-01 3.882550e+00
      vertex -2.100000e+01 -6.500000e+00 0.000000e+00
      vertex -2.100000e+01 4.500000e+00 2.000000e+00
    endloop
  endfacet
  facet normal 1.000000e+00 0.000000e+00 0.000000e+00
    outer loop
      vertex -2.100000e+01 -3.746400e-01 8.112610e+00
      vertex -2.100000e+01 2.330580e+00 1.150480e+01
      vertex -2.100000e+01 -6.500000e+00 1.400000e+01
    endloop
  endfacet
  facet normal 0.000000e+00 1.000000e+00 0.000000e+00
    outer loop
      vertex -2.350000e+01 1.600000e+01 0.000000e+00
      vertex -2.350000e+01 1.600000e+01 1.400000e+01
      vertex -2.100000e+01 1.600000e+01 0.000000e+00
    endloop
  endfacet
  facet normal 0.000000e+00 1.000000e+00 0.000000e+00
    outer loop
      vertex -2.100000e+01 1.600000e+01 0.000000e+00
      vertex -2.350000e+01 1.600000e+01 1.400000e+01
      vertex -2.100000e+01 1.600000e+01 1.400000e+01
    endloop
  endfacet
  facet normal -1.000000e+00 0.000000e+00 0.000000e+00
    outer loop
      vertex -2.350000e+01 8.409200e+00 3.882550e+00
      vertex -2.350000e+01 1.600000e+01 0.000000e+00
      vertex -2.350000e+01 4.500000e+00 2.000000e+00
    endloop
  endfacet
  facet normal -1.000000e+00 0.000000e+00 0.000000e+00
    outer loop
      vertex -2.350000e+01 6.669400e+00 1.150480e+01
      vertex -2.350000e+01 -3.150000e+01 1.400000e+01
      vertex -2.350000e+01 1.600000e+01 1.400000e+01
    endloop
  endfacet
  facet normal -1.000000e+00 0.000000e+00 0.000000e+00
    outer loop
      vertex -2.350000e+01 -3.150000e+01 0.000000e+00
      vertex -2.350000e+01 -3.150000e+01 1.400000e+01
      vertex -2.350000e+01 5.908399e-01 3.882550e+00
    endloop
  endfacet
  facet normal -1.000000e+00 0.000000e+00 0.000000e+00
    outer loop
      vertex -2.350000e+01 -3.150000e+01 0.000000e+00
      vertex -2.350000e+01 5.908399e-01 3.882550e+00
      vertex -2.350000e+01 4.500000e+00 2.000000e+00
    endloop
  endfacet
  facet normal -1.000000e+00 0.000000e+00 0.000000e+00
    outer loop
      vertex -2.350000e+01 -3.150000e+01 0.000000e+00
      vertex -2.350000e+01 4.500000e+00 2.000000e+00
      vertex -2.350000e+01 1.600000e+01 0.000000e+00
    endloop
  endfacet
  facet normal -1.000000e+00 0.000000e+00 0.000000e+00
    outer loop
      vertex -2.350000e+01 6.669400e+00 1.150480e+01
      vertex -2.350000e+01 1.600000e+01 1.400000e+01
      vertex -2.350000e+01 9.374600e+00 8.112610e+00
    endloop
  endfacet
  facet normal -1.000000e+00 0.000000e+00 0.000000e+00
    outer loop
      vertex -2.350000e+01 1.600000e+01 0.000000e+00
      vertex -2.350000e+01 8.409200e+00 3.882550e+00
      vertex -2.350000e+01 1.600000e+01 1.400000e+01
    endloop
  endfacet
  facet normal -1.000000e+00 0.000000e+00 0.000000e+00
    outer loop
      vertex -2.350000e+01 8.409200e+00 3.882550e+00
      vertex -2.350000e+01 9.374600e+00 8.112610e+00
      vertex -2.350000e+01 1.600000e+01 1.400000e+01
    endloop
  endfacet
  facet normal -1.000000e+00 0.000000e+00 0.000000e+00
    outer loop
      vertex -2.350000e+01 2.330580e+00 1.150480e+01
      vertex -2.350000e+01 -3.150000e+01 1.400000e+01
      vertex -2.350000e+01 6.669400e+00 1.150480e+01
    endloop
  endfacet
  facet normal -1.000000e+00 0.000000e+00 0.000000e+00
    outer loop
      vertex -2.350000e+01 -3.746400e-01 8.112610e+00
      vertex -2.350000e+01 -3.150000e+01 1.400000e+01
      vertex -2.350000e+01 2.330580e+00 1.150480e+01
    endloop
  endfacet
  facet normal -1.000000e+00 0.000000e+00 0.000000e+00
    outer loop
      vertex -2.350000e+01 5.908399e-01 3.882550e+00
      vertex -2.350000e+01 -3.150000e+01 1.400000e+01
      vertex -2.350000e+01 -3.746400e-01 8.112610e+00
    endloop
  endfacet
  facet normal 2.220450e-16 1.000000e+00 0.000000e+00
    outer loop
      vertex -2.850000e+01 -3.150000e+01 0.000000e+00
      vertex -2.850000e+01 -3.150000e+01 1.400000e+01
      vertex -2.350000e+01 -3.150000e+01 0.000000e+00
    endloop
  endfacet
  facet normal 2.220450e-16 1.000000e+00 0.000000e+00
    outer loop
      vertex -2.350000e+01 -3.150000e+01 0.000000e+00
      vertex -2.850000e+01 -3.150000e+01 1.400000e+01
      vertex -2.350000e+01 -3.150000e+01 1.400000e+01
    endloop
  endfacet
  facet normal 1.000000e+00 0.000000e+00 0.000000e+00
    outer loop
      vertex -2.100000e+01 -3.035660e+01 1.400000e+01
      vertex -2.100000e+01 -3.035660e+01 0.000000e+00
      vertex -2.100000e+01 -2.050000e+01 0.000000e+00
    endloop
  endfacet
  facet normal 1.000000e+00 0.000000e+00 0.000000e+00
    outer loop
      vertex -2.100000e+01 -2.050000e+01 1.400000e+01
      vertex -2.100000e+01 -3.035660e+01 1.400000e+01
      vertex -2.100000e+01 -2.050000e+01 0.000000e+00
    endloop
  endfacet
  facet normal -2.220450e-16 -1.000000e+00 0.000000e+00
    outer loop
      vertex -2.100000e+01 -2.050000e+01 1.400000e+01
      vertex -2.100000e+01 -2.050000e+01 0.000000e+00
      vertex -3.927830e+00 -2.050000e+01 0.000000e+00
    endloop
  endfacet
  facet normal -2.220450e-16 -1.000000e+00 0.000000e+00
    outer loop
      vertex -3.927830e+00 -2.050000e+01 1.400000e+01
      vertex -2.100000e+01 -2.050000e+01 1.400000e+01
      vertex -3.927830e+00 -2.050000e+01 0.000000e+00
    endloop
  endfacet
  facet normal -5.000002e-01 8.660253e-01 0.000000e+00
    outer loop
      vertex -2.100000e+01 -3.035660e+01 0.000000e+00
      vertex -2.100000e+01 -3.035660e+01 1.400000e+01
      vertex -3.927830e+00 -2.050000e+01 0.000000e+00
    endloop
  endfacet
  facet normal -5.000002e-01 8.660253e-01 0.000000e+00
    outer loop
      vertex -3.927830e+00 -2.050000e+01 0.000000e+00
      vertex -2.100000e+01 -3.035660e+01 1.400000e+01
      vertex -3.927830e+00 -2.050000e+01 1.400000e+01
    endloop
  endfacet
  facet normal -4.940959e-17 9.749279e-01 2.225210e-01
    outer loop
      vertex -2.100000e+01 5.908399e-01 3.882550e+00
      vertex -2.350000e+01 5.908399e-01 3.882550e+00
      vertex -2.100000e+01 -3.746400e-01 8.112610e+00
    endloop
  endfacet
  facet normal -4.940959e-17 9.749279e-01 2.225210e-01
    outer loop
      vertex -2.100000e+01 -3.746400e-01 8.112610e+00
      vertex -2.350000e+01 5.908399e-01 3.882550e+00
      vertex -2.350000e+01 -3.746400e-01 8.112610e+00
    endloop
  endfacet
  facet normal -2.000549e-16 4.338839e-01 9.009688e-01
    outer loop
      vertex -2.100000e+01 5.908399e-01 3.882550e+00
      vertex -2.100000e+01 4.500000e+00 2.000000e+00
      vertex -2.350000e+01 4.500000e+00 2.000000e+00
    endloop
  endfacet
  facet normal -2.000549e-16 4.338839e-01 9.009688e-01
    outer loop
      vertex -2.350000e+01 5.908399e-01 3.882550e+00
      vertex -2.100000e+01 5.908399e-01 3.882550e+00
      vertex -2.350000e+01 4.500000e+00 2.000000e+00
    endloop
  endfacet
  facet normal -2.000549e-16 -4.338839e-01 9.009688e-01
    outer loop
      vertex -2.100000e+01 4.500000e+00 2.000000e+00
      vertex -2.100000e+01 8.409200e+00 3.882550e+00
      vertex -2.350000e+01 8.409200e+00 3.882550e+00
    endloop
  endfacet
  facet normal -2.000549e-16 -4.338839e-01 9.009688e-01
    outer loop
      vertex -2.350000e+01 4.500000e+00 2.000000e+00
      vertex -2.100000e+01 4.500000e+00 2.000000e+00
      vertex -2.350000e+01 8.409200e+00 3.882550e+00
    endloop
  endfacet
  facet normal -4.940959e-17 -9.749279e-01 2.225210e-01
    outer loop
      vertex -2.100000e+01 8.409200e+00 3.882550e+00
      vertex -2.100000e+01 9.374600e+00 8.112610e+00
      vertex -2.350000e+01 9.374600e+00 8.112610e+00
    endloop
  endfacet
  facet normal -4.940959e-17 -9.749279e-01 2.225210e-01
    outer loop
      vertex -2.350000e+01 8.409200e+00 3.882550e+00
      vertex -2.100000e+01 8.409200e+00 3.882550e+00
      vertex -2.350000e+01 9.374600e+00 8.112610e+00
    endloop
  endfacet
  facet normal 1.384430e-16 -7.818312e-01 -6.234901e-01
    outer loop
      vertex -2.350000e+01 9.374600e+00 8.112610e+00
      vertex -2.100000e+01 9.374600e+00 8.112610e+00
      vertex -2.100000e+01 6.669400e+00 1.150480e+01
    endloop
  endfacet
  facet normal 1.384430e-16 -7.818312e-01 -6.234901e-01
    outer loop
      vertex -2.350000e+01 6.669400e+00 1.150480e+01
      vertex -2.350000e+01 9.374600e+00 8.112610e+00
      vertex -2.100000e+01 6.669400e+00 1.150480e+01
    endloop
  endfacet
  facet normal 2.220450e-16 0.000000e+00 -1.000000e+00
    outer loop
      vertex -2.100000e+01 6.669400e+00 1.150480e+01
      vertex -2.100000e+01 2.330580e+00 1.150480e+01
      vertex -2.350000e+01 6.669400e+00 1.150480e+01
    endloop
  endfacet
  facet normal 2.220450e-16 0.000000e+00 -1.000000e+00
    outer loop
      vertex -2.350000e+01 6.669400e+00 1.150480e+01
      vertex -2.100000e+01 2.330580e+00 1.150480e+01
      vertex -2.350000e+01 2.330580e+00 1.150480e+01
    endloop
  endfacet
  facet normal 1.384430e-16 7.818312e-01 -6.234901e-01
    outer loop
      vertex -2.100000e+01 2.330580e+00 1.150480e+01
      vertex -2.100000e+01 -3.746400e-01 8.112610e+00
      vertex -2.350000e+01 2.330580e+00 1.150480e+01
    endloop
  endfacet
  facet normal 1.384430e-16 7.818312e-01 -6.234901e-01
    outer loop
      vertex -2.350000e+01 2.330580e+00 1.150480e+01
      vertex -2.100000e+01 -3.746400e-01 8.112610e+00
      vertex -2.350000e+01 -3.746400e-01 8.112610e+00
    endloop
  endfacet
endsolid Default
