solid frag ver 2
facet normal -0.8660254037844587 -0.4999999999999656 9.31478989621446e-15
  outer loop
    vertex 15.225837983898709 218.3702617996166 3.0
    vertex 15.12593756139411 218.61144275451397 2.0
    vertex 15.22583798389874 218.37026179961651 2.0
  endloop
endfacet
facet normal -0.9659258262890618 -0.25881904510254483 5.6158452317838914e-15
  outer loop
    vertex 15.12593756139411 218.61144275451397 2.0
    vertex 15.225837983898709 218.3702617996166 3.0
    vertex 15.125937561394116 218.61144275451397 3.0
  endloop
endfacet
facet normal -0.8660254037844587 -0.4999999999999656 9.31478989621446e-15
  outer loop
    vertex 15.225837983898709 218.3702617996166 3.0
    vertex 15.384756606496632 218.16315501842993 2.0
    vertex 15.384756606496627 218.16315501842993 3.0
  endloop
endfacet
facet normal -0.7071067811866081 -0.7071067811864868 -3.8060661018189735e-15
  outer loop
    vertex 15.384756606496632 218.16315501842993 2.0
    vertex 15.225837983898709 218.3702617996166 3.0
    vertex 15.22583798389874 218.37026179961651 2.0
  endloop
endfacet
facet normal 0.9659258262890574 0.2588190451025613 4.725594984348272e-15
  outer loop
    vertex 17.05778921397225 219.12908084471903 2.0
    vertex 17.09186338768319 218.87026179961654 3.0
    vertex 17.09186338768318 218.8702617996165 2.0
  endloop
endfacet
facet normal 1.0 2.518279656509819e-14 -8.309313694654904e-15
  outer loop
    vertex 17.09186338768319 218.87026179961654 3.0
    vertex 17.05778921397225 219.12908084471903 2.0
    vertex 17.05778921397225 219.12908084471903 3.0
  endloop
endfacet
facet normal 0.2588190451025239 -0.9659258262890674 1.7843823036868676e-16
  outer loop
    vertex 16.3506824327857 217.90433597332742 3.0
    vertex 16.09186338768318 217.8702617996165 2.0
    vertex 16.3506824327857 217.90433597332742 2.0
  endloop
endfacet
facet normal -2.495110770781113e-16 -1.0 1.859042629441057e-16
  outer loop
    vertex 16.09186338768318 217.8702617996165 2.0
    vertex 16.3506824327857 217.90433597332742 3.0
    vertex 16.091863387683183 217.8702617996165 3.0
  endloop
endfacet
facet normal -0.500000000000024 0.8660254037844247 -1.7098174085038507e-14
  outer loop
    vertex 15.591863387683174 219.73628720340096 3.0
    vertex 15.83304434258066 219.83618762590558 2.0
    vertex 15.591863387683178 219.73628720340093 2.0
  endloop
endfacet
facet normal -0.2588190451024818 0.9659258262890787 -9.959697846261322e-15
  outer loop
    vertex 15.83304434258066 219.83618762590558 2.0
    vertex 15.591863387683174 219.73628720340096 3.0
    vertex 15.833044342580665 219.83618762590558 3.0
  endloop
endfacet
facet normal 0.8660254037844503 -0.4999999999999798 1.6146077978816512e-14
  outer loop
    vertex 16.957888791467617 218.37026179961651 2.0
    vertex 16.79897016886972 218.16315501842993 3.0
    vertex 16.798970168869726 218.16315501842993 2.0
  endloop
endfacet
facet normal 0.7071067811865831 -0.7071067811865119 1.1199988387687495e-14
  outer loop
    vertex 16.79897016886972 218.16315501842993 3.0
    vertex 16.957888791467617 218.37026179961651 2.0
    vertex 16.957888791467642 218.3702617996166 3.0
  endloop
endfacet
facet normal 0.4999999999999906 0.866025403784444 1.2084099486970453e-14
  outer loop
    vertex 16.59186338768318 219.73628720340093 3.0
    vertex 16.798970168869726 219.57736858080304 2.0
    vertex 16.59186338768318 219.73628720340093 2.0
  endloop
endfacet
facet normal 0.7071067811865265 0.7071067811865684 3.808750434165557e-15
  outer loop
    vertex 16.798970168869726 219.57736858080304 2.0
    vertex 16.59186338768318 219.73628720340093 3.0
    vertex 16.79897016886972 219.57736858080304 3.0
  endloop
endfacet
facet normal 4.3094127455348315e-14 1.0 1.1465628196532323e-14
  outer loop
    vertex 16.091863387683183 219.8702617996165 3.0
    vertex 16.3506824327857 219.83618762590558 2.0
    vertex 16.09186338768318 219.8702617996165 2.0
  endloop
endfacet
facet normal 0.2588190451025257 0.9659258262890669 2.1968682321468506e-14
  outer loop
    vertex 16.3506824327857 219.83618762590558 2.0
    vertex 16.091863387683183 219.8702617996165 3.0
    vertex 16.3506824327857 219.83618762590552 3.0
  endloop
endfacet
facet normal -0.2588190451024809 -0.9659258262890789 -9.959697846261247e-15
  outer loop
    vertex 15.833044342580665 217.90433597332742 3.0
    vertex 15.591863387683178 218.00423639583207 2.0
    vertex 15.83304434258066 217.90433597332742 2.0
  endloop
endfacet
facet normal -0.5000000000000155 -0.8660254037844296 -2.0563647149877178e-14
  outer loop
    vertex 15.591863387683178 218.00423639583207 2.0
    vertex 15.833044342580665 217.90433597332742 3.0
    vertex 15.591863387683174 218.004236395832 3.0
  endloop
endfacet
facet normal -0.866025403784416 0.5000000000000396 1.5079901484690752e-14
  outer loop
    vertex 15.225837983898789 219.37026179961657 3.0
    vertex 15.384756606496632 219.57736858080304 2.0
    vertex 15.22583798389874 219.37026179961651 2.0
  endloop
endfacet
facet normal -0.7071067811865556 0.7071067811865394 -8.097518155547294e-16
  outer loop
    vertex 15.384756606496632 219.57736858080304 2.0
    vertex 15.225837983898789 219.37026179961657 3.0
    vertex 15.38475660649665 219.57736858080304 3.0
  endloop
endfacet
facet normal 0.25881904510252757 0.9659258262890664 2.19686823214685e-14
  outer loop
    vertex 16.3506824327857 219.83618762590552 3.0
    vertex 16.59186338768318 219.73628720340093 2.0
    vertex 16.3506824327857 219.83618762590558 2.0
  endloop
endfacet
facet normal 0.49999999999999095 0.8660254037844438 1.2084099486970422e-14
  outer loop
    vertex 16.59186338768318 219.73628720340093 2.0
    vertex 16.3506824327857 219.83618762590552 3.0
    vertex 16.59186338768318 219.73628720340093 3.0
  endloop
endfacet
facet normal -0.2588190451024809 0.9659258262890789 -9.959697846261247e-15
  outer loop
    vertex 15.833044342580665 219.83618762590558 3.0
    vertex 16.09186338768318 219.8702617996165 2.0
    vertex 15.83304434258066 219.83618762590558 2.0
  endloop
endfacet
facet normal 4.260401641108773e-14 1.0 1.1465628196532281e-14
  outer loop
    vertex 16.09186338768318 219.8702617996165 2.0
    vertex 15.833044342580665 219.83618762590558 3.0
    vertex 16.091863387683183 219.8702617996165 3.0
  endloop
endfacet
facet normal 1.0 1.7679642032963454e-14 -8.309313694654887e-15
  outer loop
    vertex 17.09186338768318 218.8702617996165 2.0
    vertex 17.05778921397227 218.61144275451406 3.0
    vertex 17.05778921397225 218.61144275451397 2.0
  endloop
endfacet
facet normal 0.9659258262890658 -0.25881904510252957 2.243403335627139e-15
  outer loop
    vertex 17.05778921397227 218.61144275451406 3.0
    vertex 17.09186338768318 218.8702617996165 2.0
    vertex 17.09186338768319 218.87026179961654 3.0
  endloop
endfacet
facet normal 0.0 0.0 -1.0
  outer loop
    vertex 15.12593756139411 219.12908084471903 2.0
    vertex 15.12593756139411 218.61144275451397 2.0
    vertex 15.091863387683178 218.8702617996165 2.0
  endloop
endfacet
facet normal 0.0 0.0 -1.0
  outer loop
    vertex 15.12593756139411 218.61144275451397 2.0
    vertex 15.12593756139411 219.12908084471903 2.0
    vertex 15.22583798389874 219.37026179961651 2.0
  endloop
endfacet
facet normal 0.0 0.0 -1.0
  outer loop
    vertex 15.12593756139411 218.61144275451397 2.0
    vertex 15.22583798389874 219.37026179961651 2.0
    vertex 15.22583798389874 218.37026179961651 2.0
  endloop
endfacet
facet normal 0.0 0.0 -1.0
  outer loop
    vertex 15.22583798389874 218.37026179961651 2.0
    vertex 15.22583798389874 219.37026179961651 2.0
    vertex 15.384756606496632 219.57736858080304 2.0
  endloop
endfacet
facet normal 0.0 0.0 -1.0
  outer loop
    vertex 15.22583798389874 218.37026179961651 2.0
    vertex 15.384756606496632 219.57736858080304 2.0
    vertex 15.384756606496632 218.16315501842993 2.0
  endloop
endfacet
facet normal 0.0 0.0 -1.0
  outer loop
    vertex 15.384756606496632 218.16315501842993 2.0
    vertex 15.384756606496632 219.57736858080304 2.0
    vertex 15.591863387683178 219.73628720340093 2.0
  endloop
endfacet
facet normal 0.0 0.0 -1.0
  outer loop
    vertex 15.384756606496632 218.16315501842993 2.0
    vertex 15.591863387683178 219.73628720340093 2.0
    vertex 15.591863387683178 218.00423639583207 2.0
  endloop
endfacet
facet normal 0.0 0.0 -1.0
  outer loop
    vertex 15.591863387683178 218.00423639583207 2.0
    vertex 15.591863387683178 219.73628720340093 2.0
    vertex 15.83304434258066 219.83618762590558 2.0
  endloop
endfacet
facet normal 0.0 0.0 -1.0
  outer loop
    vertex 15.591863387683178 218.00423639583207 2.0
    vertex 15.83304434258066 219.83618762590558 2.0
    vertex 15.83304434258066 217.90433597332742 2.0
  endloop
endfacet
facet normal 0.0 0.0 -1.0
  outer loop
    vertex 15.83304434258066 217.90433597332742 2.0
    vertex 15.83304434258066 219.83618762590558 2.0
    vertex 16.09186338768318 219.8702617996165 2.0
  endloop
endfacet
facet normal 0.0 0.0 -1.0
  outer loop
    vertex 15.83304434258066 217.90433597332742 2.0
    vertex 16.09186338768318 219.8702617996165 2.0
    vertex 16.09186338768318 217.8702617996165 2.0
  endloop
endfacet
facet normal 0.0 0.0 -1.0
  outer loop
    vertex 16.09186338768318 217.8702617996165 2.0
    vertex 16.09186338768318 219.8702617996165 2.0
    vertex 16.3506824327857 219.83618762590558 2.0
  endloop
endfacet
facet normal 0.0 0.0 -1.0
  outer loop
    vertex 16.09186338768318 217.8702617996165 2.0
    vertex 16.3506824327857 219.83618762590558 2.0
    vertex 16.3506824327857 217.90433597332742 2.0
  endloop
endfacet
facet normal 0.0 0.0 -1.0
  outer loop
    vertex 16.3506824327857 217.90433597332742 2.0
    vertex 16.3506824327857 219.83618762590558 2.0
    vertex 16.59186338768318 219.73628720340093 2.0
  endloop
endfacet
facet normal 0.0 0.0 -1.0
  outer loop
    vertex 16.3506824327857 217.90433597332742 2.0
    vertex 16.59186338768318 219.73628720340093 2.0
    vertex 16.59186338768318 218.00423639583207 2.0
  endloop
endfacet
facet normal 0.0 0.0 -1.0
  outer loop
    vertex 16.59186338768318 218.00423639583207 2.0
    vertex 16.59186338768318 219.73628720340093 2.0
    vertex 16.798970168869726 219.57736858080304 2.0
  endloop
endfacet
facet normal 0.0 0.0 -1.0
  outer loop
    vertex 16.59186338768318 218.00423639583207 2.0
    vertex 16.798970168869726 219.57736858080304 2.0
    vertex 16.798970168869726 218.16315501842993 2.0
  endloop
endfacet
facet normal 0.0 0.0 -1.0
  outer loop
    vertex 16.798970168869726 218.16315501842993 2.0
    vertex 16.798970168869726 219.57736858080304 2.0
    vertex 16.957888791467617 219.37026179961651 2.0
  endloop
endfacet
facet normal 0.0 0.0 -1.0
  outer loop
    vertex 16.798970168869726 218.16315501842993 2.0
    vertex 16.957888791467617 219.37026179961651 2.0
    vertex 16.957888791467617 218.37026179961651 2.0
  endloop
endfacet
facet normal 0.0 0.0 -1.0
  outer loop
    vertex 16.957888791467617 218.37026179961651 2.0
    vertex 16.957888791467617 219.37026179961651 2.0
    vertex 17.05778921397225 219.12908084471903 2.0
  endloop
endfacet
facet normal 0.0 0.0 -1.0
  outer loop
    vertex 16.957888791467617 218.37026179961651 2.0
    vertex 17.05778921397225 219.12908084471903 2.0
    vertex 17.05778921397225 218.61144275451397 2.0
  endloop
endfacet
facet normal 0.0 0.0 -1.0
  outer loop
    vertex 17.05778921397225 218.61144275451397 2.0
    vertex 17.05778921397225 219.12908084471903 2.0
    vertex 17.09186338768318 218.8702617996165 2.0
  endloop
endfacet
facet normal -0.9659258262890609 0.2588190451025486 1.600531891793758e-14
  outer loop
    vertex 15.125937561394139 219.12908084471908 3.0
    vertex 15.22583798389874 219.37026179961651 2.0
    vertex 15.12593756139411 219.12908084471903 2.0
  endloop
endfacet
facet normal -0.866025403784421 0.5000000000000305 1.507990148469099e-14
  outer loop
    vertex 15.22583798389874 219.37026179961651 2.0
    vertex 15.125937561394139 219.12908084471908 3.0
    vertex 15.225837983898789 219.37026179961657 3.0
  endloop
endfacet
facet normal 0.7071067811865265 0.7071067811865684 3.808750434165557e-15
  outer loop
    vertex 16.798970168869726 219.57736858080304 2.0
    vertex 16.957888791467543 219.3702617996166 3.0
    vertex 16.957888791467617 219.37026179961651 2.0
  endloop
endfacet
facet normal 0.8660254037844071 0.5000000000000547 1.1537170477424428e-14
  outer loop
    vertex 16.957888791467543 219.3702617996166 3.0
    vertex 16.798970168869726 219.57736858080304 2.0
    vertex 16.79897016886972 219.57736858080304 3.0
  endloop
endfacet
facet normal -1.0 1.5763753405399387e-14 9.794792050009001e-15
  outer loop
    vertex 15.091863387683183 218.8702617996165 3.0
    vertex 15.12593756139411 218.61144275451397 2.0
    vertex 15.125937561394116 218.61144275451397 3.0
  endloop
endfacet
facet normal -0.9659258262890618 -0.25881904510254483 5.6158452317838914e-15
  outer loop
    vertex 15.12593756139411 218.61144275451397 2.0
    vertex 15.091863387683183 218.8702617996165 3.0
    vertex 15.091863387683178 218.8702617996165 2.0
  endloop
endfacet
facet normal 0.7071067811865831 -0.7071067811865119 1.1199988387687495e-14
  outer loop
    vertex 16.79897016886972 218.16315501842993 3.0
    vertex 16.59186338768318 218.00423639583207 2.0
    vertex 16.798970168869726 218.16315501842993 2.0
  endloop
endfacet
facet normal 0.5000000000000255 -0.8660254037844239 1.5735793294587903e-15
  outer loop
    vertex 16.59186338768318 218.00423639583207 2.0
    vertex 16.79897016886972 218.16315501842993 3.0
    vertex 16.59186338768318 218.00423639583207 3.0
  endloop
endfacet
facet normal 0.8660254037844166 0.500000000000038 1.1537170477425387e-14
  outer loop
    vertex 16.957888791467617 219.37026179961651 2.0
    vertex 17.05778921397225 219.12908084471903 3.0
    vertex 17.05778921397225 219.12908084471903 2.0
  endloop
endfacet
facet normal 0.9659258262890574 0.2588190451025613 4.725594984348272e-15
  outer loop
    vertex 17.05778921397225 219.12908084471903 3.0
    vertex 16.957888791467617 219.37026179961651 2.0
    vertex 16.957888791467543 219.3702617996166 3.0
  endloop
endfacet
facet normal 0.5000000000000251 -0.8660254037844242 1.5735793294587867e-15
  outer loop
    vertex 16.59186338768318 218.00423639583207 3.0
    vertex 16.3506824327857 217.90433597332742 2.0
    vertex 16.59186338768318 218.00423639583207 2.0
  endloop
endfacet
facet normal 0.2588190451025239 -0.9659258262890674 1.7843823036868676e-16
  outer loop
    vertex 16.3506824327857 217.90433597332742 2.0
    vertex 16.59186338768318 218.00423639583207 3.0
    vertex 16.3506824327857 217.90433597332742 3.0
  endloop
endfacet
facet normal 2.3168885728681757e-16 -1.0 1.8590426294410438e-16
  outer loop
    vertex 16.091863387683183 217.8702617996165 3.0
    vertex 15.83304434258066 217.90433597332742 2.0
    vertex 16.09186338768318 217.8702617996165 2.0
  endloop
endfacet
facet normal -0.2588190451024818 -0.9659258262890787 -9.959697846261322e-15
  outer loop
    vertex 15.83304434258066 217.90433597332742 2.0
    vertex 16.091863387683183 217.8702617996165 3.0
    vertex 15.833044342580665 217.90433597332742 3.0
  endloop
endfacet
facet normal -0.7071067811865542 0.7071067811865407 -8.097518155549224e-16
  outer loop
    vertex 15.38475660649665 219.57736858080304 3.0
    vertex 15.591863387683178 219.73628720340093 2.0
    vertex 15.384756606496632 219.57736858080304 2.0
  endloop
endfacet
facet normal -0.500000000000027 0.866025403784423 -1.709817408503842e-14
  outer loop
    vertex 15.591863387683178 219.73628720340093 2.0
    vertex 15.38475660649665 219.57736858080304 3.0
    vertex 15.591863387683174 219.73628720340096 3.0
  endloop
endfacet
facet normal 0.965925826289062 -0.25881904510254455 2.2434033356283426e-15
  outer loop
    vertex 17.05778921397225 218.61144275451397 2.0
    vertex 16.957888791467642 218.3702617996166 3.0
    vertex 16.957888791467617 218.37026179961651 2.0
  endloop
endfacet
facet normal 0.8660254037844578 -0.49999999999996664 1.6146077978816098e-14
  outer loop
    vertex 16.957888791467642 218.3702617996166 3.0
    vertex 17.05778921397225 218.61144275451397 2.0
    vertex 17.05778921397227 218.61144275451406 3.0
  endloop
endfacet
facet normal -0.5000000000000127 -0.8660254037844314 -2.0563647149877178e-14
  outer loop
    vertex 15.591863387683174 218.004236395832 3.0
    vertex 15.384756606496632 218.16315501842993 2.0
    vertex 15.591863387683178 218.00423639583207 2.0
  endloop
endfacet
facet normal -0.7071067811866081 -0.7071067811864868 -3.8060661018189735e-15
  outer loop
    vertex 15.384756606496632 218.16315501842993 2.0
    vertex 15.591863387683174 218.004236395832 3.0
    vertex 15.384756606496627 218.16315501842993 3.0
  endloop
endfacet
facet normal -0.9659258262890609 0.2588190451025486 1.600531891793758e-14
  outer loop
    vertex 15.125937561394139 219.12908084471908 3.0
    vertex 15.091863387683178 218.8702617996165 2.0
    vertex 15.091863387683183 218.8702617996165 3.0
  endloop
endfacet
facet normal -1.0 1.57637534053994e-14 9.794792050009001e-15
  outer loop
    vertex 15.091863387683178 218.8702617996165 2.0
    vertex 15.125937561394139 219.12908084471908 3.0
    vertex 15.12593756139411 219.12908084471903 2.0
  endloop
endfacet
facet normal -8.114500982340363e-33 1.2983201571744588e-32 1.0
  outer loop
    vertex -3.7042816576199216 195.96750987731588 3.0
    vertex -4.549470051716404 210.06442133322813 2.9999999999999996
    vertex -6.953384698463382 199.17901432662424 3.0
  endloop
endfacet
facet normal -8.114500982340363e-33 1.2983201571744588e-32 1.0
  outer loop
    vertex -4.549470051716404 210.06442133322813 2.9999999999999996
    vertex -3.7042816576199216 195.96750987731588 3.0
    vertex 5.4505299482836005 210.06442133322813 2.9999999999999996
  endloop
endfacet
facet normal -8.114500982340363e-33 1.2983201571744588e-32 1.0
  outer loop
    vertex 5.4505299482836005 210.06442133322813 2.9999999999999996
    vertex -3.7042816576199216 195.96750987731588 3.0
    vertex 0.2653093967176082 193.70636453495746 3.0
  endloop
endfacet
facet normal -8.114500982340363e-33 1.2983201571744588e-32 1.0
  outer loop
    vertex 5.4505299482836005 210.06442133322813 2.9999999999999996
    vertex 0.2653093967176082 193.70636453495746 3.0
    vertex 4.684867394255509 192.54967161791137 3.0
  endloop
endfacet
facet normal -8.114500982340363e-33 1.2983201571744588e-32 1.0
  outer loop
    vertex 5.4505299482836005 210.06442133322813 2.9999999999999996
    vertex 4.684867394255509 192.54967161791137 3.0
    vertex 6.663912859792321 198.91423638249395 3.0
  endloop
endfacet
facet normal -8.114500982340363e-33 1.2983201571744588e-32 1.0
  outer loop
    vertex 6.663912859792321 198.91423638249395 3.0
    vertex 4.684867394255509 192.54967161791137 3.0
    vertex 9.253206761126462 192.5762578369489 3.0
  endloop
endfacet
facet normal -8.114500982340363e-33 1.2983201571744588e-32 1.0
  outer loop
    vertex 5.4505299482836005 210.06442133322813 2.9999999999999996
    vertex 6.663912859792321 198.91423638249395 3.0
    vertex 5.6812320038978275 210.06442133322807 2.9999999999999996
  endloop
endfacet
facet normal -8.114500982340363e-33 1.2983201571744588e-32 1.0
  outer loop
    vertex 5.6812320038978275 210.06442133322807 2.9999999999999996
    vertex 6.663912859792321 198.91423638249395 3.0
    vertex 5.681232003897839 220.0644213332281 2.9999999999999996
  endloop
endfacet
facet normal -8.114500982340363e-33 1.2983201571744588e-32 1.0
  outer loop
    vertex 6.663912859792321 198.91423638249395 3.0
    vertex 9.253206761126462 192.5762578369489 3.0
    vertex 8.663912859792317 198.91423638249395 3.0
  endloop
endfacet
facet normal -8.114500982340363e-33 1.2983201571744588e-32 1.0
  outer loop
    vertex 8.663912859792317 198.91423638249395 3.0
    vertex 9.253206761126462 192.5762578369489 3.0
    vertex 8.663912859792317 206.9142363824939 3.0
  endloop
endfacet
facet normal -8.114500982340363e-33 1.2983201571744588e-32 1.0
  outer loop
    vertex 8.663912859792317 206.9142363824939 3.0
    vertex 9.253206761126462 192.5762578369489 3.0
    vertex 16.894614915406564 206.9142363824939 3.0
  endloop
endfacet
facet normal -8.114500982340363e-33 1.2983201571744588e-32 1.0
  outer loop
    vertex 16.894614915406564 206.9142363824939 3.0
    vertex 9.253206761126462 192.5762578369489 3.0
    vertex 13.659002719015989 193.78431138517843 3.0
  endloop
endfacet
facet normal -8.114500982340363e-33 1.2983201571744588e-32 1.0
  outer loop
    vertex 16.894614915406564 206.9142363824939 3.0
    vertex 13.659002719015989 193.78431138517843 3.0
    vertex 17.602007554316007 196.091505409691 3.0
  endloop
endfacet
facet normal -8.114500982340363e-33 1.2983201571744588e-32 1.0
  outer loop
    vertex 16.894614915406564 206.9142363824939 3.0
    vertex 17.602007554316007 196.091505409691 3.0
    vertex 16.894614915406564 208.9142363824939 3.0
  endloop
endfacet
facet normal -8.114500982340363e-33 1.2983201571744588e-32 1.0
  outer loop
    vertex 16.894614915406564 208.9142363824939 3.0
    vertex 17.602007554316007 196.091505409691 3.0
    vertex 16.957888791467642 218.3702617996166 3.0
  endloop
endfacet
facet normal -8.114500982340363e-33 1.2983201571744588e-32 1.0
  outer loop
    vertex 16.957888791467642 218.3702617996166 3.0
    vertex 17.602007554316007 196.091505409691 3.0
    vertex 17.05778921397227 218.61144275451406 3.0
  endloop
endfacet
facet normal -8.114500982340363e-33 1.2983201571744588e-32 1.0
  outer loop
    vertex 17.05778921397227 218.61144275451406 3.0
    vertex 17.602007554316007 196.091505409691 3.0
    vertex 17.09186338768319 218.87026179961654 3.0
  endloop
endfacet
facet normal -8.114500982340363e-33 1.2983201571744588e-32 1.0
  outer loop
    vertex 17.09186338768319 218.87026179961654 3.0
    vertex 17.602007554316007 196.091505409691 3.0
    vertex 17.440413430405787 223.85840211177873 3.0
  endloop
endfacet
facet normal -8.114500982340363e-33 1.2983201571744588e-32 1.0
  outer loop
    vertex 17.440413430405787 223.85840211177873 3.0
    vertex 17.602007554316007 196.091505409691 3.0
    vertex 20.68951647124925 220.64689766247037 3.0
  endloop
endfacet
facet normal -8.114500982340363e-33 1.2983201571744588e-32 1.0
  outer loop
    vertex 20.68951647124925 220.64689766247037 3.0
    vertex 17.602007554316007 196.091505409691 3.0
    vertex 20.81351200362437 199.34060845053443 3.0
  endloop
endfacet
facet normal -8.114500982340363e-33 1.2983201571744588e-32 1.0
  outer loop
    vertex 20.68951647124925 220.64689766247037 3.0
    vertex 20.81351200362437 199.34060845053443 3.0
    vertex 22.9967104957618 216.70389282717034 3.0
  endloop
endfacet
facet normal -8.114500982340363e-33 1.2983201571744588e-32 1.0
  outer loop
    vertex 22.9967104957618 216.70389282717034 3.0
    vertex 20.81351200362437 199.34060845053443 3.0
    vertex 23.07465734598277 203.31019950487195 3.0
  endloop
endfacet
facet normal -8.114500982340363e-33 1.2983201571744588e-32 1.0
  outer loop
    vertex 22.9967104957618 216.70389282717034 3.0
    vertex 23.07465734598277 203.31019950487195 3.0
    vertex 24.20476404399132 212.2980968692808 3.0
  endloop
endfacet
facet normal -8.114500982340363e-33 1.2983201571744588e-32 1.0
  outer loop
    vertex 24.20476404399132 212.2980968692808 3.0
    vertex 23.07465734598277 203.31019950487195 3.0
    vertex 24.23135026302885 207.72975750240985 3.0
  endloop
endfacet
facet normal -8.114500982340363e-33 1.2983201571744588e-32 1.0
  outer loop
    vertex 13.470822376068257 226.11954745413715 3.0
    vertex 15.225837983898789 219.37026179961657 3.0
    vertex 17.440413430405787 223.85840211177873 3.0
  endloop
endfacet
facet normal -8.114500982340363e-33 1.2983201571744588e-32 1.0
  outer loop
    vertex 15.225837983898789 219.37026179961657 3.0
    vertex 13.470822376068257 226.11954745413715 3.0
    vertex 15.125937561394139 219.12908084471908 3.0
  endloop
endfacet
facet normal -8.114500982340363e-33 1.2983201571744588e-32 1.0
  outer loop
    vertex 15.125937561394139 219.12908084471908 3.0
    vertex 13.470822376068257 226.11954745413715 3.0
    vertex 15.091863387683183 218.8702617996165 3.0
  endloop
endfacet
facet normal -8.114500982340363e-33 1.2983201571744588e-32 1.0
  outer loop
    vertex 17.440413430405787 223.85840211177873 3.0
    vertex 15.225837983898789 219.37026179961657 3.0
    vertex 15.38475660649665 219.57736858080304 3.0
  endloop
endfacet
facet normal -8.114500982340363e-33 1.2983201571744588e-32 1.0
  outer loop
    vertex 17.440413430405787 223.85840211177873 3.0
    vertex 15.38475660649665 219.57736858080304 3.0
    vertex 15.591863387683174 219.73628720340096 3.0
  endloop
endfacet
facet normal -8.114500982340363e-33 1.2983201571744588e-32 1.0
  outer loop
    vertex 17.440413430405787 223.85840211177873 3.0
    vertex 15.591863387683174 219.73628720340096 3.0
    vertex 15.833044342580665 219.83618762590558 3.0
  endloop
endfacet
facet normal -8.114500982340363e-33 1.2983201571744588e-32 1.0
  outer loop
    vertex 17.440413430405787 223.85840211177873 3.0
    vertex 15.833044342580665 219.83618762590558 3.0
    vertex 16.091863387683183 219.8702617996165 3.0
  endloop
endfacet
facet normal -8.114500982340363e-33 1.2983201571744588e-32 1.0
  outer loop
    vertex 17.440413430405787 223.85840211177873 3.0
    vertex 16.091863387683183 219.8702617996165 3.0
    vertex 16.3506824327857 219.83618762590552 3.0
  endloop
endfacet
facet normal -8.114500982340363e-33 1.2983201571744588e-32 1.0
  outer loop
    vertex 17.440413430405787 223.85840211177873 3.0
    vertex 16.3506824327857 219.83618762590552 3.0
    vertex 16.59186338768318 219.73628720340093 3.0
  endloop
endfacet
facet normal -8.114500982340363e-33 1.2983201571744588e-32 1.0
  outer loop
    vertex 17.440413430405787 223.85840211177873 3.0
    vertex 16.59186338768318 219.73628720340093 3.0
    vertex 16.79897016886972 219.57736858080304 3.0
  endloop
endfacet
facet normal -8.114500982340363e-33 1.2983201571744588e-32 1.0
  outer loop
    vertex 17.440413430405787 223.85840211177873 3.0
    vertex 16.79897016886972 219.57736858080304 3.0
    vertex 16.957888791467543 219.3702617996166 3.0
  endloop
endfacet
facet normal -8.114500982340363e-33 1.2983201571744588e-32 1.0
  outer loop
    vertex 17.440413430405787 223.85840211177873 3.0
    vertex 16.957888791467543 219.3702617996166 3.0
    vertex 17.05778921397225 219.12908084471903 3.0
  endloop
endfacet
facet normal -8.114500982340363e-33 1.2983201571744588e-32 1.0
  outer loop
    vertex 17.440413430405787 223.85840211177873 3.0
    vertex 17.05778921397225 219.12908084471903 3.0
    vertex 17.09186338768319 218.87026179961654 3.0
  endloop
endfacet
facet normal -8.114500982340363e-33 1.2983201571744588e-32 1.0
  outer loop
    vertex -10.468632271205456 207.52781511981377 3.0
    vertex -9.33852557319691 216.51571248422263 3.0
    vertex -10.49521849024298 212.09615448668475 3.0
  endloop
endfacet
facet normal -8.114500982340363e-33 1.2983201571744588e-32 1.0
  outer loop
    vertex -9.33852557319691 216.51571248422263 3.0
    vertex -10.468632271205456 207.52781511981377 3.0
    vertex -9.260578722975934 203.12201916192424 3.0
  endloop
endfacet
facet normal -8.114500982340363e-33 1.2983201571744588e-32 1.0
  outer loop
    vertex -9.33852557319691 216.51571248422263 3.0
    vertex -9.260578722975934 203.12201916192424 3.0
    vertex -7.077380230838504 220.48530353856015 3.0
  endloop
endfacet
facet normal -8.114500982340363e-33 1.2983201571744588e-32 1.0
  outer loop
    vertex -7.077380230838504 220.48530353856015 3.0
    vertex -9.260578722975934 203.12201916192424 3.0
    vertex -6.953384698463382 199.17901432662424 3.0
  endloop
endfacet
facet normal -8.114500982340363e-33 1.2983201571744588e-32 1.0
  outer loop
    vertex -7.077380230838504 220.48530353856015 3.0
    vertex -6.953384698463382 199.17901432662424 3.0
    vertex -3.865875781530137 223.7344065794036 3.0
  endloop
endfacet
facet normal -8.114500982340363e-33 1.2983201571744588e-32 1.0
  outer loop
    vertex -3.865875781530137 223.7344065794036 3.0
    vertex -6.953384698463382 199.17901432662424 3.0
    vertex -4.549470051716404 212.06442133322813 2.9999999999999996
  endloop
endfacet
facet normal -8.114500982340363e-33 1.2983201571744588e-32 1.0
  outer loop
    vertex -4.549470051716404 212.06442133322813 2.9999999999999996
    vertex -6.953384698463382 199.17901432662424 3.0
    vertex -4.549470051716404 210.06442133322813 2.9999999999999996
  endloop
endfacet
facet normal -8.114500982340363e-33 1.2983201571744588e-32 1.0
  outer loop
    vertex -3.865875781530137 223.7344065794036 3.0
    vertex -4.549470051716404 212.06442133322813 2.9999999999999996
    vertex 3.6812320038978426 212.06442133322813 2.9999999999999996
  endloop
endfacet
facet normal -8.114500982340363e-33 1.2983201571744588e-32 1.0
  outer loop
    vertex -3.865875781530137 223.7344065794036 3.0
    vertex 3.6812320038978426 212.06442133322813 2.9999999999999996
    vertex 0.07712905376987331 226.04160060391615 3.0
  endloop
endfacet
facet normal -8.114500982340363e-33 1.2983201571744588e-32 1.0
  outer loop
    vertex 0.07712905376987331 226.04160060391615 3.0
    vertex 3.6812320038978426 212.06442133322813 2.9999999999999996
    vertex 3.6812320038978426 220.06442133322804 2.9999999999999996
  endloop
endfacet
facet normal -8.114500982340363e-33 1.2983201571744588e-32 1.0
  outer loop
    vertex 0.07712905376987331 226.04160060391615 3.0
    vertex 3.6812320038978426 220.06442133322804 2.9999999999999996
    vertex 4.482925011659403 227.24965415214567 3.0
  endloop
endfacet
facet normal -8.114500982340363e-33 1.2983201571744588e-32 1.0
  outer loop
    vertex 4.482925011659403 227.24965415214567 3.0
    vertex 3.6812320038978426 220.06442133322804 2.9999999999999996
    vertex 5.681232003897839 220.0644213332281 2.9999999999999996
  endloop
endfacet
facet normal -8.114500982340363e-33 1.2983201571744588e-32 1.0
  outer loop
    vertex 4.482925011659403 227.24965415214567 3.0
    vertex 5.681232003897839 220.0644213332281 2.9999999999999996
    vertex 9.051264378530362 227.2762403711832 3.0
  endloop
endfacet
facet normal -8.114500982340363e-33 1.2983201571744588e-32 1.0
  outer loop
    vertex 9.051264378530362 227.2762403711832 3.0
    vertex 5.681232003897839 220.0644213332281 2.9999999999999996
    vertex 6.663912859792331 208.91423638249395 3.0
  endloop
endfacet
facet normal -8.114500982340363e-33 1.2983201571744588e-32 1.0
  outer loop
    vertex 6.663912859792331 208.91423638249395 3.0
    vertex 5.681232003897839 220.0644213332281 2.9999999999999996
    vertex 6.663912859792321 198.91423638249395 3.0
  endloop
endfacet
facet normal -8.114500982340363e-33 1.2983201571744588e-32 1.0
  outer loop
    vertex 9.051264378530362 227.2762403711832 3.0
    vertex 6.663912859792331 208.91423638249395 3.0
    vertex 6.894614915406559 208.9142363824939 3.0
  endloop
endfacet
facet normal -8.114500982340363e-33 1.2983201571744588e-32 1.0
  outer loop
    vertex 9.051264378530362 227.2762403711832 3.0
    vertex 6.894614915406559 208.9142363824939 3.0
    vertex 8.663912859792317 208.9142363824939 3.0
  endloop
endfacet
facet normal -8.114500982340363e-33 1.2983201571744588e-32 1.0
  outer loop
    vertex 9.051264378530362 227.2762403711832 3.0
    vertex 8.663912859792317 208.9142363824939 3.0
    vertex 16.894614915406564 208.9142363824939 3.0
  endloop
endfacet
facet normal -8.114500982340363e-33 1.2983201571744588e-32 1.0
  outer loop
    vertex 9.051264378530362 227.2762403711832 3.0
    vertex 16.894614915406564 208.9142363824939 3.0
    vertex 13.470822376068257 226.11954745413715 3.0
  endloop
endfacet
facet normal -8.114500982340363e-33 1.2983201571744588e-32 1.0
  outer loop
    vertex 13.470822376068257 226.11954745413715 3.0
    vertex 16.894614915406564 208.9142363824939 3.0
    vertex 15.125937561394116 218.61144275451397 3.0
  endloop
endfacet
facet normal -8.114500982340363e-33 1.2983201571744588e-32 1.0
  outer loop
    vertex 13.470822376068257 226.11954745413715 3.0
    vertex 15.125937561394116 218.61144275451397 3.0
    vertex 15.091863387683183 218.8702617996165 3.0
  endloop
endfacet
facet normal -8.114500982340363e-33 1.2983201571744588e-32 1.0
  outer loop
    vertex 15.125937561394116 218.61144275451397 3.0
    vertex 16.894614915406564 208.9142363824939 3.0
    vertex 15.225837983898709 218.3702617996166 3.0
  endloop
endfacet
facet normal -8.114500982340363e-33 1.2983201571744588e-32 1.0
  outer loop
    vertex 15.225837983898709 218.3702617996166 3.0
    vertex 16.894614915406564 208.9142363824939 3.0
    vertex 15.384756606496627 218.16315501842993 3.0
  endloop
endfacet
facet normal -8.114500982340363e-33 1.2983201571744588e-32 1.0
  outer loop
    vertex 15.384756606496627 218.16315501842993 3.0
    vertex 16.894614915406564 208.9142363824939 3.0
    vertex 15.591863387683174 218.004236395832 3.0
  endloop
endfacet
facet normal -8.114500982340363e-33 1.2983201571744588e-32 1.0
  outer loop
    vertex 15.591863387683174 218.004236395832 3.0
    vertex 16.894614915406564 208.9142363824939 3.0
    vertex 15.833044342580665 217.90433597332742 3.0
  endloop
endfacet
facet normal -8.114500982340363e-33 1.2983201571744588e-32 1.0
  outer loop
    vertex 15.833044342580665 217.90433597332742 3.0
    vertex 16.894614915406564 208.9142363824939 3.0
    vertex 16.091863387683183 217.8702617996165 3.0
  endloop
endfacet
facet normal -8.114500982340363e-33 1.2983201571744588e-32 1.0
  outer loop
    vertex 16.091863387683183 217.8702617996165 3.0
    vertex 16.894614915406564 208.9142363824939 3.0
    vertex 16.3506824327857 217.90433597332742 3.0
  endloop
endfacet
facet normal -8.114500982340363e-33 1.2983201571744588e-32 1.0
  outer loop
    vertex 16.3506824327857 217.90433597332742 3.0
    vertex 16.894614915406564 208.9142363824939 3.0
    vertex 16.59186338768318 218.00423639583207 3.0
  endloop
endfacet
facet normal -8.114500982340363e-33 1.2983201571744588e-32 1.0
  outer loop
    vertex 16.59186338768318 218.00423639583207 3.0
    vertex 16.894614915406564 208.9142363824939 3.0
    vertex 16.79897016886972 218.16315501842993 3.0
  endloop
endfacet
facet normal -8.114500982340363e-33 1.2983201571744588e-32 1.0
  outer loop
    vertex 16.79897016886972 218.16315501842993 3.0
    vertex 16.894614915406564 208.9142363824939 3.0
    vertex 16.957888791467642 218.3702617996166 3.0
  endloop
endfacet
facet normal -1.0 0.0 0.0
  outer loop
    vertex 3.6812320038978426 220.06442133322804 13.999999999999996
    vertex 3.6812320038978426 212.06442133322813 2.9999999999999996
    vertex 3.6812320038978426 212.06442133322813 13.999999999999996
  endloop
endfacet
facet normal -1.0 0.0 0.0
  outer loop
    vertex 3.6812320038978426 212.06442133322813 2.9999999999999996
    vertex 3.6812320038978426 220.06442133322804 13.999999999999996
    vertex 3.6812320038978426 220.06442133322804 2.9999999999999996
  endloop
endfacet
facet normal 0.0 0.0 1.0
  outer loop
    vertex 5.6812320038978275 210.06442133322807 13.999999999999996
    vertex -4.549470051716404 212.06442133322813 13.999999999999996
    vertex -4.549470051716404 210.06442133322813 13.999999999999996
  endloop
endfacet
facet normal 0.0 0.0 1.0
  outer loop
    vertex -4.549470051716404 212.06442133322813 13.999999999999996
    vertex 5.6812320038978275 210.06442133322807 13.999999999999996
    vertex 3.6812320038978426 212.06442133322813 13.999999999999996
  endloop
endfacet
facet normal 0.0 0.0 1.0
  outer loop
    vertex 3.6812320038978426 212.06442133322813 13.999999999999996
    vertex 5.6812320038978275 210.06442133322807 13.999999999999996
    vertex 3.6812320038978426 220.06442133322804 13.999999999999996
  endloop
endfacet
facet normal 0.0 0.0 1.0
  outer loop
    vertex 3.6812320038978426 220.06442133322804 13.999999999999996
    vertex 5.6812320038978275 210.06442133322807 13.999999999999996
    vertex 5.681232003897839 220.0644213332281 13.999999999999996
  endloop
endfacet
facet normal -0.0 1.0 -0.0
  outer loop
    vertex -4.549470051716404 212.06442133322813 13.999999999999996
    vertex 3.6812320038978426 212.06442133322813 2.9999999999999996
    vertex -4.549470051716404 212.06442133322813 2.9999999999999996
  endloop
endfacet
facet normal -0.0 1.0 -0.0
  outer loop
    vertex 3.6812320038978426 212.06442133322813 2.9999999999999996
    vertex -4.549470051716404 212.06442133322813 13.999999999999996
    vertex 3.6812320038978426 212.06442133322813 13.999999999999996
  endloop
endfacet
facet normal -2.2559731860383224e-14 1.0 -0.0
  outer loop
    vertex 3.6812320038978426 220.06442133322804 13.999999999999996
    vertex 5.681232003897839 220.0644213332281 2.9999999999999996
    vertex 3.6812320038978426 220.06442133322804 2.9999999999999996
  endloop
endfacet
facet normal -2.2559731860383224e-14 1.0 -0.0
  outer loop
    vertex 5.681232003897839 220.0644213332281 2.9999999999999996
    vertex 3.6812320038978426 220.06442133322804 13.999999999999996
    vertex 5.681232003897839 220.0644213332281 13.999999999999996
  endloop
endfacet
facet normal 1.0 -0.0 -0.0
  outer loop
    vertex 8.663912859792317 206.9142363824939 3.0
    vertex 8.663912859792317 198.91423638249395 13.999999999999996
    vertex 8.663912859792317 198.91423638249395 3.0
  endloop
endfacet
facet normal 1.0 -0.0 -0.0
  outer loop
    vertex 8.663912859792317 198.91423638249395 13.999999999999996
    vertex 8.663912859792317 206.9142363824939 3.0
    vertex 8.663912859792317 206.9142363824939 13.999999999999996
  endloop
endfacet
facet normal 1.1279865930191612e-14 -1.0 0.0
  outer loop
    vertex 8.663912859792317 198.91423638249395 13.999999999999996
    vertex 6.663912859792321 198.91423638249395 3.0
    vertex 8.663912859792317 198.91423638249395 3.0
  endloop
endfacet
facet normal 1.1279865930191612e-14 -1.0 0.0
  outer loop
    vertex 6.663912859792321 198.91423638249395 3.0
    vertex 8.663912859792317 198.91423638249395 13.999999999999996
    vertex 6.663912859792321 198.91423638249395 13.999999999999996
  endloop
endfacet
facet normal 0.7968826352703681 -0.6041341453721629 0.0
  outer loop
    vertex 20.81351200362437 199.34060845053443 0.0
    vertex 17.602007554316007 196.091505409691 3.0
    vertex 17.602007554316007 196.091505409691 0.0
  endloop
endfacet
facet normal 0.6133680953098897 -0.7897971762775037 0.0
  outer loop
    vertex 17.602007554316007 196.091505409691 3.0
    vertex 20.81351200362437 199.34060845053443 0.0
    vertex 20.81351200362437 199.34060845053443 3.0
  endloop
endfacet
facet normal 1.0 -1.127986593019156e-15 2.9652850746374532e-46
  outer loop
    vertex 5.681232003897839 220.0644213332281 2.9999999999999996
    vertex 5.6812320038978275 210.06442133322807 13.999999999999996
    vertex 5.6812320038978275 210.06442133322807 2.9999999999999996
  endloop
endfacet
facet normal 1.0 -1.127986593019156e-15 2.9652850746374532e-46
  outer loop
    vertex 5.6812320038978275 210.06442133322807 13.999999999999996
    vertex 5.681232003897839 220.0644213332281 2.9999999999999996
    vertex 5.681232003897839 220.0644213332281 13.999999999999996
  endloop
endfacet
facet normal 0.6133680953098897 -0.7897971762775037 0.0
  outer loop
    vertex 17.602007554316007 196.091505409691 3.0
    vertex 13.659002719015989 193.78431138517843 0.0
    vertex 17.602007554316007 196.091505409691 0.0
  endloop
endfacet
facet normal 0.38805353329274644 -0.9216368348210783 0.0
  outer loop
    vertex 13.659002719015989 193.78431138517843 0.0
    vertex 17.602007554316007 196.091505409691 3.0
    vertex 13.659002719015989 193.78431138517843 3.0
  endloop
endfacet
facet normal -0.9260909405479911 0.37730037083858947 0.0
  outer loop
    vertex -9.33852557319691 216.51571248422263 3.0
    vertex -10.49521849024298 212.09615448668475 0.0
    vertex -10.49521849024298 212.09615448668475 3.0
  endloop
endfacet
facet normal -0.9921876786649095 0.12475419955071021 0.0
  outer loop
    vertex -10.49521849024298 212.09615448668475 0.0
    vertex -9.33852557319691 216.51571248422263 3.0
    vertex -9.33852557319691 216.51571248422263 0.0
  endloop
endfacet
facet normal -0.13629376427048792 0.9906684661484794 0.0
  outer loop
    vertex 4.482925011659403 227.24965415214567 3.0
    vertex 9.051264378530362 227.2762403711832 0.0
    vertex 4.482925011659403 227.24965415214567 0.0
  endloop
endfacet
facet normal 0.12475419955070989 0.9921876786649095 0.0
  outer loop
    vertex 9.051264378530362 227.2762403711832 0.0
    vertex 4.482925011659403 227.24965415214567 3.0
    vertex 9.051264378530362 227.2762403711832 3.0
  endloop
endfacet
facet normal 0.6041341453721633 0.7968826352703677 0.0
  outer loop
    vertex 17.440413430405787 223.85840211177873 3.0
    vertex 20.68951647124925 220.64689766247037 0.0
    vertex 17.440413430405787 223.85840211177873 0.0
  endloop
endfacet
facet normal 0.7897971762775036 0.6133680953098898 0.0
  outer loop
    vertex 20.68951647124925 220.64689766247037 0.0
    vertex 17.440413430405787 223.85840211177873 3.0
    vertex 20.68951647124925 220.64689766247037 3.0
  endloop
endfacet
facet normal 0.7897971762775036 0.6133680953098898 0.0
  outer loop
    vertex 20.68951647124925 220.64689766247037 0.0
    vertex 22.9967104957618 216.70389282717034 3.0
    vertex 22.9967104957618 216.70389282717034 0.0
  endloop
endfacet
facet normal 0.9216368348210782 0.38805353329274633 0.0
  outer loop
    vertex 22.9967104957618 216.70389282717034 3.0
    vertex 20.68951647124925 220.64689766247037 0.0
    vertex 20.68951647124925 220.64689766247037 3.0
  endloop
endfacet
facet normal 0.1362937642704874 -0.9906684661484794 0.0
  outer loop
    vertex 9.253206761126462 192.5762578369489 3.0
    vertex 4.684867394255509 192.54967161791137 0.0
    vertex 9.253206761126462 192.5762578369489 0.0
  endloop
endfacet
facet normal -0.12475419955071067 -0.9921876786649093 0.0
  outer loop
    vertex 4.684867394255509 192.54967161791137 0.0
    vertex 9.253206761126462 192.5762578369489 3.0
    vertex 4.684867394255509 192.54967161791137 3.0
  endloop
endfacet
facet normal -0.12475419955071067 -0.9921876786649093 0.0
  outer loop
    vertex 4.684867394255509 192.54967161791137 3.0
    vertex 0.2653093967176082 193.70636453495746 0.0
    vertex 4.684867394255509 192.54967161791137 0.0
  endloop
endfacet
facet normal -0.3773003708385902 -0.9260909405479908 0.0
  outer loop
    vertex 0.2653093967176082 193.70636453495746 0.0
    vertex 4.684867394255509 192.54967161791137 3.0
    vertex 0.2653093967176082 193.70636453495746 3.0
  endloop
endfacet
facet normal 0.0 0.0 1.0
  outer loop
    vertex 8.663912859792317 198.91423638249395 13.999999999999996
    vertex 6.663912859792331 208.91423638249395 13.999999999999996
    vertex 6.663912859792321 198.91423638249395 13.999999999999996
  endloop
endfacet
facet normal 0.0 0.0 1.0
  outer loop
    vertex 6.663912859792331 208.91423638249395 13.999999999999996
    vertex 8.663912859792317 198.91423638249395 13.999999999999996
    vertex 8.663912859792317 206.9142363824939 13.999999999999996
  endloop
endfacet
facet normal 0.0 0.0 1.0
  outer loop
    vertex 6.663912859792331 208.91423638249395 13.999999999999996
    vertex 8.663912859792317 206.9142363824939 13.999999999999996
    vertex 16.894614915406564 208.9142363824939 13.999999999999996
  endloop
endfacet
facet normal 0.0 0.0 1.0
  outer loop
    vertex 16.894614915406564 208.9142363824939 13.999999999999996
    vertex 8.663912859792317 206.9142363824939 13.999999999999996
    vertex 16.894614915406564 206.9142363824939 13.999999999999996
  endloop
endfacet
facet normal -0.7968826352703681 0.604134145372163 0.0
  outer loop
    vertex -7.077380230838504 220.48530353856015 3.0
    vertex -9.33852557319691 216.51571248422263 0.0
    vertex -9.33852557319691 216.51571248422263 3.0
  endloop
endfacet
facet normal -0.9260909405479911 0.37730037083858947 0.0
  outer loop
    vertex -9.33852557319691 216.51571248422263 0.0
    vertex -7.077380230838504 220.48530353856015 3.0
    vertex -7.077380230838504 220.48530353856015 0.0
  endloop
endfacet
facet normal -0.9216368348210783 -0.3880535332927462 0.0
  outer loop
    vertex -9.260578722975934 203.12201916192424 3.0
    vertex -6.953384698463382 199.17901432662424 0.0
    vertex -6.953384698463382 199.17901432662424 3.0
  endloop
endfacet
facet normal -0.7897971762775038 -0.6133680953098893 0.0
  outer loop
    vertex -6.953384698463382 199.17901432662424 0.0
    vertex -9.260578722975934 203.12201916192424 3.0
    vertex -9.260578722975934 203.12201916192424 0.0
  endloop
endfacet
facet normal 1.0 -0.0 -0.0
  outer loop
    vertex 16.894614915406564 208.9142363824939 3.0
    vertex 16.894614915406564 206.9142363824939 13.999999999999996
    vertex 16.894614915406564 206.9142363824939 3.0
  endloop
endfacet
facet normal 1.0 -0.0 -0.0
  outer loop
    vertex 16.894614915406564 206.9142363824939 13.999999999999996
    vertex 16.894614915406564 208.9142363824939 3.0
    vertex 16.894614915406564 208.9142363824939 13.999999999999996
  endloop
endfacet
facet normal -0.9921876786649095 0.12475419955071021 0.0
  outer loop
    vertex -10.49521849024298 212.09615448668475 3.0
    vertex -10.468632271205456 207.52781511981377 0.0
    vertex -10.468632271205456 207.52781511981377 3.0
  endloop
endfacet
facet normal -0.9906684661484795 -0.13629376427048745 0.0
  outer loop
    vertex -10.468632271205456 207.52781511981377 0.0
    vertex -10.49521849024298 212.09615448668475 3.0
    vertex -10.49521849024298 212.09615448668475 0.0
  endloop
endfacet
facet normal -0.6133680953098897 0.7897971762775037 0.0
  outer loop
    vertex -3.865875781530137 223.7344065794036 3.0
    vertex -7.077380230838504 220.48530353856015 0.0
    vertex -7.077380230838504 220.48530353856015 3.0
  endloop
endfacet
facet normal -0.7968826352703681 0.604134145372163 0.0
  outer loop
    vertex -7.077380230838504 220.48530353856015 0.0
    vertex -3.865875781530137 223.7344065794036 3.0
    vertex -3.865875781530137 223.7344065794036 0.0
  endloop
endfacet
facet normal 0.38805353329274644 -0.9216368348210783 0.0
  outer loop
    vertex 13.659002719015989 193.78431138517843 3.0
    vertex 9.253206761126462 192.5762578369489 0.0
    vertex 13.659002719015989 193.78431138517843 0.0
  endloop
endfacet
facet normal 0.1362937642704874 -0.9906684661484794 0.0
  outer loop
    vertex 9.253206761126462 192.5762578369489 0.0
    vertex 13.659002719015989 193.78431138517843 3.0
    vertex 9.253206761126462 192.5762578369489 3.0
  endloop
endfacet
facet normal -0.6133680953098897 0.7897971762775037 0.0
  outer loop
    vertex -3.865875781530137 223.7344065794036 3.0
    vertex 0.07712905376987331 226.04160060391615 0.0
    vertex -3.865875781530137 223.7344065794036 0.0
  endloop
endfacet
facet normal -0.3880535332927466 0.921636834821078 0.0
  outer loop
    vertex 0.07712905376987331 226.04160060391615 0.0
    vertex -3.865875781530137 223.7344065794036 3.0
    vertex 0.07712905376987331 226.04160060391615 3.0
  endloop
endfacet
facet normal 3.038184994838374e-15 1.0 -1.5778396290789413e-15
  outer loop
    vertex 6.663912859792331 208.91423638249395 13.999999999999996
    vertex 6.894614915406559 208.9142363824939 3.0
    vertex 6.663912859792331 208.91423638249395 3.0
  endloop
endfacet
facet normal 3.038184994838374e-15 1.0 -1.5778396290789413e-15
  outer loop
    vertex 6.894614915406559 208.9142363824939 3.0
    vertex 6.663912859792331 208.91423638249395 13.999999999999996
    vertex 8.663912859792317 208.9142363824939 3.0
  endloop
endfacet
facet normal 3.038184994838374e-15 1.0 -1.5778396290789413e-15
  outer loop
    vertex 8.663912859792317 208.9142363824939 3.0
    vertex 6.663912859792331 208.91423638249395 13.999999999999996
    vertex 16.894614915406564 208.9142363824939 3.0
  endloop
endfacet
facet normal 3.038184994838374e-15 1.0 -1.5778396290789413e-15
  outer loop
    vertex 16.894614915406564 208.9142363824939 3.0
    vertex 6.663912859792331 208.91423638249395 13.999999999999996
    vertex 16.894614915406564 208.9142363824939 13.999999999999996
  endloop
endfacet
facet normal 0.12475419955070989 0.9921876786649095 0.0
  outer loop
    vertex 9.051264378530362 227.2762403711832 3.0
    vertex 13.470822376068257 226.11954745413715 0.0
    vertex 9.051264378530362 227.2762403711832 0.0
  endloop
endfacet
facet normal 0.37730037083858975 0.9260909405479909 0.0
  outer loop
    vertex 13.470822376068257 226.11954745413715 0.0
    vertex 9.051264378530362 227.2762403711832 3.0
    vertex 13.470822376068257 226.11954745413715 3.0
  endloop
endfacet
facet normal -0.6041341453721633 -0.7968826352703678 0.0
  outer loop
    vertex -3.7042816576199216 195.96750987731588 3.0
    vertex -6.953384698463382 199.17901432662424 0.0
    vertex -3.7042816576199216 195.96750987731588 0.0
  endloop
endfacet
facet normal -0.7897971762775038 -0.6133680953098893 0.0
  outer loop
    vertex -6.953384698463382 199.17901432662424 0.0
    vertex -3.7042816576199216 195.96750987731588 3.0
    vertex -6.953384698463382 199.17901432662424 3.0
  endloop
endfacet
facet normal -0.3773003708385902 -0.9260909405479908 0.0
  outer loop
    vertex 0.2653093967176082 193.70636453495746 3.0
    vertex -3.7042816576199216 195.96750987731588 0.0
    vertex 0.2653093967176082 193.70636453495746 0.0
  endloop
endfacet
facet normal -0.6041341453721633 -0.7968826352703678 0.0
  outer loop
    vertex -3.7042816576199216 195.96750987731588 0.0
    vertex 0.2653093967176082 193.70636453495746 3.0
    vertex -3.7042816576199216 195.96750987731588 3.0
  endloop
endfacet
facet normal 0.37730037083858975 0.9260909405479909 0.0
  outer loop
    vertex 13.470822376068257 226.11954745413715 3.0
    vertex 17.440413430405787 223.85840211177873 0.0
    vertex 13.470822376068257 226.11954745413715 0.0
  endloop
endfacet
facet normal 0.6041341453721633 0.7968826352703677 0.0
  outer loop
    vertex 17.440413430405787 223.85840211177873 0.0
    vertex 13.470822376068257 226.11954745413715 3.0
    vertex 17.440413430405787 223.85840211177873 3.0
  endloop
endfacet
facet normal -0.3880535332927466 0.921636834821078 0.0
  outer loop
    vertex 0.07712905376987331 226.04160060391615 3.0
    vertex 4.482925011659403 227.24965415214567 0.0
    vertex 0.07712905376987331 226.04160060391615 0.0
  endloop
endfacet
facet normal -0.13629376427048792 0.9906684661484794 0.0
  outer loop
    vertex 4.482925011659403 227.24965415214567 0.0
    vertex 0.07712905376987331 226.04160060391615 3.0
    vertex 4.482925011659403 227.24965415214567 3.0
  endloop
endfacet
facet normal 0.9906684661484794 0.13629376427048753 0.0
  outer loop
    vertex 24.20476404399132 212.2980968692808 0.0
    vertex 24.23135026302885 207.72975750240985 3.0
    vertex 24.23135026302885 207.72975750240985 0.0
  endloop
endfacet
facet normal 0.9921876786649095 -0.12475419955071021 0.0
  outer loop
    vertex 24.23135026302885 207.72975750240985 3.0
    vertex 24.20476404399132 212.2980968692808 0.0
    vertex 24.20476404399132 212.2980968692808 3.0
  endloop
endfacet
facet normal -1.0 0.0 0.0
  outer loop
    vertex -4.549470051716404 212.06442133322813 13.999999999999996
    vertex -4.549470051716404 210.06442133322813 2.9999999999999996
    vertex -4.549470051716404 210.06442133322813 13.999999999999996
  endloop
endfacet
facet normal -1.0 0.0 0.0
  outer loop
    vertex -4.549470051716404 210.06442133322813 2.9999999999999996
    vertex -4.549470051716404 212.06442133322813 13.999999999999996
    vertex -4.549470051716404 212.06442133322813 2.9999999999999996
  endloop
endfacet
facet normal -1.0 1.1279865930191587e-15 0.0
  outer loop
    vertex 6.663912859792331 208.91423638249395 13.999999999999996
    vertex 6.663912859792321 198.91423638249395 3.0
    vertex 6.663912859792321 198.91423638249395 13.999999999999996
  endloop
endfacet
facet normal -1.0 1.1279865930191587e-15 0.0
  outer loop
    vertex 6.663912859792321 198.91423638249395 3.0
    vertex 6.663912859792331 208.91423638249395 13.999999999999996
    vertex 6.663912859792331 208.91423638249395 3.0
  endloop
endfacet
facet normal 0.9216368348210782 0.38805353329274633 0.0
  outer loop
    vertex 22.9967104957618 216.70389282717034 0.0
    vertex 24.20476404399132 212.2980968692808 3.0
    vertex 24.20476404399132 212.2980968692808 0.0
  endloop
endfacet
facet normal 0.9906684661484794 0.13629376427048753 0.0
  outer loop
    vertex 24.20476404399132 212.2980968692808 3.0
    vertex 22.9967104957618 216.70389282717034 0.0
    vertex 22.9967104957618 216.70389282717034 3.0
  endloop
endfacet
facet normal 0.0 -1.0 0.0
  outer loop
    vertex 16.894614915406564 206.9142363824939 13.999999999999996
    vertex 8.663912859792317 206.9142363824939 3.0
    vertex 16.894614915406564 206.9142363824939 3.0
  endloop
endfacet
facet normal 0.0 -1.0 0.0
  outer loop
    vertex 8.663912859792317 206.9142363824939 3.0
    vertex 16.894614915406564 206.9142363824939 13.999999999999996
    vertex 8.663912859792317 206.9142363824939 13.999999999999996
  endloop
endfacet
facet normal 0.0 0.0 -1.0
  outer loop
    vertex -9.33852557319691 216.51571248422263 0.0
    vertex -10.468632271205456 207.52781511981377 0.0
    vertex -10.49521849024298 212.09615448668475 0.0
  endloop
endfacet
facet normal 0.0 0.0 -1.0
  outer loop
    vertex -10.468632271205456 207.52781511981377 0.0
    vertex -9.33852557319691 216.51571248422263 0.0
    vertex -9.260578722975934 203.12201916192424 0.0
  endloop
endfacet
facet normal 0.0 0.0 -1.0
  outer loop
    vertex -9.260578722975934 203.12201916192424 0.0
    vertex -9.33852557319691 216.51571248422263 0.0
    vertex -7.077380230838504 220.48530353856015 0.0
  endloop
endfacet
facet normal 0.0 0.0 -1.0
  outer loop
    vertex -9.260578722975934 203.12201916192424 0.0
    vertex -7.077380230838504 220.48530353856015 0.0
    vertex -6.953384698463382 199.17901432662424 0.0
  endloop
endfacet
facet normal 0.0 0.0 -1.0
  outer loop
    vertex -6.953384698463382 199.17901432662424 0.0
    vertex -7.077380230838504 220.48530353856015 0.0
    vertex -3.865875781530137 223.7344065794036 0.0
  endloop
endfacet
facet normal 0.0 0.0 -1.0
  outer loop
    vertex -6.953384698463382 199.17901432662424 0.0
    vertex -3.865875781530137 223.7344065794036 0.0
    vertex -3.7042816576199216 195.96750987731588 0.0
  endloop
endfacet
facet normal 0.0 0.0 -1.0
  outer loop
    vertex -3.7042816576199216 195.96750987731588 0.0
    vertex -3.865875781530137 223.7344065794036 0.0
    vertex 0.07712905376987331 226.04160060391615 0.0
  endloop
endfacet
facet normal 0.0 0.0 -1.0
  outer loop
    vertex -3.7042816576199216 195.96750987731588 0.0
    vertex 0.07712905376987331 226.04160060391615 0.0
    vertex 0.2653093967176082 193.70636453495746 0.0
  endloop
endfacet
facet normal 0.0 0.0 -1.0
  outer loop
    vertex 0.2653093967176082 193.70636453495746 0.0
    vertex 0.07712905376987331 226.04160060391615 0.0
    vertex 4.482925011659403 227.24965415214567 0.0
  endloop
endfacet
facet normal 0.0 0.0 -1.0
  outer loop
    vertex 0.2653093967176082 193.70636453495746 0.0
    vertex 4.482925011659403 227.24965415214567 0.0
    vertex 4.684867394255509 192.54967161791137 0.0
  endloop
endfacet
facet normal 0.0 0.0 -1.0
  outer loop
    vertex 4.684867394255509 192.54967161791137 0.0
    vertex 4.482925011659403 227.24965415214567 0.0
    vertex 9.051264378530362 227.2762403711832 0.0
  endloop
endfacet
facet normal 0.0 0.0 -1.0
  outer loop
    vertex 4.684867394255509 192.54967161791137 0.0
    vertex 9.051264378530362 227.2762403711832 0.0
    vertex 9.253206761126462 192.5762578369489 0.0
  endloop
endfacet
facet normal 0.0 0.0 -1.0
  outer loop
    vertex 9.253206761126462 192.5762578369489 0.0
    vertex 9.051264378530362 227.2762403711832 0.0
    vertex 13.470822376068257 226.11954745413715 0.0
  endloop
endfacet
facet normal 0.0 0.0 -1.0
  outer loop
    vertex 9.253206761126462 192.5762578369489 0.0
    vertex 13.470822376068257 226.11954745413715 0.0
    vertex 13.659002719015989 193.78431138517843 0.0
  endloop
endfacet
facet normal 0.0 0.0 -1.0
  outer loop
    vertex 13.659002719015989 193.78431138517843 0.0
    vertex 13.470822376068257 226.11954745413715 0.0
    vertex 17.440413430405787 223.85840211177873 0.0
  endloop
endfacet
facet normal 0.0 0.0 -1.0
  outer loop
    vertex 13.659002719015989 193.78431138517843 0.0
    vertex 17.440413430405787 223.85840211177873 0.0
    vertex 17.602007554316007 196.091505409691 0.0
  endloop
endfacet
facet normal 0.0 0.0 -1.0
  outer loop
    vertex 17.602007554316007 196.091505409691 0.0
    vertex 17.440413430405787 223.85840211177873 0.0
    vertex 20.68951647124925 220.64689766247037 0.0
  endloop
endfacet
facet normal 0.0 0.0 -1.0
  outer loop
    vertex 17.602007554316007 196.091505409691 0.0
    vertex 20.68951647124925 220.64689766247037 0.0
    vertex 20.81351200362437 199.34060845053443 0.0
  endloop
endfacet
facet normal 0.0 0.0 -1.0
  outer loop
    vertex 20.81351200362437 199.34060845053443 0.0
    vertex 20.68951647124925 220.64689766247037 0.0
    vertex 22.9967104957618 216.70389282717034 0.0
  endloop
endfacet
facet normal 0.0 0.0 -1.0
  outer loop
    vertex 20.81351200362437 199.34060845053443 0.0
    vertex 22.9967104957618 216.70389282717034 0.0
    vertex 23.07465734598277 203.31019950487195 0.0
  endloop
endfacet
facet normal 0.0 0.0 -1.0
  outer loop
    vertex 23.07465734598277 203.31019950487195 0.0
    vertex 22.9967104957618 216.70389282717034 0.0
    vertex 24.20476404399132 212.2980968692808 0.0
  endloop
endfacet
facet normal 0.0 0.0 -1.0
  outer loop
    vertex 23.07465734598277 203.31019950487195 0.0
    vertex 24.20476404399132 212.2980968692808 0.0
    vertex 24.23135026302885 207.72975750240985 0.0
  endloop
endfacet
facet normal 0.9260909405479911 -0.37730037083858986 0.0
  outer loop
    vertex 23.07465734598277 203.31019950487195 0.0
    vertex 20.81351200362437 199.34060845053443 3.0
    vertex 20.81351200362437 199.34060845053443 0.0
  endloop
endfacet
facet normal 0.7968826352703681 -0.6041341453721629 0.0
  outer loop
    vertex 20.81351200362437 199.34060845053443 3.0
    vertex 23.07465734598277 203.31019950487195 0.0
    vertex 23.07465734598277 203.31019950487195 3.0
  endloop
endfacet
facet normal -3.038184994838374e-15 -1.0 -1.5778396290789419e-15
  outer loop
    vertex 5.6812320038978275 210.06442133322807 13.999999999999996
    vertex 5.4505299482836005 210.06442133322813 2.9999999999999996
    vertex 5.6812320038978275 210.06442133322807 2.9999999999999996
  endloop
endfacet
facet normal -3.038184994838374e-15 -1.0 -1.5778396290789419e-15
  outer loop
    vertex 5.4505299482836005 210.06442133322813 2.9999999999999996
    vertex 5.6812320038978275 210.06442133322807 13.999999999999996
    vertex -4.549470051716404 210.06442133322813 2.9999999999999996
  endloop
endfacet
facet normal -3.038184994838374e-15 -1.0 -1.5778396290789419e-15
  outer loop
    vertex -4.549470051716404 210.06442133322813 2.9999999999999996
    vertex 5.6812320038978275 210.06442133322807 13.999999999999996
    vertex -4.549470051716404 210.06442133322813 13.999999999999996
  endloop
endfacet
facet normal 0.9921876786649095 -0.12475419955071021 0.0
  outer loop
    vertex 24.23135026302885 207.72975750240985 0.0
    vertex 23.07465734598277 203.31019950487195 3.0
    vertex 23.07465734598277 203.31019950487195 0.0
  endloop
endfacet
facet normal 0.9260909405479911 -0.37730037083858986 0.0
  outer loop
    vertex 23.07465734598277 203.31019950487195 3.0
    vertex 24.23135026302885 207.72975750240985 0.0
    vertex 24.23135026302885 207.72975750240985 3.0
  endloop
endfacet
facet normal -0.9906684661484795 -0.13629376427048745 0.0
  outer loop
    vertex -10.468632271205456 207.52781511981377 3.0
    vertex -9.260578722975934 203.12201916192424 0.0
    vertex -9.260578722975934 203.12201916192424 3.0
  endloop
endfacet
facet normal -0.9216368348210783 -0.3880535332927462 0.0
  outer loop
    vertex -9.260578722975934 203.12201916192424 0.0
    vertex -10.468632271205456 207.52781511981377 3.0
    vertex -10.468632271205456 207.52781511981377 0.0
  endloop
endfacet
endsolid frag ver 2
