solid frag ver 2
facet normal 0.24571973442094444 0.9693409163530137 0.0
  outer loop
    vertex 3.7798919158084745 198.55855520590228 2.9999999999999774
    vertex 6.811281833738802 197.35072473346978 0.9999999999999774
    vertex 3.7798919158084745 198.55855520590228 0.9999999999999774
  endloop
endfacet
facet normal 0.4882309278553708 0.8727144785584136 0.0
  outer loop
    vertex 6.811281833738802 197.35072473346978 0.9999999999999774
    vertex 3.7798919158084745 198.55855520590228 2.9999999999999774
    vertex 6.811281833738802 197.35072473346978 2.9999999999999774
  endloop
endfacet
facet normal 0.25881904510252524 0.9659258262890671 1.8012567222793136e-16
  outer loop
    vertex 7.484377763413288 193.12256741948713 2.9999999999999774
    vertex 7.725558718310768 193.02266699698248 1.999999999999981
    vertex 7.484377763413288 193.12256741948713 1.999999999999981
  endloop
endfacet
facet normal 0.5000000000000309 0.8660254037844209 3.4869428603926394e-15
  outer loop
    vertex 7.725558718310768 193.02266699698248 1.999999999999981
    vertex 7.484377763413288 193.12256741948713 2.9999999999999774
    vertex 7.725558718310764 193.02266699698248 2.9999999999999774
  endloop
endfacet
facet normal 0.9659258262890671 0.2588190451025253 -2.2740399142187833e-15
  outer loop
    vertex 8.191484544599838 192.41546063830057 1.999999999999981
    vertex 8.225558718310769 192.15664159319806 2.9999999999999774
    vertex 8.225558718310769 192.15664159319806 1.999999999999981
  endloop
endfacet
facet normal 1.0 -1.3250820414826943e-14 7.424659417894133e-16
  outer loop
    vertex 8.225558718310769 192.15664159319806 2.9999999999999774
    vertex 8.191484544599838 192.41546063830057 1.999999999999981
    vertex 8.191484544599845 192.41546063830057 2.9999999999999774
  endloop
endfacet
facet normal 0.8660254037844328 -0.5000000000000102 -9.413736191640267e-17
  outer loop
    vertex 8.091584122095204 191.65664159319806 1.999999999999981
    vertex 7.932665499497309 191.4495348120115 2.9999999999999774
    vertex 7.932665499497315 191.4495348120115 1.999999999999981
  endloop
endfacet
facet normal 0.7071067811865354 -0.7071067811865598 9.36391514439424e-17
  outer loop
    vertex 7.932665499497309 191.4495348120115 2.9999999999999774
    vertex 8.091584122095204 191.65664159319806 1.999999999999981
    vertex 8.091584122095199 191.65664159319803 2.9999999999999774
  endloop
endfacet
facet normal -0.0 1.0 -0.0
  outer loop
    vertex -10.230367710300508 189.13904044246 12.999999999999973
    vertex -1.999665654686261 189.13904044246 2.999999999999978
    vertex -10.230367710300508 189.13904044246 2.999999999999978
  endloop
endfacet
facet normal -0.0 1.0 -0.0
  outer loop
    vertex -1.999665654686261 189.13904044246 2.999999999999978
    vertex -10.230367710300508 189.13904044246 12.999999999999973
    vertex -1.999665654686261 189.13904044246 12.999999999999973
  endloop
endfacet
facet normal 0.9659258262890671 0.2588190451025253 -2.2740399142187833e-15
  outer loop
    vertex 8.191484544599838 192.41546063830057 1.999999999999981
    vertex 8.091584122095218 192.65664159319803 2.9999999999999774
    vertex 8.191484544599845 192.41546063830057 2.9999999999999774
  endloop
endfacet
facet normal 0.8660254037844356 0.5000000000000052 9.478985514764786e-16
  outer loop
    vertex 8.091584122095218 192.65664159319803 2.9999999999999774
    vertex 8.191484544599838 192.41546063830057 1.999999999999981
    vertex 8.091584122095204 192.65664159319806 1.999999999999981
  endloop
endfacet
facet normal 0.716613991278924 -0.6974699903962107 0.0
  outer loop
    vertex 9.666070126533208 177.723418871537 2.9999999999999774
    vertex 7.104363294976532 175.70207343004952 0.9999999999999774
    vertex 9.666070126533208 177.723418871537 0.9999999999999774
  endloop
endfacet
facet normal 0.5116774447543905 -0.8591776257152054 0.0
  outer loop
    vertex 7.104363294976532 175.70207343004952 0.9999999999999774
    vertex 9.666070126533208 177.723418871537 2.9999999999999774
    vertex 7.104363294976532 175.70207343004952 2.9999999999999774
  endloop
endfacet
facet normal -1.5190924974191875e-15 -1.0 -8.678117959934181e-16
  outer loop
    vertex 0.00033434531372396044 187.13904044245996 12.999999999999973
    vertex -0.23036771030050351 187.13904044246 2.999999999999978
    vertex 0.00033434531372396044 187.13904044245996 2.999999999999978
  endloop
endfacet
facet normal -1.5190924974191875e-15 -1.0 -8.678117959934181e-16
  outer loop
    vertex -0.23036771030050351 187.13904044246 2.999999999999978
    vertex 0.00033434531372396044 187.13904044245996 12.999999999999973
    vertex -1.999665654686261 187.13904044246 2.999999999999978
  endloop
endfacet
facet normal -1.5190924974191875e-15 -1.0 -8.678117959934181e-16
  outer loop
    vertex -1.999665654686261 187.13904044246 2.999999999999978
    vertex 0.00033434531372396044 187.13904044245996 12.999999999999973
    vertex -10.230367710300508 187.13904044246 2.999999999999978
  endloop
endfacet
facet normal -1.5190924974191875e-15 -1.0 -8.678117959934181e-16
  outer loop
    vertex -10.230367710300508 187.13904044246 2.999999999999978
    vertex 0.00033434531372396044 187.13904044245996 12.999999999999973
    vertex -10.230367710300508 187.13904044246 12.999999999999973
  endloop
endfacet
facet normal -1.0 0.0 0.0
  outer loop
    vertex -1.999665654686261 197.13904044245996 12.999999999999973
    vertex -1.999665654686261 189.13904044246 2.999999999999978
    vertex -1.999665654686261 189.13904044246 12.999999999999973
  endloop
endfacet
facet normal -1.0 0.0 0.0
  outer loop
    vertex -1.999665654686261 189.13904044246 2.999999999999978
    vertex -1.999665654686261 197.13904044245996 12.999999999999973
    vertex -1.999665654686261 197.13904044245996 2.999999999999978
  endloop
endfacet
facet normal 0.0 0.0 1.0
  outer loop
    vertex 0.00033434531372396044 187.13904044245996 12.999999999999973
    vertex -10.230367710300508 189.13904044246 12.999999999999973
    vertex -10.230367710300508 187.13904044246 12.999999999999973
  endloop
endfacet
facet normal 0.0 0.0 1.0
  outer loop
    vertex -10.230367710300508 189.13904044246 12.999999999999973
    vertex 0.00033434531372396044 187.13904044245996 12.999999999999973
    vertex -1.999665654686261 189.13904044246 12.999999999999973
  endloop
endfacet
facet normal 0.0 0.0 1.0
  outer loop
    vertex -1.999665654686261 189.13904044246 12.999999999999973
    vertex 0.00033434531372396044 187.13904044245996 12.999999999999973
    vertex -1.999665654686261 197.13904044245996 12.999999999999973
  endloop
endfacet
facet normal 0.0 0.0 1.0
  outer loop
    vertex -1.999665654686261 197.13904044245996 12.999999999999973
    vertex 0.00033434531372396044 187.13904044245996 12.999999999999973
    vertex 0.0003343453137352403 197.13904044245996 12.999999999999973
  endloop
endfacet
facet normal -1.0 0.0 0.0
  outer loop
    vertex -10.230367710300508 189.13904044246 12.999999999999973
    vertex -10.230367710300508 187.13904044246 2.999999999999978
    vertex -10.230367710300508 187.13904044246 12.999999999999973
  endloop
endfacet
facet normal -1.0 0.0 0.0
  outer loop
    vertex -10.230367710300508 187.13904044246 2.999999999999978
    vertex -10.230367710300508 189.13904044246 12.999999999999973
    vertex -10.230367710300508 189.13904044246 2.999999999999978
  endloop
endfacet
facet normal 1.0 -1.1279865930191585e-15 -0.0
  outer loop
    vertex 0.0003343453137352403 197.13904044245996 2.999999999999978
    vertex 0.00033434531372396044 187.13904044245996 12.999999999999973
    vertex 0.00033434531372396044 187.13904044245996 2.999999999999978
  endloop
endfacet
facet normal 1.0 -1.1279865930191585e-15 -0.0
  outer loop
    vertex 0.00033434531372396044 187.13904044245996 12.999999999999973
    vertex 0.0003343453137352403 197.13904044245996 2.999999999999978
    vertex 0.0003343453137352403 197.13904044245996 12.999999999999973
  endloop
endfacet
facet normal -0.0 1.0 -0.0
  outer loop
    vertex -1.999665654686261 197.13904044245996 12.999999999999973
    vertex 0.0003343453137352403 197.13904044245996 2.999999999999978
    vertex -1.999665654686261 197.13904044245996 2.999999999999978
  endloop
endfacet
facet normal -0.0 1.0 -0.0
  outer loop
    vertex 0.0003343453137352403 197.13904044245996 2.999999999999978
    vertex -1.999665654686261 197.13904044245996 12.999999999999973
    vertex 0.0003343453137352403 197.13904044245996 12.999999999999973
  endloop
endfacet
facet normal -0.716613991278924 0.6974699903962107 0.0
  outer loop
    vertex -8.24927965543989 195.16016863144225 2.9999999999999774
    vertex -10.20053574643351 192.54468034968176 0.9999999999999774
    vertex -10.20053574643351 192.54468034968176 2.9999999999999774
  endloop
endfacet
facet normal -0.8727144785584134 0.4882309278553711 0.0
  outer loop
    vertex -10.20053574643351 192.54468034968176 0.9999999999999774
    vertex -8.24927965543989 195.16016863144225 2.9999999999999774
    vertex -8.24927965543989 195.16016863144225 0.9999999999999774
  endloop
endfacet
facet normal -0.48823092785537037 -0.8727144785584139 0.0
  outer loop
    vertex -5.394491362645483 175.53286276950945 2.9999999999999774
    vertex -8.009979644405975 177.48411886050306 0.9999999999999774
    vertex -5.394491362645483 175.53286276950945 0.9999999999999774
  endloop
endfacet
facet normal -0.6974699903962115 -0.7166139912789231 0.0
  outer loop
    vertex -8.009979644405975 177.48411886050306 0.9999999999999774
    vertex -5.394491362645483 175.53286276950945 2.9999999999999774
    vertex -8.009979644405975 177.48411886050306 2.9999999999999774
  endloop
endfacet
facet normal -0.5116774447543903 0.8591776257152056 0.0
  outer loop
    vertex -5.687572823883216 197.1815140729297 2.9999999999999774
    vertex -2.689991338913376 198.47096532273798 0.9999999999999774
    vertex -5.687572823883216 197.1815140729297 0.9999999999999774
  endloop
endfacet
facet normal -0.2718709259568029 0.962333725699869 0.0
  outer loop
    vertex -2.689991338913376 198.47096532273798 0.9999999999999774
    vertex -5.687572823883216 197.1815140729297 2.9999999999999774
    vertex -2.689991338913376 198.47096532273798 2.9999999999999774
  endloop
endfacet
facet normal -0.8660254037844344 -0.5000000000000075 7.462577209483686e-17
  outer loop
    vertex 6.3595333145263435 191.65664159319803 2.9999999999999774
    vertex 6.518451937124219 191.4495348120115 1.999999999999981
    vertex 6.5184519371242216 191.4495348120115 2.9999999999999774
  endloop
endfacet
facet normal -0.7071067811865426 -0.7071067811865523 5.460320139195197e-17
  outer loop
    vertex 6.518451937124219 191.4495348120115 1.999999999999981
    vertex 6.3595333145263435 191.65664159319803 2.9999999999999774
    vertex 6.359533314526327 191.65664159319806 1.999999999999981
  endloop
endfacet
facet normal 0.9623337256998691 0.27187092595680257 0.0
  outer loop
    vertex 12.737566806795025 189.84018032594963 0.9999999999999774
    vertex 13.207249893168681 186.61100441202973 2.9999999999999774
    vertex 13.207249893168681 186.61100441202973 0.9999999999999774
  endloop
endfacet
facet normal 0.9999083726097614 0.013536852843207412 0.0
  outer loop
    vertex 13.207249893168681 186.61100441202973 2.9999999999999774
    vertex 12.737566806795025 189.84018032594963 0.9999999999999774
    vertex 12.737566806795025 189.84018032594963 2.9999999999999774
  endloop
endfacet
facet normal -0.5000000000000083 -0.8660254037844337 -6.5058468889600734e-15
  outer loop
    vertex 6.725558718310761 191.2906161894136 2.9999999999999774
    vertex 6.518451937124219 191.4495348120115 1.999999999999981
    vertex 6.725558718310766 191.2906161894136 1.999999999999981
  endloop
endfacet
facet normal -0.7071067811865426 -0.7071067811865523 5.460320139195197e-17
  outer loop
    vertex 6.518451937124219 191.4495348120115 1.999999999999981
    vertex 6.725558718310761 191.2906161894136 2.9999999999999774
    vertex 6.5184519371242216 191.4495348120115 2.9999999999999774
  endloop
endfacet
facet normal -0.716613991278924 0.6974699903962107 0.0
  outer loop
    vertex -8.24927965543989 195.16016863144225 2.9999999999999774
    vertex -5.687572823883216 197.1815140729297 0.9999999999999774
    vertex -8.24927965543989 195.16016863144225 0.9999999999999774
  endloop
endfacet
facet normal -0.5116774447543903 0.8591776257152056 0.0
  outer loop
    vertex -5.687572823883216 197.1815140729297 0.9999999999999774
    vertex -8.24927965543989 195.16016863144225 2.9999999999999774
    vertex -5.687572823883216 197.1815140729297 2.9999999999999774
  endloop
endfacet
facet normal 0.5116774447543905 -0.8591776257152054 0.0
  outer loop
    vertex 7.104363294976532 175.70207343004952 2.9999999999999774
    vertex 4.106781810006692 174.41262218024124 0.9999999999999774
    vertex 7.104363294976532 175.70207343004952 0.9999999999999774
  endloop
endfacet
facet normal 0.2718709259568021 -0.9623337256998691 0.0
  outer loop
    vertex 4.106781810006692 174.41262218024124 0.9999999999999774
    vertex 7.104363294976532 175.70207343004952 2.9999999999999774
    vertex 4.106781810006692 174.41262218024124 2.9999999999999774
  endloop
endfacet
facet normal 0.013536852843205735 -0.9999083726097615 0.0
  outer loop
    vertex 0.8776058960867512 173.94293909386758 2.9999999999999774
    vertex -2.3631014447151553 174.32503229707694 0.9999999999999774
    vertex 0.8776058960867512 173.94293909386758 0.9999999999999774
  endloop
endfacet
facet normal -0.24571973442094536 -0.9693409163530134 0.0
  outer loop
    vertex -2.3631014447151553 174.32503229707694 0.9999999999999774
    vertex 0.8776058960867512 173.94293909386758 2.9999999999999774
    vertex -2.3631014447151553 174.32503229707694 2.9999999999999774
  endloop
endfacet
facet normal 0.5000000000000305 0.866025403784421 3.4869428603926304e-15
  outer loop
    vertex 7.725558718310764 193.02266699698248 2.9999999999999774
    vertex 7.932665499497315 192.8637483743846 1.999999999999981
    vertex 7.725558718310768 193.02266699698248 1.999999999999981
  endloop
endfacet
facet normal 0.7071067811865471 0.7071067811865478 5.063135912590825e-15
  outer loop
    vertex 7.932665499497315 192.8637483743846 1.999999999999981
    vertex 7.725558718310764 193.02266699698248 2.9999999999999774
    vertex 7.932665499497326 192.86374837438458 2.9999999999999774
  endloop
endfacet
facet normal 2.1205895900516198e-33 1.6964716720412928e-32 1.0
  outer loop
    vertex 7.104363294976532 175.70207343004952 2.9999999999999774
    vertex 6.225558718310767 192.15664159319806 2.9999999999999774
    vertex 4.106781810006692 174.41262218024124 2.9999999999999774
  endloop
endfacet
facet normal 2.1205895900516198e-33 1.6964716720412928e-32 1.0
  outer loop
    vertex 6.225558718310767 192.15664159319806 2.9999999999999774
    vertex 7.104363294976532 175.70207343004952 2.9999999999999774
    vertex 6.259632892021699 191.89782254809552 2.9999999999999774
  endloop
endfacet
facet normal 2.1205895900516198e-33 1.6964716720412928e-32 1.0
  outer loop
    vertex 6.259632892021699 191.89782254809552 2.9999999999999774
    vertex 7.104363294976532 175.70207343004952 2.9999999999999774
    vertex 6.3595333145263435 191.65664159319803 2.9999999999999774
  endloop
endfacet
facet normal 2.1205895900516198e-33 1.6964716720412928e-32 1.0
  outer loop
    vertex 6.3595333145263435 191.65664159319803 2.9999999999999774
    vertex 7.104363294976532 175.70207343004952 2.9999999999999774
    vertex 6.5184519371242216 191.4495348120115 2.9999999999999774
  endloop
endfacet
facet normal 2.1205895900516198e-33 1.6964716720412928e-32 1.0
  outer loop
    vertex 6.5184519371242216 191.4495348120115 2.9999999999999774
    vertex 7.104363294976532 175.70207343004952 2.9999999999999774
    vertex 6.725558718310761 191.2906161894136 2.9999999999999774
  endloop
endfacet
facet normal 2.1205895900516198e-33 1.6964716720412928e-32 1.0
  outer loop
    vertex 6.725558718310761 191.2906161894136 2.9999999999999774
    vertex 7.104363294976532 175.70207343004952 2.9999999999999774
    vertex 6.9667396732082425 191.19071576690897 2.9999999999999774
  endloop
endfacet
facet normal 2.1205895900516198e-33 1.6964716720412928e-32 1.0
  outer loop
    vertex 6.9667396732082425 191.19071576690897 2.9999999999999774
    vertex 7.104363294976532 175.70207343004952 2.9999999999999774
    vertex 7.225558718310765 191.15664159319806 2.9999999999999774
  endloop
endfacet
facet normal 2.1205895900516198e-33 1.6964716720412928e-32 1.0
  outer loop
    vertex 7.225558718310765 191.15664159319806 2.9999999999999774
    vertex 7.104363294976532 175.70207343004952 2.9999999999999774
    vertex 9.666070126533208 177.723418871537 2.9999999999999774
  endloop
endfacet
facet normal 2.1205895900516198e-33 1.6964716720412928e-32 1.0
  outer loop
    vertex 7.225558718310765 191.15664159319806 2.9999999999999774
    vertex 9.666070126533208 177.723418871537 2.9999999999999774
    vertex 7.484377763413282 191.19071576690902 2.9999999999999774
  endloop
endfacet
facet normal 2.1205895900516198e-33 1.6964716720412928e-32 1.0
  outer loop
    vertex 7.484377763413282 191.19071576690902 2.9999999999999774
    vertex 9.666070126533208 177.723418871537 2.9999999999999774
    vertex 7.725558718310764 191.2906161894136 2.9999999999999774
  endloop
endfacet
facet normal 2.1205895900516198e-33 1.6964716720412928e-32 1.0
  outer loop
    vertex 7.725558718310764 191.2906161894136 2.9999999999999774
    vertex 9.666070126533208 177.723418871537 2.9999999999999774
    vertex 7.932665499497309 191.4495348120115 2.9999999999999774
  endloop
endfacet
facet normal 2.1205895900516198e-33 1.6964716720412928e-32 1.0
  outer loop
    vertex 7.932665499497309 191.4495348120115 2.9999999999999774
    vertex 9.666070126533208 177.723418871537 2.9999999999999774
    vertex 8.091584122095199 191.65664159319803 2.9999999999999774
  endloop
endfacet
facet normal 2.1205895900516198e-33 1.6964716720412928e-32 1.0
  outer loop
    vertex 8.091584122095199 191.65664159319803 2.9999999999999774
    vertex 9.666070126533208 177.723418871537 2.9999999999999774
    vertex 8.19148454459983 191.89782254809552 2.9999999999999774
  endloop
endfacet
facet normal 2.1205895900516198e-33 1.6964716720412928e-32 1.0
  outer loop
    vertex 8.19148454459983 191.89782254809552 2.9999999999999774
    vertex 9.666070126533208 177.723418871537 2.9999999999999774
    vertex 8.225558718310769 192.15664159319806 2.9999999999999774
  endloop
endfacet
facet normal 2.1205895900516198e-33 1.6964716720412928e-32 1.0
  outer loop
    vertex 8.225558718310769 192.15664159319806 2.9999999999999774
    vertex 9.666070126533208 177.723418871537 2.9999999999999774
    vertex 9.426770115499297 195.3994686424762 2.9999999999999774
  endloop
endfacet
facet normal 2.1205895900516198e-33 1.6964716720412928e-32 1.0
  outer loop
    vertex 9.426770115499297 195.3994686424762 2.9999999999999774
    vertex 9.666070126533208 177.723418871537 2.9999999999999774
    vertex 11.448115556986739 192.8377618109195 2.9999999999999774
  endloop
endfacet
facet normal 2.1205895900516198e-33 1.6964716720412928e-32 1.0
  outer loop
    vertex 11.448115556986739 192.8377618109195 2.9999999999999774
    vertex 9.666070126533208 177.723418871537 2.9999999999999774
    vertex 11.617326217526827 180.33890715329747 2.9999999999999774
  endloop
endfacet
facet normal 2.1205895900516198e-33 1.6964716720412928e-32 1.0
  outer loop
    vertex 11.448115556986739 192.8377618109195 2.9999999999999774
    vertex 11.617326217526827 180.33890715329747 2.9999999999999774
    vertex 12.737566806795025 189.84018032594963 2.9999999999999774
  endloop
endfacet
facet normal 2.1205895900516198e-33 1.6964716720412928e-32 1.0
  outer loop
    vertex 12.737566806795025 189.84018032594963 2.9999999999999774
    vertex 11.617326217526827 180.33890715329747 2.9999999999999774
    vertex 12.82515668995933 183.37029707122778 2.9999999999999774
  endloop
endfacet
facet normal 2.1205895900516198e-33 1.6964716720412928e-32 1.0
  outer loop
    vertex 12.737566806795025 189.84018032594963 2.9999999999999774
    vertex 12.82515668995933 183.37029707122778 2.9999999999999774
    vertex 13.207249893168681 186.61100441202973 2.9999999999999774
  endloop
endfacet
facet normal 2.1205895900516198e-33 1.6964716720412928e-32 1.0
  outer loop
    vertex -10.03132508589341 180.04582569205976 2.9999999999999774
    vertex -10.230367710300508 187.13904044246 2.999999999999978
    vertex -11.320776335701703 183.0434071770296 2.9999999999999774
  endloop
endfacet
facet normal 2.1205895900516198e-33 1.6964716720412928e-32 1.0
  outer loop
    vertex -10.230367710300508 187.13904044246 2.999999999999978
    vertex -10.03132508589341 180.04582569205976 2.9999999999999774
    vertex -1.999665654686261 187.13904044246 2.999999999999978
  endloop
endfacet
facet normal 2.1205895900516198e-33 1.6964716720412928e-32 1.0
  outer loop
    vertex -1.999665654686261 187.13904044246 2.999999999999978
    vertex -10.03132508589341 180.04582569205976 2.9999999999999774
    vertex -8.009979644405975 177.48411886050306 2.9999999999999774
  endloop
endfacet
facet normal 2.1205895900516198e-33 1.6964716720412928e-32 1.0
  outer loop
    vertex -1.999665654686261 187.13904044246 2.999999999999978
    vertex -8.009979644405975 177.48411886050306 2.9999999999999774
    vertex -5.394491362645483 175.53286276950945 2.9999999999999774
  endloop
endfacet
facet normal 2.1205895900516198e-33 1.6964716720412928e-32 1.0
  outer loop
    vertex -1.999665654686261 187.13904044246 2.999999999999978
    vertex -5.394491362645483 175.53286276950945 2.9999999999999774
    vertex -2.3631014447151553 174.32503229707694 2.9999999999999774
  endloop
endfacet
facet normal 2.1205895900516198e-33 1.6964716720412928e-32 1.0
  outer loop
    vertex -1.999665654686261 187.13904044246 2.999999999999978
    vertex -2.3631014447151553 174.32503229707694 2.9999999999999774
    vertex 0.8776058960867512 173.94293909386758 2.9999999999999774
  endloop
endfacet
facet normal 2.1205895900516198e-33 1.6964716720412928e-32 1.0
  outer loop
    vertex -1.999665654686261 187.13904044246 2.999999999999978
    vertex 0.8776058960867512 173.94293909386758 2.9999999999999774
    vertex -1.999665654686261 189.13904044246 2.999999999999978
  endloop
endfacet
facet normal 2.1205895900516198e-33 1.6964716720412928e-32 1.0
  outer loop
    vertex -1.999665654686261 189.13904044246 2.999999999999978
    vertex 0.8776058960867512 173.94293909386758 2.9999999999999774
    vertex -0.23036771030050351 187.13904044246 2.999999999999978
  endloop
endfacet
facet normal 2.1205895900516198e-33 1.6964716720412928e-32 1.0
  outer loop
    vertex -0.23036771030050351 187.13904044246 2.999999999999978
    vertex 0.8776058960867512 173.94293909386758 2.9999999999999774
    vertex 0.00033434531372396044 187.13904044245996 2.999999999999978
  endloop
endfacet
facet normal 2.1205895900516198e-33 1.6964716720412928e-32 1.0
  outer loop
    vertex 0.00033434531372396044 187.13904044245996 2.999999999999978
    vertex 0.8776058960867512 173.94293909386758 2.9999999999999774
    vertex 0.0003343453137352403 197.13904044245996 2.999999999999978
  endloop
endfacet
facet normal 2.1205895900516198e-33 1.6964716720412928e-32 1.0
  outer loop
    vertex 0.0003343453137352403 197.13904044245996 2.999999999999978
    vertex 0.8776058960867512 173.94293909386758 2.9999999999999774
    vertex 0.5391845750065634 198.94064840911165 2.9999999999999774
  endloop
endfacet
facet normal 2.1205895900516198e-33 1.6964716720412928e-32 1.0
  outer loop
    vertex 0.5391845750065634 198.94064840911165 2.9999999999999774
    vertex 0.8776058960867512 173.94293909386758 2.9999999999999774
    vertex 3.7798919158084745 198.55855520590228 2.9999999999999774
  endloop
endfacet
facet normal 2.1205895900516198e-33 1.6964716720412928e-32 1.0
  outer loop
    vertex 3.7798919158084745 198.55855520590228 2.9999999999999774
    vertex 0.8776058960867512 173.94293909386758 2.9999999999999774
    vertex 4.106781810006692 174.41262218024124 2.9999999999999774
  endloop
endfacet
facet normal 2.1205895900516198e-33 1.6964716720412928e-32 1.0
  outer loop
    vertex 3.7798919158084745 198.55855520590228 2.9999999999999774
    vertex 4.106781810006692 174.41262218024124 2.9999999999999774
    vertex 6.811281833738802 197.35072473346978 2.9999999999999774
  endloop
endfacet
facet normal 2.1205895900516198e-33 1.6964716720412928e-32 1.0
  outer loop
    vertex 6.811281833738802 197.35072473346978 2.9999999999999774
    vertex 4.106781810006692 174.41262218024124 2.9999999999999774
    vertex 6.225558718310767 192.15664159319806 2.9999999999999774
  endloop
endfacet
facet normal 2.1205895900516198e-33 1.6964716720412928e-32 1.0
  outer loop
    vertex 6.811281833738802 197.35072473346978 2.9999999999999774
    vertex 6.225558718310767 192.15664159319806 2.9999999999999774
    vertex 6.25963289202169 192.41546063830057 2.9999999999999774
  endloop
endfacet
facet normal 2.1205895900516198e-33 1.6964716720412928e-32 1.0
  outer loop
    vertex 6.811281833738802 197.35072473346978 2.9999999999999774
    vertex 6.25963289202169 192.41546063830057 2.9999999999999774
    vertex 6.359533314526327 192.65664159319806 2.9999999999999774
  endloop
endfacet
facet normal 2.1205895900516198e-33 1.6964716720412928e-32 1.0
  outer loop
    vertex 6.811281833738802 197.35072473346978 2.9999999999999774
    vertex 6.359533314526327 192.65664159319806 2.9999999999999774
    vertex 6.518451937124216 192.8637483743846 2.9999999999999774
  endloop
endfacet
facet normal 2.1205895900516198e-33 1.6964716720412928e-32 1.0
  outer loop
    vertex 6.811281833738802 197.35072473346978 2.9999999999999774
    vertex 6.518451937124216 192.8637483743846 2.9999999999999774
    vertex 6.725558718310766 193.02266699698248 2.9999999999999774
  endloop
endfacet
facet normal 2.1205895900516198e-33 1.6964716720412928e-32 1.0
  outer loop
    vertex 6.811281833738802 197.35072473346978 2.9999999999999774
    vertex 6.725558718310766 193.02266699698248 2.9999999999999774
    vertex 6.966739673208245 193.12256741948713 2.9999999999999774
  endloop
endfacet
facet normal 2.1205895900516198e-33 1.6964716720412928e-32 1.0
  outer loop
    vertex 6.811281833738802 197.35072473346978 2.9999999999999774
    vertex 6.966739673208245 193.12256741948713 2.9999999999999774
    vertex 9.426770115499297 195.3994686424762 2.9999999999999774
  endloop
endfacet
facet normal 2.1205895900516198e-33 1.6964716720412928e-32 1.0
  outer loop
    vertex 9.426770115499297 195.3994686424762 2.9999999999999774
    vertex 6.966739673208245 193.12256741948713 2.9999999999999774
    vertex 7.225558718310769 193.15664159319806 2.9999999999999774
  endloop
endfacet
facet normal 2.1205895900516198e-33 1.6964716720412928e-32 1.0
  outer loop
    vertex 9.426770115499297 195.3994686424762 2.9999999999999774
    vertex 7.225558718310769 193.15664159319806 2.9999999999999774
    vertex 7.484377763413288 193.12256741948713 2.9999999999999774
  endloop
endfacet
facet normal 2.1205895900516198e-33 1.6964716720412928e-32 1.0
  outer loop
    vertex 9.426770115499297 195.3994686424762 2.9999999999999774
    vertex 7.484377763413288 193.12256741948713 2.9999999999999774
    vertex 7.725558718310764 193.02266699698248 2.9999999999999774
  endloop
endfacet
facet normal 2.1205895900516198e-33 1.6964716720412928e-32 1.0
  outer loop
    vertex 9.426770115499297 195.3994686424762 2.9999999999999774
    vertex 7.725558718310764 193.02266699698248 2.9999999999999774
    vertex 7.932665499497326 192.86374837438458 2.9999999999999774
  endloop
endfacet
facet normal 2.1205895900516198e-33 1.6964716720412928e-32 1.0
  outer loop
    vertex 9.426770115499297 195.3994686424762 2.9999999999999774
    vertex 7.932665499497326 192.86374837438458 2.9999999999999774
    vertex 8.091584122095218 192.65664159319803 2.9999999999999774
  endloop
endfacet
facet normal 2.1205895900516198e-33 1.6964716720412928e-32 1.0
  outer loop
    vertex 9.426770115499297 195.3994686424762 2.9999999999999774
    vertex 8.091584122095218 192.65664159319803 2.9999999999999774
    vertex 8.191484544599845 192.41546063830057 2.9999999999999774
  endloop
endfacet
facet normal 2.1205895900516198e-33 1.6964716720412928e-32 1.0
  outer loop
    vertex 9.426770115499297 195.3994686424762 2.9999999999999774
    vertex 8.191484544599845 192.41546063830057 2.9999999999999774
    vertex 8.225558718310769 192.15664159319806 2.9999999999999774
  endloop
endfacet
facet normal 2.1205895900516198e-33 1.6964716720412928e-32 1.0
  outer loop
    vertex -11.320776335701703 183.0434071770296 2.9999999999999774
    vertex -11.40836621886601 189.51329043175144 2.9999999999999774
    vertex -11.790459422075356 186.27258309094952 2.9999999999999774
  endloop
endfacet
facet normal 2.1205895900516198e-33 1.6964716720412928e-32 1.0
  outer loop
    vertex -11.40836621886601 189.51329043175144 2.9999999999999774
    vertex -11.320776335701703 183.0434071770296 2.9999999999999774
    vertex -10.20053574643351 192.54468034968176 2.9999999999999774
  endloop
endfacet
facet normal 2.1205895900516198e-33 1.6964716720412928e-32 1.0
  outer loop
    vertex -10.20053574643351 192.54468034968176 2.9999999999999774
    vertex -11.320776335701703 183.0434071770296 2.9999999999999774
    vertex -10.230367710300508 189.13904044246 2.999999999999978
  endloop
endfacet
facet normal 2.1205895900516198e-33 1.6964716720412928e-32 1.0
  outer loop
    vertex -10.230367710300508 189.13904044246 2.999999999999978
    vertex -11.320776335701703 183.0434071770296 2.9999999999999774
    vertex -10.230367710300508 187.13904044246 2.999999999999978
  endloop
endfacet
facet normal 2.1205895900516198e-33 1.6964716720412928e-32 1.0
  outer loop
    vertex -10.20053574643351 192.54468034968176 2.9999999999999774
    vertex -10.230367710300508 189.13904044246 2.999999999999978
    vertex -1.999665654686261 189.13904044246 2.999999999999978
  endloop
endfacet
facet normal 2.1205895900516198e-33 1.6964716720412928e-32 1.0
  outer loop
    vertex -10.20053574643351 192.54468034968176 2.9999999999999774
    vertex -1.999665654686261 189.13904044246 2.999999999999978
    vertex -8.24927965543989 195.16016863144225 2.9999999999999774
  endloop
endfacet
facet normal 2.1205895900516198e-33 1.6964716720412928e-32 1.0
  outer loop
    vertex -8.24927965543989 195.16016863144225 2.9999999999999774
    vertex -1.999665654686261 189.13904044246 2.999999999999978
    vertex -5.687572823883216 197.1815140729297 2.9999999999999774
  endloop
endfacet
facet normal 2.1205895900516198e-33 1.6964716720412928e-32 1.0
  outer loop
    vertex -5.687572823883216 197.1815140729297 2.9999999999999774
    vertex -1.999665654686261 189.13904044246 2.999999999999978
    vertex -2.689991338913376 198.47096532273798 2.9999999999999774
  endloop
endfacet
facet normal 2.1205895900516198e-33 1.6964716720412928e-32 1.0
  outer loop
    vertex -2.689991338913376 198.47096532273798 2.9999999999999774
    vertex -1.999665654686261 189.13904044246 2.999999999999978
    vertex -1.999665654686261 197.13904044245996 2.999999999999978
  endloop
endfacet
facet normal 2.1205895900516198e-33 1.6964716720412928e-32 1.0
  outer loop
    vertex -2.689991338913376 198.47096532273798 2.9999999999999774
    vertex -1.999665654686261 197.13904044245996 2.999999999999978
    vertex 0.5391845750065634 198.94064840911165 2.9999999999999774
  endloop
endfacet
facet normal 2.1205895900516198e-33 1.6964716720412928e-32 1.0
  outer loop
    vertex 0.5391845750065634 198.94064840911165 2.9999999999999774
    vertex -1.999665654686261 197.13904044245996 2.999999999999978
    vertex 0.0003343453137352403 197.13904044245996 2.999999999999978
  endloop
endfacet
facet normal 2.1205895900516198e-33 1.6964716720412928e-32 1.0
  outer loop
    vertex -0.23036771030050351 189.13904044246 2.999999999999978
    vertex -1.999665654686261 189.13904044246 2.999999999999978
    vertex -0.23036771030050351 187.13904044246 2.999999999999978
  endloop
endfacet
facet normal -0.859177625715206 -0.5116774447543897 0.0
  outer loop
    vertex -10.03132508589341 180.04582569205976 2.9999999999999774
    vertex -8.009979644405975 177.48411886050306 0.9999999999999774
    vertex -8.009979644405975 177.48411886050306 2.9999999999999774
  endloop
endfacet
facet normal -0.6974699903962115 -0.7166139912789231 0.0
  outer loop
    vertex -8.009979644405975 177.48411886050306 0.9999999999999774
    vertex -10.03132508589341 180.04582569205976 2.9999999999999774
    vertex -10.03132508589341 180.04582569205976 0.9999999999999774
  endloop
endfacet
facet normal -0.9999083726097614 -0.013536852843207868 0.0
  outer loop
    vertex -11.790459422075356 186.27258309094952 2.9999999999999774
    vertex -11.320776335701703 183.0434071770296 0.9999999999999774
    vertex -11.320776335701703 183.0434071770296 2.9999999999999774
  endloop
endfacet
facet normal -0.962333725699869 -0.27187092595680296 0.0
  outer loop
    vertex -11.320776335701703 183.0434071770296 0.9999999999999774
    vertex -11.790459422075356 186.27258309094952 2.9999999999999774
    vertex -11.790459422075356 186.27258309094952 0.9999999999999774
  endloop
endfacet
facet normal 0.4999999999999705 -0.8660254037844557 7.372238828417755e-15
  outer loop
    vertex 7.725558718310764 191.2906161894136 2.9999999999999774
    vertex 7.484377763413288 191.190715766909 1.999999999999981
    vertex 7.725558718310768 191.2906161894136 1.999999999999981
  endloop
endfacet
facet normal 0.25881904510252773 -0.9659258262890664 1.190062374185461e-14
  outer loop
    vertex 7.484377763413288 191.190715766909 1.999999999999981
    vertex 7.725558718310764 191.2906161894136 2.9999999999999774
    vertex 7.484377763413282 191.19071576690902 2.9999999999999774
  endloop
endfacet
facet normal -0.7071067811865411 0.7071067811865538 -9.98900493115524e-16
  outer loop
    vertex 6.518451937124216 192.8637483743846 2.9999999999999774
    vertex 6.725558718310766 193.02266699698248 1.999999999999981
    vertex 6.518451937124219 192.8637483743846 1.999999999999981
  endloop
endfacet
facet normal -0.5000000000000207 0.8660254037844267 -4.3217750847322944e-16
  outer loop
    vertex 6.725558718310766 193.02266699698248 1.999999999999981
    vertex 6.518451937124216 192.8637483743846 2.9999999999999774
    vertex 6.725558718310766 193.02266699698248 2.9999999999999774
  endloop
endfacet
facet normal 2.4059996718246437e-16 1.0 -2.6909828716625144e-31
  outer loop
    vertex 7.225558718310769 193.15664159319806 2.9999999999999774
    vertex 7.484377763413288 193.12256741948713 1.999999999999981
    vertex 7.225558718310765 193.15664159319806 1.999999999999981
  endloop
endfacet
facet normal 0.25881904510252524 0.9659258262890671 1.8012567222793136e-16
  outer loop
    vertex 7.484377763413288 193.12256741948713 1.999999999999981
    vertex 7.225558718310769 193.15664159319806 2.9999999999999774
    vertex 7.484377763413288 193.12256741948713 2.9999999999999774
  endloop
endfacet
facet normal -0.2718709259568029 0.962333725699869 0.0
  outer loop
    vertex -2.689991338913376 198.47096532273798 2.9999999999999774
    vertex 0.5391845750065634 198.94064840911165 0.9999999999999774
    vertex -2.689991338913376 198.47096532273798 0.9999999999999774
  endloop
endfacet
facet normal -0.013536852843207582 0.9999083726097614 0.0
  outer loop
    vertex 0.5391845750065634 198.94064840911165 0.9999999999999774
    vertex -2.689991338913376 198.47096532273798 2.9999999999999774
    vertex 0.5391845750065634 198.94064840911165 2.9999999999999774
  endloop
endfacet
facet normal -0.25881904510252435 -0.9659258262890673 -1.1806498020361896e-14
  outer loop
    vertex 6.9667396732082425 191.19071576690897 2.9999999999999774
    vertex 6.725558718310766 191.2906161894136 1.999999999999981
    vertex 6.966739673208245 191.190715766909 1.999999999999981
  endloop
endfacet
facet normal -0.5000000000000078 -0.8660254037844342 -6.5058468889601105e-15
  outer loop
    vertex 6.725558718310766 191.2906161894136 1.999999999999981
    vertex 6.9667396732082425 191.19071576690897 2.9999999999999774
    vertex 6.725558718310761 191.2906161894136 2.9999999999999774
  endloop
endfacet
facet normal 0.8727144785584129 -0.48823092785537187 0.0
  outer loop
    vertex 11.617326217526827 180.33890715329747 0.9999999999999774
    vertex 9.666070126533208 177.723418871537 2.9999999999999774
    vertex 9.666070126533208 177.723418871537 0.9999999999999774
  endloop
endfacet
facet normal 0.716613991278924 -0.6974699903962107 0.0
  outer loop
    vertex 9.666070126533208 177.723418871537 2.9999999999999774
    vertex 11.617326217526827 180.33890715329747 0.9999999999999774
    vertex 11.617326217526827 180.33890715329747 2.9999999999999774
  endloop
endfacet
facet normal -0.8660254037844375 0.5000000000000022 -3.5962705450152133e-16
  outer loop
    vertex 6.359533314526327 192.65664159319806 2.9999999999999774
    vertex 6.259632892021699 192.41546063830057 1.999999999999981
    vertex 6.25963289202169 192.41546063830057 2.9999999999999774
  endloop
endfacet
facet normal -0.9659258262890685 0.2588190451025197 -1.1652839021595706e-15
  outer loop
    vertex 6.259632892021699 192.41546063830057 1.999999999999981
    vertex 6.359533314526327 192.65664159319806 2.9999999999999774
    vertex 6.359533314526327 192.65664159319806 1.999999999999981
  endloop
endfacet
facet normal -0.9659258262890696 0.2588190451025159 -1.1652839021596183e-15
  outer loop
    vertex 6.25963289202169 192.41546063830057 2.9999999999999774
    vertex 6.225558718310767 192.15664159319806 1.999999999999981
    vertex 6.225558718310767 192.15664159319806 2.9999999999999774
  endloop
endfacet
facet normal -1.0 -8.028910015977853e-15 -2.1148457740898703e-15
  outer loop
    vertex 6.225558718310767 192.15664159319806 1.999999999999981
    vertex 6.25963289202169 192.41546063830057 2.9999999999999774
    vertex 6.259632892021699 192.41546063830057 1.999999999999981
  endloop
endfacet
facet normal 0.2718709259568021 -0.9623337256998691 0.0
  outer loop
    vertex 4.106781810006692 174.41262218024124 2.9999999999999774
    vertex 0.8776058960867512 173.94293909386758 0.9999999999999774
    vertex 4.106781810006692 174.41262218024124 0.9999999999999774
  endloop
endfacet
facet normal 0.013536852843205735 -0.9999083726097615 0.0
  outer loop
    vertex 0.8776058960867512 173.94293909386758 0.9999999999999774
    vertex 4.106781810006692 174.41262218024124 2.9999999999999774
    vertex 0.8776058960867512 173.94293909386758 2.9999999999999774
  endloop
endfacet
facet normal 0.0 0.0 -1.0
  outer loop
    vertex 6.259632892021699 192.41546063830057 1.999999999999981
    vertex 6.259632892021699 191.89782254809555 1.999999999999981
    vertex 6.225558718310767 192.15664159319806 1.999999999999981
  endloop
endfacet
facet normal 0.0 0.0 -1.0
  outer loop
    vertex 6.259632892021699 191.89782254809555 1.999999999999981
    vertex 6.259632892021699 192.41546063830057 1.999999999999981
    vertex 6.359533314526327 192.65664159319806 1.999999999999981
  endloop
endfacet
facet normal 0.0 0.0 -1.0
  outer loop
    vertex 6.259632892021699 191.89782254809555 1.999999999999981
    vertex 6.359533314526327 192.65664159319806 1.999999999999981
    vertex 6.359533314526327 191.65664159319806 1.999999999999981
  endloop
endfacet
facet normal 0.0 0.0 -1.0
  outer loop
    vertex 6.359533314526327 191.65664159319806 1.999999999999981
    vertex 6.359533314526327 192.65664159319806 1.999999999999981
    vertex 6.518451937124219 192.8637483743846 1.999999999999981
  endloop
endfacet
facet normal 0.0 0.0 -1.0
  outer loop
    vertex 6.359533314526327 191.65664159319806 1.999999999999981
    vertex 6.518451937124219 192.8637483743846 1.999999999999981
    vertex 6.518451937124219 191.4495348120115 1.999999999999981
  endloop
endfacet
facet normal 0.0 0.0 -1.0
  outer loop
    vertex 6.518451937124219 191.4495348120115 1.999999999999981
    vertex 6.518451937124219 192.8637483743846 1.999999999999981
    vertex 6.725558718310766 193.02266699698248 1.999999999999981
  endloop
endfacet
facet normal 0.0 0.0 -1.0
  outer loop
    vertex 6.518451937124219 191.4495348120115 1.999999999999981
    vertex 6.725558718310766 193.02266699698248 1.999999999999981
    vertex 6.725558718310766 191.2906161894136 1.999999999999981
  endloop
endfacet
facet normal 0.0 0.0 -1.0
  outer loop
    vertex 6.725558718310766 191.2906161894136 1.999999999999981
    vertex 6.725558718310766 193.02266699698248 1.999999999999981
    vertex 6.966739673208245 193.12256741948713 1.999999999999981
  endloop
endfacet
facet normal 0.0 0.0 -1.0
  outer loop
    vertex 6.725558718310766 191.2906161894136 1.999999999999981
    vertex 6.966739673208245 193.12256741948713 1.999999999999981
    vertex 6.966739673208245 191.190715766909 1.999999999999981
  endloop
endfacet
facet normal 0.0 0.0 -1.0
  outer loop
    vertex 6.966739673208245 191.190715766909 1.999999999999981
    vertex 6.966739673208245 193.12256741948713 1.999999999999981
    vertex 7.225558718310765 193.15664159319806 1.999999999999981
  endloop
endfacet
facet normal 0.0 0.0 -1.0
  outer loop
    vertex 6.966739673208245 191.190715766909 1.999999999999981
    vertex 7.225558718310765 193.15664159319806 1.999999999999981
    vertex 7.225558718310765 191.15664159319806 1.999999999999981
  endloop
endfacet
facet normal 0.0 0.0 -1.0
  outer loop
    vertex 7.225558718310765 191.15664159319806 1.999999999999981
    vertex 7.225558718310765 193.15664159319806 1.999999999999981
    vertex 7.484377763413288 193.12256741948713 1.999999999999981
  endloop
endfacet
facet normal 0.0 0.0 -1.0
  outer loop
    vertex 7.225558718310765 191.15664159319806 1.999999999999981
    vertex 7.484377763413288 193.12256741948713 1.999999999999981
    vertex 7.484377763413288 191.190715766909 1.999999999999981
  endloop
endfacet
facet normal 0.0 0.0 -1.0
  outer loop
    vertex 7.484377763413288 191.190715766909 1.999999999999981
    vertex 7.484377763413288 193.12256741948713 1.999999999999981
    vertex 7.725558718310768 193.02266699698248 1.999999999999981
  endloop
endfacet
facet normal 0.0 0.0 -1.0
  outer loop
    vertex 7.484377763413288 191.190715766909 1.999999999999981
    vertex 7.725558718310768 193.02266699698248 1.999999999999981
    vertex 7.725558718310768 191.2906161894136 1.999999999999981
  endloop
endfacet
facet normal 0.0 0.0 -1.0
  outer loop
    vertex 7.725558718310768 191.2906161894136 1.999999999999981
    vertex 7.725558718310768 193.02266699698248 1.999999999999981
    vertex 7.932665499497315 192.8637483743846 1.999999999999981
  endloop
endfacet
facet normal 0.0 0.0 -1.0
  outer loop
    vertex 7.725558718310768 191.2906161894136 1.999999999999981
    vertex 7.932665499497315 192.8637483743846 1.999999999999981
    vertex 7.932665499497315 191.4495348120115 1.999999999999981
  endloop
endfacet
facet normal 0.0 0.0 -1.0
  outer loop
    vertex 7.932665499497315 191.4495348120115 1.999999999999981
    vertex 7.932665499497315 192.8637483743846 1.999999999999981
    vertex 8.091584122095204 192.65664159319806 1.999999999999981
  endloop
endfacet
facet normal 0.0 0.0 -1.0
  outer loop
    vertex 7.932665499497315 191.4495348120115 1.999999999999981
    vertex 8.091584122095204 192.65664159319806 1.999999999999981
    vertex 8.091584122095204 191.65664159319806 1.999999999999981
  endloop
endfacet
facet normal 0.0 0.0 -1.0
  outer loop
    vertex 8.091584122095204 191.65664159319806 1.999999999999981
    vertex 8.091584122095204 192.65664159319806 1.999999999999981
    vertex 8.191484544599838 192.41546063830057 1.999999999999981
  endloop
endfacet
facet normal 0.0 0.0 -1.0
  outer loop
    vertex 8.091584122095204 191.65664159319806 1.999999999999981
    vertex 8.191484544599838 192.41546063830057 1.999999999999981
    vertex 8.191484544599838 191.89782254809552 1.999999999999981
  endloop
endfacet
facet normal 0.0 0.0 -1.0
  outer loop
    vertex 8.191484544599838 191.89782254809552 1.999999999999981
    vertex 8.191484544599838 192.41546063830057 1.999999999999981
    vertex 8.225558718310769 192.15664159319806 1.999999999999981
  endloop
endfacet
facet normal -0.7071067811865411 0.7071067811865538 -9.98900493115524e-16
  outer loop
    vertex 6.518451937124216 192.8637483743846 2.9999999999999774
    vertex 6.359533314526327 192.65664159319806 1.999999999999981
    vertex 6.359533314526327 192.65664159319806 2.9999999999999774
  endloop
endfacet
facet normal -0.8660254037844375 0.5000000000000022 -3.5962705450152133e-16
  outer loop
    vertex 6.359533314526327 192.65664159319806 1.999999999999981
    vertex 6.518451937124216 192.8637483743846 2.9999999999999774
    vertex 6.518451937124219 192.8637483743846 1.999999999999981
  endloop
endfacet
facet normal -0.8727144785584134 0.4882309278553711 0.0
  outer loop
    vertex -10.20053574643351 192.54468034968176 2.9999999999999774
    vertex -11.40836621886601 189.51329043175144 0.9999999999999774
    vertex -11.40836621886601 189.51329043175144 2.9999999999999774
  endloop
endfacet
facet normal -0.9693409163530137 0.24571973442094497 0.0
  outer loop
    vertex -11.40836621886601 189.51329043175144 0.9999999999999774
    vertex -10.20053574643351 192.54468034968176 2.9999999999999774
    vertex -10.20053574643351 192.54468034968176 0.9999999999999774
  endloop
endfacet
facet normal 0.8660254037844328 -0.5000000000000102 -9.413736191640267e-17
  outer loop
    vertex 8.091584122095204 191.65664159319806 1.999999999999981
    vertex 8.19148454459983 191.89782254809552 2.9999999999999774
    vertex 8.091584122095199 191.65664159319803 2.9999999999999774
  endloop
endfacet
facet normal 0.9659258262890655 -0.2588190451025308 3.2236017861491087e-15
  outer loop
    vertex 8.19148454459983 191.89782254809552 2.9999999999999774
    vertex 8.091584122095204 191.65664159319806 1.999999999999981
    vertex 8.191484544599838 191.89782254809552 1.999999999999981
  endloop
endfacet
facet normal 0.8660254037844333 0.500000000000009 9.478985514765705e-16
  outer loop
    vertex 8.091584122095204 192.65664159319806 1.999999999999981
    vertex 7.932665499497326 192.86374837438458 2.9999999999999774
    vertex 8.091584122095218 192.65664159319803 2.9999999999999774
  endloop
endfacet
facet normal 0.7071067811865499 0.707106781186545 5.063135912590784e-15
  outer loop
    vertex 7.932665499497326 192.86374837438458 2.9999999999999774
    vertex 8.091584122095204 192.65664159319806 1.999999999999981
    vertex 7.932665499497315 192.8637483743846 1.999999999999981
  endloop
endfacet
facet normal 1.0 -1.3250820414826943e-14 7.424659417894133e-16
  outer loop
    vertex 8.225558718310769 192.15664159319806 1.999999999999981
    vertex 8.19148454459983 191.89782254809552 2.9999999999999774
    vertex 8.191484544599838 191.89782254809552 1.999999999999981
  endloop
endfacet
facet normal 0.9659258262890655 -0.2588190451025308 3.2236017861491087e-15
  outer loop
    vertex 8.19148454459983 191.89782254809552 2.9999999999999774
    vertex 8.225558718310769 192.15664159319806 1.999999999999981
    vertex 8.225558718310769 192.15664159319806 2.9999999999999774
  endloop
endfacet
facet normal 0.4882309278553708 0.8727144785584136 0.0
  outer loop
    vertex 6.811281833738802 197.35072473346978 2.9999999999999774
    vertex 9.426770115499297 195.3994686424762 0.9999999999999774
    vertex 6.811281833738802 197.35072473346978 0.9999999999999774
  endloop
endfacet
facet normal 0.6974699903962107 0.7166139912789239 0.0
  outer loop
    vertex 9.426770115499297 195.3994686424762 0.9999999999999774
    vertex 6.811281833738802 197.35072473346978 2.9999999999999774
    vertex 9.426770115499297 195.3994686424762 2.9999999999999774
  endloop
endfacet
facet normal -0.24571973442094536 -0.9693409163530134 0.0
  outer loop
    vertex -2.3631014447151553 174.32503229707694 2.9999999999999774
    vertex -5.394491362645483 175.53286276950945 0.9999999999999774
    vertex -2.3631014447151553 174.32503229707694 0.9999999999999774
  endloop
endfacet
facet normal -0.48823092785537037 -0.8727144785584139 0.0
  outer loop
    vertex -5.394491362645483 175.53286276950945 0.9999999999999774
    vertex -2.3631014447151553 174.32503229707694 2.9999999999999774
    vertex -5.394491362645483 175.53286276950945 2.9999999999999774
  endloop
endfacet
facet normal -0.2588190451025243 0.9659258262890673 9.323990896887127e-17
  outer loop
    vertex 6.966739673208245 193.12256741948713 2.9999999999999774
    vertex 7.225558718310765 193.15664159319806 1.999999999999981
    vertex 6.966739673208245 193.12256741948713 1.999999999999981
  endloop
endfacet
facet normal -2.4059996718246437e-16 1.0 4.115620862542669e-31
  outer loop
    vertex 7.225558718310765 193.15664159319806 1.999999999999981
    vertex 6.966739673208245 193.12256741948713 2.9999999999999774
    vertex 7.225558718310769 193.15664159319806 2.9999999999999774
  endloop
endfacet
facet normal 4.320106077409631e-14 -0.9999999999999999 9.208879898168976e-17
  outer loop
    vertex 7.225558718310765 191.15664159319806 2.9999999999999774
    vertex 6.966739673208245 191.190715766909 1.999999999999981
    vertex 7.225558718310765 191.15664159319806 1.999999999999981
  endloop
endfacet
facet normal -0.25881904510252485 -0.9659258262890671 -1.1806498020361898e-14
  outer loop
    vertex 6.966739673208245 191.190715766909 1.999999999999981
    vertex 7.225558718310765 191.15664159319806 2.9999999999999774
    vertex 6.9667396732082425 191.19071576690897 2.9999999999999774
  endloop
endfacet
facet normal -0.5000000000000207 0.8660254037844267 -4.3217750847322944e-16
  outer loop
    vertex 6.725558718310766 193.02266699698248 2.9999999999999774
    vertex 6.966739673208245 193.12256741948713 1.999999999999981
    vertex 6.725558718310766 193.02266699698248 1.999999999999981
  endloop
endfacet
facet normal -0.2588190451025243 0.9659258262890673 9.323990896887127e-17
  outer loop
    vertex 6.966739673208245 193.12256741948713 1.999999999999981
    vertex 6.725558718310766 193.02266699698248 2.9999999999999774
    vertex 6.966739673208245 193.12256741948713 2.9999999999999774
  endloop
endfacet
facet normal 0.7071067811865354 -0.7071067811865598 9.36391514439424e-17
  outer loop
    vertex 7.932665499497309 191.4495348120115 2.9999999999999774
    vertex 7.725558718310768 191.2906161894136 1.999999999999981
    vertex 7.932665499497315 191.4495348120115 1.999999999999981
  endloop
endfacet
facet normal 0.49999999999997086 -0.8660254037844555 7.37223882841774e-15
  outer loop
    vertex 7.725558718310768 191.2906161894136 1.999999999999981
    vertex 7.932665499497309 191.4495348120115 2.9999999999999774
    vertex 7.725558718310764 191.2906161894136 2.9999999999999774
  endloop
endfacet
facet normal 0.9693409163530134 -0.24571973442094555 0.0
  outer loop
    vertex 12.82515668995933 183.37029707122778 0.9999999999999774
    vertex 11.617326217526827 180.33890715329747 2.9999999999999774
    vertex 11.617326217526827 180.33890715329747 0.9999999999999774
  endloop
endfacet
facet normal 0.8727144785584129 -0.48823092785537187 0.0
  outer loop
    vertex 11.617326217526827 180.33890715329747 2.9999999999999774
    vertex 12.82515668995933 183.37029707122778 0.9999999999999774
    vertex 12.82515668995933 183.37029707122778 2.9999999999999774
  endloop
endfacet
facet normal 0.0 0.0 -1.0
  outer loop
    vertex -11.40836621886601 189.51329043175144 0.9999999999999774
    vertex -11.320776335701703 183.0434071770296 0.9999999999999774
    vertex -11.790459422075356 186.27258309094952 0.9999999999999774
  endloop
endfacet
facet normal 0.0 0.0 -1.0
  outer loop
    vertex -11.320776335701703 183.0434071770296 0.9999999999999774
    vertex -11.40836621886601 189.51329043175144 0.9999999999999774
    vertex -10.20053574643351 192.54468034968176 0.9999999999999774
  endloop
endfacet
facet normal 0.0 0.0 -1.0
  outer loop
    vertex -11.320776335701703 183.0434071770296 0.9999999999999774
    vertex -10.20053574643351 192.54468034968176 0.9999999999999774
    vertex -10.03132508589341 180.04582569205976 0.9999999999999774
  endloop
endfacet
facet normal 0.0 0.0 -1.0
  outer loop
    vertex -10.03132508589341 180.04582569205976 0.9999999999999774
    vertex -10.20053574643351 192.54468034968176 0.9999999999999774
    vertex -8.24927965543989 195.16016863144225 0.9999999999999774
  endloop
endfacet
facet normal 0.0 0.0 -1.0
  outer loop
    vertex -10.03132508589341 180.04582569205976 0.9999999999999774
    vertex -8.24927965543989 195.16016863144225 0.9999999999999774
    vertex -8.009979644405975 177.48411886050306 0.9999999999999774
  endloop
endfacet
facet normal 0.0 0.0 -1.0
  outer loop
    vertex -8.009979644405975 177.48411886050306 0.9999999999999774
    vertex -8.24927965543989 195.16016863144225 0.9999999999999774
    vertex -5.687572823883216 197.1815140729297 0.9999999999999774
  endloop
endfacet
facet normal 0.0 0.0 -1.0
  outer loop
    vertex -8.009979644405975 177.48411886050306 0.9999999999999774
    vertex -5.687572823883216 197.1815140729297 0.9999999999999774
    vertex -5.394491362645483 175.53286276950945 0.9999999999999774
  endloop
endfacet
facet normal 0.0 0.0 -1.0
  outer loop
    vertex -5.394491362645483 175.53286276950945 0.9999999999999774
    vertex -5.687572823883216 197.1815140729297 0.9999999999999774
    vertex -2.689991338913376 198.47096532273798 0.9999999999999774
  endloop
endfacet
facet normal 0.0 0.0 -1.0
  outer loop
    vertex -5.394491362645483 175.53286276950945 0.9999999999999774
    vertex -2.689991338913376 198.47096532273798 0.9999999999999774
    vertex -2.3631014447151553 174.32503229707694 0.9999999999999774
  endloop
endfacet
facet normal 0.0 0.0 -1.0
  outer loop
    vertex -2.3631014447151553 174.32503229707694 0.9999999999999774
    vertex -2.689991338913376 198.47096532273798 0.9999999999999774
    vertex 0.5391845750065634 198.94064840911165 0.9999999999999774
  endloop
endfacet
facet normal 0.0 0.0 -1.0
  outer loop
    vertex -2.3631014447151553 174.32503229707694 0.9999999999999774
    vertex 0.5391845750065634 198.94064840911165 0.9999999999999774
    vertex 0.8776058960867512 173.94293909386758 0.9999999999999774
  endloop
endfacet
facet normal 0.0 0.0 -1.0
  outer loop
    vertex 0.8776058960867512 173.94293909386758 0.9999999999999774
    vertex 0.5391845750065634 198.94064840911165 0.9999999999999774
    vertex 3.7798919158084745 198.55855520590228 0.9999999999999774
  endloop
endfacet
facet normal 0.0 0.0 -1.0
  outer loop
    vertex 0.8776058960867512 173.94293909386758 0.9999999999999774
    vertex 3.7798919158084745 198.55855520590228 0.9999999999999774
    vertex 4.106781810006692 174.41262218024124 0.9999999999999774
  endloop
endfacet
facet normal 0.0 0.0 -1.0
  outer loop
    vertex 4.106781810006692 174.41262218024124 0.9999999999999774
    vertex 3.7798919158084745 198.55855520590228 0.9999999999999774
    vertex 6.811281833738802 197.35072473346978 0.9999999999999774
  endloop
endfacet
facet normal 0.0 0.0 -1.0
  outer loop
    vertex 4.106781810006692 174.41262218024124 0.9999999999999774
    vertex 6.811281833738802 197.35072473346978 0.9999999999999774
    vertex 7.104363294976532 175.70207343004952 0.9999999999999774
  endloop
endfacet
facet normal 0.0 0.0 -1.0
  outer loop
    vertex 7.104363294976532 175.70207343004952 0.9999999999999774
    vertex 6.811281833738802 197.35072473346978 0.9999999999999774
    vertex 9.426770115499297 195.3994686424762 0.9999999999999774
  endloop
endfacet
facet normal 0.0 0.0 -1.0
  outer loop
    vertex 7.104363294976532 175.70207343004952 0.9999999999999774
    vertex 9.426770115499297 195.3994686424762 0.9999999999999774
    vertex 9.666070126533208 177.723418871537 0.9999999999999774
  endloop
endfacet
facet normal 0.0 0.0 -1.0
  outer loop
    vertex 9.666070126533208 177.723418871537 0.9999999999999774
    vertex 9.426770115499297 195.3994686424762 0.9999999999999774
    vertex 11.448115556986739 192.8377618109195 0.9999999999999774
  endloop
endfacet
facet normal 0.0 0.0 -1.0
  outer loop
    vertex 9.666070126533208 177.723418871537 0.9999999999999774
    vertex 11.448115556986739 192.8377618109195 0.9999999999999774
    vertex 11.617326217526827 180.33890715329747 0.9999999999999774
  endloop
endfacet
facet normal 0.0 0.0 -1.0
  outer loop
    vertex 11.617326217526827 180.33890715329747 0.9999999999999774
    vertex 11.448115556986739 192.8377618109195 0.9999999999999774
    vertex 12.737566806795025 189.84018032594963 0.9999999999999774
  endloop
endfacet
facet normal 0.0 0.0 -1.0
  outer loop
    vertex 11.617326217526827 180.33890715329747 0.9999999999999774
    vertex 12.737566806795025 189.84018032594963 0.9999999999999774
    vertex 12.82515668995933 183.37029707122778 0.9999999999999774
  endloop
endfacet
facet normal 0.0 0.0 -1.0
  outer loop
    vertex 12.82515668995933 183.37029707122778 0.9999999999999774
    vertex 12.737566806795025 189.84018032594963 0.9999999999999774
    vertex 13.207249893168681 186.61100441202973 0.9999999999999774
  endloop
endfacet
facet normal 0.6974699903962107 0.7166139912789239 0.0
  outer loop
    vertex 9.426770115499297 195.3994686424762 0.9999999999999774
    vertex 11.448115556986739 192.8377618109195 2.9999999999999774
    vertex 11.448115556986739 192.8377618109195 0.9999999999999774
  endloop
endfacet
facet normal 0.859177625715206 0.5116774447543898 0.0
  outer loop
    vertex 11.448115556986739 192.8377618109195 2.9999999999999774
    vertex 9.426770115499297 195.3994686424762 0.9999999999999774
    vertex 9.426770115499297 195.3994686424762 2.9999999999999774
  endloop
endfacet
facet normal -0.013536852843207582 0.9999083726097614 0.0
  outer loop
    vertex 0.5391845750065634 198.94064840911165 2.9999999999999774
    vertex 3.7798919158084745 198.55855520590228 0.9999999999999774
    vertex 0.5391845750065634 198.94064840911165 0.9999999999999774
  endloop
endfacet
facet normal 0.24571973442094444 0.9693409163530137 0.0
  outer loop
    vertex 3.7798919158084745 198.55855520590228 0.9999999999999774
    vertex 0.5391845750065634 198.94064840911165 2.9999999999999774
    vertex 3.7798919158084745 198.55855520590228 2.9999999999999774
  endloop
endfacet
facet normal 0.859177625715206 0.5116774447543898 0.0
  outer loop
    vertex 11.448115556986739 192.8377618109195 0.9999999999999774
    vertex 12.737566806795025 189.84018032594963 2.9999999999999774
    vertex 12.737566806795025 189.84018032594963 0.9999999999999774
  endloop
endfacet
facet normal 0.9623337256998691 0.27187092595680257 0.0
  outer loop
    vertex 12.737566806795025 189.84018032594963 2.9999999999999774
    vertex 11.448115556986739 192.8377618109195 0.9999999999999774
    vertex 11.448115556986739 192.8377618109195 2.9999999999999774
  endloop
endfacet
facet normal -0.9659258262890669 -0.2588190451025265 -1.1546208795598776e-15
  outer loop
    vertex 6.259632892021699 191.89782254809552 2.9999999999999774
    vertex 6.359533314526327 191.65664159319806 1.999999999999981
    vertex 6.3595333145263435 191.65664159319803 2.9999999999999774
  endloop
endfacet
facet normal -0.8660254037844367 -0.5000000000000036 7.462577209480512e-17
  outer loop
    vertex 6.359533314526327 191.65664159319806 1.999999999999981
    vertex 6.259632892021699 191.89782254809552 2.9999999999999774
    vertex 6.259632892021699 191.89782254809555 1.999999999999981
  endloop
endfacet
facet normal 0.9999083726097614 0.013536852843207412 0.0
  outer loop
    vertex 13.207249893168681 186.61100441202973 0.9999999999999774
    vertex 12.82515668995933 183.37029707122778 2.9999999999999774
    vertex 12.82515668995933 183.37029707122778 0.9999999999999774
  endloop
endfacet
facet normal 0.9693409163530134 -0.24571973442094555 0.0
  outer loop
    vertex 12.82515668995933 183.37029707122778 2.9999999999999774
    vertex 13.207249893168681 186.61100441202973 0.9999999999999774
    vertex 13.207249893168681 186.61100441202973 2.9999999999999774
  endloop
endfacet
facet normal -0.962333725699869 -0.27187092595680296 0.0
  outer loop
    vertex -11.320776335701703 183.0434071770296 2.9999999999999774
    vertex -10.03132508589341 180.04582569205976 0.9999999999999774
    vertex -10.03132508589341 180.04582569205976 2.9999999999999774
  endloop
endfacet
facet normal -0.859177625715206 -0.5116774447543897 0.0
  outer loop
    vertex -10.03132508589341 180.04582569205976 0.9999999999999774
    vertex -11.320776335701703 183.0434071770296 2.9999999999999774
    vertex -11.320776335701703 183.0434071770296 0.9999999999999774
  endloop
endfacet
facet normal -0.9693409163530137 0.24571973442094497 0.0
  outer loop
    vertex -11.40836621886601 189.51329043175144 2.9999999999999774
    vertex -11.790459422075356 186.27258309094952 0.9999999999999774
    vertex -11.790459422075356 186.27258309094952 2.9999999999999774
  endloop
endfacet
facet normal -0.9999083726097614 -0.013536852843207868 0.0
  outer loop
    vertex -11.790459422075356 186.27258309094952 0.9999999999999774
    vertex -11.40836621886601 189.51329043175144 2.9999999999999774
    vertex -11.40836621886601 189.51329043175144 0.9999999999999774
  endloop
endfacet
facet normal 0.2588190451025278 -0.9659258262890664 1.190062374185461e-14
  outer loop
    vertex 7.484377763413282 191.19071576690902 2.9999999999999774
    vertex 7.225558718310765 191.15664159319806 1.999999999999981
    vertex 7.484377763413288 191.190715766909 1.999999999999981
  endloop
endfacet
facet normal 4.320106077409631e-14 -0.9999999999999999 9.208879898168976e-17
  outer loop
    vertex 7.225558718310765 191.15664159319806 1.999999999999981
    vertex 7.484377763413282 191.19071576690902 2.9999999999999774
    vertex 7.225558718310765 191.15664159319806 2.9999999999999774
  endloop
endfacet
facet normal -1.0 -8.028910015977853e-15 -2.1148457740898703e-15
  outer loop
    vertex 6.225558718310767 192.15664159319806 2.9999999999999774
    vertex 6.259632892021699 191.89782254809555 1.999999999999981
    vertex 6.259632892021699 191.89782254809552 2.9999999999999774
  endloop
endfacet
facet normal -0.9659258262890678 -0.2588190451025231 -1.1546208795598867e-15
  outer loop
    vertex 6.259632892021699 191.89782254809555 1.999999999999981
    vertex 6.225558718310767 192.15664159319806 2.9999999999999774
    vertex 6.225558718310767 192.15664159319806 1.999999999999981
  endloop
endfacet
facet normal 1.0 -0.0 -0.0
  outer loop
    vertex 11.568411602383398 185.80926297952638 2.999999999999978
    vertex 11.568411602383398 183.80926297952638 12.999999999999977
    vertex 11.568411602383398 183.80926297952638 2.999999999999978
  endloop
endfacet
facet normal 1.0 -0.0 -0.0
  outer loop
    vertex 11.568411602383398 183.80926297952638 12.999999999999977
    vertex 11.568411602383398 185.80926297952638 2.999999999999978
    vertex 11.568411602383398 185.80926297952638 12.999999999999977
  endloop
endfacet
facet normal 0.0 -1.0 0.0
  outer loop
    vertex 11.568411602383398 183.80926297952638 12.999999999999977
    vertex 3.337709546769151 183.80926297952638 2.999999999999978
    vertex 11.568411602383398 183.80926297952638 2.999999999999978
  endloop
endfacet
facet normal 0.0 -1.0 0.0
  outer loop
    vertex 3.337709546769151 183.80926297952638 2.999999999999978
    vertex 11.568411602383398 183.80926297952638 12.999999999999977
    vertex 3.337709546769151 183.80926297952638 12.999999999999977
  endloop
endfacet
facet normal 1.0 -0.0 -0.0
  outer loop
    vertex 3.337709546769151 183.80926297952638 2.999999999999978
    vertex 3.337709546769151 175.8092629795264 12.999999999999977
    vertex 3.337709546769151 175.8092629795264 2.999999999999978
  endloop
endfacet
facet normal 1.0 -0.0 -0.0
  outer loop
    vertex 3.337709546769151 175.8092629795264 12.999999999999977
    vertex 3.337709546769151 183.80926297952638 2.999999999999978
    vertex 3.337709546769151 183.80926297952638 12.999999999999977
  endloop
endfacet
facet normal 1.127986593019161e-14 -1.0 0.0
  outer loop
    vertex 3.337709546769151 175.8092629795264 12.999999999999977
    vertex 1.3377095467691547 175.80926297952638 2.999999999999978
    vertex 3.337709546769151 175.8092629795264 2.999999999999978
  endloop
endfacet
facet normal 1.127986593019161e-14 -1.0 0.0
  outer loop
    vertex 1.3377095467691547 175.80926297952638 2.999999999999978
    vertex 3.337709546769151 175.8092629795264 12.999999999999977
    vertex 1.3377095467691547 175.80926297952638 12.999999999999977
  endloop
endfacet
facet normal -1.0 1.1279865930191585e-15 0.0
  outer loop
    vertex 1.3377095467691658 185.80926297952638 12.999999999999977
    vertex 1.3377095467691547 175.80926297952638 2.999999999999978
    vertex 1.3377095467691547 175.80926297952638 12.999999999999977
  endloop
endfacet
facet normal -1.0 1.1279865930191585e-15 0.0
  outer loop
    vertex 1.3377095467691547 175.80926297952638 2.999999999999978
    vertex 1.3377095467691658 185.80926297952638 12.999999999999977
    vertex 1.3377095467691658 185.80926297952638 2.999999999999978
  endloop
endfacet
facet normal 2.2051010514965816e-15 1.0 -0.0
  outer loop
    vertex 1.3377095467691658 185.80926297952638 12.999999999999977
    vertex 11.568411602383398 185.80926297952638 2.999999999999978
    vertex 1.3377095467691658 185.80926297952638 2.999999999999978
  endloop
endfacet
facet normal 2.2051010514965816e-15 1.0 -0.0
  outer loop
    vertex 11.568411602383398 185.80926297952638 2.999999999999978
    vertex 1.3377095467691658 185.80926297952638 12.999999999999977
    vertex 11.568411602383398 185.80926297952638 12.999999999999977
  endloop
endfacet
facet normal 0.0 0.0 1.0
  outer loop
    vertex 3.337709546769151 175.8092629795264 12.999999999999977
    vertex 1.3377095467691658 185.80926297952638 12.999999999999977
    vertex 1.3377095467691547 175.80926297952638 12.999999999999977
  endloop
endfacet
facet normal 0.0 0.0 1.0
  outer loop
    vertex 1.3377095467691658 185.80926297952638 12.999999999999977
    vertex 3.337709546769151 175.8092629795264 12.999999999999977
    vertex 3.337709546769151 183.80926297952638 12.999999999999977
  endloop
endfacet
facet normal 0.0 0.0 1.0
  outer loop
    vertex 1.3377095467691658 185.80926297952638 12.999999999999977
    vertex 3.337709546769151 183.80926297952638 12.999999999999977
    vertex 11.568411602383398 185.80926297952638 12.999999999999977
  endloop
endfacet
facet normal 0.0 0.0 1.0
  outer loop
    vertex 11.568411602383398 185.80926297952638 12.999999999999977
    vertex 3.337709546769151 183.80926297952638 12.999999999999977
    vertex 11.568411602383398 183.80926297952638 12.999999999999977
  endloop
endfacet
endsolid frag ver 2
