solid frag ver 2
facet normal 0.0 0.0 1.0
  outer loop
    vertex -41.74971317867995 240.2189318086408 6.999999999999998
    vertex -50.98041523429418 242.2189318086408 6.999999999999998
    vertex -50.98041523429418 240.2189318086408 6.999999999999998
  endloop
endfacet
facet normal 0.0 0.0 1.0
  outer loop
    vertex -50.98041523429418 242.2189318086408 6.999999999999998
    vertex -41.74971317867995 240.2189318086408 6.999999999999998
    vertex -43.74971317867995 242.2189318086408 6.999999999999998
  endloop
endfacet
facet normal 0.0 0.0 1.0
  outer loop
    vertex -43.74971317867995 242.2189318086408 6.999999999999998
    vertex -41.74971317867995 240.2189318086408 6.999999999999998
    vertex -43.74971317867995 249.21893180864083 6.999999999999998
  endloop
endfacet
facet normal 0.0 0.0 1.0
  outer loop
    vertex -43.74971317867995 249.21893180864083 6.999999999999998
    vertex -41.74971317867995 240.2189318086408 6.999999999999998
    vertex -41.74971317867995 249.21893180864083 6.999999999999998
  endloop
endfacet
facet normal 1.0 -1.1279865930191585e-15 0.0
  outer loop
    vertex -41.74971317867995 249.21893180864083 2.0
    vertex -41.74971317867995 240.2189318086408 6.999999999999998
    vertex -41.74971317867995 240.2189318086408 2.0
  endloop
endfacet
facet normal 1.0 -1.1279865930191585e-15 0.0
  outer loop
    vertex -41.74971317867995 240.2189318086408 6.999999999999998
    vertex -41.74971317867995 249.21893180864083 2.0
    vertex -41.74971317867995 249.21893180864083 6.999999999999998
  endloop
endfacet
facet normal -0.9999083726097614 -0.013536852843207868 0.0
  outer loop
    vertex -53.54050694606904 239.3524744571303 1.9999999999999998
    vertex -53.07082385969538 236.12329854321035 0.0
    vertex -53.07082385969538 236.12329854321035 1.9999999999999998
  endloop
endfacet
facet normal -0.962333725699869 -0.27187092595680296 0.0
  outer loop
    vertex -53.07082385969538 236.12329854321035 0.0
    vertex -53.54050694606904 239.3524744571303 1.9999999999999998
    vertex -53.54050694606904 239.3524744571303 0.0
  endloop
endfacet
facet normal 0.9659258262890675 0.25881904510252357 -2.2740399142187893e-15
  outer loop
    vertex -33.55856297939385 245.49535200448136 1.0000000000000036
    vertex -33.52448880568291 245.23653295937882 1.9999999999999998
    vertex -33.52448880568291 245.23653295937882 1.0000000000000036
  endloop
endfacet
facet normal 1.0 -1.3241909304931296e-14 7.424659417894128e-16
  outer loop
    vertex -33.52448880568291 245.23653295937882 1.9999999999999998
    vertex -33.55856297939385 245.49535200448136 1.0000000000000036
    vertex -33.558562979393834 245.49535200448136 1.9999999999999998
  endloop
endfacet
facet normal -0.2588190451025254 -0.9659258262890671 -1.1806498020361901e-14
  outer loop
    vertex -34.78330785078544 244.27060713308978 1.9999999999999998
    vertex -35.02448880568291 244.37050755559443 1.0000000000000036
    vertex -34.78330785078543 244.27060713308978 1.0000000000000036
  endloop
endfacet
facet normal -0.5000000000000073 -0.8660254037844344 -6.5058468889601255e-15
  outer loop
    vertex -35.02448880568291 244.37050755559443 1.0000000000000036
    vertex -34.78330785078544 244.27060713308978 1.9999999999999998
    vertex -35.024488805682914 244.37050755559443 1.9999999999999998
  endloop
endfacet
facet normal 0.9693409163530134 -0.24571973442094555 0.0
  outer loop
    vertex -28.924890834034343 236.45018843740854 0.0
    vertex -30.13272130646685 233.41879851947823 1.9999999999999998
    vertex -30.13272130646685 233.41879851947823 0.0
  endloop
endfacet
facet normal 0.8727144785584129 -0.48823092785537187 0.0
  outer loop
    vertex -30.13272130646685 233.41879851947823 1.9999999999999998
    vertex -28.924890834034343 236.45018843740854 0.0
    vertex -28.924890834034343 236.45018843740854 1.9999999999999998
  endloop
endfacet
facet normal 0.2588190451025278 -0.9659258262890664 1.190062374185461e-14
  outer loop
    vertex -34.265669760580394 244.27060713308978 1.9999999999999998
    vertex -34.52448880568291 244.23653295937885 1.0000000000000036
    vertex -34.265669760580394 244.27060713308978 1.0000000000000036
  endloop
endfacet
facet normal 4.318323855430502e-14 -1.0 9.208879898168774e-17
  outer loop
    vertex -34.52448880568291 244.23653295937885 1.0000000000000036
    vertex -34.265669760580394 244.27060713308978 1.9999999999999998
    vertex -34.52448880568291 244.23653295937885 1.9999999999999998
  endloop
endfacet
facet normal -0.5000000000000088 -0.8660254037844336 -6.505846888960058e-15
  outer loop
    vertex -35.024488805682914 244.37050755559443 1.9999999999999998
    vertex -35.23159558686945 244.5294261781923 1.0000000000000036
    vertex -35.02448880568291 244.37050755559443 1.0000000000000036
  endloop
endfacet
facet normal -0.7071067811865425 -0.7071067811865525 5.4603201391950755e-17
  outer loop
    vertex -35.23159558686945 244.5294261781923 1.0000000000000036
    vertex -35.024488805682914 244.37050755559443 1.9999999999999998
    vertex -35.23159558686945 244.5294261781923 1.9999999999999998
  endloop
endfacet
facet normal 2.1205895900516198e-33 1.6964716720412928e-32 1.0
  outer loop
    vertex -34.64568422901715 228.78196479623034 1.9999999999999998
    vertex -35.52448880568291 245.23653295937882 1.9999999999999998
    vertex -37.64326571398698 227.49251354642203 1.9999999999999998
  endloop
endfacet
facet normal 2.1205895900516198e-33 1.6964716720412928e-32 1.0
  outer loop
    vertex -35.52448880568291 245.23653295937882 1.9999999999999998
    vertex -34.64568422901715 228.78196479623034 1.9999999999999998
    vertex -35.49041463197198 244.97771391427628 1.9999999999999998
  endloop
endfacet
facet normal 2.1205895900516198e-33 1.6964716720412928e-32 1.0
  outer loop
    vertex -35.49041463197198 244.97771391427628 1.9999999999999998
    vertex -34.64568422901715 228.78196479623034 1.9999999999999998
    vertex -35.39051420946734 244.73653295937885 1.9999999999999998
  endloop
endfacet
facet normal 2.1205895900516198e-33 1.6964716720412928e-32 1.0
  outer loop
    vertex -35.39051420946734 244.73653295937885 1.9999999999999998
    vertex -34.64568422901715 228.78196479623034 1.9999999999999998
    vertex -35.23159558686945 244.5294261781923 1.9999999999999998
  endloop
endfacet
facet normal 2.1205895900516198e-33 1.6964716720412928e-32 1.0
  outer loop
    vertex -35.23159558686945 244.5294261781923 1.9999999999999998
    vertex -34.64568422901715 228.78196479623034 1.9999999999999998
    vertex -35.024488805682914 244.37050755559443 1.9999999999999998
  endloop
endfacet
facet normal 2.1205895900516198e-33 1.6964716720412928e-32 1.0
  outer loop
    vertex -35.024488805682914 244.37050755559443 1.9999999999999998
    vertex -34.64568422901715 228.78196479623034 1.9999999999999998
    vertex -34.78330785078544 244.27060713308978 1.9999999999999998
  endloop
endfacet
facet normal 2.1205895900516198e-33 1.6964716720412928e-32 1.0
  outer loop
    vertex -34.78330785078544 244.27060713308978 1.9999999999999998
    vertex -34.64568422901715 228.78196479623034 1.9999999999999998
    vertex -34.52448880568291 244.23653295937885 1.9999999999999998
  endloop
endfacet
facet normal 2.1205895900516198e-33 1.6964716720412928e-32 1.0
  outer loop
    vertex -34.52448880568291 244.23653295937885 1.9999999999999998
    vertex -34.64568422901715 228.78196479623034 1.9999999999999998
    vertex -32.083977397460465 230.80331023771777 1.9999999999999998
  endloop
endfacet
facet normal 2.1205895900516198e-33 1.6964716720412928e-32 1.0
  outer loop
    vertex -34.52448880568291 244.23653295937885 1.9999999999999998
    vertex -32.083977397460465 230.80331023771777 1.9999999999999998
    vertex -34.265669760580394 244.27060713308978 1.9999999999999998
  endloop
endfacet
facet normal 2.1205895900516198e-33 1.6964716720412928e-32 1.0
  outer loop
    vertex -34.265669760580394 244.27060713308978 1.9999999999999998
    vertex -32.083977397460465 230.80331023771777 1.9999999999999998
    vertex -34.02448880568291 244.37050755559443 1.9999999999999998
  endloop
endfacet
facet normal 2.1205895900516198e-33 1.6964716720412928e-32 1.0
  outer loop
    vertex -34.02448880568291 244.37050755559443 1.9999999999999998
    vertex -32.083977397460465 230.80331023771777 1.9999999999999998
    vertex -33.81738202449637 244.5294261781923 1.9999999999999998
  endloop
endfacet
facet normal 2.1205895900516198e-33 1.6964716720412928e-32 1.0
  outer loop
    vertex -33.81738202449637 244.5294261781923 1.9999999999999998
    vertex -32.083977397460465 230.80331023771777 1.9999999999999998
    vertex -33.65846340189847 244.73653295937885 1.9999999999999998
  endloop
endfacet
facet normal 2.1205895900516198e-33 1.6964716720412928e-32 1.0
  outer loop
    vertex -33.65846340189847 244.73653295937885 1.9999999999999998
    vertex -32.083977397460465 230.80331023771777 1.9999999999999998
    vertex -33.55856297939385 244.97771391427628 1.9999999999999998
  endloop
endfacet
facet normal 2.1205895900516198e-33 1.6964716720412928e-32 1.0
  outer loop
    vertex -33.55856297939385 244.97771391427628 1.9999999999999998
    vertex -32.083977397460465 230.80331023771777 1.9999999999999998
    vertex -33.52448880568291 245.23653295937882 1.9999999999999998
  endloop
endfacet
facet normal 2.1205895900516198e-33 1.6964716720412928e-32 1.0
  outer loop
    vertex -33.52448880568291 245.23653295937882 1.9999999999999998
    vertex -32.083977397460465 230.80331023771777 1.9999999999999998
    vertex -32.32327740849438 248.47936000865698 1.9999999999999998
  endloop
endfacet
facet normal 2.1205895900516198e-33 1.6964716720412928e-32 1.0
  outer loop
    vertex -32.32327740849438 248.47936000865698 1.9999999999999998
    vertex -32.083977397460465 230.80331023771777 1.9999999999999998
    vertex -30.30193196700694 245.91765317710025 1.9999999999999998
  endloop
endfacet
facet normal 2.1205895900516198e-33 1.6964716720412928e-32 1.0
  outer loop
    vertex -30.30193196700694 245.91765317710025 1.9999999999999998
    vertex -32.083977397460465 230.80331023771777 1.9999999999999998
    vertex -30.13272130646685 233.41879851947823 1.9999999999999998
  endloop
endfacet
facet normal 2.1205895900516198e-33 1.6964716720412928e-32 1.0
  outer loop
    vertex -30.30193196700694 245.91765317710025 1.9999999999999998
    vertex -30.13272130646685 233.41879851947823 1.9999999999999998
    vertex -29.012480717198653 242.92007169213045 1.9999999999999998
  endloop
endfacet
facet normal 2.1205895900516198e-33 1.6964716720412928e-32 1.0
  outer loop
    vertex -29.012480717198653 242.92007169213045 1.9999999999999998
    vertex -30.13272130646685 233.41879851947823 1.9999999999999998
    vertex -28.924890834034343 236.45018843740854 1.9999999999999998
  endloop
endfacet
facet normal 2.1205895900516198e-33 1.6964716720412928e-32 1.0
  outer loop
    vertex -29.012480717198653 242.92007169213045 1.9999999999999998
    vertex -28.924890834034343 236.45018843740854 1.9999999999999998
    vertex -28.542797630825 239.6908957782105 1.9999999999999998
  endloop
endfacet
facet normal 2.1205895900516198e-33 1.6964716720412928e-32 1.0
  outer loop
    vertex -49.760027168399645 230.56401022668382 1.9999999999999998
    vertex -50.98041523429418 240.2189318086408 2.0
    vertex -51.781372609887086 233.12571705824055 1.9999999999999998
  endloop
endfacet
facet normal 2.1205895900516198e-33 1.6964716720412928e-32 1.0
  outer loop
    vertex -50.98041523429418 240.2189318086408 2.0
    vertex -49.760027168399645 230.56401022668382 1.9999999999999998
    vertex -43.74971317867995 240.2189318086408 2.0
  endloop
endfacet
facet normal 2.1205895900516198e-33 1.6964716720412928e-32 1.0
  outer loop
    vertex -43.74971317867995 240.2189318086408 2.0
    vertex -49.760027168399645 230.56401022668382 1.9999999999999998
    vertex -47.14453888663916 228.61275413569027 1.9999999999999998
  endloop
endfacet
facet normal 2.1205895900516198e-33 1.6964716720412928e-32 1.0
  outer loop
    vertex -43.74971317867995 240.2189318086408 2.0
    vertex -47.14453888663916 228.61275413569027 1.9999999999999998
    vertex -44.113148968708835 227.40492366325776 1.9999999999999998
  endloop
endfacet
facet normal 2.1205895900516198e-33 1.6964716720412928e-32 1.0
  outer loop
    vertex -43.74971317867995 240.2189318086408 2.0
    vertex -44.113148968708835 227.40492366325776 1.9999999999999998
    vertex -40.87244162790692 227.0228304600484 1.9999999999999998
  endloop
endfacet
facet normal 2.1205895900516198e-33 1.6964716720412928e-32 1.0
  outer loop
    vertex -43.74971317867995 240.2189318086408 2.0
    vertex -40.87244162790692 227.0228304600484 1.9999999999999998
    vertex -43.74971317867995 242.2189318086408 2.0
  endloop
endfacet
facet normal 2.1205895900516198e-33 1.6964716720412928e-32 1.0
  outer loop
    vertex -43.74971317867995 242.2189318086408 2.0
    vertex -40.87244162790692 227.0228304600484 1.9999999999999998
    vertex -41.98041523429418 240.2189318086408 2.0
  endloop
endfacet
facet normal 2.1205895900516198e-33 1.6964716720412928e-32 1.0
  outer loop
    vertex -41.98041523429418 240.2189318086408 2.0
    vertex -40.87244162790692 227.0228304600484 1.9999999999999998
    vertex -41.74971317867995 240.2189318086408 2.0
  endloop
endfacet
facet normal 2.1205895900516198e-33 1.6964716720412928e-32 1.0
  outer loop
    vertex -41.74971317867995 240.2189318086408 2.0
    vertex -40.87244162790692 227.0228304600484 1.9999999999999998
    vertex -41.74971317867995 249.21893180864083 2.0
  endloop
endfacet
facet normal 2.1205895900516198e-33 1.6964716720412928e-32 1.0
  outer loop
    vertex -41.74971317867995 249.21893180864083 2.0
    vertex -40.87244162790692 227.0228304600484 1.9999999999999998
    vertex -41.21086294898711 252.02053977529246 1.9999999999999998
  endloop
endfacet
facet normal 2.1205895900516198e-33 1.6964716720412928e-32 1.0
  outer loop
    vertex -41.21086294898711 252.02053977529246 1.9999999999999998
    vertex -40.87244162790692 227.0228304600484 1.9999999999999998
    vertex -37.97015560818521 251.63844657208304 1.9999999999999998
  endloop
endfacet
facet normal 2.1205895900516198e-33 1.6964716720412928e-32 1.0
  outer loop
    vertex -37.97015560818521 251.63844657208304 1.9999999999999998
    vertex -40.87244162790692 227.0228304600484 1.9999999999999998
    vertex -37.64326571398698 227.49251354642203 1.9999999999999998
  endloop
endfacet
facet normal 2.1205895900516198e-33 1.6964716720412928e-32 1.0
  outer loop
    vertex -37.97015560818521 251.63844657208304 1.9999999999999998
    vertex -37.64326571398698 227.49251354642203 1.9999999999999998
    vertex -34.938765690254876 250.43061609965054 1.9999999999999998
  endloop
endfacet
facet normal 2.1205895900516198e-33 1.6964716720412928e-32 1.0
  outer loop
    vertex -34.938765690254876 250.43061609965054 1.9999999999999998
    vertex -37.64326571398698 227.49251354642203 1.9999999999999998
    vertex -35.52448880568291 245.23653295937882 1.9999999999999998
  endloop
endfacet
facet normal 2.1205895900516198e-33 1.6964716720412928e-32 1.0
  outer loop
    vertex -34.938765690254876 250.43061609965054 1.9999999999999998
    vertex -35.52448880568291 245.23653295937882 1.9999999999999998
    vertex -35.49041463197199 245.49535200448136 1.9999999999999998
  endloop
endfacet
facet normal 2.1205895900516198e-33 1.6964716720412928e-32 1.0
  outer loop
    vertex -34.938765690254876 250.43061609965054 1.9999999999999998
    vertex -35.49041463197199 245.49535200448136 1.9999999999999998
    vertex -35.39051420946735 245.73653295937888 1.9999999999999998
  endloop
endfacet
facet normal 2.1205895900516198e-33 1.6964716720412928e-32 1.0
  outer loop
    vertex -34.938765690254876 250.43061609965054 1.9999999999999998
    vertex -35.39051420946735 245.73653295937888 1.9999999999999998
    vertex -35.23159558686945 245.9436397405654 1.9999999999999998
  endloop
endfacet
facet normal 2.1205895900516198e-33 1.6964716720412928e-32 1.0
  outer loop
    vertex -34.938765690254876 250.43061609965054 1.9999999999999998
    vertex -35.23159558686945 245.9436397405654 1.9999999999999998
    vertex -35.02448880568291 246.1025583631633 1.9999999999999998
  endloop
endfacet
facet normal 2.1205895900516198e-33 1.6964716720412928e-32 1.0
  outer loop
    vertex -34.938765690254876 250.43061609965054 1.9999999999999998
    vertex -35.02448880568291 246.1025583631633 1.9999999999999998
    vertex -34.78330785078543 246.20245878566794 1.9999999999999998
  endloop
endfacet
facet normal 2.1205895900516198e-33 1.6964716720412928e-32 1.0
  outer loop
    vertex -34.938765690254876 250.43061609965054 1.9999999999999998
    vertex -34.78330785078543 246.20245878566794 1.9999999999999998
    vertex -32.32327740849438 248.47936000865698 1.9999999999999998
  endloop
endfacet
facet normal 2.1205895900516198e-33 1.6964716720412928e-32 1.0
  outer loop
    vertex -32.32327740849438 248.47936000865698 1.9999999999999998
    vertex -34.78330785078543 246.20245878566794 1.9999999999999998
    vertex -34.52448880568291 246.23653295937885 1.9999999999999998
  endloop
endfacet
facet normal 2.1205895900516198e-33 1.6964716720412928e-32 1.0
  outer loop
    vertex -32.32327740849438 248.47936000865698 1.9999999999999998
    vertex -34.52448880568291 246.23653295937885 1.9999999999999998
    vertex -34.265669760580394 246.20245878566794 1.9999999999999998
  endloop
endfacet
facet normal 2.1205895900516198e-33 1.6964716720412928e-32 1.0
  outer loop
    vertex -32.32327740849438 248.47936000865698 1.9999999999999998
    vertex -34.265669760580394 246.20245878566794 1.9999999999999998
    vertex -34.02448880568291 246.1025583631633 1.9999999999999998
  endloop
endfacet
facet normal 2.1205895900516198e-33 1.6964716720412928e-32 1.0
  outer loop
    vertex -32.32327740849438 248.47936000865698 1.9999999999999998
    vertex -34.02448880568291 246.1025583631633 1.9999999999999998
    vertex -33.817382024496354 245.9436397405654 1.9999999999999998
  endloop
endfacet
facet normal 2.1205895900516198e-33 1.6964716720412928e-32 1.0
  outer loop
    vertex -32.32327740849438 248.47936000865698 1.9999999999999998
    vertex -33.817382024496354 245.9436397405654 1.9999999999999998
    vertex -33.65846340189846 245.7365329593788 1.9999999999999998
  endloop
endfacet
facet normal 2.1205895900516198e-33 1.6964716720412928e-32 1.0
  outer loop
    vertex -32.32327740849438 248.47936000865698 1.9999999999999998
    vertex -33.65846340189846 245.7365329593788 1.9999999999999998
    vertex -33.558562979393834 245.49535200448136 1.9999999999999998
  endloop
endfacet
facet normal 2.1205895900516198e-33 1.6964716720412928e-32 1.0
  outer loop
    vertex -32.32327740849438 248.47936000865698 1.9999999999999998
    vertex -33.558562979393834 245.49535200448136 1.9999999999999998
    vertex -33.52448880568291 245.23653295937882 1.9999999999999998
  endloop
endfacet
facet normal 2.1205895900516198e-33 1.6964716720412928e-32 1.0
  outer loop
    vertex -53.07082385969538 236.12329854321035 1.9999999999999998
    vertex -53.158413742859686 242.59318179793226 1.9999999999999998
    vertex -53.54050694606904 239.3524744571303 1.9999999999999998
  endloop
endfacet
facet normal 2.1205895900516198e-33 1.6964716720412928e-32 1.0
  outer loop
    vertex -53.158413742859686 242.59318179793226 1.9999999999999998
    vertex -53.07082385969538 236.12329854321035 1.9999999999999998
    vertex -51.95058327042718 245.62457171586257 1.9999999999999998
  endloop
endfacet
facet normal 2.1205895900516198e-33 1.6964716720412928e-32 1.0
  outer loop
    vertex -51.95058327042718 245.62457171586257 1.9999999999999998
    vertex -53.07082385969538 236.12329854321035 1.9999999999999998
    vertex -51.781372609887086 233.12571705824055 1.9999999999999998
  endloop
endfacet
facet normal 2.1205895900516198e-33 1.6964716720412928e-32 1.0
  outer loop
    vertex -51.95058327042718 245.62457171586257 1.9999999999999998
    vertex -51.781372609887086 233.12571705824055 1.9999999999999998
    vertex -50.98041523429418 242.2189318086408 2.0
  endloop
endfacet
facet normal 2.1205895900516198e-33 1.6964716720412928e-32 1.0
  outer loop
    vertex -51.95058327042718 245.62457171586257 1.9999999999999998
    vertex -50.98041523429418 242.2189318086408 2.0
    vertex -49.999327179433564 248.24005999762306 1.9999999999999998
  endloop
endfacet
facet normal 2.1205895900516198e-33 1.6964716720412928e-32 1.0
  outer loop
    vertex -50.98041523429418 242.2189318086408 2.0
    vertex -51.781372609887086 233.12571705824055 1.9999999999999998
    vertex -50.98041523429418 240.2189318086408 2.0
  endloop
endfacet
facet normal 2.1205895900516198e-33 1.6964716720412928e-32 1.0
  outer loop
    vertex -49.999327179433564 248.24005999762306 1.9999999999999998
    vertex -50.98041523429418 242.2189318086408 2.0
    vertex -43.74971317867995 242.2189318086408 2.0
  endloop
endfacet
facet normal 2.1205895900516198e-33 1.6964716720412928e-32 1.0
  outer loop
    vertex -49.999327179433564 248.24005999762306 1.9999999999999998
    vertex -43.74971317867995 242.2189318086408 2.0
    vertex -47.437620347876894 250.26140543911052 1.9999999999999998
  endloop
endfacet
facet normal 2.1205895900516198e-33 1.6964716720412928e-32 1.0
  outer loop
    vertex -47.437620347876894 250.26140543911052 1.9999999999999998
    vertex -43.74971317867995 242.2189318086408 2.0
    vertex -44.44003886290705 251.5508566889188 1.9999999999999998
  endloop
endfacet
facet normal 2.1205895900516198e-33 1.6964716720412928e-32 1.0
  outer loop
    vertex -44.44003886290705 251.5508566889188 1.9999999999999998
    vertex -43.74971317867995 242.2189318086408 2.0
    vertex -43.74971317867995 249.21893180864083 2.0
  endloop
endfacet
facet normal 2.1205895900516198e-33 1.6964716720412928e-32 1.0
  outer loop
    vertex -44.44003886290705 251.5508566889188 1.9999999999999998
    vertex -43.74971317867995 249.21893180864083 2.0
    vertex -41.21086294898711 252.02053977529246 1.9999999999999998
  endloop
endfacet
facet normal 2.1205895900516198e-33 1.6964716720412928e-32 1.0
  outer loop
    vertex -41.21086294898711 252.02053977529246 1.9999999999999998
    vertex -43.74971317867995 249.21893180864083 2.0
    vertex -41.74971317867995 249.21893180864083 2.0
  endloop
endfacet
facet normal 2.1205895900516198e-33 1.6964716720412928e-32 1.0
  outer loop
    vertex -41.98041523429418 242.2189318086408 2.0
    vertex -43.74971317867995 242.2189318086408 2.0
    vertex -41.98041523429418 240.2189318086408 2.0
  endloop
endfacet
facet normal -0.5000000000000207 0.8660254037844267 -4.3217750847322944e-16
  outer loop
    vertex -35.02448880568291 246.1025583631633 1.9999999999999998
    vertex -34.78330785078543 246.20245878566794 1.0000000000000036
    vertex -35.02448880568291 246.1025583631633 1.0000000000000036
  endloop
endfacet
facet normal -0.2588190451025243 0.9659258262890673 9.323990896887127e-17
  outer loop
    vertex -34.78330785078543 246.20245878566794 1.0000000000000036
    vertex -35.02448880568291 246.1025583631633 1.9999999999999998
    vertex -34.78330785078543 246.20245878566794 1.9999999999999998
  endloop
endfacet
facet normal -0.8660254037844354 -0.500000000000006 7.462577209482415e-17
  outer loop
    vertex -35.39051420946734 244.73653295937885 1.9999999999999998
    vertex -35.23159558686945 244.5294261781923 1.0000000000000036
    vertex -35.23159558686945 244.5294261781923 1.9999999999999998
  endloop
endfacet
facet normal -0.7071067811865425 -0.7071067811865525 5.4603201391950755e-17
  outer loop
    vertex -35.23159558686945 244.5294261781923 1.0000000000000036
    vertex -35.39051420946734 244.73653295937885 1.9999999999999998
    vertex -35.39051420946735 244.73653295937885 1.0000000000000036
  endloop
endfacet
facet normal 0.716613991278924 -0.6974699903962107 0.0
  outer loop
    vertex -32.083977397460465 230.80331023771777 1.9999999999999998
    vertex -34.64568422901715 228.78196479623034 0.0
    vertex -32.083977397460465 230.80331023771777 0.0
  endloop
endfacet
facet normal 0.5116774447543905 -0.8591776257152054 0.0
  outer loop
    vertex -34.64568422901715 228.78196479623034 0.0
    vertex -32.083977397460465 230.80331023771777 1.9999999999999998
    vertex -34.64568422901715 228.78196479623034 1.9999999999999998
  endloop
endfacet
facet normal 0.0 0.0 -1.0
  outer loop
    vertex -53.158413742859686 242.59318179793226 0.0
    vertex -53.07082385969538 236.12329854321035 0.0
    vertex -53.54050694606904 239.3524744571303 0.0
  endloop
endfacet
facet normal 0.0 0.0 -1.0
  outer loop
    vertex -53.07082385969538 236.12329854321035 0.0
    vertex -53.158413742859686 242.59318179793226 0.0
    vertex -51.95058327042718 245.62457171586257 0.0
  endloop
endfacet
facet normal 0.0 0.0 -1.0
  outer loop
    vertex -53.07082385969538 236.12329854321035 0.0
    vertex -51.95058327042718 245.62457171586257 0.0
    vertex -51.781372609887086 233.12571705824055 0.0
  endloop
endfacet
facet normal 0.0 0.0 -1.0
  outer loop
    vertex -51.781372609887086 233.12571705824055 0.0
    vertex -51.95058327042718 245.62457171586257 0.0
    vertex -49.999327179433564 248.24005999762306 0.0
  endloop
endfacet
facet normal 0.0 0.0 -1.0
  outer loop
    vertex -51.781372609887086 233.12571705824055 0.0
    vertex -49.999327179433564 248.24005999762306 0.0
    vertex -49.760027168399645 230.56401022668382 0.0
  endloop
endfacet
facet normal 0.0 0.0 -1.0
  outer loop
    vertex -49.760027168399645 230.56401022668382 0.0
    vertex -49.999327179433564 248.24005999762306 0.0
    vertex -47.437620347876894 250.26140543911052 0.0
  endloop
endfacet
facet normal 0.0 0.0 -1.0
  outer loop
    vertex -49.760027168399645 230.56401022668382 0.0
    vertex -47.437620347876894 250.26140543911052 0.0
    vertex -47.14453888663916 228.61275413569027 0.0
  endloop
endfacet
facet normal 0.0 0.0 -1.0
  outer loop
    vertex -47.14453888663916 228.61275413569027 0.0
    vertex -47.437620347876894 250.26140543911052 0.0
    vertex -44.44003886290705 251.5508566889188 0.0
  endloop
endfacet
facet normal 0.0 0.0 -1.0
  outer loop
    vertex -47.14453888663916 228.61275413569027 0.0
    vertex -44.44003886290705 251.5508566889188 0.0
    vertex -44.113148968708835 227.40492366325776 0.0
  endloop
endfacet
facet normal 0.0 0.0 -1.0
  outer loop
    vertex -44.113148968708835 227.40492366325776 0.0
    vertex -44.44003886290705 251.5508566889188 0.0
    vertex -41.21086294898711 252.02053977529246 0.0
  endloop
endfacet
facet normal 0.0 0.0 -1.0
  outer loop
    vertex -44.113148968708835 227.40492366325776 0.0
    vertex -41.21086294898711 252.02053977529246 0.0
    vertex -40.87244162790692 227.0228304600484 0.0
  endloop
endfacet
facet normal 0.0 0.0 -1.0
  outer loop
    vertex -40.87244162790692 227.0228304600484 0.0
    vertex -41.21086294898711 252.02053977529246 0.0
    vertex -37.97015560818521 251.63844657208304 0.0
  endloop
endfacet
facet normal 0.0 0.0 -1.0
  outer loop
    vertex -40.87244162790692 227.0228304600484 0.0
    vertex -37.97015560818521 251.63844657208304 0.0
    vertex -37.64326571398698 227.49251354642203 0.0
  endloop
endfacet
facet normal 0.0 0.0 -1.0
  outer loop
    vertex -37.64326571398698 227.49251354642203 0.0
    vertex -37.97015560818521 251.63844657208304 0.0
    vertex -34.938765690254876 250.43061609965054 0.0
  endloop
endfacet
facet normal 0.0 0.0 -1.0
  outer loop
    vertex -37.64326571398698 227.49251354642203 0.0
    vertex -34.938765690254876 250.43061609965054 0.0
    vertex -34.64568422901715 228.78196479623034 0.0
  endloop
endfacet
facet normal 0.0 0.0 -1.0
  outer loop
    vertex -34.64568422901715 228.78196479623034 0.0
    vertex -34.938765690254876 250.43061609965054 0.0
    vertex -32.32327740849438 248.47936000865698 0.0
  endloop
endfacet
facet normal 0.0 0.0 -1.0
  outer loop
    vertex -34.64568422901715 228.78196479623034 0.0
    vertex -32.32327740849438 248.47936000865698 0.0
    vertex -32.083977397460465 230.80331023771777 0.0
  endloop
endfacet
facet normal 0.0 0.0 -1.0
  outer loop
    vertex -32.083977397460465 230.80331023771777 0.0
    vertex -32.32327740849438 248.47936000865698 0.0
    vertex -30.30193196700694 245.91765317710025 0.0
  endloop
endfacet
facet normal 0.0 0.0 -1.0
  outer loop
    vertex -32.083977397460465 230.80331023771777 0.0
    vertex -30.30193196700694 245.91765317710025 0.0
    vertex -30.13272130646685 233.41879851947823 0.0
  endloop
endfacet
facet normal 0.0 0.0 -1.0
  outer loop
    vertex -30.13272130646685 233.41879851947823 0.0
    vertex -30.30193196700694 245.91765317710025 0.0
    vertex -29.012480717198653 242.92007169213045 0.0
  endloop
endfacet
facet normal 0.0 0.0 -1.0
  outer loop
    vertex -30.13272130646685 233.41879851947823 0.0
    vertex -29.012480717198653 242.92007169213045 0.0
    vertex -28.924890834034343 236.45018843740854 0.0
  endloop
endfacet
facet normal 0.0 0.0 -1.0
  outer loop
    vertex -28.924890834034343 236.45018843740854 0.0
    vertex -29.012480717198653 242.92007169213045 0.0
    vertex -28.542797630825 239.6908957782105 0.0
  endloop
endfacet
facet normal -0.859177625715206 -0.5116774447543897 0.0
  outer loop
    vertex -51.781372609887086 233.12571705824055 1.9999999999999998
    vertex -49.760027168399645 230.56401022668382 0.0
    vertex -49.760027168399645 230.56401022668382 1.9999999999999998
  endloop
endfacet
facet normal -0.6974699903962115 -0.7166139912789231 0.0
  outer loop
    vertex -49.760027168399645 230.56401022668382 0.0
    vertex -51.781372609887086 233.12571705824055 1.9999999999999998
    vertex -51.781372609887086 233.12571705824055 0.0
  endloop
endfacet
facet normal -1.5190924974191875e-15 -1.0 -8.678117959934181e-16
  outer loop
    vertex -41.74971317867995 240.2189318086408 6.999999999999998
    vertex -41.98041523429418 240.2189318086408 2.0
    vertex -41.74971317867995 240.2189318086408 2.0
  endloop
endfacet
facet normal -1.5190924974191875e-15 -1.0 -8.678117959934181e-16
  outer loop
    vertex -41.98041523429418 240.2189318086408 2.0
    vertex -41.74971317867995 240.2189318086408 6.999999999999998
    vertex -43.74971317867995 240.2189318086408 2.0
  endloop
endfacet
facet normal -1.5190924974191875e-15 -1.0 -8.678117959934181e-16
  outer loop
    vertex -43.74971317867995 240.2189318086408 2.0
    vertex -41.74971317867995 240.2189318086408 6.999999999999998
    vertex -50.98041523429418 240.2189318086408 2.0
  endloop
endfacet
facet normal -1.5190924974191875e-15 -1.0 -8.678117959934181e-16
  outer loop
    vertex -50.98041523429418 240.2189318086408 2.0
    vertex -41.74971317867995 240.2189318086408 6.999999999999998
    vertex -50.98041523429418 240.2189318086408 6.999999999999998
  endloop
endfacet
facet normal -1.0 0.0 0.0
  outer loop
    vertex -43.74971317867995 249.21893180864083 6.999999999999998
    vertex -43.74971317867995 242.2189318086408 2.0
    vertex -43.74971317867995 242.2189318086408 6.999999999999998
  endloop
endfacet
facet normal -1.0 0.0 0.0
  outer loop
    vertex -43.74971317867995 242.2189318086408 2.0
    vertex -43.74971317867995 249.21893180864083 6.999999999999998
    vertex -43.74971317867995 249.21893180864083 2.0
  endloop
endfacet
facet normal 0.9623337256998691 0.27187092595680257 0.0
  outer loop
    vertex -29.012480717198653 242.92007169213045 0.0
    vertex -28.542797630825 239.6908957782105 1.9999999999999998
    vertex -28.542797630825 239.6908957782105 0.0
  endloop
endfacet
facet normal 0.9999083726097614 0.013536852843207412 0.0
  outer loop
    vertex -28.542797630825 239.6908957782105 1.9999999999999998
    vertex -29.012480717198653 242.92007169213045 0.0
    vertex -29.012480717198653 242.92007169213045 1.9999999999999998
  endloop
endfacet
facet normal -0.9659258262890692 0.25881904510251763 -1.1652839021595978e-15
  outer loop
    vertex -35.49041463197199 245.49535200448136 1.9999999999999998
    vertex -35.52448880568291 245.23653295937882 1.0000000000000036
    vertex -35.52448880568291 245.23653295937882 1.9999999999999998
  endloop
endfacet
facet normal -1.0 -8.019998906082205e-15 -2.1148457740898703e-15
  outer loop
    vertex -35.52448880568291 245.23653295937882 1.0000000000000036
    vertex -35.49041463197199 245.49535200448136 1.9999999999999998
    vertex -35.49041463197198 245.49535200448136 1.0000000000000036
  endloop
endfacet
facet normal -0.716613991278924 0.6974699903962107 0.0
  outer loop
    vertex -49.999327179433564 248.24005999762306 1.9999999999999998
    vertex -47.437620347876894 250.26140543911052 0.0
    vertex -49.999327179433564 248.24005999762306 0.0
  endloop
endfacet
facet normal -0.5116774447543903 0.8591776257152056 0.0
  outer loop
    vertex -47.437620347876894 250.26140543911052 0.0
    vertex -49.999327179433564 248.24005999762306 1.9999999999999998
    vertex -47.437620347876894 250.26140543911052 1.9999999999999998
  endloop
endfacet
facet normal -1.0 -8.019998906082205e-15 -2.1148457740898703e-15
  outer loop
    vertex -35.52448880568291 245.23653295937882 1.9999999999999998
    vertex -35.49041463197198 244.97771391427636 1.0000000000000036
    vertex -35.49041463197198 244.97771391427628 1.9999999999999998
  endloop
endfacet
facet normal -0.9659258262890691 -0.2588190451025179 -1.1546208795599003e-15
  outer loop
    vertex -35.49041463197198 244.97771391427636 1.0000000000000036
    vertex -35.52448880568291 245.23653295937882 1.9999999999999998
    vertex -35.52448880568291 245.23653295937882 1.0000000000000036
  endloop
endfacet
facet normal 0.8660254037844309 0.5000000000000132 9.478985514766699e-16
  outer loop
    vertex -33.65846340189847 245.73653295937888 1.0000000000000036
    vertex -33.817382024496354 245.9436397405654 1.9999999999999998
    vertex -33.65846340189846 245.7365329593788 1.9999999999999998
  endloop
endfacet
facet normal 0.7071067811865486 0.7071067811865465 5.063135912590805e-15
  outer loop
    vertex -33.817382024496354 245.9436397405654 1.9999999999999998
    vertex -33.65846340189847 245.73653295937888 1.0000000000000036
    vertex -33.817382024496354 245.9436397405654 1.0000000000000036
  endloop
endfacet
facet normal 0.5116774447543905 -0.8591776257152054 0.0
  outer loop
    vertex -34.64568422901715 228.78196479623034 1.9999999999999998
    vertex -37.64326571398698 227.49251354642203 0.0
    vertex -34.64568422901715 228.78196479623034 0.0
  endloop
endfacet
facet normal 0.2718709259568021 -0.9623337256998691 0.0
  outer loop
    vertex -37.64326571398698 227.49251354642203 0.0
    vertex -34.64568422901715 228.78196479623034 1.9999999999999998
    vertex -37.64326571398698 227.49251354642203 1.9999999999999998
  endloop
endfacet
facet normal 0.6974699903962107 0.7166139912789239 0.0
  outer loop
    vertex -32.32327740849438 248.47936000865698 0.0
    vertex -30.30193196700694 245.91765317710025 1.9999999999999998
    vertex -30.30193196700694 245.91765317710025 0.0
  endloop
endfacet
facet normal 0.859177625715206 0.5116774447543898 0.0
  outer loop
    vertex -30.30193196700694 245.91765317710025 1.9999999999999998
    vertex -32.32327740849438 248.47936000865698 0.0
    vertex -32.32327740849438 248.47936000865698 1.9999999999999998
  endloop
endfacet
facet normal -1.0 0.0 0.0
  outer loop
    vertex -50.98041523429418 242.2189318086408 6.999999999999998
    vertex -50.98041523429418 240.2189318086408 2.0
    vertex -50.98041523429418 240.2189318086408 6.999999999999998
  endloop
endfacet
facet normal -1.0 0.0 0.0
  outer loop
    vertex -50.98041523429418 240.2189318086408 2.0
    vertex -50.98041523429418 242.2189318086408 6.999999999999998
    vertex -50.98041523429418 242.2189318086408 2.0
  endloop
endfacet
facet normal 1.0 0.0 0.0
  outer loop
    vertex -31.18163592161028 238.8891543457072 2.0000000000000004
    vertex -31.18163592161028 236.8891543457072 7.000000000000001
    vertex -31.18163592161028 236.8891543457072 2.0000000000000004
  endloop
endfacet
facet normal 1.0 0.0 0.0
  outer loop
    vertex -31.18163592161028 236.8891543457072 7.000000000000001
    vertex -31.18163592161028 238.8891543457072 2.0000000000000004
    vertex -31.18163592161028 238.8891543457072 7.000000000000001
  endloop
endfacet
facet normal 0.0 0.0 1.0
  outer loop
    vertex -38.41233797722454 229.88915434570725 7.000000000000001
    vertex -40.41233797722452 238.8891543457072 7.000000000000001
    vertex -40.41233797722454 229.88915434570717 7.000000000000001
  endloop
endfacet
facet normal 0.0 0.0 1.0
  outer loop
    vertex -40.41233797722452 238.8891543457072 7.000000000000001
    vertex -38.41233797722454 229.88915434570725 7.000000000000001
    vertex -38.41233797722453 236.8891543457072 7.000000000000001
  endloop
endfacet
facet normal 0.0 0.0 1.0
  outer loop
    vertex -40.41233797722452 238.8891543457072 7.000000000000001
    vertex -38.41233797722453 236.8891543457072 7.000000000000001
    vertex -31.18163592161028 238.8891543457072 7.000000000000001
  endloop
endfacet
facet normal 0.0 0.0 1.0
  outer loop
    vertex -31.18163592161028 238.8891543457072 7.000000000000001
    vertex -38.41233797722453 236.8891543457072 7.000000000000001
    vertex -31.18163592161028 236.8891543457072 7.000000000000001
  endloop
endfacet
facet normal 0.0 1.0 0.0
  outer loop
    vertex -50.98041523429418 242.2189318086408 6.999999999999998
    vertex -43.74971317867995 242.2189318086408 2.0
    vertex -50.98041523429418 242.2189318086408 2.0
  endloop
endfacet
facet normal 0.0 1.0 0.0
  outer loop
    vertex -43.74971317867995 242.2189318086408 2.0
    vertex -50.98041523429418 242.2189318086408 6.999999999999998
    vertex -43.74971317867995 242.2189318086408 6.999999999999998
  endloop
endfacet
facet normal 0.0 1.0 0.0
  outer loop
    vertex -43.74971317867995 249.21893180864083 6.999999999999998
    vertex -41.74971317867995 249.21893180864083 2.0
    vertex -43.74971317867995 249.21893180864083 2.0
  endloop
endfacet
facet normal 0.0 1.0 0.0
  outer loop
    vertex -41.74971317867995 249.21893180864083 2.0
    vertex -43.74971317867995 249.21893180864083 6.999999999999998
    vertex -41.74971317867995 249.21893180864083 6.999999999999998
  endloop
endfacet
facet normal 0.9659258262890656 -0.2588190451025306 3.22360178614911e-15
  outer loop
    vertex -33.55856297939385 244.97771391427628 1.0000000000000036
    vertex -33.65846340189847 244.73653295937885 1.9999999999999998
    vertex -33.65846340189847 244.73653295937885 1.0000000000000036
  endloop
endfacet
facet normal 0.8660254037844318 -0.5000000000000118 -9.413736191643499e-17
  outer loop
    vertex -33.65846340189847 244.73653295937885 1.9999999999999998
    vertex -33.55856297939385 244.97771391427628 1.0000000000000036
    vertex -33.55856297939385 244.97771391427628 1.9999999999999998
  endloop
endfacet
facet normal -0.716613991278924 0.6974699903962107 0.0
  outer loop
    vertex -49.999327179433564 248.24005999762306 1.9999999999999998
    vertex -51.95058327042718 245.62457171586257 0.0
    vertex -51.95058327042718 245.62457171586257 1.9999999999999998
  endloop
endfacet
facet normal -0.8727144785584134 0.4882309278553711 0.0
  outer loop
    vertex -51.95058327042718 245.62457171586257 0.0
    vertex -49.999327179433564 248.24005999762306 1.9999999999999998
    vertex -49.999327179433564 248.24005999762306 0.0
  endloop
endfacet
facet normal 0.8727144785584129 -0.48823092785537187 0.0
  outer loop
    vertex -30.13272130646685 233.41879851947823 0.0
    vertex -32.083977397460465 230.80331023771777 1.9999999999999998
    vertex -32.083977397460465 230.80331023771777 0.0
  endloop
endfacet
facet normal 0.716613991278924 -0.6974699903962107 0.0
  outer loop
    vertex -32.083977397460465 230.80331023771777 1.9999999999999998
    vertex -30.13272130646685 233.41879851947823 0.0
    vertex -30.13272130646685 233.41879851947823 1.9999999999999998
  endloop
endfacet
facet normal 4.318323855430502e-14 -1.0 9.208879898168774e-17
  outer loop
    vertex -34.52448880568291 244.23653295937885 1.9999999999999998
    vertex -34.78330785078543 244.27060713308978 1.0000000000000036
    vertex -34.52448880568291 244.23653295937885 1.0000000000000036
  endloop
endfacet
facet normal -0.2588190451025236 -0.9659258262890674 -1.1806498020361895e-14
  outer loop
    vertex -34.78330785078543 244.27060713308978 1.0000000000000036
    vertex -34.52448880568291 244.23653295937885 1.9999999999999998
    vertex -34.78330785078544 244.27060713308978 1.9999999999999998
  endloop
endfacet
facet normal 0.4882309278553708 0.8727144785584136 0.0
  outer loop
    vertex -34.938765690254876 250.43061609965054 1.9999999999999998
    vertex -32.32327740849438 248.47936000865698 0.0
    vertex -34.938765690254876 250.43061609965054 0.0
  endloop
endfacet
facet normal 0.6974699903962107 0.7166139912789239 0.0
  outer loop
    vertex -32.32327740849438 248.47936000865698 0.0
    vertex -34.938765690254876 250.43061609965054 1.9999999999999998
    vertex -32.32327740849438 248.47936000865698 1.9999999999999998
  endloop
endfacet
facet normal 0.859177625715206 0.5116774447543898 0.0
  outer loop
    vertex -30.30193196700694 245.91765317710025 0.0
    vertex -29.012480717198653 242.92007169213045 1.9999999999999998
    vertex -29.012480717198653 242.92007169213045 0.0
  endloop
endfacet
facet normal 0.9623337256998691 0.27187092595680257 0.0
  outer loop
    vertex -29.012480717198653 242.92007169213045 1.9999999999999998
    vertex -30.30193196700694 245.91765317710025 0.0
    vertex -30.30193196700694 245.91765317710025 1.9999999999999998
  endloop
endfacet
facet normal 1.127986593019161e-14 -1.0 0.0
  outer loop
    vertex -38.41233797722454 229.88915434570725 7.000000000000001
    vertex -40.41233797722454 229.88915434570717 2.0000000000000004
    vertex -38.41233797722454 229.88915434570725 2.0000000000000004
  endloop
endfacet
facet normal 1.127986593019161e-14 -1.0 0.0
  outer loop
    vertex -40.41233797722454 229.88915434570717 2.0000000000000004
    vertex -38.41233797722454 229.88915434570725 7.000000000000001
    vertex -40.41233797722454 229.88915434570717 7.000000000000001
  endloop
endfacet
facet normal 1.0 0.0 0.0
  outer loop
    vertex -38.41233797722453 236.8891543457072 2.0000000000000004
    vertex -38.41233797722454 229.88915434570725 7.000000000000001
    vertex -38.41233797722454 229.88915434570725 2.0000000000000004
  endloop
endfacet
facet normal 1.0 0.0 0.0
  outer loop
    vertex -38.41233797722454 229.88915434570725 7.000000000000001
    vertex -38.41233797722453 236.8891543457072 2.0000000000000004
    vertex -38.41233797722453 236.8891543457072 7.000000000000001
  endloop
endfacet
facet normal 0.24571973442094444 0.9693409163530137 0.0
  outer loop
    vertex -37.97015560818521 251.63844657208304 1.9999999999999998
    vertex -34.938765690254876 250.43061609965054 0.0
    vertex -37.97015560818521 251.63844657208304 0.0
  endloop
endfacet
facet normal 0.4882309278553708 0.8727144785584136 0.0
  outer loop
    vertex -34.938765690254876 250.43061609965054 0.0
    vertex -37.97015560818521 251.63844657208304 1.9999999999999998
    vertex -34.938765690254876 250.43061609965054 1.9999999999999998
  endloop
endfacet
facet normal 0.013536852843205735 -0.9999083726097615 0.0
  outer loop
    vertex -40.87244162790692 227.0228304600484 1.9999999999999998
    vertex -44.113148968708835 227.40492366325776 0.0
    vertex -40.87244162790692 227.0228304600484 0.0
  endloop
endfacet
facet normal -0.24571973442094536 -0.9693409163530134 0.0
  outer loop
    vertex -44.113148968708835 227.40492366325776 0.0
    vertex -40.87244162790692 227.0228304600484 1.9999999999999998
    vertex -44.113148968708835 227.40492366325776 1.9999999999999998
  endloop
endfacet
facet normal 2.2051010514965816e-15 1.0 0.0
  outer loop
    vertex -40.41233797722452 238.8891543457072 7.000000000000001
    vertex -31.18163592161028 238.8891543457072 2.0000000000000004
    vertex -40.41233797722452 238.8891543457072 2.0000000000000004
  endloop
endfacet
facet normal 2.2051010514965816e-15 1.0 0.0
  outer loop
    vertex -31.18163592161028 238.8891543457072 2.0000000000000004
    vertex -40.41233797722452 238.8891543457072 7.000000000000001
    vertex -31.18163592161028 238.8891543457072 7.000000000000001
  endloop
endfacet
facet normal -0.962333725699869 -0.27187092595680296 0.0
  outer loop
    vertex -53.07082385969538 236.12329854321035 1.9999999999999998
    vertex -51.781372609887086 233.12571705824055 0.0
    vertex -51.781372609887086 233.12571705824055 1.9999999999999998
  endloop
endfacet
facet normal -0.859177625715206 -0.5116774447543897 0.0
  outer loop
    vertex -51.781372609887086 233.12571705824055 0.0
    vertex -53.07082385969538 236.12329854321035 1.9999999999999998
    vertex -53.07082385969538 236.12329854321035 0.0
  endloop
endfacet
facet normal 0.9999083726097614 0.013536852843207412 0.0
  outer loop
    vertex -28.542797630825 239.6908957782105 0.0
    vertex -28.924890834034343 236.45018843740854 1.9999999999999998
    vertex -28.924890834034343 236.45018843740854 0.0
  endloop
endfacet
facet normal 0.9693409163530134 -0.24571973442094555 0.0
  outer loop
    vertex -28.924890834034343 236.45018843740854 1.9999999999999998
    vertex -28.542797630825 239.6908957782105 0.0
    vertex -28.542797630825 239.6908957782105 1.9999999999999998
  endloop
endfacet
facet normal -0.7071067811865411 0.7071067811865539 -9.989004931155241e-16
  outer loop
    vertex -35.23159558686945 245.9436397405654 1.9999999999999998
    vertex -35.39051420946735 245.73653295937888 1.0000000000000036
    vertex -35.39051420946735 245.73653295937888 1.9999999999999998
  endloop
endfacet
facet normal -0.8660254037844375 0.5000000000000023 -3.5962705450152124e-16
  outer loop
    vertex -35.39051420946735 245.73653295937888 1.0000000000000036
    vertex -35.23159558686945 245.9436397405654 1.9999999999999998
    vertex -35.23159558686945 245.9436397405654 1.0000000000000036
  endloop
endfacet
facet normal -1.0 1.1279865930191585e-15 0.0
  outer loop
    vertex -40.41233797722452 238.8891543457072 7.000000000000001
    vertex -40.41233797722454 229.88915434570717 2.0000000000000004
    vertex -40.41233797722454 229.88915434570717 7.000000000000001
  endloop
endfacet
facet normal -1.0 1.1279865930191585e-15 0.0
  outer loop
    vertex -40.41233797722454 229.88915434570717 2.0000000000000004
    vertex -40.41233797722452 238.8891543457072 7.000000000000001
    vertex -40.41233797722452 238.8891543457072 2.0000000000000004
  endloop
endfacet
facet normal -0.24571973442094536 -0.9693409163530134 0.0
  outer loop
    vertex -44.113148968708835 227.40492366325776 1.9999999999999998
    vertex -47.14453888663916 228.61275413569027 0.0
    vertex -44.113148968708835 227.40492366325776 0.0
  endloop
endfacet
facet normal -0.48823092785537037 -0.8727144785584139 0.0
  outer loop
    vertex -47.14453888663916 228.61275413569027 0.0
    vertex -44.113148968708835 227.40492366325776 1.9999999999999998
    vertex -47.14453888663916 228.61275413569027 1.9999999999999998
  endloop
endfacet
facet normal -0.2588190451025243 0.9659258262890673 9.323990896887127e-17
  outer loop
    vertex -34.78330785078543 246.20245878566794 1.9999999999999998
    vertex -34.52448880568291 246.23653295937885 1.0000000000000036
    vertex -34.78330785078543 246.20245878566794 1.0000000000000036
  endloop
endfacet
facet normal 0.0 1.0 7.914655504889749e-32
  outer loop
    vertex -34.52448880568291 246.23653295937885 1.0000000000000036
    vertex -34.78330785078543 246.20245878566794 1.9999999999999998
    vertex -34.52448880568291 246.23653295937885 1.9999999999999998
  endloop
endfacet
facet normal -0.8660254037844375 0.5000000000000023 -3.5962705450152124e-16
  outer loop
    vertex -35.39051420946735 245.73653295937888 1.9999999999999998
    vertex -35.49041463197198 245.49535200448136 1.0000000000000036
    vertex -35.49041463197199 245.49535200448136 1.9999999999999998
  endloop
endfacet
facet normal -0.9659258262890691 0.2588190451025181 -1.1652839021595919e-15
  outer loop
    vertex -35.49041463197198 245.49535200448136 1.0000000000000036
    vertex -35.39051420946735 245.73653295937888 1.9999999999999998
    vertex -35.39051420946735 245.73653295937888 1.0000000000000036
  endloop
endfacet
facet normal 0.5000000000000306 0.8660254037844209 3.486942860392635e-15
  outer loop
    vertex -34.02448880568291 246.1025583631633 1.9999999999999998
    vertex -33.817382024496354 245.9436397405654 1.0000000000000036
    vertex -34.02448880568291 246.1025583631633 1.0000000000000036
  endloop
endfacet
facet normal 0.7071067811865486 0.7071067811865465 5.063135912590805e-15
  outer loop
    vertex -33.817382024496354 245.9436397405654 1.0000000000000036
    vertex -34.02448880568291 246.1025583631633 1.9999999999999998
    vertex -33.817382024496354 245.9436397405654 1.9999999999999998
  endloop
endfacet
facet normal -0.8727144785584134 0.4882309278553711 0.0
  outer loop
    vertex -51.95058327042718 245.62457171586257 1.9999999999999998
    vertex -53.158413742859686 242.59318179793226 0.0
    vertex -53.158413742859686 242.59318179793226 1.9999999999999998
  endloop
endfacet
facet normal -0.9693409163530137 0.24571973442094497 0.0
  outer loop
    vertex -53.158413742859686 242.59318179793226 0.0
    vertex -51.95058327042718 245.62457171586257 1.9999999999999998
    vertex -51.95058327042718 245.62457171586257 0.0
  endloop
endfacet
facet normal 0.0 0.0 -1.0
  outer loop
    vertex -35.49041463197198 245.49535200448136 1.0000000000000036
    vertex -35.49041463197198 244.97771391427636 1.0000000000000036
    vertex -35.52448880568291 245.23653295937882 1.0000000000000036
  endloop
endfacet
facet normal 0.0 0.0 -1.0
  outer loop
    vertex -35.49041463197198 244.97771391427636 1.0000000000000036
    vertex -35.49041463197198 245.49535200448136 1.0000000000000036
    vertex -35.39051420946735 245.73653295937888 1.0000000000000036
  endloop
endfacet
facet normal 0.0 0.0 -1.0
  outer loop
    vertex -35.49041463197198 244.97771391427636 1.0000000000000036
    vertex -35.39051420946735 245.73653295937888 1.0000000000000036
    vertex -35.39051420946735 244.73653295937885 1.0000000000000036
  endloop
endfacet
facet normal 0.0 0.0 -1.0
  outer loop
    vertex -35.39051420946735 244.73653295937885 1.0000000000000036
    vertex -35.39051420946735 245.73653295937888 1.0000000000000036
    vertex -35.23159558686945 245.9436397405654 1.0000000000000036
  endloop
endfacet
facet normal 0.0 0.0 -1.0
  outer loop
    vertex -35.39051420946735 244.73653295937885 1.0000000000000036
    vertex -35.23159558686945 245.9436397405654 1.0000000000000036
    vertex -35.23159558686945 244.5294261781923 1.0000000000000036
  endloop
endfacet
facet normal 0.0 0.0 -1.0
  outer loop
    vertex -35.23159558686945 244.5294261781923 1.0000000000000036
    vertex -35.23159558686945 245.9436397405654 1.0000000000000036
    vertex -35.02448880568291 246.1025583631633 1.0000000000000036
  endloop
endfacet
facet normal 0.0 0.0 -1.0
  outer loop
    vertex -35.23159558686945 244.5294261781923 1.0000000000000036
    vertex -35.02448880568291 246.1025583631633 1.0000000000000036
    vertex -35.02448880568291 244.37050755559443 1.0000000000000036
  endloop
endfacet
facet normal 0.0 0.0 -1.0
  outer loop
    vertex -35.02448880568291 244.37050755559443 1.0000000000000036
    vertex -35.02448880568291 246.1025583631633 1.0000000000000036
    vertex -34.78330785078543 246.20245878566794 1.0000000000000036
  endloop
endfacet
facet normal 0.0 0.0 -1.0
  outer loop
    vertex -35.02448880568291 244.37050755559443 1.0000000000000036
    vertex -34.78330785078543 246.20245878566794 1.0000000000000036
    vertex -34.78330785078543 244.27060713308978 1.0000000000000036
  endloop
endfacet
facet normal 0.0 0.0 -1.0
  outer loop
    vertex -34.78330785078543 244.27060713308978 1.0000000000000036
    vertex -34.78330785078543 246.20245878566794 1.0000000000000036
    vertex -34.52448880568291 246.23653295937885 1.0000000000000036
  endloop
endfacet
facet normal 0.0 0.0 -1.0
  outer loop
    vertex -34.78330785078543 244.27060713308978 1.0000000000000036
    vertex -34.52448880568291 246.23653295937885 1.0000000000000036
    vertex -34.52448880568291 244.23653295937885 1.0000000000000036
  endloop
endfacet
facet normal 0.0 0.0 -1.0
  outer loop
    vertex -34.52448880568291 244.23653295937885 1.0000000000000036
    vertex -34.52448880568291 246.23653295937885 1.0000000000000036
    vertex -34.265669760580394 246.20245878566794 1.0000000000000036
  endloop
endfacet
facet normal 0.0 0.0 -1.0
  outer loop
    vertex -34.52448880568291 244.23653295937885 1.0000000000000036
    vertex -34.265669760580394 246.20245878566794 1.0000000000000036
    vertex -34.265669760580394 244.27060713308978 1.0000000000000036
  endloop
endfacet
facet normal 0.0 0.0 -1.0
  outer loop
    vertex -34.265669760580394 244.27060713308978 1.0000000000000036
    vertex -34.265669760580394 246.20245878566794 1.0000000000000036
    vertex -34.02448880568291 246.1025583631633 1.0000000000000036
  endloop
endfacet
facet normal 0.0 0.0 -1.0
  outer loop
    vertex -34.265669760580394 244.27060713308978 1.0000000000000036
    vertex -34.02448880568291 246.1025583631633 1.0000000000000036
    vertex -34.02448880568291 244.37050755559443 1.0000000000000036
  endloop
endfacet
facet normal 0.0 0.0 -1.0
  outer loop
    vertex -34.02448880568291 244.37050755559443 1.0000000000000036
    vertex -34.02448880568291 246.1025583631633 1.0000000000000036
    vertex -33.817382024496354 245.9436397405654 1.0000000000000036
  endloop
endfacet
facet normal 0.0 0.0 -1.0
  outer loop
    vertex -34.02448880568291 244.37050755559443 1.0000000000000036
    vertex -33.817382024496354 245.9436397405654 1.0000000000000036
    vertex -33.817382024496354 244.5294261781923 1.0000000000000036
  endloop
endfacet
facet normal 0.0 0.0 -1.0
  outer loop
    vertex -33.817382024496354 244.5294261781923 1.0000000000000036
    vertex -33.817382024496354 245.9436397405654 1.0000000000000036
    vertex -33.65846340189847 245.73653295937888 1.0000000000000036
  endloop
endfacet
facet normal 0.0 0.0 -1.0
  outer loop
    vertex -33.817382024496354 244.5294261781923 1.0000000000000036
    vertex -33.65846340189847 245.73653295937888 1.0000000000000036
    vertex -33.65846340189847 244.73653295937885 1.0000000000000036
  endloop
endfacet
facet normal 0.0 0.0 -1.0
  outer loop
    vertex -33.65846340189847 244.73653295937885 1.0000000000000036
    vertex -33.65846340189847 245.73653295937888 1.0000000000000036
    vertex -33.55856297939385 245.49535200448136 1.0000000000000036
  endloop
endfacet
facet normal 0.0 0.0 -1.0
  outer loop
    vertex -33.65846340189847 244.73653295937885 1.0000000000000036
    vertex -33.55856297939385 245.49535200448136 1.0000000000000036
    vertex -33.55856297939385 244.97771391427628 1.0000000000000036
  endloop
endfacet
facet normal 0.0 0.0 -1.0
  outer loop
    vertex -33.55856297939385 244.97771391427628 1.0000000000000036
    vertex -33.55856297939385 245.49535200448136 1.0000000000000036
    vertex -33.52448880568291 245.23653295937882 1.0000000000000036
  endloop
endfacet
facet normal 0.0 -1.0 0.0
  outer loop
    vertex -31.18163592161028 236.8891543457072 7.000000000000001
    vertex -38.41233797722453 236.8891543457072 2.0000000000000004
    vertex -31.18163592161028 236.8891543457072 2.0000000000000004
  endloop
endfacet
facet normal 0.0 -1.0 0.0
  outer loop
    vertex -38.41233797722453 236.8891543457072 2.0000000000000004
    vertex -31.18163592161028 236.8891543457072 7.000000000000001
    vertex -38.41233797722453 236.8891543457072 7.000000000000001
  endloop
endfacet
facet normal 0.4999999999999707 -0.8660254037844556 7.372238828417747e-15
  outer loop
    vertex -34.02448880568291 244.37050755559443 1.9999999999999998
    vertex -34.265669760580394 244.27060713308978 1.0000000000000036
    vertex -34.02448880568291 244.37050755559443 1.0000000000000036
  endloop
endfacet
facet normal 0.2588190451025278 -0.9659258262890664 1.190062374185461e-14
  outer loop
    vertex -34.265669760580394 244.27060713308978 1.0000000000000036
    vertex -34.02448880568291 244.37050755559443 1.9999999999999998
    vertex -34.265669760580394 244.27060713308978 1.9999999999999998
  endloop
endfacet
facet normal -0.9659258262890653 -0.25881904510253184 -1.1546208795598634e-15
  outer loop
    vertex -35.49041463197198 244.97771391427628 1.9999999999999998
    vertex -35.39051420946735 244.73653295937885 1.0000000000000036
    vertex -35.39051420946734 244.73653295937885 1.9999999999999998
  endloop
endfacet
facet normal -0.8660254037844358 -0.5000000000000052 7.462577209481777e-17
  outer loop
    vertex -35.39051420946735 244.73653295937885 1.0000000000000036
    vertex -35.49041463197198 244.97771391427628 1.9999999999999998
    vertex -35.49041463197198 244.97771391427636 1.0000000000000036
  endloop
endfacet
facet normal 0.0 1.0 7.914655504889749e-32
  outer loop
    vertex -34.52448880568291 246.23653295937885 1.9999999999999998
    vertex -34.265669760580394 246.20245878566794 1.0000000000000036
    vertex -34.52448880568291 246.23653295937885 1.0000000000000036
  endloop
endfacet
facet normal 0.25881904510252524 0.9659258262890671 1.8012567222793136e-16
  outer loop
    vertex -34.265669760580394 246.20245878566794 1.0000000000000036
    vertex -34.52448880568291 246.23653295937885 1.9999999999999998
    vertex -34.265669760580394 246.20245878566794 1.9999999999999998
  endloop
endfacet
facet normal -0.013536852843207582 0.9999083726097614 0.0
  outer loop
    vertex -41.21086294898711 252.02053977529246 1.9999999999999998
    vertex -37.97015560818521 251.63844657208304 0.0
    vertex -41.21086294898711 252.02053977529246 0.0
  endloop
endfacet
facet normal 0.24571973442094444 0.9693409163530137 0.0
  outer loop
    vertex -37.97015560818521 251.63844657208304 0.0
    vertex -41.21086294898711 252.02053977529246 1.9999999999999998
    vertex -37.97015560818521 251.63844657208304 1.9999999999999998
  endloop
endfacet
facet normal 0.707106781186535 -0.70710678118656 9.363915144394869e-17
  outer loop
    vertex -33.81738202449637 244.5294261781923 1.9999999999999998
    vertex -34.02448880568291 244.37050755559443 1.0000000000000036
    vertex -33.817382024496354 244.5294261781923 1.0000000000000036
  endloop
endfacet
facet normal 0.4999999999999707 -0.8660254037844556 7.372238828417747e-15
  outer loop
    vertex -34.02448880568291 244.37050755559443 1.0000000000000036
    vertex -33.81738202449637 244.5294261781923 1.9999999999999998
    vertex -34.02448880568291 244.37050755559443 1.9999999999999998
  endloop
endfacet
facet normal 1.0 -1.3241909304931296e-14 7.424659417894128e-16
  outer loop
    vertex -33.52448880568291 245.23653295937882 1.0000000000000036
    vertex -33.55856297939385 244.97771391427628 1.9999999999999998
    vertex -33.55856297939385 244.97771391427628 1.0000000000000036
  endloop
endfacet
facet normal 0.9659258262890656 -0.2588190451025306 3.22360178614911e-15
  outer loop
    vertex -33.55856297939385 244.97771391427628 1.9999999999999998
    vertex -33.52448880568291 245.23653295937882 1.0000000000000036
    vertex -33.52448880568291 245.23653295937882 1.9999999999999998
  endloop
endfacet
facet normal -0.9693409163530137 0.24571973442094497 0.0
  outer loop
    vertex -53.158413742859686 242.59318179793226 1.9999999999999998
    vertex -53.54050694606904 239.3524744571303 0.0
    vertex -53.54050694606904 239.3524744571303 1.9999999999999998
  endloop
endfacet
facet normal -0.9999083726097614 -0.013536852843207868 0.0
  outer loop
    vertex -53.54050694606904 239.3524744571303 0.0
    vertex -53.158413742859686 242.59318179793226 1.9999999999999998
    vertex -53.158413742859686 242.59318179793226 0.0
  endloop
endfacet
facet normal 0.8660254037844318 -0.5000000000000118 -9.413736191643499e-17
  outer loop
    vertex -33.65846340189847 244.73653295937885 1.0000000000000036
    vertex -33.81738202449637 244.5294261781923 1.9999999999999998
    vertex -33.817382024496354 244.5294261781923 1.0000000000000036
  endloop
endfacet
facet normal 0.707106781186535 -0.70710678118656 9.363915144394869e-17
  outer loop
    vertex -33.81738202449637 244.5294261781923 1.9999999999999998
    vertex -33.65846340189847 244.73653295937885 1.0000000000000036
    vertex -33.65846340189847 244.73653295937885 1.9999999999999998
  endloop
endfacet
facet normal 0.8660254037844309 0.5000000000000132 9.478985514766699e-16
  outer loop
    vertex -33.65846340189847 245.73653295937888 1.0000000000000036
    vertex -33.558562979393834 245.49535200448136 1.9999999999999998
    vertex -33.55856297939385 245.49535200448136 1.0000000000000036
  endloop
endfacet
facet normal 0.9659258262890678 0.2588190451025232 -2.274039914218792e-15
  outer loop
    vertex -33.558562979393834 245.49535200448136 1.9999999999999998
    vertex -33.65846340189847 245.73653295937888 1.0000000000000036
    vertex -33.65846340189846 245.7365329593788 1.9999999999999998
  endloop
endfacet
facet normal -0.7071067811865411 0.7071067811865539 -9.989004931155241e-16
  outer loop
    vertex -35.23159558686945 245.9436397405654 1.9999999999999998
    vertex -35.02448880568291 246.1025583631633 1.0000000000000036
    vertex -35.23159558686945 245.9436397405654 1.0000000000000036
  endloop
endfacet
facet normal -0.5000000000000207 0.8660254037844267 -4.3217750847322944e-16
  outer loop
    vertex -35.02448880568291 246.1025583631633 1.0000000000000036
    vertex -35.23159558686945 245.9436397405654 1.9999999999999998
    vertex -35.02448880568291 246.1025583631633 1.9999999999999998
  endloop
endfacet
facet normal -0.2718709259568029 0.962333725699869 0.0
  outer loop
    vertex -44.44003886290705 251.5508566889188 1.9999999999999998
    vertex -41.21086294898711 252.02053977529246 0.0
    vertex -44.44003886290705 251.5508566889188 0.0
  endloop
endfacet
facet normal -0.013536852843207582 0.9999083726097614 0.0
  outer loop
    vertex -41.21086294898711 252.02053977529246 0.0
    vertex -44.44003886290705 251.5508566889188 1.9999999999999998
    vertex -41.21086294898711 252.02053977529246 1.9999999999999998
  endloop
endfacet
facet normal 0.2718709259568021 -0.9623337256998691 0.0
  outer loop
    vertex -37.64326571398698 227.49251354642203 1.9999999999999998
    vertex -40.87244162790692 227.0228304600484 0.0
    vertex -37.64326571398698 227.49251354642203 0.0
  endloop
endfacet
facet normal 0.013536852843205735 -0.9999083726097615 0.0
  outer loop
    vertex -40.87244162790692 227.0228304600484 0.0
    vertex -37.64326571398698 227.49251354642203 1.9999999999999998
    vertex -40.87244162790692 227.0228304600484 1.9999999999999998
  endloop
endfacet
facet normal -0.5116774447543903 0.8591776257152056 0.0
  outer loop
    vertex -47.437620347876894 250.26140543911052 1.9999999999999998
    vertex -44.44003886290705 251.5508566889188 0.0
    vertex -47.437620347876894 250.26140543911052 0.0
  endloop
endfacet
facet normal -0.2718709259568029 0.962333725699869 0.0
  outer loop
    vertex -44.44003886290705 251.5508566889188 0.0
    vertex -47.437620347876894 250.26140543911052 1.9999999999999998
    vertex -44.44003886290705 251.5508566889188 1.9999999999999998
  endloop
endfacet
facet normal -0.48823092785537037 -0.8727144785584139 0.0
  outer loop
    vertex -47.14453888663916 228.61275413569027 1.9999999999999998
    vertex -49.760027168399645 230.56401022668382 0.0
    vertex -47.14453888663916 228.61275413569027 0.0
  endloop
endfacet
facet normal -0.6974699903962115 -0.7166139912789231 0.0
  outer loop
    vertex -49.760027168399645 230.56401022668382 0.0
    vertex -47.14453888663916 228.61275413569027 1.9999999999999998
    vertex -49.760027168399645 230.56401022668382 1.9999999999999998
  endloop
endfacet
facet normal 0.25881904510252524 0.9659258262890671 1.8012567222793136e-16
  outer loop
    vertex -34.265669760580394 246.20245878566794 1.9999999999999998
    vertex -34.02448880568291 246.1025583631633 1.0000000000000036
    vertex -34.265669760580394 246.20245878566794 1.0000000000000036
  endloop
endfacet
facet normal 0.5000000000000306 0.8660254037844209 3.486942860392635e-15
  outer loop
    vertex -34.02448880568291 246.1025583631633 1.0000000000000036
    vertex -34.265669760580394 246.20245878566794 1.9999999999999998
    vertex -34.02448880568291 246.1025583631633 1.9999999999999998
  endloop
endfacet
endsolid frag ver 2
