solid Pliers_Right-FLIPPED
facet normal 0.00865589672913878 1.877092220665122e-05 0.9999625368479896
  outer loop
    vertex 1.1878916123602332 0.3874367462915586 0.3590792161778868
    vertex 0.7853783887647191 0.632309968064483 0.36255886293578143
    vertex 1.1254055617021417 0.388628857774986 0.35962008686508384
  endloop
endfacet
facet normal 0.008655896729169901 1.877092224996447e-05 0.9999625368479894
  outer loop
    vertex 1.1254055617021417 0.388628857774986 0.35962008686508384
    vertex 0.7853783887647191 0.632309968064483 0.36255886293578143
    vertex 1.0629190343115043 0.38982097835352725 0.36016096167881434
  endloop
endfacet
facet normal 0.008655896729134305 1.8770922209789875e-05 0.9999625368479896
  outer loop
    vertex 1.0004327452871382 0.3910130943845172 0.36070183442927595
    vertex 1.0629190343115043 0.38982097835352725 0.36016096167881434
    vertex 0.7853783887647191 0.632309968064483 0.36255886293578143
  endloop
endfacet
facet normal 0.008655896729134305 1.8770922209789875e-05 0.9999625368479896
  outer loop
    vertex 1.0629190343115043 0.38982097835352725 0.36016096167881434
    vertex 1.0004327452871382 0.3910130943845172 0.36070183442927595
    vertex 1.0310800930093047 0.3591724785314114 0.36043714191388015
  endloop
endfacet
facet normal 0.008655896729185751 1.8770922289663567e-05 0.9999625368479892
  outer loop
    vertex 1.312863952042687 0.38505251877715246 0.3579974727402227
    vertex 0.7853783887647191 0.632309968064483 0.36255886293578143
    vertex 1.2503779013845986 0.38624463026057426 0.3585383434274225
  endloop
endfacet
facet normal 0.00865589672916284 1.8770922246137478e-05 0.9999625368479894
  outer loop
    vertex 1.2503779013845986 0.38624463026057426 0.3585383434274225
    vertex 0.7853783887647191 0.632309968064483 0.36255886293578143
    vertex 1.1878916123602332 0.3874367462915586 0.3590792161778868
  endloop
endfacet
facet normal 0.008655896729160367 1.8770922240468558e-05 0.9999625368479894
  outer loop
    vertex 1.500323057482059 0.381476166136637 0.3563748524255649
    vertex 1.919786300387598 0.4156906957984182 0.3527432436235085
    vertex 0.7853783887647191 0.632309968064483 0.36255886293578143
  endloop
endfacet
facet normal 0.008655896729160367 1.8770922240468558e-05 0.9999625368479894
  outer loop
    vertex 1.919786300387598 0.4156906957984182 0.3527432436235085
    vertex 1.500323057482059 0.381476166136637 0.3563748524255649
    vertex 1.5628093465064177 0.38028405010565264 0.3558339796751032
  endloop
endfacet
facet normal 0.008655896729160367 1.8770922240468558e-05 0.9999625368479894
  outer loop
    vertex 1.919786300387598 0.4156906957984182 0.3527432436235085
    vertex 1.5628093465064177 0.38028405010565264 0.3558339796751032
    vertex 1.6252956355307902 0.3790919340746683 0.35529310692463756
  endloop
endfacet
facet normal 0.008655896729160367 1.8770922240468558e-05 0.9999625368479894
  outer loop
    vertex 1.919786300387598 0.4156906957984182 0.3527432436235085
    vertex 1.6252956355307902 0.3790919340746683 0.35529310692463756
    vertex 1.687781924555152 0.377899818043684 0.35475223417417306
  endloop
endfacet
facet normal 0.008655896729160367 1.8770922240468558e-05 0.9999625368479894
  outer loop
    vertex 1.919786300387598 0.4156906957984182 0.3527432436235085
    vertex 1.687781924555152 0.377899818043684 0.35475223417417306
    vertex 1.7502682135795236 0.37670770201269965 0.35421136142371
  endloop
endfacet
facet normal 0.008655896729160367 1.8770922240468558e-05 0.9999625368479894
  outer loop
    vertex 1.919786300387598 0.4156906957984182 0.3527432436235085
    vertex 1.7502682135795236 0.37670770201269965 0.35421136142371
    vertex 1.8127542642376053 0.37551559052927225 0.3536704907365102
  endloop
endfacet
facet normal 0.008655896729160367 1.8770922240468558e-05 0.9999625368479894
  outer loop
    vertex 1.919786300387598 0.4156906957984182 0.3527432436235085
    vertex 1.8127542642376053 0.37551559052927225 0.3536704907365102
    vertex 1.8752407916282519 0.374323469950731 0.3531296159227813
  endloop
endfacet
facet normal 0.008655896729174878 1.8770922238118167e-05 0.9999625368479894
  outer loop
    vertex 0.8101409880433148 0.5436092440697173 0.36234617746020575
    vertex 0.7853783887647191 0.632309968064483 0.36255886293578143
    vertex 0.7795731077076413 0.5974528981169869 0.3626097690555493
  endloop
endfacet
facet normal 0.008655896729174878 1.8770922238118167e-05 0.9999625368479894
  outer loop
    vertex 0.7853783887647191 0.632309968064483 0.36255886293578143
    vertex 0.8101409880433148 0.5436092440697173 0.36234617746020575
    vertex 1.0004327452871382 0.3910130943845172 0.36070183442927595
  endloop
endfacet
facet normal 0.008655896729174878 1.8770922238118167e-05 0.9999625368479894
  outer loop
    vertex 1.0004327452871382 0.3910130943845172 0.36070183442927595
    vertex 0.8101409880433148 0.5436092440697173 0.36234617746020575
    vertex 0.831458329357869 0.4854785412261975 0.36216274105004165
  endloop
endfacet
facet normal 0.008655896729174878 1.8770922238118167e-05 0.9999625368479894
  outer loop
    vertex 1.0004327452871382 0.3910130943845172 0.36070183442927595
    vertex 0.831458329357869 0.4854785412261975 0.36216274105004165
    vertex 0.9382773054917647 0.3918612363248383 0.3612398497326433
  endloop
endfacet
facet normal 0.008655896729159167 1.8770922232014264e-05 0.9999625368479895
  outer loop
    vertex 0.8429473984790585 0.4246377912948547 0.362064431208202
    vertex 0.9382773054917647 0.3918612363248383 0.3612398497326433
    vertex 0.831458329357869 0.4854785412261975 0.36216274105004165
  endloop
endfacet
facet normal 0.008655896729159167 1.8770922232014264e-05 0.9999625368479895
  outer loop
    vertex 0.9382773054917647 0.3918612363248383 0.3612398497326433
    vertex 0.8429473984790585 0.4246377912948547 0.362064431208202
    vertex 0.8761352205316985 0.39338444775156994 0.3617777367614529
  endloop
endfacet
facet normal 0.008655896729161418 1.8770922240955917e-05 0.9999625368479894
  outer loop
    vertex 1.312863952042687 0.38505251877715246 0.3579974727402227
    vertex 1.500323057482059 0.381476166136637 0.3563748524255649
    vertex 0.7853783887647191 0.632309968064483 0.36255886293578143
  endloop
endfacet
facet normal 0.008655896729161418 1.8770922240955917e-05 0.9999625368479894
  outer loop
    vertex 1.500323057482059 0.381476166136637 0.3563748524255649
    vertex 1.312863952042687 0.38505251877715246 0.3579974727402227
    vertex 1.3753504794333289 0.3838603981986056 0.35745659792649503
  endloop
endfacet
facet normal 0.008655896729161418 1.8770922240955917e-05 0.9999625368479894
  outer loop
    vertex 1.500323057482059 0.381476166136637 0.3563748524255649
    vertex 1.3753504794333289 0.3838603981986056 0.35745659792649503
    vertex 1.4378367684576936 0.3826682821676213 0.35691572517602915
  endloop
endfacet
facet normal 0.00865589672914607 1.8770922229971448e-05 0.9999625368479896
  outer loop
    vertex -1.4151907600825624 -0.35404606858839466 0.3816259913607657
    vertex -1.5454069865577866 -0.35461411106988106 0.38275318246040707
    vertex -1.455999762648664 -0.45956145444755186 0.3819812238018263
  endloop
endfacet
facet normal 0.008655896729135342 1.8770922260957414e-05 0.9999625368479896
  outer loop
    vertex 0.16669373208431412 0.16196320760657199 0.36792316323798324
    vertex -0.36017911316386714 -0.22306552699472068 0.3724911186502906
    vertex -0.23536818718077063 -0.16610565478569406 0.37140965846007246
  endloop
endfacet
facet normal 0.008655896729173438 1.8770922214183503e-05 0.9999625368479894
  outer loop
    vertex 0.16669373208431412 0.16196320760657199 0.36792316323798324
    vertex -0.23536818718077063 -0.16610565478569406 0.37140965846007246
    vertex -0.11341317902277472 -0.1032628100325994 0.37035280929279973
  endloop
endfacet
facet normal 0.042233225723476556 -0.04569701993386401 0.9980621909551299
  outer loop
    vertex 0.027082743944195107 -0.06166182245235618 0.3604118404175213
    vertex 0.16669373208431412 0.16196320760657199 0.36792316323798324
    vertex -0.02958220744022142 -0.06121597135907834 0.36962636058708087
  endloop
endfacet
facet normal 0.042233225723476556 -0.04569701993386401 0.9980621909551299
  outer loop
    vertex 0.16669373208431412 0.16196320760657199 0.36792316323798324
    vertex 0.027082743944195107 -0.06166182245235618 0.3604118404175213
    vertex 0.05696575292384324 -0.025091185578519703 0.3688765041925189
  endloop
endfacet
facet normal 0.042233225723476556 -0.04569701993386401 0.9980621909551299
  outer loop
    vertex 0.16669373208431412 0.16196320760657199 0.36792316323798324
    vertex 0.05696575292384324 -0.025091185578519703 0.3688765041925189
    vertex 0.20237730964748663 0.12041553951734153 0.3676150582211313
  endloop
endfacet
facet normal 0.008655896729151227 1.8770922239607654e-05 0.9999625368479896
  outer loop
    vertex 0.16669373208431412 0.16196320760657199 0.36792316323798324
    vertex -0.05587050784719365 0.04510543727136664 0.3698519220999395
    vertex -0.36017911316386714 -0.22306552699472068 0.3724911186502906
  endloop
endfacet
facet normal 0.008655896729151227 1.8770922239607654e-05 0.9999625368479896
  outer loop
    vertex -0.05587050784719365 0.04510543727136664 0.3698519220999395
    vertex 0.16669373208431412 0.16196320760657199 0.36792316323798324
    vertex -0.016957829018687025 0.07174922334790006 0.3695145852044048
  endloop
endfacet
facet normal 0.008655896729151227 1.8770922239607654e-05 0.9999625368479896
  outer loop
    vertex -0.016957829018687025 0.07174922334790006 0.3695145852044048
    vertex 0.16669373208431412 0.16196320760657199 0.36792316323798324
    vertex 0.018673878752662104 0.10264418825339326 0.3692055693179591
  endloop
endfacet
facet normal 0.008655896729151227 1.8770922239607654e-05 0.9999625368479896
  outer loop
    vertex 0.018673878752662104 0.10264418825339326 0.3692055693179591
    vertex 0.16669373208431412 0.16196320760657199 0.36792316323798324
    vertex 0.05056236235736157 0.137389711686759 0.36892888332598
  endloop
endfacet
facet normal -0.006962305095730869 0.051358773078430654 0.9986559981973934
  outer loop
    vertex -1.285144195947016 -0.34737707850438193 0.3805001543711313
    vertex -1.4151907600825624 -0.35404606858839466 0.3816259913607657
    vertex -1.4263917343398265 -0.4543622151524683 0.38172483256669065
  endloop
endfacet
facet normal -0.006962305095730869 0.051358773078430654 0.9986559981973934
  outer loop
    vertex -1.4151907600825624 -0.35404606858839466 0.3816259913607657
    vertex -1.285144195947016 -0.34737707850438193 0.3805001543711313
    vertex -1.3551112705474666 -0.32813005332547523 0.37194749341103756
  endloop
endfacet
facet normal 0.008655896729136992 1.8770922240509734e-05 0.9999625368479896
  outer loop
    vertex -1.285144195947016 -0.34737707850438193 0.3805001543711313
    vertex -1.4263917343398265 -0.4543622151524683 0.38172483256669065
    vertex -1.2893486752081182 -0.44794712778188084 0.380538437136183
  endloop
endfacet
facet normal 0.008655896729172875 1.8770922239007382e-05 0.9999625368479894
  outer loop
    vertex -1.1555527353005306 -0.3346214875023553 0.3793781426024884
    vertex -1.285144195947016 -0.34737707850438193 0.3805001543711313
    vertex -1.2893486752081182 -0.44794712778188084 0.380538437136183
  endloop
endfacet
facet normal 0.008655896729190581 1.877092221810564e-05 0.9999625368479892
  outer loop
    vertex -1.1527667296824264 -0.4350089394453482 0.3793559107577483
    vertex -1.1555527353005306 -0.3346214875023553 0.3793781426024884
    vertex -1.2893486752081182 -0.44794712778188084 0.380538437136183
  endloop
endfacet
facet normal 0.008655896729153064 1.8770922217065187e-05 0.9999625368479896
  outer loop
    vertex -1.0267013948343096 -0.3158077196202946 0.3782624237558816
    vertex -1.1555527353005306 -0.3346214875023553 0.3793781426024884
    vertex -1.1527667296824264 -0.4350089394453482 0.3793559107577483
  endloop
endfacet
facet normal 0.008655896729147537 1.877092222291216e-05 0.9999625368479896
  outer loop
    vertex -1.0169566257042943 -0.4155770144322973 0.3781799437123536
    vertex -1.0267013948343096 -0.3158077196202946 0.3782624237558816
    vertex -1.1527667296824264 -0.4350089394453482 0.3793559107577483
  endloop
endfacet
facet normal -0.012875511837280734 0.04739796711950559 0.998793098648497
  outer loop
    vertex -1.0169566257042943 -0.4155770144322973 0.3781799437123536
    vertex -0.9708466497786249 -0.28171499482456996 0.36862018568991295
    vertex -1.0267013948343096 -0.3158077196202946 0.3782624237558816
  endloop
endfacet
facet normal -0.012875511837280734 0.04739796711950559 0.998793098648497
  outer loop
    vertex -0.9708466497786249 -0.28171499482456996 0.36862018568991295
    vertex -1.0169566257042943 -0.4155770144322973 0.3781799437123536
    vertex -0.8988732273611993 -0.2909768748469994 0.37715544877052815
  endloop
endfacet
facet normal 0.008655896729188805 1.8770922199429913e-05 0.9999625368479892
  outer loop
    vertex -0.8822267213263167 -0.3896955468865211 0.37701320604504
    vertex -0.8988732273611993 -0.2909768748469994 0.37715544877052815
    vertex -1.0169566257042943 -0.4155770144322973 0.3781799437123536
  endloop
endfacet
facet normal -0.01468007885147287 0.04595835632349913 0.9988354843361127
  outer loop
    vertex -0.8822267213263167 -0.3896955468865211 0.37701320604504
    vertex -0.8446766540146045 -0.25430040967353956 0.36752746116760227
    vertex -0.8988732273611993 -0.2909768748469994 0.37715544877052815
  endloop
endfacet
facet normal -0.01468007885147287 0.04595835632349913 0.9988354843361127
  outer loop
    vertex -0.8446766540146045 -0.25430040967353956 0.36752746116760227
    vertex -0.8822267213263167 -0.3896955468865211 0.37701320604504
    vertex -0.7723487991336183 -0.26018345447973373 0.3760596473129997
  endloop
endfacet
facet normal 0.008655896729146122 1.8770922207122182e-05 0.9999625368479896
  outer loop
    vertex -0.7488829956174285 -0.35742308405573625 0.37585834747729296
    vertex -0.7723487991336183 -0.26018345447973373 0.3760596473129997
    vertex -0.8822267213263167 -0.3896955468865211 0.37701320604504
  endloop
endfacet
facet normal 0.00865589672917214 1.8770922213401566e-05 0.9999625368479894
  outer loop
    vertex -0.6474061257046427 -0.22349512388591056 0.3749774272175561
    vertex -0.7723487991336183 -0.26018345447973373 0.3760596473129997
    vertex -0.7488829956174285 -0.35742308405573625 0.37585834747729296
  endloop
endfacet
facet normal 0.008655896729164328 1.877092221932004e-05 0.9999625368479894
  outer loop
    vertex -0.617228496185052 -0.31883325221769304 0.37471799263825795
    vertex -0.6474061257046427 -0.22349512388591056 0.3749774272175561
    vertex -0.7488829956174285 -0.35742308405573625 0.37585834747729296
  endloop
endfacet
facet normal -0.018037452336518312 0.042926839071091884 0.9989153802002312
  outer loop
    vertex -0.617228496185052 -0.31883325221769304 0.37471799263825795
    vertex -0.5968834830526235 -0.18190023747610087 0.36538141107113303
    vertex -0.6474061257046427 -0.22349512388591056 0.3749774272175561
  endloop
endfacet
facet normal -0.018037452336518312 0.042926839071091884 0.9989153802002312
  outer loop
    vertex -0.5968834830526235 -0.18190023747610087 0.36538141107113303
    vertex -0.617228496185052 -0.31883325221769304 0.37471799263825795
    vertex -0.5243197184628987 -0.18099273069331967 0.3739111662330936
  endloop
endfacet
facet normal 0.00865589672914934 1.8770922229461134e-05 0.9999625368479896
  outer loop
    vertex -0.4875623629732495 -0.274013582994384 0.3735947325925213
    vertex -0.5243197184628987 -0.18099273069331967 0.3739111662330936
    vertex -0.617228496185052 -0.31883325221769304 0.37471799263825795
  endloop
endfacet
facet normal 0.008655896729152316 1.877092223063871e-05 0.9999625368479896
  outer loop
    vertex -0.4033599154832498 -0.13276960217034128 0.3728632062176426
    vertex -0.5243197184628987 -0.18099273069331967 0.3739111662330936
    vertex -0.4875623629732495 -0.274013582994384 0.3735947325925213
  endloop
endfacet
facet normal 0.008655896729183257 1.8770922212189794e-05 0.9999625368479892
  outer loop
    vertex -0.36017911316386714 -0.22306552699472068 0.3724911186502906
    vertex -0.4033599154832498 -0.13276960217034128 0.3728632062176426
    vertex -0.4875623629732495 -0.274013582994384 0.3735947325925213
  endloop
endfacet
facet normal 0.008655896729191074 1.8770922215928556e-05 0.9999625368479892
  outer loop
    vertex -0.2847924552911064 -0.07893107643374225 0.37183584943997494
    vertex -0.4033599154832498 -0.13276960217034128 0.3728632062176426
    vertex -0.36017911316386714 -0.22306552699472068 0.3724911186502906
  endloop
endfacet
facet normal -0.057202346200106016 0.07162834258109017 0.9957897730586959
  outer loop
    vertex -0.1688777294561383 -0.019595947479476083 0.3708313521370346
    vertex -0.2847924552911064 -0.07893107643374225 0.37183584943997494
    vertex -0.36017911316386714 -0.22306552699472068 0.3724911186502906
  endloop
endfacet
facet normal -0.057202346200106016 0.07162834258109017 0.9957897730586959
  outer loop
    vertex -0.2847924552911064 -0.07893107643374225 0.37183584943997494
    vertex -0.1688777294561383 -0.019595947479476083 0.3708313521370346
    vertex -0.24059796207475523 -0.030653418969909984 0.36229437477512916
  endloop
endfacet
facet normal -0.019072979486059762 -0.9998180772750774 0.00018386813640830385
  outer loop
    vertex 1.9679413950688565 0.34128980406786513 0.30232591395730196
    vertex 1.9058876626178665 0.3424828631927439 0.3528649275339161
    vertex 1.9657774209833068 0.3412851113375139 0.05233529092075907
  endloop
endfacet
facet normal -0.019072979486059762 -0.9998180772750774 0.00018386813640830385
  outer loop
    vertex 1.9058876626178665 0.3424828631927439 0.3528649275339161
    vertex 1.9679413950688565 0.34128980406786513 0.30232591395730196
    vertex 1.9586487394058447 0.3414724946751765 0.3317967130642202
  endloop
endfacet
facet normal -0.019072979486059762 -0.9998180772750774 0.00018386813640830385
  outer loop
    vertex 1.9058876626178665 0.3424828631927439 0.3528649275339161
    vertex 1.9586487394058447 0.3414724946751765 0.3317967130642202
    vertex 1.9338115889891854 0.3419496793064012 0.35017597208435786
  endloop
endfacet
facet normal -0.01907297948609564 -0.9998180772750768 0.00018386813639737374
  outer loop
    vertex 1.9508299787080507 0.3415637771190101 0.01710801251762794
    vertex 1.9058876626178665 0.3424828631927439 0.3528649275339161
    vertex 1.902858098765887 0.3424762933699713 0.0028780400096344236
  endloop
endfacet
facet normal -0.01907297948609564 -0.9998180772750768 0.00018386813639737374
  outer loop
    vertex 1.9058876626178665 0.3424828631927439 0.3528649275339161
    vertex 1.9508299787080507 0.3415637771190101 0.01710801251762794
    vertex 1.9657774209833068 0.3412851113375139 0.05233529092075907
  endloop
endfacet
facet normal 0.9863754215692789 -0.1642883991344995 -0.008535199695998988
  outer loop
    vertex 0.24219450900492254 0.08448950610500869 0.19126447332513294
    vertex 0.22501104878303563 -0.025232819974038746 0.3174199844800012
    vertex 0.22392040590660328 -0.02523518510999978 0.19142471771127578
  endloop
endfacet
facet normal 0.9863754284787097 -0.16428834333190148 -0.00853547530611421
  outer loop
    vertex 0.24219450900492254 0.08448950610500869 0.19126447332513294
    vertex 0.23434780307917122 0.028230250947423905 0.3673400450316279
    vertex 0.22501104878303563 -0.025232819974038746 0.3174199844800012
  endloop
endfacet
facet normal 0.9863754284787097 -0.16428834333190148 -0.00853547530611421
  outer loop
    vertex 0.23434780307917122 0.028230250947423905 0.3673400450316279
    vertex 0.24219450900492254 0.08448950610500869 0.19126447332513294
    vertex 0.24371794682099648 0.08449280978729604 0.3672578788567404
  endloop
endfacet
facet normal 0.08458368189059176 0.41557635035364865 0.9056168603689824
  outer loop
    vertex 1.9412331037633659 0.44315616167762323 0.34140356001482164
    vertex 0.791517847471649 0.6701016675795983 0.3446433014103585
    vertex 0.7853783887647191 0.632309968064483 0.36255886293578143
  endloop
endfacet
facet normal 0.07160316796716516 0.33236332915547795 0.9404294783606868
  outer loop
    vertex 1.9412331037633659 0.44315616167762323 0.34140356001482164
    vertex 0.7853783887647191 0.632309968064483 0.36255886293578143
    vertex 1.919786300387598 0.4156906957984182 0.3527432436235085
  endloop
endfacet
facet normal 0.1479358459311993 0.7400838025421203 0.656041881821135
  outer loop
    vertex 0.791517847471649 0.6701016675795983 0.3446433014103585
    vertex 1.9412331037633659 0.44315616167762323 0.34140356001482164
    vertex 1.9215321113775052 0.4592855930393106 0.32765040161025927
  endloop
endfacet
facet normal 0.17974690193202714 0.9328654001796564 0.3121749451725553
  outer loop
    vertex 0.7931619201170215 0.6816433886514435 0.31248867575044403
    vertex 1.9215321113775052 0.4592855930393106 0.32765040161025927
    vertex 1.887315132141548 0.4727108325304154 0.30302136572277155
  endloop
endfacet
facet normal 0.17974690193202714 0.9328654001796564 0.3121749451725553
  outer loop
    vertex 1.9215321113775052 0.4592855930393106 0.32765040161025927
    vertex 0.7931619201170215 0.6816433886514435 0.31248867575044403
    vertex 0.791517847471649 0.6701016675795983 0.3446433014103585
  endloop
endfacet
facet normal 0.276357044728861 -0.9610544944989222 -0.001020995666684293
  outer loop
    vertex 0.22392040590660328 -0.02523518510999978 0.19142471771127578
    vertex 0.12796967538682058 -0.052695543294632455 0.06825115661341488
    vertex 0.2266950046426595 -0.024305568049483896 0.06739603541726942
  endloop
endfacet
facet normal 0.1836983509848966 -0.9828548694062988 -0.015849969392937806
  outer loop
    vertex 0.22392040590660328 -0.02523518510999978 0.19142471771127578
    vertex 0.3105671982975893 -0.007028798052067599 0.0666696948586327
    vertex 0.3624459568258822 0.0006749768035995565 0.19022512354995577
  endloop
endfacet
facet normal 0.08435899255065032 -0.9963871309661153 -0.00981048525572981
  outer loop
    vertex 0.3624459568258822 0.0006749768035995565 0.19022512354995577
    vertex 0.3953949272314312 0.004688363178587871 0.06593518733832532
    vertex 0.4818834527648883 0.010797319033319994 0.18919105617439652
  endloop
endfacet
facet normal 0.4483011985639671 -0.893874211677131 -0.003863814785703978
  outer loop
    vertex -0.08989195215209775 -0.14715158270691803 0.32014814306883277
    vertex -0.09205592623764956 -0.14715627543726365 0.07015752003228792
    vertex -0.009165783114387857 -0.1066622825691225 0.3194485994576888
  endloop
endfacet
facet normal 0.4499070261879523 -0.8930639128874928 -0.004529380177672774
  outer loop
    vertex -0.009165783114387857 -0.1066622825691225 0.3194485994576888
    vertex -0.09205592623764956 -0.14715627543726365 0.07015752003228792
    vertex -0.015579995981129798 -0.1086259311337241 0.06949480420020003
  endloop
endfacet
facet normal 0.3851595704279099 -0.9228438282291532 -0.003372537197580172
  outer loop
    vertex 0.018123318818359872 -0.09527173029678528 0.3192121651407819
    vertex 0.015957472277486527 -0.09526207958675864 0.06922155804337407
    vertex 0.07417676445956864 -0.07187540010842292 0.3187265149393164
  endloop
endfacet
facet normal 0.3901267789347619 -0.9207490119464523 -0.004727933757899006
  outer loop
    vertex 0.07417676445956864 -0.07187540010842292 0.3187265149393164
    vertex 0.015957472277486527 -0.09526207958675864 0.06922155804337407
    vertex 0.06326662421008425 -0.07521480853509831 0.06881166324818591
  endloop
endfacet
facet normal 0.32017461357508453 -0.9473576294807886 -0.0013185926535992465
  outer loop
    vertex 0.07417676445956864 -0.07187540010842292 0.3187265149393164
    vertex 0.06326662421008425 -0.07521480853509831 0.06881166324818591
    vertex 0.13021254036293728 -0.052936540694953654 0.3182411013649799
  endloop
endfacet
facet normal 0.3286687737951906 -0.944437368775425 -0.003859221750251959
  outer loop
    vertex 0.13021254036293728 -0.052936540694953654 0.3182411013649799
    vertex 0.06326662421008425 -0.07521480853509831 0.06881166324818591
    vertex 0.12796967538682058 -0.052695543294632455 0.06825115661341488
  endloop
endfacet
facet normal 0.27161355461325415 -0.9624018024326794 0.0029744957022859063
  outer loop
    vertex 0.15973319029454386 -0.0429592413341785 0.31798537680443373
    vertex 0.12796967538682058 -0.052695543294632455 0.06825115661341488
    vertex 0.22392040590660328 -0.02523518510999978 0.19142471771127578
  endloop
endfacet
facet normal -0.008655896729159597 -1.877092222832339e-05 -0.9999625368479894
  outer loop
    vertex 1.9167567365356228 0.4156841259756456 0.0027563560992270126
    vertex 1.2473483375326158 0.3862380604378017 0.008551455903140869
    vertex 0.6815485018708717 0.6515516862500127 0.013444163964833855
  endloop
endfacet
facet normal -0.008655896729159597 -1.877092222832339e-05 -0.9999625368479894
  outer loop
    vertex 1.2473483375326158 0.3862380604378017 0.008551455903140869
    vertex 1.9167567365356228 0.4156841259756456 0.0027563560992270126
    vertex 1.3098343881907075 0.3850459489543799 0.008010585215943836
  endloop
endfacet
facet normal -0.008655896729159597 -1.877092222832339e-05 -0.9999625368479894
  outer loop
    vertex 1.3098343881907075 0.3850459489543799 0.008010585215943836
    vertex 1.9167567365356228 0.4156841259756456 0.0027563560992270126
    vertex 1.372320915581349 0.383853828375833 0.00746971040221283
  endloop
endfacet
facet normal -0.008655896729159597 -1.877092222832339e-05 -0.9999625368479894
  outer loop
    vertex 1.372320915581349 0.383853828375833 0.00746971040221283
    vertex 1.9167567365356228 0.4156841259756456 0.0027563560992270126
    vertex 1.4348072046057085 0.3826617123448487 0.0069288376517460774
  endloop
endfacet
facet normal -0.008655896729159597 -1.877092222832339e-05 -0.9999625368479894
  outer loop
    vertex 1.4348072046057085 0.3826617123448487 0.0069288376517460774
    vertex 1.9167567365356228 0.4156841259756456 0.0027563560992270126
    vertex 1.4972934936300768 0.38146959631386435 0.006387964901283204
  endloop
endfacet
facet normal -0.008655896729159597 -1.877092222832339e-05 -0.9999625368479894
  outer loop
    vertex 1.4972934936300768 0.38146959631386435 0.006387964901283204
    vertex 1.9167567365356228 0.4156841259756456 0.0027563560992270126
    vertex 1.5597797826544433 0.38027748028288005 0.005847092150820329
  endloop
endfacet
facet normal -0.008655896729159597 -1.877092222832339e-05 -0.9999625368479894
  outer loop
    vertex 1.5597797826544433 0.38027748028288005 0.005847092150820329
    vertex 1.9167567365356228 0.4156841259756456 0.0027563560992270126
    vertex 1.62226607167881 0.3790853642518957 0.005306219400355163
  endloop
endfacet
facet normal -0.008655896729159597 -1.877092222832339e-05 -0.9999625368479894
  outer loop
    vertex 1.62226607167881 0.3790853642518957 0.005306219400355163
    vertex 1.9167567365356228 0.4156841259756456 0.0027563560992270126
    vertex 1.6847523607031731 0.37789324822090575 0.004765346649892818
  endloop
endfacet
facet normal -0.008655896729159597 -1.877092222832339e-05 -0.9999625368479894
  outer loop
    vertex 1.6847523607031731 0.37789324822090575 0.004765346649892818
    vertex 1.9167567365356228 0.4156841259756456 0.0027563560992270126
    vertex 1.7472386497275378 0.3767011321899214 0.0042244738994276524
  endloop
endfacet
facet normal -0.008655896729159597 -1.877092222832339e-05 -0.9999625368479894
  outer loop
    vertex 1.7472386497275378 0.3767011321899214 0.0042244738994276524
    vertex 1.9167567365356228 0.4156841259756456 0.0027563560992270126
    vertex 1.8097247003856307 0.37550902070649966 0.0036836032122315007
  endloop
endfacet
facet normal -0.008655896729159597 -1.877092222832339e-05 -0.9999625368479894
  outer loop
    vertex 1.8097247003856307 0.37550902070649966 0.0036836032122315007
    vertex 1.9167567365356228 0.4156841259756456 0.0027563560992270126
    vertex 1.8722112277762668 0.37431690012795277 0.0031427283984996127
  endloop
endfacet
facet normal -0.008655896729166142 -1.8770922242784675e-05 -0.9999625368479894
  outer loop
    vertex 1.2473483375326158 0.3862380604378017 0.008551455903140869
    vertex 1.1848620485082533 0.38743017646878597 0.00909232865360533
    vertex 0.6815485018708717 0.6515516862500127 0.013444163964833855
  endloop
endfacet
facet normal -0.008655896729157994 -1.8770922229461748e-05 -0.9999625368479894
  outer loop
    vertex 0.9352477416397853 0.3918546665020657 0.011252962208364428
    vertex 0.8731056566797191 0.3933778779287973 0.011790849237172687
    vertex 0.6815485018708717 0.6515516862500127 0.013444163964833855
  endloop
endfacet
facet normal -0.008655896729157994 -1.8770922229461748e-05 -0.9999625368479894
  outer loop
    vertex 0.8731056566797191 0.3933778779287973 0.011790849237172687
    vertex 0.9352477416397853 0.3918546665020657 0.011252962208364428
    vertex 0.9037527660356092 0.361537266623254 0.01152615878504289
  endloop
endfacet
facet normal -0.008655896729143051 -1.8770922213945693e-05 -0.9999625368479896
  outer loop
    vertex 0.9974031814351554 0.39100652456173896 0.010714946904998536
    vertex 0.9352477416397853 0.3918546665020657 0.011252962208364428
    vertex 0.6815485018708717 0.6515516862500127 0.013444163964833855
  endloop
endfacet
facet normal -0.008655896729188668 -1.877092226926066e-05 -0.9999625368479892
  outer loop
    vertex 1.059889470459522 0.3898144085307546 0.010174074154532664
    vertex 0.9974031814351554 0.39100652456173896 0.010714946904998536
    vertex 0.6815485018708717 0.6515516862500127 0.013444163964833855
  endloop
endfacet
facet normal -0.008655896729157418 -1.877092222410566e-05 -0.9999625368479894
  outer loop
    vertex 1.1223759978501637 0.38862228795220777 0.009633199340802891
    vertex 1.059889470459522 0.3898144085307546 0.010174074154532664
    vertex 0.6815485018708717 0.6515516862500127 0.013444163964833855
  endloop
endfacet
facet normal -0.008655896729147688 -1.8770922207700014e-05 -0.9999625368479896
  outer loop
    vertex 1.1848620485082533 0.38743017646878597 0.00909232865360533
    vertex 1.1223759978501637 0.38862228795220777 0.009633199340802891
    vertex 0.6815485018708717 0.6515516862500127 0.013444163964833855
  endloop
endfacet
facet normal -0.008655896729174153 -1.877092223690782e-05 -0.9999625368479894
  outer loop
    vertex 0.8731056566797191 0.3933778779287973 0.011790849237172687
    vertex 0.8412667153775176 0.36272937810667577 0.012067029472239747
    vertex 0.6815485018708717 0.6515516862500127 0.013444163964833855
  endloop
endfacet
facet normal 0.023691223851117604 0.005634082578898593 -0.9997034475412848
  outer loop
    vertex 0.6471082609550322 0.6607144382528555 0.013742114302382221
    vertex 0.6673072539654689 0.4966971995040883 0.013570346224710143
    vertex 0.6449429679311858 0.5299710474190696 0.013763311823333187
  endloop
endfacet
facet normal 0.023691223851117604 0.005634082578898593 -0.9997034475412848
  outer loop
    vertex 0.6673072539654689 0.4966971995040883 0.013570346224710143
    vertex 0.6471082609550322 0.6607144382528555 0.013742114302382221
    vertex 0.8097524020498209 0.3633313356670199 0.016288527469040373
  endloop
endfacet
facet normal 0.023691223851117604 0.005634082578898593 -0.9997034475412848
  outer loop
    vertex 0.6673072539654689 0.4966971995040883 0.013570346224710143
    vertex 0.8097524020498209 0.3633313356670199 0.016288527469040373
    vertex 0.6835539660858237 0.46004516443495547 0.013430399112046817
  endloop
endfacet
facet normal 0.023691223851117604 0.005634082578898593 -0.9997034475412848
  outer loop
    vertex 0.6835539660858237 0.46004516443495547 0.013430399112046817
    vertex 0.8097524020498209 0.3633313356670199 0.016288527469040373
    vertex 0.6931895302928321 0.4211286759734732 0.013347722064379675
  endloop
endfacet
facet normal 0.01833006902672382 -0.03931312505709228 -0.9990588004555693
  outer loop
    vertex 0.34719785593942354 0.1885609968675887 0.01634706814150849
    vertex 0.25781550415095505 0.010439969773302258 0.025834131219667482
    vertex 0.2145676584580568 0.02430649576191259 0.017498227768608904
  endloop
endfacet
facet normal 0.01833006902672382 -0.03931312505709228 -0.9990588004555693
  outer loop
    vertex 0.25781550415095505 0.010439969773302258 0.025834131219667482
    vertex 0.34719785593942354 0.1885609968675887 0.01634706814150849
    vertex 0.30166592273562476 0.04224783531726734 0.016743949154590654
  endloop
endfacet
facet normal -0.008655896729155198 -1.877092224455055e-05 -0.9999625368479894
  outer loop
    vertex 0.3148024516142265 0.21217893224092907 0.016627046574290313
    vertex 0.2145676584580568 0.02430649576191259 0.017498227768608904
    vertex 0.1288397476969508 0.0006695794476536878 0.018240751214950248
  endloop
endfacet
facet normal -0.008655896729223287 -1.8770922184676852e-05 -0.999962536847989
  outer loop
    vertex 0.3148024516142265 0.21217893224092907 0.016627046574290313
    vertex 0.1288397476969508 0.0006695794476536878 0.018240751214950248
    vertex 0.287000212549702 0.24106366386386527 0.016867166687080683
  endloop
endfacet
facet normal 0.04829486480997624 -0.0572383866150317 -0.9971917434128174
  outer loop
    vertex 0.287000212549702 0.24106366386386527 0.016867166687080683
    vertex 0.08954931907663542 -0.03663430041275284 0.027291585996413643
    vertex 0.044853864597927035 -0.028560550400754513 0.01896830027853827
  endloop
endfacet
facet normal 0.04829486480997624 -0.0572383866150317 -0.9971917434128174
  outer loop
    vertex 0.08954931907663542 -0.03663430041275284 0.027291585996413643
    vertex 0.287000212549702 0.24106366386386527 0.016867166687080683
    vertex 0.1288397476969508 0.0006695794476536878 0.018240751214950248
  endloop
endfacet
facet normal 0.08584387574591147 -0.10259585717368581 -0.9910120680837933
  outer loop
    vertex 0.287000212549702 0.24106366386386527 0.016867166687080683
    vertex 0.008106819222181854 -0.06837518237210503 0.027997447202924276
    vertex -0.03702548058423393 -0.06325707076565402 0.019677717297371212
  endloop
endfacet
facet normal 0.08584387574591147 -0.10259585717368581 -0.9910120680837933
  outer loop
    vertex 0.008106819222181854 -0.06837518237210503 0.027997447202924276
    vertex 0.287000212549702 0.24106366386386527 0.016867166687080683
    vertex 0.044853864597927035 -0.028560550400754513 0.01896830027853827
  endloop
endfacet
facet normal -0.0086558967291618 -1.8770922221822157e-05 -0.9999625368479894
  outer loop
    vertex 0.10887575324260768 0.2393986669405688 0.018409082630338806
    vertex 0.2646360456985582 0.27433750950506813 0.01706013125406922
    vertex 0.08570675480797302 0.1926581257447921 0.018610515997498994
  endloop
endfacet
facet normal -0.0086558967291618 -1.8770922221822157e-05 -0.9999625368479894
  outer loop
    vertex 0.2646360456985582 0.27433750950506813 0.01706013125406922
    vertex 0.10887575324260768 0.2393986669405688 0.018409082630338806
    vertex 0.24838944821399297 0.31098930392521257 0.01720007737893618
  endloop
endfacet
facet normal -0.004312045259162604 0.04449992989830435 -0.999000081333695
  outer loop
    vertex -1.4878690561367331 -0.33171205447750823 0.04135239530895209
    vertex -1.429421298191808 -0.4543687849752409 0.0317379450424088
    vertex -1.548436550409766 -0.3546206808926593 0.032766294936127364
  endloop
endfacet
facet normal -0.004312045259162604 0.04449992989830435 -0.999000081333695
  outer loop
    vertex -1.429421298191808 -0.4543687849752409 0.0317379450424088
    vertex -1.4878690561367331 -0.33171205447750823 0.04135239530895209
    vertex -1.4182203239345446 -0.35405263841116724 0.03163910383648333
  endloop
endfacet
facet normal -0.008655896729149442 -1.8770922245210292e-05 -0.9999625368479896
  outer loop
    vertex 0.08570675480797302 0.1926581257447921 0.018610515997498994
    vertex 0.287000212549702 0.24106366386386527 0.016867166687080683
    vertex 0.05684604485721583 0.14920105379345025 0.01886115644146233
  endloop
endfacet
facet normal -0.008655896729149442 -1.8770922245210292e-05 -0.9999625368479896
  outer loop
    vertex 0.287000212549702 0.24106366386386527 0.016867166687080683
    vertex 0.08570675480797302 0.1926581257447921 0.018610515997498994
    vertex 0.2646360456985582 0.27433750950506813 0.01706013125406922
  endloop
endfacet
facet normal -0.008655896729154889 -1.877092223711232e-05 -0.9999625368479894
  outer loop
    vertex -0.058900071699175834 0.04509886744859403 0.01986503457565925
    vertex -0.11644274287475566 -0.10326937985537202 0.020365921768519476
    vertex -0.2383977510327514 -0.16611222460846667 0.021422770935792878
  endloop
endfacet
facet normal -0.008655896729154889 -1.877092223711232e-05 -0.9999625368479894
  outer loop
    vertex -0.11644274287475566 -0.10326937985537202 0.020365921768519476
    vertex -0.058900071699175834 0.04509886744859403 0.01986503457565925
    vertex -0.03702548058423393 -0.06325707076565402 0.019677717297371212
  endloop
endfacet
facet normal -0.008655896729154889 -1.877092223711232e-05 -0.9999625368479894
  outer loop
    vertex -0.03702548058423393 -0.06325707076565402 0.019677717297371212
    vertex -0.058900071699175834 0.04509886744859403 0.01986503457565925
    vertex -0.01603548622809054 0.07483141063148153 0.01949343112179147
  endloop
endfacet
facet normal -0.008655896729154889 -1.877092223711232e-05 -0.9999625368479894
  outer loop
    vertex -0.03702548058423393 -0.06325707076565402 0.019677717297371212
    vertex -0.01603548622809054 0.07483141063148153 0.01949343112179147
    vertex 0.287000212549702 0.24106366386386527 0.016867166687080683
  endloop
endfacet
facet normal -0.008655896729154889 -1.877092223711232e-05 -0.9999625368479894
  outer loop
    vertex 0.287000212549702 0.24106366386386527 0.016867166687080683
    vertex -0.01603548622809054 0.07483141063148153 0.01949343112179147
    vertex 0.02275159668455771 0.10971621508569024 0.019157026714953316
  endloop
endfacet
facet normal -0.008655896729154889 -1.877092223711232e-05 -0.9999625368479894
  outer loop
    vertex 0.287000212549702 0.24106366386386527 0.016867166687080683
    vertex 0.02275159668455771 0.10971621508569024 0.019157026714953316
    vertex 0.05684604485721583 0.14920105379345025 0.01886115644146233
  endloop
endfacet
facet normal -0.008655896729145263 -1.8770922247991877e-05 -0.9999625368479896
  outer loop
    vertex -0.058900071699175834 0.04509886744859403 0.01986503457565925
    vertex -0.2383977510327514 -0.16611222460846667 0.021422770935792878
    vertex -0.17190729330812082 -0.01960251730224869 0.02084446461275277
  endloop
endfacet
facet normal -0.008655896729151527 -1.8770922230216762e-05 -0.9999625368479896
  outer loop
    vertex -1.2923782390600984 -0.4479536976046534 0.030551549611899223
    vertex -1.429421298191808 -0.4543687849752409 0.0317379450424088
    vertex -1.4182203239345446 -0.35405263841116724 0.03163910383648333
  endloop
endfacet
facet normal -0.0014049100587936064 0.0475886139781133 -0.998866032082065
  outer loop
    vertex -1.3505878708409524 -0.3277571805808169 0.040211070828160674
    vertex -1.2923782390600984 -0.4479536976046534 0.030551549611899223
    vertex -1.4182203239345446 -0.35405263841116724 0.03163910383648333
  endloop
endfacet
facet normal -0.0014049100587936064 0.0475886139781133 -0.998866032082065
  outer loop
    vertex -1.2923782390600984 -0.4479536976046534 0.030551549611899223
    vertex -1.3505878708409524 -0.3277571805808169 0.040211070828160674
    vertex -1.2881737597989968 -0.3473836483271602 0.030513266846849504
  endloop
endfacet
facet normal -0.008655896729180084 -1.877092221949291e-05 -0.9999625368479892
  outer loop
    vertex -1.1557962935344057 -0.43501550926812077 0.02936902323346593
    vertex -1.2923782390600984 -0.4479536976046534 0.030551549611899223
    vertex -1.2881737597989968 -0.3473836483271602 0.030513266846849504
  endloop
endfacet
facet normal -0.0033828827770750886 0.04826863185433716 -0.9988286616247188
  outer loop
    vertex -1.2218423980764834 -0.3179519746619078 0.039095951774553626
    vertex -1.1557962935344057 -0.43501550926812077 0.02936902323346593
    vertex -1.2881737597989968 -0.3473836483271602 0.030513266846849504
  endloop
endfacet
facet normal -0.0033828827770750886 0.04826863185433716 -0.9988286616247188
  outer loop
    vertex -1.1557962935344057 -0.43501550926812077 0.02936902323346593
    vertex -1.2218423980764834 -0.3179519746619078 0.039095951774553626
    vertex -1.1585822991525125 -0.33462805732512796 0.02939125507820748
  endloop
endfacet
facet normal -0.008655896729123291 -1.877092220240789e-05 -0.9999625368479899
  outer loop
    vertex -1.0199861895562747 -0.4155835842550755 0.02819305618807489
    vertex -1.1557962935344057 -0.43501550926812077 0.02936902323346593
    vertex -1.1585822991525125 -0.33462805732512796 0.02939125507820748
  endloop
endfacet
facet normal -0.008655896729166309 -1.8770922276064003e-05 -0.9999625368479894
  outer loop
    vertex -1.0199861895562747 -0.4155835842550755 0.02819305618807489
    vertex -1.1585822991525125 -0.33462805732512796 0.02939125507820748
    vertex -1.029730958686291 -0.31581428944306716 0.02827553623159783
  endloop
endfacet
facet normal -0.008655896729159885 -1.8770922275435735e-05 -0.9999625368479894
  outer loop
    vertex -0.8852562851782982 -0.38970211670929367 0.027026318520763273
    vertex -1.0199861895562747 -0.4155835842550755 0.02819305618807489
    vertex -1.029730958686291 -0.31581428944306716 0.02827553623159783
  endloop
endfacet
facet normal -0.007497865761577844 0.04942211201872765 -0.9987498369725173
  outer loop
    vertex -0.9664512449489913 -0.2803100041921203 0.03688505464791668
    vertex -0.8852562851782982 -0.38970211670929367 0.027026318520763273
    vertex -1.029730958686291 -0.31581428944306716 0.02827553623159783
  endloop
endfacet
facet normal -0.007497865761577844 0.04942211201872765 -0.9987498369725173
  outer loop
    vertex -0.8852562851782982 -0.38970211670929367 0.027026318520763273
    vertex -0.9664512449489913 -0.2803100041921203 0.03688505464791668
    vertex -0.9019027912131802 -0.290983444669772 0.02716856124624576
  endloop
endfacet
facet normal -0.00865589672916285 -1.8770922252120272e-05 -0.9999625368479894
  outer loop
    vertex -0.7519125594694079 -0.35742965387850323 0.025871459953012547
    vertex -0.8852562851782982 -0.38970211670929367 0.027026318520763273
    vertex -0.9019027912131802 -0.290983444669772 0.02716856124624576
  endloop
endfacet
facet normal -0.009626560753727285 0.04988514846229674 -0.9987085667455494
  outer loop
    vertex -0.8403552360078331 -0.2525566063350797 0.035792954195943485
    vertex -0.7519125594694079 -0.35742965387850323 0.025871459953012547
    vertex -0.9019027912131802 -0.290983444669772 0.02716856124624576
  endloop
endfacet
facet normal -0.009626560753727285 0.04988514846229674 -0.9987085667455494
  outer loop
    vertex -0.7519125594694079 -0.35742965387850323 0.025871459953012547
    vertex -0.8403552360078331 -0.2525566063350797 0.035792954195943485
    vertex -0.775378362985599 -0.260190024302512 0.02607275978871801
  endloop
endfacet
facet normal -0.008655896729151989 -1.8770922221353396e-05 -0.9999625368479896
  outer loop
    vertex -0.620258060037036 -0.3188398220404656 0.02473110511397909
    vertex -0.7519125594694079 -0.35742965387850323 0.025871459953012547
    vertex -0.775378362985599 -0.260190024302512 0.02607275978871801
  endloop
endfacet
facet normal -0.008655896729165193 -1.8770922256278496e-05 -0.9999625368479894
  outer loop
    vertex -0.620258060037036 -0.3188398220404656 0.02473110511397909
    vertex -0.775378362985599 -0.260190024302512 0.02607275978871801
    vertex -0.6504356895566235 -0.22350169370868314 0.02499053969327375
  endloop
endfacet
facet normal -0.008655896729166961 -1.87709222568391e-05 -0.9999625368479894
  outer loop
    vertex -0.49059192682523206 -0.27402015281715664 0.0236078450682389
    vertex -0.620258060037036 -0.3188398220404656 0.02473110511397909
    vertex -0.6504356895566235 -0.22350169370868314 0.02499053969327375
  endloop
endfacet
facet normal -0.014019853049807688 0.05056797131070291 -0.9986222128502757
  outer loop
    vertex -0.5927553832770671 -0.17948961669274222 0.03364833891849097
    vertex -0.49059192682523206 -0.27402015281715664 0.0236078450682389
    vertex -0.6504356895566235 -0.22350169370868314 0.02499053969327375
  endloop
endfacet
facet normal -0.014019853049807688 0.05056797131070291 -0.9986222128502757
  outer loop
    vertex -0.49059192682523206 -0.27402015281715664 0.0236078450682389
    vertex -0.5927553832770671 -0.17948961669274222 0.03364833891849097
    vertex -0.5273492823148794 -0.18099930051609228 0.023924278708812835
  endloop
endfacet
facet normal -0.008655896729159396 -1.8770922216220488e-05 -0.9999625368479894
  outer loop
    vertex -0.363208677015848 -0.2230720968174933 0.02250423112601104
    vertex -0.49059192682523206 -0.27402015281715664 0.0236078450682389
    vertex -0.5273492823148794 -0.18099930051609228 0.023924278708812835
  endloop
endfacet
facet normal -0.008655896729159455 -1.8770922216449858e-05 -0.9999625368479894
  outer loop
    vertex -0.363208677015848 -0.2230720968174933 0.02250423112601104
    vertex -0.5273492823148794 -0.18099930051609228 0.023924278708812835
    vertex -0.4063894793352309 -0.13277617199311953 0.022876318693361625
  endloop
endfacet
facet normal -0.008655896729156298 -1.8770922214939906e-05 -0.9999625368479894
  outer loop
    vertex -0.2383977510327514 -0.16611222460846667 0.021422770935792878
    vertex -0.363208677015848 -0.2230720968174933 0.02250423112601104
    vertex -0.4063894793352309 -0.13277617199311953 0.022876318693361625
  endloop
endfacet
facet normal -0.018578229675826195 0.05090333100658573 -0.9985307708200815
  outer loop
    vertex -0.35308528557926533 -0.08356566413335095 0.03157224018540153
    vertex -0.2383977510327514 -0.16611222460846667 0.021422770935792878
    vertex -0.4063894793352309 -0.13277617199311953 0.022876318693361625
  endloop
endfacet
facet normal -0.018578229675826195 0.05090333100658573 -0.9985307708200815
  outer loop
    vertex -0.2383977510327514 -0.16611222460846667 0.021422770935792878
    vertex -0.35308528557926533 -0.08356566413335095 0.03157224018540153
    vertex -0.28782201914308597 -0.07893764625651487 0.021848961915695415
  endloop
endfacet
facet normal -0.03488127537375735 0.0381314759180766 -0.9986637508053495
  outer loop
    vertex -0.23687715977856935 -0.027285836387933072 0.030564777163032734
    vertex -0.2383977510327514 -0.16611222460846667 0.021422770935792878
    vertex -0.28782201914308597 -0.07893764625651487 0.021848961915695415
  endloop
endfacet
facet normal -0.03488127537375735 0.0381314759180766 -0.9986637508053495
  outer loop
    vertex -0.2383977510327514 -0.16611222460846667 0.021422770935792878
    vertex -0.23687715977856935 -0.027285836387933072 0.030564777163032734
    vertex -0.17190729330812082 -0.01960251730224869 0.02084446461275277
  endloop
endfacet
facet normal -0.8282695519612862 0.5602317064567391 0.010487343534968984
  outer loop
    vertex 0.044492075447970084 0.21793240607485379 0.3189780320046668
    vertex 0.007464187938324641 0.16786292810929979 0.0692901385056891
    vertex 0.011429254816634189 0.16904560012042275 0.3192651487723579
  endloop
endfacet
facet normal -0.8151848241741341 0.5791814644899957 0.0047469598070667045
  outer loop
    vertex 0.044492075447970084 0.21793240607485379 0.3189780320046668
    vertex 0.04283081679869264 0.21764317587861953 0.06898306269342996
    vertex 0.007464187938324641 0.16786292810929979 0.0692901385056891
  endloop
endfacet
facet normal -0.9094726340287257 0.4157265749757567 0.005562626338172584
  outer loop
    vertex 0.06821630945596997 0.2731812155596068 0.06876227771904161
    vertex 0.04283081679869264 0.21764317587861953 0.06898306269342996
    vertex 0.044492075447970084 0.21793240607485379 0.3189780320046668
  endloop
endfacet
facet normal -0.8596311794862961 0.5102642198000055 0.02578102493872428
  outer loop
    vertex 0.07539105702455616 0.2758474547419901 0.33581113673428536
    vertex 0.06821630945596997 0.2731812155596068 0.06876227771904161
    vertex 0.044492075447970084 0.21793240607485379 0.3189780320046668
  endloop
endfacet
facet normal -0.8596311794862961 0.5102642198000055 0.02578102493872428
  outer loop
    vertex 0.06821630945596997 0.2731812155596068 0.06876227771904161
    vertex 0.07539105702455616 0.2758474547419901 0.33581113673428536
    vertex 0.08886335656564183 0.2911233932650047 0.27630758029829106
  endloop
endfacet
facet normal -0.4968354131785356 0.8678342099164947 0.004284426487525161
  outer loop
    vertex -0.19312864792630155 0.024364901718248542 0.3210385630814641
    vertex -0.08215510643175815 0.08790204451538894 0.32007675888363485
    vertex -0.08431908051730942 0.08789735178504333 0.07008613584708895
  endloop
endfacet
facet normal -0.49683541317853647 0.8678342099164944 0.004284426487524781
  outer loop
    vertex -0.19312864792630155 0.024364901718248542 0.3210385630814641
    vertex -0.08431908051730942 0.08789735178504333 0.07008613584708895
    vertex -0.19529262201185263 0.024360208987902938 0.07104794004491678
  endloop
endfacet
facet normal -0.45562545468223353 0.8901629185039401 0.003927284832463767
  outer loop
    vertex -0.25004302341112794 -0.004768613783759325 0.32153177337822897
    vertex -0.19312864792630155 0.024364901718248542 0.3210385630814641
    vertex -0.19529262201185263 0.024360208987902938 0.07104794004491678
  endloop
endfacet
facet normal -0.45562545468221094 0.8901629185039518 0.003927284832470061
  outer loop
    vertex -0.25004302341112794 -0.004768613783759325 0.32153177337822897
    vertex -0.19529262201185263 0.024360208987902938 0.07104794004491678
    vertex -0.2522069974966826 -0.004773306514104927 0.07154115034168519
  endloop
endfacet
facet normal -0.45562837985904614 0.8901614211488601 0.0039273101815550625
  outer loop
    vertex -0.30695740344331074 -0.03390236766096868 0.3220249837188348
    vertex -0.25004302341112794 -0.004768613783759325 0.32153177337822897
    vertex -0.2522069974966826 -0.004773306514104927 0.07154115034168519
  endloop
endfacet
facet normal -0.45562837985913646 0.8901614211488142 0.003927310181529973
  outer loop
    vertex -0.30695740344331074 -0.03390236766096868 0.3220249837188348
    vertex -0.2522069974966826 -0.004773306514104927 0.07154115034168519
    vertex -0.3091213775288622 -0.033907060391319924 0.07203436068229174
  endloop
endfacet
facet normal -0.41341798377827055 0.9105343958820472 0.003561545229924702
  outer loop
    vertex -0.4233910583635714 -0.08677171582334466 0.3230338516134169
    vertex -0.30695740344331074 -0.03390236766096868 0.3220249837188348
    vertex -0.3091213775288622 -0.033907060391319924 0.07203436068229174
  endloop
endfacet
facet normal -0.41341798377826994 0.9105343958820474 0.003561545229925004
  outer loop
    vertex -0.4233910583635714 -0.08677171582334466 0.3230338516134169
    vertex -0.3091213775288622 -0.033907060391319924 0.07203436068229174
    vertex -0.425555032449123 -0.0867764085536959 0.07304322857687452
  endloop
endfacet
facet normal -0.37030063012847003 0.9289064970129036 0.0031879670127985386
  outer loop
    vertex -0.5421741621942955 -0.1341271160503652 0.32406295335127605
    vertex -0.4233910583635714 -0.08677171582334466 0.3230338516134169
    vertex -0.425555032449123 -0.0867764085536959 0.07304322857687452
  endloop
endfacet
facet normal -0.3703006301284252 0.9289064970129213 0.0031879670128227206
  outer loop
    vertex -0.5421741621942955 -0.1341271160503652 0.32406295335127605
    vertex -0.425555032449123 -0.0867764085536959 0.07304322857687452
    vertex -0.5443381362798495 -0.1341318087807108 0.07407233031473015
  endloop
endfacet
facet normal -0.3263740454850436 0.9452365316755683 0.0028074222462677162
  outer loop
    vertex -0.6026098519712162 -0.15499608343679577 0.3245864897838284
    vertex -0.5421741621942955 -0.1341271160503652 0.32406295335127605
    vertex -0.5443381362798495 -0.1341318087807108 0.07407233031473015
  endloop
endfacet
facet normal -0.3263740454851278 0.9452365316755393 0.0028074222462457503
  outer loop
    vertex -0.6026098519712162 -0.15499608343679577 0.3245864897838284
    vertex -0.5443381362798495 -0.1341318087807108 0.07407233031473015
    vertex -0.6047738260567692 -0.15500077616714703 0.07459586674728391
  endloop
endfacet
facet normal -0.3263707365593416 0.9452376742698043 0.002807393582004457
  outer loop
    vertex -0.6630455372007863 -0.17586481244802488 0.32511002617254564
    vertex -0.6026098519712162 -0.15499608343679577 0.3245864897838284
    vertex -0.6047738260567692 -0.15500077616714703 0.07459586674728391
  endloop
endfacet
facet normal -0.3263707365592713 0.9452376742698285 0.002807393582022867
  outer loop
    vertex -0.6630455372007863 -0.17586481244802488 0.32511002617254564
    vertex -0.6047738260567692 -0.15500077616714703 0.07459586674728391
    vertex -0.6652095112863377 -0.17586950517837047 0.0751194031359999
  endloop
endfacet
facet normal -0.28172684572420076 0.9594915969998274 0.002420678626530796
  outer loop
    vertex -0.7857396444651665 -0.21189305542315368 0.3261727697913723
    vertex -0.6630455372007863 -0.17586481244802488 0.32511002617254564
    vertex -0.6652095112863377 -0.17586950517837047 0.0751194031359999
  endloop
endfacet
facet normal -0.2817268457242014 0.9594915969998273 0.002420678626530425
  outer loop
    vertex -0.7857396444651665 -0.21189305542315368 0.3261727697913723
    vertex -0.6652095112863377 -0.17586950517837047 0.0751194031359999
    vertex -0.7879036185507174 -0.2118977481534993 0.07618214675483062
  endloop
endfacet
facet normal -0.23645752070571224 0.9716397098344342 0.0020285893039889186
  outer loop
    vertex -0.9099871798020722 -0.24213209031451347 0.327248851554091
    vertex -0.7857396444651665 -0.21189305542315368 0.3261727697913723
    vertex -0.7879036185507174 -0.2118977481534993 0.07618214675483062
  endloop
endfacet
facet normal -0.23645752070570844 0.971639709834435 0.0020285893039908645
  outer loop
    vertex -0.9099871798020722 -0.24213209031451347 0.327248851554091
    vertex -0.7879036185507174 -0.2118977481534993 0.07618214675483062
    vertex -0.9121511538876252 -0.24213678304485908 0.07725822851754507
  endloop
endfacet
facet normal -0.19067297606003542 0.9816522564098665 0.001632080214532945
  outer loop
    vertex -0.9727512045613429 -0.2543240762175865 0.3277923796878093
    vertex -0.9099871798020722 -0.24213209031451347 0.327248851554091
    vertex -0.9121511538876252 -0.24213678304485908 0.07725822851754507
  endloop
endfacet
facet normal -0.19067297606003542 0.9816522564098665 0.0016320802145329456
  outer loop
    vertex -0.9727512045613429 -0.2543240762175865 0.3277923796878093
    vertex -0.9121511538876252 -0.24213678304485908 0.07725822851754507
    vertex -0.9749151786468959 -0.25432876894793216 0.07780175665126407
  endloop
endfacet
facet normal -0.19067655519347879 0.9816515611521986 0.001632111209354209
  outer loop
    vertex -1.035515233867965 -0.26651630049585545 0.3283359078653641
    vertex -0.9727512045613429 -0.2543240762175865 0.3277923796878093
    vertex -0.9749151786468959 -0.25432876894793216 0.07780175665126407
  endloop
endfacet
facet normal -0.1906765551935587 0.981651561152183 0.0016321112093341118
  outer loop
    vertex -1.035515233867965 -0.26651630049585545 0.3283359078653641
    vertex -0.9749151786468959 -0.25432876894793216 0.07780175665126407
    vertex -1.0376792079535198 -0.2665209932262067 0.07834528482882015
  endloop
endfacet
facet normal -0.14446781262978836 0.9895087333431343 0.001231970628821752
  outer loop
    vertex -1.162047654733883 -0.28499133891522976 0.3294315472728831
    vertex -1.035515233867965 -0.26651630049585545 0.3283359078653641
    vertex -1.0376792079535198 -0.2665209932262067 0.07834528482882015
  endloop
endfacet
facet normal -0.14446781262979072 0.9895087333431338 0.0012319706288205824
  outer loop
    vertex -1.162047654733883 -0.28499133891522976 0.3294315472728831
    vertex -1.0376792079535198 -0.2665209932262067 0.07834528482882015
    vertex -1.1642116288194357 -0.284996031645581 0.07944092423634266
  endloop
endfacet
facet normal -0.09794738771009373 0.9951912488125614 0.0008291728787896658
  outer loop
    vertex -1.289306864952302 -0.2975171934343826 0.33053336625382634
    vertex -1.162047654733883 -0.28499133891522976 0.3294315472728831
    vertex -1.1642116288194357 -0.284996031645581 0.07944092423634266
  endloop
endfacet
facet normal -0.09794738771004853 0.9951912488125658 0.0008291728788123985
  outer loop
    vertex -1.289306864952302 -0.2975171934343826 0.33053336625382634
    vertex -1.1642116288194357 -0.284996031645581 0.07944092423634266
    vertex -1.2914708390378564 -0.2975218861647282 0.08054274321727904
  endloop
endfacet
facet normal -0.051209771888616654 0.9986878286192374 0.00042453610989825634
  outer loop
    vertex -1.3531599256506557 -0.3007916254013787 0.3310861539263486
    vertex -1.289306864952302 -0.2975171934343826 0.33053336625382634
    vertex -1.2914708390378564 -0.2975218861647282 0.08054274321727904
  endloop
endfacet
facet normal -0.0512097718887048 0.9986878286192328 0.00042453610987649017
  outer loop
    vertex -1.3531599256506557 -0.3007916254013787 0.3310861539263486
    vertex -1.2914708390378564 -0.2975218861647282 0.08054274321727904
    vertex -1.3553238997362103 -0.30079631813172997 0.08109553088980197
  endloop
endfacet
facet normal -0.051213192164082065 0.9986876532191207 0.00042456571982864223
  outer loop
    vertex -1.4170132590584241 -0.30406629062757623 0.3316389439638817
    vertex -1.3531599256506557 -0.3007916254013787 0.3310861539263486
    vertex -1.3553238997362103 -0.30079631813172997 0.08109553088980197
  endloop
endfacet
facet normal -0.05121319216399443 0.9986876532191249 0.0004245657198502756
  outer loop
    vertex -1.4170132590584241 -0.30406629062757623 0.3316389439638817
    vertex -1.3553238997362103 -0.30079631813172997 0.08109553088980197
    vertex -1.419177233143978 -0.3040709833579218 0.08164832092733491
  endloop
endfacet
facet normal -0.004360879025050516 0.9999904911417865 1.897728570665985e-05
  outer loop
    vertex -1.5448861288852438 -0.3046239550523059 0.3327458502556349
    vertex -1.4170132590584241 -0.30406629062757623 0.3316389439638817
    vertex -1.419177233143978 -0.3040709833579218 0.08164832092733491
  endloop
endfacet
facet normal -0.004360879025050563 0.9999904911417865 1.897728570663611e-05
  outer loop
    vertex -1.5448861288852438 -0.3046239550523059 0.3327458502556349
    vertex -1.419177233143978 -0.3040709833579218 0.08164832092733491
    vertex -1.5470501029707961 -0.3046286477826515 0.08275522721909324
  endloop
endfacet
facet normal 0.04675649477921319 -0.9989062424535803 -0.0003859834589998487
  outer loop
    vertex -1.4256778357218927 -0.504349964830097 0.3317177061046328
    vertex -1.4278418098074466 -0.5043546575604426 0.08172708306808671
    vertex -1.2862539914428681 -0.49782339020832267 0.3305106999788908
  endloop
endfacet
facet normal 0.04675649477917239 -0.9989062424535823 -0.0003859834589765742
  outer loop
    vertex -1.2862539914428681 -0.49782339020832267 0.3305106999788908
    vertex -1.4278418098074466 -0.5043546575604426 0.08172708306808671
    vertex -1.2884179655284198 -0.4978280829386739 0.08052007694234758
  endloop
endfacet
facet normal 0.09429661954258521 -0.9955438269779298 -0.0007975644041787956
  outer loop
    vertex -1.2862539914428681 -0.49782339020832267 0.3305106999788908
    vertex -1.2884179655284198 -0.4978280829386739 0.08052007694234758
    vertex -1.226703290843584 -0.4921824120596086 0.329995110062368
  endloop
endfacet
facet normal 0.09429661954259068 -0.9955438269779293 -0.0007975644041801653
  outer loop
    vertex -1.226703290843584 -0.4921824120596086 0.329995110062368
    vertex -1.2884179655284198 -0.4978280829386739 0.08052007694234758
    vertex -1.228867264929139 -0.49218710478995986 0.0800044870258235
  endloop
endfacet
facet normal 0.09430073979391165 -0.9955434366758878 -0.0007976000773128597
  outer loop
    vertex -1.226703290843584 -0.4921824120596086 0.329995110062368
    vertex -1.228867264929139 -0.49218710478995986 0.0800044870258235
    vertex -1.1472996828281863 -0.4846605229752165 0.3293076336836365
  endloop
endfacet
facet normal 0.0943007397939782 -0.9955434366758816 -0.0007976000773348319
  outer loop
    vertex -1.1472996828281863 -0.4846605229752165 0.3293076336836365
    vertex -1.228867264929139 -0.49218710478995986 0.0800044870258235
    vertex -1.1494636569137386 -0.4846652157055621 0.07931701064709205
  endloop
endfacet
facet normal 0.14256106243691838 -0.9896948625050487 0.013432148300627795
  outer loop
    vertex -1.0288667627908437 -0.4677149803018724 0.3282821340565509
    vertex -1.1472996828281863 -0.4846605229752165 0.3293076336836365
    vertex -1.1494636569137386 -0.4846652157055621 0.07931701064709205
  endloop
endfacet
facet normal 0.14256106243691838 -0.9896948625050487 0.013432148300627795
  outer loop
    vertex -1.1472996828281863 -0.4846605229752165 0.3293076336836365
    vertex -1.0288667627908437 -0.4677149803018724 0.3282821340565509
    vertex -1.0814074624783132 -0.4658320912349097 0.35181098977394987
  endloop
endfacet
facet normal 0.14790938030126055 -0.9889134450927352 -0.013153453299989579
  outer loop
    vertex -1.0310307368763978 -0.467719673032218 0.07829151102000409
    vertex -1.1494636569137386 -0.4846652157055621 0.07931701064709205
    vertex -1.08415919910098 -0.46851254194403796 0.058913934976690646
  endloop
endfacet
facet normal 0.14790938030126055 -0.9889134450927352 -0.013153453299989579
  outer loop
    vertex -1.1494636569137386 -0.4846652157055621 0.07931701064709205
    vertex -1.0310307368763978 -0.467719673032218 0.07829151102000409
    vertex -1.0288667627908437 -0.4677149803018724 0.3282821340565509
  endloop
endfacet
facet normal 0.18278371164430746 -0.9831519055616704 -0.0015637608472256848
  outer loop
    vertex -1.0288667627908437 -0.4677149803018724 0.3282821340565509
    vertex -1.0310307368763978 -0.467719673032218 0.07829151102000409
    vertex -0.8720601887750796 -0.4385599627740784 0.3269242344076489
  endloop
endfacet
facet normal 0.1880366280360299 -0.9820755359829054 -0.01303334725727586
  outer loop
    vertex -0.8742241628606341 -0.43856465550442403 0.07693361137110438
    vertex -1.0310307368763978 -0.467719673032218 0.07829151102000409
    vertex -0.9415636483123606 -0.44462870164656143 0.05767895180358008
  endloop
endfacet
facet normal 0.1880366280360299 -0.9820755359829054 -0.01303334725727586
  outer loop
    vertex -1.0310307368763978 -0.467719673032218 0.07829151102000409
    vertex -0.8742241628606341 -0.43856465550442403 0.07693361137110438
    vertex -0.8720601887750796 -0.4385599627740784 0.3269242344076489
  endloop
endfacet
facet normal 0.23521453802256514 -0.9719413817142982 -0.002017824108291864
  outer loop
    vertex -0.8333025289109122 -0.4291797728337419 0.3265885634562946
    vertex -0.8354665029964652 -0.42918446556408757 0.0765979404197473
    vertex -0.7364001720056906 -0.40572718917243766 0.3257493149945921
  endloop
endfacet
facet normal 0.2352145380225111 -0.9719413817143112 -0.002017824108269145
  outer loop
    vertex -0.7364001720056906 -0.40572718917243766 0.3257493149945921
    vertex -0.8354665029964652 -0.42918446556408757 0.0765979404197473
    vertex -0.7385641460912433 -0.4057318819027889 0.07575869195804881
  endloop
endfacet
facet normal 0.2812634280292551 -0.9596275547238656 -0.002416664628371961
  outer loop
    vertex -0.7364001720056906 -0.40572718917243766 0.3257493149945921
    vertex -0.7385641460912433 -0.4057318819027889 0.07575869195804881
    vertex -0.6407255343905102 -0.37768320572687997 0.3249206077543777
  endloop
endfacet
facet normal 0.2812634280293617 -0.9596275547238344 -0.0024166646284173605
  outer loop
    vertex -0.6407255343905102 -0.37768320572687997 0.3249206077543777
    vertex -0.7385641460912433 -0.4057318819027889 0.07575869195804881
    vertex -0.6428895084760639 -0.3776878984572199 0.07492998471783321
  endloop
endfacet
facet normal 0.32666739494772223 -0.9451351846077354 -0.002809963446499736
  outer loop
    vertex -0.6024588732621419 -0.3664667914171492 0.3245891525276817
    vertex -0.6046228473476946 -0.3664714841474948 0.07459852949113935
    vertex -0.4705403599233201 -0.3208683532820349 0.3234463807629915
  endloop
endfacet
facet normal 0.3294776167121843 -0.9439816898961337 -0.018522128022941828
  outer loop
    vertex -0.47270433400887313 -0.3208730460123805 0.07345575772644487
    vertex -0.6046228473476946 -0.3664714841474948 0.07459852949113935
    vertex -0.5399300146982583 -0.3341664610874213 0.050964782271859445
  endloop
endfacet
facet normal 0.3294776167121843 -0.9439816898961337 -0.018522128022941828
  outer loop
    vertex -0.6046228473476946 -0.3664714841474948 0.07459852949113935
    vertex -0.47270433400887313 -0.3208730460123805 0.07345575772644487
    vertex -0.4705403599233201 -0.3208683532820349 0.3234463807629915
  endloop
endfacet
facet normal 0.3713298551991183 -0.9284955134899453 -0.0031968839273395977
  outer loop
    vertex -0.4705403599233201 -0.3208683532820349 0.3234463807629915
    vertex -0.47270433400887313 -0.3208730460123805 0.07345575772644487
    vertex -0.3409443195195357 -0.26903561135547976 0.32232359580931375
  endloop
endfacet
facet normal 0.37380297243104266 -0.9273170502195656 -0.018826209756639043
  outer loop
    vertex -0.3431082936050875 -0.26904030408582535 0.07233297277276979
    vertex -0.47270433400887313 -0.3208730460123805 0.07345575772644487
    vertex -0.4096263017775732 -0.2855131030917673 0.04983564004475321
  endloop
endfacet
facet normal 0.37380297243104266 -0.9273170502195656 -0.018826209756639043
  outer loop
    vertex -0.47270433400887313 -0.3208730460123805 0.07345575772644487
    vertex -0.3431082936050875 -0.26904030408582535 0.07233297277276979
    vertex -0.3409443195195357 -0.26903561135547976 0.32232359580931375
  endloop
endfacet
facet normal 0.4151513701540184 -0.909745320430271 -0.0035765646177535397
  outer loop
    vertex -0.3409443195195357 -0.26903561135547976 0.32232359580931375
    vertex -0.3431082936050875 -0.26904030408582535 0.07233297277276979
    vertex -0.2683840920769796 -0.23592114973750958 0.32169487683115217
  endloop
endfacet
facet normal 0.41515137015396486 -0.9097453204302954 -0.0035765646177342834
  outer loop
    vertex -0.2683840920769796 -0.23592114973750958 0.32169487683115217
    vertex -0.3431082936050875 -0.26904030408582535 0.07233297277276979
    vertex -0.27054806616253246 -0.23592584246786083 0.07170425379460467
  endloop
endfacet
facet normal 0.4151475049498108 -0.9097470843916168 -0.0035765311265604127
  outer loop
    vertex -0.2683840920769796 -0.23592114973750958 0.32169487683115217
    vertex -0.27054806616253246 -0.23592584246786083 0.07170425379460467
    vertex -0.21396534008634335 -0.2110862303079298 0.32122334989456264
  endloop
endfacet
facet normal 0.415147504949811 -0.9097470843916168 -0.0035765311265604648
  outer loop
    vertex -0.21396534008634335 -0.2110862303079298 0.32122334989456264
    vertex -0.27054806616253246 -0.23592584246786083 0.07170425379460467
    vertex -0.2161293141718962 -0.21109092303828106 0.07123272685801954
  endloop
endfacet
facet normal 0.45802820046371706 -0.8889288948130155 -0.003948106695613282
  outer loop
    vertex -0.21396534008634335 -0.2110862303079298 0.32122334989456264
    vertex -0.2161293141718962 -0.21109092303828106 0.07123272685801954
    vertex -0.08989195215209775 -0.14715158270691803 0.32014814306883277
  endloop
endfacet
facet normal 0.4580282004637455 -0.8889288948130009 -0.003948106695631578
  outer loop
    vertex -0.08989195215209775 -0.14715158270691803 0.32014814306883277
    vertex -0.2161293141718962 -0.21109092303828106 0.07123272685801954
    vertex -0.09205592623764956 -0.14715627543726365 0.07015752003228792
  endloop
endfacet
facet normal 0.9999695115019267 0.000899164568220722 -0.007756775726887796
  outer loop
    vertex 1.9677579604281525 0.38780775801427136 0.31305065099932117
    vertex 1.9657774209833068 0.3412851113375139 0.05233529092075907
    vertex 1.965678868613112 0.3836426021194043 0.044540427088126465
  endloop
endfacet
facet normal 0.9999449024682303 0.0059387029144357985 -0.00865585556116517
  outer loop
    vertex 1.9677579604281525 0.38780775801427136 0.31305065099932117
    vertex 1.9679413950688565 0.34128980406786513 0.30232591395730196
    vertex 1.9657774209833068 0.3412851113375139 0.05233529092075907
  endloop
endfacet
facet normal 0.1875506998714777 0.982253551319797 -0.0016419188060602177
  outer loop
    vertex 0.7931619201170215 0.6816433886514435 0.31248867575044403
    vertex 1.887315132141548 0.4727108325304154 0.30302136572277155
    vertex 0.7920712772405873 0.6816410235154824 0.1864934089817199
  endloop
endfacet
facet normal 0.18755069987147718 0.9822535513197972 -0.001641918806054758
  outer loop
    vertex 1.887315132141548 0.4727108325304154 0.30302136572277155
    vertex 1.8851511580560008 0.47270613980006415 0.05303074268622547
    vertex 0.7920712772405873 0.6816410235154824 0.1864934089817199
  endloop
endfacet
facet normal 0.18755076039469243 0.9822535402076898 -0.0016416530793111957
  outer loop
    vertex 0.6913587128456442 0.7006652399481872 0.06336019477931017
    vertex 0.7920712772405873 0.6816410235154824 0.1864934089817199
    vertex 1.8851511580560008 0.47270613980006415 0.05303074268622547
  endloop
endfacet
facet normal 0.18755076039469243 0.9822535402076898 -0.0016416530793111957
  outer loop
    vertex 0.7920712772405873 0.6816410235154824 0.1864934089817199
    vertex 0.6913587128456442 0.7006652399481872 0.06336019477931017
    vertex 0.6924320440547667 0.7006675675425746 0.1873555510471286
  endloop
endfacet
facet normal 0.00865589672915603 1.877092223417741e-05 0.9999625368479894
  outer loop
    vertex 0.09893929991187261 0.3110546151898906 0.19250026908171883
    vertex 0.3925315748759114 0.7529542635162845 0.1899505742856136
    vertex 0.09256010131329785 0.39267331569407915 0.19255395671902947
  endloop
endfacet
facet normal 0.00865589672915603 1.877092223417741e-05 0.9999625368479894
  outer loop
    vertex 0.3925315748759114 0.7529542635162845 0.1899505742856136
    vertex 0.09893929991187261 0.3110546151898906 0.19250026908171883
    vertex 0.2534029684186508 0.5146272543445947 0.19115937603845873
  endloop
endfacet
facet normal 0.00865589672915603 1.877092223417741e-05 0.9999625368479894
  outer loop
    vertex 0.2534029684186508 0.5146272543445947 0.19115937603845873
    vertex 0.09893929991187261 0.3110546151898906 0.19250026908171883
    vertex 0.2342369636435797 0.47549096513596917 0.19132601586359657
  endloop
endfacet
facet normal 0.00865589672915603 1.877092223417741e-05 0.9999625368479894
  outer loop
    vertex 0.2342369636435797 0.47549096513596917 0.19132601586359657
    vertex 0.09893929991187261 0.3110546151898906 0.19250026908171883
    vertex 0.22215784975270514 0.4336207134878598 0.19143136131582436
  endloop
endfacet
facet normal 0.00865589672915603 1.877092223417741e-05 0.9999625368479894
  outer loop
    vertex 0.3925315748759114 0.7529542635162845 0.1899505742856136
    vertex 0.2534029684186508 0.5146272543445947 0.19115937603845873
    vertex 0.27907366442765213 0.5498412246845387 0.1909365037966439
  endloop
endfacet
facet normal 0.00865589672915603 1.877092223417741e-05 0.9999625368479894
  outer loop
    vertex 0.3925315748759114 0.7529542635162845 0.1899505742856136
    vertex 0.27907366442765213 0.5498412246845387 0.1909365037966439
    vertex 0.3104687888884363 0.580061806276224 0.1906641733709689
  endloop
endfacet
facet normal 0.00865589672915603 1.877092223417741e-05 0.9999625368479894
  outer loop
    vertex 0.3925315748759114 0.7529542635162845 0.1899505742856136
    vertex 0.3104687888884363 0.580061806276224 0.1906641733709689
    vertex 0.3466346765373789 0.6043717069165669 0.1903506571177992
  endloop
endfacet
facet normal 0.008655896729171332 1.8770922219431786e-05 0.9999625368479894
  outer loop
    vertex 0.3925315748759114 0.7529542635162845 0.1899505742856136
    vertex 0.0990911779255559 0.45556467307236526 0.19249624170337945
    vertex 0.09256010131329785 0.39267331569407915 0.19255395671902947
  endloop
endfacet
facet normal 0.008655896729150705 1.87709222397236e-05 0.9999625368479896
  outer loop
    vertex 0.3925315748759114 0.7529542635162845 0.1899505742856136
    vertex 0.3318658472700195 0.73513889788276 0.1904760446553883
    vertex 0.0990911779255559 0.45556467307236526 0.19249624170337945
  endloop
endfacet
facet normal 0.00865589672915464 1.8770922229460575e-05 0.9999625368479894
  outer loop
    vertex 0.8299348915417938 0.48547523754390454 0.18616933551843493
    vertex 0.5801616128187288 0.7431884696538765 0.18832659052729908
    vertex 0.5184697369615725 0.757037059925907 0.18886034907921337
  endloop
endfacet
facet normal 0.00865589672915464 1.8770922229460575e-05 0.9999625368479894
  outer loop
    vertex 0.5801616128187288 0.7431884696538765 0.18832659052729908
    vertex 0.8299348915417938 0.48547523754390454 0.18616933551843493
    vertex 0.6386502339395121 0.7191714500524606 0.1878207509343086
  endloop
endfacet
facet normal 0.00865589672915464 1.8770922229460575e-05 0.9999625368479894
  outer loop
    vertex 0.6386502339395121 0.7191714500524606 0.1878207509343086
    vertex 0.8299348915417938 0.48547523754390454 0.18616933551843493
    vertex 0.6648800887789 0.7079977169222453 0.18759390926266964
  endloop
endfacet
facet normal 0.00865589672915464 1.8770922229460575e-05 0.9999625368479894
  outer loop
    vertex 0.6648800887789 0.7079977169222453 0.18759390926266964
    vertex 0.8299348915417938 0.48547523754390454 0.18616933551843493
    vertex 0.7780496698915633 0.5974495944346939 0.1866163635239419
  endloop
endfacet
facet normal 0.00865589672915464 1.8770922229460575e-05 0.9999625368479894
  outer loop
    vertex 0.7780496698915633 0.5974495944346939 0.1866163635239419
    vertex 0.8299348915417938 0.48547523754390454 0.18616933551843493
    vertex 0.8086175502272371 0.5436059403874244 0.18635277192859814
  endloop
endfacet
facet normal 0.008655896729132705 1.8770922203606267e-05 0.9999625368479896
  outer loop
    vertex 0.8414239606629847 0.42463448761256173 0.18607102567659525
    vertex 0.8299348915417938 0.48547523754390454 0.18616933551843493
    vertex 0.5184697369615725 0.757037059925907 0.18886034907921337
  endloop
endfacet
facet normal 0.008655896729181151 1.8770922250406958e-05 0.9999625368479892
  outer loop
    vertex 0.5965798326348399 0.5996032427926269 0.18818716611594435
    vertex 0.8414239606629847 0.42463448761256173 0.18607102567659525
    vertex 0.5184697369615725 0.757037059925907 0.18886034907921337
  endloop
endfacet
facet normal 0.008655896729181151 1.8770922250406958e-05 0.9999625368479892
  outer loop
    vertex 0.8414239606629847 0.42463448761256173 0.18607102567659525
    vertex 0.5965798326348399 0.5996032427926269 0.18818716611594435
    vertex 0.6317922495656999 0.5739315838772662 0.18788284155116172
  endloop
endfacet
facet normal 0.008655896729181151 1.8770922250406958e-05 0.9999625368479892
  outer loop
    vertex 0.8414239606629847 0.42463448761256173 0.18607102567659525
    vertex 0.6317922495656999 0.5739315838772662 0.18788284155116172
    vertex 0.6620119470246646 0.5425355121404042 0.18762184252614575
  endloop
endfacet
facet normal 0.008655896729181151 1.8770922250406958e-05 0.9999625368479892
  outer loop
    vertex 0.8414239606629847 0.42463448761256173 0.18607102567659525
    vertex 0.6620119470246646 0.5425355121404042 0.18762184252614575
    vertex 0.6863206999108649 0.5063680317876578 0.18741209951087512
  endloop
endfacet
facet normal 0.008655896729181151 1.8770922250406958e-05 0.9999625368479892
  outer loop
    vertex 0.8414239606629847 0.42463448761256173 0.18607102567659525
    vertex 0.6863206999108649 0.5063680317876578 0.18741209951087512
    vertex 0.7039802586459508 0.46652918294081586 0.18725998230732527
  endloop
endfacet
facet normal 0.008655896729181151 1.8770922250406958e-05 0.9999625368479892
  outer loop
    vertex 0.8414239606629847 0.42463448761256173 0.18607102567659525
    vertex 0.7039802586459508 0.46652918294081586 0.18725998230732527
    vertex 0.8427728414134232 0.3627326442471554 0.1860605114649126
  endloop
endfacet
facet normal 0.008655896729160718 1.877092222976805e-05 0.9999625368479894
  outer loop
    vertex 0.37751089599724325 0.15227090494009696 0.19009187240487208
    vertex 0.22392040590660328 -0.02523518510999978 0.19142471771127578
    vertex 0.3624459568258822 0.0006749768035995565 0.19022512354995577
  endloop
endfacet
facet normal 0.008655896729154513 1.8770922235138383e-05 0.9999625368479894
  outer loop
    vertex 0.37751089599724325 0.15227090494009696 0.19009187240487208
    vertex 0.24219450900492254 0.08448950610500869 0.19126447332513294
    vertex 0.22392040590660328 -0.02523518510999978 0.19142471771127578
  endloop
endfacet
facet normal 0.008655896729156348 1.8770922241905485e-05 0.9999625368479894
  outer loop
    vertex 0.4818834527648883 0.010797319033319994 0.18919105617439652
    vertex 0.46270958604061113 0.13556586181419641 0.1893546872941832
    vertex 0.3624459568258822 0.0006749768035995565 0.19022512354995577
  endloop
endfacet
facet normal 0.125544169635436 0.6947203447929714 -0.7082388749576543
  outer loop
    vertex 1.9285776735870952 0.4522251283123912 0.02070228764060888
    vertex 0.686295069724888 0.6761078834659592 0.020101596099967242
    vertex 0.6898860527226461 0.6940850106514515 0.03837213084870429
  endloop
endfacet
facet normal 0.075040227190484 0.41613830395287404 -0.9061996889684008
  outer loop
    vertex 1.9285776735870952 0.4522251283123912 0.02070228764060888
    vertex 1.9167567365356228 0.4156841259756456 0.0027563560992270126
    vertex 0.686295069724888 0.6761078834659592 0.020101596099967242
  endloop
endfacet
facet normal 0.075040227190484 0.41613830395287404 -0.9061996889684008
  outer loop
    vertex 1.9167567365356228 0.4156841259756456 0.0027563560992270126
    vertex 1.9285776735870952 0.4522251283123912 0.02070228764060888
    vertex 1.9464194836424353 0.4335917526353303 0.012251465942798322
  endloop
endfacet
facet normal 0.17798494528302078 0.9489583203287492 -0.2603833050167367
  outer loop
    vertex 0.6913587128456442 0.7006652399481872 0.06336019477931017
    vertex 1.9082185317055136 0.46488325337996544 0.035844799119766936
    vertex 0.6898860527226461 0.6940850106514515 0.03837213084870429
  endloop
endfacet
facet normal 0.1593015065823131 0.8522686105595987 -0.4982582116286858
  outer loop
    vertex 0.6898860527226461 0.6940850106514515 0.03837213084870429
    vertex 1.9082185317055136 0.46488325337996544 0.035844799119766936
    vertex 1.9285776735870952 0.4522251283123912 0.02070228764060888
  endloop
endfacet
facet normal 0.18238316142715738 0.9639060942208708 -0.1939624292271606
  outer loop
    vertex 0.6913587128456442 0.7006652399481872 0.06336019477931017
    vertex 1.8851511580560008 0.47270613980006415 0.05303074268622547
    vertex 1.9082185317055136 0.46488325337996544 0.035844799119766936
  endloop
endfacet
facet normal 0.04018128740205667 0.2542105987731424 -0.9663138390885818
  outer loop
    vertex 1.9167567365356228 0.4156841259756456 0.0027563560992270126
    vertex 0.6815485018708717 0.6515516862500127 0.013444163964833855
    vertex 0.686295069724888 0.6761078834659592 0.020101596099967242
  endloop
endfacet
endsolid Pliers_Right-FLIPPED
