solid single
facet normal 0.409505190159072 -0.912307787554607 -7.66392310118403e-014
outer loop
vertex 935.647354604457 539.994987386439 -2.43645002595547e-012
vertex 933.265753371614 538.925964323121 1.99999999999486
vertex 933.265753371613 538.925964323121 -4.31619943377686e-012
endloop
endfacet
facet normal 0.409505190159072 -0.912307787554607 -7.66392310118403e-014
outer loop
vertex 933.265753371614 538.925964323121 1.99999999999486
vertex 935.647354604457 539.994987386439 -2.43645002595547e-012
vertex 935.647354604458 539.994987386438 1.99999999999722
endloop
endfacet
facet normal 2.39333843712553e-013 1.99150849920543e-013 -1.0
outer loop
vertex 920.665801869367 550.810459354086 -5.67320730968888e-012
vertex 920.816995611863 545.636286985935 -6.23787758189989e-012
vertex 920.400802383007 548.213420653102 -6.50057267558708e-012
endloop
endfacet
facet normal 2.39333843712553e-013 1.99150849920543e-013 -1.0
outer loop
vertex 920.816995611863 545.636286985935 -6.23787758189989e-012
vertex 920.665801869367 550.810459354086 -5.67320730968888e-012
vertex 921.593934793876 553.250419193228 -4.04548265145224e-012
endloop
endfacet
facet normal 2.39333843712553e-013 1.99150849920543e-013 -1.0
outer loop
vertex 920.816995611863 545.636286985935 -6.23787758189989e-012
vertex 921.593934793876 553.250419193228 -4.04548265145224e-012
vertex 921.886018675179 543.254685753091 -6.71498846138331e-012
endloop
endfacet
facet normal 2.39333843712553e-013 1.99150849920543e-013 -1.0
outer loop
vertex 921.886018675179 543.254685753091 -6.71498846138331e-012
vertex 921.593934793876 553.250419193228 -4.04548265145224e-012
vertex 923.121950431546 555.367020939713 -3.67723527827654e-012
endloop
endfacet
facet normal 2.39333843712553e-013 1.99150849920543e-013 -1.0
outer loop
vertex 921.886018675179 543.254685753091 -6.71498846138331e-012
vertex 923.121950431546 555.367020939713 -3.67723527827654e-012
vertex 923.535019417835 541.230919142804 -6.30891328789641e-012
endloop
endfacet
facet normal 2.39333843712553e-013 1.99150849920543e-013 -1.0
outer loop
vertex 923.535019417835 541.230919142804 -6.30891328789641e-012
vertex 923.121950431546 555.367020939713 -3.67723527827654e-012
vertex 925.145717041832 557.016021682369 -2.90544088367888e-012
endloop
endfacet
facet normal 2.39333843712553e-013 1.99150849920543e-013 -1.0
outer loop
vertex 923.535019417835 541.230919142804 -6.30891328789641e-012
vertex 925.145717041832 557.016021682369 -2.90544088367888e-012
vertex 925.65162116432 539.702903505136 -6.45219503457355e-012
endloop
endfacet
facet normal 2.39333843712553e-013 1.99150849920543e-013 -1.0
outer loop
vertex 925.65162116432 539.702903505136 -6.45219503457355e-012
vertex 925.145717041832 557.016021682369 -2.90544088367888e-012
vertex 927.527318274676 558.085044745685 -1.56712504050668e-012
endloop
endfacet
facet normal 2.39333843712553e-013 1.99150849920543e-013 -1.0
outer loop
vertex 925.65162116432 539.702903505136 -6.45219503457355e-012
vertex 927.527318274676 558.085044745685 -1.56712504050668e-012
vertex 926.902507732706 548.301133051027 -4.0397535184762e-012
endloop
endfacet
facet normal 2.39333843712553e-013 1.99150849920543e-013 -1.0
outer loop
vertex 926.902507732706 548.301133051027 -4.0397535184762e-012
vertex 927.527318274676 558.085044745685 -1.56712504050668e-012
vertex 926.968668620636 549.212417854383 -4.17037046724154e-012
endloop
endfacet
facet normal 2.39333843712553e-013 1.99150849920543e-013 -1.0
outer loop
vertex 926.968668620636 549.212417854383 -4.17037046724154e-012
vertex 927.527318274676 558.085044745685 -1.56712504050668e-012
vertex 927.2684329936 550.07552768321 -3.41416020562821e-012
endloop
endfacet
facet normal 2.39333843712553e-013 1.99150849920543e-013 -1.0
outer loop
vertex 927.2684329936 550.07552768321 -3.41416020562821e-012
vertex 927.527318274676 558.085044745685 -1.56712504050668e-012
vertex 927.781372404962 550.831643029033 -4.39782538366568e-012
endloop
endfacet
facet normal 2.39333843712553e-013 1.99150849920543e-013 -1.0
outer loop
vertex 927.781372404962 550.831643029033 -4.39782538366568e-012
vertex 927.527318274676 558.085044745685 -1.56712504050668e-012
vertex 930.104451941842 558.501237974541 -7.17711131453277e-013
endloop
endfacet
facet normal 2.39333843712553e-013 1.99150849920543e-013 -1.0
outer loop
vertex 927.781372404962 550.831643029033 -4.39782538366568e-012
vertex 930.104451941842 558.501237974541 -7.17711131453277e-013
vertex 928.472530881512 551.429235880573 -3.72443105896069e-012
endloop
endfacet
facet normal 2.39333843712553e-013 1.99150849920543e-013 -1.0
outer loop
vertex 928.472530881512 551.429235880573 -3.72443105896069e-012
vertex 930.104451941842 558.501237974541 -7.17711131453277e-013
vertex 929.294807115265 551.827581272566 -4.14449556709032e-012
endloop
endfacet
facet normal 2.39333843712553e-013 1.99150849920543e-013 -1.0
outer loop
vertex 929.294807115265 551.827581272566 -4.14449556709032e-012
vertex 930.104451941842 558.501237974541 -7.17711131453277e-013
vertex 930.19216433977 551.999532624843 -2.73481157787526e-012
endloop
endfacet
facet normal 2.39333843712553e-013 1.99150849920543e-013 -1.0
outer loop
vertex 930.19216433977 551.999532624843 -2.73481157787526e-012
vertex 930.104451941842 558.501237974541 -7.17711131453277e-013
vertex 932.701490642827 558.236238488182 -1.08601155415537e-012
endloop
endfacet
facet normal 2.39333843712553e-013 1.99150849920543e-013 -1.0
outer loop
vertex 930.19216433977 551.999532624843 -2.73481157787526e-012
vertex 932.701490642827 558.236238488182 -1.08601155415537e-012
vertex 931.103449143125 551.933371736911 -1.64827568200421e-012
endloop
endfacet
facet normal 2.39333843712553e-013 1.99150849920543e-013 -1.0
outer loop
vertex 931.103449143125 551.933371736911 -1.64827568200421e-012
vertex 932.701490642827 558.236238488182 -1.08601155415537e-012
vertex 931.966558971953 551.633607363948 -8.72320625481489e-013
endloop
endfacet
facet normal 2.39333843712553e-013 1.99150849920543e-013 -1.0
outer loop
vertex 931.966558971953 551.633607363948 -8.72320625481489e-013
vertex 932.701490642827 558.236238488182 -1.08601155415537e-012
vertex 932.722674317775 551.120667952586 -2.95526686774623e-012
endloop
endfacet
facet normal 2.39333843712553e-013 1.99150849920543e-013 -1.0
outer loop
vertex 932.722674317775 551.120667952586 -2.95526686774623e-012
vertex 932.701490642827 558.236238488182 -1.08601155415537e-012
vertex 935.14145048197 557.308105563672 -6.7191469203111e-013
endloop
endfacet
facet normal 2.39333843712553e-013 1.99150849920543e-013 -1.0
outer loop
vertex 932.722674317775 551.120667952586 -2.95526686774623e-012
vertex 935.14145048197 557.308105563672 -6.7191469203111e-013
vertex 933.320267169315 550.429509476036 -2.78682737514274e-012
endloop
endfacet
facet normal 2.39333843712553e-013 1.99150849920543e-013 -1.0
outer loop
vertex 933.320267169315 550.429509476036 -2.78682737514274e-012
vertex 935.14145048197 557.308105563672 -6.7191469203111e-013
vertex 933.718612561307 549.607233242281 -2.57780417971581e-012
endloop
endfacet
facet normal 2.39333843712553e-013 1.99150849920543e-013 -1.0
outer loop
vertex 933.718612561307 549.607233242281 -2.57780417971581e-012
vertex 935.14145048197 557.308105563672 -6.7191469203111e-013
vertex 933.890563913585 548.709876017778 -1.22317832964681e-012
endloop
endfacet
facet normal 2.39333843712553e-013 1.99150849920543e-013 -1.0
outer loop
vertex 926.902507732706 548.301133051027 -4.0397535184762e-012
vertex 928.091581003462 538.774770580625 -6.35393441849458e-012
vertex 925.65162116432 539.702903505136 -6.45219503457355e-012
endloop
endfacet
facet normal 2.39333843712553e-013 1.99150849920543e-013 -1.0
outer loop
vertex 928.091581003462 538.774770580625 -6.35393441849458e-012
vertex 926.902507732706 548.301133051027 -4.0397535184762e-012
vertex 927.074459084983 547.403775826525 -3.9935921163094e-012
endloop
endfacet
facet normal 2.39333843712553e-013 1.99150849920543e-013 -1.0
outer loop
vertex 928.091581003462 538.774770580625 -6.35393441849458e-012
vertex 927.074459084983 547.403775826525 -3.9935921163094e-012
vertex 927.472804476975 546.581499592771 -4.34856221739209e-012
endloop
endfacet
facet normal 2.39333843712553e-013 1.99150849920543e-013 -1.0
outer loop
vertex 928.091581003462 538.774770580625 -6.35393441849458e-012
vertex 927.472804476975 546.581499592771 -4.34856221739209e-012
vertex 928.070397328515 545.890341116221 -4.48467910490376e-012
endloop
endfacet
facet normal 2.39333843712553e-013 1.99150849920543e-013 -1.0
outer loop
vertex 928.091581003462 538.774770580625 -6.35393441849458e-012
vertex 928.070397328515 545.890341116221 -4.48467910490376e-012
vertex 928.826512674337 545.377401704858 -3.7250991327602e-012
endloop
endfacet
facet normal 2.39333843712553e-013 1.99150849920543e-013 -1.0
outer loop
vertex 928.091581003462 538.774770580625 -6.35393441849458e-012
vertex 928.826512674337 545.377401704858 -3.7250991327602e-012
vertex 930.688619704447 538.509771094267 -5.74088650527003e-012
endloop
endfacet
facet normal 2.39333843712553e-013 1.99150849920543e-013 -1.0
outer loop
vertex 930.688619704447 538.509771094267 -5.74088650527003e-012
vertex 928.826512674337 545.377401704858 -3.7250991327602e-012
vertex 929.689622503166 545.077637331894 -4.48320584274353e-012
endloop
endfacet
facet normal 2.39333843712553e-013 1.99150849920543e-013 -1.0
outer loop
vertex 930.688619704447 538.509771094267 -5.74088650527003e-012
vertex 929.689622503166 545.077637331894 -4.48320584274353e-012
vertex 930.600907306522 545.011476443962 -3.1597927623385e-012
endloop
endfacet
facet normal 2.39333843712553e-013 1.99150849920543e-013 -1.0
outer loop
vertex 930.688619704447 538.509771094267 -5.74088650527003e-012
vertex 930.600907306522 545.011476443962 -3.1597927623385e-012
vertex 931.498264531023 545.18342779624 -4.23167927776553e-012
endloop
endfacet
facet normal 2.39333843712553e-013 1.99150849920543e-013 -1.0
outer loop
vertex 930.688619704447 538.509771094267 -5.74088650527003e-012
vertex 931.498264531023 545.18342779624 -4.23167927776553e-012
vertex 933.265753371613 538.925964323121 -4.31619943377686e-012
endloop
endfacet
facet normal 2.39333843712553e-013 1.99150849920543e-013 -1.0
outer loop
vertex 933.265753371613 538.925964323121 -4.31619943377686e-012
vertex 931.498264531023 545.18342779624 -4.23167927776553e-012
vertex 932.320540764777 545.581773188235 -3.29815987427222e-012
endloop
endfacet
facet normal 2.39333843712553e-013 1.99150849920543e-013 -1.0
outer loop
vertex 933.265753371613 538.925964323121 -4.31619943377686e-012
vertex 932.320540764777 545.581773188235 -3.29815987427222e-012
vertex 933.011699241328 546.179366039774 -3.4594756284014e-012
endloop
endfacet
facet normal 2.39333843712553e-013 1.99150849920543e-013 -1.0
outer loop
vertex 933.265753371613 538.925964323121 -4.31619943377686e-012
vertex 933.011699241328 546.179366039774 -3.4594756284014e-012
vertex 933.52463865269 546.935481385597 -2.22100721819114e-012
endloop
endfacet
facet normal 2.39333843712553e-013 1.99150849920543e-013 -1.0
outer loop
vertex 933.265753371613 538.925964323121 -4.31619943377686e-012
vertex 933.52463865269 546.935481385597 -2.22100721819114e-012
vertex 935.647354604457 539.994987386439 -2.43645002595547e-012
endloop
endfacet
facet normal 2.39333843712553e-013 1.99150849920543e-013 -1.0
outer loop
vertex 935.647354604457 539.994987386439 -2.43645002595547e-012
vertex 933.52463865269 546.935481385597 -2.22100721819114e-012
vertex 933.824403025653 547.798591214424 -3.92380772935953e-012
endloop
endfacet
facet normal 2.39333843712553e-013 1.99150849920543e-013 -1.0
outer loop
vertex 935.647354604457 539.994987386439 -2.43645002595547e-012
vertex 933.824403025653 547.798591214424 -3.92380772935953e-012
vertex 933.890563913585 548.709876017778 -1.22317832964681e-012
endloop
endfacet
facet normal 2.39333843712553e-013 1.99150849920543e-013 -1.0
outer loop
vertex 935.647354604457 539.994987386439 -2.43645002595547e-012
vertex 933.890563913585 548.709876017778 -1.22317832964681e-012
vertex 935.14145048197 557.308105563672 -6.7191469203111e-013
endloop
endfacet
facet normal 2.39333843712553e-013 1.99150849920543e-013 -1.0
outer loop
vertex 935.647354604457 539.994987386439 -2.43645002595547e-012
vertex 935.14145048197 557.308105563672 -6.7191469203111e-013
vertex 937.258052228456 555.780089926003 -6.00878986034597e-013
endloop
endfacet
facet normal 2.39333843712553e-013 1.99150849920543e-013 -1.0
outer loop
vertex 935.647354604457 539.994987386439 -2.43645002595547e-012
vertex 937.258052228456 555.780089926003 -6.00878986034597e-013
vertex 937.671121214744 541.643988129093 -3.36791538681673e-012
endloop
endfacet
facet normal 2.39333843712553e-013 1.99150849920543e-013 -1.0
outer loop
vertex 937.671121214744 541.643988129093 -3.36791538681673e-012
vertex 937.258052228456 555.780089926003 -6.00878986034597e-013
vertex 938.90705297111 553.756323315717 -1.83038437242547e-012
endloop
endfacet
facet normal 2.39333843712553e-013 1.99150849920543e-013 -1.0
outer loop
vertex 937.671121214744 541.643988129093 -3.36791538681673e-012
vertex 938.90705297111 553.756323315717 -1.83038437242547e-012
vertex 939.199136852413 543.76058987558 -9.24172682485794e-013
endloop
endfacet
facet normal 2.39333843712553e-013 1.99150849920543e-013 -1.0
outer loop
vertex 939.199136852413 543.76058987558 -9.24172682485794e-013
vertex 938.90705297111 553.756323315717 -1.83038437242547e-012
vertex 939.976076034428 551.374722082871 -9.66415295913386e-014
endloop
endfacet
facet normal 2.39333843712553e-013 1.99150849920543e-013 -1.0
outer loop
vertex 939.199136852413 543.76058987558 -9.24172682485794e-013
vertex 939.976076034428 551.374722082871 -9.66415295913386e-014
vertex 940.127269776923 546.200549714721 -1.60882053993841e-012
endloop
endfacet
facet normal 2.39333843712553e-013 1.99150849920543e-013 -1.0
outer loop
vertex 940.127269776923 546.200549714721 -1.60882053993841e-012
vertex 939.976076034428 551.374722082871 -9.66415295913386e-014
vertex 940.392269263282 548.797588415706 -4.31779330204294e-013
endloop
endfacet
facet normal -2.42325521296928e-013 -2.07535384790311e-013 1.0
outer loop
vertex 932.190847993208 552.080479196742 1.9999999999963
vertex 931.396535823145 558.005504534402 1.99999999999662
vertex 931.396535823145 552.356349638304 1.99999999999756
endloop
endfacet
facet normal -2.42325521296928e-013 -2.07535384790311e-013 1.0
outer loop
vertex 921.886018675179 543.25468575309 1.99999999999262
vertex 920.896535823145 547.505504534402 1.99999999999653
vertex 920.816995611862 545.636286985934 1.99999999999266
endloop
endfacet
facet normal -2.42325521296928e-013 -2.07535384790311e-013 1.0
outer loop
vertex 920.896535823145 547.505504534402 1.99999999999653
vertex 921.886018675179 543.25468575309 1.99999999999262
vertex 926.55022447142 547.505504534402 1.99999999999574
endloop
endfacet
facet normal -2.42325521296928e-013 -2.07535384790311e-013 1.0
outer loop
vertex 926.55022447142 547.505504534402 1.99999999999574
vertex 921.886018675179 543.25468575309 1.99999999999262
vertex 923.535019417834 541.230919142805 1.99999999999326
endloop
endfacet
facet normal -2.42325521296928e-013 -2.07535384790311e-013 1.0
outer loop
vertex 926.55022447142 547.505504534402 1.99999999999574
vertex 923.535019417834 541.230919142805 1.99999999999326
vertex 925.65162116432 539.702903505134 1.99999999999282
endloop
endfacet
facet normal -2.42325521296928e-013 -2.07535384790311e-013 1.0
outer loop
vertex 926.55022447142 547.505504534402 1.99999999999574
vertex 925.65162116432 539.702903505134 1.99999999999282
vertex 928.091581003462 538.774770580625 1.99999999999419
endloop
endfacet
facet normal -2.42325521296928e-013 -2.07535384790311e-013 1.0
outer loop
vertex 926.55022447142 547.505504534402 1.99999999999574
vertex 928.091581003462 538.774770580625 1.99999999999419
vertex 926.599876693815 547.246386011114 1.99999999999459
endloop
endfacet
facet normal -2.42325521296928e-013 -2.07535384790311e-013 1.0
outer loop
vertex 926.599876693815 547.246386011114 1.99999999999459
vertex 928.091581003462 538.774770580625 1.99999999999419
vertex 927.05512857038 546.306641743965 1.99999999999533
endloop
endfacet
facet normal -2.42325521296928e-013 -2.07535384790311e-013 1.0
outer loop
vertex 927.05512857038 546.306641743965 1.99999999999533
vertex 928.091581003462 538.774770580625 1.99999999999419
vertex 927.738091829283 545.516746342194 1.99999999999527
endloop
endfacet
facet normal -2.42325521296928e-013 -2.07535384790311e-013 1.0
outer loop
vertex 927.738091829283 545.516746342194 1.99999999999527
vertex 928.091581003462 538.774770580625 1.99999999999419
vertex 928.602223653079 544.930529872065 1.99999999999529
endloop
endfacet
facet normal -2.42325521296928e-013 -2.07535384790311e-013 1.0
outer loop
vertex 928.602223653079 544.930529872065 1.99999999999529
vertex 928.091581003462 538.774770580625 1.99999999999419
vertex 929.396535823145 539.005504534402 1.99999999999656
endloop
endfacet
facet normal -2.42325521296928e-013 -2.07535384790311e-013 1.0
outer loop
vertex 929.396535823145 539.005504534402 1.99999999999656
vertex 928.091581003462 538.774770580625 1.99999999999419
vertex 930.688619704446 538.509771094266 1.99999999999342
endloop
endfacet
facet normal -2.42325521296928e-013 -2.07535384790311e-013 1.0
outer loop
vertex 929.396535823145 539.005504534402 1.99999999999656
vertex 930.688619704446 538.509771094266 1.99999999999342
vertex 931.396535823145 539.005504534402 1.99999999999656
endloop
endfacet
facet normal -2.42325521296928e-013 -2.07535384790311e-013 1.0
outer loop
vertex 931.396535823145 539.005504534402 1.99999999999656
vertex 930.688619704446 538.509771094266 1.99999999999342
vertex 933.265753371614 538.925964323121 1.99999999999486
endloop
endfacet
facet normal -2.42325521296928e-013 -2.07535384790311e-013 1.0
outer loop
vertex 931.396535823145 539.005504534402 1.99999999999656
vertex 933.265753371614 538.925964323121 1.99999999999486
vertex 931.396535823145 544.659193182679 1.99999999999679
endloop
endfacet
facet normal -2.42325521296928e-013 -2.07535384790311e-013 1.0
outer loop
vertex 931.396535823145 544.659193182679 1.99999999999679
vertex 933.265753371614 538.925964323121 1.99999999999486
vertex 931.655654346434 544.708845405075 1.99999999999708
endloop
endfacet
facet normal -2.42325521296928e-013 -2.07535384790311e-013 1.0
outer loop
vertex 931.655654346434 544.708845405075 1.99999999999708
vertex 933.265753371614 538.925964323121 1.99999999999486
vertex 932.595398613581 545.164097281639 1.99999999999702
endloop
endfacet
facet normal -2.42325521296928e-013 -2.07535384790311e-013 1.0
outer loop
vertex 932.595398613581 545.164097281639 1.99999999999702
vertex 933.265753371614 538.925964323121 1.99999999999486
vertex 933.385294015353 545.847060540541 1.99999999999685
endloop
endfacet
facet normal -2.42325521296928e-013 -2.07535384790311e-013 1.0
outer loop
vertex 933.385294015353 545.847060540541 1.99999999999685
vertex 933.265753371614 538.925964323121 1.99999999999486
vertex 935.647354604458 539.994987386438 1.99999999999722
endloop
endfacet
facet normal -2.42325521296928e-013 -2.07535384790311e-013 1.0
outer loop
vertex 933.385294015353 545.847060540541 1.99999999999685
vertex 935.647354604458 539.994987386438 1.99999999999722
vertex 933.971510485481 546.711192364337 1.99999999999599
endloop
endfacet
facet normal -2.42325521296928e-013 -2.07535384790311e-013 1.0
outer loop
vertex 933.971510485481 546.711192364337 1.99999999999599
vertex 935.647354604458 539.994987386438 1.99999999999722
vertex 934.247380927045 547.505504534402 1.99999999999753
endloop
endfacet
facet normal -2.42325521296928e-013 -2.07535384790311e-013 1.0
outer loop
vertex 934.247380927045 547.505504534402 1.99999999999753
vertex 935.647354604458 539.994987386438 1.99999999999722
vertex 939.896535823145 547.505504534402 1.99999999999664
endloop
endfacet
facet normal -2.42325521296928e-013 -2.07535384790311e-013 1.0
outer loop
vertex 939.896535823145 547.505504534402 1.99999999999664
vertex 935.647354604458 539.994987386438 1.99999999999722
vertex 937.671121214741 541.643988129094 1.99999999999718
endloop
endfacet
facet normal -2.42325521296928e-013 -2.07535384790311e-013 1.0
outer loop
vertex 939.896535823145 547.505504534402 1.99999999999664
vertex 937.671121214741 541.643988129094 1.99999999999718
vertex 939.199136852413 543.760589875579 1.99999999999807
endloop
endfacet
facet normal -2.42325521296928e-013 -2.07535384790311e-013 1.0
outer loop
vertex 939.896535823145 547.505504534402 1.99999999999664
vertex 939.199136852413 543.760589875579 1.99999999999807
vertex 940.127269776924 546.200549714719 1.99999999999821
endloop
endfacet
facet normal -2.42325521296928e-013 -2.07535384790311e-013 1.0
outer loop
vertex 939.896535823145 547.505504534402 1.99999999999664
vertex 940.127269776924 546.200549714719 1.99999999999821
vertex 939.896535823145 549.505504534402 1.99999999999664
endloop
endfacet
facet normal -2.42325521296928e-013 -2.07535384790311e-013 1.0
outer loop
vertex 939.896535823145 549.505504534402 1.99999999999664
vertex 940.127269776924 546.200549714719 1.99999999999821
vertex 939.976076034425 551.374722082872 1.99999999999828
endloop
endfacet
facet normal -2.42325521296928e-013 -2.07535384790311e-013 1.0
outer loop
vertex 939.976076034425 551.374722082872 1.99999999999828
vertex 940.127269776924 546.200549714719 1.99999999999821
vertex 940.392269263281 548.797588415707 1.99999999999889
endloop
endfacet
facet normal -2.42325521296928e-013 -2.07535384790311e-013 1.0
outer loop
vertex 920.816995611862 545.636286985934 1.99999999999266
vertex 920.665801869366 550.810459354086 1.99999999999489
vertex 920.400802383007 548.2134206531 1.99999999999432
endloop
endfacet
facet normal -2.42325521296928e-013 -2.07535384790311e-013 1.0
outer loop
vertex 920.665801869366 550.810459354086 1.99999999999489
vertex 920.816995611862 545.636286985934 1.99999999999266
vertex 920.896535823145 549.505504534402 1.99999999999653
endloop
endfacet
facet normal -2.42325521296928e-013 -2.07535384790311e-013 1.0
outer loop
vertex 920.665801869366 550.810459354086 1.99999999999489
vertex 920.896535823145 549.505504534402 1.99999999999653
vertex 921.593934793878 553.250419193228 1.99999999999526
endloop
endfacet
facet normal -2.42325521296928e-013 -2.07535384790311e-013 1.0
outer loop
vertex 920.896535823145 549.505504534402 1.99999999999653
vertex 920.816995611862 545.636286985934 1.99999999999266
vertex 920.896535823145 547.505504534402 1.99999999999653
endloop
endfacet
facet normal -2.42325521296928e-013 -2.07535384790311e-013 1.0
outer loop
vertex 921.593934793878 553.250419193228 1.99999999999526
vertex 920.896535823145 549.505504534402 1.99999999999653
vertex 926.545690719243 549.505504534402 1.99999999999579
endloop
endfacet
facet normal -2.42325521296928e-013 -2.07535384790311e-013 1.0
outer loop
vertex 921.593934793878 553.250419193228 1.99999999999526
vertex 926.545690719243 549.505504534402 1.99999999999579
vertex 923.121950431546 555.367020939714 1.99999999999693
endloop
endfacet
facet normal -2.42325521296928e-013 -2.07535384790311e-013 1.0
outer loop
vertex 923.121950431546 555.367020939714 1.99999999999693
vertex 926.545690719243 549.505504534402 1.99999999999579
vertex 925.145717041831 557.016021682368 1.99999999999709
endloop
endfacet
facet normal -2.42325521296928e-013 -2.07535384790311e-013 1.0
outer loop
vertex 925.145717041831 557.016021682368 1.99999999999709
vertex 926.545690719243 549.505504534402 1.99999999999579
vertex 927.527318274676 558.085044745685 1.99999999999816
endloop
endfacet
facet normal -2.42325521296928e-013 -2.07535384790311e-013 1.0
outer loop
vertex 927.527318274676 558.085044745685 1.99999999999816
vertex 926.545690719243 549.505504534402 1.99999999999579
vertex 926.821561160805 550.299816704469 1.99999999999409
endloop
endfacet
facet normal -2.42325521296928e-013 -2.07535384790311e-013 1.0
outer loop
vertex 927.527318274676 558.085044745685 1.99999999999816
vertex 926.821561160805 550.299816704469 1.99999999999409
vertex 927.407777630936 551.163948528265 1.99999999999525
endloop
endfacet
facet normal -2.42325521296928e-013 -2.07535384790311e-013 1.0
outer loop
vertex 927.527318274676 558.085044745685 1.99999999999816
vertex 927.407777630936 551.163948528265 1.99999999999525
vertex 928.197673032707 551.846911787168 1.99999999999683
endloop
endfacet
facet normal -2.42325521296928e-013 -2.07535384790311e-013 1.0
outer loop
vertex 927.527318274676 558.085044745685 1.99999999999816
vertex 928.197673032707 551.846911787168 1.99999999999683
vertex 929.396535823145 558.005504534402 1.99999999999662
endloop
endfacet
facet normal -2.42325521296928e-013 -2.07535384790311e-013 1.0
outer loop
vertex 927.527318274676 558.085044745685 1.99999999999816
vertex 929.396535823145 558.005504534402 1.99999999999662
vertex 930.104451941843 558.50123797454 1.99999999999837
endloop
endfacet
facet normal -2.42325521296928e-013 -2.07535384790311e-013 1.0
outer loop
vertex 929.396535823145 558.005504534402 1.99999999999662
vertex 928.197673032707 551.846911787168 1.99999999999683
vertex 929.137417299854 552.302163663731 1.99999999999752
endloop
endfacet
facet normal -2.42325521296928e-013 -2.07535384790311e-013 1.0
outer loop
vertex 929.396535823145 558.005504534402 1.99999999999662
vertex 929.137417299854 552.302163663731 1.99999999999752
vertex 929.396535823145 552.351815886128 1.99999999999712
endloop
endfacet
facet normal -2.42325521296928e-013 -2.07535384790311e-013 1.0
outer loop
vertex 930.104451941843 558.50123797454 1.99999999999837
vertex 929.396535823145 558.005504534402 1.99999999999662
vertex 931.396535823145 558.005504534402 1.99999999999662
endloop
endfacet
facet normal -2.42325521296928e-013 -2.07535384790311e-013 1.0
outer loop
vertex 930.104451941843 558.50123797454 1.99999999999837
vertex 931.396535823145 558.005504534402 1.99999999999662
vertex 932.701490642828 558.236238488182 1.99999999999827
endloop
endfacet
facet normal -2.42325521296928e-013 -2.07535384790311e-013 1.0
outer loop
vertex 932.701490642828 558.236238488182 1.99999999999827
vertex 931.396535823145 558.005504534402 1.99999999999662
vertex 932.190847993208 552.080479196742 1.9999999999963
endloop
endfacet
facet normal -2.42325521296928e-013 -2.07535384790311e-013 1.0
outer loop
vertex 932.701490642828 558.236238488182 1.99999999999827
vertex 932.190847993208 552.080479196742 1.9999999999963
vertex 933.054979817007 551.494262726613 1.99999999999768
endloop
endfacet
facet normal -2.42325521296928e-013 -2.07535384790311e-013 1.0
outer loop
vertex 932.701490642828 558.236238488182 1.99999999999827
vertex 933.054979817007 551.494262726613 1.99999999999768
vertex 935.14145048197 557.308105563671 1.99999999999828
endloop
endfacet
facet normal -2.42325521296928e-013 -2.07535384790311e-013 1.0
outer loop
vertex 935.14145048197 557.308105563671 1.99999999999828
vertex 933.054979817007 551.494262726613 1.99999999999768
vertex 933.737943075908 550.704367324841 1.99999999999757
endloop
endfacet
facet normal -2.42325521296928e-013 -2.07535384790311e-013 1.0
outer loop
vertex 935.14145048197 557.308105563671 1.99999999999828
vertex 933.737943075908 550.704367324841 1.99999999999757
vertex 934.193194952471 549.764623057694 1.99999999999742
endloop
endfacet
facet normal -2.42325521296928e-013 -2.07535384790311e-013 1.0
outer loop
vertex 935.14145048197 557.308105563671 1.99999999999828
vertex 934.193194952471 549.764623057694 1.99999999999742
vertex 934.242847174868 549.505504534402 1.99999999999701
endloop
endfacet
facet normal -2.42325521296928e-013 -2.07535384790311e-013 1.0
outer loop
vertex 935.14145048197 557.308105563671 1.99999999999828
vertex 934.242847174868 549.505504534402 1.99999999999701
vertex 939.896535823145 549.505504534402 1.99999999999664
endloop
endfacet
facet normal -2.42325521296928e-013 -2.07535384790311e-013 1.0
outer loop
vertex 935.14145048197 557.308105563671 1.99999999999828
vertex 939.896535823145 549.505504534402 1.99999999999664
vertex 937.258052228454 555.780089926001 1.99999999999997
endloop
endfacet
facet normal -2.42325521296928e-013 -2.07535384790311e-013 1.0
outer loop
vertex 937.258052228454 555.780089926001 1.99999999999997
vertex 939.896535823145 549.505504534402 1.99999999999664
vertex 938.907052971109 553.756323315716 1.99999999999984
endloop
endfacet
facet normal -2.42325521296928e-013 -2.07535384790311e-013 1.0
outer loop
vertex 938.907052971109 553.756323315716 1.99999999999984
vertex 939.896535823145 549.505504534402 1.99999999999664
vertex 939.976076034425 551.374722082872 1.99999999999828
endloop
endfacet
facet normal -2.42325521296928e-013 -2.07535384790311e-013 1.0
outer loop
vertex 929.396535823145 544.654659430501 1.99999999999615
vertex 928.602223653079 544.930529872065 1.99999999999529
vertex 929.396535823145 539.005504534402 1.99999999999656
endloop
endfacet
facet normal 0.63167426958847 -0.775233911242196 5.61227927079533e-015
outer loop
vertex 937.671121214741 541.643988129094 1.99999999999718
vertex 935.647354604457 539.994987386439 -2.43645002595547e-012
vertex 937.671121214744 541.643988129093 -3.36791538681673e-012
endloop
endfacet
facet normal 0.63167426958847 -0.775233911242196 5.61227927079533e-015
outer loop
vertex 935.647354604457 539.994987386439 -2.43645002595547e-012
vertex 937.671121214741 541.643988129094 1.99999999999718
vertex 935.647354604458 539.994987386438 1.99999999999722
endloop
endfacet
facet normal -0.98720939580514 -0.159429008759545 -2.74188726904343e-013
outer loop
vertex 920.400802383007 548.2134206531 1.99999999999432
vertex 920.816995611863 545.636286985935 -6.23787758189989e-012
vertex 920.816995611862 545.636286985934 1.99999999999266
endloop
endfacet
facet normal -0.98720939580514 -0.159429008759545 -2.74188726904343e-013
outer loop
vertex 920.816995611863 545.636286985935 -6.23787758189989e-012
vertex 920.400802383007 548.2134206531 1.99999999999432
vertex 920.400802383007 548.213420653102 -6.50057267558708e-012
endloop
endfacet
facet normal -0.994834315172195 0.101511996118044 -2.25130265986833e-013
outer loop
vertex 920.665801869366 550.810459354086 1.99999999999489
vertex 920.400802383007 548.213420653102 -6.50057267558708e-012
vertex 920.400802383007 548.2134206531 1.99999999999432
endloop
endfacet
facet normal -0.994834315172195 0.101511996118044 -2.25130265986833e-013
outer loop
vertex 920.400802383007 548.213420653102 -6.50057267558708e-012
vertex 920.665801869366 550.810459354086 1.99999999999489
vertex 920.665801869367 550.810459354086 -5.67320730968888e-012
endloop
endfacet
facet normal -0.934662920001705 0.355535126216646 -1.59670887622809e-013
outer loop
vertex 921.593934793878 553.250419193228 1.99999999999526
vertex 920.665801869367 550.810459354086 -5.67320730968888e-012
vertex 920.665801869366 550.810459354086 1.99999999999489
endloop
endfacet
facet normal -0.934662920001705 0.355535126216646 -1.59670887622809e-013
outer loop
vertex 920.665801869367 550.810459354086 -5.67320730968888e-012
vertex 921.593934793878 553.250419193228 1.99999999999526
vertex 921.593934793876 553.250419193228 -4.04548265145224e-012
endloop
endfacet
facet normal -0.810795791436602 0.585329125013179 -8.37620056041991e-014
outer loop
vertex 923.121950431546 555.367020939714 1.99999999999693
vertex 921.593934793876 553.250419193228 -4.04548265145224e-012
vertex 921.593934793878 553.250419193228 1.99999999999526
endloop
endfacet
facet normal -0.810795791436602 0.585329125013179 -8.37620056041991e-014
outer loop
vertex 921.593934793876 553.250419193228 -4.04548265145224e-012
vertex 923.121950431546 555.367020939714 1.99999999999693
vertex 923.121950431546 555.367020939713 -3.67723527827654e-012
endloop
endfacet
facet normal -0.631674269588492 0.775233911242178 -6.66968272599301e-015
outer loop
vertex 923.121950431546 555.367020939714 1.99999999999693
vertex 925.145717041832 557.016021682369 -2.90544088367888e-012
vertex 923.121950431546 555.367020939713 -3.67723527827654e-012
endloop
endfacet
facet normal -0.631674269588492 0.775233911242178 -6.66968272599301e-015
outer loop
vertex 925.145717041832 557.016021682369 -2.90544088367888e-012
vertex 923.121950431546 555.367020939714 1.99999999999693
vertex 925.145717041831 557.016021682368 1.99999999999709
endloop
endfacet
facet normal -0.409505190159053 0.912307787554616 7.68543367228609e-014
outer loop
vertex 925.145717041831 557.016021682368 1.99999999999709
vertex 927.527318274676 558.085044745685 -1.56712504050668e-012
vertex 925.145717041832 557.016021682369 -2.90544088367888e-012
endloop
endfacet
facet normal -0.409505190159053 0.912307787554616 7.68543367228609e-014
outer loop
vertex 927.527318274676 558.085044745685 -1.56712504050668e-012
vertex 925.145717041831 557.016021682368 1.99999999999709
vertex 927.527318274676 558.085044745685 1.99999999999816
endloop
endfacet
facet normal -0.159429008759519 0.987209395805144 1.54459778300975e-013
outer loop
vertex 927.527318274676 558.085044745685 1.99999999999816
vertex 930.104451941842 558.501237974541 -7.17711131453277e-013
vertex 927.527318274676 558.085044745685 -1.56712504050668e-012
endloop
endfacet
facet normal -0.159429008759519 0.987209395805144 1.54459778300975e-013
outer loop
vertex 930.104451941842 558.501237974541 -7.17711131453277e-013
vertex 927.527318274676 558.085044745685 1.99999999999816
vertex 930.104451941843 558.50123797454 1.99999999999837
endloop
endfacet
facet normal 0.101511996118072 0.994834315172192 2.19211389486799e-013
outer loop
vertex 930.104451941842 558.501237974541 -7.17711131453277e-013
vertex 932.701490642828 558.236238488182 1.99999999999827
vertex 932.701490642827 558.236238488182 -1.08601155415537e-012
endloop
endfacet
facet normal 0.101511996118072 0.994834315172192 2.19211389486799e-013
outer loop
vertex 932.701490642828 558.236238488182 1.99999999999827
vertex 930.104451941842 558.501237974541 -7.17711131453277e-013
vertex 930.104451941843 558.50123797454 1.99999999999837
endloop
endfacet
facet normal 0.355535126216612 0.934662920001718 2.70254374060829e-013
outer loop
vertex 932.701490642828 558.236238488182 1.99999999999827
vertex 935.14145048197 557.308105563672 -6.7191469203111e-013
vertex 932.701490642827 558.236238488182 -1.08601155415537e-012
endloop
endfacet
facet normal 0.355535126216612 0.934662920001718 2.70254374060829e-013
outer loop
vertex 935.14145048197 557.308105563672 -6.7191469203111e-013
vertex 932.701490642828 558.236238488182 1.99999999999827
vertex 935.14145048197 557.308105563671 1.99999999999828
endloop
endfacet
facet normal 0.585329125013154 0.810795791436621 3.02574408691525e-013
outer loop
vertex 935.14145048197 557.308105563671 1.99999999999828
vertex 937.258052228456 555.780089926003 -6.00878986034597e-013
vertex 935.14145048197 557.308105563672 -6.7191469203111e-013
endloop
endfacet
facet normal 0.585329125013154 0.810795791436621 3.02574408691525e-013
outer loop
vertex 937.258052228456 555.780089926003 -6.00878986034597e-013
vertex 935.14145048197 557.308105563671 1.99999999999828
vertex 937.258052228454 555.780089926001 1.99999999999997
endloop
endfacet
facet normal 0.775233911242184 0.631674269588485 3.13943315788379e-013
outer loop
vertex 938.90705297111 553.756323315717 -1.83038437242547e-012
vertex 937.258052228454 555.780089926001 1.99999999999997
vertex 938.907052971109 553.756323315716 1.99999999999984
endloop
endfacet
facet normal 0.775233911242184 0.631674269588485 3.13943315788379e-013
outer loop
vertex 937.258052228454 555.780089926001 1.99999999999997
vertex 938.90705297111 553.756323315717 -1.83038437242547e-012
vertex 937.258052228456 555.780089926003 -6.00878986034597e-013
endloop
endfacet
facet normal 0.912307787554632 0.409505190159017 3.04239743228463e-013
outer loop
vertex 938.90705297111 553.756323315717 -1.83038437242547e-012
vertex 939.976076034425 551.374722082872 1.99999999999828
vertex 939.976076034428 551.374722082871 -9.66415295913386e-014
endloop
endfacet
facet normal 0.912307787554632 0.409505190159017 3.04239743228463e-013
outer loop
vertex 939.976076034425 551.374722082872 1.99999999999828
vertex 938.90705297111 553.756323315717 -1.83038437242547e-012
vertex 938.907052971109 553.756323315716 1.99999999999984
endloop
endfacet
facet normal 0.98720939580514 0.159429008759545 2.74188726904343e-013
outer loop
vertex 939.976076034428 551.374722082871 -9.66415295913386e-014
vertex 940.392269263281 548.797588415707 1.99999999999889
vertex 940.392269263282 548.797588415706 -4.31779330204294e-013
endloop
endfacet
facet normal 0.98720939580514 0.159429008759545 2.74188726904343e-013
outer loop
vertex 940.392269263281 548.797588415707 1.99999999999889
vertex 939.976076034428 551.374722082871 -9.66415295913386e-014
vertex 939.976076034425 551.374722082872 1.99999999999828
endloop
endfacet
facet normal 0.994834315172195 -0.101511996118044 2.25130265986833e-013
outer loop
vertex 940.127269776923 546.200549714721 -1.60882053993841e-012
vertex 940.392269263281 548.797588415707 1.99999999999889
vertex 940.127269776924 546.200549714719 1.99999999999821
endloop
endfacet
facet normal 0.994834315172195 -0.101511996118044 2.25130265986833e-013
outer loop
vertex 940.392269263281 548.797588415707 1.99999999999889
vertex 940.127269776923 546.200549714721 -1.60882053993841e-012
vertex 940.392269263282 548.797588415706 -4.31779330204294e-013
endloop
endfacet
facet normal 0.934662920001705 -0.355535126216646 1.59670887622809e-013
outer loop
vertex 939.199136852413 543.76058987558 -9.24172682485794e-013
vertex 940.127269776924 546.200549714719 1.99999999999821
vertex 939.199136852413 543.760589875579 1.99999999999807
endloop
endfacet
facet normal 0.934662920001705 -0.355535126216646 1.59670887622809e-013
outer loop
vertex 940.127269776924 546.200549714719 1.99999999999821
vertex 939.199136852413 543.76058987558 -9.24172682485794e-013
vertex 940.127269776923 546.200549714721 -1.60882053993841e-012
endloop
endfacet
facet normal 0.810795791436602 -0.585329125013179 8.37620056041991e-014
outer loop
vertex 939.199136852413 543.76058987558 -9.24172682485794e-013
vertex 937.671121214741 541.643988129094 1.99999999999718
vertex 937.671121214744 541.643988129093 -3.36791538681673e-012
endloop
endfacet
facet normal 0.810795791436602 -0.585329125013179 8.37620056041991e-014
outer loop
vertex 937.671121214741 541.643988129094 1.99999999999718
vertex 939.199136852413 543.76058987558 -9.24172682485794e-013
vertex 939.199136852413 543.760589875579 1.99999999999807
endloop
endfacet
facet normal -0.355535126216612 -0.934662920001718 -2.70254374060829e-013
outer loop
vertex 928.091581003462 538.774770580625 -6.35393441849458e-012
vertex 925.65162116432 539.702903505134 1.99999999999282
vertex 925.65162116432 539.702903505136 -6.45219503457355e-012
endloop
endfacet
facet normal -0.355535126216612 -0.934662920001718 -2.70254374060829e-013
outer loop
vertex 925.65162116432 539.702903505134 1.99999999999282
vertex 928.091581003462 538.774770580625 -6.35393441849458e-012
vertex 928.091581003462 538.774770580625 1.99999999999419
endloop
endfacet
facet normal -0.912307787554632 -0.409505190159017 -3.04239743228463e-013
outer loop
vertex 920.816995611862 545.636286985934 1.99999999999266
vertex 921.886018675179 543.254685753091 -6.71498846138331e-012
vertex 921.886018675179 543.25468575309 1.99999999999262
endloop
endfacet
facet normal -0.912307787554632 -0.409505190159017 -3.04239743228463e-013
outer loop
vertex 921.886018675179 543.254685753091 -6.71498846138331e-012
vertex 920.816995611862 545.636286985934 1.99999999999266
vertex 920.816995611863 545.636286985935 -6.23787758189989e-012
endloop
endfacet
facet normal -0.585329125013154 -0.810795791436621 -3.02574408691525e-013
outer loop
vertex 925.65162116432 539.702903505134 1.99999999999282
vertex 923.535019417835 541.230919142804 -6.30891328789641e-012
vertex 925.65162116432 539.702903505136 -6.45219503457355e-012
endloop
endfacet
facet normal -0.585329125013154 -0.810795791436621 -3.02574408691525e-013
outer loop
vertex 923.535019417835 541.230919142804 -6.30891328789641e-012
vertex 925.65162116432 539.702903505134 1.99999999999282
vertex 923.535019417834 541.230919142805 1.99999999999326
endloop
endfacet
facet normal -0.775233911242184 -0.631674269588485 -3.13943315788379e-013
outer loop
vertex 923.535019417834 541.230919142805 1.99999999999326
vertex 921.886018675179 543.254685753091 -6.71498846138331e-012
vertex 923.535019417835 541.230919142804 -6.30891328789641e-012
endloop
endfacet
facet normal -0.775233911242184 -0.631674269588485 -3.13943315788379e-013
outer loop
vertex 921.886018675179 543.254685753091 -6.71498846138331e-012
vertex 923.535019417834 541.230919142805 1.99999999999326
vertex 921.886018675179 543.25468575309 1.99999999999262
endloop
endfacet
facet normal -0.101511996118072 -0.994834315172192 -2.19211389486799e-013
outer loop
vertex 930.688619704447 538.509771094267 -5.74088650527003e-012
vertex 928.091581003462 538.774770580625 1.99999999999419
vertex 928.091581003462 538.774770580625 -6.35393441849458e-012
endloop
endfacet
facet normal -0.101511996118072 -0.994834315172192 -2.19211389486799e-013
outer loop
vertex 928.091581003462 538.774770580625 1.99999999999419
vertex 930.688619704447 538.509771094267 -5.74088650527003e-012
vertex 930.688619704446 538.509771094266 1.99999999999342
endloop
endfacet
facet normal 0.159429008759519 -0.987209395805144 -1.54459778300975e-013
outer loop
vertex 933.265753371613 538.925964323121 -4.31619943377686e-012
vertex 930.688619704446 538.509771094266 1.99999999999342
vertex 930.688619704447 538.509771094267 -5.74088650527003e-012
endloop
endfacet
facet normal 0.159429008759519 -0.987209395805144 -1.54459778300975e-013
outer loop
vertex 930.688619704446 538.509771094266 1.99999999999342
vertex 933.265753371613 538.925964323121 -4.31619943377686e-012
vertex 933.265753371614 538.925964323121 1.99999999999486
endloop
endfacet
facet normal -7.10332466248039e-016 9.34647981904925e-016 1.0
outer loop
vertex 931.396535823145 540.505504534402 10.9999999999967
vertex 929.396535823145 547.505504534402 10.9999999999966
vertex 929.396535823145 540.505504534402 10.9999999999966
endloop
endfacet
facet normal -7.10332466248039e-016 9.34647981904925e-016 1.0
outer loop
vertex 929.396535823145 547.505504534402 10.9999999999966
vertex 931.396535823145 540.505504534402 10.9999999999967
vertex 929.396535823145 549.505504534402 10.9999999999972
endloop
endfacet
facet normal -7.10332466248039e-016 9.34647981904925e-016 1.0
outer loop
vertex 938.396535823145 547.505504534402 10.9999999999966
vertex 931.396535823145 549.505504534402 10.9999999999966
vertex 931.396535823145 547.505504534402 10.9999999999967
endloop
endfacet
facet normal -7.10332466248039e-016 9.34647981904925e-016 1.0
outer loop
vertex 931.396535823145 549.505504534402 10.9999999999966
vertex 938.396535823145 547.505504534402 10.9999999999966
vertex 938.396535823145 549.505504534402 10.9999999999966
endloop
endfacet
facet normal -7.10332466248039e-016 9.34647981904925e-016 1.0
outer loop
vertex 929.396535823145 549.505504534402 10.9999999999972
vertex 931.396535823145 556.505504534402 10.9999999999966
vertex 929.396535823145 556.505504534402 10.9999999999965
endloop
endfacet
facet normal -7.10332466248039e-016 9.34647981904925e-016 1.0
outer loop
vertex 931.396535823145 556.505504534402 10.9999999999966
vertex 929.396535823145 549.505504534402 10.9999999999972
vertex 931.396535823145 540.505504534402 10.9999999999967
endloop
endfacet
facet normal -7.10332466248039e-016 9.34647981904925e-016 1.0
outer loop
vertex 931.396535823145 556.505504534402 10.9999999999966
vertex 931.396535823145 540.505504534402 10.9999999999967
vertex 931.396535823145 547.505504534402 10.9999999999967
endloop
endfacet
facet normal -7.10332466248039e-016 9.34647981904925e-016 1.0
outer loop
vertex 931.396535823145 556.505504534402 10.9999999999966
vertex 931.396535823145 547.505504534402 10.9999999999967
vertex 931.396535823145 549.505504534402 10.9999999999966
endloop
endfacet
facet normal -7.10332466248039e-016 9.34647981904925e-016 1.0
outer loop
vertex 929.396535823145 547.505504534402 10.9999999999966
vertex 922.396535823145 549.505504534402 10.9999999999966
vertex 922.396535823145 547.505504534402 10.9999999999965
endloop
endfacet
facet normal -7.10332466248039e-016 9.34647981904925e-016 1.0
outer loop
vertex 922.396535823145 549.505504534402 10.9999999999966
vertex 929.396535823145 547.505504534402 10.9999999999966
vertex 929.396535823145 549.505504534402 10.9999999999972
endloop
endfacet
facet normal 1.0 -1.0013443710941e-014 3.28800206892359e-014
outer loop
vertex 931.396535823145 552.356349638304 2.99999999999756
vertex 931.396535823145 549.505504534402 10.9999999999966
vertex 931.396535823145 549.505504534402 2.99999999999657
endloop
endfacet
facet normal 1.0 -1.0013443710941e-014 3.28800206892359e-014
outer loop
vertex 931.396535823145 549.505504534402 10.9999999999966
vertex 931.396535823145 552.356349638304 2.99999999999756
vertex 931.396535823145 556.505504534402 10.9999999999966
endloop
endfacet
facet normal 1.0 -1.0013443710941e-014 3.28800206892359e-014
outer loop
vertex 931.396535823145 556.505504534402 10.9999999999966
vertex 931.396535823145 552.356349638304 2.99999999999756
vertex 931.396535823145 552.356349638304 1.99999999999756
endloop
endfacet
facet normal 1.0 -1.0013443710941e-014 3.28800206892359e-014
outer loop
vertex 931.396535823145 556.505504534402 10.9999999999966
vertex 931.396535823145 552.356349638304 1.99999999999756
vertex 931.396535823145 558.005504534402 1.99999999999662
endloop
endfacet
facet normal -1.0 4.53151569184879e-014 -1.07339468888684e-014
outer loop
vertex 929.396535823145 556.505504534402 10.9999999999965
vertex 929.396535823144 549.505504534402 2.99999999999724
vertex 929.396535823145 549.505504534402 10.9999999999972
endloop
endfacet
facet normal -1.0 4.53151569184879e-014 -1.07339468888684e-014
outer loop
vertex 929.396535823144 549.505504534402 2.99999999999724
vertex 929.396535823145 556.505504534402 10.9999999999965
vertex 929.396535823144 552.351815886128 2.99999999999712
endloop
endfacet
facet normal -1.0 4.53151569184879e-014 -1.07339468888684e-014
outer loop
vertex 929.396535823144 552.351815886128 2.99999999999712
vertex 929.396535823145 556.505504534402 10.9999999999965
vertex 929.396535823145 552.351815886128 1.99999999999712
endloop
endfacet
facet normal -1.0 4.53151569184879e-014 -1.07339468888684e-014
outer loop
vertex 929.396535823145 552.351815886128 1.99999999999712
vertex 929.396535823145 556.505504534402 10.9999999999965
vertex 929.396535823145 558.005504534402 1.99999999999662
endloop
endfacet
facet normal -3.4002123376343e-015 1.0 2.40474514689025e-014
outer loop
vertex 920.896535823145 549.505504534402 1.99999999999653
vertex 926.545690719242 549.505504534402 2.99999999999579
vertex 926.545690719243 549.505504534402 1.99999999999579
endloop
endfacet
facet normal -3.4002123376343e-015 1.0 2.40474514689025e-014
outer loop
vertex 926.545690719242 549.505504534402 2.99999999999579
vertex 920.896535823145 549.505504534402 1.99999999999653
vertex 922.396535823145 549.505504534402 10.9999999999966
endloop
endfacet
facet normal -3.4002123376343e-015 1.0 2.40474514689025e-014
outer loop
vertex 926.545690719242 549.505504534402 2.99999999999579
vertex 922.396535823145 549.505504534402 10.9999999999966
vertex 929.396535823144 549.505504534402 2.99999999999724
endloop
endfacet
facet normal -3.4002123376343e-015 1.0 2.40474514689025e-014
outer loop
vertex 929.396535823144 549.505504534402 2.99999999999724
vertex 922.396535823145 549.505504534402 10.9999999999966
vertex 929.396535823145 549.505504534402 10.9999999999972
endloop
endfacet
facet normal -1.0 -4.81303683803675e-014 -8.05742596637625e-015
outer loop
vertex 929.396535823145 547.505504534402 10.9999999999966
vertex 929.396535823145 544.654659430501 3.49999999999615
vertex 929.396535823145 540.505504534402 10.9999999999966
endloop
endfacet
facet normal -1.0 -4.81303683803675e-014 -8.05742596637625e-015
outer loop
vertex 929.396535823145 544.654659430501 3.49999999999615
vertex 929.396535823145 547.505504534402 10.9999999999966
vertex 929.396535823145 547.505504534401 3.49999999999662
endloop
endfacet
facet normal -1.0 -4.81303683803675e-014 -8.05742596637625e-015
outer loop
vertex 929.396535823145 540.505504534402 10.9999999999966
vertex 929.396535823145 544.654659430501 1.99999999999615
vertex 929.396535823145 539.005504534402 1.99999999999656
endloop
endfacet
facet normal -1.0 -4.81303683803675e-014 -8.05742596637625e-015
outer loop
vertex 929.396535823145 544.654659430501 1.99999999999615
vertex 929.396535823145 540.505504534402 10.9999999999966
vertex 929.396535823145 544.654659430501 3.49999999999615
endloop
endfacet
facet normal 1.0 -6.79931909044856e-015 4.80932750480167e-014
outer loop
vertex 931.396535823145 544.659193182679 1.99999999999679
vertex 931.396535823145 540.505504534402 10.9999999999967
vertex 931.396535823145 539.005504534402 1.99999999999656
endloop
endfacet
facet normal 1.0 -6.79931909044856e-015 4.80932750480167e-014
outer loop
vertex 931.396535823145 540.505504534402 10.9999999999967
vertex 931.396535823145 544.659193182679 1.99999999999679
vertex 931.396535823145 544.659193182679 2.99999999999679
endloop
endfacet
facet normal 1.0 -6.79931909044856e-015 4.80932750480167e-014
outer loop
vertex 931.396535823145 540.505504534402 10.9999999999967
vertex 931.396535823145 544.659193182679 2.99999999999679
vertex 931.396535823145 547.505504534402 10.9999999999967
endloop
endfacet
facet normal 1.0 -6.79931909044856e-015 4.80932750480167e-014
outer loop
vertex 931.396535823145 547.505504534402 10.9999999999967
vertex 931.396535823145 544.659193182679 2.99999999999679
vertex 931.396535823145 547.505504534402 2.99999999999673
endloop
endfacet
facet normal -7.31857241399035e-015 -1.0 -2.69521723512657e-014
outer loop
vertex 938.396535823145 547.505504534402 10.9999999999966
vertex 934.247380927045 547.505504534402 1.99999999999753
vertex 939.896535823145 547.505504534402 1.99999999999664
endloop
endfacet
facet normal -7.31857241399035e-015 -1.0 -2.69521723512657e-014
outer loop
vertex 934.247380927045 547.505504534402 1.99999999999753
vertex 938.396535823145 547.505504534402 10.9999999999966
vertex 934.247380927045 547.505504534402 2.99999999999753
endloop
endfacet
facet normal -7.31857241399035e-015 -1.0 -2.69521723512657e-014
outer loop
vertex 934.247380927045 547.505504534402 2.99999999999753
vertex 931.396535823145 547.505504534402 10.9999999999967
vertex 931.396535823145 547.505504534402 2.99999999999673
endloop
endfacet
facet normal -7.31857241399035e-015 -1.0 -2.69521723512657e-014
outer loop
vertex 931.396535823145 547.505504534402 10.9999999999967
vertex 934.247380927045 547.505504534402 2.99999999999753
vertex 938.396535823145 547.505504534402 10.9999999999966
endloop
endfacet
facet normal -8.82997182101435e-013 -2.57994933222163e-015 1.0
outer loop
vertex 929.396535823144 549.505504534402 2.99999999999724
vertex 926.821561160804 550.299816704469 2.99999999999409
vertex 926.545690719242 549.505504534402 2.99999999999579
endloop
endfacet
facet normal -8.82997182101435e-013 -2.57994933222163e-015 1.0
outer loop
vertex 926.821561160804 550.299816704469 2.99999999999409
vertex 929.396535823144 549.505504534402 2.99999999999724
vertex 927.407777630935 551.163948528265 2.99999999999525
endloop
endfacet
facet normal -8.82997182101435e-013 -2.57994933222163e-015 1.0
outer loop
vertex 927.407777630935 551.163948528265 2.99999999999525
vertex 929.396535823144 549.505504534402 2.99999999999724
vertex 928.197673032706 551.846911787168 2.99999999999683
endloop
endfacet
facet normal -8.82997182101435e-013 -2.57994933222163e-015 1.0
outer loop
vertex 928.197673032706 551.846911787168 2.99999999999683
vertex 929.396535823144 549.505504534402 2.99999999999724
vertex 929.137417299853 552.302163663731 2.99999999999752
endloop
endfacet
facet normal -8.82997182101435e-013 -2.57994933222163e-015 1.0
outer loop
vertex 929.137417299853 552.302163663731 2.99999999999752
vertex 929.396535823144 549.505504534402 2.99999999999724
vertex 929.396535823144 552.351815886128 2.99999999999712
endloop
endfacet
facet normal -0.188195782618449 0.982131532639407 -1.63642496143678e-013
outer loop
vertex 929.137417299854 552.302163663731 1.99999999999752
vertex 929.396535823144 552.351815886128 2.99999999999712
vertex 929.396535823145 552.351815886128 1.99999999999712
endloop
endfacet
facet normal -0.188195782618449 0.982131532639407 -1.63642496143678e-013
outer loop
vertex 929.396535823144 552.351815886128 2.99999999999712
vertex 929.137417299854 552.302163663731 1.99999999999752
vertex 929.137417299853 552.302163663731 2.99999999999752
endloop
endfacet
facet normal -0.435977512271188 0.899957559440347 -3.82645069890547e-013
outer loop
vertex 928.197673032706 551.846911787168 2.99999999999683
vertex 929.137417299854 552.302163663731 1.99999999999752
vertex 928.197673032707 551.846911787168 1.99999999999683
endloop
endfacet
facet normal -0.435977512271188 0.899957559440347 -3.82645069890547e-013
outer loop
vertex 929.137417299854 552.302163663731 1.99999999999752
vertex 928.197673032706 551.846911787168 2.99999999999683
vertex 929.137417299853 552.302163663731 2.99999999999752
endloop
endfacet
facet normal -0.654048094952328 0.756452965814287 -5.75571014477708e-013
outer loop
vertex 927.407777630935 551.163948528265 2.99999999999525
vertex 928.197673032707 551.846911787168 1.99999999999683
vertex 927.407777630936 551.163948528265 1.99999999999525
endloop
endfacet
facet normal -0.654048094952328 0.756452965814287 -5.75571014477708e-013
outer loop
vertex 928.197673032707 551.846911787168 1.99999999999683
vertex 927.407777630935 551.163948528265 2.99999999999525
vertex 928.197673032706 551.846911787168 2.99999999999683
endloop
endfacet
facet normal -0.82754638082431 0.561397352669735 -7.29272745600976e-013
outer loop
vertex 927.407777630935 551.163948528265 2.99999999999525
vertex 926.821561160805 550.299816704469 1.99999999999409
vertex 926.821561160804 550.299816704469 2.99999999999409
endloop
endfacet
facet normal -0.82754638082431 0.561397352669735 -7.29272745600976e-013
outer loop
vertex 926.821561160805 550.299816704469 1.99999999999409
vertex 927.407777630935 551.163948528265 2.99999999999525
vertex 927.407777630936 551.163948528265 1.99999999999525
endloop
endfacet
facet normal -0.944648748432965 0.328083437686259 -8.33275744295984e-013
outer loop
vertex 926.821561160804 550.299816704469 2.99999999999409
vertex 926.545690719243 549.505504534402 1.99999999999579
vertex 926.545690719242 549.505504534402 2.99999999999579
endloop
endfacet
facet normal -0.944648748432965 0.328083437686259 -8.33275744295984e-013
outer loop
vertex 926.545690719243 549.505504534402 1.99999999999579
vertex 926.821561160804 550.299816704469 2.99999999999409
vertex 926.821561160805 550.299816704469 1.99999999999409
endloop
endfacet
facet normal -2.39387467184516e-013 -1.76117875805505e-013 1.0
outer loop
vertex 934.242847174868 549.505504534402 2.99999999999701
vertex 931.396535823145 552.356349638304 2.99999999999756
vertex 931.396535823145 549.505504534402 2.99999999999657
endloop
endfacet
facet normal -2.39387467184516e-013 -1.76117875805505e-013 1.0
outer loop
vertex 931.396535823145 552.356349638304 2.99999999999756
vertex 934.242847174868 549.505504534402 2.99999999999701
vertex 932.190847993208 552.080479196742 2.9999999999963
endloop
endfacet
facet normal -2.39387467184516e-013 -1.76117875805505e-013 1.0
outer loop
vertex 932.190847993208 552.080479196742 2.9999999999963
vertex 934.242847174868 549.505504534402 2.99999999999701
vertex 933.054979817007 551.494262726613 2.99999999999768
endloop
endfacet
facet normal -2.39387467184516e-013 -1.76117875805505e-013 1.0
outer loop
vertex 933.054979817007 551.494262726613 2.99999999999768
vertex 934.242847174868 549.505504534402 2.99999999999701
vertex 933.737943075907 550.704367324841 2.99999999999757
endloop
endfacet
facet normal -2.39387467184516e-013 -1.76117875805505e-013 1.0
outer loop
vertex 933.737943075907 550.704367324841 2.99999999999757
vertex 934.242847174868 549.505504534402 2.99999999999701
vertex 934.193194952471 549.764623057694 2.99999999999742
endloop
endfacet
facet normal 0.328083437687569 0.94464874843251 2.44908594129479e-013
outer loop
vertex 931.396535823145 552.356349638304 1.99999999999756
vertex 932.190847993208 552.080479196742 2.9999999999963
vertex 932.190847993208 552.080479196742 1.9999999999963
endloop
endfacet
facet normal 0.328083437687569 0.94464874843251 2.44908594129479e-013
outer loop
vertex 932.190847993208 552.080479196742 2.9999999999963
vertex 931.396535823145 552.356349638304 1.99999999999756
vertex 931.396535823145 552.356349638304 2.99999999999756
endloop
endfacet
facet normal 0.9821315326396 0.188195782617437 2.68254621510778e-013
outer loop
vertex 934.242847174868 549.505504534402 1.99999999999701
vertex 934.193194952471 549.764623057694 2.99999999999742
vertex 934.242847174868 549.505504534402 2.99999999999701
endloop
endfacet
facet normal 0.9821315326396 0.188195782617437 2.68254621510778e-013
outer loop
vertex 934.193194952471 549.764623057694 2.99999999999742
vertex 934.242847174868 549.505504534402 1.99999999999701
vertex 934.193194952471 549.764623057694 1.99999999999742
endloop
endfacet
facet normal 0.899957559439795 0.435977512272329 2.92221994088222e-013
outer loop
vertex 934.193194952471 549.764623057694 1.99999999999742
vertex 933.737943075907 550.704367324841 2.99999999999757
vertex 934.193194952471 549.764623057694 2.99999999999742
endloop
endfacet
facet normal 0.899957559439795 0.435977512272329 2.92221994088222e-013
outer loop
vertex 933.737943075907 550.704367324841 2.99999999999757
vertex 934.193194952471 549.764623057694 1.99999999999742
vertex 933.737943075908 550.704367324841 1.99999999999757
endloop
endfacet
facet normal 0.756452965816406 0.654048094949877 2.96274920688214e-013
outer loop
vertex 933.737943075908 550.704367324841 1.99999999999757
vertex 933.054979817007 551.494262726613 2.99999999999768
vertex 933.737943075907 550.704367324841 2.99999999999757
endloop
endfacet
facet normal 0.756452965816406 0.654048094949877 2.96274920688214e-013
outer loop
vertex 933.054979817007 551.494262726613 2.99999999999768
vertex 933.737943075908 550.704367324841 1.99999999999757
vertex 933.054979817007 551.494262726613 1.99999999999768
endloop
endfacet
facet normal 0.561397352666746 0.827546380826337 2.80137201060653e-013
outer loop
vertex 932.190847993208 552.080479196742 2.9999999999963
vertex 933.054979817007 551.494262726613 1.99999999999768
vertex 932.190847993208 552.080479196742 1.9999999999963
endloop
endfacet
facet normal 0.561397352666746 0.827546380826337 2.80137201060653e-013
outer loop
vertex 933.054979817007 551.494262726613 1.99999999999768
vertex 932.190847993208 552.080479196742 2.9999999999963
vertex 933.054979817007 551.494262726613 2.99999999999768
endloop
endfacet
facet normal -2.77299991110636e-016 1.3410474163397e-014 1.0
outer loop
vertex 931.655654346434 544.708845405075 2.99999999999708
vertex 931.396535823145 547.505504534402 2.99999999999673
vertex 931.396535823145 544.659193182679 2.99999999999679
endloop
endfacet
facet normal -2.77299991110636e-016 1.3410474163397e-014 1.0
outer loop
vertex 931.396535823145 547.505504534402 2.99999999999673
vertex 931.655654346434 544.708845405075 2.99999999999708
vertex 934.247380927045 547.505504534402 2.99999999999753
endloop
endfacet
facet normal -2.77299991110636e-016 1.3410474163397e-014 1.0
outer loop
vertex 934.247380927045 547.505504534402 2.99999999999753
vertex 931.655654346434 544.708845405075 2.99999999999708
vertex 932.595398613581 545.164097281639 2.99999999999702
endloop
endfacet
facet normal -2.77299991110636e-016 1.3410474163397e-014 1.0
outer loop
vertex 934.247380927045 547.505504534402 2.99999999999753
vertex 932.595398613581 545.164097281639 2.99999999999702
vertex 933.385294015353 545.847060540541 2.99999999999685
endloop
endfacet
facet normal -2.77299991110636e-016 1.3410474163397e-014 1.0
outer loop
vertex 934.247380927045 547.505504534402 2.99999999999753
vertex 933.385294015353 545.847060540541 2.99999999999685
vertex 933.971510485481 546.711192364337 2.99999999999599
endloop
endfacet
facet normal 0.188195782616744 -0.982131532639733 1.32230362323693e-014
outer loop
vertex 931.655654346434 544.708845405075 1.99999999999708
vertex 931.396535823145 544.659193182679 2.99999999999679
vertex 931.396535823145 544.659193182679 1.99999999999679
endloop
endfacet
facet normal 0.188195782616744 -0.982131532639733 1.32230362323693e-014
outer loop
vertex 931.396535823145 544.659193182679 2.99999999999679
vertex 931.655654346434 544.708845405075 1.99999999999708
vertex 931.655654346434 544.708845405075 2.99999999999708
endloop
endfacet
facet normal 0.435977512272092 -0.89995755943991 1.21897541593002e-014
outer loop
vertex 932.595398613581 545.164097281639 2.99999999999702
vertex 931.655654346434 544.708845405075 1.99999999999708
vertex 932.595398613581 545.164097281639 1.99999999999702
endloop
endfacet
facet normal 0.435977512272092 -0.89995755943991 1.21897541593002e-014
outer loop
vertex 931.655654346434 544.708845405075 1.99999999999708
vertex 932.595398613581 545.164097281639 2.99999999999702
vertex 931.655654346434 544.708845405075 2.99999999999708
endloop
endfacet
facet normal 0.65404809495079 -0.756452965815617 1.03257604848111e-014
outer loop
vertex 933.385294015353 545.847060540541 2.99999999999685
vertex 932.595398613581 545.164097281639 1.99999999999702
vertex 933.385294015353 545.847060540541 1.99999999999685
endloop
endfacet
facet normal 0.65404809495079 -0.756452965815617 1.03257604848111e-014
outer loop
vertex 932.595398613581 545.164097281639 1.99999999999702
vertex 933.385294015353 545.847060540541 2.99999999999685
vertex 932.595398613581 545.164097281639 2.99999999999702
endloop
endfacet
facet normal 0.827546380826299 -0.561397352666803 7.75808329738439e-015
outer loop
vertex 933.971510485481 546.711192364337 1.99999999999599
vertex 933.385294015353 545.847060540541 2.99999999999685
vertex 933.385294015353 545.847060540541 1.99999999999685
endloop
endfacet
facet normal 0.827546380826299 -0.561397352666803 7.75808329738439e-015
outer loop
vertex 933.385294015353 545.847060540541 2.99999999999685
vertex 933.971510485481 546.711192364337 1.99999999999599
vertex 933.971510485481 546.711192364337 2.99999999999599
endloop
endfacet
facet normal 0.944648748431852 -0.328083437689464 4.66170555411584e-015
outer loop
vertex 934.247380927045 547.505504534402 1.99999999999753
vertex 933.971510485481 546.711192364337 2.99999999999599
vertex 933.971510485481 546.711192364337 1.99999999999599
endloop
endfacet
facet normal 0.944648748431852 -0.328083437689464 4.66170555411584e-015
outer loop
vertex 933.971510485481 546.711192364337 2.99999999999599
vertex 934.247380927045 547.505504534402 1.99999999999753
vertex 934.247380927045 547.505504534402 2.99999999999753
endloop
endfacet
facet normal -5.1096840465522e-013 -2.72693273709598e-013 1.0
outer loop
vertex 926.599876693815 547.246386011113 3.49999999999459
vertex 929.396535823145 547.505504534401 3.49999999999662
vertex 926.550224471419 547.505504534401 3.49999999999574
endloop
endfacet
facet normal -5.1096840465522e-013 -2.72693273709598e-013 1.0
outer loop
vertex 929.396535823145 547.505504534401 3.49999999999662
vertex 926.599876693815 547.246386011113 3.49999999999459
vertex 927.055128570379 546.306641743964 3.49999999999533
endloop
endfacet
facet normal -5.1096840465522e-013 -2.72693273709598e-013 1.0
outer loop
vertex 929.396535823145 547.505504534401 3.49999999999662
vertex 927.055128570379 546.306641743964 3.49999999999533
vertex 927.738091829282 545.516746342194 3.49999999999527
endloop
endfacet
facet normal -5.1096840465522e-013 -2.72693273709598e-013 1.0
outer loop
vertex 929.396535823145 547.505504534401 3.49999999999662
vertex 927.738091829282 545.516746342194 3.49999999999527
vertex 928.602223653078 544.930529872064 3.49999999999529
endloop
endfacet
facet normal -5.1096840465522e-013 -2.72693273709598e-013 1.0
outer loop
vertex 929.396535823145 547.505504534401 3.49999999999662
vertex 928.602223653078 544.930529872064 3.49999999999529
vertex 929.396535823145 544.654659430501 3.49999999999615
endloop
endfacet
facet normal -0.32808343768752 -0.944648748432527 -4.25239630464733e-013
outer loop
vertex 929.396535823145 544.654659430501 1.99999999999615
vertex 928.602223653078 544.930529872064 3.49999999999529
vertex 928.602223653079 544.930529872065 1.99999999999529
endloop
endfacet
facet normal -0.32808343768752 -0.944648748432527 -4.25239630464733e-013
outer loop
vertex 928.602223653078 544.930529872064 3.49999999999529
vertex 929.396535823145 544.654659430501 1.99999999999615
vertex 929.396535823145 544.654659430501 3.49999999999615
endloop
endfacet
facet normal -0.982131532640145 -0.188195782614597 -5.53157906454235e-013
outer loop
vertex 926.550224471419 547.505504534401 3.49999999999574
vertex 926.599876693815 547.246386011114 1.99999999999459
vertex 926.599876693815 547.246386011113 3.49999999999459
endloop
endfacet
facet normal -0.982131532640145 -0.188195782614597 -5.53157906454235e-013
outer loop
vertex 926.599876693815 547.246386011114 1.99999999999459
vertex 926.550224471419 547.505504534401 3.49999999999574
vertex 926.55022447142 547.505504534402 1.99999999999574
endloop
endfacet
facet normal -0.899957559439796 -0.435977512272326 -5.78738013489665e-013
outer loop
vertex 926.599876693815 547.246386011113 3.49999999999459
vertex 927.05512857038 546.306641743965 1.99999999999533
vertex 927.055128570379 546.306641743964 3.49999999999533
endloop
endfacet
facet normal -0.899957559439796 -0.435977512272326 -5.78738013489665e-013
outer loop
vertex 927.05512857038 546.306641743965 1.99999999999533
vertex 926.599876693815 547.246386011113 3.49999999999459
vertex 926.599876693815 547.246386011114 1.99999999999459
endloop
endfacet
facet normal -0.756452965814691 -0.65404809495186 -5.64878081314991e-013
outer loop
vertex 927.055128570379 546.306641743964 3.49999999999533
vertex 927.738091829283 545.516746342194 1.99999999999527
vertex 927.738091829282 545.516746342194 3.49999999999527
endloop
endfacet
facet normal -0.756452965814691 -0.65404809495186 -5.64878081314991e-013
outer loop
vertex 927.738091829283 545.516746342194 1.99999999999527
vertex 927.055128570379 546.306641743964 3.49999999999533
vertex 927.05512857038 546.306641743965 1.99999999999533
endloop
endfacet
facet normal -0.561397352668547 -0.827546380825116 -5.12522641404442e-013
outer loop
vertex 928.602223653079 544.930529872065 1.99999999999529
vertex 927.738091829282 545.516746342194 3.49999999999527
vertex 927.738091829283 545.516746342194 1.99999999999527
endloop
endfacet
facet normal -0.561397352668547 -0.827546380825116 -5.12522641404442e-013
outer loop
vertex 927.738091829282 545.516746342194 3.49999999999527
vertex 928.602223653079 544.930529872065 1.99999999999529
vertex 928.602223653078 544.930529872064 3.49999999999529
endloop
endfacet
facet normal -2.39333843712553e-013 -1.99150849920543e-013 1.0
outer loop
vertex 927.074459084982 547.403775826524 1.79999999999601
vertex 926.968668620635 549.212417854383 1.79999999999583
vertex 926.902507732706 548.301133051027 1.79999999999596
endloop
endfacet
facet normal -2.39333843712553e-013 -1.99150849920543e-013 1.0
outer loop
vertex 926.968668620635 549.212417854383 1.79999999999583
vertex 927.074459084982 547.403775826524 1.79999999999601
vertex 927.2684329936 550.07552768321 1.79999999999659
endloop
endfacet
facet normal -2.39333843712553e-013 -1.99150849920543e-013 1.0
outer loop
vertex 927.2684329936 550.07552768321 1.79999999999659
vertex 927.074459084982 547.403775826524 1.79999999999601
vertex 927.472804476975 546.581499592771 1.79999999999565
endloop
endfacet
facet normal -2.39333843712553e-013 -1.99150849920543e-013 1.0
outer loop
vertex 927.2684329936 550.07552768321 1.79999999999659
vertex 927.472804476975 546.581499592771 1.79999999999565
vertex 927.781372404961 550.831643029033 1.7999999999956
endloop
endfacet
facet normal -2.39333843712553e-013 -1.99150849920543e-013 1.0
outer loop
vertex 927.781372404961 550.831643029033 1.7999999999956
vertex 927.472804476975 546.581499592771 1.79999999999565
vertex 928.070397328514 545.890341116221 1.79999999999552
endloop
endfacet
facet normal -2.39333843712553e-013 -1.99150849920543e-013 1.0
outer loop
vertex 927.781372404961 550.831643029033 1.7999999999956
vertex 928.070397328514 545.890341116221 1.79999999999552
vertex 928.472530881512 551.429235880573 1.79999999999628
endloop
endfacet
facet normal -2.39333843712553e-013 -1.99150849920543e-013 1.0
outer loop
vertex 928.472530881512 551.429235880573 1.79999999999628
vertex 928.070397328514 545.890341116221 1.79999999999552
vertex 928.826512674337 545.377401704857 1.79999999999627
endloop
endfacet
facet normal -2.39333843712553e-013 -1.99150849920543e-013 1.0
outer loop
vertex 928.472530881512 551.429235880573 1.79999999999628
vertex 928.826512674337 545.377401704857 1.79999999999627
vertex 929.294807115265 551.827581272566 1.79999999999586
endloop
endfacet
facet normal -2.39333843712553e-013 -1.99150849920543e-013 1.0
outer loop
vertex 929.294807115265 551.827581272566 1.79999999999586
vertex 928.826512674337 545.377401704857 1.79999999999627
vertex 929.689622503165 545.077637331894 1.79999999999552
endloop
endfacet
facet normal -2.39333843712553e-013 -1.99150849920543e-013 1.0
outer loop
vertex 929.294807115265 551.827581272566 1.79999999999586
vertex 929.689622503165 545.077637331894 1.79999999999552
vertex 930.192164339769 551.999532624843 1.79999999999727
endloop
endfacet
facet normal -2.39333843712553e-013 -1.99150849920543e-013 1.0
outer loop
vertex 930.192164339769 551.999532624843 1.79999999999727
vertex 929.689622503165 545.077637331894 1.79999999999552
vertex 930.600907306522 545.011476443962 1.79999999999684
endloop
endfacet
facet normal -2.39333843712553e-013 -1.99150849920543e-013 1.0
outer loop
vertex 930.192164339769 551.999532624843 1.79999999999727
vertex 930.600907306522 545.011476443962 1.79999999999684
vertex 931.103449143124 551.93337173691 1.79999999999835
endloop
endfacet
facet normal -2.39333843712553e-013 -1.99150849920543e-013 1.0
outer loop
vertex 931.103449143124 551.93337173691 1.79999999999835
vertex 930.600907306522 545.011476443962 1.79999999999684
vertex 931.498264531023 545.18342779624 1.79999999999577
endloop
endfacet
facet normal -2.39333843712553e-013 -1.99150849920543e-013 1.0
outer loop
vertex 931.103449143124 551.93337173691 1.79999999999835
vertex 931.498264531023 545.18342779624 1.79999999999577
vertex 931.966558971952 551.633607363948 1.79999999999913
endloop
endfacet
facet normal -2.39333843712553e-013 -1.99150849920543e-013 1.0
outer loop
vertex 931.966558971952 551.633607363948 1.79999999999913
vertex 931.498264531023 545.18342779624 1.79999999999577
vertex 932.320540764776 545.581773188235 1.7999999999967
endloop
endfacet
facet normal -2.39333843712553e-013 -1.99150849920543e-013 1.0
outer loop
vertex 931.966558971952 551.633607363948 1.79999999999913
vertex 932.320540764776 545.581773188235 1.7999999999967
vertex 932.722674317774 551.120667952586 1.79999999999704
endloop
endfacet
facet normal -2.39333843712553e-013 -1.99150849920543e-013 1.0
outer loop
vertex 932.722674317774 551.120667952586 1.79999999999704
vertex 932.320540764776 545.581773188235 1.7999999999967
vertex 933.011699241327 546.179366039773 1.79999999999654
endloop
endfacet
facet normal -2.39333843712553e-013 -1.99150849920543e-013 1.0
outer loop
vertex 932.722674317774 551.120667952586 1.79999999999704
vertex 933.011699241327 546.179366039773 1.79999999999654
vertex 933.320267169314 550.429509476036 1.79999999999721
endloop
endfacet
facet normal -2.39333843712553e-013 -1.99150849920543e-013 1.0
outer loop
vertex 933.320267169314 550.429509476036 1.79999999999721
vertex 933.011699241327 546.179366039773 1.79999999999654
vertex 933.52463865269 546.935481385596 1.79999999999778
endloop
endfacet
facet normal -2.39333843712553e-013 -1.99150849920543e-013 1.0
outer loop
vertex 933.320267169314 550.429509476036 1.79999999999721
vertex 933.52463865269 546.935481385596 1.79999999999778
vertex 933.718612561307 549.60723324228 1.79999999999742
endloop
endfacet
facet normal -2.39333843712553e-013 -1.99150849920543e-013 1.0
outer loop
vertex 933.718612561307 549.60723324228 1.79999999999742
vertex 933.52463865269 546.935481385596 1.79999999999778
vertex 933.824403025652 547.798591214423 1.79999999999608
endloop
endfacet
facet normal -2.39333843712553e-013 -1.99150849920543e-013 1.0
outer loop
vertex 933.718612561307 549.60723324228 1.79999999999742
vertex 933.824403025652 547.798591214423 1.79999999999608
vertex 933.890563913584 548.709876017777 1.79999999999878
endloop
endfacet
facet normal -0.944648748432308 0.32808343768815 -1.60748320460108e-013
outer loop
vertex 933.824403025652 547.798591214423 1.79999999999608
vertex 933.52463865269 546.935481385597 -2.22100721819114e-012
vertex 933.52463865269 546.935481385596 1.79999999999778
endloop
endfacet
facet normal -0.944648748432308 0.32808343768815 -1.60748320460108e-013
outer loop
vertex 933.52463865269 546.935481385597 -2.22100721819114e-012
vertex 933.824403025652 547.798591214423 1.79999999999608
vertex 933.824403025653 547.798591214424 -3.92380772935953e-012
endloop
endfacet
facet normal -0.827546380826218 0.561397352666922 -8.62570962467905e-014
outer loop
vertex 933.52463865269 546.935481385596 1.79999999999778
vertex 933.011699241328 546.179366039774 -3.4594756284014e-012
vertex 933.011699241327 546.179366039773 1.79999999999654
endloop
endfacet
facet normal -0.827546380826218 0.561397352666922 -8.62570962467905e-014
outer loop
vertex 933.011699241328 546.179366039774 -3.4594756284014e-012
vertex 933.52463865269 546.935481385596 1.79999999999778
vertex 933.52463865269 546.935481385597 -2.22100721819114e-012
endloop
endfacet
facet normal -0.654048094950039 0.756452965816266 -5.88759347004083e-015
outer loop
vertex 932.320540764777 545.581773188235 -3.29815987427222e-012
vertex 933.011699241327 546.179366039773 1.79999999999654
vertex 933.011699241328 546.179366039774 -3.4594756284014e-012
endloop
endfacet
facet normal -0.654048094950039 0.756452965816266 -5.88759347004083e-015
outer loop
vertex 933.011699241327 546.179366039773 1.79999999999654
vertex 932.320540764777 545.581773188235 -3.29815987427222e-012
vertex 932.320540764776 545.581773188235 1.7999999999967
endloop
endfacet
facet normal -0.435977512273574 0.899957559439192 7.48831390700612e-014
outer loop
vertex 931.498264531023 545.18342779624 1.79999999999577
vertex 932.320540764777 545.581773188235 -3.29815987427222e-012
vertex 931.498264531023 545.18342779624 -4.23167927776553e-012
endloop
endfacet
facet normal -0.435977512273574 0.899957559439192 7.48831390700612e-014
outer loop
vertex 932.320540764777 545.581773188235 -3.29815987427222e-012
vertex 931.498264531023 545.18342779624 1.79999999999577
vertex 932.320540764776 545.581773188235 1.7999999999967
endloop
endfacet
facet normal -0.18819578261726 0.982131532639634 1.50550709434668e-013
outer loop
vertex 930.600907306522 545.011476443962 -3.1597927623385e-012
vertex 931.498264531023 545.18342779624 1.79999999999577
vertex 931.498264531023 545.18342779624 -4.23167927776553e-012
endloop
endfacet
facet normal -0.18819578261726 0.982131532639634 1.50550709434668e-013
outer loop
vertex 931.498264531023 545.18342779624 1.79999999999577
vertex 930.600907306522 545.011476443962 -3.1597927623385e-012
vertex 930.600907306522 545.011476443962 1.79999999999684
endloop
endfacet
facet normal 0.0724111786152574 0.99737486493873 2.1595849774768e-013
outer loop
vertex 929.689622503165 545.077637331894 1.79999999999552
vertex 930.600907306522 545.011476443962 -3.1597927623385e-012
vertex 929.689622503166 545.077637331894 -4.48320584274353e-012
endloop
endfacet
facet normal 0.0724111786152574 0.99737486493873 2.1595849774768e-013
outer loop
vertex 930.600907306522 545.011476443962 -3.1597927623385e-012
vertex 929.689622503165 545.077637331894 1.79999999999552
vertex 930.600907306522 545.011476443962 1.79999999999684
endloop
endfacet
facet normal 0.32808343768822 0.944648748432284 2.66649071327016e-013
outer loop
vertex 928.826512674337 545.377401704858 -3.7250991327602e-012
vertex 929.689622503165 545.077637331894 1.79999999999552
vertex 929.689622503166 545.077637331894 -4.48320584274353e-012
endloop
endfacet
facet normal 0.32808343768822 0.944648748432284 2.66649071327016e-013
outer loop
vertex 929.689622503165 545.077637331894 1.79999999999552
vertex 928.826512674337 545.377401704858 -3.7250991327602e-012
vertex 928.826512674337 545.377401704857 1.79999999999627
endloop
endfacet
facet normal 0.561397352668096 0.827546380825422 2.99167951354159e-013
outer loop
vertex 928.070397328514 545.890341116221 1.79999999999552
vertex 928.826512674337 545.377401704858 -3.7250991327602e-012
vertex 928.070397328515 545.890341116221 -4.48467910490376e-012
endloop
endfacet
facet normal 0.561397352668096 0.827546380825422 2.99167951354159e-013
outer loop
vertex 928.826512674337 545.377401704858 -3.7250991327602e-012
vertex 928.070397328514 545.890341116221 1.79999999999552
vertex 928.826512674337 545.377401704857 1.79999999999627
endloop
endfacet
facet normal 0.756452965815235 0.654048094951231 3.1129902989477e-013
outer loop
vertex 928.070397328515 545.890341116221 -4.48467910490376e-012
vertex 927.472804476975 546.581499592771 1.79999999999565
vertex 928.070397328514 545.890341116221 1.79999999999552
endloop
endfacet
facet normal 0.756452965815235 0.654048094951231 3.1129902989477e-013
outer loop
vertex 927.472804476975 546.581499592771 1.79999999999565
vertex 928.070397328515 545.890341116221 -4.48467910490376e-012
vertex 927.472804476975 546.581499592771 -4.34856221739209e-012
endloop
endfacet
facet normal 0.899957559440181 0.43597751227153 3.02215593994106e-013
outer loop
vertex 927.472804476975 546.581499592771 -4.34856221739209e-012
vertex 927.074459084982 547.403775826524 1.79999999999601
vertex 927.472804476975 546.581499592771 1.79999999999565
endloop
endfacet
facet normal 0.899957559440181 0.43597751227153 3.02215593994106e-013
outer loop
vertex 927.074459084982 547.403775826524 1.79999999999601
vertex 927.472804476975 546.581499592771 -4.34856221739209e-012
vertex 927.074459084983 547.403775826525 -3.9935921163094e-012
endloop
endfacet
facet normal 0.982131532639971 0.188195782615502 2.72536664797364e-013
outer loop
vertex 927.074459084983 547.403775826525 -3.9935921163094e-012
vertex 926.902507732706 548.301133051027 1.79999999999596
vertex 927.074459084982 547.403775826524 1.79999999999601
endloop
endfacet
facet normal 0.982131532639971 0.188195782615502 2.72536664797364e-013
outer loop
vertex 926.902507732706 548.301133051027 1.79999999999596
vertex 927.074459084983 547.403775826525 -3.9935921163094e-012
vertex 926.902507732706 548.301133051027 -4.0397535184762e-012
endloop
endfacet
facet normal 0.997374864938913 -0.0724111786127316 2.24284812283644e-013
outer loop
vertex 926.902507732706 548.301133051027 -4.0397535184762e-012
vertex 926.968668620635 549.212417854383 1.79999999999583
vertex 926.902507732706 548.301133051027 1.79999999999596
endloop
endfacet
facet normal 0.997374864938913 -0.0724111786127316 2.24284812283644e-013
outer loop
vertex 926.968668620635 549.212417854383 1.79999999999583
vertex 926.902507732706 548.301133051027 -4.0397535184762e-012
vertex 926.968668620636 549.212417854383 -4.17037046724154e-012
endloop
endfacet
facet normal 0.944648748431653 -0.328083437690035 1.60748320459576e-013
outer loop
vertex 926.968668620636 549.212417854383 -4.17037046724154e-012
vertex 927.2684329936 550.07552768321 1.79999999999659
vertex 926.968668620635 549.212417854383 1.79999999999583
endloop
endfacet
facet normal 0.944648748431653 -0.328083437690035 1.60748320459576e-013
outer loop
vertex 927.2684329936 550.07552768321 1.79999999999659
vertex 926.968668620636 549.212417854383 -4.17037046724154e-012
vertex 927.2684329936 550.07552768321 -3.41416020562821e-012
endloop
endfacet
facet normal 0.827546380826525 -0.56139735266647 8.62570962469538e-014
outer loop
vertex 927.2684329936 550.07552768321 -3.41416020562821e-012
vertex 927.781372404961 550.831643029033 1.7999999999956
vertex 927.2684329936 550.07552768321 1.79999999999659
endloop
endfacet
facet normal 0.827546380826525 -0.56139735266647 8.62570962469538e-014
outer loop
vertex 927.781372404961 550.831643029033 1.7999999999956
vertex 927.2684329936 550.07552768321 -3.41416020562821e-012
vertex 927.781372404962 550.831643029033 -4.39782538366568e-012
endloop
endfacet
facet normal 0.654048094951673 -0.756452965814853 5.88759347071335e-015
outer loop
vertex 928.472530881512 551.429235880573 -3.72443105896069e-012
vertex 927.781372404961 550.831643029033 1.7999999999956
vertex 927.781372404962 550.831643029033 -4.39782538366568e-012
endloop
endfacet
facet normal 0.654048094951673 -0.756452965814853 5.88759347071335e-015
outer loop
vertex 927.781372404961 550.831643029033 1.7999999999956
vertex 928.472530881512 551.429235880573 -3.72443105896069e-012
vertex 928.472530881512 551.429235880573 1.79999999999628
endloop
endfacet
facet normal 0.435977512271882 -0.899957559440011 -7.48831390706294e-014
outer loop
vertex 929.294807115265 551.827581272566 1.79999999999586
vertex 928.472530881512 551.429235880573 -3.72443105896069e-012
vertex 929.294807115265 551.827581272566 -4.14449556709032e-012
endloop
endfacet
facet normal 0.435977512271882 -0.899957559440011 -7.48831390706294e-014
outer loop
vertex 928.472530881512 551.429235880573 -3.72443105896069e-012
vertex 929.294807115265 551.827581272566 1.79999999999586
vertex 928.472530881512 551.429235880573 1.79999999999628
endloop
endfacet
facet normal 0.188195782615767 -0.98213153263992 -1.50550709435082e-013
outer loop
vertex 930.19216433977 551.999532624843 -2.73481157787526e-012
vertex 929.294807115265 551.827581272566 1.79999999999586
vertex 929.294807115265 551.827581272566 -4.14449556709032e-012
endloop
endfacet
facet normal 0.188195782615767 -0.98213153263992 -1.50550709435082e-013
outer loop
vertex 929.294807115265 551.827581272566 1.79999999999586
vertex 930.19216433977 551.999532624843 -2.73481157787526e-012
vertex 930.192164339769 551.999532624843 1.79999999999727
endloop
endfacet
facet normal -0.072411178615961 -0.997374864938679 -2.15958497747838e-013
outer loop
vertex 931.103449143125 551.933371736911 -1.64827568200421e-012
vertex 930.192164339769 551.999532624843 1.79999999999727
vertex 930.19216433977 551.999532624843 -2.73481157787526e-012
endloop
endfacet
facet normal -0.072411178615961 -0.997374864938679 -2.15958497747838e-013
outer loop
vertex 930.192164339769 551.999532624843 1.79999999999727
vertex 931.103449143125 551.933371736911 -1.64827568200421e-012
vertex 931.103449143124 551.93337173691 1.79999999999835
endloop
endfacet
facet normal -0.328083437687726 -0.944648748432455 -2.66649071326931e-013
outer loop
vertex 931.966558971953 551.633607363948 -8.72320625481489e-013
vertex 931.103449143124 551.93337173691 1.79999999999835
vertex 931.103449143125 551.933371736911 -1.64827568200421e-012
endloop
endfacet
facet normal -0.328083437687726 -0.944648748432455 -2.66649071326931e-013
outer loop
vertex 931.103449143124 551.93337173691 1.79999999999835
vertex 931.966558971953 551.633607363948 -8.72320625481489e-013
vertex 931.966558971952 551.633607363948 1.79999999999913
endloop
endfacet
facet normal -0.561397352667067 -0.82754638082612 -2.99167951354051e-013
outer loop
vertex 932.722674317774 551.120667952586 1.79999999999704
vertex 931.966558971953 551.633607363948 -8.72320625481489e-013
vertex 932.722674317775 551.120667952586 -2.95526686774623e-012
endloop
endfacet
facet normal -0.561397352667067 -0.82754638082612 -2.99167951354051e-013
outer loop
vertex 931.966558971953 551.633607363948 -8.72320625481489e-013
vertex 932.722674317774 551.120667952586 1.79999999999704
vertex 931.966558971952 551.633607363948 1.79999999999913
endloop
endfacet
facet normal -0.756452965814944 -0.654048094951568 -3.11299029894767e-013
outer loop
vertex 932.722674317774 551.120667952586 1.79999999999704
vertex 933.320267169315 550.429509476036 -2.78682737514274e-012
vertex 933.320267169314 550.429509476036 1.79999999999721
endloop
endfacet
facet normal -0.756452965814944 -0.654048094951568 -3.11299029894767e-013
outer loop
vertex 933.320267169315 550.429509476036 -2.78682737514274e-012
vertex 932.722674317774 551.120667952586 1.79999999999704
vertex 932.722674317775 551.120667952586 -2.95526686774623e-012
endloop
endfacet
facet normal -0.899957559440538 -0.435977512270794 -3.02215593994044e-013
outer loop
vertex 933.320267169314 550.429509476036 1.79999999999721
vertex 933.718612561307 549.607233242281 -2.57780417971581e-012
vertex 933.718612561307 549.60723324228 1.79999999999742
endloop
endfacet
facet normal -0.899957559440538 -0.435977512270794 -3.02215593994044e-013
outer loop
vertex 933.718612561307 549.607233242281 -2.57780417971581e-012
vertex 933.320267169314 550.429509476036 1.79999999999721
vertex 933.320267169315 550.429509476036 -2.78682737514274e-012
endloop
endfacet
facet normal -0.982131532639803 -0.188195782616382 -2.72536664797498e-013
outer loop
vertex 933.718612561307 549.60723324228 1.79999999999742
vertex 933.890563913585 548.709876017778 -1.22317832964681e-012
vertex 933.890563913584 548.709876017777 1.79999999999878
endloop
endfacet
facet normal -0.982131532639803 -0.188195782616382 -2.72536664797498e-013
outer loop
vertex 933.890563913585 548.709876017778 -1.22317832964681e-012
vertex 933.718612561307 549.60723324228 1.79999999999742
vertex 933.718612561307 549.607233242281 -2.57780417971581e-012
endloop
endfacet
facet normal -0.997374864938702 0.0724111786156394 -2.24284812283015e-013
outer loop
vertex 933.890563913584 548.709876017777 1.79999999999878
vertex 933.824403025653 547.798591214424 -3.92380772935953e-012
vertex 933.824403025652 547.798591214423 1.79999999999608
endloop
endfacet
facet normal -0.997374864938702 0.0724111786156394 -2.24284812283015e-013
outer loop
vertex 933.824403025653 547.798591214424 -3.92380772935953e-012
vertex 933.890563913584 548.709876017777 1.79999999999878
vertex 933.890563913585 548.709876017778 -1.22317832964681e-012
endloop
endfacet
facet normal -3.3348387732546e-015 -0.986393923832147 0.164398987305339
outer loop
vertex 931.396535823145 540.505504534402 10.9999999999967
vertex 929.396535823145 539.005504534402 1.99999999999656
vertex 931.396535823145 539.005504534402 1.99999999999656
endloop
endfacet
facet normal -3.3348387732546e-015 -0.986393923832147 0.164398987305339
outer loop
vertex 929.396535823145 539.005504534402 1.99999999999656
vertex 931.396535823145 540.505504534402 10.9999999999967
vertex 929.396535823145 540.505504534402 10.9999999999966
endloop
endfacet
facet normal 0.986393923832137 -1.72491660682453e-015 0.164398987305399
outer loop
vertex 939.896535823145 547.505504534402 1.99999999999664
vertex 938.396535823145 549.505504534402 10.9999999999966
vertex 938.396535823145 547.505504534402 10.9999999999966
endloop
endfacet
facet normal 0.986393923832137 -1.72491660682453e-015 0.164398987305399
outer loop
vertex 938.396535823145 549.505504534402 10.9999999999966
vertex 939.896535823145 547.505504534402 1.99999999999664
vertex 939.896535823145 549.505504534402 1.99999999999664
endloop
endfacet
facet normal -3.31183988512138e-015 0.98639392383214 0.16439898730538
outer loop
vertex 929.396535823145 556.505504534402 10.9999999999965
vertex 931.396535823145 558.005504534402 1.99999999999662
vertex 929.396535823145 558.005504534402 1.99999999999662
endloop
endfacet
facet normal -3.31183988512138e-015 0.98639392383214 0.16439898730538
outer loop
vertex 931.396535823145 558.005504534402 1.99999999999662
vertex 929.396535823145 556.505504534402 10.9999999999965
vertex 931.396535823145 556.505504534402 10.9999999999966
endloop
endfacet
facet normal -1.14419115585139e-014 1.0 1.17977361774855e-014
outer loop
vertex 931.396535823145 549.505504534402 10.9999999999966
vertex 934.242847174868 549.505504534402 2.99999999999701
vertex 931.396535823145 549.505504534402 2.99999999999657
endloop
endfacet
facet normal -1.14419115585139e-014 1.0 1.17977361774855e-014
outer loop
vertex 934.242847174868 549.505504534402 1.99999999999701
vertex 938.396535823145 549.505504534402 10.9999999999966
vertex 939.896535823145 549.505504534402 1.99999999999664
endloop
endfacet
facet normal -1.14419115585139e-014 1.0 1.17977361774855e-014
outer loop
vertex 938.396535823145 549.505504534402 10.9999999999966
vertex 934.242847174868 549.505504534402 1.99999999999701
vertex 934.242847174868 549.505504534402 2.99999999999701
endloop
endfacet
facet normal -1.14419115585139e-014 1.0 1.17977361774855e-014
outer loop
vertex 938.396535823145 549.505504534402 10.9999999999966
vertex 934.242847174868 549.505504534402 2.99999999999701
vertex 931.396535823145 549.505504534402 10.9999999999966
endloop
endfacet
facet normal -3.06234404091579e-014 -1.0 3.32991342976699e-016
outer loop
vertex 926.550224471419 547.505504534401 3.49999999999574
vertex 920.896535823145 547.505504534402 1.99999999999653
vertex 926.55022447142 547.505504534402 1.99999999999574
endloop
endfacet
facet normal -3.06234404091579e-014 -1.0 3.32991342976699e-016
outer loop
vertex 920.896535823145 547.505504534402 1.99999999999653
vertex 926.550224471419 547.505504534401 3.49999999999574
vertex 922.396535823145 547.505504534402 10.9999999999965
endloop
endfacet
facet normal -3.06234404091579e-014 -1.0 3.32991342976699e-016
outer loop
vertex 922.396535823145 547.505504534402 10.9999999999965
vertex 926.550224471419 547.505504534401 3.49999999999574
vertex 929.396535823145 547.505504534401 3.49999999999662
endloop
endfacet
facet normal -3.06234404091579e-014 -1.0 3.32991342976699e-016
outer loop
vertex 922.396535823145 547.505504534402 10.9999999999965
vertex 929.396535823145 547.505504534401 3.49999999999662
vertex 929.396535823145 547.505504534402 10.9999999999966
endloop
endfacet
facet normal -0.98639392383215 -1.66741938663656e-015 0.16439898730532
outer loop
vertex 922.396535823145 549.505504534402 10.9999999999966
vertex 920.896535823145 547.505504534402 1.99999999999653
vertex 922.396535823145 547.505504534402 10.9999999999965
endloop
endfacet
facet normal -0.98639392383215 -1.66741938663656e-015 0.16439898730532
outer loop
vertex 920.896535823145 547.505504534402 1.99999999999653
vertex 922.396535823145 549.505504534402 10.9999999999966
vertex 920.896535823145 549.505504534402 1.99999999999653
endloop
endfacet
endsolid single
